<?xml version="1.0" encoding="UTF-8" standalone="no"?>
<!-- Created with Inkscape (http://www.inkscape.org/) -->

<svg
   width="32.557289mm"
   height="264.58334mm"
   viewBox="0 0 32.557289 264.58334"
   version="1.1"
   id="svg2869"
   xmlns="http://www.w3.org/2000/svg"
   xmlns:svg="http://www.w3.org/2000/svg">
  <defs
     id="defs2866" />
  <g
     id="layer1"
     transform="translate(-92.776266,-135.15932)">
    <polyline
       points="385.909,549.896 389.393,553.38 "
       id="polyline508"
       style="fill:none;stroke:#000000;stroke-width:0.303207;stroke-miterlimit:4;stroke-dasharray:none"
       transform="matrix(8.8030747,0,0,-8.6499063,-3303.4658,5084.8779)" />
    <polyline
       points="389.393,557.816 385.909,554.332 "
       id="polyline510"
       style="fill:none;stroke:#000000;stroke-width:0.303207;stroke-miterlimit:4;stroke-dasharray:none"
       transform="matrix(8.8030747,0,0,-8.6499063,-3303.4658,5084.8779)" />
    <polyline
       points="385.909,558.606 389.393,562.09 "
       id="polyline512"
       style="fill:none;stroke:#000000;stroke-width:0.303207;stroke-miterlimit:4;stroke-dasharray:none"
       transform="matrix(8.8030747,0,0,-8.6499063,-3303.4658,5084.8779)" />
    <polyline
       points="389.393,566.526 385.909,563.042 "
       id="polyline514"
       style="fill:none;stroke:#000000;stroke-width:0.303207;stroke-miterlimit:4;stroke-dasharray:none"
       transform="matrix(8.8030747,0,0,-8.6499063,-3303.4658,5084.8779)" />
    <polyline
       points="385.909,567.317 389.393,570.801 "
       id="polyline516"
       style="fill:none;stroke:#000000;stroke-width:0.303207;stroke-miterlimit:4;stroke-dasharray:none"
       transform="matrix(8.8030747,0,0,-8.6499063,-3303.4658,5084.8779)" />
    <polyline
       points="387.651,572.228 387.651,541.64 "
       id="polyline518"
       style="fill:none;stroke:#000000;stroke-width:0.303207;stroke-miterlimit:4;stroke-dasharray:none"
       transform="matrix(8.8030747,0,0,-8.6499063,-3303.4658,5084.8779)" />
  </g>
</svg>
