<?xml version="1.0" encoding="UTF-8" standalone="no"?>
<!-- Created with Inkscape (http://www.inkscape.org/) -->

<svg
   width="32.557289mm"
   height="264.58334mm"
   viewBox="0 0 32.557291 264.58333"
   version="1.1"
   id="svg19564"
   xmlns="http://www.w3.org/2000/svg"
   xmlns:svg="http://www.w3.org/2000/svg">
  <defs
     id="defs19561">
    <clipPath
       id="clipId0">
      <path
         d="M 0,768 H 1024 V 0 H 0 Z"
         id="path2" />
    </clipPath>
  </defs>
  <g
     id="layer1"
     transform="translate(-308.55577,-21.825402)">
    <g
       id="g93679"
       transform="matrix(33.271464,0,0,-32.69256,-9987.9993,999.93677)"
       style="stroke-width:0.0802236;stroke-miterlimit:4;stroke-dasharray:none">
      <polyline
         points="385.909,549.896 389.393,553.38 "
         id="polyline508"
         style="fill:none;stroke:#000000;stroke-width:0.303207;stroke-miterlimit:4;stroke-dasharray:none"
         transform="matrix(0.26458333,0,0,0.26458333,207.39433,-121.48352)" />
      <polyline
         points="389.393,557.816 385.909,554.332 "
         id="polyline510"
         style="fill:none;stroke:#000000;stroke-width:0.303207;stroke-miterlimit:4;stroke-dasharray:none"
         transform="matrix(0.26458333,0,0,0.26458333,207.39433,-121.48352)" />
      <polyline
         points="385.909,558.606 389.393,562.09 "
         id="polyline512"
         style="fill:none;stroke:#000000;stroke-width:0.303207;stroke-miterlimit:4;stroke-dasharray:none"
         transform="matrix(0.26458333,0,0,0.26458333,207.39433,-121.48352)" />
      <polyline
         points="389.393,566.526 385.909,563.042 "
         id="polyline514"
         style="fill:none;stroke:#000000;stroke-width:0.303207;stroke-miterlimit:4;stroke-dasharray:none"
         transform="matrix(0.26458333,0,0,0.26458333,207.39433,-121.48352)" />
      <polyline
         points="385.909,567.317 389.393,570.801 "
         id="polyline516"
         style="fill:none;stroke:#000000;stroke-width:0.303207;stroke-miterlimit:4;stroke-dasharray:none"
         transform="matrix(0.26458333,0,0,0.26458333,207.39433,-121.48352)" />
      <polyline
         points="387.651,572.228 387.651,541.64 "
         id="polyline518"
         style="fill:none;stroke:#000000;stroke-width:0.303207;stroke-miterlimit:4;stroke-dasharray:none"
         transform="matrix(0.26458333,0,0,0.26458333,207.39433,-121.48352)" />
    </g>
  </g>
</svg>
