<?xml version="1.0" standalone="no"?>
<!DOCTYPE svg PUBLIC "-//W3C//DTD SVG 1.1//EN" "http://www.w3.org/Graphics/SVG/1.1/DTD/svg11.dtd">
<svg viewBox="0 0 522 367" version="1.1" xmlns="http://www.w3.org/2000/svg" xmlns:xlink="http://www.w3.org/1999/xlink">
	<polyline fill="none" stroke="rgb(229,229,229)" stroke-width="1" stroke-opacity="1" points="104,26 104,288"/>
	<polyline fill="none" stroke="rgb(229,229,229)" stroke-width="1" stroke-opacity="1" points="179.6,26 179.6,288"/>
	<polyline fill="none" stroke="rgb(229,229,229)" stroke-width="1" stroke-opacity="1" points="255.2,26 255.2,288"/>
	<polyline fill="none" stroke="rgb(229,229,229)" stroke-width="1" stroke-opacity="1" points="330.8,26 330.8,288"/>
	<polyline fill="none" stroke="rgb(229,229,229)" stroke-width="1" stroke-opacity="1" points="406.4,26 406.4,288"/>
	<polyline fill="none" stroke="rgb(229,229,229)" stroke-width="1" stroke-opacity="1" points="482,26 482,288"/>
	<polyline fill="none" stroke="rgb(229,229,229)" stroke-width="1" stroke-opacity="1" points="104,288 482,288"/>
	<polyline fill="none" stroke="rgb(229,229,229)" stroke-width="1" stroke-opacity="1" points="104,235.6 482,235.6"/>
	<polyline fill="none" stroke="rgb(229,229,229)" stroke-width="1" stroke-opacity="1" points="104,183.2 482,183.2"/>
	<polyline fill="none" stroke="rgb(229,229,229)" stroke-width="1" stroke-opacity="1" points="104,130.8 482,130.8"/>
	<polyline fill="none" stroke="rgb(229,229,229)" stroke-width="1" stroke-opacity="1" points="104,78.4 482,78.4"/>
	<polyline fill="none" stroke="rgb(229,229,229)" stroke-width="1" stroke-opacity="1" points="104,26 482,26"/>
	<polyline fill="none" stroke="rgb(192,192,192)" stroke-width="1" stroke-opacity="1" points="255.2,26 255.2,288"/>
	<polyline fill="none" stroke="rgb(0,0,0)" stroke-width="1" stroke-opacity="1" points="104,288 482,288"/>
	<polyline fill="none" stroke="rgb(0,0,0)" stroke-width="1" stroke-opacity="1" points="482,288 482,26"/>
	<polyline fill="none" stroke="rgb(0,0,0)" stroke-width="1" stroke-opacity="1" points="482,26 104,26"/>
	<polyline fill="none" stroke="rgb(0,0,0)" stroke-width="1" stroke-opacity="1" points="104,26 104,288"/>
	<polyline fill="none" stroke="rgb(0,0,0)" stroke-width="1" stroke-opacity="1" points="104,288 104,294"/>
	<polyline fill="none" stroke="rgb(0,0,0)" stroke-width="1" stroke-opacity="1" points="179.6,288 179.6,294"/>
	<polyline fill="none" stroke="rgb(0,0,0)" stroke-width="1" stroke-opacity="1" points="255.2,288 255.2,294"/>
	<polyline fill="none" stroke="rgb(0,0,0)" stroke-width="1" stroke-opacity="1" points="330.8,288 330.8,294"/>
	<polyline fill="none" stroke="rgb(0,0,0)" stroke-width="1" stroke-opacity="1" points="406.4,288 406.4,294"/>
	<polyline fill="none" stroke="rgb(0,0,0)" stroke-width="1" stroke-opacity="1" points="482,288 482,294"/>
	<polyline fill="none" stroke="rgb(0,0,0)" stroke-width="1" stroke-opacity="1" points="104,288 104,297.6"/>
	<text fill="rgb(0,0,0)" font-size="17" font-family="helvetica" text-anchor="middle" dominant-baseline="central" x="104" y="311.5">-4</text>
	<polyline fill="none" stroke="rgb(0,0,0)" stroke-width="1" stroke-opacity="1" points="255.2,288 255.2,297.6"/>
	<text fill="rgb(0,0,0)" font-size="17" font-family="helvetica" text-anchor="middle" dominant-baseline="central" x="255.2" y="311.5">0</text>
	<polyline fill="none" stroke="rgb(0,0,0)" stroke-width="1" stroke-opacity="1" points="406.4,288 406.4,297.6"/>
	<text fill="rgb(0,0,0)" font-size="17" font-family="helvetica" text-anchor="middle" dominant-baseline="central" x="406.4" y="311.5">4</text>
	<polyline fill="none" stroke="rgb(0,0,0)" stroke-width="1" stroke-opacity="1" points="98,288 104,288"/>
	<polyline fill="none" stroke="rgb(0,0,0)" stroke-width="1" stroke-opacity="1" points="98,235.6 104,235.6"/>
	<polyline fill="none" stroke="rgb(0,0,0)" stroke-width="1" stroke-opacity="1" points="98,183.2 104,183.2"/>
	<polyline fill="none" stroke="rgb(0,0,0)" stroke-width="1" stroke-opacity="1" points="98,130.8 104,130.8"/>
	<polyline fill="none" stroke="rgb(0,0,0)" stroke-width="1" stroke-opacity="1" points="98,78.4 104,78.4"/>
	<polyline fill="none" stroke="rgb(0,0,0)" stroke-width="1" stroke-opacity="1" points="98,26 104,26"/>
	<rect fill="none" stroke="none" stroke-dasharray="none" stroke-width="1" stroke-opacity="1" x="14" y="277" width="78" height="22"/>
	<polyline fill="none" stroke="rgb(0,0,0)" stroke-width="1" stroke-opacity="1" points="94.4,288 104,288"/>
	<text fill="rgb(0,0,0)" font-size="17" font-family="helvetica" text-anchor="end" dominant-baseline="central" x="92" y="288">0.0</text>
	<polyline fill="none" stroke="rgb(0,0,0)" stroke-width="1" stroke-opacity="1" points="94.4,235.6 104,235.6"/>
	<text fill="rgb(0,0,0)" font-size="17" font-family="helvetica" text-anchor="end" dominant-baseline="central" x="92" y="235.6">0.2</text>
	<polyline fill="none" stroke="rgb(0,0,0)" stroke-width="1" stroke-opacity="1" points="94.4,183.2 104,183.2"/>
	<text fill="rgb(0,0,0)" font-size="17" font-family="helvetica" text-anchor="end" dominant-baseline="central" x="92" y="183.2">0.4</text>
	<polyline fill="none" stroke="rgb(0,0,0)" stroke-width="1" stroke-opacity="1" points="94.4,130.8 104,130.8"/>
	<text fill="rgb(0,0,0)" font-size="17" font-family="helvetica" text-anchor="end" dominant-baseline="central" x="92" y="130.8">0.6</text>
	<polyline fill="none" stroke="rgb(0,0,0)" stroke-width="1" stroke-opacity="1" points="94.4,78.4 104,78.4"/>
	<text fill="rgb(0,0,0)" font-size="17" font-family="helvetica" text-anchor="end" dominant-baseline="central" x="92" y="78.4">0.8</text>
	<polyline fill="none" stroke="rgb(0,0,0)" stroke-width="1" stroke-opacity="1" points="94.4,26 104,26"/>
	<text fill="rgb(0,0,0)" font-size="17" font-family="helvetica" text-anchor="end" dominant-baseline="central" x="92" y="26">1.0</text>
	<text fill="rgb(0,0,0)" font-size="17" font-family="helvetica" text-anchor="middle" dominant-baseline="central" transform="translate(39, 157) rotate(-90)">Ratio of Efficiency</text>
	<text fill="rgb(0,0,0)" font-size="17" font-family="helvetica" text-anchor="middle" dominant-baseline="central" x="293" y="340">Log10 of Ratio of Euler Number</text>
	<clipPath id="clipArea1">
		<rect x="104" y="26" width="379" height="262">
		</rect>
	</clipPath>
	<polyline fill="none" stroke="rgb(28,108,200)" stroke-width="1" stroke-opacity="1" clip-path="url(#clipArea1)" points="104,287.35 104.756,287.337 105.512,287.324 106.268,287.31 107.024,287.295 107.78,287.28 108.536,287.265 109.292,287.249 110.048,287.233 110.804,287.216 111.56,287.198 112.316,287.18 113.072,287.161 113.828,287.141 114.584,287.121 115.34,287.1 116.096,287.079 116.852,287.057 117.608,287.033 118.364,287.01 119.12,286.985 119.876,286.959 120.632,286.933 121.388,286.905 122.144,286.877 122.9,286.847 123.656,286.816 124.412,286.785 125.168,286.752 125.924,286.718 126.68,286.682 127.436,286.645 128.192,286.607 128.948,286.568 129.704,286.527 130.46,286.484 131.216,286.44 131.972,286.394 132.728,286.346 133.484,286.297 134.24,286.245 134.996,286.192 135.752,286.136 136.508,286.079 137.264,286.018 138.02,285.956 138.776,285.891 139.532,285.824 140.288,285.753 141.044,285.68 141.8,285.604 142.556,285.525 143.312,285.443 144.068,285.357 144.824,285.268 145.58,285.175 146.336,285.078 147.092,284.977 147.848,284.872 148.604,284.763 149.36,284.649 150.116,284.53 150.872,284.406 151.628,284.277 152.384,284.143 153.14,284.002 153.896,283.856 154.652,283.703 155.408,283.544 156.164,283.378 156.92,283.205 157.676,283.025 158.432,282.836 159.188,282.64 159.944,282.435 160.7,282.221 161.456,281.997 162.212,281.764 162.968,281.521 163.724,281.267 164.48,281.002 165.236,280.725 165.992,280.436 166.748,280.134 167.504,279.819 168.26,279.49 169.016,279.147 169.772,278.788 170.528,278.414 171.284,278.023 172.04,277.615 172.796,277.189 173.552,276.744 174.308,276.28 175.064,275.795 175.82,275.289 176.576,274.761 177.332,274.209 178.088,273.634 178.844,273.033 179.6,272.406 180.356,271.752 181.112,271.07 181.868,270.358 182.624,269.616 183.38,268.841 184.136,268.034 184.892,267.192 185.648,266.314 186.404,265.399 187.16,264.446 187.916,263.453 188.672,262.418 189.428,261.341 190.184,260.219 190.94,259.052 191.696,257.837 192.452,256.573 193.208,255.259 193.964,253.892 194.72,252.471 195.476,250.995 196.232,249.462 196.988,247.871 197.744,246.219 198.5,244.505 199.256,242.727 200.012,240.885 200.768,238.975 201.524,236.998 202.28,234.951 203.036,232.833 203.792,230.643 204.548,228.38 205.304,226.041 206.06,223.627 206.816,221.136 207.572,218.568 208.328,215.921 209.084,213.196 209.84,210.391 210.596,207.507 211.352,204.543 212.108,201.5 212.864,198.377 213.62,195.176 214.376,191.897 215.132,188.542 215.888,185.111 216.644,181.606 217.4,178.029 218.156,174.382 218.912,170.667 219.668,166.888 220.424,163.047 221.18,159.148 221.936,155.195 222.692,151.191 223.448,147.142 224.204,143.051 224.96,138.925 225.716,134.768 226.472,130.587 227.228,126.387 227.984,122.175 228.74,117.958 229.496,113.743 230.252,109.538 231.008,105.349 231.764,101.185 232.52,97.0539 233.276,92.9637 234.032,88.9229 234.788,84.9399 235.544,81.0232 236.3,77.1815 237.056,73.4233 237.812,69.757 238.568,66.1912 239.324,62.734 240.08,59.3935 240.836,56.1776 241.592,53.0937 242.348,50.1492 243.104,47.3508 243.86,44.7051 244.616,42.2178 245.372,39.8946 246.128,37.7402 246.884,35.7591 247.64,33.955 248.396,32.3309 249.152,30.8894 249.908,29.6323 250.664,28.5605 251.42,27.6747 252.176,26.9744 252.932,26.4587 253.688,26.126 254.444,25.9741 255.2,26 255.956,26.2002 256.712,26.5706 257.468,27.1066 258.224,27.803 258.98,28.6542 259.736,29.6543 260.492,30.7969 261.248,32.0753 262.004,33.4826 262.76,35.0118 263.516,36.6555 264.272,38.4064 265.028,40.2571 265.784,42.2002 266.54,44.2285 267.296,46.3346 268.052,48.5116 268.808,50.7525 269.564,53.0507 270.32,55.3997 271.076,57.7935 271.832,60.226 272.588,62.6918 273.344,65.1857 274.1,67.7026 274.856,70.2381 275.612,72.788 276.368,75.3481 277.124,77.9151 277.88,80.4856 278.636,83.0565 279.392,85.6253 280.148,88.1894 280.904,90.7468 281.66,93.2954 282.416,95.8335 283.172,98.3597 283.928,100.873 284.684,103.371 285.44,105.854 286.196,108.321 286.952,110.77 287.708,113.202 288.464,115.615 289.22,118.01 289.976,120.386 290.732,122.742 291.488,125.078 292.244,127.394 293,129.69 293.756,131.966 294.512,134.221 295.268,136.455 296.024,138.669 296.78,140.861 297.536,143.033 298.292,145.184 299.048,147.314 299.804,149.423 300.56,151.511 301.316,153.578 302.072,155.624 302.828,157.649 303.584,159.653 304.34,161.636 305.096,163.598 305.852,165.538 306.608,167.458 307.364,169.357 308.12,171.235 308.876,173.093 309.632,174.929 310.388,176.745 311.144,178.54 311.9,180.315 312.656,182.068 313.412,183.802 314.168,185.515 314.924,187.207 315.68,188.88 316.436,190.532 317.192,192.164 317.948,193.776 318.704,195.368 319.46,196.94 320.216,198.492 320.972,200.025 321.728,201.538 322.484,203.032 323.24,204.507 323.996,205.962 324.752,207.398 325.508,208.815 326.264,210.213 327.02,211.593 327.776,212.953 328.532,214.296 329.288,215.619 330.044,216.925 330.8,218.212 331.556,219.482 332.312,220.733 333.068,221.967 333.824,223.183 334.58,224.382 335.336,225.563 336.092,226.727 336.848,227.874 337.604,229.005 338.36,230.118 339.116,231.215 339.872,232.295 340.628,233.359 341.384,234.407 342.14,235.439 342.896,236.455 343.652,237.455 344.408,238.44 345.164,239.409 345.92,240.363 346.676,241.302 347.432,242.226 348.188,243.135 348.944,244.029 349.7,244.909 350.456,245.775 351.212,246.626 351.968,247.463 352.724,248.287 353.48,249.097 354.236,249.893 354.992,250.676 355.748,251.445 356.504,252.202 357.26,252.945 358.016,253.676 358.772,254.394 359.528,255.1 360.284,255.793 361.04,256.474 361.796,257.144 362.552,257.801 363.308,258.446 364.064,259.08 364.82,259.703 365.576,260.314 366.332,260.915 367.088,261.504 367.844,262.082 368.6,262.65 369.356,263.207 370.112,263.754 370.868,264.291 371.624,264.817 372.38,265.334 373.136,265.841 373.892,266.338 374.648,266.826 375.404,267.304 376.16,267.773 376.916,268.233 377.672,268.684 378.428,269.126 379.184,269.56 379.94,269.984 380.696,270.401 381.452,270.809 382.208,271.209 382.964,271.601 383.72,271.985 384.476,272.361 385.232,272.73 385.988,273.091 386.744,273.445 387.5,273.791 388.256,274.13 389.012,274.463 389.768,274.788 390.524,275.106 391.28,275.418 392.036,275.723 392.792,276.022 393.548,276.314 394.304,276.6 395.06,276.88 395.816,277.154 396.572,277.422 397.328,277.684 398.084,277.94 398.84,278.191 399.596,278.436 400.352,278.676 401.108,278.911 401.864,279.14 402.62,279.364 403.376,279.584 404.132,279.798 404.888,280.007 405.644,280.212 406.4,280.412 407.156,280.608 407.912,280.799 408.668,280.985 409.424,281.168 410.18,281.346 410.936,281.52 411.692,281.689 412.448,281.855 413.204,282.017 413.96,282.175 414.716,282.33 415.472,282.481 416.228,282.628 416.984,282.772 417.74,282.912 418.496,283.049 419.252,283.182 420.008,283.312 420.764,283.439 421.52,283.564 422.276,283.684 423.032,283.802 423.788,283.918 424.544,284.03 425.3,284.139 426.056,284.246 426.812,284.35 427.568,284.452 428.324,284.55 429.08,284.647 429.836,284.741 430.592,284.832 431.348,284.922 432.104,285.009 432.86,285.093 433.616,285.176 434.372,285.256 435.128,285.335 435.884,285.411 436.64,285.485 437.396,285.558 438.152,285.628 438.908,285.697 439.664,285.763 440.42,285.828 441.176,285.892 441.932,285.953 442.688,286.013 443.444,286.072 444.2,286.128 444.956,286.184 445.712,286.237 446.468,286.29 447.224,286.341 447.98,286.39 448.736,286.438 449.492,286.485 450.248,286.531 451.004,286.575 451.76,286.618 452.516,286.66 453.272,286.7 454.028,286.74 454.784,286.778 455.54,286.816 456.296,286.852 457.052,286.887 457.808,286.922 458.564,286.955 459.32,286.987 460.076,287.019 460.832,287.049 461.588,287.079 462.344,287.108 463.1,287.136 463.856,287.163 464.612,287.189 465.368,287.215 466.124,287.24 466.88,287.264 467.636,287.287 468.392,287.31 469.148,287.332 469.904,287.353 470.66,287.374 471.416,287.394 472.172,287.414 472.928,287.432 473.684,287.451 474.44,287.469 475.196,287.486 475.952,287.503 476.708,287.519 477.464,287.535 478.22,287.55 478.976,287.565 479.732,287.579 480.488,287.593 481.244,287.607 482,287.62 482,287.62"/>
</svg>
