<?xml version="1.0" standalone="no"?>
<!DOCTYPE svg PUBLIC "-//W3C//DTD SVG 1.1//EN" "http://www.w3.org/Graphics/SVG/1.1/DTD/svg11.dtd">
<svg viewBox="0 0 535 374" version="1.1" xmlns="http://www.w3.org/2000/svg" xmlns:xlink="http://www.w3.org/1999/xlink">
	<polyline fill="none" stroke="rgb(229,229,229)" stroke-width="1" stroke-opacity="1" points="104,50 104,296"/>
	<polyline fill="none" stroke="rgb(229,229,229)" stroke-width="1" stroke-opacity="1" points="143.2,50 143.2,296"/>
	<polyline fill="none" stroke="rgb(229,229,229)" stroke-width="1" stroke-opacity="1" points="182.4,50 182.4,296"/>
	<polyline fill="none" stroke="rgb(229,229,229)" stroke-width="1" stroke-opacity="1" points="221.6,50 221.6,296"/>
	<polyline fill="none" stroke="rgb(229,229,229)" stroke-width="1" stroke-opacity="1" points="260.8,50 260.8,296"/>
	<polyline fill="none" stroke="rgb(229,229,229)" stroke-width="1" stroke-opacity="1" points="300,50 300,296"/>
	<polyline fill="none" stroke="rgb(229,229,229)" stroke-width="1" stroke-opacity="1" points="339.2,50 339.2,296"/>
	<polyline fill="none" stroke="rgb(229,229,229)" stroke-width="1" stroke-opacity="1" points="378.4,50 378.4,296"/>
	<polyline fill="none" stroke="rgb(229,229,229)" stroke-width="1" stroke-opacity="1" points="417.6,50 417.6,296"/>
	<polyline fill="none" stroke="rgb(229,229,229)" stroke-width="1" stroke-opacity="1" points="456.8,50 456.8,296"/>
	<polyline fill="none" stroke="rgb(229,229,229)" stroke-width="1" stroke-opacity="1" points="496,50 496,296"/>
	<polyline fill="none" stroke="rgb(229,229,229)" stroke-width="1" stroke-opacity="1" points="104,296 496,296"/>
	<polyline fill="none" stroke="rgb(229,229,229)" stroke-width="1" stroke-opacity="1" points="104,246.8 496,246.8"/>
	<polyline fill="none" stroke="rgb(229,229,229)" stroke-width="1" stroke-opacity="1" points="104,197.6 496,197.6"/>
	<polyline fill="none" stroke="rgb(229,229,229)" stroke-width="1" stroke-opacity="1" points="104,148.4 496,148.4"/>
	<polyline fill="none" stroke="rgb(229,229,229)" stroke-width="1" stroke-opacity="1" points="104,99.2 496,99.2"/>
	<polyline fill="none" stroke="rgb(229,229,229)" stroke-width="1" stroke-opacity="1" points="104,50 496,50"/>
	<polyline fill="none" stroke="rgb(192,192,192)" stroke-width="1" stroke-opacity="1" points="260.8,50 260.8,296"/>
	<polyline fill="none" stroke="rgb(0,0,0)" stroke-width="1" stroke-opacity="1" points="104,296 496,296"/>
	<polyline fill="none" stroke="rgb(0,0,0)" stroke-width="1" stroke-opacity="1" points="496,296 496,50"/>
	<polyline fill="none" stroke="rgb(0,0,0)" stroke-width="1" stroke-opacity="1" points="496,50 104,50"/>
	<polyline fill="none" stroke="rgb(0,0,0)" stroke-width="1" stroke-opacity="1" points="104,50 104,296"/>
	<polyline fill="none" stroke="rgb(0,0,0)" stroke-width="1" stroke-opacity="1" points="104,296 104,302"/>
	<polyline fill="none" stroke="rgb(0,0,0)" stroke-width="1" stroke-opacity="1" points="143.2,296 143.2,302"/>
	<polyline fill="none" stroke="rgb(0,0,0)" stroke-width="1" stroke-opacity="1" points="182.4,296 182.4,302"/>
	<polyline fill="none" stroke="rgb(0,0,0)" stroke-width="1" stroke-opacity="1" points="221.6,296 221.6,302"/>
	<polyline fill="none" stroke="rgb(0,0,0)" stroke-width="1" stroke-opacity="1" points="260.8,296 260.8,302"/>
	<polyline fill="none" stroke="rgb(0,0,0)" stroke-width="1" stroke-opacity="1" points="300,296 300,302"/>
	<polyline fill="none" stroke="rgb(0,0,0)" stroke-width="1" stroke-opacity="1" points="339.2,296 339.2,302"/>
	<polyline fill="none" stroke="rgb(0,0,0)" stroke-width="1" stroke-opacity="1" points="378.4,296 378.4,302"/>
	<polyline fill="none" stroke="rgb(0,0,0)" stroke-width="1" stroke-opacity="1" points="417.6,296 417.6,302"/>
	<polyline fill="none" stroke="rgb(0,0,0)" stroke-width="1" stroke-opacity="1" points="456.8,296 456.8,302"/>
	<polyline fill="none" stroke="rgb(0,0,0)" stroke-width="1" stroke-opacity="1" points="496,296 496,302"/>
	<polyline fill="none" stroke="rgb(0,0,0)" stroke-width="1" stroke-opacity="1" points="260.8,296 260.8,305.6"/>
	<text fill="rgb(0,0,0)" font-size="17" font-family="helvetica" text-anchor="middle" dominant-baseline="central" x="260.8" y="319.5">0</text>
	<polyline fill="none" stroke="rgb(0,0,0)" stroke-width="1" stroke-opacity="1" points="456.8,296 456.8,305.6"/>
	<text fill="rgb(0,0,0)" font-size="17" font-family="helvetica" text-anchor="middle" dominant-baseline="central" x="456.8" y="319.5">5</text>
	<polyline fill="none" stroke="rgb(0,0,0)" stroke-width="1" stroke-opacity="1" points="98,296 104,296"/>
	<polyline fill="none" stroke="rgb(0,0,0)" stroke-width="1" stroke-opacity="1" points="98,246.8 104,246.8"/>
	<polyline fill="none" stroke="rgb(0,0,0)" stroke-width="1" stroke-opacity="1" points="98,197.6 104,197.6"/>
	<polyline fill="none" stroke="rgb(0,0,0)" stroke-width="1" stroke-opacity="1" points="98,148.4 104,148.4"/>
	<polyline fill="none" stroke="rgb(0,0,0)" stroke-width="1" stroke-opacity="1" points="98,99.2 104,99.2"/>
	<polyline fill="none" stroke="rgb(0,0,0)" stroke-width="1" stroke-opacity="1" points="98,50 104,50"/>
	<rect fill="none" stroke="none" stroke-dasharray="none" stroke-width="1" stroke-opacity="1" x="14" y="285" width="78" height="22"/>
	<polyline fill="none" stroke="rgb(0,0,0)" stroke-width="1" stroke-opacity="1" points="94.4,296 104,296"/>
	<text fill="rgb(0,0,0)" font-size="17" font-family="helvetica" text-anchor="end" dominant-baseline="central" x="92" y="296">0.0</text>
	<polyline fill="none" stroke="rgb(0,0,0)" stroke-width="1" stroke-opacity="1" points="94.4,246.8 104,246.8"/>
	<text fill="rgb(0,0,0)" font-size="17" font-family="helvetica" text-anchor="end" dominant-baseline="central" x="92" y="246.8">0.2</text>
	<polyline fill="none" stroke="rgb(0,0,0)" stroke-width="1" stroke-opacity="1" points="94.4,197.6 104,197.6"/>
	<text fill="rgb(0,0,0)" font-size="17" font-family="helvetica" text-anchor="end" dominant-baseline="central" x="92" y="197.6">0.4</text>
	<polyline fill="none" stroke="rgb(0,0,0)" stroke-width="1" stroke-opacity="1" points="94.4,148.4 104,148.4"/>
	<text fill="rgb(0,0,0)" font-size="17" font-family="helvetica" text-anchor="end" dominant-baseline="central" x="92" y="148.4">0.6</text>
	<polyline fill="none" stroke="rgb(0,0,0)" stroke-width="1" stroke-opacity="1" points="94.4,99.2 104,99.2"/>
	<text fill="rgb(0,0,0)" font-size="17" font-family="helvetica" text-anchor="end" dominant-baseline="central" x="92" y="99.2">0.8</text>
	<polyline fill="none" stroke="rgb(0,0,0)" stroke-width="1" stroke-opacity="1" points="94.4,50 104,50"/>
	<text fill="rgb(0,0,0)" font-size="17" font-family="helvetica" text-anchor="end" dominant-baseline="central" x="92" y="50">1.0</text>
	<text fill="rgb(0,0,0)" font-size="17" font-family="helvetica" text-anchor="middle" dominant-baseline="central" transform="translate(39, 173) rotate(-90)">Ratio of Efficiency</text>
	<text fill="rgb(0,0,0)" font-size="17" font-family="helvetica" text-anchor="middle" dominant-baseline="central" x="300" y="348">Log10 of Ratio of Euler Number</text>
	<clipPath id="clipArea1">
		<rect x="104" y="50" width="393" height="246">
		</rect>
	</clipPath>
	<polyline fill="none" stroke="rgb(28,108,200)" stroke-width="1" stroke-opacity="1" clip-path="url(#clipArea1)" points="104,296 104.784,296 105.568,296 106.352,296 107.136,296 107.92,296 108.704,296 109.488,296 110.272,296 111.056,296 111.84,296 112.624,296 113.408,296 114.192,296 114.976,296 115.76,296 116.544,296 117.328,296 118.112,296 118.896,296 119.68,296 120.464,296 121.248,296 122.032,296 122.816,296 123.6,296 124.384,296 125.168,296 125.952,296 126.736,296 127.52,295.93 128.304,295.686 129.088,295.459 129.872,295.247 130.656,295.05 131.44,294.867 132.224,294.698 133.008,294.542 133.792,294.398 134.576,294.265 135.36,294.144 136.144,294.032 136.928,293.93 137.712,293.837 138.496,293.753 139.28,293.676 140.064,293.606 140.848,293.542 141.632,293.483 142.416,293.43 143.2,293.381 143.984,293.336 144.768,293.293 145.552,293.253 146.336,293.214 147.12,293.177 147.904,293.139 148.688,293.102 149.472,293.063 150.256,293.023 151.04,292.98 151.824,292.934 152.608,292.885 153.392,292.831 154.176,292.772 154.96,292.708 155.744,292.637 156.528,292.56 157.312,292.474 158.096,292.381 158.88,292.278 159.664,292.166 160.448,292.043 161.232,291.91 162.016,291.765 162.8,291.607 163.584,291.437 164.368,291.253 165.152,291.055 165.936,290.842 166.72,290.613 167.504,290.368 168.288,290.107 169.072,289.827 169.856,289.53 170.64,289.213 171.424,288.877 172.208,288.521 172.992,288.144 173.776,287.745 174.56,287.324 175.344,286.88 176.128,286.413 176.912,285.921 177.696,285.405 178.48,284.863 179.264,284.295 180.048,283.7 180.832,283.077 181.616,282.427 182.4,281.747 183.184,281.038 183.968,280.299 184.752,279.529 185.536,278.728 186.32,277.895 187.104,277.028 187.888,276.128 188.672,275.195 189.456,274.226 190.24,273.222 191.024,272.181 191.808,271.104 192.592,269.99 193.376,268.837 194.16,267.646 194.944,266.415 195.728,265.145 196.512,263.833 197.296,262.48 198.08,261.085 198.864,259.647 199.648,258.166 200.432,256.641 201.216,255.071 202,253.455 202.784,251.794 203.568,250.086 204.352,248.33 205.136,246.527 205.92,244.675 206.704,242.773 207.488,240.822 208.272,238.819 209.056,236.766 209.84,234.66 210.624,232.502 211.408,230.29 212.192,228.025 212.976,225.705 213.76,223.329 214.544,220.898 215.328,218.409 216.112,215.864 216.896,213.261 217.68,210.598 218.464,207.877 219.248,205.096 220.032,202.254 220.816,199.351 221.6,196.386 222.384,193.358 223.168,190.267 223.952,187.112 224.736,183.893 225.52,180.608 226.304,177.258 227.088,173.84 227.872,170.356 228.656,166.804 229.44,163.183 230.224,159.493 231.008,155.733 231.792,151.902 232.576,148.001 233.36,144.027 234.144,139.981 234.928,135.862 235.712,131.669 236.496,127.401 237.28,123.058 238.064,118.64 238.848,114.144 239.632,109.572 240.416,104.922 241.2,100.193 241.984,95.5521 242.768,91.1652 243.552,87.0269 244.336,83.133 245.12,79.479 245.904,76.0606 246.688,72.8732 247.472,69.9125 248.256,67.1742 249.04,64.6537 249.824,62.3467 250.608,60.2488 251.392,58.3557 252.176,56.6627 252.96,55.1657 253.744,53.8602 254.528,52.7417 255.312,51.8058 256.096,51.0483 256.88,50.4646 257.664,50.0504 258.448,49.8012 259.232,49.7127 260.016,49.7804 260.8,50 261.584,50.367 262.368,50.8771 263.152,51.5257 263.936,52.3087 264.72,53.2214 265.504,54.2596 266.288,55.4188 267.072,56.6946 267.856,58.0826 268.64,59.5784 269.424,61.1777 270.208,62.8759 270.992,64.6687 271.776,66.5518 272.56,68.5206 273.344,70.5708 274.128,72.698 274.912,74.8978 275.696,77.1658 276.48,79.4975 277.264,81.8886 278.048,84.3347 278.832,86.8313 279.616,89.3741 280.4,91.9587 281.184,94.5526 281.968,97.1227 282.752,99.6703 283.536,102.196 284.32,104.699 285.104,107.18 285.888,109.638 286.672,112.075 287.456,114.49 288.24,116.884 289.024,119.255 289.808,121.605 290.592,123.934 291.376,126.241 292.16,128.527 292.944,130.792 293.728,133.036 294.512,135.258 295.296,137.46 296.08,139.642 296.864,141.802 297.648,143.942 298.432,146.062 299.216,148.161 300,150.24 300.784,152.298 301.568,154.337 302.352,156.356 303.136,158.354 303.92,160.333 304.704,162.293 305.488,164.233 306.272,166.153 307.056,168.054 307.84,169.936 308.624,171.798 309.408,173.642 310.192,175.466 310.976,177.272 311.76,179.059 312.544,180.827 313.328,182.576 314.112,184.308 314.896,186.02 315.68,187.715 316.464,189.391 317.248,191.049 318.032,192.69 318.816,194.312 319.6,195.917 320.384,197.504 321.168,199.073 321.952,200.625 322.736,202.159 323.52,203.677 324.304,205.177 325.088,206.66 325.872,208.126 326.656,209.575 327.44,211.007 328.224,212.423 329.008,213.822 329.792,215.205 330.576,216.571 331.36,217.921 332.144,219.254 332.928,220.572 333.712,221.874 334.496,223.16 335.28,224.43 336.064,225.684 336.848,226.923 337.632,228.146 338.416,229.354 339.2,230.546 339.984,231.724 340.768,232.886 341.552,234.033 342.336,235.166 343.12,236.284 343.904,237.386 344.688,238.475 345.472,239.549 346.256,240.608 347.04,241.653 347.824,242.684 348.608,243.701 349.392,244.704 350.176,245.693 350.96,246.668 351.744,247.63 352.528,248.578 353.312,249.512 354.096,250.433 354.88,251.341 355.664,252.236 356.448,253.117 357.232,253.986 358.016,254.841 358.8,255.684 359.584,256.514 360.368,257.332 361.152,258.136 361.936,258.929 362.72,259.709 363.504,260.477 364.288,261.233 365.072,261.977 365.856,262.709 366.64,263.43 367.424,264.138 368.208,264.835 368.992,265.52 369.776,266.195 370.56,266.857 371.344,267.509 372.128,268.149 372.912,268.779 373.696,269.397 374.48,270.005 375.264,270.602 376.048,271.188 376.832,271.764 377.616,272.329 378.4,272.885 379.184,273.429 379.968,273.964 380.752,274.489 381.536,275.004 382.32,275.509 383.104,276.004 383.888,276.49 384.672,276.966 385.456,277.433 386.24,277.891 387.024,278.339 387.808,278.778 388.592,279.208 389.376,279.63 390.16,280.042 390.944,280.446 391.728,280.841 392.512,281.227 393.296,281.606 394.08,281.975 394.864,282.337 395.648,282.691 396.432,283.036 397.216,283.374 398,283.703 398.784,284.025 399.568,284.34 400.352,284.647 401.136,284.946 401.92,285.238 402.704,285.523 403.488,285.801 404.272,286.071 405.056,286.335 405.84,286.592 406.624,286.843 407.408,287.086 408.192,287.323 408.976,287.554 409.76,287.778 410.544,287.996 411.328,288.208 412.112,288.414 412.896,288.614 413.68,288.808 414.464,288.997 415.248,289.18 416.032,289.357 416.816,289.529 417.6,289.695 418.384,289.857 419.168,290.013 419.952,290.164 420.736,290.31 421.52,290.452 422.304,290.588 423.088,290.72 423.872,290.848 424.656,290.971 425.44,291.089 426.224,291.204 427.008,291.314 427.792,291.42 428.576,291.522 429.36,291.621 430.144,291.716 430.928,291.807 431.712,291.894 432.496,291.978 433.28,292.059 434.064,292.137 434.848,292.211 435.632,292.282 436.416,292.351 437.2,292.416 437.984,292.479 438.768,292.539 439.552,292.597 440.336,292.652 441.12,292.704 441.904,292.755 442.688,292.803 443.472,292.85 444.256,292.894 445.04,292.937 445.824,292.977 446.608,293.017 447.392,293.054 448.176,293.09 448.96,293.125 449.744,293.159 450.528,293.191 451.312,293.222 452.096,293.253 452.88,293.282 453.664,293.311 454.448,293.339 455.232,293.367 456.016,293.394 456.8,293.42 457.584,293.447 458.368,293.473 459.152,293.499 459.936,293.526 460.72,293.552 461.504,293.579 462.288,293.606 463.072,293.633 463.856,293.661 464.64,293.69 465.424,293.719 466.208,293.75 466.992,293.781 467.776,293.813 468.56,293.846 469.344,293.881 470.128,293.917 470.912,293.954 471.696,293.993 472.48,294.033 473.264,294.075 474.048,294.12 474.832,294.166 475.616,294.214 476.4,294.264 477.184,294.316 477.968,294.371 478.752,294.428 479.536,294.488 480.32,294.55 481.104,294.615 481.888,294.683 482.672,294.753 483.456,294.827 484.24,294.904 485.024,294.984 485.808,295.068 486.592,295.155 487.376,295.245 488.16,295.339 488.944,295.437 489.728,295.539 490.512,295.644 491.296,295.754 492.08,295.867 492.864,295.985 493.648,296 494.432,296 495.216,296 496,296 496,296"/>
	<polyline fill="none" stroke="rgb(238,46,47)" stroke-width="1" stroke-opacity="1" clip-path="url(#clipArea1)" points="104,295.39 104.784,295.378 105.568,295.365 106.352,295.352 107.136,295.338 107.92,295.324 108.704,295.31 109.488,295.295 110.272,295.279 111.056,295.263 111.84,295.247 112.624,295.23 113.408,295.212 114.192,295.194 114.976,295.175 115.76,295.155 116.544,295.135 117.328,295.114 118.112,295.092 118.896,295.07 119.68,295.047 120.464,295.023 121.248,294.998 122.032,294.972 122.816,294.945 123.6,294.917 124.384,294.889 125.168,294.859 125.952,294.828 126.736,294.796 127.52,294.763 128.304,294.728 129.088,294.692 129.872,294.655 130.656,294.617 131.44,294.577 132.224,294.535 133.008,294.492 133.792,294.447 134.576,294.401 135.36,294.352 136.144,294.302 136.928,294.25 137.712,294.196 138.496,294.139 139.28,294.081 140.064,294.02 140.848,293.956 141.632,293.891 142.416,293.822 143.2,293.751 143.984,293.676 144.768,293.599 145.552,293.518 146.336,293.435 147.12,293.347 147.904,293.256 148.688,293.162 149.472,293.063 150.256,292.96 151.04,292.853 151.824,292.742 152.608,292.626 153.392,292.504 154.176,292.378 154.96,292.246 155.744,292.109 156.528,291.966 157.312,291.816 158.096,291.661 158.88,291.498 159.664,291.329 160.448,291.152 161.232,290.967 162.016,290.775 162.8,290.574 163.584,290.364 164.368,290.145 165.152,289.917 165.936,289.678 166.72,289.429 167.504,289.169 168.288,288.898 169.072,288.615 169.856,288.319 170.64,288.01 171.424,287.688 172.208,287.351 172.992,287 173.776,286.633 174.56,286.249 175.344,285.849 176.128,285.432 176.912,284.996 177.696,284.541 178.48,284.065 179.264,283.569 180.048,283.052 180.832,282.511 181.616,281.947 182.4,281.359 183.184,280.745 183.968,280.104 184.752,279.436 185.536,278.738 186.32,278.011 187.104,277.253 187.888,276.462 188.672,275.638 189.456,274.779 190.24,273.884 191.024,272.952 191.808,271.981 192.592,270.969 193.376,269.916 194.16,268.82 194.944,267.679 195.728,266.492 196.512,265.258 197.296,263.975 198.08,262.641 198.864,261.255 199.648,259.816 200.432,258.321 201.216,256.77 202,255.161 202.784,253.492 203.568,251.762 204.352,249.969 205.136,248.113 205.92,246.191 206.704,244.202 207.488,242.146 208.272,240.021 209.056,237.825 209.84,235.558 210.624,233.22 211.408,230.808 212.192,228.323 212.976,225.764 213.76,223.131 214.544,220.422 215.328,217.64 216.112,214.782 216.896,211.85 217.68,208.845 218.464,205.766 219.248,202.615 220.032,199.394 220.816,196.103 221.6,192.744 222.384,189.32 223.168,185.832 223.952,182.284 224.736,178.678 225.52,175.017 226.304,171.305 227.088,167.546 227.872,163.744 228.656,159.903 229.44,156.029 230.224,152.126 231.008,148.2 231.792,144.257 232.576,140.302 233.36,136.343 234.144,132.385 234.928,128.436 235.712,124.503 236.496,120.594 237.28,116.715 238.064,112.874 238.848,109.08 239.632,105.34 240.416,101.663 241.2,98.0559 241.984,94.5272 242.768,91.0849 243.552,87.7368 244.336,84.4907 245.12,81.3542 245.904,78.3347 246.688,75.4391 247.472,72.6744 248.256,70.047 249.04,67.5628 249.824,65.2274 250.608,63.046 251.392,61.0232 252.176,59.1631 252.96,57.4692 253.744,55.9443 254.528,54.5908 255.312,53.4105 256.096,52.4042 256.88,51.5724 257.664,50.9149 258.448,50.4307 259.232,50.1183 260.016,49.9757 260.8,50 261.584,50.188 262.368,50.5357 263.152,51.039 263.936,51.6929 264.72,52.4921 265.504,53.4311 266.288,54.5039 267.072,55.7043 267.856,57.0257 268.64,58.4614 269.424,60.0047 270.208,61.6487 270.992,63.3864 271.776,65.2109 272.56,67.1153 273.344,69.0928 274.128,71.1368 274.912,73.2409 275.696,75.3987 276.48,77.6043 277.264,79.8519 278.048,82.1359 278.832,84.4511 279.616,86.7926 280.4,89.1559 281.184,91.5366 281.968,93.9307 282.752,96.3345 283.536,98.7447 284.32,101.158 285.104,103.572 285.888,105.984 286.672,108.392 287.456,110.793 288.24,113.186 289.024,115.569 289.808,117.941 290.592,120.3 291.376,122.646 292.16,124.977 292.944,127.293 293.728,129.593 294.512,131.877 295.296,134.143 296.08,136.391 296.864,138.622 297.648,140.834 298.432,143.027 299.216,145.202 300,147.358 300.784,149.494 301.568,151.612 302.352,153.71 303.136,155.788 303.92,157.847 304.704,159.886 305.488,161.906 306.272,163.906 307.056,165.886 307.84,167.847 308.624,169.787 309.408,171.708 310.192,173.609 310.976,175.491 311.76,177.353 312.544,179.195 313.328,181.017 314.112,182.82 314.896,184.603 315.68,186.366 316.464,188.11 317.248,189.834 318.032,191.539 318.816,193.225 319.6,194.891 320.384,196.538 321.168,198.165 321.952,199.773 322.736,201.363 323.52,202.933 324.304,204.484 325.088,206.016 325.872,207.53 326.656,209.025 327.44,210.501 328.224,211.959 329.008,213.398 329.792,214.819 330.576,216.221 331.36,217.606 332.144,218.972 332.928,220.32 333.712,221.651 334.496,222.964 335.28,224.259 336.064,225.536 336.848,226.797 337.632,228.04 338.416,229.265 339.2,230.474 339.984,231.666 340.768,232.841 341.552,234 342.336,235.141 343.12,236.267 343.904,237.376 344.688,238.469 345.472,239.546 346.256,240.607 347.04,241.653 347.824,242.683 348.608,243.697 349.392,244.696 350.176,245.68 350.96,246.649 351.744,247.603 352.528,248.542 353.312,249.466 354.096,250.376 354.88,251.272 355.664,252.154 356.448,253.021 357.232,253.875 358.016,254.714 358.8,255.541 359.584,256.353 360.368,257.153 361.152,257.939 361.936,258.712 362.72,259.473 363.504,260.22 364.288,260.955 365.072,261.678 365.856,262.388 366.64,263.086 367.424,263.772 368.208,264.447 368.992,265.109 369.776,265.76 370.56,266.4 371.344,267.028 372.128,267.645 372.912,268.251 373.696,268.846 374.48,269.431 375.264,270.005 376.048,270.569 376.832,271.122 377.616,271.665 378.4,272.198 379.184,272.721 379.968,273.235 380.752,273.739 381.536,274.233 382.32,274.718 383.104,275.194 383.888,275.661 384.672,276.119 385.456,276.568 386.24,277.008 387.024,277.44 387.808,277.864 388.592,278.279 389.376,278.686 390.16,279.085 390.944,279.476 391.728,279.859 392.512,280.235 393.296,280.603 394.08,280.963 394.864,281.316 395.648,281.663 396.432,282.002 397.216,282.334 398,282.659 398.784,282.977 399.568,283.289 400.352,283.595 401.136,283.894 401.92,284.186 402.704,284.473 403.488,284.753 404.272,285.028 405.056,285.296 405.84,285.559 406.624,285.816 407.408,286.068 408.192,286.314 408.976,286.555 409.76,286.79 410.544,287.021 411.328,287.246 412.112,287.466 412.896,287.681 413.68,287.892 414.464,288.098 415.248,288.299 416.032,288.496 416.816,288.688 417.6,288.876 418.384,289.059 419.168,289.238 419.952,289.414 420.736,289.585 421.52,289.752 422.304,289.915 423.088,290.075 423.872,290.231 424.656,290.383 425.44,290.531 426.224,290.676 427.008,290.818 427.792,290.956 428.576,291.091 429.36,291.222 430.144,291.351 430.928,291.476 431.712,291.599 432.496,291.718 433.28,291.834 434.064,291.948 434.848,292.059 435.632,292.167 436.416,292.272 437.2,292.375 437.984,292.475 438.768,292.573 439.552,292.668 440.336,292.761 441.12,292.852 441.904,292.94 442.688,293.026 443.472,293.11 444.256,293.191 445.04,293.271 445.824,293.348 446.608,293.424 447.392,293.497 448.176,293.569 448.96,293.639 449.744,293.707 450.528,293.773 451.312,293.837 452.096,293.9 452.88,293.961 453.664,294.02 454.448,294.078 455.232,294.135 456.016,294.189 456.8,294.243 457.584,294.295 458.368,294.345 459.152,294.394 459.936,294.442 460.72,294.488 461.504,294.534 462.288,294.578 463.072,294.62 463.856,294.662 464.64,294.702 465.424,294.742 466.208,294.78 466.992,294.817 467.776,294.853 468.56,294.888 469.344,294.922 470.128,294.955 470.912,294.987 471.696,295.019 472.48,295.049 473.264,295.079 474.048,295.107 474.832,295.135 475.616,295.162 476.4,295.188 477.184,295.214 477.968,295.239 478.752,295.263 479.536,295.286 480.32,295.309 481.104,295.331 481.888,295.352 482.672,295.373 483.456,295.393 484.24,295.412 485.024,295.431 485.808,295.449 486.592,295.467 487.376,295.484 488.16,295.501 488.944,295.517 489.728,295.533 490.512,295.548 491.296,295.563 492.08,295.577 492.864,295.591 493.648,295.605 494.432,295.618 495.216,295.631 496,295.643 496,295.643"/>
	<rect fill="rgb(255,255,255)" stroke="none" stroke-opacity="0.7" transform="translate(225, 25) translate(0, 0) scale(1,-1)" x="-121" y="-12" width="242" height="24"/>
	<polyline fill="none" stroke="rgb(28,108,200)" stroke-width="1" stroke-opacity="1" points="104,27 134,27"/>
	<text fill="rgb(0,0,0)" font-size="17" font-family="helvetica" text-anchor="start" dominant-baseline="central" x="139" y="27">Approximation</text>
	<polyline fill="none" stroke="rgb(238,46,47)" stroke-width="1" stroke-opacity="1" points="251,27 281,27"/>
	<text fill="rgb(0,0,0)" font-size="17" font-family="helvetica" text-anchor="start" dominant-baseline="central" x="286" y="27">Original</text>
</svg>
