<?xml version="1.0" standalone="no"?>
<!DOCTYPE svg PUBLIC "-//W3C//DTD SVG 1.1//EN" "http://www.w3.org/Graphics/SVG/1.1/DTD/svg11.dtd">
<svg viewBox="0 0 592 372" version="1.1" xmlns="http://www.w3.org/2000/svg" xmlns:xlink="http://www.w3.org/1999/xlink">
	<polyline fill="none" stroke="rgb(229,229,229)" stroke-width="1" stroke-opacity="1" points="104,26 104,291"/>
	<polyline fill="none" stroke="rgb(229,229,229)" stroke-width="1" stroke-opacity="1" points="148.6,26 148.6,291"/>
	<polyline fill="none" stroke="rgb(229,229,229)" stroke-width="1" stroke-opacity="1" points="193.2,26 193.2,291"/>
	<polyline fill="none" stroke="rgb(229,229,229)" stroke-width="1" stroke-opacity="1" points="237.8,26 237.8,291"/>
	<polyline fill="none" stroke="rgb(229,229,229)" stroke-width="1" stroke-opacity="1" points="282.4,26 282.4,291"/>
	<polyline fill="none" stroke="rgb(229,229,229)" stroke-width="1" stroke-opacity="1" points="327,26 327,291"/>
	<polyline fill="none" stroke="rgb(229,229,229)" stroke-width="1" stroke-opacity="1" points="371.6,26 371.6,291"/>
	<polyline fill="none" stroke="rgb(229,229,229)" stroke-width="1" stroke-opacity="1" points="416.2,26 416.2,291"/>
	<polyline fill="none" stroke="rgb(229,229,229)" stroke-width="1" stroke-opacity="1" points="460.8,26 460.8,291"/>
	<polyline fill="none" stroke="rgb(229,229,229)" stroke-width="1" stroke-opacity="1" points="505.4,26 505.4,291"/>
	<polyline fill="none" stroke="rgb(229,229,229)" stroke-width="1" stroke-opacity="1" points="550,26 550,291"/>
	<polyline fill="none" stroke="rgb(229,229,229)" stroke-width="1" stroke-opacity="1" points="104,291 550,291"/>
	<polyline fill="none" stroke="rgb(229,229,229)" stroke-width="1" stroke-opacity="1" points="104,238 550,238"/>
	<polyline fill="none" stroke="rgb(229,229,229)" stroke-width="1" stroke-opacity="1" points="104,185 550,185"/>
	<polyline fill="none" stroke="rgb(229,229,229)" stroke-width="1" stroke-opacity="1" points="104,132 550,132"/>
	<polyline fill="none" stroke="rgb(229,229,229)" stroke-width="1" stroke-opacity="1" points="104,79 550,79"/>
	<polyline fill="none" stroke="rgb(229,229,229)" stroke-width="1" stroke-opacity="1" points="104,26 550,26"/>
	<polyline fill="none" stroke="rgb(192,192,192)" stroke-width="1" stroke-opacity="1" points="282.4,26 282.4,291"/>
	<polyline fill="none" stroke="rgb(0,0,0)" stroke-width="1" stroke-opacity="1" points="104,291 550,291"/>
	<polyline fill="none" stroke="rgb(0,0,0)" stroke-width="1" stroke-opacity="1" points="550,291 550,26"/>
	<polyline fill="none" stroke="rgb(0,0,0)" stroke-width="1" stroke-opacity="1" points="550,26 104,26"/>
	<polyline fill="none" stroke="rgb(0,0,0)" stroke-width="1" stroke-opacity="1" points="104,26 104,291"/>
	<polyline fill="none" stroke="rgb(0,0,0)" stroke-width="1" stroke-opacity="1" points="104,291 104,297"/>
	<polyline fill="none" stroke="rgb(0,0,0)" stroke-width="1" stroke-opacity="1" points="148.6,291 148.6,297"/>
	<polyline fill="none" stroke="rgb(0,0,0)" stroke-width="1" stroke-opacity="1" points="193.2,291 193.2,297"/>
	<polyline fill="none" stroke="rgb(0,0,0)" stroke-width="1" stroke-opacity="1" points="237.8,291 237.8,297"/>
	<polyline fill="none" stroke="rgb(0,0,0)" stroke-width="1" stroke-opacity="1" points="282.4,291 282.4,297"/>
	<polyline fill="none" stroke="rgb(0,0,0)" stroke-width="1" stroke-opacity="1" points="327,291 327,297"/>
	<polyline fill="none" stroke="rgb(0,0,0)" stroke-width="1" stroke-opacity="1" points="371.6,291 371.6,297"/>
	<polyline fill="none" stroke="rgb(0,0,0)" stroke-width="1" stroke-opacity="1" points="416.2,291 416.2,297"/>
	<polyline fill="none" stroke="rgb(0,0,0)" stroke-width="1" stroke-opacity="1" points="460.8,291 460.8,297"/>
	<polyline fill="none" stroke="rgb(0,0,0)" stroke-width="1" stroke-opacity="1" points="505.4,291 505.4,297"/>
	<polyline fill="none" stroke="rgb(0,0,0)" stroke-width="1" stroke-opacity="1" points="550,291 550,297"/>
	<polyline fill="none" stroke="rgb(0,0,0)" stroke-width="1" stroke-opacity="1" points="282.4,291 282.4,300.6"/>
	<text fill="rgb(0,0,0)" font-size="17" font-family="helvetica" text-anchor="middle" dominant-baseline="central" x="282.4" y="314.5">0</text>
	<polyline fill="none" stroke="rgb(0,0,0)" stroke-width="1" stroke-opacity="1" points="505.4,291 505.4,300.6"/>
	<text fill="rgb(0,0,0)" font-size="17" font-family="helvetica" text-anchor="middle" dominant-baseline="central" x="505.4" y="314.5">5</text>
	<polyline fill="none" stroke="rgb(0,0,0)" stroke-width="1" stroke-opacity="1" points="98,291 104,291"/>
	<polyline fill="none" stroke="rgb(0,0,0)" stroke-width="1" stroke-opacity="1" points="98,238 104,238"/>
	<polyline fill="none" stroke="rgb(0,0,0)" stroke-width="1" stroke-opacity="1" points="98,185 104,185"/>
	<polyline fill="none" stroke="rgb(0,0,0)" stroke-width="1" stroke-opacity="1" points="98,132 104,132"/>
	<polyline fill="none" stroke="rgb(0,0,0)" stroke-width="1" stroke-opacity="1" points="98,79 104,79"/>
	<polyline fill="none" stroke="rgb(0,0,0)" stroke-width="1" stroke-opacity="1" points="98,26 104,26"/>
	<rect fill="none" stroke="none" stroke-dasharray="none" stroke-width="1" stroke-opacity="1" x="14" y="280" width="78" height="22"/>
	<polyline fill="none" stroke="rgb(0,0,0)" stroke-width="1" stroke-opacity="1" points="94.4,291 104,291"/>
	<text fill="rgb(0,0,0)" font-size="17" font-family="helvetica" text-anchor="end" dominant-baseline="central" x="92" y="291">0.0</text>
	<polyline fill="none" stroke="rgb(0,0,0)" stroke-width="1" stroke-opacity="1" points="94.4,238 104,238"/>
	<text fill="rgb(0,0,0)" font-size="17" font-family="helvetica" text-anchor="end" dominant-baseline="central" x="92" y="238">0.2</text>
	<polyline fill="none" stroke="rgb(0,0,0)" stroke-width="1" stroke-opacity="1" points="94.4,185 104,185"/>
	<text fill="rgb(0,0,0)" font-size="17" font-family="helvetica" text-anchor="end" dominant-baseline="central" x="92" y="185">0.4</text>
	<polyline fill="none" stroke="rgb(0,0,0)" stroke-width="1" stroke-opacity="1" points="94.4,132 104,132"/>
	<text fill="rgb(0,0,0)" font-size="17" font-family="helvetica" text-anchor="end" dominant-baseline="central" x="92" y="132">0.6</text>
	<polyline fill="none" stroke="rgb(0,0,0)" stroke-width="1" stroke-opacity="1" points="94.4,79 104,79"/>
	<text fill="rgb(0,0,0)" font-size="17" font-family="helvetica" text-anchor="end" dominant-baseline="central" x="92" y="79">0.8</text>
	<polyline fill="none" stroke="rgb(0,0,0)" stroke-width="1" stroke-opacity="1" points="94.4,26 104,26"/>
	<text fill="rgb(0,0,0)" font-size="17" font-family="helvetica" text-anchor="end" dominant-baseline="central" x="92" y="26">1.0</text>
	<text fill="rgb(0,0,0)" font-size="17" font-family="helvetica" text-anchor="middle" dominant-baseline="central" transform="translate(39, 158.5) rotate(-90)">Ratio of efficiency</text>
	<text fill="rgb(0,0,0)" font-size="17" font-family="helvetica" text-anchor="middle" dominant-baseline="central" x="327" y="343">Ratio of Euler number</text>
	<clipPath id="clipArea1">
		<rect x="104" y="26" width="447" height="265">
		</rect>
	</clipPath>
	<polyline fill="none" stroke="rgb(28,108,200)" stroke-width="1" stroke-opacity="1" clip-path="url(#clipArea1)" points="104,290.343 104.892,290.33 105.784,290.316 106.676,290.302 107.568,290.287 108.46,290.272 109.352,290.257 110.244,290.24 111.136,290.224 112.028,290.207 112.92,290.189 113.812,290.17 114.704,290.151 115.596,290.132 116.488,290.111 117.38,290.09 118.272,290.068 119.164,290.046 120.056,290.022 120.948,289.998 121.84,289.973 122.732,289.947 123.624,289.92 124.516,289.893 125.408,289.864 126.3,289.834 127.192,289.803 128.084,289.771 128.976,289.737 129.868,289.703 130.76,289.667 131.652,289.63 132.544,289.591 133.436,289.551 134.328,289.51 135.22,289.467 136.112,289.422 137.004,289.376 137.896,289.327 138.788,289.277 139.68,289.225 140.572,289.171 141.464,289.115 142.356,289.057 143.248,288.996 144.14,288.933 145.032,288.867 145.924,288.799 146.816,288.728 147.708,288.654 148.6,288.577 149.492,288.497 150.384,288.413 151.276,288.327 152.168,288.236 153.06,288.142 153.952,288.045 154.844,287.943 155.736,287.836 156.628,287.726 157.52,287.61 158.412,287.49 159.304,287.365 160.196,287.234 161.088,287.098 161.98,286.956 162.872,286.809 163.764,286.654 164.656,286.493 165.548,286.326 166.44,286.15 167.332,285.968 168.224,285.777 169.116,285.579 170.008,285.371 170.9,285.155 171.792,284.929 172.684,284.693 173.576,284.447 174.468,284.19 175.36,283.922 176.252,283.642 177.144,283.349 178.036,283.044 178.928,282.726 179.82,282.393 180.712,282.046 181.604,281.683 182.496,281.304 183.388,280.909 184.28,280.496 185.172,280.065 186.064,279.616 186.956,279.146 187.848,278.655 188.74,278.144 189.632,277.609 190.524,277.052 191.416,276.469 192.308,275.862 193.2,275.228 194.092,274.566 194.984,273.876 195.876,273.156 196.768,272.405 197.66,271.622 198.552,270.805 199.444,269.953 200.336,269.066 201.228,268.14 202.12,267.176 203.012,266.172 203.904,265.125 204.796,264.036 205.688,262.901 206.58,261.72 207.472,260.492 208.364,259.213 209.256,257.884 210.148,256.501 211.04,255.064 211.932,253.572 212.824,252.021 213.716,250.411 214.608,248.74 215.5,247.007 216.392,245.209 217.284,243.345 218.176,241.414 219.068,239.414 219.96,237.344 220.852,235.202 221.744,232.986 222.636,230.697 223.528,228.332 224.42,225.89 225.312,223.371 226.204,220.773 227.096,218.096 227.988,215.339 228.88,212.503 229.772,209.585 230.664,206.587 231.556,203.509 232.448,200.351 233.34,197.113 234.232,193.797 235.124,190.403 236.016,186.932 236.908,183.387 237.8,179.769 238.692,176.081 239.584,172.324 240.476,168.501 241.368,164.616 242.26,160.673 243.152,156.674 244.044,152.625 244.936,148.529 245.828,144.392 246.72,140.218 247.612,136.014 248.504,131.784 249.396,127.536 250.288,123.277 251.18,119.011 252.072,114.748 252.964,110.494 253.856,106.258 254.748,102.046 255.64,97.8675 256.532,93.7305 257.424,89.6434 258.316,85.6148 259.208,81.6533 260.1,77.7676 260.992,73.9663 261.884,70.2581 262.776,66.6514 263.668,63.1546 264.56,59.7759 265.452,56.5231 266.344,53.404 267.236,50.4257 268.128,47.5953 269.02,44.9192 269.912,42.4035 270.804,40.0536 271.696,37.8746 272.588,35.8709 273.48,34.0461 274.372,32.4034 275.264,30.9454 276.156,29.6739 277.048,28.5899 277.94,27.6938 278.832,26.9855 279.724,26.4639 280.616,26.1275 281.508,25.9738 282.4,26 283.292,26.2025 284.184,26.5771 285.076,27.1192 285.968,27.8236 286.86,28.6846 287.752,29.6961 288.644,30.8518 289.536,32.1449 290.428,33.5683 291.32,35.115 292.212,36.7775 293.104,38.5484 293.996,40.4203 294.888,42.3857 295.78,44.4372 296.672,46.5674 297.564,48.7693 298.456,51.0359 299.348,53.3604 300.24,55.7364 301.132,58.1575 302.024,60.6179 302.916,63.112 303.808,65.6344 304.7,68.1801 305.592,70.7447 306.484,73.3237 307.376,75.9132 308.268,78.5096 309.16,81.1094 310.052,83.7099 310.944,86.308 311.836,88.9015 312.728,91.4882 313.62,94.0659 314.512,96.6332 315.404,99.1883 316.296,101.73 317.188,104.257 318.08,106.768 318.972,109.263 319.864,111.741 320.756,114.2 321.648,116.641 322.54,119.064 323.432,121.466 324.324,123.849 325.216,126.212 326.108,128.555 327,130.877 327.892,133.179 328.784,135.46 329.676,137.72 330.568,139.959 331.46,142.177 332.352,144.373 333.244,146.549 334.136,148.703 335.028,150.837 335.92,152.949 336.812,155.039 337.704,157.108 338.596,159.157 339.488,161.183 340.38,163.189 341.272,165.173 342.164,167.136 343.056,169.078 343.948,170.999 344.84,172.898 345.732,174.777 346.624,176.635 347.516,178.471 348.408,180.287 349.3,182.082 350.192,183.856 351.084,185.609 351.976,187.341 352.868,189.053 353.76,190.745 354.652,192.416 355.544,194.067 356.436,195.697 357.328,197.307 358.22,198.897 359.112,200.468 360.004,202.018 360.896,203.548 361.788,205.059 362.68,206.551 363.572,208.023 364.464,209.475 365.356,210.908 366.248,212.323 367.14,213.718 368.032,215.094 368.924,216.452 369.816,217.791 370.708,219.111 371.6,220.413 372.492,221.697 373.384,222.963 374.276,224.211 375.168,225.441 376.06,226.653 376.952,227.848 377.844,229.026 378.736,230.186 379.628,231.329 380.52,232.455 381.412,233.565 382.304,234.657 383.196,235.734 384.088,236.793 384.98,237.837 385.872,238.865 386.764,239.876 387.656,240.872 388.548,241.853 389.44,242.817 390.332,243.767 391.224,244.702 392.116,245.621 393.008,246.526 393.9,247.416 394.792,248.291 395.684,249.152 396.576,249.999 397.468,250.832 398.36,251.651 399.252,252.457 400.144,253.248 401.036,254.027 401.928,254.792 402.82,255.544 403.712,256.283 404.604,257.01 405.496,257.723 406.388,258.425 407.28,259.113 408.172,259.79 409.064,260.455 409.956,261.108 410.848,261.749 411.74,262.379 412.632,262.997 413.524,263.604 414.416,264.2 415.308,264.785 416.2,265.36 417.092,265.923 417.984,266.477 418.876,267.019 419.768,267.552 420.66,268.074 421.552,268.587 422.444,269.09 423.336,269.583 424.228,270.067 425.12,270.541 426.012,271.007 426.904,271.463 427.796,271.91 428.688,272.348 429.58,272.778 430.472,273.199 431.364,273.612 432.256,274.017 433.148,274.413 434.04,274.802 434.932,275.182 435.824,275.555 436.716,275.92 437.608,276.278 438.5,276.629 439.392,276.972 440.284,277.308 441.176,277.637 442.068,277.959 442.96,278.274 443.852,278.583 444.744,278.885 445.636,279.18 446.528,279.47 447.42,279.753 448.312,280.03 449.204,280.301 450.096,280.566 450.988,280.825 451.88,281.079 452.772,281.327 453.664,281.57 454.556,281.807 455.448,282.039 456.34,282.266 457.232,282.487 458.124,282.704 459.016,282.916 459.908,283.123 460.8,283.325 461.692,283.523 462.584,283.716 463.476,283.905 464.368,284.089 465.26,284.269 466.152,284.445 467.044,284.617 467.936,284.785 468.828,284.949 469.72,285.109 470.612,285.265 471.504,285.417 472.396,285.566 473.288,285.712 474.18,285.853 475.072,285.992 475.964,286.127 476.856,286.259 477.748,286.387 478.64,286.513 479.532,286.635 480.424,286.754 481.316,286.871 482.208,286.984 483.1,287.095 483.992,287.203 484.884,287.308 485.776,287.411 486.668,287.511 487.56,287.608 488.452,287.703 489.344,287.796 490.236,287.886 491.128,287.974 492.02,288.06 492.912,288.143 493.804,288.225 494.696,288.304 495.588,288.381 496.48,288.456 497.372,288.53 498.264,288.601 499.156,288.67 500.048,288.738 500.94,288.804 501.832,288.868 502.724,288.93 503.616,288.991 504.508,289.05 505.4,289.107 506.292,289.163 507.184,289.217 508.076,289.27 508.968,289.322 509.86,289.372 510.752,289.42 511.644,289.468 512.536,289.514 513.428,289.559 514.32,289.602 515.212,289.644 516.104,289.686 516.996,289.726 517.888,289.764 518.78,289.802 519.672,289.839 520.564,289.875 521.456,289.909 522.348,289.943 523.24,289.976 524.132,290.007 525.024,290.038 525.916,290.068 526.808,290.097 527.7,290.126 528.592,290.153 529.484,290.18 530.376,290.206 531.268,290.231 532.16,290.255 533.052,290.279 533.944,290.302 534.836,290.324 535.728,290.346 536.62,290.367 537.512,290.387 538.404,290.407 539.296,290.426 540.188,290.445 541.08,290.463 541.972,290.48 542.864,290.497 543.756,290.513 544.648,290.529 545.54,290.545 546.432,290.56 547.324,290.574 548.216,290.588 549.108,290.602 550,290.615 550,290.615"/>
</svg>
