<svg width="933" height="258" xmlns="http://www.w3.org/2000/svg" xmlns:xlink="http://www.w3.org/1999/xlink" overflow="hidden"><defs><clipPath id="clip0"><path d="M208 247 1141 247 1141 505 208 505Z" fill-rule="evenodd" clip-rule="evenodd"/></clipPath></defs><g clip-path="url(#clip0)" transform="translate(-208 -247)"><path d="M0 0 576.939 0.000104987" stroke="#000000" stroke-width="2" stroke-miterlimit="8" fill="none" fill-rule="evenodd" transform="matrix(1 0 0 -1 348 318)"/><path d="M616 311 635 318 616 325Z" fill-rule="evenodd"/><rect x="459.5" y="263.5" width="384" height="240" stroke="#0000FF" stroke-width="3" stroke-miterlimit="8" stroke-dasharray="3 3" fill="none"/><text fill="#0000FF" font-family="Times New Roman,Times New Roman_MSFontService,sans-serif" font-weight="700" font-size="16" transform="translate(390.921 300)">port_a1<tspan x="-0.833344" y="166">port_b2</tspan><tspan x="469.345" y="0">port_b1</tspan><tspan x="469.345" y="166">port_a2</tspan></text><rect x="524" y="248" width="259" height="29" fill="#FFFFFF"/><text fill="#0000FF" font-family="Times New Roman,Times New Roman_MSFontService,sans-serif" font-weight="700" font-size="16" transform="translate(538.421 268)">ENERGY TRANSFER STATION</text><path d="M345 440 605.16 440" stroke="#000000" stroke-width="2" stroke-miterlimit="8" fill="none" fill-rule="evenodd"/><path d="M538 447 519 440 538 433Z" fill-rule="evenodd"/><path d="M449 318.5C449 313.253 453.253 309 458.5 309 463.747 309 468 313.253 468 318.5 468 323.747 463.747 328 458.5 328 453.253 328 449 323.747 449 318.5Z" stroke="#0000FF" stroke-width="2" stroke-miterlimit="8" fill="#0000FF" fill-rule="evenodd"/><path d="M351.5 332C347.358 332 344 328.642 344 324.5 344 321.739 345.517 319.202 347.948 317.894" stroke="#000000" stroke-width="2" stroke-miterlimit="8" fill="none" fill-rule="evenodd"/><path d="M343.5 304C347.642 304 351 307.358 351 311.5 351 314.456 349.263 317.137 346.565 318.345" stroke="#000000" stroke-width="2" stroke-miterlimit="8" fill="none" fill-rule="evenodd"/><path d="M1004.5 332C1000.36 332 997 328.642 997 324.5 997 321.739 998.517 319.202 1000.95 317.894" stroke="#000000" stroke-width="2" stroke-miterlimit="8" fill="none" fill-rule="evenodd"/><path d="M997 304C1001.42 304 1005 307.358 1005 311.5 1005 314.52 1003.07 317.246 1000.1 318.415" stroke="#000000" stroke-width="2" stroke-miterlimit="8" fill="none" fill-rule="evenodd"/><path d="M944 453C939.582 453 936 449.642 936 445.5 936 442.668 937.702 440.077 940.399 438.803" stroke="#000000" stroke-width="2" stroke-miterlimit="8" fill="none" fill-rule="evenodd"/><path d="M936 425C940.418 425 944 428.358 944 432.5 944 435.52 942.067 438.246 939.097 439.415" stroke="#000000" stroke-width="2" stroke-miterlimit="8" fill="none" fill-rule="evenodd"/><text font-family="Times New Roman,Times New Roman_MSFontService,sans-serif" font-weight="700" font-size="16" transform="translate(236.268 323)">District Supply<tspan x="713.885" y="121">Building Return</tspan><tspan x="775.405" y="2">Building Supply</tspan></text><rect x="494" y="304" width="67" height="29" stroke="#000000" stroke-width="2" stroke-linejoin="round" stroke-miterlimit="10" fill="#FFFFFF"/><text font-family="Times New Roman,Times New Roman_MSFontService,sans-serif" font-weight="700" font-size="16" transform="translate(506.403 323)">Meter</text><path d="M349.5 453C345.358 453 342 449.642 342 445.5 342 442.739 343.517 440.202 345.948 438.894" stroke="#000000" stroke-width="2" stroke-miterlimit="8" fill="none" fill-rule="evenodd"/><path d="M341.5 425C345.642 425 349 428.358 349 432.5 349 435.456 347.263 438.137 344.565 439.345" stroke="#000000" stroke-width="2" stroke-miterlimit="8" fill="none" fill-rule="evenodd"/><text font-family="Times New Roman,Times New Roman_MSFontService,sans-serif" font-weight="700" font-size="16" transform="translate(232.042 444)">District Return</text><path d="M717.5 417C717.5 411.753 721.753 407.5 727 407.5 732.247 407.5 736.5 411.753 736.5 417 736.5 422.247 732.247 426.5 727 426.5 721.753 426.5 717.5 422.247 717.5 417Z" stroke="#000000" stroke-miterlimit="8" fill="#FFFFFF" fill-rule="evenodd"/><text font-family="Times New Roman,Times New Roman_MSFontService,sans-serif" font-weight="700" font-size="13" transform="translate(722.246 422)">T</text><path d="M0 0 0.000104987 14.1145" stroke="#000000" stroke-miterlimit="8" fill="none" fill-rule="evenodd" transform="matrix(-1 -8.74228e-08 -8.74228e-08 1 727.5 426.5)"/><path d="M675 359 675 440.6" stroke="#000000" stroke-width="2" stroke-miterlimit="8" fill="none" fill-rule="evenodd"/><path d="M668 392 675.5 372 683 392Z" fill-rule="evenodd"/><path d="M449 440.5C449 435.253 453.253 431 458.5 431 463.747 431 468 435.253 468 440.5 468 445.747 463.747 450 458.5 450 453.253 450 449 445.747 449 440.5Z" stroke="#0000FF" stroke-width="2" stroke-miterlimit="8" fill="#FFFFFF" fill-rule="evenodd"/><path d="M834 318.5C834 313.253 838.253 309 843.5 309 848.747 309 853 313.253 853 318.5 853 323.747 848.747 328 843.5 328 838.253 328 834 323.747 834 318.5Z" stroke="#0000FF" stroke-width="2" stroke-miterlimit="8" fill="#FFFFFF" fill-rule="evenodd"/><path d="M778 311 797 318 778 325Z" fill-rule="evenodd"/><path d="M792 447 773 440 792 433Z" fill-rule="evenodd"/><path d="M925 318C925 307.507 933.73 299 944.5 299 955.27 299 964 307.507 964 318 964 328.493 955.27 337 944.5 337 933.73 337 925 328.493 925 318Z" stroke="#000000" stroke-width="2" stroke-miterlimit="8" fill="none" fill-rule="evenodd"/><path d="M933.5 304.5 962.5 318.5 933.5 332.5Z" stroke="#000000" stroke-miterlimit="8" fill-rule="evenodd"/><text font-family="Times New Roman,Times New Roman_MSFontService,sans-serif" font-weight="700" font-size="16" transform="translate(904.905 355)">In-<tspan x="20.3334" y="0">Building </tspan><tspan x="8.41333" y="20">Pumping</tspan></text><path d="M0 0 38.4 0.000104987" stroke="#000000" stroke-width="2" stroke-miterlimit="8" fill="none" fill-rule="evenodd" transform="matrix(1 0 0 -1 962 318)"/><text font-family="Times New Roman,Times New Roman_MSFontService,sans-serif" font-weight="700" font-size="16" transform="translate(593.577 470)">Control <tspan x="7.67328" y="20">Valve</tspan></text><path d="M637 449 622 439.5 637 430Z" stroke="#000000" stroke-width="2" stroke-miterlimit="8" fill="none" fill-rule="evenodd"/><path d="M606 430 621 439.5 606 449Z" stroke="#000000" stroke-width="2" stroke-miterlimit="8" fill="none" fill-rule="evenodd"/><path d="M0 0 0.000104987 14.1145" stroke="#000000" stroke-miterlimit="8" fill="none" fill-rule="evenodd" transform="matrix(-1 -8.74228e-08 -8.74228e-08 1 621.5 427.5)"/><path d="M612.5 427.015C612.492 421.768 616.739 417.508 621.985 417.5 627.232 417.492 631.492 421.739 631.5 426.985 631.5 426.99 631.5 426.995 631.5 427L622 427Z" stroke="#000000" stroke-miterlimit="8" fill="#FFFFFF" fill-rule="evenodd"/><path d="M637 440 939.4 440" stroke="#000000" stroke-width="2" stroke-miterlimit="8" fill="none" fill-rule="evenodd"/><path d="M834 440.5C834 435.253 838.253 431 843.5 431 848.747 431 853 435.253 853 440.5 853 445.747 848.747 450 843.5 450 838.253 450 834 445.747 834 440.5Z" stroke="#0000FF" stroke-width="2" stroke-miterlimit="8" fill="#0000FF" fill-rule="evenodd"/><path d="M684.743 332 666.257 332 685 359 666 359" stroke="#000000" stroke-width="2" stroke-miterlimit="8" fill="none" fill-rule="evenodd"/><rect x="661" y="330" width="5" height="31" fill="#FFFFFF"/><rect x="684" y="330" width="5" height="31" fill="#FFFFFF"/><path d="M662 360 662 332 659 340.75" stroke="#000000" stroke-width="2" stroke-miterlimit="8" fill="none" fill-rule="evenodd"/><rect x="659" y="326" width="23" height="5" fill="#FFFFFF"/><path d="M675 318 675 332.4" stroke="#000000" stroke-width="2" stroke-miterlimit="8" fill="none" fill-rule="evenodd"/><text font-family="Times New Roman,Times New Roman_MSFontService,sans-serif" font-weight="700" font-size="16" transform="translate(687.297 351)">Check Valve</text></g></svg>

