<svg width="1010" height="258" xmlns="http://www.w3.org/2000/svg" xmlns:xlink="http://www.w3.org/1999/xlink" overflow="hidden"><defs><clipPath id="clip0"><path d="M82 247 1092 247 1092 505 82 505Z" fill-rule="evenodd" clip-rule="evenodd"/></clipPath></defs><g clip-path="url(#clip0)" transform="translate(-82 -247)"><path d="M557.637 414.888C524.999 408.061 505.29 376.27 513.615 343.879 518.45 325.069 532.083 309.302 550.271 301.484" stroke="#000000" stroke-miterlimit="8" stroke-dasharray="1 1" fill="none" fill-rule="evenodd"/><rect x="618" y="343" width="77" height="77" stroke="#000000" stroke-width="2" stroke-miterlimit="8" fill="none"/><path d="M685.6 362 628 362" stroke="#000000" stroke-width="2" stroke-miterlimit="8" fill="none" fill-rule="evenodd"/><path d="M685 361 685 418.6" stroke="#000000" stroke-width="2" stroke-miterlimit="8" fill="none" fill-rule="evenodd"/><path d="M685.8 343 657 400.6" stroke="#000000" stroke-width="2" stroke-miterlimit="8" stroke-dasharray="8 6" fill="none" fill-rule="evenodd"/><path d="M0 0 57.6 28.8" stroke="#000000" stroke-width="2" stroke-miterlimit="8" stroke-dasharray="8 6" fill="none" fill-rule="evenodd" transform="matrix(-4.37114e-08 1 1 4.37114e-08 628 343)"/><path d="M629 361 629 418.6" stroke="#000000" stroke-width="2" stroke-miterlimit="8" fill="none" fill-rule="evenodd"/><text font-family="Times New Roman,Times New Roman_MSFontService,sans-serif" font-weight="700" font-size="16" transform="translate(531.595 346)">Control <tspan x="7.67328" y="20">Valve</tspan></text><path d="M573 330 559 320 573 310Z" stroke="#000000" stroke-width="2" stroke-miterlimit="8" fill="none" fill-rule="evenodd"/><path d="M543 310 557 320 543 330Z" stroke="#000000" stroke-width="2" stroke-miterlimit="8" fill="none" fill-rule="evenodd"/><path d="M573 320 628.152 320" stroke="#000000" stroke-width="2" stroke-miterlimit="8" fill="none" fill-rule="evenodd"/><path d="M0 0 246.088 0.000104987" stroke="#000000" stroke-width="2" stroke-miterlimit="8" fill="none" fill-rule="evenodd" transform="matrix(1 0 0 -1 297 320)"/><path d="M502 313 521 320 502 327Z" fill-rule="evenodd"/><rect x="393.5" y="263.5" width="450" height="240" stroke="#0000FF" stroke-width="3" stroke-miterlimit="8" stroke-dasharray="3 3" fill="none"/><text fill="#0000FF" font-family="Times New Roman,Times New Roman_MSFontService,sans-serif" font-weight="700" font-size="16" transform="translate(325.321 300)">port_a1<tspan x="-0.833344" y="166">port_b2</tspan><tspan x="534.945" y="0">port_b1</tspan><tspan x="534.945" y="166">port_a2</tspan></text><rect x="493" y="248" width="259" height="29" fill="#FFFFFF"/><text fill="#0000FF" font-family="Times New Roman,Times New Roman_MSFontService,sans-serif" font-weight="700" font-size="16" transform="translate(506.751 268)">ENERGY TRANSFER STATION</text><path d="M629 319 629 342.04" stroke="#000000" stroke-width="2" stroke-miterlimit="8" fill="none" fill-rule="evenodd"/><path d="M685 320 685 343.04" stroke="#000000" stroke-width="2" stroke-miterlimit="8" fill="none" fill-rule="evenodd"/><path d="M684 320 950.264 320" stroke="#000000" stroke-width="2" stroke-miterlimit="8" fill="none" fill-rule="evenodd"/><path d="M785 313 805 320 785 327Z" fill-rule="evenodd"/><path d="M629 420 629 443.04" stroke="#000000" stroke-width="2" stroke-miterlimit="8" fill="none" fill-rule="evenodd"/><path d="M685 420 685 443.04" stroke="#000000" stroke-width="2" stroke-miterlimit="8" fill="none" fill-rule="evenodd"/><path d="M297 444 630.12 444" stroke="#000000" stroke-width="2" stroke-miterlimit="8" fill="none" fill-rule="evenodd"/><path d="M516 451 496 444 516 437Z" fill-rule="evenodd"/><path d="M685 444 950.92 444" stroke="#000000" stroke-width="2" stroke-miterlimit="8" fill="none" fill-rule="evenodd"/><path d="M805 451 786 444 805 437Z" fill-rule="evenodd"/><text font-family="Times New Roman,Times New Roman_MSFontService,sans-serif" font-weight="700" font-size="16" transform="translate(709.528 377)">Heat <tspan x="0" y="20">Exchanger</tspan></text><path d="M549.5 419.5C549.5 413.977 553.753 409.5 559 409.5 564.247 409.5 568.5 413.977 568.5 419.5 568.5 425.023 564.247 429.5 559 429.5 553.753 429.5 549.5 425.023 549.5 419.5Z" stroke="#000000" stroke-miterlimit="8" fill="#FFFFFF" fill-rule="evenodd"/><text font-family="Times New Roman,Times New Roman_MSFontService,sans-serif" font-weight="700" font-size="13" transform="translate(553.532 424)">T</text><path d="M0 0 0.000104987 14.1145" stroke="#000000" stroke-miterlimit="8" fill="none" fill-rule="evenodd" transform="matrix(-1 -8.74228e-08 -8.74228e-08 1 558.5 429.5)"/><path d="M0 0 0.000104987 14.1145" stroke="#000000" stroke-miterlimit="8" fill="none" fill-rule="evenodd" transform="matrix(-1 -8.74228e-08 -8.74228e-08 1 558.5 307.5)"/><path d="M383 443.5C383 438.253 387.477 434 393 434 398.523 434 403 438.253 403 443.5 403 448.747 398.523 453 393 453 387.477 453 383 448.747 383 443.5Z" stroke="#0000FF" stroke-width="2" stroke-miterlimit="8" fill="#FFFFFF" fill-rule="evenodd"/><path d="M383 320.5C383 315.253 387.477 311 393 311 398.523 311 403 315.253 403 320.5 403 325.747 398.523 330 393 330 387.477 330 383 325.747 383 320.5Z" stroke="#0000FF" stroke-width="2" stroke-miterlimit="8" fill="#0000FF" fill-rule="evenodd"/><path d="M834 320.5C834 315.253 838.253 311 843.5 311 848.747 311 853 315.253 853 320.5 853 325.747 848.747 330 843.5 330 838.253 330 834 325.747 834 320.5Z" stroke="#0000FF" stroke-width="2" stroke-miterlimit="8" fill="#FFFFFF" fill-rule="evenodd"/><path d="M834 443.5C834 438.253 838.253 434 843.5 434 848.747 434 853 438.253 853 443.5 853 448.747 848.747 453 843.5 453 838.253 453 834 448.747 834 443.5Z" stroke="#0000FF" stroke-width="2" stroke-miterlimit="8" fill="#0000FF" fill-rule="evenodd"/><path d="M297 443.5C297 454.27 288.27 463 277.5 463 266.73 463 258 454.27 258 443.5 258 432.73 266.73 424 277.5 424 288.27 424 297 432.73 297 443.5Z" stroke="#000000" stroke-width="2" stroke-miterlimit="8" fill="none" fill-rule="evenodd"/><path d="M288.5 458.5 260.5 444 288.5 429.5Z" stroke="#000000" stroke-miterlimit="8" fill-rule="evenodd"/><text font-family="Times New Roman,Times New Roman_MSFontService,sans-serif" font-weight="700" font-size="16" transform="translate(237.027 397)">In-<tspan x="20.3333" y="0">Building </tspan><tspan x="8.41333" y="20">Pumping</tspan></text><path d="M220 442 258.184 442" stroke="#000000" stroke-width="2" stroke-miterlimit="8" fill="none" fill-rule="evenodd"/><path d="M299 335C294.582 335 291 331.418 291 327 291 324.055 292.618 321.348 295.212 319.954" stroke="#000000" stroke-width="2" stroke-miterlimit="8" fill="none" fill-rule="evenodd"/><path d="M291 306C295.418 306 299 309.358 299 313.5 299 316.52 297.067 319.246 294.097 320.415" stroke="#000000" stroke-width="2" stroke-miterlimit="8" fill="none" fill-rule="evenodd"/><path d="M224 456C219.582 456 216 452.642 216 448.5 216 445.668 217.702 443.077 220.399 441.803" stroke="#000000" stroke-width="2" stroke-miterlimit="8" fill="none" fill-rule="evenodd"/><path d="M216.5 428C220.642 428 224 431.358 224 435.5 224 438.456 222.263 441.137 219.565 442.345" stroke="#000000" stroke-width="2" stroke-miterlimit="8" fill="none" fill-rule="evenodd"/><path d="M955 334C950.582 334 947 330.642 947 326.5 947 323.668 948.702 321.077 951.399 319.803" stroke="#000000" stroke-width="2" stroke-miterlimit="8" fill="none" fill-rule="evenodd"/><path d="M947.5 305C951.642 305 955 308.582 955 313 955 316.082 953.34 318.89 950.733 320.219" stroke="#000000" stroke-width="2" stroke-miterlimit="8" fill="none" fill-rule="evenodd"/><path d="M955 458C950.582 458 947 454.418 947 450 947 447.055 948.618 444.348 951.212 442.954" stroke="#000000" stroke-width="2" stroke-miterlimit="8" fill="none" fill-rule="evenodd"/><path d="M947.5 429C951.642 429 955 432.358 955 436.5 955 439.456 953.263 442.137 950.565 443.345" stroke="#000000" stroke-width="2" stroke-miterlimit="8" fill="none" fill-rule="evenodd"/><text font-family="Times New Roman,Times New Roman_MSFontService,sans-serif" font-weight="700" font-size="16" transform="translate(100.763 445)">Building Supply<tspan x="82.7051" y="-122">District Supply</tspan><tspan x="860.69" y="3">Building Return</tspan><tspan x="861.955" y="-120">District Return</tspan></text><rect x="419" y="305" width="67" height="29" stroke="#000000" stroke-width="2" stroke-linejoin="round" stroke-miterlimit="10" fill="#FFFFFF"/><text font-family="Times New Roman,Times New Roman_MSFontService,sans-serif" font-weight="700" font-size="16" transform="translate(431.403 325)">Meter</text><path d="M548.5 307.015C548.492 301.768 552.739 297.508 557.985 297.5 563.232 297.492 567.492 301.739 567.5 306.985 567.5 306.99 567.5 306.995 567.5 307L558 307Z" stroke="#000000" stroke-miterlimit="8" fill="#FFFFFF" fill-rule="evenodd"/></g></svg>

