<?xml version="1.0" encoding="utf-8" standalone="no"?>
<!DOCTYPE svg PUBLIC "-//W3C//DTD SVG 1.1//EN"
  "http://www.w3.org/Graphics/SVG/1.1/DTD/svg11.dtd">
<svg height="507.639812pt" version="1.1" viewBox="0 0 511.749659 507.639812" width="511.749659pt" xmlns="http://www.w3.org/2000/svg" xmlns:xlink="http://www.w3.org/1999/xlink">
 <metadata>
  <rdf:RDF xmlns:cc="http://creativecommons.org/ns#" xmlns:dc="http://purl.org/dc/elements/1.1/" xmlns:rdf="http://www.w3.org/1999/02/22-rdf-syntax-ns#">
   <cc:Work>
    <dc:type rdf:resource="http://purl.org/dc/dcmitype/StillImage"/>
    <dc:date>2021-04-26T17:41:28.743891</dc:date>
    <dc:format>image/svg+xml</dc:format>
    <dc:creator>
     <cc:Agent>
      <dc:title>Matplotlib v3.4.1, https://matplotlib.org/</dc:title>
     </cc:Agent>
    </dc:creator>
   </cc:Work>
  </rdf:RDF>
 </metadata>
 <defs>
  <style type="text/css">*{stroke-linecap:butt;stroke-linejoin:round;}</style>
 </defs>
 <g id="figure_1">
  <g id="patch_1">
   <path d="M 0 507.639812 
L 511.749659 507.639812 
L 511.749659 -0 
L 0 -0 
z
" style="fill:none;"/>
  </g>
  <g id="axes_1">
   <g id="patch_2">
    <path d="M 56.712 459.796 
L 504.549659 459.796 
L 504.549659 7.2 
L 56.712 7.2 
z
" style="fill:#ffffff;"/>
   </g>
   <g id="matplotlib.axis_1">
    <g id="xtick_1">
     <g id="line2d_1">
      <path clip-path="url(#pa86d30eb8f)" d="M 76.660316 459.796 
L 76.660316 7.2 
" style="fill:none;stroke:#cccccc;stroke-linecap:round;stroke-width:0.8;"/>
     </g>
     <g id="text_1">
      <!-- 0.0 -->
      <g style="fill:#262626;" transform="translate(67.486316 477.544312)scale(0.132 -0.132)">
       <defs>
        <path d="M 266 2259 
Q 266 3072 433 3567 
Q 600 4063 929 4331 
Q 1259 4600 1759 4600 
Q 2128 4600 2406 4451 
Q 2684 4303 2865 4023 
Q 3047 3744 3150 3342 
Q 3253 2941 3253 2259 
Q 3253 1453 3087 958 
Q 2922 463 2592 192 
Q 2263 -78 1759 -78 
Q 1097 -78 719 397 
Q 266 969 266 2259 
z
M 844 2259 
Q 844 1131 1108 757 
Q 1372 384 1759 384 
Q 2147 384 2411 759 
Q 2675 1134 2675 2259 
Q 2675 3391 2411 3762 
Q 2147 4134 1753 4134 
Q 1366 4134 1134 3806 
Q 844 3388 844 2259 
z
" id="ArialMT-30" transform="scale(0.015625)"/>
        <path d="M 581 0 
L 581 641 
L 1222 641 
L 1222 0 
L 581 0 
z
" id="ArialMT-2e" transform="scale(0.015625)"/>
       </defs>
       <use xlink:href="#ArialMT-30"/>
       <use x="55.615234" xlink:href="#ArialMT-2e"/>
       <use x="83.398438" xlink:href="#ArialMT-30"/>
      </g>
     </g>
    </g>
    <g id="xtick_2">
     <g id="line2d_2">
      <path clip-path="url(#pa86d30eb8f)" d="M 158.248522 459.796 
L 158.248522 7.2 
" style="fill:none;stroke:#cccccc;stroke-linecap:round;stroke-width:0.8;"/>
     </g>
     <g id="text_2">
      <!-- 0.2 -->
      <g style="fill:#262626;" transform="translate(149.074522 477.544312)scale(0.132 -0.132)">
       <defs>
        <path d="M 3222 541 
L 3222 0 
L 194 0 
Q 188 203 259 391 
Q 375 700 629 1000 
Q 884 1300 1366 1694 
Q 2113 2306 2375 2664 
Q 2638 3022 2638 3341 
Q 2638 3675 2398 3904 
Q 2159 4134 1775 4134 
Q 1369 4134 1125 3890 
Q 881 3647 878 3216 
L 300 3275 
Q 359 3922 746 4261 
Q 1134 4600 1788 4600 
Q 2447 4600 2831 4234 
Q 3216 3869 3216 3328 
Q 3216 3053 3103 2787 
Q 2991 2522 2730 2228 
Q 2469 1934 1863 1422 
Q 1356 997 1212 845 
Q 1069 694 975 541 
L 3222 541 
z
" id="ArialMT-32" transform="scale(0.015625)"/>
       </defs>
       <use xlink:href="#ArialMT-30"/>
       <use x="55.615234" xlink:href="#ArialMT-2e"/>
       <use x="83.398438" xlink:href="#ArialMT-32"/>
      </g>
     </g>
    </g>
    <g id="xtick_3">
     <g id="line2d_3">
      <path clip-path="url(#pa86d30eb8f)" d="M 239.836727 459.796 
L 239.836727 7.2 
" style="fill:none;stroke:#cccccc;stroke-linecap:round;stroke-width:0.8;"/>
     </g>
     <g id="text_3">
      <!-- 0.4 -->
      <g style="fill:#262626;" transform="translate(230.662727 477.544312)scale(0.132 -0.132)">
       <defs>
        <path d="M 2069 0 
L 2069 1097 
L 81 1097 
L 81 1613 
L 2172 4581 
L 2631 4581 
L 2631 1613 
L 3250 1613 
L 3250 1097 
L 2631 1097 
L 2631 0 
L 2069 0 
z
M 2069 1613 
L 2069 3678 
L 634 1613 
L 2069 1613 
z
" id="ArialMT-34" transform="scale(0.015625)"/>
       </defs>
       <use xlink:href="#ArialMT-30"/>
       <use x="55.615234" xlink:href="#ArialMT-2e"/>
       <use x="83.398438" xlink:href="#ArialMT-34"/>
      </g>
     </g>
    </g>
    <g id="xtick_4">
     <g id="line2d_4">
      <path clip-path="url(#pa86d30eb8f)" d="M 321.424932 459.796 
L 321.424932 7.2 
" style="fill:none;stroke:#cccccc;stroke-linecap:round;stroke-width:0.8;"/>
     </g>
     <g id="text_4">
      <!-- 0.6 -->
      <g style="fill:#262626;" transform="translate(312.250932 477.544312)scale(0.132 -0.132)">
       <defs>
        <path d="M 3184 3459 
L 2625 3416 
Q 2550 3747 2413 3897 
Q 2184 4138 1850 4138 
Q 1581 4138 1378 3988 
Q 1113 3794 959 3422 
Q 806 3050 800 2363 
Q 1003 2672 1297 2822 
Q 1591 2972 1913 2972 
Q 2475 2972 2870 2558 
Q 3266 2144 3266 1488 
Q 3266 1056 3080 686 
Q 2894 316 2569 119 
Q 2244 -78 1831 -78 
Q 1128 -78 684 439 
Q 241 956 241 2144 
Q 241 3472 731 4075 
Q 1159 4600 1884 4600 
Q 2425 4600 2770 4297 
Q 3116 3994 3184 3459 
z
M 888 1484 
Q 888 1194 1011 928 
Q 1134 663 1356 523 
Q 1578 384 1822 384 
Q 2178 384 2434 671 
Q 2691 959 2691 1453 
Q 2691 1928 2437 2201 
Q 2184 2475 1800 2475 
Q 1419 2475 1153 2201 
Q 888 1928 888 1484 
z
" id="ArialMT-36" transform="scale(0.015625)"/>
       </defs>
       <use xlink:href="#ArialMT-30"/>
       <use x="55.615234" xlink:href="#ArialMT-2e"/>
       <use x="83.398438" xlink:href="#ArialMT-36"/>
      </g>
     </g>
    </g>
    <g id="xtick_5">
     <g id="line2d_5">
      <path clip-path="url(#pa86d30eb8f)" d="M 403.013138 459.796 
L 403.013138 7.2 
" style="fill:none;stroke:#cccccc;stroke-linecap:round;stroke-width:0.8;"/>
     </g>
     <g id="text_5">
      <!-- 0.8 -->
      <g style="fill:#262626;" transform="translate(393.839138 477.544312)scale(0.132 -0.132)">
       <defs>
        <path d="M 1131 2484 
Q 781 2613 612 2850 
Q 444 3088 444 3419 
Q 444 3919 803 4259 
Q 1163 4600 1759 4600 
Q 2359 4600 2725 4251 
Q 3091 3903 3091 3403 
Q 3091 3084 2923 2848 
Q 2756 2613 2416 2484 
Q 2838 2347 3058 2040 
Q 3278 1734 3278 1309 
Q 3278 722 2862 322 
Q 2447 -78 1769 -78 
Q 1091 -78 675 323 
Q 259 725 259 1325 
Q 259 1772 486 2073 
Q 713 2375 1131 2484 
z
M 1019 3438 
Q 1019 3113 1228 2906 
Q 1438 2700 1772 2700 
Q 2097 2700 2305 2904 
Q 2513 3109 2513 3406 
Q 2513 3716 2298 3927 
Q 2084 4138 1766 4138 
Q 1444 4138 1231 3931 
Q 1019 3725 1019 3438 
z
M 838 1322 
Q 838 1081 952 856 
Q 1066 631 1291 507 
Q 1516 384 1775 384 
Q 2178 384 2440 643 
Q 2703 903 2703 1303 
Q 2703 1709 2433 1975 
Q 2163 2241 1756 2241 
Q 1359 2241 1098 1978 
Q 838 1716 838 1322 
z
" id="ArialMT-38" transform="scale(0.015625)"/>
       </defs>
       <use xlink:href="#ArialMT-30"/>
       <use x="55.615234" xlink:href="#ArialMT-2e"/>
       <use x="83.398438" xlink:href="#ArialMT-38"/>
      </g>
     </g>
    </g>
    <g id="xtick_6">
     <g id="line2d_6">
      <path clip-path="url(#pa86d30eb8f)" d="M 484.601343 459.796 
L 484.601343 7.2 
" style="fill:none;stroke:#cccccc;stroke-linecap:round;stroke-width:0.8;"/>
     </g>
     <g id="text_6">
      <!-- 1.0 -->
      <g style="fill:#262626;" transform="translate(475.427343 477.544312)scale(0.132 -0.132)">
       <defs>
        <path d="M 2384 0 
L 1822 0 
L 1822 3584 
Q 1619 3391 1289 3197 
Q 959 3003 697 2906 
L 697 3450 
Q 1169 3672 1522 3987 
Q 1875 4303 2022 4600 
L 2384 4600 
L 2384 0 
z
" id="ArialMT-31" transform="scale(0.015625)"/>
       </defs>
       <use xlink:href="#ArialMT-31"/>
       <use x="55.615234" xlink:href="#ArialMT-2e"/>
       <use x="83.398438" xlink:href="#ArialMT-30"/>
      </g>
     </g>
    </g>
    <g id="text_7">
     <!-- $\dot m / \dot m\_nominal\ (-)$ -->
     <g style="fill:#262626;" transform="translate(217.63083 496.983812)scale(0.144 -0.144)">
      <defs>
       <path d="M -1894 4863 
L -1319 4863 
L -1319 4134 
L -1894 4134 
L -1894 4863 
z
M -1600 3584 
L -1600 3584 
z
" id="DejaVuSans-307" transform="scale(0.015625)"/>
       <path d="M 5747 2113 
L 5338 0 
L 4763 0 
L 5166 2094 
Q 5191 2228 5203 2325 
Q 5216 2422 5216 2491 
Q 5216 2772 5059 2928 
Q 4903 3084 4622 3084 
Q 4203 3084 3875 2770 
Q 3547 2456 3450 1953 
L 3066 0 
L 2491 0 
L 2900 2094 
Q 2925 2209 2937 2307 
Q 2950 2406 2950 2484 
Q 2950 2769 2794 2926 
Q 2638 3084 2363 3084 
Q 1938 3084 1609 2770 
Q 1281 2456 1184 1953 
L 800 0 
L 225 0 
L 909 3500 
L 1484 3500 
L 1375 2956 
Q 1609 3263 1923 3423 
Q 2238 3584 2597 3584 
Q 2978 3584 3223 3384 
Q 3469 3184 3519 2828 
Q 3781 3197 4126 3390 
Q 4472 3584 4856 3584 
Q 5306 3584 5551 3325 
Q 5797 3066 5797 2591 
Q 5797 2488 5784 2364 
Q 5772 2241 5747 2113 
z
" id="DejaVuSans-Oblique-6d" transform="scale(0.015625)"/>
       <path d="M 1625 4666 
L 2156 4666 
L 531 -594 
L 0 -594 
L 1625 4666 
z
" id="DejaVuSans-2f" transform="scale(0.015625)"/>
       <path d="M 3263 -1063 
L 3263 -1509 
L -63 -1509 
L -63 -1063 
L 3263 -1063 
z
" id="DejaVuSans-5f" transform="scale(0.015625)"/>
       <path d="M 3566 2113 
L 3156 0 
L 2578 0 
L 2988 2091 
Q 3016 2238 3031 2350 
Q 3047 2463 3047 2528 
Q 3047 2791 2881 2937 
Q 2716 3084 2419 3084 
Q 1956 3084 1622 2776 
Q 1288 2469 1184 1941 
L 800 0 
L 225 0 
L 903 3500 
L 1478 3500 
L 1363 2950 
Q 1603 3253 1940 3418 
Q 2278 3584 2650 3584 
Q 3113 3584 3367 3334 
Q 3622 3084 3622 2631 
Q 3622 2519 3608 2391 
Q 3594 2263 3566 2113 
z
" id="DejaVuSans-Oblique-6e" transform="scale(0.015625)"/>
       <path d="M 1625 -91 
Q 1009 -91 651 289 
Q 294 669 294 1325 
Q 294 1706 417 2101 
Q 541 2497 738 2766 
Q 1047 3184 1428 3384 
Q 1809 3584 2291 3584 
Q 2888 3584 3255 3212 
Q 3622 2841 3622 2241 
Q 3622 1825 3500 1412 
Q 3378 1000 3181 728 
Q 2875 309 2494 109 
Q 2113 -91 1625 -91 
z
M 891 1344 
Q 891 869 1089 633 
Q 1288 397 1691 397 
Q 2269 397 2648 901 
Q 3028 1406 3028 2181 
Q 3028 2634 2825 2865 
Q 2622 3097 2228 3097 
Q 1903 3097 1650 2945 
Q 1397 2794 1197 2484 
Q 1050 2253 970 1956 
Q 891 1659 891 1344 
z
" id="DejaVuSans-Oblique-6f" transform="scale(0.015625)"/>
       <path d="M 1172 4863 
L 1747 4863 
L 1606 4134 
L 1031 4134 
L 1172 4863 
z
M 909 3500 
L 1484 3500 
L 800 0 
L 225 0 
L 909 3500 
z
" id="DejaVuSans-Oblique-69" transform="scale(0.015625)"/>
       <path d="M 3438 1997 
L 3047 0 
L 2472 0 
L 2578 531 
Q 2325 219 2001 64 
Q 1678 -91 1281 -91 
Q 834 -91 548 182 
Q 263 456 263 884 
Q 263 1497 752 1853 
Q 1241 2209 2100 2209 
L 2900 2209 
L 2931 2363 
Q 2938 2388 2941 2417 
Q 2944 2447 2944 2509 
Q 2944 2788 2717 2942 
Q 2491 3097 2081 3097 
Q 1800 3097 1504 3025 
Q 1209 2953 897 2809 
L 997 3341 
Q 1322 3463 1633 3523 
Q 1944 3584 2234 3584 
Q 2853 3584 3176 3315 
Q 3500 3047 3500 2534 
Q 3500 2431 3484 2292 
Q 3469 2153 3438 1997 
z
M 2816 1759 
L 2241 1759 
Q 1534 1759 1195 1570 
Q 856 1381 856 984 
Q 856 709 1029 553 
Q 1203 397 1509 397 
Q 1978 397 2328 733 
Q 2678 1069 2791 1631 
L 2816 1759 
z
" id="DejaVuSans-Oblique-61" transform="scale(0.015625)"/>
       <path d="M 1172 4863 
L 1747 4863 
L 800 0 
L 225 0 
L 1172 4863 
z
" id="DejaVuSans-Oblique-6c" transform="scale(0.015625)"/>
       <path d="M 1984 4856 
Q 1566 4138 1362 3434 
Q 1159 2731 1159 2009 
Q 1159 1288 1364 580 
Q 1569 -128 1984 -844 
L 1484 -844 
Q 1016 -109 783 600 
Q 550 1309 550 2009 
Q 550 2706 781 3412 
Q 1013 4119 1484 4856 
L 1984 4856 
z
" id="DejaVuSans-28" transform="scale(0.015625)"/>
       <path d="M 678 2272 
L 4684 2272 
L 4684 1741 
L 678 1741 
L 678 2272 
z
" id="DejaVuSans-2212" transform="scale(0.015625)"/>
       <path d="M 513 4856 
L 1013 4856 
Q 1481 4119 1714 3412 
Q 1947 2706 1947 2009 
Q 1947 1309 1714 600 
Q 1481 -109 1013 -844 
L 513 -844 
Q 928 -128 1133 580 
Q 1338 1288 1338 2009 
Q 1338 2731 1133 3434 
Q 928 4138 513 4856 
z
" id="DejaVuSans-29" transform="scale(0.015625)"/>
      </defs>
      <use transform="translate(79.355469 13.015625)" xlink:href="#DejaVuSans-307"/>
      <use transform="translate(0 0.515625)" xlink:href="#DejaVuSans-Oblique-6d"/>
      <use transform="translate(97.412109 0.515625)" xlink:href="#DejaVuSans-2f"/>
      <use transform="translate(210.458984 13.015625)" xlink:href="#DejaVuSans-307"/>
      <use transform="translate(131.103516 0.515625)" xlink:href="#DejaVuSans-Oblique-6d"/>
      <use transform="translate(228.515625 0.515625)" xlink:href="#DejaVuSans-5f"/>
      <use transform="translate(278.515625 0.515625)" xlink:href="#DejaVuSans-Oblique-6e"/>
      <use transform="translate(341.894531 0.515625)" xlink:href="#DejaVuSans-Oblique-6f"/>
      <use transform="translate(403.076172 0.515625)" xlink:href="#DejaVuSans-Oblique-6d"/>
      <use transform="translate(500.488281 0.515625)" xlink:href="#DejaVuSans-Oblique-69"/>
      <use transform="translate(528.271484 0.515625)" xlink:href="#DejaVuSans-Oblique-6e"/>
      <use transform="translate(591.650391 0.515625)" xlink:href="#DejaVuSans-Oblique-61"/>
      <use transform="translate(652.929688 0.515625)" xlink:href="#DejaVuSans-Oblique-6c"/>
      <use transform="translate(713.183269 0.515625)" xlink:href="#DejaVuSans-28"/>
      <use transform="translate(752.196941 0.515625)" xlink:href="#DejaVuSans-2212"/>
      <use transform="translate(835.986003 0.515625)" xlink:href="#DejaVuSans-29"/>
     </g>
    </g>
   </g>
   <g id="matplotlib.axis_2">
    <g id="ytick_1">
     <g id="line2d_7">
      <path clip-path="url(#pa86d30eb8f)" d="M 56.712 440.136944 
L 504.549659 440.136944 
" style="fill:none;stroke:#cccccc;stroke-linecap:round;stroke-width:0.8;"/>
     </g>
     <g id="text_8">
      <!-- 0.0 -->
      <g style="fill:#262626;" transform="translate(30.064 444.8611)scale(0.132 -0.132)">
       <use xlink:href="#ArialMT-30"/>
       <use x="55.615234" xlink:href="#ArialMT-2e"/>
       <use x="83.398438" xlink:href="#ArialMT-30"/>
      </g>
     </g>
    </g>
    <g id="ytick_2">
     <g id="line2d_8">
      <path clip-path="url(#pa86d30eb8f)" d="M 56.712 357.645599 
L 504.549659 357.645599 
" style="fill:none;stroke:#cccccc;stroke-linecap:round;stroke-width:0.8;"/>
     </g>
     <g id="text_9">
      <!-- 0.2 -->
      <g style="fill:#262626;" transform="translate(30.064 362.369755)scale(0.132 -0.132)">
       <use xlink:href="#ArialMT-30"/>
       <use x="55.615234" xlink:href="#ArialMT-2e"/>
       <use x="83.398438" xlink:href="#ArialMT-32"/>
      </g>
     </g>
    </g>
    <g id="ytick_3">
     <g id="line2d_9">
      <path clip-path="url(#pa86d30eb8f)" d="M 56.712 275.154254 
L 504.549659 275.154254 
" style="fill:none;stroke:#cccccc;stroke-linecap:round;stroke-width:0.8;"/>
     </g>
     <g id="text_10">
      <!-- 0.4 -->
      <g style="fill:#262626;" transform="translate(30.064 279.87841)scale(0.132 -0.132)">
       <use xlink:href="#ArialMT-30"/>
       <use x="55.615234" xlink:href="#ArialMT-2e"/>
       <use x="83.398438" xlink:href="#ArialMT-34"/>
      </g>
     </g>
    </g>
    <g id="ytick_4">
     <g id="line2d_10">
      <path clip-path="url(#pa86d30eb8f)" d="M 56.712 192.662909 
L 504.549659 192.662909 
" style="fill:none;stroke:#cccccc;stroke-linecap:round;stroke-width:0.8;"/>
     </g>
     <g id="text_11">
      <!-- 0.6 -->
      <g style="fill:#262626;" transform="translate(30.064 197.387066)scale(0.132 -0.132)">
       <use xlink:href="#ArialMT-30"/>
       <use x="55.615234" xlink:href="#ArialMT-2e"/>
       <use x="83.398438" xlink:href="#ArialMT-36"/>
      </g>
     </g>
    </g>
    <g id="ytick_5">
     <g id="line2d_11">
      <path clip-path="url(#pa86d30eb8f)" d="M 56.712 110.171565 
L 504.549659 110.171565 
" style="fill:none;stroke:#cccccc;stroke-linecap:round;stroke-width:0.8;"/>
     </g>
     <g id="text_12">
      <!-- 0.8 -->
      <g style="fill:#262626;" transform="translate(30.064 114.895721)scale(0.132 -0.132)">
       <use xlink:href="#ArialMT-30"/>
       <use x="55.615234" xlink:href="#ArialMT-2e"/>
       <use x="83.398438" xlink:href="#ArialMT-38"/>
      </g>
     </g>
    </g>
    <g id="ytick_6">
     <g id="line2d_12">
      <path clip-path="url(#pa86d30eb8f)" d="M 56.712 27.68022 
L 504.549659 27.68022 
" style="fill:none;stroke:#cccccc;stroke-linecap:round;stroke-width:0.8;"/>
     </g>
     <g id="text_13">
      <!-- 1.0 -->
      <g style="fill:#262626;" transform="translate(30.064 32.404376)scale(0.132 -0.132)">
       <use xlink:href="#ArialMT-31"/>
       <use x="55.615234" xlink:href="#ArialMT-2e"/>
       <use x="83.398438" xlink:href="#ArialMT-30"/>
      </g>
     </g>
    </g>
    <g id="text_14">
     <!-- $\dot Q / \dot Q\_nominal\ (-)$ -->
     <g style="fill:#262626;" transform="translate(22.608 293.834)rotate(-90)scale(0.144 -0.144)">
      <defs>
       <path d="M 2309 -84 
Q 2275 -88 2237 -89 
Q 2200 -91 2125 -91 
Q 1250 -91 756 411 
Q 263 913 263 1797 
Q 263 2319 452 2844 
Q 641 3369 978 3788 
Q 1369 4269 1858 4509 
Q 2347 4750 2938 4750 
Q 3794 4750 4287 4245 
Q 4781 3741 4781 2869 
Q 4781 1928 4265 1147 
Q 3750 366 2919 44 
L 3553 -825 
L 2847 -825 
L 2309 -84 
z
M 2919 4238 
Q 2400 4238 2003 3986 
Q 1606 3734 1313 3219 
Q 1125 2891 1026 2522 
Q 928 2153 928 1778 
Q 928 1128 1239 775 
Q 1550 422 2119 422 
Q 2631 422 3032 676 
Q 3434 931 3719 1434 
Q 3909 1772 4009 2142 
Q 4109 2513 4109 2881 
Q 4109 3528 3796 3883 
Q 3484 4238 2919 4238 
z
" id="DejaVuSans-Oblique-51" transform="scale(0.015625)"/>
      </defs>
      <use transform="translate(69.242188 31.015625)" xlink:href="#DejaVuSans-307"/>
      <use transform="translate(0 0.296875)" xlink:href="#DejaVuSans-Oblique-51"/>
      <use transform="translate(78.710938 0.296875)" xlink:href="#DejaVuSans-2f"/>
      <use transform="translate(181.644531 31.015625)" xlink:href="#DejaVuSans-307"/>
      <use transform="translate(112.402344 0.296875)" xlink:href="#DejaVuSans-Oblique-51"/>
      <use transform="translate(191.113281 0.296875)" xlink:href="#DejaVuSans-5f"/>
      <use transform="translate(241.113281 0.296875)" xlink:href="#DejaVuSans-Oblique-6e"/>
      <use transform="translate(304.492188 0.296875)" xlink:href="#DejaVuSans-Oblique-6f"/>
      <use transform="translate(365.673828 0.296875)" xlink:href="#DejaVuSans-Oblique-6d"/>
      <use transform="translate(463.085938 0.296875)" xlink:href="#DejaVuSans-Oblique-69"/>
      <use transform="translate(490.869141 0.296875)" xlink:href="#DejaVuSans-Oblique-6e"/>
      <use transform="translate(554.248047 0.296875)" xlink:href="#DejaVuSans-Oblique-61"/>
      <use transform="translate(615.527344 0.296875)" xlink:href="#DejaVuSans-Oblique-6c"/>
      <use transform="translate(675.780925 0.296875)" xlink:href="#DejaVuSans-28"/>
      <use transform="translate(714.794597 0.296875)" xlink:href="#DejaVuSans-2212"/>
      <use transform="translate(798.58366 0.296875)" xlink:href="#DejaVuSans-29"/>
     </g>
    </g>
   </g>
   <g id="line2d_13">
    <path clip-path="url(#pa86d30eb8f)" d="M 77.068257 439.223455 
L 81.180632 430.014745 
L 85.293008 420.806035 
L 89.405383 411.597326 
L 93.517758 402.388635 
L 97.630133 393.180307 
L 101.742508 383.974443 
L 105.854884 374.777426 
L 109.967259 365.601763 
L 114.079634 356.465967 
L 118.192009 347.392804 
L 122.304384 338.406943 
L 126.41676 329.5328 
L 130.529135 320.792951 
L 134.64151 312.207162 
L 138.753885 303.791925 
L 142.86626 295.560377 
L 146.978636 287.522452 
L 151.091011 279.685171 
L 155.203386 272.052993 
L 159.315761 264.628187 
L 163.428136 257.411183 
L 167.540512 250.400905 
L 171.652887 243.595054 
L 175.765262 236.990368 
L 179.877637 230.582833 
L 183.990012 224.367868 
L 188.102388 218.340475 
L 192.214763 212.495365 
L 196.327138 206.827061 
L 200.439513 201.329979 
L 204.551888 195.998498 
L 208.664264 190.827011 
L 212.776639 185.809968 
L 216.889014 180.941908 
L 221.001389 176.217484 
L 225.113764 171.631484 
L 229.22614 167.178839 
L 233.338515 162.854638 
L 237.45089 158.654132 
L 241.563265 154.572737 
L 245.67564 150.606034 
L 249.788016 146.749771 
L 253.900391 142.999861 
L 258.012766 139.352376 
L 262.125141 135.803547 
L 266.237516 132.349758 
L 270.349892 128.987542 
L 274.462267 125.713575 
L 278.574642 122.524672 
L 282.687017 119.417783 
L 286.799392 116.389984 
L 290.911768 113.438475 
L 295.024143 110.560574 
L 299.136518 107.753713 
L 303.248893 105.015431 
L 307.361268 102.34337 
L 311.473644 99.735271 
L 315.586019 97.18897 
L 319.698394 94.702393 
L 323.810769 92.27355 
L 327.923144 89.900535 
L 332.035519 87.58152 
L 336.147895 85.314751 
L 340.26027 83.098546 
L 344.372645 80.931288 
L 348.48502 78.811429 
L 352.597395 76.73748 
L 356.709771 74.708012 
L 360.822146 72.721651 
L 364.934521 70.777078 
L 369.046896 68.873026 
L 373.159271 67.008274 
L 377.271647 65.18165 
L 381.384022 63.392026 
L 385.496397 61.638317 
L 389.608772 59.919478 
L 393.721147 58.234502 
L 397.833523 56.582422 
L 401.945898 54.962304 
L 406.058273 53.373249 
L 410.170648 51.81439 
L 414.283023 50.284892 
L 418.395399 48.783949 
L 422.507774 47.310783 
L 426.620149 45.864646 
L 430.732524 44.444812 
L 434.844899 43.050583 
L 438.957275 41.681285 
L 443.06965 40.336265 
L 447.182025 39.014893 
L 451.2944 37.716563 
L 455.406775 36.440684 
L 459.519151 35.186688 
L 463.631526 33.954025 
L 467.743901 32.742164 
L 471.856276 31.550589 
L 475.968651 30.378801 
L 480.081027 29.22632 
L 484.193402 28.092676 
" style="fill:none;stroke:#1f77b4;stroke-linecap:round;stroke-width:1.2;"/>
   </g>
   <g id="line2d_14">
    <path clip-path="url(#pa86d30eb8f)" d="M 77.068257 439.037953 
L 81.180632 427.959236 
L 85.293008 416.880519 
L 89.405383 405.801802 
L 93.517758 394.723124 
L 97.630133 383.645201 
L 101.742508 372.57233 
L 105.854884 361.51734 
L 109.967259 350.50483 
L 114.079634 339.570276 
L 118.192009 328.755974 
L 122.304384 318.106078 
L 126.41676 307.662384 
L 130.529135 297.461481 
L 134.64151 287.533273 
L 138.753885 277.900564 
L 142.86626 268.579347 
L 146.978636 259.579489 
L 151.091011 250.905613 
L 155.203386 242.558003 
L 159.315761 234.533471 
L 163.428136 226.826136 
L 167.540512 219.428088 
L 171.652887 212.32995 
L 175.765262 205.521335 
L 179.877637 198.991218 
L 183.990012 192.728222 
L 188.102388 186.72085 
L 192.214763 180.957654 
L 196.327138 175.427369 
L 200.439513 170.119006 
L 204.551888 165.021918 
L 208.664264 160.12585 
L 212.776639 155.420967 
L 216.889014 150.897867 
L 221.001389 146.547591 
L 225.113764 142.361617 
L 229.22614 138.331859 
L 233.338515 134.450648 
L 237.45089 130.710728 
L 241.563265 127.105229 
L 245.67564 123.627658 
L 249.788016 120.27188 
L 253.900391 117.032098 
L 258.012766 113.902834 
L 262.125141 110.878918 
L 266.237516 107.955462 
L 270.349892 105.127853 
L 274.462267 102.391729 
L 278.574642 99.74297 
L 282.687017 97.17768 
L 286.799392 94.692175 
L 290.911768 92.282973 
L 295.024143 89.946775 
L 299.136518 87.680462 
L 303.248893 85.481077 
L 307.361268 83.345821 
L 311.473644 81.27204 
L 315.586019 79.257217 
L 319.698394 77.298965 
L 323.810769 75.395018 
L 327.923144 73.543225 
L 332.035519 71.741541 
L 336.147895 69.988023 
L 340.26027 68.280826 
L 344.372645 66.61819 
L 348.48502 64.998444 
L 352.597395 63.419994 
L 356.709771 61.881323 
L 360.822146 60.380985 
L 364.934521 58.917601 
L 369.046896 57.489855 
L 373.159271 56.096492 
L 377.271647 54.736313 
L 381.384022 53.408172 
L 385.496397 52.110976 
L 389.608772 50.843677 
L 393.721147 49.605276 
L 397.833523 48.394813 
L 401.945898 47.211373 
L 406.058273 46.054078 
L 410.170648 44.922086 
L 414.283023 43.814592 
L 418.395399 42.730822 
L 422.507774 41.670036 
L 426.620149 40.631521 
L 430.732524 39.614595 
L 434.844899 38.618603 
L 438.957275 37.642913 
L 443.06965 36.686922 
L 447.182025 35.750047 
L 451.2944 34.831729 
L 455.406775 33.931429 
L 459.519151 33.04863 
L 463.631526 32.182833 
L 467.743901 31.333558 
L 471.856276 30.500342 
L 475.968651 29.68274 
L 480.081027 28.880323 
L 484.193402 28.092676 
" style="fill:none;stroke:#1f77b4;stroke-dasharray:4.8,1.8;stroke-dashoffset:0;stroke-width:1.2;"/>
   </g>
   <g id="line2d_15">
    <path clip-path="url(#pa86d30eb8f)" d="M 77.068257 439.014995 
L 81.180632 427.860125 
L 85.293008 416.982869 
L 89.405383 406.376315 
L 93.517758 396.033728 
L 97.630133 385.948538 
L 101.742508 376.114339 
L 105.854884 366.524884 
L 109.967259 357.174084 
L 114.079634 348.055998 
L 118.192009 339.164834 
L 122.304384 330.494946 
L 126.41676 322.040826 
L 130.529135 313.797104 
L 134.64151 305.758545 
L 138.753885 297.920043 
L 142.86626 290.276618 
L 146.978636 282.823415 
L 151.091011 275.555702 
L 155.203386 268.46886 
L 159.315761 261.55839 
L 163.428136 254.819901 
L 167.540512 248.249114 
L 171.652887 241.841854 
L 175.765262 235.594052 
L 179.877637 229.501741 
L 183.990012 223.561049 
L 188.102388 217.768203 
L 192.214763 212.119525 
L 196.327138 206.611426 
L 200.439513 201.240408 
L 204.551888 196.003059 
L 208.664264 190.896052 
L 212.776639 185.916144 
L 216.889014 181.060171 
L 221.001389 176.325049 
L 225.113764 171.707771 
L 229.22614 167.205404 
L 233.338515 162.815087 
L 237.45089 158.534033 
L 241.563265 154.359521 
L 245.67564 150.288901 
L 249.788016 146.319587 
L 253.900391 142.449058 
L 258.012766 138.674855 
L 262.125141 134.994581 
L 266.237516 131.405898 
L 270.349892 127.906528 
L 274.462267 124.494246 
L 278.574642 121.166886 
L 282.687017 117.922335 
L 286.799392 114.758531 
L 290.911768 111.673465 
L 295.024143 108.665177 
L 299.136518 105.731757 
L 303.248893 102.871341 
L 307.361268 100.082113 
L 311.473644 97.3623 
L 315.586019 94.710176 
L 319.698394 92.124055 
L 323.810769 89.602295 
L 327.923144 87.143295 
L 332.035519 84.745492 
L 336.147895 82.407364 
L 340.26027 80.127424 
L 344.372645 77.904226 
L 348.48502 75.736357 
L 352.597395 73.622439 
L 356.709771 71.561131 
L 360.822146 69.551123 
L 364.934521 67.591138 
L 369.046896 65.679932 
L 373.159271 63.81629 
L 377.271647 61.999029 
L 381.384022 60.226994 
L 385.496397 58.499059 
L 389.608772 56.814128 
L 393.721147 55.17113 
L 397.833523 53.569022 
L 401.945898 52.006785 
L 406.058273 50.483428 
L 410.170648 48.997983 
L 414.283023 47.549506 
L 418.395399 46.137078 
L 422.507774 44.759801 
L 426.620149 43.4168 
L 430.732524 42.107223 
L 434.844899 40.830237 
L 438.957275 39.585032 
L 443.06965 38.370816 
L 447.182025 37.186819 
L 451.2944 36.032288 
L 455.406775 34.90649 
L 459.519151 33.808709 
L 463.631526 32.73825 
L 467.743901 31.694431 
L 471.856276 30.676589 
L 475.968651 29.684079 
L 480.081027 28.716269 
L 484.193402 27.772545 
" style="fill:none;stroke:#1f77b4;stroke-dasharray:1.2,1.2;stroke-dashoffset:0;stroke-width:1.2;"/>
   </g>
   <g id="line2d_16"/>
   <g id="line2d_17"/>
   <g id="line2d_18"/>
   <g id="patch_3">
    <path d="M 56.712 459.796 
L 56.712 7.2 
" style="fill:none;stroke:#cccccc;stroke-linecap:square;stroke-linejoin:miter;"/>
   </g>
   <g id="patch_4">
    <path d="M 56.712 459.796 
L 504.549659 459.796 
" style="fill:none;stroke:#cccccc;stroke-linecap:square;stroke-linejoin:miter;"/>
   </g>
   <g id="legend_1">
    <g id="patch_5">
     <path d="M 334.463534 273.370344 
L 495.309659 273.370344 
Q 497.949659 273.370344 497.949659 270.730344 
L 497.949659 196.265656 
Q 497.949659 193.625656 495.309659 193.625656 
L 334.463534 193.625656 
Q 331.823534 193.625656 331.823534 196.265656 
L 331.823534 270.730344 
Q 331.823534 273.370344 334.463534 273.370344 
z
" style="fill:#ffffff;opacity:0.8;stroke:#cccccc;stroke-linejoin:miter;stroke-width:0.8;"/>
    </g>
    <g id="text_15">
     <!-- Correlation -->
     <g style="fill:#262626;" transform="translate(379.672972 209.212906)scale(0.144 -0.144)">
      <defs>
       <path d="M 3763 1606 
L 4369 1453 
Q 4178 706 3683 314 
Q 3188 -78 2472 -78 
Q 1731 -78 1267 223 
Q 803 525 561 1097 
Q 319 1669 319 2325 
Q 319 3041 592 3573 
Q 866 4106 1370 4382 
Q 1875 4659 2481 4659 
Q 3169 4659 3637 4309 
Q 4106 3959 4291 3325 
L 3694 3184 
Q 3534 3684 3231 3912 
Q 2928 4141 2469 4141 
Q 1941 4141 1586 3887 
Q 1231 3634 1087 3207 
Q 944 2781 944 2328 
Q 944 1744 1114 1308 
Q 1284 872 1643 656 
Q 2003 441 2422 441 
Q 2931 441 3284 734 
Q 3638 1028 3763 1606 
z
" id="ArialMT-43" transform="scale(0.015625)"/>
       <path d="M 213 1659 
Q 213 2581 725 3025 
Q 1153 3394 1769 3394 
Q 2453 3394 2887 2945 
Q 3322 2497 3322 1706 
Q 3322 1066 3130 698 
Q 2938 331 2570 128 
Q 2203 -75 1769 -75 
Q 1072 -75 642 372 
Q 213 819 213 1659 
z
M 791 1659 
Q 791 1022 1069 705 
Q 1347 388 1769 388 
Q 2188 388 2466 706 
Q 2744 1025 2744 1678 
Q 2744 2294 2464 2611 
Q 2184 2928 1769 2928 
Q 1347 2928 1069 2612 
Q 791 2297 791 1659 
z
" id="ArialMT-6f" transform="scale(0.015625)"/>
       <path d="M 416 0 
L 416 3319 
L 922 3319 
L 922 2816 
Q 1116 3169 1280 3281 
Q 1444 3394 1641 3394 
Q 1925 3394 2219 3213 
L 2025 2691 
Q 1819 2813 1613 2813 
Q 1428 2813 1281 2702 
Q 1134 2591 1072 2394 
Q 978 2094 978 1738 
L 978 0 
L 416 0 
z
" id="ArialMT-72" transform="scale(0.015625)"/>
       <path d="M 2694 1069 
L 3275 997 
Q 3138 488 2766 206 
Q 2394 -75 1816 -75 
Q 1088 -75 661 373 
Q 234 822 234 1631 
Q 234 2469 665 2931 
Q 1097 3394 1784 3394 
Q 2450 3394 2872 2941 
Q 3294 2488 3294 1666 
Q 3294 1616 3291 1516 
L 816 1516 
Q 847 969 1125 678 
Q 1403 388 1819 388 
Q 2128 388 2347 550 
Q 2566 713 2694 1069 
z
M 847 1978 
L 2700 1978 
Q 2663 2397 2488 2606 
Q 2219 2931 1791 2931 
Q 1403 2931 1139 2672 
Q 875 2413 847 1978 
z
" id="ArialMT-65" transform="scale(0.015625)"/>
       <path d="M 409 0 
L 409 4581 
L 972 4581 
L 972 0 
L 409 0 
z
" id="ArialMT-6c" transform="scale(0.015625)"/>
       <path d="M 2588 409 
Q 2275 144 1986 34 
Q 1697 -75 1366 -75 
Q 819 -75 525 192 
Q 231 459 231 875 
Q 231 1119 342 1320 
Q 453 1522 633 1644 
Q 813 1766 1038 1828 
Q 1203 1872 1538 1913 
Q 2219 1994 2541 2106 
Q 2544 2222 2544 2253 
Q 2544 2597 2384 2738 
Q 2169 2928 1744 2928 
Q 1347 2928 1158 2789 
Q 969 2650 878 2297 
L 328 2372 
Q 403 2725 575 2942 
Q 747 3159 1072 3276 
Q 1397 3394 1825 3394 
Q 2250 3394 2515 3294 
Q 2781 3194 2906 3042 
Q 3031 2891 3081 2659 
Q 3109 2516 3109 2141 
L 3109 1391 
Q 3109 606 3145 398 
Q 3181 191 3288 0 
L 2700 0 
Q 2613 175 2588 409 
z
M 2541 1666 
Q 2234 1541 1622 1453 
Q 1275 1403 1131 1340 
Q 988 1278 909 1158 
Q 831 1038 831 891 
Q 831 666 1001 516 
Q 1172 366 1500 366 
Q 1825 366 2078 508 
Q 2331 650 2450 897 
Q 2541 1088 2541 1459 
L 2541 1666 
z
" id="ArialMT-61" transform="scale(0.015625)"/>
       <path d="M 1650 503 
L 1731 6 
Q 1494 -44 1306 -44 
Q 1000 -44 831 53 
Q 663 150 594 308 
Q 525 466 525 972 
L 525 2881 
L 113 2881 
L 113 3319 
L 525 3319 
L 525 4141 
L 1084 4478 
L 1084 3319 
L 1650 3319 
L 1650 2881 
L 1084 2881 
L 1084 941 
Q 1084 700 1114 631 
Q 1144 563 1211 522 
Q 1278 481 1403 481 
Q 1497 481 1650 503 
z
" id="ArialMT-74" transform="scale(0.015625)"/>
       <path d="M 425 3934 
L 425 4581 
L 988 4581 
L 988 3934 
L 425 3934 
z
M 425 0 
L 425 3319 
L 988 3319 
L 988 0 
L 425 0 
z
" id="ArialMT-69" transform="scale(0.015625)"/>
       <path d="M 422 0 
L 422 3319 
L 928 3319 
L 928 2847 
Q 1294 3394 1984 3394 
Q 2284 3394 2536 3286 
Q 2788 3178 2913 3003 
Q 3038 2828 3088 2588 
Q 3119 2431 3119 2041 
L 3119 0 
L 2556 0 
L 2556 2019 
Q 2556 2363 2490 2533 
Q 2425 2703 2258 2804 
Q 2091 2906 1866 2906 
Q 1506 2906 1245 2678 
Q 984 2450 984 1813 
L 984 0 
L 422 0 
z
" id="ArialMT-6e" transform="scale(0.015625)"/>
      </defs>
      <use xlink:href="#ArialMT-43"/>
      <use x="72.216797" xlink:href="#ArialMT-6f"/>
      <use x="127.832031" xlink:href="#ArialMT-72"/>
      <use x="161.132812" xlink:href="#ArialMT-72"/>
      <use x="194.433594" xlink:href="#ArialMT-65"/>
      <use x="250.048828" xlink:href="#ArialMT-6c"/>
      <use x="272.265625" xlink:href="#ArialMT-61"/>
      <use x="327.880859" xlink:href="#ArialMT-74"/>
      <use x="355.664062" xlink:href="#ArialMT-69"/>
      <use x="377.880859" xlink:href="#ArialMT-6f"/>
      <use x="433.496094" xlink:href="#ArialMT-6e"/>
     </g>
    </g>
    <g id="line2d_19">
     <path d="M 337.103534 223.503219 
L 363.503534 223.503219 
" style="fill:none;stroke:#1f77b4;stroke-linecap:round;stroke-width:1.2;"/>
    </g>
    <g id="line2d_20"/>
    <g id="text_16">
     <!-- ε-NTU uniform TLoa -->
     <g style="fill:#262626;" transform="translate(374.063534 228.123219)scale(0.132 -0.132)">
      <defs>
       <path d="M 2591 2944 
L 2188 2619 
Q 1803 2909 1469 2909 
Q 1194 2909 1067 2762 
Q 941 2616 941 2447 
Q 941 2228 1128 2083 
Q 1316 1938 1678 1938 
Q 1725 1938 1834 1941 
L 1834 1469 
Q 1734 1472 1684 1472 
Q 1238 1472 1064 1300 
Q 891 1128 891 913 
Q 891 691 1066 539 
Q 1241 388 1481 388 
Q 1922 388 2306 797 
L 2709 456 
Q 2209 -75 1466 -75 
Q 881 -75 593 222 
Q 306 519 306 913 
Q 306 1478 856 1716 
Q 397 1975 397 2431 
Q 397 2803 669 3098 
Q 941 3394 1503 3394 
Q 2147 3394 2591 2944 
z
" id="ArialMT-3b5" transform="scale(0.015625)"/>
       <path d="M 203 1375 
L 203 1941 
L 1931 1941 
L 1931 1375 
L 203 1375 
z
" id="ArialMT-2d" transform="scale(0.015625)"/>
       <path d="M 488 0 
L 488 4581 
L 1109 4581 
L 3516 984 
L 3516 4581 
L 4097 4581 
L 4097 0 
L 3475 0 
L 1069 3600 
L 1069 0 
L 488 0 
z
" id="ArialMT-4e" transform="scale(0.015625)"/>
       <path d="M 1659 0 
L 1659 4041 
L 150 4041 
L 150 4581 
L 3781 4581 
L 3781 4041 
L 2266 4041 
L 2266 0 
L 1659 0 
z
" id="ArialMT-54" transform="scale(0.015625)"/>
       <path d="M 3500 4581 
L 4106 4581 
L 4106 1934 
Q 4106 1244 3950 837 
Q 3794 431 3386 176 
Q 2978 -78 2316 -78 
Q 1672 -78 1262 144 
Q 853 366 678 786 
Q 503 1206 503 1934 
L 503 4581 
L 1109 4581 
L 1109 1938 
Q 1109 1341 1220 1058 
Q 1331 775 1601 622 
Q 1872 469 2263 469 
Q 2931 469 3215 772 
Q 3500 1075 3500 1938 
L 3500 4581 
z
" id="ArialMT-55" transform="scale(0.015625)"/>
       <path id="ArialMT-20" transform="scale(0.015625)"/>
       <path d="M 2597 0 
L 2597 488 
Q 2209 -75 1544 -75 
Q 1250 -75 995 37 
Q 741 150 617 320 
Q 494 491 444 738 
Q 409 903 409 1263 
L 409 3319 
L 972 3319 
L 972 1478 
Q 972 1038 1006 884 
Q 1059 663 1231 536 
Q 1403 409 1656 409 
Q 1909 409 2131 539 
Q 2353 669 2445 892 
Q 2538 1116 2538 1541 
L 2538 3319 
L 3100 3319 
L 3100 0 
L 2597 0 
z
" id="ArialMT-75" transform="scale(0.015625)"/>
       <path d="M 556 0 
L 556 2881 
L 59 2881 
L 59 3319 
L 556 3319 
L 556 3672 
Q 556 4006 616 4169 
Q 697 4388 901 4523 
Q 1106 4659 1475 4659 
Q 1713 4659 2000 4603 
L 1916 4113 
Q 1741 4144 1584 4144 
Q 1328 4144 1222 4034 
Q 1116 3925 1116 3625 
L 1116 3319 
L 1763 3319 
L 1763 2881 
L 1116 2881 
L 1116 0 
L 556 0 
z
" id="ArialMT-66" transform="scale(0.015625)"/>
       <path d="M 422 0 
L 422 3319 
L 925 3319 
L 925 2853 
Q 1081 3097 1340 3245 
Q 1600 3394 1931 3394 
Q 2300 3394 2536 3241 
Q 2772 3088 2869 2813 
Q 3263 3394 3894 3394 
Q 4388 3394 4653 3120 
Q 4919 2847 4919 2278 
L 4919 0 
L 4359 0 
L 4359 2091 
Q 4359 2428 4304 2576 
Q 4250 2725 4106 2815 
Q 3963 2906 3769 2906 
Q 3419 2906 3187 2673 
Q 2956 2441 2956 1928 
L 2956 0 
L 2394 0 
L 2394 2156 
Q 2394 2531 2256 2718 
Q 2119 2906 1806 2906 
Q 1569 2906 1367 2781 
Q 1166 2656 1075 2415 
Q 984 2175 984 1722 
L 984 0 
L 422 0 
z
" id="ArialMT-6d" transform="scale(0.015625)"/>
       <path d="M 469 0 
L 469 4581 
L 1075 4581 
L 1075 541 
L 3331 541 
L 3331 0 
L 469 0 
z
" id="ArialMT-4c" transform="scale(0.015625)"/>
      </defs>
      <use xlink:href="#ArialMT-3b5"/>
      <use x="44.580078" xlink:href="#ArialMT-2d"/>
      <use x="77.880859" xlink:href="#ArialMT-4e"/>
      <use x="150.097656" xlink:href="#ArialMT-54"/>
      <use x="211.181641" xlink:href="#ArialMT-55"/>
      <use x="283.398438" xlink:href="#ArialMT-20"/>
      <use x="311.181641" xlink:href="#ArialMT-75"/>
      <use x="366.796875" xlink:href="#ArialMT-6e"/>
      <use x="422.412109" xlink:href="#ArialMT-69"/>
      <use x="444.628906" xlink:href="#ArialMT-66"/>
      <use x="472.412109" xlink:href="#ArialMT-6f"/>
      <use x="528.027344" xlink:href="#ArialMT-72"/>
      <use x="561.328125" xlink:href="#ArialMT-6d"/>
      <use x="644.628906" xlink:href="#ArialMT-20"/>
      <use x="670.662109" xlink:href="#ArialMT-54"/>
      <use x="731.746094" xlink:href="#ArialMT-4c"/>
      <use x="787.361328" xlink:href="#ArialMT-6f"/>
      <use x="842.976562" xlink:href="#ArialMT-61"/>
     </g>
    </g>
    <g id="line2d_21">
     <path d="M 337.103534 242.175031 
L 363.503534 242.175031 
" style="fill:none;stroke:#1f77b4;stroke-dasharray:4.8,1.8;stroke-dashoffset:0;stroke-width:1.2;"/>
    </g>
    <g id="line2d_22"/>
    <g id="text_17">
     <!-- ε-NTU counterflow -->
     <g style="fill:#262626;" transform="translate(374.063534 246.795031)scale(0.132 -0.132)">
      <defs>
       <path d="M 2588 1216 
L 3141 1144 
Q 3050 572 2676 248 
Q 2303 -75 1759 -75 
Q 1078 -75 664 370 
Q 250 816 250 1647 
Q 250 2184 428 2587 
Q 606 2991 970 3192 
Q 1334 3394 1763 3394 
Q 2303 3394 2647 3120 
Q 2991 2847 3088 2344 
L 2541 2259 
Q 2463 2594 2264 2762 
Q 2066 2931 1784 2931 
Q 1359 2931 1093 2626 
Q 828 2322 828 1663 
Q 828 994 1084 691 
Q 1341 388 1753 388 
Q 2084 388 2306 591 
Q 2528 794 2588 1216 
z
" id="ArialMT-63" transform="scale(0.015625)"/>
       <path d="M 1034 0 
L 19 3319 
L 600 3319 
L 1128 1403 
L 1325 691 
Q 1338 744 1497 1375 
L 2025 3319 
L 2603 3319 
L 3100 1394 
L 3266 759 
L 3456 1400 
L 4025 3319 
L 4572 3319 
L 3534 0 
L 2950 0 
L 2422 1988 
L 2294 2553 
L 1622 0 
L 1034 0 
z
" id="ArialMT-77" transform="scale(0.015625)"/>
      </defs>
      <use xlink:href="#ArialMT-3b5"/>
      <use x="44.580078" xlink:href="#ArialMT-2d"/>
      <use x="77.880859" xlink:href="#ArialMT-4e"/>
      <use x="150.097656" xlink:href="#ArialMT-54"/>
      <use x="211.181641" xlink:href="#ArialMT-55"/>
      <use x="283.398438" xlink:href="#ArialMT-20"/>
      <use x="311.181641" xlink:href="#ArialMT-63"/>
      <use x="361.181641" xlink:href="#ArialMT-6f"/>
      <use x="416.796875" xlink:href="#ArialMT-75"/>
      <use x="472.412109" xlink:href="#ArialMT-6e"/>
      <use x="528.027344" xlink:href="#ArialMT-74"/>
      <use x="555.810547" xlink:href="#ArialMT-65"/>
      <use x="611.425781" xlink:href="#ArialMT-72"/>
      <use x="644.726562" xlink:href="#ArialMT-66"/>
      <use x="672.509766" xlink:href="#ArialMT-6c"/>
      <use x="694.726562" xlink:href="#ArialMT-6f"/>
      <use x="750.341797" xlink:href="#ArialMT-77"/>
     </g>
    </g>
    <g id="line2d_23">
     <path d="M 337.103534 260.846844 
L 363.503534 260.846844 
" style="fill:none;stroke:#1f77b4;stroke-dasharray:1.2,1.2;stroke-dashoffset:0;stroke-width:1.2;"/>
    </g>
    <g id="line2d_24"/>
    <g id="text_18">
     <!-- Approximation -->
     <g style="fill:#262626;" transform="translate(374.063534 265.466844)scale(0.132 -0.132)">
      <defs>
       <path d="M -9 0 
L 1750 4581 
L 2403 4581 
L 4278 0 
L 3588 0 
L 3053 1388 
L 1138 1388 
L 634 0 
L -9 0 
z
M 1313 1881 
L 2866 1881 
L 2388 3150 
Q 2169 3728 2063 4100 
Q 1975 3659 1816 3225 
L 1313 1881 
z
" id="ArialMT-41" transform="scale(0.015625)"/>
       <path d="M 422 -1272 
L 422 3319 
L 934 3319 
L 934 2888 
Q 1116 3141 1344 3267 
Q 1572 3394 1897 3394 
Q 2322 3394 2647 3175 
Q 2972 2956 3137 2557 
Q 3303 2159 3303 1684 
Q 3303 1175 3120 767 
Q 2938 359 2589 142 
Q 2241 -75 1856 -75 
Q 1575 -75 1351 44 
Q 1128 163 984 344 
L 984 -1272 
L 422 -1272 
z
M 931 1641 
Q 931 1000 1190 694 
Q 1450 388 1819 388 
Q 2194 388 2461 705 
Q 2728 1022 2728 1688 
Q 2728 2322 2467 2637 
Q 2206 2953 1844 2953 
Q 1484 2953 1207 2617 
Q 931 2281 931 1641 
z
" id="ArialMT-70" transform="scale(0.015625)"/>
       <path d="M 47 0 
L 1259 1725 
L 138 3319 
L 841 3319 
L 1350 2541 
Q 1494 2319 1581 2169 
Q 1719 2375 1834 2534 
L 2394 3319 
L 3066 3319 
L 1919 1756 
L 3153 0 
L 2463 0 
L 1781 1031 
L 1600 1309 
L 728 0 
L 47 0 
z
" id="ArialMT-78" transform="scale(0.015625)"/>
      </defs>
      <use xlink:href="#ArialMT-41"/>
      <use x="66.699219" xlink:href="#ArialMT-70"/>
      <use x="122.314453" xlink:href="#ArialMT-70"/>
      <use x="177.929688" xlink:href="#ArialMT-72"/>
      <use x="211.230469" xlink:href="#ArialMT-6f"/>
      <use x="266.845703" xlink:href="#ArialMT-78"/>
      <use x="316.845703" xlink:href="#ArialMT-69"/>
      <use x="339.0625" xlink:href="#ArialMT-6d"/>
      <use x="422.363281" xlink:href="#ArialMT-61"/>
      <use x="477.978516" xlink:href="#ArialMT-74"/>
      <use x="505.761719" xlink:href="#ArialMT-69"/>
      <use x="527.978516" xlink:href="#ArialMT-6f"/>
      <use x="583.59375" xlink:href="#ArialMT-6e"/>
     </g>
    </g>
   </g>
  </g>
 </g>
 <defs>
  <clipPath id="pa86d30eb8f">
   <rect height="452.596" width="447.837659" x="56.712" y="7.2"/>
  </clipPath>
 </defs>
</svg>
