<svg width="3485" height="2523" xmlns="http://www.w3.org/2000/svg" xmlns:xlink="http://www.w3.org/1999/xlink" xml:space="preserve" overflow="hidden"><defs><clipPath id="clip0"><rect x="770" y="332" width="3485" height="2523"/></clipPath></defs><g clip-path="url(#clip0)" transform="translate(-770 -332)"><path d="M1663.5 1686.5C1663.5 1083.4 2152.41 594.5 2755.5 594.5 3358.59 594.5 3847.5 1083.4 3847.5 1686.5 3847.5 2289.59 3358.59 2778.5 2755.5 2778.5 2152.41 2778.5 1663.5 2289.59 1663.5 1686.5Z" stroke="#7F7F7F" stroke-width="9.16667" stroke-miterlimit="8" fill="#D0CECE" fill-rule="evenodd" fill-opacity="0.278431"/><path d="M2235.5 1689.5C2235.5 1402.31 2468.31 1169.5 2755.5 1169.5 3042.69 1169.5 3275.5 1402.31 3275.5 1689.5 3275.5 1976.69 3042.69 2209.5 2755.5 2209.5 2468.31 2209.5 2235.5 1976.69 2235.5 1689.5Z" stroke="#7F7F7F" stroke-width="4.58333" stroke-miterlimit="8" fill="none" fill-rule="evenodd"/><path d="M2463.5 1689.5C2463.5 1528.23 2594.46 1397.5 2756 1397.5 2917.54 1397.5 3048.5 1528.23 3048.5 1689.5 3048.5 1850.77 2917.54 1981.5 2756 1981.5 2594.46 1981.5 2463.5 1850.77 2463.5 1689.5Z" stroke="#7F7F7F" stroke-width="9.16667" stroke-miterlimit="8" fill="#FFF2CC" fill-rule="evenodd"/><path d="M2008.5 1689.5C2008.5 1276.94 2342.94 942.5 2755.5 942.5 3168.06 942.5 3502.5 1276.94 3502.5 1689.5 3502.5 2102.06 3168.06 2436.5 2755.5 2436.5 2342.94 2436.5 2008.5 2102.06 2008.5 1689.5Z" stroke="#7F7F7F" stroke-width="4.58333" stroke-miterlimit="8" fill="none" fill-rule="evenodd"/><path d="M0.504792-2.23538 1237.49 277.101 1236.48 281.572-0.504792 2.23538ZM1235.55 264.914 1259.34 284.384 1229.49 291.739Z" transform="matrix(1 0 0 -1 2755.5 1689.88)"/><text font-family="Abadi,Abadi_MSFontService,sans-serif" font-weight="400" font-size="83" transform="matrix(1 0 0 1 3960.44 1491)">r</text><text font-family="Abadi,Abadi_MSFontService,sans-serif" font-weight="400" font-size="83" transform="matrix(1 0 0 1 3030.59 1538)">r</text><text font-family="Abadi,Abadi_MSFontService,sans-serif" font-weight="400" font-size="55" transform="matrix(1 0 0 1 3059.24 1558)">well</text><text font-family="Abadi,Abadi_MSFontService,sans-serif" font-weight="400" font-size="83" transform="matrix(1 0 0 1 3812.18 1297)">r</text><text font-family="Abadi,Abadi_MSFontService,sans-serif" font-weight="400" font-size="55" transform="matrix(1 0 0 1 3840.82 1317)">aquifer</text><text font-family="Abadi,Abadi_MSFontService,sans-serif" font-weight="400" font-size="83" transform="matrix(1 0 0 1 3261.68 1471)">r</text><text font-family="Abadi,Abadi_MSFontService,sans-serif" font-weight="400" font-size="55" transform="matrix(1 0 0 1 3290.32 1491)">1</text><text font-family="Abadi,Abadi_MSFontService,sans-serif" font-weight="400" font-size="83" transform="matrix(1 0 0 1 3482.82 1406)">r</text><text font-family="Abadi,Abadi_MSFontService,sans-serif" font-weight="400" font-size="55" transform="matrix(1 0 0 1 3511.46 1426)">2</text><path d="M0 0 167.897 52.5077" stroke="#000000" stroke-width="9.16667" stroke-miterlimit="8" stroke-dasharray="9.16667 9.16667" fill="none" fill-rule="evenodd" transform="matrix(1 0 0 -1 3589.5 1371.01)"/><text font-family="Abadi,Abadi_MSFontService,sans-serif" font-weight="400" font-size="83" transform="matrix(1 0 0 1 3013.33 1211)">T</text><text font-family="Abadi,Abadi_MSFontService,sans-serif" font-weight="400" font-size="55" transform="matrix(1 0 0 1 3054.58 1231)">1</text><text font-family="Abadi,Abadi_MSFontService,sans-serif" font-weight="400" font-size="83" transform="matrix(1 0 0 1 3208.05 1060)">T</text><text font-family="Abadi,Abadi_MSFontService,sans-serif" font-weight="400" font-size="55" transform="matrix(1 0 0 1 3249.3 1080)">2</text><rect x="2755" y="1692" width="1172" height="1163" fill="#FFFFFF"/><rect x="1583" y="540" width="1172" height="2290" fill="#FFFFFF"/><path d="M3269.82 1243.89 3346.91 1180.81 3319.87 1147.77 3440.03 1159.77 3428.02 1279.94 3400.99 1246.9 3323.9 1309.98Z" stroke="#000000" stroke-width="4.58333" stroke-miterlimit="8" fill="#DAE3F3" fill-rule="evenodd"/><text font-family="Abadi,Abadi_MSFontService,sans-serif" font-weight="400" font-size="83" transform="matrix(1 0 0 1 3352.73 1229)">u</text><path d="M2755.5 1687.5 3927.76 1693.42" stroke="#000000" stroke-width="4.58333" stroke-miterlimit="8" stroke-dasharray="18.3333 13.75" fill="none" fill-rule="evenodd"/><path d="M0 0 0.847014 1152.29" stroke="#000000" stroke-width="4.58333" stroke-miterlimit="8" stroke-dasharray="18.3333 13.75" fill="none" fill-rule="evenodd" transform="matrix(-1 0 0 1 2752.35 535.5)"/><path d="M1506.5 770.124C1506.5 780.41 1539.86 788.749 1581 788.749 1622.15 788.749 1655.5 780.41 1655.5 770.124L1655.5 1656.88C1655.5 1667.16 1622.15 1675.5 1581 1675.5 1539.85 1675.5 1506.5 1667.16 1506.5 1656.88Z" fill="#FFF2CC" fill-rule="evenodd"/><path d="M1506.5 770.124C1506.5 759.838 1539.86 751.5 1581 751.5 1622.15 751.5 1655.5 759.838 1655.5 770.124 1655.5 780.41 1622.15 788.749 1581 788.749 1539.86 788.749 1506.5 780.41 1506.5 770.124Z" fill="#FFF7E0" fill-rule="evenodd"/><path d="M1655.5 770.124C1655.5 780.41 1622.15 788.749 1581 788.749 1539.85 788.749 1506.5 780.41 1506.5 770.124 1506.5 759.838 1539.85 751.5 1581 751.5 1622.15 751.5 1655.5 759.838 1655.5 770.124L1655.5 1656.88C1655.5 1667.16 1622.15 1675.5 1581 1675.5 1539.85 1675.5 1506.5 1667.16 1506.5 1656.88L1506.5 770.124" stroke="#7F7F7F" stroke-width="4.58333" stroke-miterlimit="8" fill="none" fill-rule="evenodd"/><path d="M772.5 774.376C772.5 853.284 1134.48 917.252 1581 917.252 2027.52 917.252 2389.5 853.284 2389.5 774.376L2389.5 1631.63C2389.5 1710.53 2027.52 1774.5 1581 1774.5 1134.48 1774.5 772.5 1710.53 772.5 1631.63Z" fill="#D0CECE" fill-rule="evenodd" fill-opacity="0.301961"/><path d="M772.5 774.376C772.5 695.468 1134.48 631.5 1581 631.5 2027.52 631.5 2389.5 695.468 2389.5 774.376 2389.5 853.284 2027.52 917.252 1581 917.252 1134.48 917.252 772.5 853.284 772.5 774.376Z" fill="#E3E2E2" fill-rule="evenodd" fill-opacity="0.301961"/><path d="M2389.5 774.376C2389.5 853.284 2027.52 917.252 1581 917.252 1134.48 917.252 772.5 853.284 772.5 774.376 772.5 695.468 1134.48 631.5 1581 631.5 2027.52 631.5 2389.5 695.468 2389.5 774.376L2389.5 1631.63C2389.5 1710.53 2027.52 1774.5 1581 1774.5 1134.48 1774.5 772.5 1710.53 772.5 1631.63L772.5 774.376" stroke="#7F7F7F" stroke-width="4.58333" stroke-miterlimit="8" fill="none" fill-rule="evenodd"/><path d="M1506 1651C1506 1637.75 1539.35 1627 1580.5 1627 1621.65 1627 1655 1637.75 1655 1651 1655 1664.25 1621.65 1675 1580.5 1675 1539.35 1675 1506 1664.25 1506 1651Z" stroke="#7F7F7F" stroke-width="2.29167" stroke-miterlimit="8" fill="#FFF2CC" fill-rule="evenodd" fill-opacity="0.501961"/><path d="M773 1634C773 1558.34 1134.98 1497 1581.5 1497 2028.02 1497 2390 1558.34 2390 1634 2390 1709.66 2028.02 1771 1581.5 1771 1134.98 1771 773 1709.66 773 1634Z" stroke="#7F7F7F" stroke-width="2.29167" stroke-miterlimit="8" stroke-dasharray="9.16667 6.875" fill="#E7E6E6" fill-rule="evenodd" fill-opacity="0.0392157"/><path d="M1680 1262.25 1802.5 1262.25 1802.5 1249 1829 1275.5 1802.5 1302 1802.5 1288.75 1680 1288.75Z" stroke="#000000" stroke-width="2.29167" stroke-miterlimit="8" fill="#DAE3F3" fill-rule="evenodd"/><path d="M1680 1373.25 1802.5 1373.25 1802.5 1360 1829 1386.5 1802.5 1413 1802.5 1399.75 1680 1399.75Z" stroke="#000000" stroke-width="2.29167" stroke-miterlimit="8" fill="#DAE3F3" fill-rule="evenodd"/><path d="M1680 1484 1803 1484 1803 1471 1829 1497 1803 1523 1803 1510 1680 1510Z" stroke="#000000" stroke-width="2.29167" stroke-miterlimit="8" fill="#DAE3F3" fill-rule="evenodd"/><path d="M1680 1595 1803 1595 1803 1582 1829 1608 1803 1634 1803 1621 1680 1621Z" stroke="#000000" stroke-width="2.29167" stroke-miterlimit="8" fill="#DAE3F3" fill-rule="evenodd"/><path d="M1680 1152 1803 1152 1803 1139 1829 1165 1803 1191 1803 1178 1680 1178Z" stroke="#000000" stroke-width="2.29167" stroke-miterlimit="8" fill="#DAE3F3" fill-rule="evenodd"/><path d="M1680 1041 1803 1041 1803 1028 1829 1054 1803 1080 1803 1067 1680 1067Z" stroke="#000000" stroke-width="2.29167" stroke-miterlimit="8" fill="#DAE3F3" fill-rule="evenodd"/><path d="M1680 931 1803 931 1803 918 1829 944 1803 970 1803 957 1680 957Z" stroke="#000000" stroke-width="2.29167" stroke-miterlimit="8" fill="#DAE3F3" fill-rule="evenodd"/><path d="M1680 823 1803 823 1803 810 1829 836 1803 862 1803 849 1680 849Z" stroke="#000000" stroke-width="2.29167" stroke-miterlimit="8" fill="#DAE3F3" fill-rule="evenodd"/><path d="M0 13.25 122.5 13.25 122.5 0 149 26.5002 122.5 53.0003 122.5 39.7503 0 39.7503Z" stroke="#000000" stroke-width="2.29167" stroke-miterlimit="8" fill="#DAE3F3" fill-rule="evenodd" transform="matrix(-1 0 0 1 1476 1249)"/><path d="M0 13.25 122.5 13.25 122.5 0 149 26.5002 122.5 53.0003 122.5 39.7503 0 39.7503Z" stroke="#000000" stroke-width="2.29167" stroke-miterlimit="8" fill="#DAE3F3" fill-rule="evenodd" transform="matrix(-1 0 0 1 1476 1360)"/><path d="M0 13.0001 123 13.0001 123 0 149 26.0001 123 52.0003 123 39.0002 0 39.0002Z" stroke="#000000" stroke-width="2.29167" stroke-miterlimit="8" fill="#DAE3F3" fill-rule="evenodd" transform="matrix(-1 0 0 1 1476 1471)"/><path d="M0 13.0001 123 13.0001 123 0 149 26.0001 123 52.0002 123 39.0002 0 39.0002Z" stroke="#000000" stroke-width="2.29167" stroke-miterlimit="8" fill="#DAE3F3" fill-rule="evenodd" transform="matrix(-1 0 0 1 1476 1582)"/><path d="M0 13.0001 123 13.0001 123 0 149 26.0001 123 52.0003 123 39.0002 0 39.0002Z" stroke="#000000" stroke-width="2.29167" stroke-miterlimit="8" fill="#DAE3F3" fill-rule="evenodd" transform="matrix(-1 0 0 1 1476 1139)"/><path d="M0 13.0001 123 13.0001 123 0 149 26.0001 123 52.0002 123 39.0002 0 39.0002Z" stroke="#000000" stroke-width="2.29167" stroke-miterlimit="8" fill="#DAE3F3" fill-rule="evenodd" transform="matrix(-1 0 0 1 1476 1028)"/><path d="M0 13.0001 123 13.0001 123 0 149 26.0001 123 52.0002 123 39.0002 0 39.0002Z" stroke="#000000" stroke-width="2.29167" stroke-miterlimit="8" fill="#DAE3F3" fill-rule="evenodd" transform="matrix(-1 0 0 1 1476 918)"/><path d="M0 13.0001 123 13.0001 123 0 149 26.0001 123 52.0003 123 39.0002 0 39.0002Z" stroke="#000000" stroke-width="2.29167" stroke-miterlimit="8" fill="#DAE3F3" fill-rule="evenodd" transform="matrix(-1 0 0 1 1476 810)"/><path d="M1362.02 502.471 1495.12 758.233 1493.09 759.291 1359.98 503.529ZM1504.19 748.349 1504.69 779.091 1479.79 761.044Z"/><text font-family="Abadi,Abadi_MSFontService,sans-serif" font-weight="400" font-size="83" transform="matrix(1 0 0 1 1175.37 437)">r=r</text><text font-family="Abadi,Abadi_MSFontService,sans-serif" font-weight="400" font-size="55" transform="matrix(1 0 0 1 1287.66 457)">well</text><text font-family="Abadi,Abadi_MSFontService,sans-serif" font-weight="400" font-size="83" transform="matrix(1 0 0 1 1811.58 435)">r=r</text><text font-family="Abadi,Abadi_MSFontService,sans-serif" font-weight="400" font-size="55" transform="matrix(1 0 0 1 1923.87 455)">aquifer</text><path d="M1963.63 500.041 2368.5 765.04 2367.24 766.958 1962.37 501.959ZM2371.56 751.984 2387.04 778.55 2356.5 774.994Z"/><path d="M1583 1647.99 1923.86 1647.99 1923.86 1656.01 1583 1656.01ZM1919.28 1638.25 1946.78 1652 1919.28 1665.75Z"/><path d="M4.01042-4.51836e-06 4.01075 297.405-4.01008 297.405-4.01042 4.51836e-06ZM13.7503 292.822 0.000360892 320.322-13.7497 292.822Z" transform="matrix(1 0 0 -1 1586 1651.32)"/><text font-family="Abadi,Abadi_MSFontService,sans-serif" font-weight="400" font-size="48" transform="matrix(1 0 0 1 1569.13 1313)">z</text><text font-family="Abadi,Abadi_MSFontService,sans-serif" font-weight="400" font-size="48" transform="matrix(1 0 0 1 1964.84 1660)">r</text><text font-family="Abadi,Abadi_MSFontService,sans-serif" font-weight="400" font-size="83" transform="matrix(1 0 0 1 1851.8 1069)">u</text></g></svg>