<?xml version="1.0" encoding="UTF-8" standalone="no"?>
<!-- Created with Inkscape (http://www.inkscape.org/) -->

<svg
   width="56.453148mm"
   height="264.58344mm"
   viewBox="0 0 56.453154 264.58343"
   version="1.1"
   id="svg19564"
   xmlns="http://www.w3.org/2000/svg"
   xmlns:svg="http://www.w3.org/2000/svg">
  <defs
     id="defs19561">
    <clipPath
       id="clipId0">
      <path
         d="M 0,768 H 1024 V 0 H 0 Z"
         id="path2" />
    </clipPath>
  </defs>
  <g
     id="g77319"
     transform="matrix(46.241393,0,0,45.430971,-24477.693,-4845.9779)"
     style="stroke-width:0.0577259;stroke-miterlimit:4;stroke-dasharray:none">
    <path
       d="m 530.04817,109.59853 a 0.15306146,0.15306146 0 0 0 0.30612,0"
       id="path1090"
       style="fill:none;stroke:#000000;stroke-width:0.0577259;stroke-miterlimit:4;stroke-dasharray:none" />
    <path
       d="m 529.86455,109.59853 a 0.33669816,0.33669816 0 0 0 0.67336,0"
       id="path1092"
       style="fill:none;stroke:#000000;stroke-width:0.0577259;stroke-miterlimit:4;stroke-dasharray:none" />
    <path
       d="m 529.86455,107.0289 a 0.15306146,0.15306146 0 0 0 -0.30612,0"
       id="path1094"
       style="fill:none;stroke:#000000;stroke-width:0.0577259;stroke-miterlimit:4;stroke-dasharray:none" />
    <path
       d="m 530.04817,107.0289 a 0.33669816,0.33669816 0 0 0 -0.67336,0"
       id="path1096"
       style="fill:none;stroke:#000000;stroke-width:0.0577259;stroke-miterlimit:4;stroke-dasharray:none" />
    <path
       d="m 530.53791,107.8208 a 0.09182708,0.09182708 0 0 0 -0.18362,0"
       id="path1098"
       style="fill:none;stroke:#000000;stroke-width:0.0577259;stroke-miterlimit:4;stroke-dasharray:none" />
    <polyline
       points="536.073,347.666 536.073,368.309 "
       id="polyline1100"
       style="fill:none;stroke:#000000;stroke-width:0.218177;stroke-miterlimit:4;stroke-dasharray:none"
       transform="matrix(0.26458333,0,0,0.26458333,387.72244,15.04227)" />
    <polyline
       points="535.379,347.666 535.379,368.309 "
       id="polyline1102"
       style="fill:none;stroke:#000000;stroke-width:0.218177;stroke-miterlimit:4;stroke-dasharray:none"
       transform="matrix(0.26458333,0,0,0.26458333,387.72244,15.04227)" />
    <polyline
       points="537.23,357.378 537.23,347.666 "
       id="polyline1104"
       style="fill:none;stroke:#000000;stroke-width:0.218177;stroke-miterlimit:4;stroke-dasharray:none"
       transform="matrix(0.26458333,0,0,0.26458333,387.72244,15.04227)" />
    <polyline
       points="537.924,357.378 537.924,347.666 "
       id="polyline1106"
       style="fill:none;stroke:#000000;stroke-width:0.218177;stroke-miterlimit:4;stroke-dasharray:none"
       transform="matrix(0.26458333,0,0,0.26458333,387.72244,15.04227)" />
    <polyline
       points="539.775,357.378 539.775,350.659 "
       id="polyline1108"
       style="fill:none;stroke:#000000;stroke-width:0.218177;stroke-miterlimit:4;stroke-dasharray:none"
       transform="matrix(0.26458333,0,0,0.26458333,387.72244,15.04227)" />
    <polyline
       points="539.081,357.378 539.081,350.659 "
       id="polyline1110"
       style="fill:none;stroke:#000000;stroke-width:0.218177;stroke-miterlimit:4;stroke-dasharray:none"
       transform="matrix(0.26458333,0,0,0.26458333,387.72244,15.04227)" />
  </g>
</svg>
