<?xml version="1.0" encoding="UTF-8" standalone="no"?>
<!-- Created with Inkscape (http://www.inkscape.org/) -->

<svg
   width="100"
   height="100"
   viewBox="0 0 26.458336 26.458331"
   version="1.1"
   id="svg19564"
   sodipodi:docname="ProbeAveraging.svg"
   inkscape:version="1.2.1 (9c6d41e410, 2022-07-14)"
   xmlns:inkscape="http://www.inkscape.org/namespaces/inkscape"
   xmlns:sodipodi="http://sodipodi.sourceforge.net/DTD/sodipodi-0.dtd"
   xmlns="http://www.w3.org/2000/svg"
   xmlns:svg="http://www.w3.org/2000/svg">
  <sodipodi:namedview
     id="namedview14837"
     pagecolor="#ffffff"
     bordercolor="#000000"
     borderopacity="0.25"
     inkscape:showpageshadow="2"
     inkscape:pageopacity="0.0"
     inkscape:pagecheckerboard="0"
     inkscape:deskcolor="#d1d1d1"
     inkscape:document-units="mm"
     showgrid="true"
     inkscape:zoom="19.165415"
     inkscape:cx="44.142014"
     inkscape:cy="97.649857"
     inkscape:window-width="1920"
     inkscape:window-height="1028"
     inkscape:window-x="-6"
     inkscape:window-y="-6"
     inkscape:window-maximized="1"
     inkscape:current-layer="svg19564">
    <inkscape:grid
       type="xygrid"
       id="grid246" />
  </sodipodi:namedview>
  <defs
     id="defs19561">
    <clipPath
       id="clipId0">
      <path
         d="M 0,768 H 1024 V 0 H 0 Z"
         id="path2" />
    </clipPath>
  </defs>
  <g
     id="g77319"
     transform="matrix(4.4384151,0,0,4.5430965,-2336.7521,-484.59773)"
     style="stroke-width:0.0589213;stroke-miterlimit:4;stroke-dasharray:none">
    <path
       d="m 530.04817,109.59853 a 0.15306146,0.15306146 0 0 0 0.30612,0"
       id="path1090"
       style="fill:none;stroke:#000000;stroke-width:0.0589213;stroke-miterlimit:4;stroke-dasharray:none" />
    <path
       d="m 529.86455,109.59853 a 0.33669816,0.33669816 0 0 0 0.67336,0"
       id="path1092"
       style="fill:none;stroke:#000000;stroke-width:0.0589213;stroke-miterlimit:4;stroke-dasharray:none" />
    <path
       d="m 529.86455,107.0289 a 0.15306146,0.15306146 0 0 0 -0.30612,0"
       id="path1094"
       style="fill:none;stroke:#000000;stroke-width:0.0589213;stroke-miterlimit:4;stroke-dasharray:none" />
    <path
       d="m 530.04817,107.0289 a 0.33669816,0.33669816 0 0 0 -0.67336,0"
       id="path1096"
       style="fill:none;stroke:#000000;stroke-width:0.0589213;stroke-miterlimit:4;stroke-dasharray:none" />
    <path
       d="m 530.53791,107.8208 a 0.09182708,0.09182708 0 0 0 -0.18362,0"
       id="path1098"
       style="fill:none;stroke:#000000;stroke-width:0.0589213;stroke-miterlimit:4;stroke-dasharray:none" />
    <polyline
       points="536.073,347.666 536.073,368.309 "
       id="polyline1100"
       style="fill:none;stroke:#000000;stroke-width:0.222695;stroke-miterlimit:4;stroke-dasharray:none"
       transform="matrix(0.26458333,0,0,0.26458333,387.72244,15.04227)" />
    <polyline
       points="535.379,347.666 535.379,368.309 "
       id="polyline1102"
       style="fill:none;stroke:#000000;stroke-width:0.222695;stroke-miterlimit:4;stroke-dasharray:none"
       transform="matrix(0.26458333,0,0,0.26458333,387.72244,15.04227)" />
    <polyline
       points="537.23,357.378 537.23,347.666 "
       id="polyline1104"
       style="fill:none;stroke:#000000;stroke-width:0.222695;stroke-miterlimit:4;stroke-dasharray:none"
       transform="matrix(0.26458333,0,0,0.26458333,387.72244,15.04227)" />
    <polyline
       points="537.924,357.378 537.924,347.666 "
       id="polyline1106"
       style="fill:none;stroke:#000000;stroke-width:0.222695;stroke-miterlimit:4;stroke-dasharray:none"
       transform="matrix(0.26458333,0,0,0.26458333,387.72244,15.04227)" />
    <polyline
       points="539.775,357.378 539.775,350.659 "
       id="polyline1108"
       style="fill:none;stroke:#000000;stroke-width:0.222695;stroke-miterlimit:4;stroke-dasharray:none"
       transform="matrix(0.26458333,0,0,0.26458333,387.72244,15.04227)" />
    <polyline
       points="539.081,357.378 539.081,350.659 "
       id="polyline1110"
       style="fill:none;stroke:#000000;stroke-width:0.222695;stroke-miterlimit:4;stroke-dasharray:none"
       transform="matrix(0.26458333,0,0,0.26458333,387.72244,15.04227)" />
  </g>
</svg>
