<?xml version="1.0" encoding="UTF-8" standalone="no"?>
<!-- Created with Inkscape (http://www.inkscape.org/) -->

<svg
   width="105.84607mm"
   height="369.36087mm"
   viewBox="0 0 105.84608 369.36086"
   version="1.1"
   id="svg19564"
   xmlns="http://www.w3.org/2000/svg"
   xmlns:svg="http://www.w3.org/2000/svg">
  <defs
     id="defs19561">
    <clipPath
       id="clipId0">
      <path
         d="M 0,768 H 1024 V 0 H 0 Z"
         id="path2" />
    </clipPath>
  </defs>
  <g
     id="g12097"
     transform="matrix(13.514961,0,0,13.515061,19766.105,45847.34)"
     style="stroke-width:0.19577;stroke-miterlimit:4;stroke-dasharray:none">
    <path
       d="m -1461.1642,-3372.718 a 1.27256,1.27256 0 0 0 -1.273,1.273"
       id="path1112"
       style="fill:none;stroke:#000000;stroke-width:0.19577;stroke-miterlimit:4;stroke-dasharray:none" />
    <path
       d="m -1462.4372,-3366.355 a 1.27256,1.27256 0 0 0 1.273,1.272"
       id="path1114"
       style="fill:none;stroke:#000000;stroke-width:0.19577;stroke-miterlimit:4;stroke-dasharray:none" />
    <path
       d="m -1456.0742,-3365.083 a 1.27256,1.27256 0 0 0 1.273,-1.272"
       id="path1116"
       style="fill:none;stroke:#000000;stroke-width:0.19577;stroke-miterlimit:4;stroke-dasharray:none" />
    <polyline
       points="538.271,375.944 533.181,375.944 "
       id="polyline1118"
       style="fill:none;stroke:#000000;stroke-width:0.19577;stroke-miterlimit:4;stroke-dasharray:none"
       transform="translate(-1994.3452,-3741.027)" />
    <polyline
       points="533.181,368.309 538.271,368.309 "
       id="polyline1120"
       style="fill:none;stroke:#000000;stroke-width:0.19577;stroke-miterlimit:4;stroke-dasharray:none"
       transform="translate(-1994.3452,-3741.027)" />
    <polyline
       points="531.908,374.672 531.908,369.582 "
       id="polyline1122"
       style="fill:none;stroke:#000000;stroke-width:0.19577;stroke-miterlimit:4;stroke-dasharray:none"
       transform="translate(-1994.3452,-3741.027)" />
    <polyline
       points="539.544,369.582 539.544,374.672 "
       id="polyline1124"
       style="fill:none;stroke:#000000;stroke-width:0.19577;stroke-miterlimit:4;stroke-dasharray:none"
       transform="translate(-1994.3452,-3741.027)" />
    <path
       d="m -1454.8012,-3371.445 a 1.27256,1.27256 0 0 0 -1.273,-1.273"
       id="path1126"
       style="fill:none;stroke:#000000;stroke-width:0.19577;stroke-miterlimit:4;stroke-dasharray:none" />
  </g>
  <text
     xml:space="preserve"
     style="font-style:normal;font-variant:normal;font-weight:normal;font-stretch:normal;font-size:52.9167px;line-height:1.25;font-family:sans-serif;-inkscape-font-specification:'sans-serif, Normal';font-variant-ligatures:normal;font-variant-caps:normal;font-variant-numeric:normal;font-variant-east-asian:normal;fill:#000000;fill-opacity:1;stroke:none;stroke-width:2.64583;stroke-miterlimit:4;stroke-dasharray:none"
     x="36.76123"
     y="335.73245"
     id="text44048"><tspan
       id="tspan44046"
       style="font-style:normal;font-variant:normal;font-weight:normal;font-stretch:normal;font-size:52.9167px;font-family:sans-serif;-inkscape-font-specification:'sans-serif, Normal';font-variant-ligatures:normal;font-variant-caps:normal;font-variant-numeric:normal;font-variant-east-asian:normal;stroke-width:2.64583;stroke-miterlimit:4;stroke-dasharray:none"
       x="36.76123"
       y="335.73245">T</tspan></text>
  <g
     id="g77319"
     transform="matrix(46.241393,0,0,45.430971,-24430.372,-4845.9779)"
     style="stroke-width:0.0577259;stroke-miterlimit:4;stroke-dasharray:none">
    <path
       d="m 530.04817,109.59853 a 0.15306146,0.15306146 0 0 0 0.30612,0"
       id="path1090"
       style="fill:none;stroke:#000000;stroke-width:0.0577259;stroke-miterlimit:4;stroke-dasharray:none" />
    <path
       d="m 529.86455,109.59853 a 0.33669816,0.33669816 0 0 0 0.67336,0"
       id="path1092"
       style="fill:none;stroke:#000000;stroke-width:0.0577259;stroke-miterlimit:4;stroke-dasharray:none" />
    <path
       d="m 529.86455,107.0289 a 0.15306146,0.15306146 0 0 0 -0.30612,0"
       id="path1094"
       style="fill:none;stroke:#000000;stroke-width:0.0577259;stroke-miterlimit:4;stroke-dasharray:none" />
    <path
       d="m 530.04817,107.0289 a 0.33669816,0.33669816 0 0 0 -0.67336,0"
       id="path1096"
       style="fill:none;stroke:#000000;stroke-width:0.0577259;stroke-miterlimit:4;stroke-dasharray:none" />
    <path
       d="m 530.53791,107.8208 a 0.09182708,0.09182708 0 0 0 -0.18362,0"
       id="path1098"
       style="fill:none;stroke:#000000;stroke-width:0.0577259;stroke-miterlimit:4;stroke-dasharray:none" />
    <polyline
       points="536.073,347.666 536.073,368.309 "
       id="polyline1100"
       style="fill:none;stroke:#000000;stroke-width:0.218177;stroke-miterlimit:4;stroke-dasharray:none"
       transform="matrix(0.26458333,0,0,0.26458333,387.72244,15.04227)" />
    <polyline
       points="535.379,347.666 535.379,368.309 "
       id="polyline1102"
       style="fill:none;stroke:#000000;stroke-width:0.218177;stroke-miterlimit:4;stroke-dasharray:none"
       transform="matrix(0.26458333,0,0,0.26458333,387.72244,15.04227)" />
    <polyline
       points="537.23,357.378 537.23,347.666 "
       id="polyline1104"
       style="fill:none;stroke:#000000;stroke-width:0.218177;stroke-miterlimit:4;stroke-dasharray:none"
       transform="matrix(0.26458333,0,0,0.26458333,387.72244,15.04227)" />
    <polyline
       points="537.924,357.378 537.924,347.666 "
       id="polyline1106"
       style="fill:none;stroke:#000000;stroke-width:0.218177;stroke-miterlimit:4;stroke-dasharray:none"
       transform="matrix(0.26458333,0,0,0.26458333,387.72244,15.04227)" />
    <polyline
       points="539.775,357.378 539.775,350.659 "
       id="polyline1108"
       style="fill:none;stroke:#000000;stroke-width:0.218177;stroke-miterlimit:4;stroke-dasharray:none"
       transform="matrix(0.26458333,0,0,0.26458333,387.72244,15.04227)" />
    <polyline
       points="539.081,357.378 539.081,350.659 "
       id="polyline1110"
       style="fill:none;stroke:#000000;stroke-width:0.218177;stroke-miterlimit:4;stroke-dasharray:none"
       transform="matrix(0.26458333,0,0,0.26458333,387.72244,15.04227)" />
  </g>
</svg>
