<?xml version="1.0" encoding="UTF-8" standalone="no"?>
<!-- Created with Inkscape (http://www.inkscape.org/) -->

<svg
   width="200mm"
   height="200mm"
   viewBox="0 0 200.00002 200"
   version="1.1"
   id="svg1653"
   sodipodi:docname="VolumeFlowRateAFMS.svg"
   inkscape:version="1.2.2 (732a01da63, 2022-12-09)"
   xmlns:inkscape="http://www.inkscape.org/namespaces/inkscape"
   xmlns:sodipodi="http://sodipodi.sourceforge.net/DTD/sodipodi-0.dtd"
   xmlns="http://www.w3.org/2000/svg"
   xmlns:svg="http://www.w3.org/2000/svg">
  <sodipodi:namedview
     id="namedview19800"
     pagecolor="#ffffff"
     bordercolor="#000000"
     borderopacity="0.25"
     inkscape:showpageshadow="2"
     inkscape:pageopacity="0.0"
     inkscape:pagecheckerboard="0"
     inkscape:deskcolor="#d1d1d1"
     inkscape:document-units="mm"
     showgrid="false"
     inkscape:zoom="0.32576922"
     inkscape:cx="-191.85361"
     inkscape:cy="538.72493"
     inkscape:window-width="1920"
     inkscape:window-height="1028"
     inkscape:window-x="-6"
     inkscape:window-y="-6"
     inkscape:window-maximized="1"
     inkscape:current-layer="svg1653" />
  <defs
     id="defs1650" />
  <g
     id="g24138"
     transform="matrix(7.8575058,0,0,7.596486,-3.9482538,-0.54826425)"
     style="stroke-width:0.129435;stroke-dasharray:none">
    <g
       id="layer1"
       transform="matrix(0.08484789,0,0,0.09996688,-1.0277946,-12.595415)"
       style="stroke-width:1.40542;stroke-dasharray:none">
      <polyline
         points="396.527,459.71 392.545,457.055 "
         id="polyline458"
         style="fill:none;stroke:#000000;stroke-width:0.142199;stroke-miterlimit:4;stroke-dasharray:none"
         transform="matrix(9.8991469,0,0,9.8676666,-3717.8311,-4277.8587)" />
      <polyline
         points="392.545,457.055 388.563,459.71 "
         id="polyline460"
         style="fill:none;stroke:#000000;stroke-width:0.142199;stroke-miterlimit:4;stroke-dasharray:none"
         transform="matrix(9.8991469,0,0,9.8676666,-3717.8311,-4277.8587)" />
      <polyline
         points="388.563,459.71 392.545,462.364 "
         id="polyline462"
         style="fill:none;stroke:#000000;stroke-width:0.142199;stroke-miterlimit:4;stroke-dasharray:none"
         transform="matrix(9.8991469,0,0,9.8676666,-3717.8311,-4277.8587)" />
      <polyline
         points="392.545,462.364 396.527,459.71 "
         id="polyline464"
         style="fill:none;stroke:#000000;stroke-width:0.142199;stroke-miterlimit:4;stroke-dasharray:none"
         transform="matrix(9.8991469,0,0,9.8676666,-3717.8311,-4277.8587)" />
      <polyline
         points="392.545,462.364 392.545,470.328 "
         id="polyline466"
         style="fill:none;stroke:#000000;stroke-width:0.142199;stroke-miterlimit:4;stroke-dasharray:none"
         transform="matrix(9.8991469,0,0,9.8676666,-3717.8311,-4277.8587)" />
      <polyline
         points="392.545,457.055 392.545,449.091 "
         id="polyline468"
         style="fill:none;stroke:#000000;stroke-width:0.142199;stroke-miterlimit:4;stroke-dasharray:none"
         transform="matrix(9.8991469,0,0,9.8676666,-3717.8311,-4277.8587)" />
      <polyline
         points="388.563,470.328 396.527,470.328 "
         id="polyline470"
         style="fill:none;stroke:#000000;stroke-width:0.142199;stroke-miterlimit:4;stroke-dasharray:none"
         transform="matrix(9.8991469,0,0,9.8676666,-3717.8311,-4277.8587)" />
      <polyline
         points="396.527,446.437 396.527,472.982 "
         id="polyline472"
         style="fill:none;stroke:#000000;stroke-width:0.142199;stroke-miterlimit:4;stroke-dasharray:none"
         transform="matrix(9.8991469,0,0,9.8676666,-3717.8311,-4277.8587)" />
      <polyline
         points="388.563,449.091 396.527,449.091 "
         id="polyline474"
         style="fill:none;stroke:#000000;stroke-width:0.142199;stroke-miterlimit:4;stroke-dasharray:none"
         transform="matrix(9.8991469,0,0,9.8676666,-3717.8311,-4277.8587)" />
      <path
         id="polyline480"
         style="fill:none;stroke:#000000;stroke-width:1.40542;stroke-dasharray:none"
         d="m 102.33897,127.43253 v 261.9375 h 131.38136 v -261.9375 z" />
      <polyline
         points="388.563,446.437 388.563,472.982 "
         id="polyline484"
         style="fill:none;stroke:#000000;stroke-width:0.142199;stroke-miterlimit:4;stroke-dasharray:none"
         transform="matrix(9.8991469,0,0,9.8676666,-3717.8311,-4277.8587)" />
    </g>
  </g>
</svg>
