<svg width="803" height="258" xmlns="http://www.w3.org/2000/svg" xmlns:xlink="http://www.w3.org/1999/xlink" overflow="hidden"><defs><clipPath id="clip0"><path d="M207 247 1010 247 1010 505 207 505Z" fill-rule="evenodd" clip-rule="evenodd"/></clipPath></defs><g clip-path="url(#clip0)" transform="translate(-207 -247)"><path d="M348 319 866.4 319" stroke="#000000" stroke-width="2" stroke-miterlimit="8" fill="none" fill-rule="evenodd"/><path d="M639 312 658 319 639 326Z" fill-rule="evenodd"/><rect x="459.5" y="263.5" width="302" height="240" stroke="#0000FF" stroke-width="3" stroke-miterlimit="8" stroke-dasharray="3 3" fill="none"/><text fill="#0000FF" font-family="Times New Roman,Times New Roman_MSFontService,sans-serif" font-weight="700" font-size="16" transform="translate(390.921 300)">port_a1<tspan x="-0.833344" y="166">port_b2</tspan><tspan x="387.201" y="0">port_b1</tspan><tspan x="387.201" y="166">port_a2</tspan></text><rect x="481" y="248" width="259" height="29" fill="#FFFFFF"/><text fill="#0000FF" font-family="Times New Roman,Times New Roman_MSFontService,sans-serif" font-weight="700" font-size="16" transform="translate(495.402 268)">ENERGY TRANSFER STATION</text><path d="M347 442 865.4 442" stroke="#000000" stroke-width="2" stroke-miterlimit="8" fill="none" fill-rule="evenodd"/><path d="M658 449 639 441.5 658 434Z" fill-rule="evenodd"/><path d="M449 441.5C449 436.253 453.253 432 458.5 432 463.747 432 468 436.253 468 441.5 468 446.747 463.747 451 458.5 451 453.253 451 449 446.747 449 441.5Z" stroke="#0000FF" stroke-width="2" stroke-miterlimit="8" fill="#FFFFFF" fill-rule="evenodd"/><path d="M449 318.5C449 313.253 453.253 309 458.5 309 463.747 309 468 313.253 468 318.5 468 323.747 463.747 328 458.5 328 453.253 328 449 323.747 449 318.5Z" stroke="#0000FF" stroke-width="2" stroke-miterlimit="8" fill="#0000FF" fill-rule="evenodd"/><path d="M352 333C347.582 333 344 329.642 344 325.5 344 322.668 345.702 320.077 348.399 318.803" stroke="#000000" stroke-width="2" stroke-miterlimit="8" fill="none" fill-rule="evenodd"/><path d="M344 304C348.418 304 352 307.582 352 312 352 315.153 350.148 318.013 347.27 319.301" stroke="#000000" stroke-width="2" stroke-miterlimit="8" fill="none" fill-rule="evenodd"/><path d="M352 456C347.582 456 344 452.642 344 448.5 344 445.668 345.702 443.077 348.399 441.803" stroke="#000000" stroke-width="2" stroke-miterlimit="8" fill="none" fill-rule="evenodd"/><path d="M344 427C348.418 427 352 430.582 352 435 352 438.153 350.148 441.013 347.27 442.301" stroke="#000000" stroke-width="2" stroke-miterlimit="8" fill="none" fill-rule="evenodd"/><path d="M871.5 333C867.358 333 864 329.642 864 325.5 864 322.739 865.517 320.202 867.948 318.894" stroke="#000000" stroke-width="2" stroke-miterlimit="8" fill="none" fill-rule="evenodd"/><path d="M863.5 304C867.642 304 871 307.582 871 312 871 315.082 869.34 317.89 866.733 319.219" stroke="#000000" stroke-width="2" stroke-miterlimit="8" fill="none" fill-rule="evenodd"/><path d="M871.5 456C867.358 456 864 452.642 864 448.5 864 445.739 865.517 443.202 867.948 441.894" stroke="#000000" stroke-width="2" stroke-miterlimit="8" fill="none" fill-rule="evenodd"/><path d="M863.5 427C867.642 427 871 430.582 871 435 871 438.082 869.34 440.89 866.733 442.219" stroke="#000000" stroke-width="2" stroke-miterlimit="8" fill="none" fill-rule="evenodd"/><text font-family="Times New Roman,Times New Roman_MSFontService,sans-serif" font-weight="700" font-size="16" transform="translate(231.535 447)">District Return<tspan x="1" y="-123">District Supply</tspan><tspan x="649.274" y="0">Building Return</tspan><tspan x="649.274" y="-123">Building Supply</tspan></text><rect x="486" y="304" width="67" height="29" stroke="#000000" stroke-width="2" stroke-linejoin="round" stroke-miterlimit="10" fill="#FFFFFF"/><text font-family="Times New Roman,Times New Roman_MSFontService,sans-serif" font-weight="700" font-size="16" transform="translate(498.486 324)">Meter</text><path d="M751 318.5C751 313.253 755.477 309 761 309 766.523 309 771 313.253 771 318.5 771 323.747 766.523 328 761 328 755.477 328 751 323.747 751 318.5Z" stroke="#0000FF" stroke-width="2" stroke-miterlimit="8" fill="#FFFFFF" fill-rule="evenodd"/><path d="M751 441.5C751 436.253 755.477 432 761 432 766.523 432 771 436.253 771 441.5 771 446.747 766.523 451 761 451 755.477 451 751 446.747 751 441.5Z" stroke="#0000FF" stroke-width="2" stroke-miterlimit="8" fill="#0000FF" fill-rule="evenodd"/></g></svg>