<?xml version="1.0" encoding="UTF-8" standalone="no"?>
<!-- Created with Inkscape (http://www.inkscape.org/) -->

<svg
   width="115mm"
   height="60mm"
   viewBox="0 0 115 60"
   version="1.1"
   id="svg1"
   inkscape:version="1.4.2 (f4327f4, 2025-05-13)"
   sodipodi:docname="IndirectWetEvaporativeCooler.svg"
   xmlns:inkscape="http://www.inkscape.org/namespaces/inkscape"
   xmlns:sodipodi="http://sodipodi.sourceforge.net/DTD/sodipodi-0.dtd"
   xmlns="http://www.w3.org/2000/svg"
   xmlns:svg="http://www.w3.org/2000/svg">
  <sodipodi:namedview
     id="namedview1"
     pagecolor="#ffffff"
     bordercolor="#000000"
     borderopacity="0.25"
     inkscape:showpageshadow="2"
     inkscape:pageopacity="0.0"
     inkscape:pagecheckerboard="0"
     inkscape:deskcolor="#d1d1d1"
     inkscape:document-units="mm"
     inkscape:zoom="1.9452182"
     inkscape:cx="165.02005"
     inkscape:cy="154.22434"
     inkscape:window-width="1920"
     inkscape:window-height="1076"
     inkscape:window-x="-12"
     inkscape:window-y="-12"
     inkscape:window-maximized="1"
     inkscape:current-layer="layer1"
     showgrid="false" />
  <defs
     id="defs1">
    <inkscape:path-effect
       effect="bspline"
       id="path-effect12"
       is_visible="true"
       lpeversion="1.3"
       weight="33.333333"
       steps="2"
       helper_size="0"
       apply_no_weight="true"
       apply_with_weight="true"
       only_selected="false"
       uniform="false" />
    <inkscape:path-effect
       effect="spiro"
       id="path-effect11"
       is_visible="true"
       lpeversion="1" />
    <inkscape:path-effect
       effect="bspline"
       id="path-effect10"
       is_visible="true"
       lpeversion="1.3"
       weight="33.333333"
       steps="2"
       helper_size="0"
       apply_no_weight="true"
       apply_with_weight="true"
       only_selected="false"
       uniform="false" />
    <rect
       x="30.534863"
       y="193.75098"
       width="77.064178"
       height="16.357962"
       id="rect9" />
    <marker
       style="overflow:visible"
       id="ConcaveTriangle"
       refX="0"
       refY="0"
       orient="auto-start-reverse"
       inkscape:stockid="Concave triangle arrow"
       markerWidth="1"
       markerHeight="1"
       viewBox="0 0 1 1"
       inkscape:isstock="true"
       inkscape:collect="always"
       preserveAspectRatio="xMidYMid">
      <path
         transform="scale(0.7)"
         d="M -2,-4 9,0 -2,4 c 2,-2.33 2,-5.66 0,-8 z"
         style="fill:context-stroke;fill-rule:evenodd;stroke:none"
         id="path7" />
    </marker>
    <symbol
       id="sjjb-worship.svg:jain"
       viewBox="0 0 202.33357 534.1875">
      <title
         id="title22">Jain</title>
      <path
         opacity="0.25"
         d="M 10.06793,355.2005 H 178.98852 V 524.12109 H 10.06793 Z"
         id="path23" />
      <path
         d="M 95.73242,0 C 86.01393,0 82.22941,1.181635 77.2832,5.765625 c -3.42241,3.17179 -6.22265,7.835778 -6.22265,10.363281 0,3.385348 -1.19846,4.282387 -4.54883,3.40625 -6.67971,-1.746796 -20.77116,3.579815 -24.83985,9.388672 -2.5169,3.593397 -3.53515,11.210173 -3.53515,26.455078 v 21.41211 l -6.80274,-1 C 21.64717,74.369291 7.89645,81.505173 5.77539,89.054687 4.81934,92.457577 4.26085,133.34041 4.03711,179.90235 c -0.21083,43.87791 -0.56287,53.32898 0.51758,77.9375 0.30715,6.99602 5.88476,20.38281 5.88476,20.38281 6.81126,14.53752 27.15367,36.40537 40.13672,43.14648 4.15297,2.15631 12.31243,5.31123 18.13281,7.00977 17.20811,5.0218 46.84008,2.6512 62.47461,-4.99805 17.47125,-8.54789 34.24672,-25.8644 43.75586,-45.16601 0,0 5.0105,-10.75082 7.3086,-28.55274 2.29807,-17.80192 1.88476,-42.65429 1.88476,-42.65429 1.43139,-57.90077 2.7583,-66.25988 12.90039,-81.20508 3.28415,-4.83948 5.65026,-11.00755 5.25781,-13.70703 -1.30248,-8.95931 -36.635,-16.509643 -48.20312,-4.49024 -0.96588,-3.75468 -0.64197,-14.220393 -1.23438,-31.291017 -1.01214,-29.607254 -0.73431,-30.013972 -7.1289,-34.783203 -3.94464,-2.942009 -10.36664,-4.919169 -16.46094,-5.066406 l -9.99414,-0.242188 -1.18359,-13.169921 C 116.46157,4.991708 111.62128,4.0000001e-6 95.73242,4.0000001e-6 Z m 1.11133,16.648438 c 6.83142,0.02674 7.14062,11.908832 7.14062,75.353519 v 70.263673 h 7.05469 7.05469 v -51.57031 c 0,-43.745126 0.56049,-52.128857 3.69531,-55.263679 2.03251,-2.032524 5.60729,-3.695313 7.94336,-3.695313 9.27103,0 9.88782,4.380388 9.32031,66.291022 l -0.54687,59.52343 h 6.84375 6.84375 l 1.17773,-22.74023 c 1.01697,-19.64829 1.92117,-23.53421 6.65235,-28.57031 5.5272,-5.88341 16.86133,-9.82492 16.86133,-5.86328 -1e-5,1.17831 -1.78846,5.53053 -3.97657,9.66992 -3.28115,6.20716 -4.24672,17.62211 -5.50195,65.14062 -1.25974,47.68956 -2.25436,59.43991 -5.78125,68.19922 -8.22515,20.42775 -22.05462,35.30925 -40.6582,43.75196 -33.18734,15.06109 -74.31776,-0.32685 -92.63282,-34.6543 -5.40489,-10.13026 -5.49274,-11.45447 -6.18164,-94.3457 l -0.69922,-84.072273 5.40235,0.0352 c 10.55276,0.0704 11.11843,1.92933 11.80469,38.865233 l 0.65234,35.17773 6.4668,0.74415 c 7.41608,0.85333 7.0592,2.37172 6.48828,-27.52735 -0.2319,-12.14371 0.33464,-40.36458 1.25976,-62.712892 1.47682,-35.674865 2.1782,-40.762265 5.7461,-41.695313 2.23512,-0.584484 5.80194,-0.0909 7.92578,1.097656 3.42314,1.915693 3.86133,8.955359 3.86133,62.011719 v 59.85157 h 8.23046 8.23047 V 89.521527 c 0,-68.876036 0.1039,-70.424239 4.81641,-71.919924 1.75195,-0.556049 3.24078,-0.958078 4.50586,-0.953125 z M 91.9082,177.89649 c -16.4182,-0.0872 -32.36588,7.23217 -42.89843,19.95898 -15.88788,17.59337 -19.02859,44.49441 -10.65626,66.21875 6.07802,13.65035 18.08436,24.23676 30.92969,31.4082 14.51904,7.11613 32.19002,5.36785 46.78907,-0.0332 15.68133,-7.03907 27.45241,-21.63312 33.68554,-37.2832 5.33529,-17.17517 6.7013,-37.70087 -3.43554,-53.49805 -11.54666,-16.33753 -30.94935,-27.17829 -51.125,-26.65625 -1.09726,-0.0722 -2.19452,-0.10942 -3.28907,-0.11523 z M 10.06836,345.13282 A 10.068976,10.068976 0 0 0 0,355.19922 V 524.1211 a 10.068976,10.068976 0 0 0 10.06836,10.0664 h 168.92187 a 10.068976,10.068976 0 0 0 10.06641,-10.0664 V 355.19922 a 10.068976,10.068976 0 0 0 -10.06641,-10.0664 z m 10.06836,20.13476 H 168.92187 V 514.05274 H 20.13672 Z"
         id="path24" />
    </symbol>
    <symbol
       id="AigaSymbols.svg:RightArrow">
      <title
         id="title272">Right Arrow</title>
      <path
         d="M 63,36 41,58 H 26 L 42,42 H 10 V 30 H 42 L 26,14 h 15 z"
         style="stroke:none"
         id="path272" />
    </symbol>
    <marker
       style="overflow:visible"
       id="marker5-3"
       refX="0"
       refY="0"
       orient="auto-start-reverse"
       inkscape:stockid="Concave triangle arrow"
       markerWidth="1"
       markerHeight="1"
       viewBox="0 0 1 1"
       inkscape:isstock="true"
       inkscape:collect="always"
       preserveAspectRatio="xMidYMid">
      <path
         transform="scale(0.7)"
         d="M -2,-4 9,0 -2,4 c 2,-2.33 2,-5.66 0,-8 z"
         style="fill:context-stroke;fill-rule:evenodd;stroke:none"
         id="path5-8" />
    </marker>
    <marker
       style="overflow:visible"
       id="marker5-9"
       refX="0"
       refY="0"
       orient="auto-start-reverse"
       inkscape:stockid="Concave triangle arrow"
       markerWidth="1"
       markerHeight="1"
       viewBox="0 0 1 1"
       inkscape:isstock="true"
       inkscape:collect="always"
       preserveAspectRatio="xMidYMid">
      <path
         transform="scale(0.7)"
         d="M -2,-4 9,0 -2,4 c 2,-2.33 2,-5.66 0,-8 z"
         style="fill:context-stroke;fill-rule:evenodd;stroke:none"
         id="path5-3" />
    </marker>
    <marker
       style="overflow:visible"
       id="marker5-0"
       refX="0"
       refY="0"
       orient="auto-start-reverse"
       inkscape:stockid="Concave triangle arrow"
       markerWidth="1"
       markerHeight="1"
       viewBox="0 0 1 1"
       inkscape:isstock="true"
       inkscape:collect="always"
       preserveAspectRatio="xMidYMid">
      <path
         transform="scale(0.7)"
         d="M -2,-4 9,0 -2,4 c 2,-2.33 2,-5.66 0,-8 z"
         style="fill:context-stroke;fill-rule:evenodd;stroke:none"
         id="path5-28" />
    </marker>
    <marker
       style="overflow:visible"
       id="marker5-5"
       refX="0"
       refY="0"
       orient="auto-start-reverse"
       inkscape:stockid="Concave triangle arrow"
       markerWidth="1"
       markerHeight="1"
       viewBox="0 0 1 1"
       inkscape:isstock="true"
       inkscape:collect="always"
       preserveAspectRatio="xMidYMid">
      <path
         transform="scale(0.7)"
         d="M -2,-4 9,0 -2,4 c 2,-2.33 2,-5.66 0,-8 z"
         style="fill:context-stroke;fill-rule:evenodd;stroke:none"
         id="path5-0" />
    </marker>
    <rect
       x="30.534863"
       y="193.75098"
       width="77.064178"
       height="16.357962"
       id="rect9-0" />
    <rect
       x="30.534863"
       y="193.75098"
       width="162.2487"
       height="17.814362"
       id="rect9-0-9" />
    <rect
       x="30.534863"
       y="193.75098"
       width="180.02634"
       height="19.27076"
       id="rect9-0-9-2" />
    <marker
       style="overflow:visible"
       id="marker5-5-3"
       refX="0"
       refY="0"
       orient="auto-start-reverse"
       inkscape:stockid="Concave triangle arrow"
       markerWidth="1"
       markerHeight="1"
       viewBox="0 0 1 1"
       inkscape:isstock="true"
       inkscape:collect="always"
       preserveAspectRatio="xMidYMid">
      <path
         transform="scale(0.7)"
         d="M -2,-4 9,0 -2,4 c 2,-2.33 2,-5.66 0,-8 z"
         style="fill:context-stroke;fill-rule:evenodd;stroke:none"
         id="path5-0-1" />
    </marker>
    <rect
       x="30.534863"
       y="193.75098"
       width="232.95779"
       height="17.631569"
       id="rect9-0-9-2-2" />
    <marker
       style="overflow:visible"
       id="marker5-5-3-4"
       refX="0"
       refY="0"
       orient="auto-start-reverse"
       inkscape:stockid="Concave triangle arrow"
       markerWidth="1"
       markerHeight="1"
       viewBox="0 0 1 1"
       inkscape:isstock="true"
       inkscape:collect="always"
       preserveAspectRatio="xMidYMid">
      <path
         transform="scale(0.7)"
         d="M -2,-4 9,0 -2,4 c 2,-2.33 2,-5.66 0,-8 z"
         style="fill:context-stroke;fill-rule:evenodd;stroke:none"
         id="path5-0-1-6" />
    </marker>
    <marker
       style="overflow:visible"
       id="marker5-5-3-4-4"
       refX="0"
       refY="0"
       orient="auto-start-reverse"
       inkscape:stockid="Concave triangle arrow"
       markerWidth="1"
       markerHeight="1"
       viewBox="0 0 1 1"
       inkscape:isstock="true"
       inkscape:collect="always"
       preserveAspectRatio="xMidYMid">
      <path
         transform="scale(0.7)"
         d="M -2,-4 9,0 -2,4 c 2,-2.33 2,-5.66 0,-8 z"
         style="fill:context-stroke;fill-rule:evenodd;stroke:none"
         id="path5-0-1-6-9" />
    </marker>
    <marker
       style="overflow:visible"
       id="marker5-9-61"
       refX="0"
       refY="0"
       orient="auto-start-reverse"
       inkscape:stockid="Concave triangle arrow"
       markerWidth="1"
       markerHeight="1"
       viewBox="0 0 1 1"
       inkscape:isstock="true"
       inkscape:collect="always"
       preserveAspectRatio="xMidYMid">
      <path
         transform="scale(0.7)"
         d="M -2,-4 9,0 -2,4 c 2,-2.33 2,-5.66 0,-8 z"
         style="fill:context-stroke;fill-rule:evenodd;stroke:none"
         id="path5-3-5" />
    </marker>
    <marker
       style="overflow:visible"
       id="marker5-9-61-3"
       refX="0"
       refY="0"
       orient="auto-start-reverse"
       inkscape:stockid="Concave triangle arrow"
       markerWidth="1"
       markerHeight="1"
       viewBox="0 0 1 1"
       inkscape:isstock="true"
       inkscape:collect="always"
       preserveAspectRatio="xMidYMid">
      <path
         transform="scale(0.7)"
         d="M -2,-4 9,0 -2,4 c 2,-2.33 2,-5.66 0,-8 z"
         style="fill:context-stroke;fill-rule:evenodd;stroke:none"
         id="path5-3-5-7" />
    </marker>
    <marker
       style="overflow:visible"
       id="marker5-9-5"
       refX="0"
       refY="0"
       orient="auto-start-reverse"
       inkscape:stockid="Concave triangle arrow"
       markerWidth="1"
       markerHeight="1"
       viewBox="0 0 1 1"
       inkscape:isstock="true"
       inkscape:collect="always"
       preserveAspectRatio="xMidYMid">
      <path
         transform="scale(0.7)"
         d="M -2,-4 9,0 -2,4 c 2,-2.33 2,-5.66 0,-8 z"
         style="fill:context-stroke;fill-rule:evenodd;stroke:none"
         id="path5-3-7" />
    </marker>
    <marker
       style="overflow:visible"
       id="marker5-9-61-5"
       refX="0"
       refY="0"
       orient="auto-start-reverse"
       inkscape:stockid="Concave triangle arrow"
       markerWidth="1"
       markerHeight="1"
       viewBox="0 0 1 1"
       inkscape:isstock="true"
       inkscape:collect="always"
       preserveAspectRatio="xMidYMid">
      <path
         transform="scale(0.7)"
         d="M -2,-4 9,0 -2,4 c 2,-2.33 2,-5.66 0,-8 z"
         style="fill:context-stroke;fill-rule:evenodd;stroke:none"
         id="path5-3-5-4" />
    </marker>
    <marker
       style="overflow:visible"
       id="marker5-9-61-3-1"
       refX="0"
       refY="0"
       orient="auto-start-reverse"
       inkscape:stockid="Concave triangle arrow"
       markerWidth="1"
       markerHeight="1"
       viewBox="0 0 1 1"
       inkscape:isstock="true"
       inkscape:collect="always"
       preserveAspectRatio="xMidYMid">
      <path
         transform="scale(0.7)"
         d="M -2,-4 9,0 -2,4 c 2,-2.33 2,-5.66 0,-8 z"
         style="fill:context-stroke;fill-rule:evenodd;stroke:none"
         id="path5-3-5-7-2" />
    </marker>
    <marker
       style="overflow:visible"
       id="marker5-9-7"
       refX="0"
       refY="0"
       orient="auto-start-reverse"
       inkscape:stockid="Concave triangle arrow"
       markerWidth="1"
       markerHeight="1"
       viewBox="0 0 1 1"
       inkscape:isstock="true"
       inkscape:collect="always"
       preserveAspectRatio="xMidYMid">
      <path
         transform="scale(0.7)"
         d="M -2,-4 9,0 -2,4 c 2,-2.33 2,-5.66 0,-8 z"
         style="fill:context-stroke;fill-rule:evenodd;stroke:none"
         id="path5-3-77" />
    </marker>
    <marker
       style="overflow:visible"
       id="marker5-9-61-7"
       refX="0"
       refY="0"
       orient="auto-start-reverse"
       inkscape:stockid="Concave triangle arrow"
       markerWidth="1"
       markerHeight="1"
       viewBox="0 0 1 1"
       inkscape:isstock="true"
       inkscape:collect="always"
       preserveAspectRatio="xMidYMid">
      <path
         transform="scale(0.7)"
         d="M -2,-4 9,0 -2,4 c 2,-2.33 2,-5.66 0,-8 z"
         style="fill:context-stroke;fill-rule:evenodd;stroke:none"
         id="path5-3-5-3" />
    </marker>
    <marker
       style="overflow:visible"
       id="marker5-9-61-3-3"
       refX="0"
       refY="0"
       orient="auto-start-reverse"
       inkscape:stockid="Concave triangle arrow"
       markerWidth="1"
       markerHeight="1"
       viewBox="0 0 1 1"
       inkscape:isstock="true"
       inkscape:collect="always"
       preserveAspectRatio="xMidYMid">
      <path
         transform="scale(0.7)"
         d="M -2,-4 9,0 -2,4 c 2,-2.33 2,-5.66 0,-8 z"
         style="fill:context-stroke;fill-rule:evenodd;stroke:none"
         id="path5-3-5-7-5" />
    </marker>
    <marker
       style="overflow:visible"
       id="marker5-3-0"
       refX="0"
       refY="0"
       orient="auto-start-reverse"
       inkscape:stockid="Concave triangle arrow"
       markerWidth="1"
       markerHeight="1"
       viewBox="0 0 1 1"
       inkscape:isstock="true"
       inkscape:collect="always"
       preserveAspectRatio="xMidYMid">
      <path
         transform="scale(0.7)"
         d="M -2,-4 9,0 -2,4 c 2,-2.33 2,-5.66 0,-8 z"
         style="fill:context-stroke;fill-rule:evenodd;stroke:none"
         id="path5-8-3" />
    </marker>
    <marker
       style="overflow:visible"
       id="marker5-3-0-0"
       refX="0"
       refY="0"
       orient="auto-start-reverse"
       inkscape:stockid="Concave triangle arrow"
       markerWidth="1"
       markerHeight="1"
       viewBox="0 0 1 1"
       inkscape:isstock="true"
       inkscape:collect="always"
       preserveAspectRatio="xMidYMid">
      <path
         transform="scale(0.7)"
         d="M -2,-4 9,0 -2,4 c 2,-2.33 2,-5.66 0,-8 z"
         style="fill:context-stroke;fill-rule:evenodd;stroke:none"
         id="path5-8-3-9" />
    </marker>
    <marker
       style="overflow:visible"
       id="marker5-3-0-0-1"
       refX="0"
       refY="0"
       orient="auto-start-reverse"
       inkscape:stockid="Concave triangle arrow"
       markerWidth="1"
       markerHeight="1"
       viewBox="0 0 1 1"
       inkscape:isstock="true"
       inkscape:collect="always"
       preserveAspectRatio="xMidYMid">
      <path
         transform="scale(0.7)"
         d="M -2,-4 9,0 -2,4 c 2,-2.33 2,-5.66 0,-8 z"
         style="fill:context-stroke;fill-rule:evenodd;stroke:none"
         id="path5-8-3-9-2" />
    </marker>
    <marker
       style="overflow:visible"
       id="marker5-3-0-0-1-6"
       refX="0"
       refY="0"
       orient="auto-start-reverse"
       inkscape:stockid="Concave triangle arrow"
       markerWidth="1"
       markerHeight="1"
       viewBox="0 0 1 1"
       inkscape:isstock="true"
       inkscape:collect="always"
       preserveAspectRatio="xMidYMid">
      <path
         transform="scale(0.7)"
         d="M -2,-4 9,0 -2,4 c 2,-2.33 2,-5.66 0,-8 z"
         style="fill:context-stroke;fill-rule:evenodd;stroke:none"
         id="path5-8-3-9-2-1" />
    </marker>
    <marker
       style="overflow:visible"
       id="marker5-3-0-0-1-4"
       refX="0"
       refY="0"
       orient="auto-start-reverse"
       inkscape:stockid="Concave triangle arrow"
       markerWidth="1"
       markerHeight="1"
       viewBox="0 0 1 1"
       inkscape:isstock="true"
       inkscape:collect="always"
       preserveAspectRatio="xMidYMid">
      <path
         transform="scale(0.7)"
         d="M -2,-4 9,0 -2,4 c 2,-2.33 2,-5.66 0,-8 z"
         style="fill:context-stroke;fill-rule:evenodd;stroke:none"
         id="path5-8-3-9-2-3" />
    </marker>
    <marker
       style="overflow:visible"
       id="marker5-3-0-0-1-6-7"
       refX="0"
       refY="0"
       orient="auto-start-reverse"
       inkscape:stockid="Concave triangle arrow"
       markerWidth="1"
       markerHeight="1"
       viewBox="0 0 1 1"
       inkscape:isstock="true"
       inkscape:collect="always"
       preserveAspectRatio="xMidYMid">
      <path
         transform="scale(0.7)"
         d="M -2,-4 9,0 -2,4 c 2,-2.33 2,-5.66 0,-8 z"
         style="fill:context-stroke;fill-rule:evenodd;stroke:none"
         id="path5-8-3-9-2-1-8" />
    </marker>
    <marker
       style="overflow:visible"
       id="marker5-3-0-0-1-6-0"
       refX="0"
       refY="0"
       orient="auto-start-reverse"
       inkscape:stockid="Concave triangle arrow"
       markerWidth="1"
       markerHeight="1"
       viewBox="0 0 1 1"
       inkscape:isstock="true"
       inkscape:collect="always"
       preserveAspectRatio="xMidYMid">
      <path
         transform="scale(0.7)"
         d="M -2,-4 9,0 -2,4 c 2,-2.33 2,-5.66 0,-8 z"
         style="fill:context-stroke;fill-rule:evenodd;stroke:none"
         id="path5-8-3-9-2-1-7" />
    </marker>
  </defs>
  <g
     inkscape:label="Layer 1"
     inkscape:groupmode="layer"
     id="layer1"
     style="display:inline">
    <g
       id="g1"
       transform="rotate(-90,64.864696,84.731212)">
      <path
         style="display:inline;fill:#000000;stroke:#000000;stroke-width:0.25;stroke-linecap:round;stroke-dasharray:none"
         d="m 108.48129,43.550396 c 14.6039,0 14.6039,0 14.6039,0"
         id="path8-8" />
      <path
         style="display:inline;fill:#000000;stroke:#000000;stroke-width:0.25;stroke-linecap:round;stroke-dasharray:none"
         d="m 108.48129,51.439263 c 14.6039,0 14.6039,0 14.6039,0"
         id="path8-8-5" />
      <path
         style="display:inline;fill:#000000;stroke:#000000;stroke-width:0.25;stroke-linecap:round;stroke-dasharray:none"
         d="m 108.48129,53.915952 c 14.6039,0 14.6039,0 14.6039,0"
         id="path8-8-5-3" />
      <path
         style="display:inline;fill:#000000;stroke:#000000;stroke-width:0.25;stroke-linecap:round;stroke-dasharray:none"
         d="m 108.48129,59.254791 c 14.6039,0 14.6039,0 14.6039,0"
         id="path8-8-5-3-3" />
      <path
         style="display:inline;fill:#000000;stroke:#000000;stroke-width:0.25;stroke-linecap:round;stroke-dasharray:none"
         d="m 108.48129,61.804261 c 14.6039,0 14.6039,0 14.6039,0"
         id="path8-8-5-3-7" />
      <path
         style="display:inline;fill:#000000;stroke:#000000;stroke-width:0.25;stroke-linecap:round;stroke-dasharray:none"
         d="m 108.48129,46.243035 c 14.6039,0 14.6039,0 14.6039,0"
         id="path8" />
      <rect
         style="display:inline;fill:#ffffff;fill-opacity:0.799618;stroke:#000000;stroke-width:0.261458;stroke-dasharray:none"
         id="rect2-8"
         width="2.1346517"
         height="32.419632"
         x="110.35287"
         y="36.98637" />
      <rect
         style="display:inline;fill:#ffffff;fill-opacity:0.803435;stroke:#000000;stroke-width:0.261458;stroke-dasharray:none"
         id="rect2-8-1"
         width="2.1346517"
         height="32.419632"
         x="112.47055"
         y="36.98637" />
      <rect
         style="display:inline;fill:#ffffff;fill-opacity:0.799618;stroke:#000000;stroke-width:0.261458;stroke-dasharray:none"
         id="rect2-8-2"
         width="2.1346517"
         height="32.419632"
         x="114.63402"
         y="36.98637" />
      <rect
         style="display:inline;fill:#ffffff;fill-opacity:0.803435;stroke:#000000;stroke-width:0.261458;stroke-dasharray:none"
         id="rect2-8-23"
         width="2.1346517"
         height="32.419632"
         x="116.72747"
         y="36.98637" />
      <rect
         style="display:inline;fill:#ffffff;fill-opacity:0.799618;stroke:#000000;stroke-width:0.261458;stroke-dasharray:none"
         id="rect2-8-8"
         width="2.1346517"
         height="32.419632"
         x="118.86919"
         y="36.986374" />
    </g>
    <path
       style="fill:#ffffff;stroke:#000000;stroke-width:0.527689"
       d="M 20.135262,53.95485 V 4.868821"
       id="path2" />
    <path
       style="display:inline;fill:#ffffff;stroke:#000000;stroke-width:0.52842"
       d="M 46.542571,53.95485 V 4.732809"
       id="path2-1" />
    <path
       style="display:inline;fill:#ffffff;stroke:#000000;stroke-width:0.2;stroke-dasharray:none;marker-end:url(#marker5-3)"
       d="M 25.034153,57.064441 V 48.197883"
       id="path4-2" />
    <path
       style="display:inline;fill:#ffffff;stroke:#000000;stroke-width:0.2;stroke-dasharray:none;marker-end:url(#marker5-3-0)"
       d="M 40.685049,57.064439 V 48.197883"
       id="path4-2-1" />
    <path
       style="display:inline;fill:#ffffff;stroke:#000000;stroke-width:0.2;stroke-dasharray:none;marker-end:url(#marker5-3-0-0)"
       d="M 25.034154,26.068984 V 17.202427"
       id="path4-2-1-8" />
    <path
       style="display:inline;fill:#ffffff;stroke:#000000;stroke-width:0.2;stroke-dasharray:none;marker-end:url(#marker5-3-0-0-1)"
       d="M 40.685048,26.068984 V 17.202427"
       id="path4-2-1-8-6" />
    <path
       style="display:inline;fill:#ffffff;stroke:#000000;stroke-width:0.2;stroke-dasharray:none;marker-end:url(#marker5-3-0-0-1-6)"
       d="M 25.034154,12.240803 V 3.3742499"
       id="path4-2-1-8-6-8" />
    <path
       style="display:inline;fill:#ffffff;stroke:#000000;stroke-width:0.2;stroke-dasharray:none;marker-end:url(#marker5-3-0-0-1-6-7)"
       d="M 32.789001,12.240803 V 3.3742499"
       id="path4-2-1-8-6-8-3" />
    <path
       style="display:inline;fill:#ffffff;stroke:#000000;stroke-width:0.2;stroke-dasharray:none;marker-end:url(#marker5-3-0-0-1-6-0)"
       d="M 32.789001,57.064441 V 48.197882"
       id="path4-2-1-8-6-8-9" />
    <path
       style="display:inline;fill:#ffffff;stroke:#000000;stroke-width:0.2;stroke-dasharray:none;marker-end:url(#marker5-3-0-0-1-4)"
       d="M 40.685048,12.240803 V 3.3742499"
       id="path4-2-1-8-6-80" />
    <path
       style="display:inline;fill:#ffffff;stroke:#000000;stroke-width:0.2;stroke-dasharray:none;marker-end:url(#marker5-0)"
       d="m 63.555097,7.4751465 h 8.866502"
       id="path4-24" />
    <path
       style="display:inline;fill:#ffffff;stroke:#000000;stroke-width:0.2;stroke-dasharray:0.4, 0.2;stroke-dashoffset:0;marker-end:url(#marker5-5)"
       d="m 63.507187,11.251905 h 8.866502"
       id="path4-0" />
    <path
       style="display:inline;fill:#ffffff;stroke:#000000;stroke-width:0.2;stroke-dasharray:1.6, 0.4, 0.2, 0.4;stroke-dashoffset:0;marker-end:url(#marker5-5-3)"
       d="m 63.47179,3.6166349 h 8.866499"
       id="path4-0-6" />
    <path
       style="display:inline;fill:#ffffff;stroke:#000000;stroke-width:0.2;stroke-dasharray:1.6, 0.4, 0.2, 0.4;stroke-dashoffset:0;marker-end:url(#marker5-5-3-4)"
       d="M 4.4516863,35.257817 H 13.318233"
       id="path4-0-6-6" />
    <path
       style="display:inline;fill:#ffffff;stroke:#000000;stroke-width:0.2;stroke-dasharray:1.6, 0.4, 0.2, 0.4;stroke-dashoffset:0;marker-end:url(#marker5-5-3-4-4)"
       d="m 51.921721,35.257817 h 8.86655"
       id="path4-0-6-6-7" />
    <path
       style="fill:#ffffff;stroke:#000000;stroke-width:0.166252;stroke-dasharray:0.332504, 0.166252;stroke-dashoffset:0;marker-end:url(#ConcaveTriangle)"
       d="M 1.7746238,13.313576 H 11.012408"
       id="path6" />
    <g
       id="g3"
       transform="translate(-70.972618,-44.818788)">
      <g
         id="g2"
         transform="translate(68.111494,-18.750468)">
        <path
           style="display:inline;fill:#ffffff;stroke:#000000;stroke-width:0.2;stroke-dasharray:none;marker-end:url(#marker5-9)"
           d="m 29.548787,76.910176 v 0.887305"
           id="path4-8" />
        <path
           style="display:inline;fill:#ffffff;stroke:#000000;stroke-width:0.2;stroke-dasharray:none;marker-end:url(#marker5-9-61)"
           d="m 29.040339,76.755317 -0.62198,0.632812"
           id="path4-8-0" />
        <path
           style="display:inline;fill:#ffffff;stroke:#000000;stroke-width:0.2;stroke-dasharray:none;marker-end:url(#marker5-9-61-3)"
           d="m 30.105592,76.75452 0.552339,0.694429"
           id="path4-8-0-0" />
      </g>
      <g
         id="g2-1"
         transform="translate(75.434043,-18.750468)"
         style="display:inline">
        <path
           style="display:inline;fill:#ffffff;stroke:#000000;stroke-width:0.2;stroke-dasharray:none;marker-end:url(#marker5-9-5)"
           d="m 29.548787,76.910176 v 0.887305"
           id="path4-8-4" />
        <path
           style="display:inline;fill:#ffffff;stroke:#000000;stroke-width:0.2;stroke-dasharray:none;marker-end:url(#marker5-9-61-5)"
           d="m 29.040339,76.755317 -0.62198,0.632812"
           id="path4-8-0-6" />
        <path
           style="display:inline;fill:#ffffff;stroke:#000000;stroke-width:0.2;stroke-dasharray:none;marker-end:url(#marker5-9-61-3-1)"
           d="m 30.105592,76.75452 0.552339,0.694429"
           id="path4-8-0-0-0" />
      </g>
      <g
         id="g2-8"
         transform="translate(82.756593,-18.750468)"
         style="display:inline">
        <path
           style="display:inline;fill:#ffffff;stroke:#000000;stroke-width:0.2;stroke-dasharray:none;marker-end:url(#marker5-9-7)"
           d="m 29.548787,76.910176 v 0.887305"
           id="path4-8-1" />
        <path
           style="display:inline;fill:#ffffff;stroke:#000000;stroke-width:0.2;stroke-dasharray:none;marker-end:url(#marker5-9-61-7)"
           d="m 29.040339,76.755317 -0.62198,0.632812"
           id="path4-8-0-8" />
        <path
           style="display:inline;fill:#ffffff;stroke:#000000;stroke-width:0.2;stroke-dasharray:none;marker-end:url(#marker5-9-61-3-3)"
           d="m 30.105592,76.75452 0.552339,0.694429"
           id="path4-8-0-0-2" />
      </g>
      <path
         style="display:inline;fill:#ffffff;stroke:#000000;stroke-width:0.414807"
         d="M 84.556157,58.15311 H 115.91726"
         id="path1" />
    </g>
    <text
       xml:space="preserve"
       transform="matrix(0.18362479,0,0,0.18678576,69.513124,-30.190606)"
       id="text9-1-7"
       style="text-align:start;writing-mode:lr-tb;direction:ltr;white-space:pre;shape-inside:url(#rect9-0-9);display:inline;fill:#ffffff;fill-opacity:0;stroke:#000000;stroke-width:0.188976;stroke-dasharray:none;stroke-dashoffset:0"><tspan
         x="30.535156"
         y="204.69796"
         id="tspan8"><tspan
           style="fill:#000000;fill-opacity:1"
           id="tspan7">air flow (secondary loop)</tspan></tspan></text>
    <text
       xml:space="preserve"
       transform="matrix(0.18362479,0,0,0.18678576,69.495684,-26.22222)"
       id="text9-1-7-3"
       style="text-align:start;writing-mode:lr-tb;direction:ltr;white-space:pre;shape-inside:url(#rect9-0-9-2);display:inline;fill:#ffffff;fill-opacity:0;stroke:#000000;stroke-width:0.188976;stroke-dasharray:none;stroke-dashoffset:0"><tspan
         x="30.535156"
         y="204.69796"
         id="tspan10"><tspan
           style="fill:#000000;fill-opacity:1"
           id="tspan9">water flow (secondary loop)</tspan></tspan></text>
    <text
       xml:space="preserve"
       transform="matrix(0.17340952,0,0,0.1868948,69.815714,-33.962291)"
       id="text9-1-7-3-0"
       style="text-align:start;writing-mode:lr-tb;direction:ltr;white-space:pre;shape-inside:url(#rect9-0-9-2-2);display:inline;fill:#ffffff;fill-opacity:0;stroke:#000000;stroke-width:0.188976;stroke-dasharray:none;stroke-dashoffset:0"><tspan
         x="30.535156"
         y="204.69796"
         id="tspan12"><tspan
           style="fill:#000000;fill-opacity:1"
           id="tspan11">air or water flow (primary loop)</tspan></tspan></text>
    <path
       style="fill:#000000;fill-opacity:0;stroke:#000000;stroke-width:0.185004;stroke-linecap:butt;stroke-dasharray:0.370007, 0.185004;stroke-dashoffset:0;marker-end:url(#marker5-5)"
       d="m 48.150126,66.376443 c 3.44577,3.672466 6.891542,7.344934 6.846168,10.201317 -0.04537,2.856383 -3.581756,4.896603 -3.763079,7.480964 -0.181324,2.584361 2.99235,5.712696 3.037658,8.523745 0.04531,2.811048 -3.037689,5.304649 -6.120747,7.798301"
       id="path11"
       inkscape:path-effect="#path-effect12"
       inkscape:original-d="m 48.150126,66.376443 c 3.445769,3.672467 6.891541,7.344934 10.337313,11.017401 -3.536519,2.0403 -7.0729,4.080521 -10.60935,6.120778 3.173802,3.128463 6.347476,6.256798 9.521211,9.385194 -3.08312,2.493701 -6.166117,4.987301 -9.249174,7.480954"
       transform="matrix(1.0045594,0,0,0.89687019,-17.331219,-43.540968)" />
  </g>
</svg>
