<svg width="506" height="456" xmlns="http://www.w3.org/2000/svg" xmlns:xlink="http://www.w3.org/1999/xlink" overflow="hidden"><defs><clipPath id="clip0"><rect x="678" y="98" width="506" height="456"/></clipPath></defs><g clip-path="url(#clip0)" transform="translate(-678 -98)"><text font-family="Cambria Math,Cambria Math_MSFontService,sans-serif" font-style="oblique" font-weight="400" font-size="13" transform="translate(857.732 510)">on: Enabling signal <tspan font-size="13" x="-14.5" y="16">QLoa: Total cooling load </tspan><tspan font-size="13" x="-74.6667" y="32">QChi_nominal: one chiller's nominal capacity  </tspan><tspan font-family="Times New Roman,Times New Roman_MSFontService,sans-serif" font-style="normal" font-weight="700" font-size="16" x="-24.6298" y="-392">Chiller Staging Control</tspan></text><path d="M832.902 120.451 873.152 120.451 913.402 120.451 953.652 120.451 993.902 120.451 993.902 122.451 953.652 122.451 913.402 122.451 873.152 122.451 832.902 122.451Z" fill-rule="evenodd"/><text font-family="Cambria Math,Cambria Math_MSFontService,sans-serif" font-style="oblique" font-weight="400" font-size="13" transform="translate(687.854 373)">QLoa<tspan font-size="13" x="32.3334" y="0">&gt;</tspan><tspan font-size="13" x="45.3334" y="0">80</tspan><tspan font-size="13" x="60" y="0">%</tspan><tspan font-size="13" x="74.8334" y="0">*</tspan><tspan font-size="13" x="83.5" y="0">QChi</tspan><tspan font-size="13" x="110.667" y="0">_nominal</tspan><tspan font-family="Times New Roman,Times New Roman_MSFontService,sans-serif" font-style="italic" font-size="13" x="0" y="16">and</tspan><tspan font-family="Times New Roman,Times New Roman_MSFontService,sans-serif" font-style="italic" font-size="13" x="23.3334" y="16">w</tspan><tspan font-style="normal" font-size="13" x="32.1667" y="16">洧녩洧녰洧노洧녢洧녰洧녴洧</tspan><tspan font-style="normal" font-size="13" x="83.1667" y="16">&gt;</tspan><tspan font-style="normal" font-size="13" x="96.8734" y="16">洧노洧녥洧녩洧녰</tspan><tspan font-style="normal" font-size="13" x="293.552" y="-147">洧녶洧녵</tspan><tspan font-style="normal" font-size="13" x="308.612" y="-147"> </tspan><tspan font-family="Times New Roman,Times New Roman_MSFontService,sans-serif" font-style="italic" font-size="13" x="311.612" y="-147">= </tspan><tspan font-family="Times New Roman,Times New Roman_MSFontService,sans-serif" font-style="italic" font-size="13" x="323.945" y="-147">f</tspan><tspan font-family="Times New Roman,Times New Roman_MSFontService,sans-serif" font-style="italic" font-size="13" x="327.612" y="-147">alse </tspan><tspan font-family="Times New Roman,Times New Roman_MSFontService,sans-serif" font-style="italic" font-size="13" x="352.445" y="-147">and </tspan><tspan font-family="Times New Roman,Times New Roman_MSFontService,sans-serif" font-style="italic" font-size="13" x="293.552" y="-131">w</tspan><tspan font-style="normal" font-size="13" x="302.385" y="-131">洧녩洧녰洧노洧녢洧녰洧녴洧</tspan><tspan font-style="normal" font-size="13" x="353.385" y="-131">&gt;</tspan><tspan font-style="normal" font-size="13" x="367.092" y="-131">洧노洧녥洧녩洧녰</tspan><tspan font-style="normal" font-size="13" x="81.7505" y="-146">洧녶洧녵</tspan><tspan font-style="normal" font-size="13" x="96.8105" y="-146"> </tspan><tspan font-family="Times New Roman,Times New Roman_MSFontService,sans-serif" font-style="italic" font-size="13" x="99.8105" y="-146">= true and </tspan><tspan font-family="Times New Roman,Times New Roman_MSFontService,sans-serif" font-style="italic" font-size="13" x="53.3506" y="-130">w</tspan><tspan font-style="normal" font-size="13" x="62.1839" y="-130">洧녩洧녰洧노洧녢洧녰洧녴洧</tspan><tspan font-style="normal" font-size="13" x="113.184" y="-130">&gt;</tspan><tspan font-style="normal" font-size="13" x="126.891" y="-130">洧노洧녥洧녩洧녰</tspan></text><path d="M877 445.5C877 425.342 893.342 409 913.5 409 933.658 409 950 425.342 950 445.5 950 465.658 933.658 482 913.5 482 893.342 482 877 465.658 877 445.5Z" stroke="#000000" stroke-width="2" stroke-miterlimit="8" fill="#F2F2F2" fill-rule="evenodd"/><text font-family="Times New Roman,Times New Roman_MSFontService,sans-serif" font-weight="700" font-size="16" transform="translate(898.825 442)">Two <tspan font-size="16" x="3.82666" y="20">On</tspan></text><path d="M877 307.5C877 287.342 893.342 271 913.5 271 933.658 271 950 287.342 950 307.5 950 327.658 933.658 344 913.5 344 893.342 344 877 327.658 877 307.5Z" stroke="#000000" stroke-width="2" stroke-miterlimit="8" fill="#F2F2F2" fill-rule="evenodd"/><text font-family="Times New Roman,Times New Roman_MSFontService,sans-serif" font-weight="700" font-size="16" transform="translate(899.065 303)">One <tspan font-size="16" x="3.58667" y="20">On</tspan></text><path d="M877 169.5C877 149.342 893.342 133 913.5 133 933.658 133 950 149.342 950 169.5 950 189.658 933.658 206 913.5 206 893.342 206 877 189.658 877 169.5Z" stroke="#000000" stroke-width="2" stroke-miterlimit="8" fill="#F2F2F2" fill-rule="evenodd"/><text font-family="Times New Roman,Times New Roman_MSFontService,sans-serif" font-weight="700" font-size="16" transform="translate(903.065 165)">All <tspan font-size="16" x="-1.33331" y="20">Off</tspan><tspan font-family="Cambria Math,Cambria Math_MSFontService,sans-serif" font-style="oblique" font-weight="400" font-size="13" x="78.3405" y="208">QLoa</tspan><tspan font-family="Cambria Math,Cambria Math_MSFontService,sans-serif" font-style="oblique" font-weight="400" font-size="13" x="110.674" y="208">&lt;</tspan><tspan font-family="Cambria Math,Cambria Math_MSFontService,sans-serif" font-style="oblique" font-weight="400" font-size="13" x="123.674" y="208">60</tspan><tspan font-family="Cambria Math,Cambria Math_MSFontService,sans-serif" font-style="oblique" font-weight="400" font-size="13" x="138.341" y="208">%</tspan><tspan font-family="Cambria Math,Cambria Math_MSFontService,sans-serif" font-style="oblique" font-weight="400" font-size="13" x="153.174" y="208">*</tspan><tspan font-family="Cambria Math,Cambria Math_MSFontService,sans-serif" font-style="oblique" font-weight="400" font-size="13" x="161.841" y="208">QChi</tspan><tspan font-family="Cambria Math,Cambria Math_MSFontService,sans-serif" font-style="oblique" font-weight="400" font-size="13" x="189.007" y="208">_nominal</tspan><tspan font-family="Cambria Math,Cambria Math_MSFontService,sans-serif" font-style="oblique" font-weight="400" font-size="13" x="78.3405" y="224">and</tspan><tspan font-family="Cambria Math,Cambria Math_MSFontService,sans-serif" font-style="oblique" font-weight="400" font-size="13" x="102.674" y="224">w</tspan><tspan font-family="Cambria Math,Cambria Math_MSFontService,sans-serif" font-style="oblique" font-weight="400" font-size="13" x="113.007" y="224">洧녩</tspan><tspan font-family="Cambria Math,Cambria Math_MSFontService,sans-serif" font-style="oblique" font-weight="400" font-size="13" x="120.507" y="224">洧녰</tspan><tspan font-family="Cambria Math,Cambria Math_MSFontService,sans-serif" font-style="oblique" font-weight="400" font-size="13" x="124.674" y="224">洧노</tspan><tspan font-family="Cambria Math,Cambria Math_MSFontService,sans-serif" font-style="oblique" font-weight="400" font-size="13" x="130.007" y="224">洧녢</tspan><tspan font-family="Cambria Math,Cambria Math_MSFontService,sans-serif" font-style="oblique" font-weight="400" font-size="13" x="138.007" y="224">洧녰</tspan><tspan font-family="Cambria Math,Cambria Math_MSFontService,sans-serif" font-style="oblique" font-weight="400" font-size="13" x="142.174" y="224">洧녴</tspan><tspan font-family="Cambria Math,Cambria Math_MSFontService,sans-serif" font-style="oblique" font-weight="400" font-size="13" x="153.341" y="224">洧</tspan><tspan font-family="Cambria Math,Cambria Math_MSFontService,sans-serif" font-style="oblique" font-weight="400" font-size="13" x="163.007" y="224">&gt;</tspan><tspan font-family="Cambria Math,Cambria Math_MSFontService,sans-serif" font-style="oblique" font-weight="400" font-size="13" x="176.007" y="224">洧노</tspan><tspan font-family="Cambria Math,Cambria Math_MSFontService,sans-serif" font-style="oblique" font-weight="400" font-size="13" x="181.341" y="224">洧녥</tspan><tspan font-family="Cambria Math,Cambria Math_MSFontService,sans-serif" font-style="oblique" font-weight="400" font-size="13" x="194.007" y="224">洧녩</tspan><tspan font-family="Cambria Math,Cambria Math_MSFontService,sans-serif" font-style="oblique" font-weight="400" font-size="13" x="201.507" y="224">洧녰</tspan></text><path d="M954.653 328.34 956.376 331.548 959.423 338.63 961.925 345.95 963.903 353.378 965.304 360.883 966.127 368.455 966.461 376.082 966.199 383.699 965.395 391.334 964.013 398.813 962.124 406.255 959.708 413.586 956.66 420.725 953.125 427.685 949.064 434.41 947.352 433.376 951.394 426.683 951.358 426.747 954.862 419.849 954.834 419.909 957.851 412.84 957.821 412.919 960.214 405.662 960.194 405.729 962.066 398.353 962.052 398.417 963.421 391.009 963.41 391.086 964.206 383.524 964.202 383.595 964.461 376.053 964.461 376.131 964.131 368.575 964.135 368.639 963.32 361.137 963.331 361.212 961.944 353.782 961.961 353.856 960.002 346.498 960.022 346.564 957.543 339.313 957.571 339.385 954.556 332.378 954.594 332.456 952.891 329.286ZM948.646 333.279 947.818 318.394 960.222 326.663Z"/><path d="M871.409 423.351 869.725 420.122 866.763 413.005 864.348 405.655 862.459 398.204 861.148 390.683 860.416 383.102 860.173 375.471 860.526 367.858 861.421 360.233 862.893 352.771 864.87 345.352 867.374 338.051 870.507 330.949 874.125 324.031 878.266 317.356 879.965 318.41 875.844 325.054 875.88 324.99 872.294 331.846 872.323 331.786 869.221 338.819 869.252 338.74 866.773 345.968 866.794 345.901 864.834 353.254 864.848 353.19 863.391 360.582 863.403 360.505 862.516 368.057 862.522 367.986 862.173 375.524 862.173 375.446 862.413 383.006 862.409 382.942 863.135 390.453 863.125 390.377 864.423 397.823 864.407 397.749 866.278 405.13 866.259 405.064 868.651 412.344 868.624 412.272 871.554 419.314 871.518 419.236 873.182 422.426ZM877.475 418.485 878.125 433.378 865.821 424.962Z"/><path d="M954.653 191.612 956.376 194.821 959.423 201.902 961.925 209.223 963.903 216.651 965.304 224.155 966.127 231.727 966.461 239.355 966.199 246.971 965.395 254.606 964.013 262.085 962.124 269.527 959.708 276.858 956.66 283.997 953.125 290.958 949.064 297.682 947.352 296.648 951.394 289.955 951.358 290.02 954.862 283.121 954.834 283.181 957.851 276.112 957.821 276.191 960.214 268.934 960.194 269.001 962.066 261.625 962.052 261.69 963.421 254.281 963.41 254.358 964.206 246.797 964.202 246.867 964.461 239.325 964.461 239.403 964.131 231.847 964.135 231.911 963.32 224.409 963.331 224.485 961.944 217.055 961.961 217.129 960.002 209.771 960.022 209.837 957.543 202.585 957.571 202.657 954.556 195.651 954.594 195.729 952.891 192.559ZM948.646 196.551 947.818 181.667 960.222 189.935Z"/><path d="M871.409 286.624 869.725 283.395 866.763 276.278 864.348 268.928 862.459 261.477 861.148 253.956 860.416 246.374 860.173 238.743 860.526 231.131 861.421 223.506 862.893 216.044 864.87 208.625 867.374 201.324 870.507 194.221 874.125 187.303 878.266 180.628 879.965 181.682 875.844 188.326 875.88 188.263 872.294 195.119 872.323 195.059 869.221 202.092 869.252 202.013 866.773 209.241 866.794 209.174 864.834 216.527 864.848 216.463 863.391 223.854 863.403 223.777 862.516 231.329 862.522 231.259 862.173 238.797 862.173 238.719 862.413 246.278 862.409 246.214 863.135 253.725 863.125 253.65 864.423 261.096 864.407 261.022 866.278 268.403 866.259 268.336 868.651 275.617 868.624 275.545 871.554 282.586 871.518 282.508 873.182 285.698ZM877.475 281.757 878.125 296.65 865.821 288.234Z"/></g></svg>