<?xml version="1.0" encoding="UTF-8" standalone="no"?>
<svg
   xmlns:dc="http://purl.org/dc/elements/1.1/"
   xmlns:cc="http://creativecommons.org/ns#"
   xmlns:rdf="http://www.w3.org/1999/02/22-rdf-syntax-ns#"
   xmlns:svg="http://www.w3.org/2000/svg"
   xmlns="http://www.w3.org/2000/svg"
   xmlns:sodipodi="http://sodipodi.sourceforge.net/DTD/sodipodi-0.dtd"
   xmlns:inkscape="http://www.inkscape.org/namespaces/inkscape"
   viewBox="0 0 659 412"
   version="1.1"
   id="svg145"
   sodipodi:docname="valveResponse.svg"
   inkscape:export-filename="/home/mwetter/proj/ldrd/bie/modeling/github/ibpsa/modelica-ibpsa/IBPSA/Resources/Images/Fluid/Actuators/valveResponse.png"
   inkscape:export-xdpi="300"
   inkscape:export-ydpi="300"
   inkscape:version="0.92.5 (2060ec1f9f, 2020-04-08)">
  <metadata
     id="metadata151">
    <rdf:RDF>
      <cc:Work
         rdf:about="">
        <dc:format>image/svg+xml</dc:format>
        <dc:type
           rdf:resource="http://purl.org/dc/dcmitype/StillImage" />
      </cc:Work>
    </rdf:RDF>
  </metadata>
  <defs
     id="defs149" />
  <sodipodi:namedview
     pagecolor="#ffffff"
     bordercolor="#666666"
     borderopacity="1"
     objecttolerance="10"
     gridtolerance="10"
     guidetolerance="10"
     inkscape:pageopacity="0"
     inkscape:pageshadow="2"
     inkscape:window-width="2051"
     inkscape:window-height="1209"
     id="namedview147"
     showgrid="false"
     inkscape:zoom="0.57281553"
     inkscape:cx="332.99153"
     inkscape:cy="206"
     inkscape:window-x="0"
     inkscape:window-y="25"
     inkscape:window-maximized="0"
     inkscape:current-layer="svg145" />
  <polyline
     fill="none"
     stroke="rgb(229,229,229)"
     stroke-width="0.5"
     stroke-opacity="1"
     points="104,26 104,333"
     id="polyline2" />
  <polyline
     fill="none"
     stroke="rgb(229,229,229)"
     stroke-width="0.5"
     stroke-opacity="1"
     points="155.5,26 155.5,333"
     id="polyline4" />
  <polyline
     fill="none"
     stroke="rgb(229,229,229)"
     stroke-width="0.5"
     stroke-opacity="1"
     points="207,26 207,333"
     id="polyline6" />
  <polyline
     fill="none"
     stroke="rgb(229,229,229)"
     stroke-width="0.5"
     stroke-opacity="1"
     points="258.5,26 258.5,333"
     id="polyline8" />
  <polyline
     fill="none"
     stroke="rgb(229,229,229)"
     stroke-width="0.5"
     stroke-opacity="1"
     points="310,26 310,333"
     id="polyline10" />
  <polyline
     fill="none"
     stroke="rgb(229,229,229)"
     stroke-width="0.5"
     stroke-opacity="1"
     points="361.5,26 361.5,333"
     id="polyline12" />
  <polyline
     fill="none"
     stroke="rgb(229,229,229)"
     stroke-width="0.5"
     stroke-opacity="1"
     points="413,26 413,333"
     id="polyline14" />
  <polyline
     fill="none"
     stroke="rgb(229,229,229)"
     stroke-width="0.5"
     stroke-opacity="1"
     points="464.5,26 464.5,333"
     id="polyline16" />
  <polyline
     fill="none"
     stroke="rgb(229,229,229)"
     stroke-width="0.5"
     stroke-opacity="1"
     points="516,26 516,333"
     id="polyline18" />
  <polyline
     fill="none"
     stroke="rgb(229,229,229)"
     stroke-width="0.5"
     stroke-opacity="1"
     points="567.5,26 567.5,333"
     id="polyline20" />
  <polyline
     fill="none"
     stroke="rgb(229,229,229)"
     stroke-width="0.5"
     stroke-opacity="1"
     points="619,26 619,333"
     id="polyline22" />
  <polyline
     fill="none"
     stroke="rgb(229,229,229)"
     stroke-width="0.5"
     stroke-opacity="1"
     points="104,333 619,333"
     id="polyline24" />
  <polyline
     fill="none"
     stroke="rgb(229,229,229)"
     stroke-width="0.5"
     stroke-opacity="1"
     points="104,289.143 619,289.143"
     id="polyline26" />
  <polyline
     fill="none"
     stroke="rgb(229,229,229)"
     stroke-width="0.5"
     stroke-opacity="1"
     points="104,245.286 619,245.286"
     id="polyline28" />
  <polyline
     fill="none"
     stroke="rgb(229,229,229)"
     stroke-width="0.5"
     stroke-opacity="1"
     points="104,201.429 619,201.429"
     id="polyline30" />
  <polyline
     fill="none"
     stroke="rgb(229,229,229)"
     stroke-width="0.5"
     stroke-opacity="1"
     points="104,157.571 619,157.571"
     id="polyline32" />
  <polyline
     fill="none"
     stroke="rgb(229,229,229)"
     stroke-width="0.5"
     stroke-opacity="1"
     points="104,113.714 619,113.714"
     id="polyline34" />
  <polyline
     fill="none"
     stroke="rgb(229,229,229)"
     stroke-width="0.5"
     stroke-opacity="1"
     points="104,69.8571 619,69.8571"
     id="polyline36" />
  <polyline
     fill="none"
     stroke="rgb(229,229,229)"
     stroke-width="0.5"
     stroke-opacity="1"
     points="104,26 619,26"
     id="polyline38" />
  <polyline
     fill="none"
     stroke="rgb(192,192,192)"
     stroke-width="0.5"
     stroke-opacity="1"
     points="104,289.143 619,289.143"
     id="polyline40" />
  <polyline
     fill="none"
     stroke="rgb(0,0,0)"
     stroke-width="0.5"
     stroke-opacity="1"
     points="104,333 619,333"
     id="polyline42" />
  <polyline
     fill="none"
     stroke="rgb(0,0,0)"
     stroke-width="0.5"
     stroke-opacity="1"
     points="619,333 619,26"
     id="polyline44" />
  <polyline
     fill="none"
     stroke="rgb(0,0,0)"
     stroke-width="0.5"
     stroke-opacity="1"
     points="619,26 104,26"
     id="polyline46" />
  <polyline
     fill="none"
     stroke="rgb(0,0,0)"
     stroke-width="0.5"
     stroke-opacity="1"
     points="104,26 104,333"
     id="polyline48" />
  <polyline
     fill="none"
     stroke="rgb(0,0,0)"
     stroke-width="0.5"
     stroke-opacity="1"
     points="104,333 104,339"
     id="polyline50" />
  <polyline
     fill="none"
     stroke="rgb(0,0,0)"
     stroke-width="0.5"
     stroke-opacity="1"
     points="155.5,333 155.5,339"
     id="polyline52" />
  <polyline
     fill="none"
     stroke="rgb(0,0,0)"
     stroke-width="0.5"
     stroke-opacity="1"
     points="207,333 207,339"
     id="polyline54" />
  <polyline
     fill="none"
     stroke="rgb(0,0,0)"
     stroke-width="0.5"
     stroke-opacity="1"
     points="258.5,333 258.5,339"
     id="polyline56" />
  <polyline
     fill="none"
     stroke="rgb(0,0,0)"
     stroke-width="0.5"
     stroke-opacity="1"
     points="310,333 310,339"
     id="polyline58" />
  <polyline
     fill="none"
     stroke="rgb(0,0,0)"
     stroke-width="0.5"
     stroke-opacity="1"
     points="361.5,333 361.5,339"
     id="polyline60" />
  <polyline
     fill="none"
     stroke="rgb(0,0,0)"
     stroke-width="0.5"
     stroke-opacity="1"
     points="413,333 413,339"
     id="polyline62" />
  <polyline
     fill="none"
     stroke="rgb(0,0,0)"
     stroke-width="0.5"
     stroke-opacity="1"
     points="464.5,333 464.5,339"
     id="polyline64" />
  <polyline
     fill="none"
     stroke="rgb(0,0,0)"
     stroke-width="0.5"
     stroke-opacity="1"
     points="516,333 516,339"
     id="polyline66" />
  <polyline
     fill="none"
     stroke="rgb(0,0,0)"
     stroke-width="0.5"
     stroke-opacity="1"
     points="567.5,333 567.5,339"
     id="polyline68" />
  <polyline
     fill="none"
     stroke="rgb(0,0,0)"
     stroke-width="0.5"
     stroke-opacity="1"
     points="619,333 619,339"
     id="polyline70" />
  <polyline
     fill="none"
     stroke="rgb(0,0,0)"
     stroke-width="0.5"
     stroke-opacity="1"
     points="104,333 104,342.6"
     id="polyline72" />
  <text
     fill="rgb(0,0,0)"
     font-size="17"
     font-family="helvetica"
     text-anchor="middle"
     dominant-baseline="central"
     x="104"
     y="356.5"
     id="text74">0</text>
  <polyline
     fill="none"
     stroke="rgb(0,0,0)"
     stroke-width="0.5"
     stroke-opacity="1"
     points="207,333 207,342.6"
     id="polyline76" />
  <text
     fill="rgb(0,0,0)"
     font-size="17"
     font-family="helvetica"
     text-anchor="middle"
     dominant-baseline="central"
     x="207"
     y="356.5"
     id="text78">40</text>
  <polyline
     fill="none"
     stroke="rgb(0,0,0)"
     stroke-width="0.5"
     stroke-opacity="1"
     points="310,333 310,342.6"
     id="polyline80" />
  <text
     fill="rgb(0,0,0)"
     font-size="17"
     font-family="helvetica"
     text-anchor="middle"
     dominant-baseline="central"
     x="310"
     y="356.5"
     id="text82">80</text>
  <polyline
     fill="none"
     stroke="rgb(0,0,0)"
     stroke-width="0.5"
     stroke-opacity="1"
     points="413,333 413,342.6"
     id="polyline84" />
  <text
     fill="rgb(0,0,0)"
     font-size="17"
     font-family="helvetica"
     text-anchor="middle"
     dominant-baseline="central"
     x="413"
     y="356.5"
     id="text86">120</text>
  <polyline
     fill="none"
     stroke="rgb(0,0,0)"
     stroke-width="0.5"
     stroke-opacity="1"
     points="516,333 516,342.6"
     id="polyline88" />
  <text
     fill="rgb(0,0,0)"
     font-size="17"
     font-family="helvetica"
     text-anchor="middle"
     dominant-baseline="central"
     x="516"
     y="356.5"
     id="text90">160</text>
  <polyline
     fill="none"
     stroke="rgb(0,0,0)"
     stroke-width="0.5"
     stroke-opacity="1"
     points="619,333 619,342.6"
     id="polyline92" />
  <text
     fill="rgb(0,0,0)"
     font-size="17"
     font-family="helvetica"
     text-anchor="middle"
     dominant-baseline="central"
     x="619"
     y="356.5"
     id="text94">200</text>
  <polyline
     fill="none"
     stroke="rgb(0,0,0)"
     stroke-width="0.5"
     stroke-opacity="1"
     points="98,333 104,333"
     id="polyline96" />
  <polyline
     fill="none"
     stroke="rgb(0,0,0)"
     stroke-width="0.5"
     stroke-opacity="1"
     points="98,289.143 104,289.143"
     id="polyline98" />
  <polyline
     fill="none"
     stroke="rgb(0,0,0)"
     stroke-width="0.5"
     stroke-opacity="1"
     points="98,245.286 104,245.286"
     id="polyline100" />
  <polyline
     fill="none"
     stroke="rgb(0,0,0)"
     stroke-width="0.5"
     stroke-opacity="1"
     points="98,201.429 104,201.429"
     id="polyline102" />
  <polyline
     fill="none"
     stroke="rgb(0,0,0)"
     stroke-width="0.5"
     stroke-opacity="1"
     points="98,157.571 104,157.571"
     id="polyline104" />
  <polyline
     fill="none"
     stroke="rgb(0,0,0)"
     stroke-width="0.5"
     stroke-opacity="1"
     points="98,113.714 104,113.714"
     id="polyline106" />
  <polyline
     fill="none"
     stroke="rgb(0,0,0)"
     stroke-width="0.5"
     stroke-opacity="1"
     points="98,69.8571 104,69.8571"
     id="polyline108" />
  <polyline
     fill="none"
     stroke="rgb(0,0,0)"
     stroke-width="0.5"
     stroke-opacity="1"
     points="98,26 104,26"
     id="polyline110" />
  <rect
     fill="none"
     stroke="none"
     stroke-dasharray="none"
     stroke-width="0.5"
     stroke-opacity="1"
     x="14"
     y="278.143"
     width="78"
     height="22"
     id="rect112" />
  <polyline
     fill="none"
     stroke="rgb(0,0,0)"
     stroke-width="0.5"
     stroke-opacity="1"
     points="94.4,289.143 104,289.143"
     id="polyline114" />
  <text
     fill="rgb(0,0,0)"
     font-size="17"
     font-family="helvetica"
     text-anchor="end"
     dominant-baseline="central"
     x="92"
     y="289.143"
     id="text116">0.0</text>
  <polyline
     fill="none"
     stroke="rgb(0,0,0)"
     stroke-width="0.5"
     stroke-opacity="1"
     points="94.4,201.429 104,201.429"
     id="polyline118" />
  <text
     fill="rgb(0,0,0)"
     font-size="17"
     font-family="helvetica"
     text-anchor="end"
     dominant-baseline="central"
     x="92"
     y="201.429"
     id="text120">0.4</text>
  <polyline
     fill="none"
     stroke="rgb(0,0,0)"
     stroke-width="0.5"
     stroke-opacity="1"
     points="94.4,113.714 104,113.714"
     id="polyline122" />
  <text
     fill="rgb(0,0,0)"
     font-size="17"
     font-family="helvetica"
     text-anchor="end"
     dominant-baseline="central"
     x="92"
     y="113.714"
     id="text124">0.8</text>
  <polyline
     fill="none"
     stroke="rgb(0,0,0)"
     stroke-width="0.5"
     stroke-opacity="1"
     points="94.4,26 104,26"
     id="polyline126" />
  <text
     fill="rgb(0,0,0)"
     font-size="17"
     font-family="helvetica"
     text-anchor="end"
     dominant-baseline="central"
     x="92"
     y="26"
     id="text128">1.2</text>
  <text
     fill="rgb(0,0,0)"
     font-size="17"
     font-family="helvetica"
     text-anchor="middle"
     dominant-baseline="central"
     transform="translate(39, 179.5) rotate(-90)"
     id="text130">[1]</text>
  <text
     fill="rgb(0,0,0)"
     font-size="17"
     font-family="helvetica"
     text-anchor="middle"
     dominant-baseline="central"
     x="361.5"
     y="385"
     id="text132">time [s]</text>
  <clipPath
     id="clipArea1">
    <rect
       x="104"
       y="26"
       width="516"
       height="307"
       id="rect134" />
  </clipPath>
  <polyline
     fill="none"
     stroke="rgb(28,108,200)"
     stroke-width="1"
     stroke-opacity="1"
     clip-path="url(#clipArea1)"
     points="104,289.143 105.03,289.143 106.06,289.143 107.09,289.143 108.12,289.143 109.15,289.143 110.18,289.143 111.21,289.143 112.24,289.143 113.27,289.143 114.3,289.143 115.33,289.143 116.36,289.143 117.39,289.143 118.42,289.143 119.45,289.143 120.48,289.143 121.51,289.143 122.54,289.143 123.57,289.143 124.6,289.143 125.63,289.143 126.66,289.143 127.69,289.143 128.72,289.143 129.75,289.143 129.75,289.143 130.78,288.412 131.81,287.681 132.84,286.95 133.87,286.219 134.9,285.488 135.93,284.757 136.96,284.026 137.99,283.295 139.02,282.564 140.05,281.833 141.08,281.102 142.11,280.371 143.14,279.64 144.17,278.91 145.2,278.179 146.23,277.448 147.26,276.717 148.29,275.986 149.32,275.255 150.35,274.524 151.38,273.793 152.41,273.062 153.44,272.331 154.47,271.6 155.5,270.869 156.53,270.138 157.56,269.407 158.59,268.676 159.62,267.945 160.65,267.214 161.68,266.483 162.71,265.752 163.74,265.021 164.77,264.29 165.8,263.56 166.83,262.829 167.86,262.098 168.89,261.367 169.92,260.636 170.95,259.905 171.98,259.174 173.01,258.443 174.04,257.712 175.07,256.981 176.1,256.25 177.13,255.519 178.16,254.788 179.19,254.057 180.22,253.326 181.25,252.595 182.28,251.864 183.31,251.133 184.34,250.402 185.37,249.671 186.4,248.94 187.43,248.21 188.46,247.479 189.49,246.748 190.52,246.017 191.55,245.286 192.58,244.555 193.61,243.824 194.64,243.093 195.67,242.362 196.7,241.631 197.73,240.9 198.76,240.169 199.79,239.438 200.82,238.707 201.85,237.976 202.88,237.245 203.91,236.514 204.94,235.783 205.97,235.052 207,234.321 208.03,233.59 209.06,232.86 210.09,232.129 211.12,231.398 212.15,230.667 213.18,229.936 214.21,229.205 215.24,228.474 216.27,227.743 217.3,227.012 218.33,226.281 219.36,225.55 220.39,224.819 221.42,224.088 222.45,223.357 223.48,222.626 224.51,221.895 225.54,221.164 226.57,220.433 227.6,219.702 228.63,218.971 229.66,218.24 230.69,217.51 231.72,216.779 232.75,216.048 233.78,215.317 234.81,214.586 235.84,213.855 236.87,213.124 237.9,212.393 238.93,211.662 239.96,210.931 240.99,210.2 242.02,209.469 243.05,208.738 244.08,208.007 245.11,207.276 246.14,206.545 247.17,205.814 248.2,205.083 249.23,204.352 250.26,203.621 251.29,202.89 252.32,202.16 253.35,201.429 254.38,200.698 255.41,199.967 256.44,199.236 257.47,198.505 258.5,197.774 259.53,197.043 260.56,196.312 261.59,195.581 262.62,194.85 263.65,194.119 264.68,193.388 265.71,192.657 266.74,191.926 267.77,191.195 268.8,190.464 269.83,189.733 270.86,189.002 271.89,188.271 272.92,187.54 273.95,186.81 274.98,186.079 276.01,185.348 277.04,184.617 278.07,183.886 279.1,183.155 280.13,182.424 281.16,181.693 282.19,180.962 283.22,180.231 284.25,179.5 285.28,178.769 286.31,178.038 287.34,177.307 288.37,176.576 289.4,175.845 290.43,175.114 291.46,174.383 292.49,173.652 293.52,172.921 294.55,172.19 295.58,171.46 296.61,170.729 297.64,169.998 298.67,169.267 299.7,168.536 300.73,167.805 301.76,167.074 302.79,166.343 303.82,165.612 304.85,164.881 305.88,164.15 306.91,163.419 307.94,162.688 308.97,161.957 310,161.226 311.03,160.495 312.06,159.764 313.09,159.033 314.12,158.302 315.15,157.571 316.18,156.84 317.21,156.11 318.24,155.379 319.27,154.648 320.3,153.917 321.33,153.186 322.36,152.455 323.39,151.724 324.42,150.993 325.45,150.262 326.48,149.531 327.51,148.8 328.54,148.069 329.57,147.338 330.6,146.607 331.63,145.876 332.66,145.145 333.69,144.414 334.72,143.683 335.75,142.952 336.78,142.221 337.81,141.49 338.84,140.76 339.87,140.029 340.9,139.298 341.93,138.567 342.96,137.836 343.99,137.105 345.02,136.374 346.05,135.643 347.08,134.912 348.11,134.181 349.14,133.45 350.17,132.719 351.2,131.988 352.23,131.257 353.26,130.526 354.29,129.795 355.32,129.064 356.35,128.333 357.38,127.602 358.41,126.871 359.44,126.14 360.47,125.41 361.5,124.679 362.53,123.948 363.56,123.217 364.59,122.486 365.62,121.755 366.65,121.024 367.68,120.293 368.71,119.562 369.74,118.831 370.77,118.1 371.8,117.369 372.83,116.638 373.86,115.907 374.89,115.176 375.92,114.445 376.95,113.714 377.98,112.983 379.01,112.252 380.04,111.521 381.07,110.79 382.1,110.06 383.13,109.329 384.16,108.598 385.19,107.867 386.22,107.136 387.25,106.405 388.28,105.674 389.31,104.943 390.34,104.212 391.37,103.481 392.4,102.75 393.43,102.019 394.46,101.288 395.49,100.557 396.52,99.8262 397.55,99.0952 398.58,98.3643 399.61,97.6333 400.64,96.9024 401.67,96.1714 402.7,95.4405 403.73,94.7095 404.76,93.9786 405.79,93.2476 406.82,92.5167 407.85,91.7857 408.88,91.0548 409.91,90.3238 410.94,89.5929 411.97,88.8619 413,88.1309 414.03,87.4 415.06,86.669 416.09,85.9381 417.12,85.2071 418.15,84.4762 419.18,83.7452 420.21,83.0143 421.24,82.2833 422.27,81.5524 423.3,80.8214 424.33,80.0905 425.36,79.3595 426.39,78.6286 427.42,77.8976 428.45,77.1667 429.48,76.4357 430.51,75.7048 431.54,74.9738 432.57,74.2429 433.6,73.5119 434.63,72.7809 435.66,72.05 436.69,71.319 437.72,70.5881 438.75,69.9131 439.78,69.8576 440.81,69.8572 441.84,69.8571 442.87,69.8571 443.9,69.8571 444.93,69.8571 445.96,69.8571 446.99,69.8571 448.02,69.8571 449.05,69.8571 450.08,69.8571 451.11,69.8571 452.14,69.8571 453.17,69.8571 454.2,69.8571 455.23,69.8571 456.26,69.8571 457.29,69.8571 458.32,69.8571 459.35,69.8571 460.38,69.8571 461.41,69.8571 462.44,69.8571 463.47,69.8571 464.5,69.8571 465.53,69.8571 466.56,69.8571 467.59,69.8571 468.62,69.8571 469.65,69.8571 470.68,69.8571 471.71,69.8571 472.74,69.8571 473.77,69.8571 474.8,69.8571 475.83,69.8571 476.86,69.8571 477.89,69.8571 478.92,69.8571 479.95,69.8571 480.98,69.8571 482.01,69.8571 483.04,69.8571 484.07,69.8571 485.1,69.8571 486.13,69.8571 487.16,69.8571 488.19,69.8571 489.22,69.8571 490.25,69.8571 491.28,69.8571 492.31,69.8571 493.34,69.8571 494.37,69.8571 495.4,69.8571 496.43,69.8571 497.46,69.8571 498.49,69.8571 499.52,69.8571 500.55,69.8571 501.58,69.8571 502.61,69.8571 503.64,69.8571 504.67,69.8571 505.7,69.8571 506.73,69.8571 507.76,69.8571 508.79,69.8571 509.82,69.8571 510.85,69.8571 511.88,69.8571 512.91,69.8571 513.94,69.8571 514.97,69.8571 516,69.8571 517.03,69.8571 518.06,69.8571 519.09,69.8571 520.12,69.8571 521.15,69.8571 522.18,69.8571 523.21,69.8571 524.24,69.8571 525.27,69.8571 526.3,69.8571 527.33,69.8571 528.36,69.8571 529.39,69.8571 530.42,69.8571 531.45,69.8571 532.48,69.8571 533.51,69.8571 534.54,69.8571 535.57,69.8571 536.6,69.8571 537.63,69.8571 538.66,69.8571 539.69,69.8571 540.72,69.8571 541.75,69.8571 542.78,69.8571 543.81,69.8571 544.84,69.8571 545.87,69.8571 546.9,69.8571 547.93,69.8571 548.96,69.8571 549.99,69.8571 551.02,69.8571 552.05,69.8571 553.08,69.8571 554.11,69.8571 555.14,69.8571 556.17,69.8571 557.2,69.8571 558.23,69.8571 559.26,69.8571 560.29,69.8571 561.32,69.8571 562.35,69.8571 563.38,69.8571 564.41,69.8571 565.44,69.8571 566.47,69.8571 567.5,69.8571 568.53,69.8571 569.56,69.8571 570.59,69.8571 571.62,69.8571 572.65,69.8571 573.68,69.8571 574.71,69.8571 575.74,69.8571 576.77,69.8571 577.8,69.8571 578.83,69.8571 579.86,69.8571 580.89,69.8571 581.92,69.8571 582.95,69.8571 583.98,69.8571 585.01,69.8571 586.04,69.8571 587.07,69.8571 588.1,69.8571 589.13,69.8571 590.16,69.8571 591.19,69.8571 592.22,69.8571 593.25,69.8571 594.28,69.8571 595.31,69.8571 596.34,69.8571 597.37,69.8571 598.4,69.8571 599.43,69.8571 600.46,69.8571 601.49,69.8571 602.52,69.8571 603.55,69.8571 604.58,69.8571 605.61,69.8571 606.64,69.8571 607.67,69.8571 608.7,69.8571 609.73,69.8571 610.76,69.8571 611.79,69.8571 612.82,69.8571 613.85,69.8571 614.88,69.8571 615.91,69.8571 616.94,69.8571 617.97,69.8571 619,69.8571 619,69.8571"
     id="polyline137" />
  <polyline
     fill="none"
     stroke="rgb(238,46,47)"
     stroke-width="1"
     stroke-opacity="1"
     clip-path="url(#clipArea1)"
     points="104,289.143 105.03,289.143 106.06,289.143 107.09,289.143 108.12,289.143 109.15,289.143 110.18,289.143 111.21,289.143 112.24,289.143 113.27,289.143 114.3,289.143 115.33,289.143 116.36,289.143 117.39,289.143 118.42,289.143 119.45,289.143 120.48,289.143 121.51,289.143 122.54,289.143 123.57,289.143 124.6,289.143 125.63,289.143 126.66,289.143 127.69,289.143 128.72,289.143 129.75,289.143 129.75,69.8571 130.78,69.8571 131.81,69.8571 132.84,69.8571 133.87,69.8571 134.9,69.8571 135.93,69.8571 136.96,69.8571 137.99,69.8571 139.02,69.8571 140.05,69.8571 141.08,69.8571 142.11,69.8571 143.14,69.8571 144.17,69.8571 145.2,69.8571 146.23,69.8571 147.26,69.8571 148.29,69.8571 149.32,69.8571 150.35,69.8571 151.38,69.8571 152.41,69.8571 153.44,69.8571 154.47,69.8571 155.5,69.8571 156.53,69.8571 157.56,69.8571 158.59,69.8571 159.62,69.8571 160.65,69.8571 161.68,69.8571 162.71,69.8571 163.74,69.8571 164.77,69.8571 165.8,69.8571 166.83,69.8571 167.86,69.8571 168.89,69.8571 169.92,69.8571 170.95,69.8571 171.98,69.8571 173.01,69.8571 174.04,69.8571 175.07,69.8571 176.1,69.8571 177.13,69.8571 178.16,69.8571 179.19,69.8571 180.22,69.8571 181.25,69.8571 182.28,69.8571 183.31,69.8571 184.34,69.8571 185.37,69.8571 186.4,69.8571 187.43,69.8571 188.46,69.8571 189.49,69.8571 190.52,69.8571 191.55,69.8571 192.58,69.8571 193.61,69.8571 194.64,69.8571 195.67,69.8571 196.7,69.8571 197.73,69.8571 198.76,69.8571 199.79,69.8571 200.82,69.8571 201.85,69.8571 202.88,69.8571 203.91,69.8571 204.94,69.8571 205.97,69.8571 207,69.8571 208.03,69.8571 209.06,69.8571 210.09,69.8571 211.12,69.8571 212.15,69.8571 213.18,69.8571 214.21,69.8571 215.24,69.8571 216.27,69.8571 217.3,69.8571 218.33,69.8571 219.36,69.8571 220.39,69.8571 221.42,69.8571 222.45,69.8571 223.48,69.8571 224.51,69.8571 225.54,69.8571 226.57,69.8571 227.6,69.8571 228.63,69.8571 229.66,69.8571 230.69,69.8571 231.72,69.8571 232.75,69.8571 233.78,69.8571 234.81,69.8571 235.84,69.8571 236.87,69.8571 237.9,69.8571 238.93,69.8571 239.96,69.8571 240.99,69.8571 242.02,69.8571 243.05,69.8571 244.08,69.8571 245.11,69.8571 246.14,69.8571 247.17,69.8571 248.2,69.8571 249.23,69.8571 250.26,69.8571 251.29,69.8571 252.32,69.8571 253.35,69.8571 254.38,69.8571 255.41,69.8571 256.44,69.8571 257.47,69.8571 258.5,69.8571 259.53,69.8571 260.56,69.8571 261.59,69.8571 262.62,69.8571 263.65,69.8571 264.68,69.8571 265.71,69.8571 266.74,69.8571 267.77,69.8571 268.8,69.8571 269.83,69.8571 270.86,69.8571 271.89,69.8571 272.92,69.8571 273.95,69.8571 274.98,69.8571 276.01,69.8571 277.04,69.8571 278.07,69.8571 279.1,69.8571 280.13,69.8571 281.16,69.8571 282.19,69.8571 283.22,69.8571 284.25,69.8571 285.28,69.8571 286.31,69.8571 287.34,69.8571 288.37,69.8571 289.4,69.8571 290.43,69.8571 291.46,69.8571 292.49,69.8571 293.52,69.8571 294.55,69.8571 295.58,69.8571 296.61,69.8571 297.64,69.8571 298.67,69.8571 299.7,69.8571 300.73,69.8571 301.76,69.8571 302.79,69.8571 303.82,69.8571 304.85,69.8571 305.88,69.8571 306.91,69.8571 307.94,69.8571 308.97,69.8571 310,69.8571 311.03,69.8571 312.06,69.8571 313.09,69.8571 314.12,69.8571 315.15,69.8571 316.18,69.8571 317.21,69.8571 318.24,69.8571 319.27,69.8571 320.3,69.8571 321.33,69.8571 322.36,69.8571 323.39,69.8571 324.42,69.8571 325.45,69.8571 326.48,69.8571 327.51,69.8571 328.54,69.8571 329.57,69.8571 330.6,69.8571 331.63,69.8571 332.66,69.8571 333.69,69.8571 334.72,69.8571 335.75,69.8571 336.78,69.8571 337.81,69.8571 338.84,69.8571 339.87,69.8571 340.9,69.8571 341.93,69.8571 342.96,69.8571 343.99,69.8571 345.02,69.8571 346.05,69.8571 347.08,69.8571 348.11,69.8571 349.14,69.8571 350.17,69.8571 351.2,69.8571 352.23,69.8571 353.26,69.8571 354.29,69.8571 355.32,69.8571 356.35,69.8571 357.38,69.8571 358.41,69.8571 359.44,69.8571 360.47,69.8571 361.5,69.8571 362.53,69.8571 363.56,69.8571 364.59,69.8571 365.62,69.8571 366.65,69.8571 367.68,69.8571 368.71,69.8571 369.74,69.8571 370.77,69.8571 371.8,69.8571 372.83,69.8571 373.86,69.8571 374.89,69.8571 375.92,69.8571 376.95,69.8571 377.98,69.8571 379.01,69.8571 380.04,69.8571 381.07,69.8571 382.1,69.8571 383.13,69.8571 384.16,69.8571 385.19,69.8571 386.22,69.8571 387.25,69.8571 388.28,69.8571 389.31,69.8571 390.34,69.8571 391.37,69.8571 392.4,69.8571 393.43,69.8571 394.46,69.8571 395.49,69.8571 396.52,69.8571 397.55,69.8571 398.58,69.8571 399.61,69.8571 400.64,69.8571 401.67,69.8571 402.7,69.8571 403.73,69.8571 404.76,69.8571 405.79,69.8571 406.82,69.8571 407.85,69.8571 408.88,69.8571 409.91,69.8571 410.94,69.8571 411.97,69.8571 413,69.8571 414.03,69.8571 415.06,69.8571 416.09,69.8571 417.12,69.8571 418.15,69.8571 419.18,69.8571 420.21,69.8571 421.24,69.8571 422.27,69.8571 423.3,69.8571 424.33,69.8571 425.36,69.8571 426.39,69.8571 427.42,69.8571 428.45,69.8571 429.48,69.8571 430.51,69.8571 431.54,69.8571 432.57,69.8571 433.6,69.8571 434.63,69.8571 435.66,69.8571 436.69,69.8571 437.72,69.8571 438.75,69.8571 439.78,69.8571 440.81,69.8571 441.84,69.8571 442.87,69.8571 443.9,69.8571 444.93,69.8571 445.96,69.8571 446.99,69.8571 448.02,69.8571 449.05,69.8571 450.08,69.8571 451.11,69.8571 452.14,69.8571 453.17,69.8571 454.2,69.8571 455.23,69.8571 456.26,69.8571 457.29,69.8571 458.32,69.8571 459.35,69.8571 460.38,69.8571 461.41,69.8571 462.44,69.8571 463.47,69.8571 464.5,69.8571 465.53,69.8571 466.56,69.8571 467.59,69.8571 468.62,69.8571 469.65,69.8571 470.68,69.8571 471.71,69.8571 472.74,69.8571 473.77,69.8571 474.8,69.8571 475.83,69.8571 476.86,69.8571 477.89,69.8571 478.92,69.8571 479.95,69.8571 480.98,69.8571 482.01,69.8571 483.04,69.8571 484.07,69.8571 485.1,69.8571 486.13,69.8571 487.16,69.8571 488.19,69.8571 489.22,69.8571 490.25,69.8571 491.28,69.8571 492.31,69.8571 493.34,69.8571 494.37,69.8571 495.4,69.8571 496.43,69.8571 497.46,69.8571 498.49,69.8571 499.52,69.8571 500.55,69.8571 501.58,69.8571 502.61,69.8571 503.64,69.8571 504.67,69.8571 505.7,69.8571 506.73,69.8571 507.76,69.8571 508.79,69.8571 509.82,69.8571 510.85,69.8571 511.88,69.8571 512.91,69.8571 513.94,69.8571 514.97,69.8571 516,69.8571 517.03,69.8571 518.06,69.8571 519.09,69.8571 520.12,69.8571 521.15,69.8571 522.18,69.8571 523.21,69.8571 524.24,69.8571 525.27,69.8571 526.3,69.8571 527.33,69.8571 528.36,69.8571 529.39,69.8571 530.42,69.8571 531.45,69.8571 532.48,69.8571 533.51,69.8571 534.54,69.8571 535.57,69.8571 536.6,69.8571 537.63,69.8571 538.66,69.8571 539.69,69.8571 540.72,69.8571 541.75,69.8571 542.78,69.8571 543.81,69.8571 544.84,69.8571 545.87,69.8571 546.9,69.8571 547.93,69.8571 548.96,69.8571 549.99,69.8571 551.02,69.8571 552.05,69.8571 553.08,69.8571 554.11,69.8571 555.14,69.8571 556.17,69.8571 557.2,69.8571 558.23,69.8571 559.26,69.8571 560.29,69.8571 561.32,69.8571 562.35,69.8571 563.38,69.8571 564.41,69.8571 565.44,69.8571 566.47,69.8571 567.5,69.8571 568.53,69.8571 569.56,69.8571 570.59,69.8571 571.62,69.8571 572.65,69.8571 573.68,69.8571 574.71,69.8571 575.74,69.8571 576.77,69.8571 577.8,69.8571 578.83,69.8571 579.86,69.8571 580.89,69.8571 581.92,69.8571 582.95,69.8571 583.98,69.8571 585.01,69.8571 586.04,69.8571 587.07,69.8571 588.1,69.8571 589.13,69.8571 590.16,69.8571 591.19,69.8571 592.22,69.8571 593.25,69.8571 594.28,69.8571 595.31,69.8571 596.34,69.8571 597.37,69.8571 598.4,69.8571 599.43,69.8571 600.46,69.8571 601.49,69.8571 602.52,69.8571 603.55,69.8571 604.58,69.8571 605.61,69.8571 606.64,69.8571 607.67,69.8571 608.7,69.8571 609.73,69.8571 610.76,69.8571 611.79,69.8571 612.82,69.8571 613.85,69.8571 614.88,69.8571 615.91,69.8571 616.94,69.8571 617.97,69.8571 619,69.8571 619,69.8571"
     id="polyline139" />
  <text
     fill="rgb(238,46,47)"
     font-size="22"
     font-family="helvetica"
     text-anchor="middle"
     dominant-baseline="central"
     x="391.112"
     y="45.7355"
     id="text141">val2.y_actual</text>
  <text
     fill="rgb(28,108,200)"
     font-size="22"
     font-family="helvetica"
     text-anchor="middle"
     dominant-baseline="central"
     x="387.25"
     y="177.308"
     id="text143">val1.y_actual</text>
</svg>
