<?xml version="1.0" encoding="UTF-8" standalone="no"?>
<!DOCTYPE svg PUBLIC "-//W3C//DTD SVG 1.1//EN" "http://www.w3.org/Graphics/SVG/1.1/DTD/svg11.dtd">
<!-- Generated by Microsoft Visio, SVG Export schematicAB.svg Page-1 -->
<svg xmlns="http://www.w3.org/2000/svg" xmlns:xlink="http://www.w3.org/1999/xlink" xmlns:ev="http://www.w3.org/2001/xml-events"
		xmlns:v="http://schemas.microsoft.com/visio/2003/SVGExtensions/" width="8.26772in" height="11.6929in"
		viewBox="0 0 595.276 841.89" xml:space="preserve" color-interpolation-filters="sRGB" class="st10">
	<v:documentProperties v:langID="1030" v:metric="true" v:viewMarkup="false">
		<v:userDefs>
			<v:ud v:nameU="msvNoAutoConnect" v:val="VT0(1):26"/>
		</v:userDefs>
	</v:documentProperties>

	<style type="text/css">
	<![CDATA[
		.st1 {fill:#ffffff;stroke:#000000;stroke-linecap:round;stroke-linejoin:round;stroke-width:0.24}
		.st2 {stroke:#000000;stroke-linecap:round;stroke-linejoin:round;stroke-width:0.25}
		.st3 {fill:none;stroke:none;stroke-linecap:round;stroke-linejoin:round;stroke-width:0.75}
		.st4 {fill:#000000;font-family:Calibri;font-size:0.583328em}
		.st5 {marker-end:url(#mrkr4-58);stroke:#000000;stroke-linecap:round;stroke-linejoin:round;stroke-width:0.25}
		.st6 {fill:#000000;fill-opacity:1;stroke:#000000;stroke-opacity:1;stroke-width:0.090252707581227}
		.st7 {marker-end:url(#mrkr4-81);stroke:#000000;stroke-linecap:round;stroke-linejoin:round;stroke-width:0.25}
		.st8 {fill:#000000}
		.st9 {stroke:#000000;stroke-linecap:round;stroke-linejoin:round;stroke-width:0.24}
		.st10 {fill:none;fill-rule:evenodd;font-size:12px;overflow:visible;stroke-linecap:square;stroke-miterlimit:3}
	]]>
	</style>

	<defs id="Markers">
		<g id="lend4">
			<path d="M 2 1 L 0 0 L 2 -1 L 2 1 " style="stroke:none"/>
		</g>
		<marker id="mrkr4-58" class="st6" v:arrowType="4" v:arrowSize="2" v:setback="22.16" refX="-22.16" orient="auto"
				markerUnits="strokeWidth" overflow="visible">
			<use xlink:href="#lend4" transform="scale(-11.08,-11.08) "/>
		</marker>
		<marker id="mrkr4-81" class="st6" v:arrowType="4" v:arrowSize="2" v:setback="20.72" refX="-20.72" orient="auto"
				markerUnits="strokeWidth" overflow="visible">
			<use xlink:href="#lend4" transform="scale(-11.08,-11.08) "/>
		</marker>
	</defs>
	<g v:mID="0" v:index="1" v:groupContext="foregroundPage">
		<title>Page-1</title>
		<v:pageProperties v:drawingScale="0.0393701" v:pageScale="0.0393701" v:drawingUnits="24" v:shadowOffsetX="8.50394"
				v:shadowOffsetY="-8.50394"/>
		<v:layer v:name="Connector" v:index="0"/>
		<g id="shape3-1" v:mID="3" v:groupContext="shape" transform="translate(170.079,-467.717)">
			<title>Rectangle.3</title>
			<v:userDefs>
				<v:ud v:nameU="visVersion" v:val="VT0(15):26"/>
			</v:userDefs>
			<rect x="0" y="819.213" width="39.685" height="22.6772" class="st1"/>
		</g>
		<g id="group7-3" transform="translate(428.676,-364.879) scale(-1,1)" v:mID="7" v:groupContext="group">
			<title>Sheet.7</title>
			<g id="shape8-4" v:mID="8" v:groupContext="shape" transform="translate(698.221,1327.66) rotate(133.025)">
				<title>Sheet.8</title>
				<path d="M0 841.89 L121.28 841.89" class="st2"/>
			</g>
			<g id="shape9-7" v:mID="9" v:groupContext="shape" transform="translate(678.059,157.92) rotate(45)">
				<title>Sheet.9</title>
				<path d="M0 841.89 L17.08 841.89" class="st2"/>
			</g>
		</g>
		<g id="shape12-10" v:mID="12" v:groupContext="shape" transform="translate(261.527,-441.465)">
			<title>Sheet.12</title>
			<path d="M0 841.89 L72.32 841.89" class="st2"/>
		</g>
		<g id="shape13-13" v:mID="13" v:groupContext="shape" transform="translate(209.764,-411.024)">
			<title>Sheet.13</title>
			<path d="M0 841.89 L0 753.23 L175.75 753.23 L175.75 841.89" class="st2"/>
		</g>
		<g id="shape14-16" v:mID="14" v:groupContext="shape" transform="translate(933.763,-199.527) rotate(45)">
			<title>Rectangle</title>
			<v:userDefs>
				<v:ud v:nameU="visVersion" v:val="VT0(15):26"/>
			</v:userDefs>
			<rect x="0" y="836.834" width="13.0394" height="5.05544" class="st1"/>
		</g>
		<g id="shape15-18" v:mID="15" v:groupContext="shape" transform="translate(-338.487,-199.598) rotate(-45) scale(-1,1)">
			<title>Rectangle.15</title>
			<v:userDefs>
				<v:ud v:nameU="visVersion" v:val="VT0(15):26"/>
			</v:userDefs>
			<rect x="0" y="837.085" width="13.0394" height="4.80465" class="st1"/>
		</g>
		<g id="shape16-20" v:mID="16" v:groupContext="shape" transform="translate(215.433,-364.252)">
			<title>Rectangle.16</title>
			<v:userDefs>
				<v:ud v:nameU="visVersion" v:val="VT0(15):26"/>
			</v:userDefs>
			<rect x="0" y="819.213" width="164.409" height="22.6772" class="st1"/>
		</g>
		<g id="shape29-22" v:mID="29" v:groupContext="shape" transform="translate(223.158,-369.193)">
			<title>Circle</title>
			<v:userDefs>
				<v:ud v:nameU="visVersion" v:val="VT0(15):26"/>
			</v:userDefs>
			<path d="M0 835.49 A6.39748 6.39748 0 0 1 12.79 835.49 A6.39748 6.39748 0 0 1 0 835.49 Z" class="st1"/>
		</g>
		<g id="shape30-24" v:mID="30" v:groupContext="shape" transform="translate(243,-369.193)">
			<title>Circle.30</title>
			<v:userDefs>
				<v:ud v:nameU="visVersion" v:val="VT0(15):26"/>
			</v:userDefs>
			<path d="M0 835.49 A6.39748 6.39748 0 0 1 12.79 835.49 A6.39748 6.39748 0 0 1 0 835.49 Z" class="st1"/>
		</g>
		<g id="shape31-26" v:mID="31" v:groupContext="shape" transform="translate(262.843,-369.193)">
			<title>Circle.31</title>
			<v:userDefs>
				<v:ud v:nameU="visVersion" v:val="VT0(15):26"/>
			</v:userDefs>
			<path d="M0 835.49 A6.39748 6.39748 0 0 1 12.79 835.49 A6.39748 6.39748 0 0 1 0 835.49 Z" class="st1"/>
		</g>
		<g id="shape32-28" v:mID="32" v:groupContext="shape" transform="translate(282.685,-369.193)">
			<title>Circle.32</title>
			<v:userDefs>
				<v:ud v:nameU="visVersion" v:val="VT0(15):26"/>
			</v:userDefs>
			<path d="M0 835.49 A6.39748 6.39748 0 0 1 12.79 835.49 A6.39748 6.39748 0 0 1 0 835.49 Z" class="st1"/>
		</g>
		<g id="shape33-30" v:mID="33" v:groupContext="shape" transform="translate(301.845,-369.193)">
			<title>Circle.33</title>
			<v:userDefs>
				<v:ud v:nameU="visVersion" v:val="VT0(15):26"/>
			</v:userDefs>
			<path d="M0 835.49 A6.39748 6.39748 0 0 1 12.79 835.49 A6.39748 6.39748 0 0 1 0 835.49 Z" class="st1"/>
		</g>
		<g id="shape34-32" v:mID="34" v:groupContext="shape" transform="translate(321.004,-369.193)">
			<title>Circle.34</title>
			<v:userDefs>
				<v:ud v:nameU="visVersion" v:val="VT0(15):26"/>
			</v:userDefs>
			<path d="M0 835.49 A6.39748 6.39748 0 0 1 12.79 835.49 A6.39748 6.39748 0 0 1 0 835.49 Z" class="st1"/>
		</g>
		<g id="shape35-34" v:mID="35" v:groupContext="shape" transform="translate(340.164,-369.193)">
			<title>Circle.35</title>
			<v:userDefs>
				<v:ud v:nameU="visVersion" v:val="VT0(15):26"/>
			</v:userDefs>
			<path d="M0 835.49 A6.39748 6.39748 0 0 1 12.79 835.49 A6.39748 6.39748 0 0 1 0 835.49 Z" class="st1"/>
		</g>
		<g id="shape36-36" v:mID="36" v:groupContext="shape" transform="translate(359.323,-369.193)">
			<title>Circle.36</title>
			<v:userDefs>
				<v:ud v:nameU="visVersion" v:val="VT0(15):26"/>
			</v:userDefs>
			<path d="M0 835.49 A6.39748 6.39748 0 0 1 12.79 835.49 A6.39748 6.39748 0 0 1 0 835.49 Z" class="st1"/>
		</g>
		<g id="shape37-38" v:mID="37" v:groupContext="shape" transform="translate(209.764,-477.638)">
			<title>Sheet.37</title>
			<desc>Primary air</desc>
			<v:textBlock v:margins="rect(4,4,4,4)" v:tabSpace="42.5197"/>
			<v:textRect cx="87.874" cy="830.551" width="175.75" height="22.6772"/>
			<rect x="0" y="819.213" width="175.748" height="22.6772" class="st3"/>
			<text x="72.27" y="832.65" class="st4" v:langID="1040"><v:paragraph v:horizAlign="1"/><v:tabList/>Primary air</text>		</g>
		<g id="shape38-41" v:mID="38" v:groupContext="shape" transform="translate(246.614,-447.146)">
			<title>Sheet.38</title>
			<desc>Nozzle</desc>
			<v:textBlock v:margins="rect(4,4,4,4)" v:tabSpace="42.5197"/>
			<v:textRect cx="19.8425" cy="835.492" width="39.69" height="12.795"/>
			<rect x="0" y="829.095" width="39.685" height="12.795" class="st3"/>
			<text x="10.43" y="837.59" class="st4" v:langID="1040"><v:paragraph v:horizAlign="1"/><v:tabList/>Nozzle</text>		</g>
		<g id="shape39-44" v:mID="39" v:groupContext="shape" transform="translate(310.394,-447.146)">
			<title>Sheet.39</title>
			<desc>Nozzle</desc>
			<v:textBlock v:margins="rect(4,4,4,4)" v:tabSpace="42.5197"/>
			<v:textRect cx="19.8425" cy="835.492" width="39.69" height="12.795"/>
			<rect x="0" y="829.095" width="39.685" height="12.795" class="st3"/>
			<text x="10.43" y="837.59" class="st4" v:langID="1040"><v:paragraph v:horizAlign="1"/><v:tabList/>Nozzle</text>		</g>
		<g id="shape40-47" v:mID="40" v:groupContext="shape" transform="translate(215.433,-386.78)">
			<title>Sheet.40</title>
			<desc>Heat exchanger</desc>
			<v:textBlock v:margins="rect(4,4,4,4)" v:tabSpace="42.5197"/>
			<v:textRect cx="82.2047" cy="835.492" width="164.41" height="12.795"/>
			<rect x="0" y="829.095" width="164.409" height="12.795" class="st3"/>
			<text x="59.94" y="837.59" class="st4" v:langID="1040"><v:paragraph v:horizAlign="1"/><v:tabList/>Heat exchanger</text>		</g>
		<g id="shape41-50" v:mID="41" v:groupContext="shape" transform="translate(215.433,-412.402)">
			<title>Sheet.41</title>
			<desc>Mixing chamber</desc>
			<v:textBlock v:margins="rect(4,4,4,4)" v:tabSpace="42.5197"/>
			<v:textRect cx="82.2047" cy="835.492" width="164.41" height="12.795"/>
			<rect x="0" y="829.095" width="164.409" height="12.795" class="st3"/>
			<text x="59.22" y="837.59" class="st4" v:langID="1040"><v:paragraph v:horizAlign="1"/><v:tabList/>Mixing chamber</text>		</g>
		<g id="shape43-53" v:mID="43" v:groupContext="shape" transform="translate(884.686,955.059) rotate(135)">
			<title>Sheet.43</title>
			<path d="M0 841.89 L24.79 841.89" class="st5"/>
		</g>
		<g id="group44-59" transform="translate(166.695,-364.879)" v:mID="44" v:groupContext="group">
			<title>Sheet.44</title>
			<g id="shape4-60" v:mID="4" v:groupContext="shape" transform="translate(698.221,1327.66) rotate(133.025)">
				<title>Sheet.4</title>
				<path d="M0 841.89 L121.28 841.89" class="st2"/>
			</g>
			<g id="shape5-63" v:mID="5" v:groupContext="shape" transform="translate(678.059,157.92) rotate(45)">
				<title>Sheet.5</title>
				<path d="M0 841.89 L17.08 841.89" class="st2"/>
			</g>
		</g>
		<g id="shape46-66" v:mID="46" v:groupContext="shape" transform="translate(800.818,1047.43) rotate(135)">
			<title>Sheet.46</title>
			<path d="M0 841.89 L18.01 841.89" class="st5"/>
		</g>
		<g id="shape47-71" v:mID="47" v:groupContext="shape" transform="translate(-205.542,1047.43) rotate(45) scale(1,-1)">
			<title>Sheet.47</title>
			<path d="M0 841.89 L18.01 841.89" class="st5"/>
		</g>
		<g id="shape51-76" v:mID="51" v:groupContext="shape" transform="translate(-312.902,1060.74) rotate(-136.9)">
			<title>Sheet.51</title>
			<path d="M-0 835.47 A22.6772 21.2208 -43.1 0 0 26.61 838.77 L26.89 838.55" class="st7"/>
		</g>
		<g id="shape52-82" v:mID="52" v:groupContext="shape" transform="translate(911.758,1060.74) rotate(-43.0999) scale(1,-1)">
			<title>Sheet.52</title>
			<path d="M-0 835.47 A22.6772 21.2208 -43.1 0 0 26.61 838.77 L26.89 838.55" class="st7"/>
		</g>
		<g id="shape53-87" v:mID="53" v:groupContext="shape" transform="translate(-286.514,955.059) rotate(45) scale(1,-1)">
			<title>Sheet.53</title>
			<path d="M0 841.89 L24.79 841.89" class="st5"/>
		</g>
		<g id="shape59-92" v:mID="59" v:groupContext="shape" v:layerMember="0"
				transform="translate(-531.634,487) rotate(-90) scale(-1,1)">
			<title>1-D open end</title>
			<v:userDefs>
				<v:ud v:nameU="visVersion" v:val="VT0(15):26"/>
			</v:userDefs>
			<path d="M28.91 821.7 L12.62 821.7 L12.62 816.65 L0 829.27 L12.62 841.89 L12.62 836.84 L28.91 836.84 L28.91 821.7 Z"
					class="st8"/>
			<path d="M28.91 821.7 L12.62 821.7 L12.62 816.65 L0 829.27 L12.62 841.89 L12.62 836.84 L28.91 836.84" class="st9"/>
			<path d="" class="st9"/>
			<path d="M28.91 821.7 L28.91 836.84" class="st9"/>
		</g>
		<g id="shape60-97" v:mID="60" v:groupContext="shape" transform="translate(283.465,-318.898)">
			<title>Sheet.60</title>
			<desc>Induced air from room</desc>
			<v:textBlock v:margins="rect(4,4,4,4)" v:tabSpace="42.5197"/>
			<v:textRect cx="62.3622" cy="835.492" width="124.73" height="12.795"/>
			<rect x="0" y="829.095" width="124.724" height="12.795" class="st3"/>
			<text x="30.19" y="837.59" class="st4" v:langID="1040"><v:paragraph v:horizAlign="1"/><v:tabList/>Induced air from room</text>		</g>
		<g id="shape61-100" v:mID="61" v:groupContext="shape" transform="translate(166.695,-348.622)">
			<title>Sheet.61</title>
			<desc>Supply air to room</desc>
			<v:textBlock v:margins="rect(4,4,4,4)" v:tabSpace="42.5197"/>
			<v:textRect cx="30.4724" cy="835.492" width="60.95" height="12.795"/>
			<rect x="0" y="829.095" width="60.9449" height="12.795" class="st3"/>
			<text x="4.16" y="837.59" class="st4" v:langID="1040"><v:paragraph v:horizAlign="1"/><v:tabList/>Supply air to room</text>		</g>
		<g id="shape62-103" v:mID="62" v:groupContext="shape" transform="translate(371.339,-348.622)">
			<title>Sheet.62</title>
			<desc>Supply air to room</desc>
			<v:textBlock v:margins="rect(4,4,4,4)" v:tabSpace="42.5197"/>
			<v:textRect cx="30.4724" cy="835.492" width="60.95" height="12.795"/>
			<rect x="0" y="829.095" width="60.9449" height="12.795" class="st3"/>
			<text x="4.16" y="837.59" class="st4" v:langID="1040"><v:paragraph v:horizAlign="1"/><v:tabList/>Supply air to room</text>		</g>
	</g>
</svg>
