<?xml version="1.0" encoding="UTF-8" standalone="no"?>
<!-- Created with Inkscape (http://www.inkscape.org/) -->

<svg
   width="100"
   height="100"
   viewBox="0 0 26.458335 26.45833"
   version="1.1"
   id="svg12898"
   sodipodi:docname="ControllerOnboard.svg"
   inkscape:version="1.2.1 (9c6d41e410, 2022-07-14)"
   xmlns:inkscape="http://www.inkscape.org/namespaces/inkscape"
   xmlns:sodipodi="http://sodipodi.sourceforge.net/DTD/sodipodi-0.dtd"
   xmlns="http://www.w3.org/2000/svg"
   xmlns:svg="http://www.w3.org/2000/svg">
  <sodipodi:namedview
     id="namedview34354"
     pagecolor="#ffffff"
     bordercolor="#000000"
     borderopacity="0.25"
     inkscape:showpageshadow="2"
     inkscape:pageopacity="0.0"
     inkscape:pagecheckerboard="0"
     inkscape:deskcolor="#d1d1d1"
     showgrid="true"
     inkscape:zoom="2.3956898"
     inkscape:cx="70.960774"
     inkscape:cy="118.75494"
     inkscape:window-width="1920"
     inkscape:window-height="1028"
     inkscape:window-x="-6"
     inkscape:window-y="-6"
     inkscape:window-maximized="1"
     inkscape:current-layer="g688">
    <inkscape:grid
       type="xygrid"
       id="grid34535"
       originx="-1.7858427"
       originy="-0.0011068637" />
  </sodipodi:namedview>
  <defs
     id="defs12895">
    <rect
       x="-480"
       y="-240"
       width="2000"
       height="400"
       id="rect455" />
    <rect
       x="200"
       y="240"
       width="440"
       height="320"
       id="rect449" />
    <rect
       x="-440"
       y="600"
       width="360"
       height="520"
       id="rect35714" />
    <rect
       x="640"
       y="1200"
       width="720"
       height="280"
       id="rect35708" />
    <rect
       x="370"
       y="280"
       width="410"
       height="230"
       id="rect34649" />
    <rect
       x="380"
       y="300"
       width="400"
       height="160"
       id="rect34591" />
    <rect
       x="1259.0197"
       y="284.73633"
       width="399.67548"
       height="41.103985"
       id="rect26041" />
    <rect
       x="-99.906151"
       y="-396.78329"
       width="1227.9442"
       height="428.09433"
       id="rect7245" />
    <rect
       x="107.03309"
       y="-247.09485"
       width="937.42871"
       height="201.89989"
       id="rect2663" />
    <rect
       x="-82.594574"
       y="496.42636"
       width="447.10434"
       height="144.56889"
       id="rect16655" />
    <rect
       x="-82.594574"
       y="496.42636"
       width="447.10434"
       height="144.56889"
       id="rect16655-3" />
    <rect
       x="-82.594574"
       y="496.42636"
       width="447.10434"
       height="144.56889"
       id="rect16655-5" />
    <rect
       x="-82.594574"
       y="496.42636"
       width="447.10434"
       height="144.56889"
       id="rect16655-1" />
    <rect
       x="-99.906151"
       y="-396.78329"
       width="1227.9442"
       height="428.09433"
       id="rect7245-8" />
    <rect
       x="-99.906151"
       y="-396.78329"
       width="1227.9442"
       height="428.09433"
       id="rect7245-8-0" />
    <rect
       x="-99.906151"
       y="-396.78329"
       width="1227.9442"
       height="428.09433"
       id="rect7245-8-6" />
    <rect
       x="-99.906151"
       y="-396.78329"
       width="1227.9442"
       height="428.09433"
       id="rect7245-85" />
    <rect
       x="-99.906151"
       y="-396.78329"
       width="1227.9442"
       height="428.09433"
       id="rect7245-7" />
    <rect
       x="-99.906151"
       y="-396.78329"
       width="1227.9442"
       height="428.09433"
       id="rect7245-7-1" />
    <rect
       x="370"
       y="280"
       width="410"
       height="230"
       id="rect34649-8" />
    <rect
       x="370"
       y="280"
       width="410"
       height="230"
       id="rect34649-8-3" />
    <rect
       x="370"
       y="280"
       width="410"
       height="230"
       id="rect34649-8-3-6" />
    <rect
       x="370"
       y="280"
       width="410"
       height="230"
       id="rect34649-1" />
    <rect
       x="-480"
       y="-240"
       width="2000"
       height="400"
       id="rect455-4" />
  </defs>
  <g
     aria-label="ENABLE"
     transform="matrix(0.26458333,0,0,0.26458333,-258.50792,-17.475728)"
     id="text2661"
     style="font-size:200px;line-height:1.25;-inkscape-font-specification:'sans-serif, Normal';white-space:pre;shape-inside:url(#rect2663);stroke-width:0.620253" />
  <g
     id="g1016"
     transform="matrix(2.022586,0,0,2.0204084,-187.74283,-316.1301)"
     style="stroke-width:0.494683">
    <g
       id="g982"
       transform="translate(-11.619452,7.39114)"
       style="stroke-width:0.494683">
      <g
         id="g688"
         transform="matrix(0.60959324,0,0,0.60870076,40.685882,58.589712)"
         style="stroke-width:0.812092">
        <path
           id="polyline524"
           style="fill:none;stroke:#000000;stroke-width:0.214866;stroke-miterlimit:4;stroke-dasharray:none"
           d="m 104.69641,148.76432 v 21.29905 h 21.24442 v -21.29905 z" />
        <g
           id="g905"
           transform="translate(-1.8983645,0.83323457)">
          <path
             id="polyline558-5"
             style="fill:none;stroke:#000000;stroke-width:0.214866;stroke-dasharray:none"
             d="m 123.1712,154.24966 v 2.02774 h 2.0321 v -2.02774 z" />
          <path
             id="polyline558-5-0"
             style="fill:none;stroke:#000000;stroke-width:0.214866;stroke-dasharray:none"
             d="m 123.1712,160.88384 v 2.02773 h 2.0321 v -2.02773 z" />
          <g
             aria-label="ENABLE"
             transform="matrix(0.0219504,0,0,0.02193694,122.56864,157.44722)"
             id="text453"
             style="font-size:200px;-inkscape-font-specification:'sans-serif, Normal';text-orientation:upright;white-space:pre;stroke-width:9.7917;stroke-dasharray:none">
            <path
               d="m -414.64537,-57.533937 h -54.28695 v -82.398843 h 54.28695 v 9.73955 h -43.32996 v 22.57806 h 43.32996 v 9.739555 h -43.32996 v 30.602124 h 43.32996 z"
               id="path1244"
               style="stroke-width:9.7917;stroke-dasharray:none" />
            <path
               d="m -334.40473,-57.533937 h -13.5579 l -39.06889,-73.710723 v 73.710723 h -10.2376 v -82.398843 h 16.98888 l 35.63791,67.291466 v -67.291466 h 10.2376 z"
               id="path1246"
               style="stroke-width:9.7917;stroke-dasharray:none" />
            <path
               d="m -247.52348,-57.533937 h -11.6764 l -8.0794,-22.965427 h -35.63792 l -8.0794,22.965427 h -11.12301 l 29.9934,-82.398843 h 14.60933 z m -23.13144,-32.372951 -14.44332,-40.452352 -14.49865,40.452352 z"
               id="path1248"
               style="stroke-width:9.7917;stroke-dasharray:none" />
            <path
               d="m -172.872,-82.878914 q 0,6.14256 -2.32421,10.846322 -2.32421,4.703762 -6.25323,7.747373 -4.64843,3.652333 -10.2376,5.201808 -5.53384,1.549474 -14.11129,1.549474 H -235.017 v -82.398843 h 24.40423 q 9.02016,0 13.50256,0.66406 4.48241,0.66406 8.57745,2.76692 4.53775,2.37955 6.58527,6.14256 2.04752,3.70767 2.04752,8.90948 0,5.86586 -2.98827,10.01624 -2.98827,4.09504 -7.96873,6.58527 v 0.44271 q 8.3561,1.71549 13.17054,7.360001 4.81443,5.589176 4.81443,14.166625 z m -18.42768,-37.132056 q 0,-2.98827 -0.99609,-5.03579 -0.99609,-2.04752 -3.20962,-3.3203 -2.60091,-1.49414 -6.30858,-1.82617 -3.70767,-0.38737 -9.18617,-0.38737 H -224.06 v 23.79551 h 14.16663 q 5.14647,0 8.19008,-0.49805 3.04361,-0.55338 5.64451,-2.21353 2.60091,-1.66016 3.65234,-4.26106 1.10676,-2.65624 1.10676,-6.25324 z m 7.02798,37.574763 q 0,-4.980454 -1.49414,-7.913388 -1.49413,-2.932934 -5.42316,-4.980455 -2.65624,-1.383459 -6.47459,-1.770828 -3.76301,-0.442707 -9.18617,-0.442707 H -224.06 v 30.657462 h 14.49866 q 7.19399,0 11.78707,-0.719399 4.59309,-0.774737 7.52602,-2.766919 3.09895,-2.158196 4.53775,-4.925115 1.4388,-2.766919 1.4388,-7.138651 z"
               id="path1250"
               style="stroke-width:9.7917;stroke-dasharray:none" />
            <path
               d="m -105.19316,-57.533937 h -52.12875 v -82.398843 h 10.957 v 72.659289 h 41.17175 z"
               id="path1252"
               style="stroke-width:9.7917;stroke-dasharray:none" />
            <path
               d="m -39.949207,-57.533937 h -54.28695 v -82.398843 h 54.28695 v 9.73955 h -43.329951 v 22.57806 h 43.329951 v 9.739555 h -43.329951 v 30.602124 h 43.329951 z"
               id="path1254"
               style="stroke-width:9.7917;stroke-dasharray:none" />
          </g>
          <g
             aria-label="NETWORK"
             transform="matrix(0.0219504,0,0,0.02193694,119.41649,165.80671)"
             id="text453-5"
             style="font-size:113.333px;-inkscape-font-specification:'sans-serif, Normal';text-orientation:upright;white-space:pre;stroke-width:9.7917;stroke-dasharray:none">
            <path
               d="m -406.06793,-136.60287 h -13.5579 l -39.06889,-73.71072 v 73.71072 h -10.2376 v -82.39884 h 16.98888 l 35.63791,67.29146 v -67.29146 h 10.2376 z"
               id="path1269"
               style="stroke-width:9.7917;stroke-dasharray:none" />
            <path
               d="m -329.86698,-136.60287 h -54.28695 v -82.39884 h 54.28695 v 9.73955 h -43.32995 v 22.57806 h 43.32995 v 9.73955 h -43.32995 v 30.60213 h 43.32995 z"
               id="path1271"
               style="stroke-width:9.7917;stroke-dasharray:none" />
            <path
               d="m -253.72138,-209.26216 h -29.44001 v 72.65929 h -10.957 v -72.65929 h -29.44002 v -9.73955 h 69.83703 z"
               id="path1273"
               style="stroke-width:9.7917;stroke-dasharray:none" />
            <path
               d="m -146.75229,-219.00171 -21.41595,82.39884 h -12.34046 l -17.32091,-68.39823 -16.93355,68.39823 h -12.06376 l -21.80332,-82.39884 h 11.23369 l 17.32091,68.50891 17.04422,-68.50891 h 11.12301 l 17.21024,69.17297 17.21024,-69.17297 z"
               id="path1275"
               style="stroke-width:9.7917;stroke-dasharray:none" />
            <path
               d="m -69.167856,-209.53885 q 5.035792,5.53384 7.692034,13.5579 2.711581,8.02407 2.711581,18.20633 0,10.18226 -2.766919,18.26166 -2.711581,8.02407 -7.636696,13.39189 -5.091131,5.58918 -12.063767,8.41143 -6.917297,2.82226 -15.826776,2.82226 -8.688121,0 -15.826781,-2.87759 -7.08331,-2.8776 -12.06376,-8.3561 -4.98046,-5.4785 -7.69204,-13.44723 -2.65624,-7.96872 -2.65624,-18.20632 0,-10.07159 2.65624,-18.04031 2.65625,-8.02407 7.74738,-13.72392 4.86977,-5.42316 12.06376,-8.30076 7.24933,-2.87759 15.771441,-2.87759 8.85414,0 15.882114,2.93293 7.083313,2.8776 12.008429,8.24542 z m -0.996091,31.76423 q 0,-16.04813 -7.193989,-24.73626 -7.19399,-8.74346 -19.645125,-8.74346 -12.561809,0 -19.755799,8.74346 -7.13865,8.68813 -7.13865,24.73626 0,16.21414 7.30466,24.84693 7.30467,8.57745 19.589789,8.57745 12.28512,0 19.534448,-8.57745 7.304666,-8.63279 7.304666,-24.84693 z"
               id="path1277"
               style="stroke-width:9.7917;stroke-dasharray:none" />
            <path
               d="M 26.78887,-136.60287 H 12.566907 l -27.558513,-32.76032 h -15.439408 v 32.76032 h -10.956999 v -82.39884 h 23.076104 q 7.470682,0 12.4511356,0.99609 4.98045415,0.94075 8.9648174,3.43098 4.4824087,2.82225 6.972636,7.13865 2.545565,4.26105 2.545565,10.84632 0,8.90948 -4.4824085,14.94136 -4.4824087,5.97655 -12.3404585,9.02016 z M 1.1672008,-195.81493 q 0,-3.54166 -1.27278275,-6.25324 -1.21744435,-2.76692 -4.09504005,-4.64842 -2.3795503,-1.60482 -5.6445146,-2.21354 -3.2649644,-0.66406 -7.6920344,-0.66406 h -12.893843 v 31.10017 h 11.067676 q 5.201808,0 9.075494,-0.88542 3.8736868,-0.94075 6.5852674,-3.43097 2.4902271,-2.32422 3.65233303,-5.31249 1.21744437,-3.04361 1.21744437,-7.69203 z"
               id="path1279"
               style="stroke-width:9.7917;stroke-dasharray:none" />
            <path
               d="M 103.65388,-136.60287 H 89.431913 l -32.594305,-36.68934 -8.19008,8.74346 v 27.94588 H 37.690529 v -82.39884 h 10.956999 v 42.99792 l 40.009648,-42.99792 h 13.281214 l -36.800025,38.73686 z"
               id="path1281"
               style="stroke-width:9.7917;stroke-dasharray:none" />
          </g>
        </g>
      </g>
    </g>
  </g>
  <g
     transform="matrix(0.26458333,0,0,0.26458333,-258.50792,-17.475728)"
     id="text26039"
     style="font-size:40px;line-height:1.25;-inkscape-font-specification:'sans-serif, Normal';white-space:pre;shape-inside:url(#rect26041);stroke-width:0.620253" />
</svg>
