<?xml version="1.0" encoding="UTF-8" standalone="no"?>
<!-- Created with Inkscape (http://www.inkscape.org/) -->

<svg
   width="132.29419mm"
   height="111.66269mm"
   viewBox="0 0 132.29419 111.66269"
   version="1.1"
   id="svg1536"
   sodipodi:docname="Single.svg"
   inkscape:version="1.2.1 (9c6d41e410, 2022-07-14)"
   xmlns:inkscape="http://www.inkscape.org/namespaces/inkscape"
   xmlns:sodipodi="http://sodipodi.sourceforge.net/DTD/sodipodi-0.dtd"
   xmlns="http://www.w3.org/2000/svg"
   xmlns:svg="http://www.w3.org/2000/svg">
  <sodipodi:namedview
     id="namedview1538"
     pagecolor="#ffffff"
     bordercolor="#000000"
     borderopacity="0.25"
     inkscape:showpageshadow="2"
     inkscape:pageopacity="0.0"
     inkscape:pagecheckerboard="0"
     inkscape:deskcolor="#d1d1d1"
     inkscape:document-units="mm"
     showgrid="false"
     inkscape:zoom="0.26677458"
     inkscape:cx="1102.054"
     inkscape:cy="691.59512"
     inkscape:window-width="1920"
     inkscape:window-height="1028"
     inkscape:window-x="-6"
     inkscape:window-y="-6"
     inkscape:window-maximized="1"
     inkscape:current-layer="g2502" />
  <defs
     id="defs1533" />
  <g
     inkscape:label="Calque 1"
     inkscape:groupmode="layer"
     id="layer1"
     transform="translate(-59.335463,-129.46387)">
    <g
       id="g2502"
       transform="matrix(0.26458333,0,0,0.26458333,73.084636,70.828511)"
       style="fill:none;stroke:#000000">
      <g
         id="g15452"
         transform="matrix(0.41712471,0,0,0.41620877,-27.374297,132.29204)"
         style="fill:#ffffff;fill-opacity:1;stroke-width:24;stroke-dasharray:none">
        <path
           d="M 447.66037,226.60848 C 247.60776,226.60471 67.250304,347.20662 -9.3039227,532.1724 -85.857993,717.13779 -43.531312,930.03766 97.926635,1071.6068 239.38458,1213.176 452.11721,1255.5359 636.93731,1178.9217 821.75778,1102.3073 942.26496,921.80801 942.26283,721.59814 l 185.48857,2e-5 V 226.6085 H 447.66365"
           id="path568"
           style="fill:#ffffff;fill-opacity:1;stroke:#000000;stroke-width:24;stroke-dasharray:none"
           sodipodi:nodetypes="cssscccc" />
        <path
           d="m 460.10226,790.17317 a 76.090642,76.150462 0 1 0 0,-152.30092"
           id="path578"
           style="fill:#ffffff;fill-opacity:1;stroke:#000000;stroke-width:24;stroke-dasharray:none" />
        <path
           id="polyline580"
           style="fill:#ffffff;fill-opacity:1;stroke-width:0.515025;stroke-dasharray:none"
           transform="matrix(46.581354,0,0,46.617975,-18024.871,-14820.555)"
           d="m 396.832,331.598 h -1.145" />
        <path
           id="polyline582"
           style="fill:#ffffff;fill-opacity:1;stroke-width:0.515025;stroke-dasharray:none"
           transform="matrix(46.581354,0,0,46.617975,-18024.871,-14820.555)"
           d="m 396.832,334.865 h -1.145" />
      </g>
    </g>
  </g>
</svg>
