<?xml version="1.0"?>
<svg width="250mm" height="200mm" viewBox="0 0 2750 1500"
     xmlns="http://www.w3.org/2000/svg"
     xmlns:xlink="http://www.w3.org/1999/xlink"
     xmlns:ev="http://www.w3.org/2001/xml-events">
<g font-family="Verdana" font-size="8">
  <line x1="300" y1="590" x2="300" y2="670" style="stroke:silver;"/>
  <line x1="300" y1="590" x2="300" y2="750" style="stroke:silver;"/>
  <line x1="300" y1="590" x2="300" y2="830" style="stroke:silver;"/>
  <line x1="300" y1="590" x2="300" y2="910" style="stroke:silver;"/>
  <line x1="300" y1="670" x2="300" y2="750" style="stroke:silver;"/>
  <line x1="300" y1="670" x2="300" y2="830" style="stroke:silver;"/>
  <line x1="300" y1="670" x2="300" y2="910" style="stroke:silver;"/>
  <line x1="300" y1="750" x2="300" y2="830" style="stroke:silver;"/>
  <line x1="300" y1="750" x2="300" y2="910" style="stroke:silver;"/>
  <line x1="300" y1="830" x2="300" y2="910" style="stroke:silver;"/>
  <rect x="1700" y="20" width="200" height="20" style="fill:chartreuse; stroke: black;"/>1
  <text x="1702" y="33">CORE_ZN</text>
  <rect x="700" y="420" width="200" height="20" style="fill:orange; stroke: black;"/>6
  <text x="702" y="433">SWHSYS1 WATER HEATER</text>
  <rect x="200" y="580" width="200" height="20" style="fill:snow; stroke: black;"/>7
  <text x="202" y="593">OutdoorAir:NodeList</text>
  <rect x="200" y="660" width="200" height="20" style="fill:snow; stroke: black;"/>8
  <text x="202" y="673">OutdoorAir:NodeList</text>
  <rect x="200" y="740" width="200" height="20" style="fill:snow; stroke: black;"/>9
  <text x="202" y="753">OutdoorAir:NodeList</text>
  <rect x="200" y="820" width="200" height="20" style="fill:snow; stroke: black;"/>10
  <text x="202" y="833">OutdoorAir:NodeList</text>
  <rect x="200" y="900" width="200" height="20" style="fill:snow; stroke: black;"/>11
  <text x="202" y="913">OutdoorAir:NodeList</text>
  <rect x="1950" y="500" width="200" height="20" style="fill:wheat; stroke: black;"/>38
  <text x="1952" y="513">SWHSYS1 DEMAND BYPASS PIPE</text>
  <rect x="1450" y="460" width="200" height="20" style="fill:wheat; stroke: black;"/>39
  <text x="1452" y="473">SWHSYS1 DEMAND INLET PIPE</text>
  <rect x="2450" y="500" width="200" height="20" style="fill:wheat; stroke: black;"/>40
  <text x="2452" y="513">SWHSYS1 DEMAND OUTLET PIPE</text>
  <rect x="700" y="460" width="200" height="20" style="fill:wheat; stroke: black;"/>41
  <text x="702" y="473">SWHSYS1 SUPPLY EQUIPMENT BYPASS PIPE</text>
  <rect x="1200" y="460" width="200" height="20" style="fill:wheat; stroke: black;"/>42
  <text x="1202" y="473">SWHSYS1 SUPPLY OUTLET PIPE</text>
  <rect x="1950" y="460" width="200" height="20" style="fill:wheat; stroke: black;"/>43
  <text x="1952" y="473">CORE_ZN WATER EQUIPMENT</text>
  <rect x="1700" y="460" width="200" height="20" style="fill:wheat; stroke: black;"/>44
  <text x="1702" y="473">SWHSYS1 DEMAND SPLITTER</text>
  <rect x="2200" y="500" width="200" height="20" style="fill:wheat; stroke: black;"/>45
  <text x="2202" y="513">SWHSYS1 DEMAND MIXER</text>
  <rect x="450" y="420" width="200" height="20" style="fill:wheat; stroke: black;"/>46
  <text x="452" y="433">SWHSYS1 SUPPLY SPLITTER</text>
  <rect x="950" y="460" width="200" height="20" style="fill:wheat; stroke: black;"/>47
  <text x="952" y="473">SWHSYS1 SUPPLY MIXER</text>
  <rect x="1200" y="20" width="200" height="20" style="fill:wheat; stroke: black;"/>48
  <text x="1202" y="33">PSZ-AC:1 SUPPLY AIR SPLITTER</text>
  <rect x="1200" y="100" width="200" height="20" style="fill:wheat; stroke: black;"/>49
  <text x="1202" y="113">PSZ-AC:2 SUPPLY AIR SPLITTER</text>
  <rect x="1200" y="180" width="200" height="20" style="fill:wheat; stroke: black;"/>50
  <text x="1202" y="193">PSZ-AC:3 SUPPLY AIR SPLITTER</text>
  <rect x="1200" y="260" width="200" height="20" style="fill:wheat; stroke: black;"/>51
  <text x="1202" y="273">PSZ-AC:4 SUPPLY AIR SPLITTER</text>
  <rect x="1200" y="340" width="200" height="20" style="fill:wheat; stroke: black;"/>52
  <text x="1202" y="353">PSZ-AC:5 SUPPLY AIR SPLITTER</text>
  <rect x="1450" y="20" width="200" height="20" style="fill:snow; stroke: black;"/>53
  <text x="1452" y="33">CORE_ZN DIRECT AIR</text>
  <rect x="1450" y="100" width="200" height="20" style="fill:snow; stroke: black;"/>54
  <text x="1452" y="113">PERIMETER_ZN_1 DIRECT AIR</text>
  <rect x="1450" y="180" width="200" height="20" style="fill:snow; stroke: black;"/>55
  <text x="1452" y="193">PERIMETER_ZN_2 DIRECT AIR</text>
  <rect x="1450" y="260" width="200" height="20" style="fill:snow; stroke: black;"/>56
  <text x="1452" y="273">PERIMETER_ZN_3 DIRECT AIR</text>
  <rect x="1450" y="340" width="200" height="20" style="fill:snow; stroke: black;"/>57
  <text x="1452" y="353">PERIMETER_ZN_4 DIRECT AIR</text>
  <rect x="1950" y="20" width="200" height="20" style="fill:wheat; stroke: black;"/>58
  <text x="1952" y="33">PSZ-AC:1 RETURN AIR MIXER</text>
  <rect x="1950" y="100" width="200" height="20" style="fill:wheat; stroke: black;"/>59
  <text x="1952" y="113">PSZ-AC:2 RETURN AIR MIXER</text>
  <rect x="1950" y="180" width="200" height="20" style="fill:wheat; stroke: black;"/>60
  <text x="1952" y="193">PSZ-AC:3 RETURN AIR MIXER</text>
  <rect x="1950" y="260" width="200" height="20" style="fill:wheat; stroke: black;"/>61
  <text x="1952" y="273">PSZ-AC:4 RETURN AIR MIXER</text>
  <rect x="1950" y="340" width="200" height="20" style="fill:wheat; stroke: black;"/>62
  <text x="1952" y="353">PSZ-AC:5 RETURN AIR MIXER</text>
  <rect x="200" y="20" width="200" height="20" style="fill:lawngreen; stroke: black;"/>63
  <text x="202" y="33">PSZ-AC:1_OAMIXING BOX</text>
  <rect x="200" y="100" width="200" height="20" style="fill:lawngreen; stroke: black;"/>64
  <text x="202" y="113">PSZ-AC:2_OAMIXING BOX</text>
  <rect x="200" y="180" width="200" height="20" style="fill:lawngreen; stroke: black;"/>65
  <text x="202" y="193">PSZ-AC:3_OAMIXING BOX</text>
  <rect x="200" y="260" width="200" height="20" style="fill:lawngreen; stroke: black;"/>66
  <text x="202" y="273">PSZ-AC:4_OAMIXING BOX</text>
  <rect x="200" y="340" width="200" height="20" style="fill:lawngreen; stroke: black;"/>67
  <text x="202" y="353">PSZ-AC:5_OAMIXING BOX</text>
  <rect x="950" y="100" width="200" height="20" style="fill:silver; stroke: black;"/>68
  <text x="952" y="113">PSZ-AC:2_FAN</text>
  <rect x="950" y="180" width="200" height="20" style="fill:silver; stroke: black;"/>69
  <text x="952" y="193">PSZ-AC:3_FAN</text>
  <rect x="950" y="260" width="200" height="20" style="fill:silver; stroke: black;"/>70
  <text x="952" y="273">PSZ-AC:4_FAN</text>
  <rect x="950" y="340" width="200" height="20" style="fill:silver; stroke: black;"/>71
  <text x="952" y="353">PSZ-AC:5_FAN</text>
  <rect x="950" y="20" width="200" height="20" style="fill:aliceblue; stroke: black;"/>72
  <text x="952" y="33">PSZ-AC:1_FAN</text>
  <rect x="450" y="20" width="200" height="20" style="fill:skyblue; stroke: black;"/>78
  <text x="452" y="33">PSZ-AC:1_COOLC DXCOIL</text>
  <rect x="450" y="100" width="200" height="20" style="fill:skyblue; stroke: black;"/>79
  <text x="452" y="113">PSZ-AC:2_COOLC DXCOIL</text>
  <rect x="450" y="180" width="200" height="20" style="fill:skyblue; stroke: black;"/>80
  <text x="452" y="193">PSZ-AC:3_COOLC DXCOIL</text>
  <rect x="450" y="260" width="200" height="20" style="fill:skyblue; stroke: black;"/>81
  <text x="452" y="273">PSZ-AC:4_COOLC DXCOIL</text>
  <rect x="450" y="340" width="200" height="20" style="fill:skyblue; stroke: black;"/>82
  <text x="452" y="353">PSZ-AC:5_COOLC DXCOIL</text>
  <rect x="700" y="20" width="200" height="20" style="fill:salmon; stroke: black;"/>83
  <text x="702" y="33">PSZ-AC:1_HEATC</text>
  <rect x="700" y="100" width="200" height="20" style="fill:salmon; stroke: black;"/>84
  <text x="702" y="113">PSZ-AC:2_HEATC</text>
  <rect x="700" y="180" width="200" height="20" style="fill:salmon; stroke: black;"/>85
  <text x="702" y="193">PSZ-AC:3_HEATC</text>
  <rect x="700" y="260" width="200" height="20" style="fill:salmon; stroke: black;"/>86
  <text x="702" y="273">PSZ-AC:4_HEATC</text>
  <rect x="700" y="340" width="200" height="20" style="fill:salmon; stroke: black;"/>87
  <text x="702" y="353">PSZ-AC:5_HEATC</text>
  <rect x="200" y="420" width="200" height="20" style="fill:springgreen; stroke: black;"/>88
  <text x="202" y="433">SWHSYS1 PUMP</text>
  <rect x="1700" y="100" width="200" height="20" style="fill:chartreuse; stroke: black;"/>89
  <text x="1702" y="113">PERIMETER_ZN_1</text>
  <rect x="1700" y="180" width="200" height="20" style="fill:chartreuse; stroke: black;"/>90
  <text x="1702" y="193">PERIMETER_ZN_2</text>
  <rect x="1700" y="260" width="200" height="20" style="fill:chartreuse; stroke: black;"/>91
  <text x="1702" y="273">PERIMETER_ZN_3</text>
  <rect x="1700" y="340" width="200" height="20" style="fill:chartreuse; stroke: black;"/>92
  <text x="1702" y="353">PERIMETER_ZN_4</text>
  <line x1="900" y1="430" x2="950" y2="470" style="stroke:black;"/>
  <line x1="2150" y1="510" x2="2200" y2="510" style="stroke:black;"/>
  <line x1="1650" y1="470" x2="1700" y2="470" style="stroke:black;"/>
  <line x1="900" y1="470" x2="950" y2="470" style="stroke:black;"/>
  <line x1="1400" y1="470" x2="1450" y2="470" style="stroke:black;"/>
  <line x1="2150" y1="470" x2="2200" y2="510" style="stroke:black;"/>
  <line x1="1900" y1="470" x2="1950" y2="470" style="stroke:black;"/>
  <line x1="1900" y1="470" x2="1950" y2="510" style="stroke:black;"/>
  <line x1="2400" y1="510" x2="2450" y2="510" style="stroke:black;"/>
  <line x1="650" y1="430" x2="700" y2="430" style="stroke:black;"/>
  <line x1="650" y1="430" x2="700" y2="470" style="stroke:black;"/>
  <line x1="1150" y1="470" x2="1200" y2="470" style="stroke:black;"/>
  <line x1="1400" y1="30" x2="1450" y2="30" style="stroke:black;"/>
  <line x1="1400" y1="110" x2="1450" y2="110" style="stroke:black;"/>
  <line x1="1400" y1="190" x2="1450" y2="190" style="stroke:black;"/>
  <line x1="1400" y1="270" x2="1450" y2="270" style="stroke:black;"/>
  <line x1="1400" y1="350" x2="1450" y2="350" style="stroke:black;"/>
  <line x1="1650" y1="30" x2="1700" y2="30" style="stroke:black;"/>
  <line x1="1650" y1="110" x2="1700" y2="110" style="stroke:black;"/>
  <line x1="1650" y1="190" x2="1700" y2="190" style="stroke:black;"/>
  <line x1="1650" y1="270" x2="1700" y2="270" style="stroke:black;"/>
  <line x1="1650" y1="350" x2="1700" y2="350" style="stroke:black;"/>
  <line x1="400" y1="30" x2="450" y2="30" style="stroke:black;"/>
  <line x1="400" y1="110" x2="450" y2="110" style="stroke:black;"/>
  <line x1="400" y1="190" x2="450" y2="190" style="stroke:black;"/>
  <line x1="400" y1="270" x2="450" y2="270" style="stroke:black;"/>
  <line x1="400" y1="350" x2="450" y2="350" style="stroke:black;"/>
  <line x1="1150" y1="110" x2="1200" y2="110" style="stroke:black;"/>
  <line x1="1150" y1="190" x2="1200" y2="190" style="stroke:black;"/>
  <line x1="1150" y1="270" x2="1200" y2="270" style="stroke:black;"/>
  <line x1="1150" y1="350" x2="1200" y2="350" style="stroke:black;"/>
  <line x1="1150" y1="30" x2="1200" y2="30" style="stroke:black;"/>
  <line x1="650" y1="30" x2="700" y2="30" style="stroke:black;"/>
  <line x1="650" y1="110" x2="700" y2="110" style="stroke:black;"/>
  <line x1="650" y1="190" x2="700" y2="190" style="stroke:black;"/>
  <line x1="650" y1="270" x2="700" y2="270" style="stroke:black;"/>
  <line x1="650" y1="350" x2="700" y2="350" style="stroke:black;"/>
  <line x1="900" y1="30" x2="950" y2="30" style="stroke:black;"/>
  <line x1="900" y1="110" x2="950" y2="110" style="stroke:black;"/>
  <line x1="900" y1="190" x2="950" y2="190" style="stroke:black;"/>
  <line x1="900" y1="270" x2="950" y2="270" style="stroke:black;"/>
  <line x1="900" y1="350" x2="950" y2="350" style="stroke:black;"/>
  <line x1="400" y1="430" x2="450" y2="430" style="stroke:black;"/>
  <line x1="1900" y1="30" x2="1950" y2="30" style="stroke:black;"/>
  <line x1="1900" y1="110" x2="1950" y2="110" style="stroke:black;"/>
  <line x1="1900" y1="190" x2="1950" y2="190" style="stroke:black;"/>
  <line x1="1900" y1="270" x2="1950" y2="270" style="stroke:black;"/>
  <line x1="1900" y1="350" x2="1950" y2="350" style="stroke:black;"/>
  <line x1="200" y1="30" x2="175" y2="30" style="stroke:black;"/>
  <line x1="175" y1="30" x2="175" y2="0" style="stroke:black;"/>
  <line x1="175" y1="0" x2="2175" y2="0" style="stroke:black;"/>
  <line x1="2175" y1="0" x2="2175" y2="30" style="stroke:black;"/>
  <line x1="2175" y1="30" x2="2150" y2="30" style="stroke:black;"/>
  <line x1="200" y1="110" x2="175" y2="110" style="stroke:black;"/>
  <line x1="175" y1="110" x2="175" y2="80" style="stroke:black;"/>
  <line x1="175" y1="80" x2="2175" y2="80" style="stroke:black;"/>
  <line x1="2175" y1="80" x2="2175" y2="110" style="stroke:black;"/>
  <line x1="2175" y1="110" x2="2150" y2="110" style="stroke:black;"/>
  <line x1="200" y1="190" x2="175" y2="190" style="stroke:black;"/>
  <line x1="175" y1="190" x2="175" y2="160" style="stroke:black;"/>
  <line x1="175" y1="160" x2="2175" y2="160" style="stroke:black;"/>
  <line x1="2175" y1="160" x2="2175" y2="190" style="stroke:black;"/>
  <line x1="2175" y1="190" x2="2150" y2="190" style="stroke:black;"/>
  <line x1="200" y1="270" x2="175" y2="270" style="stroke:black;"/>
  <line x1="175" y1="270" x2="175" y2="240" style="stroke:black;"/>
  <line x1="175" y1="240" x2="2175" y2="240" style="stroke:black;"/>
  <line x1="2175" y1="240" x2="2175" y2="270" style="stroke:black;"/>
  <line x1="2175" y1="270" x2="2150" y2="270" style="stroke:black;"/>
  <line x1="200" y1="350" x2="175" y2="350" style="stroke:black;"/>
  <line x1="175" y1="350" x2="175" y2="320" style="stroke:black;"/>
  <line x1="175" y1="320" x2="2175" y2="320" style="stroke:black;"/>
  <line x1="2175" y1="320" x2="2175" y2="350" style="stroke:black;"/>
  <line x1="2175" y1="350" x2="2150" y2="350" style="stroke:black;"/>
  <line x1="200" y1="430" x2="175" y2="430" style="stroke:black;"/>
  <line x1="175" y1="430" x2="175" y2="400" style="stroke:black;"/>
  <line x1="175" y1="400" x2="2675" y2="400" style="stroke:black;"/>
  <line x1="2675" y1="400" x2="2675" y2="510" style="stroke:black;"/>
  <line x1="2675" y1="510" x2="2650" y2="510" style="stroke:black;"/>
  <text x="200" y="960">Unused Non-Parent Objects:</text>
  <text x="220" y="980">OutdoorAir:Node</text>
  <text x="220" y="1000">OutdoorAir:Node</text>
  <text x="220" y="1020">OutdoorAir:Node</text>
  <text x="220" y="1040">OutdoorAir:Node</text>
  <text x="220" y="1060">OutdoorAir:Node</text>
  <text x="220" y="1080">SWHSYS1 LOOP SETPOINT MANAGER</text>
  <text x="220" y="1100">SUPAIRTEMP MNGRCORE_ZN</text>
  <text x="220" y="1120">SUPAIRTEMP MNGRPERIMETER_ZN_1</text>
  <text x="220" y="1140">SUPAIRTEMP MNGRPERIMETER_ZN_2</text>
  <text x="220" y="1160">SUPAIRTEMP MNGRPERIMETER_ZN_3</text>
  <text x="220" y="1180">SUPAIRTEMP MNGRPERIMETER_ZN_4</text>
  <text x="220" y="1200">PSZ-AC:1_COOLC SAT MANAGER</text>
  <text x="220" y="1220">PSZ-AC:1_HEATC MIXEDAIR MANAGER</text>
  <text x="220" y="1240">PSZ-AC:1_OAMIXED AIR TEMP MANAGER</text>
  <text x="220" y="1260">PSZ-AC:2_COOLC SAT MANAGER</text>
  <text x="220" y="1280">PSZ-AC:2_HEATC MIXEDAIR MANAGER</text>
  <text x="220" y="1300">PSZ-AC:2_OAMIXED AIR TEMP MANAGER</text>
  <text x="220" y="1320">PSZ-AC:3_COOLC SAT MANAGER</text>
  <text x="220" y="1340">PSZ-AC:3_HEATC MIXEDAIR MANAGER</text>
  <text x="220" y="1360">PSZ-AC:3_OAMIXED AIR TEMP MANAGER</text>
  <text x="220" y="1380">PSZ-AC:4_COOLC SAT MANAGER</text>
  <text x="220" y="1400">PSZ-AC:4_HEATC MIXEDAIR MANAGER</text>
  <text x="220" y="1420">PSZ-AC:4_OAMIXED AIR TEMP MANAGER</text>
  <text x="220" y="1440">PSZ-AC:5_COOLC SAT MANAGER</text>
  <text x="220" y="1460">PSZ-AC:5_HEATC MIXEDAIR MANAGER</text>
  <text x="220" y="1480">PSZ-AC:5_OAMIXED AIR TEMP MANAGER</text>
  <text x="220" y="1500">PSZ-AC:1_OA_CONTROLLER</text>
  <text x="220" y="1520">PSZ-AC:2_OA_CONTROLLER</text>
  <text x="220" y="1540">PSZ-AC:3_OA_CONTROLLER</text>
  <text x="220" y="1560">PSZ-AC:4_OA_CONTROLLER</text>
  <text x="220" y="1580">PSZ-AC:5_OA_CONTROLLER</text>
  <text x="200" y="1620">
The following are not supported: objects related to controls or ZoneHVAC:IdealLoadsAirSystem</text>
</g>
</svg>
