<?xml version="1.0" standalone="no"?>
<!DOCTYPE svg PUBLIC "-//W3C//DTD SVG 20010904//EN"
 "http://www.w3.org/TR/2001/REC-SVG-20010904/DTD/svg10.dtd">
<svg version="1.0" xmlns="http://www.w3.org/2000/svg"
 width="462.000000pt" height="116.000000pt" viewBox="0 0 462.000000 116.000000"
 preserveAspectRatio="xMidYMid meet">
<metadata>
Created by potrace 1.13, written by Peter Selinger 2001-2015
</metadata>
<g transform="translate(0.000000,116.000000) scale(0.100000,-0.100000)"
fill="#000000" stroke="none">
<path d="M980 943 c-18 -49 -35 -94 -38 -100 -2 -7 2 -13 11 -13 12 0 30 39
85 188 2 6 -2 12 -11 12 -9 0 -26 -32 -47 -87z"/>
<path d="M1880 943 c-18 -49 -35 -94 -38 -100 -2 -7 2 -13 11 -13 12 0 30 39
85 188 2 6 -2 12 -11 12 -9 0 -26 -32 -47 -87z"/>
<path d="M2780 943 c-18 -49 -35 -94 -38 -100 -2 -7 2 -13 11 -13 12 0 30 39
85 188 2 6 -2 12 -11 12 -9 0 -26 -32 -47 -87z"/>
<path d="M3670 943 c-18 -49 -35 -94 -38 -100 -2 -7 2 -13 11 -13 12 0 30 39
85 188 2 6 -2 12 -11 12 -9 0 -26 -32 -47 -87z"/>
<path d="M1065 960 c-32 -63 -31 -70 5 -70 20 0 30 -5 30 -15 0 -8 7 -15 15
-15 8 0 15 6 15 14 0 8 6 17 13 20 10 5 10 7 0 12 -8 3 -13 25 -13 55 0 42 -3
49 -20 49 -14 0 -27 -15 -45 -50z m35 -15 c0 -23 -5 -35 -14 -35 -12 0 -12 6
-3 35 6 19 12 35 14 35 2 0 3 -16 3 -35z"/>
<path d="M1965 960 c-32 -63 -31 -70 5 -70 20 0 30 -5 30 -15 0 -8 7 -15 15
-15 8 0 15 6 15 14 0 8 6 17 13 20 10 5 10 7 0 12 -8 3 -13 25 -13 55 0 42 -3
49 -20 49 -14 0 -27 -15 -45 -50z m35 -15 c0 -23 -5 -35 -14 -35 -12 0 -12 6
-3 35 6 19 12 35 14 35 2 0 3 -16 3 -35z"/>
<path d="M2865 960 c-32 -63 -31 -70 5 -70 20 0 30 -5 30 -15 0 -8 7 -15 15
-15 8 0 15 6 15 14 0 8 6 17 13 20 10 5 10 7 0 12 -8 3 -13 25 -13 55 0 42 -3
49 -20 49 -14 0 -27 -15 -45 -50z m35 -15 c0 -23 -5 -35 -14 -35 -12 0 -12 6
-3 35 6 19 12 35 14 35 2 0 3 -16 3 -35z"/>
<path d="M3755 960 c-32 -63 -31 -70 5 -70 20 0 30 -5 30 -15 0 -8 7 -15 15
-15 8 0 15 6 15 14 0 8 6 17 13 20 10 5 10 7 0 12 -8 3 -13 25 -13 55 0 42 -3
49 -20 49 -14 0 -27 -15 -45 -50z m35 -15 c0 -23 -5 -35 -14 -35 -12 0 -12 6
-3 35 6 19 12 35 14 35 2 0 3 -16 3 -35z"/>
<path d="M840 965 c0 -2 5 -15 11 -29 10 -20 9 -30 -5 -51 -16 -24 -15 -25 2
-25 11 0 23 10 29 23 l10 22 7 -22 c4 -14 15 -23 27 -23 19 0 19 1 3 25 -14
21 -15 31 -5 51 14 32 14 34 -4 34 -9 0 -19 -10 -24 -22 l-8 -22 -5 22 c-4 12
-13 22 -22 22 -9 0 -16 -2 -16 -5z"/>
<path d="M1740 965 c0 -2 5 -15 11 -29 10 -20 9 -30 -5 -51 -16 -24 -15 -25 2
-25 11 0 23 10 29 23 l10 22 7 -22 c4 -14 15 -23 27 -23 19 0 19 1 3 25 -14
21 -15 31 -5 51 14 32 14 34 -4 34 -9 0 -19 -10 -24 -22 l-8 -22 -5 22 c-4 12
-13 22 -22 22 -9 0 -16 -2 -16 -5z"/>
<path d="M2640 965 c0 -2 5 -15 11 -29 10 -20 9 -30 -5 -51 -16 -24 -15 -25 2
-25 11 0 23 10 29 23 l10 22 7 -22 c4 -14 15 -23 27 -23 19 0 19 1 3 25 -14
21 -15 31 -5 51 14 32 14 34 -4 34 -9 0 -19 -10 -24 -22 l-8 -22 -5 22 c-4 12
-13 22 -22 22 -9 0 -16 -2 -16 -5z"/>
<path d="M3530 965 c0 -2 5 -15 11 -29 10 -20 9 -30 -5 -51 -16 -24 -15 -25 2
-25 11 0 23 10 29 23 l10 22 7 -22 c4 -14 15 -23 27 -23 19 0 19 1 3 25 -14
21 -15 31 -5 51 14 32 14 34 -4 34 -9 0 -19 -10 -24 -22 l-8 -22 -5 22 c-4 12
-13 22 -22 22 -9 0 -16 -2 -16 -5z"/>
<path d="M491 656 c-8 -9 -11 -105 -9 -332 l3 -319 1815 0 1815 0 3 324 c2
253 -1 326 -10 333 -7 4 -821 8 -1809 8 -1509 0 -1798 -2 -1808 -14z m889
-321 l0 -295 -430 0 -430 0 0 295 0 295 430 0 430 0 0 -295z m900 0 l0 -295
-430 0 -430 0 0 295 0 295 430 0 430 0 0 -295z m900 0 l0 -295 -430 0 -430 0
0 295 0 295 430 0 430 0 0 -295z m900 0 l0 -295 -430 0 -430 0 0 295 0 295
430 0 430 0 0 -295z"/>
<path d="M881 396 c-66 -70 12 -182 101 -145 35 14 63 68 52 102 -20 67 -107
92 -153 43z m95 -24 c50 -34 -2 -111 -56 -82 -23 12 -28 58 -8 78 13 13 47 16
64 4z"/>
<path d="M1781 396 c-66 -70 12 -182 101 -145 35 14 63 68 52 102 -20 67 -107
92 -153 43z m95 -24 c50 -34 -2 -111 -56 -82 -23 12 -28 58 -8 78 13 13 47 16
64 4z"/>
<path d="M2681 396 c-66 -70 12 -182 101 -145 35 14 63 68 52 102 -20 67 -107
92 -153 43z m95 -24 c50 -34 -2 -111 -56 -82 -23 12 -28 58 -8 78 13 13 47 16
64 4z"/>
<path d="M3581 396 c-66 -70 12 -182 101 -145 35 14 63 68 52 102 -20 67 -107
92 -153 43z m95 -24 c50 -34 -2 -111 -56 -82 -23 12 -28 58 -8 78 13 13 47 16
64 4z"/>
<path d="M170 374 c-18 -46 -6 -134 18 -134 5 0 4 18 -1 40 -8 28 -8 52 0 80
11 44 -2 55 -17 14z"/>
<path d="M323 360 c8 -28 8 -52 0 -80 -8 -30 -7 -40 1 -37 31 10 31 144 0 154
-8 3 -9 -7 -1 -37z"/>
<path d="M4270 374 c-18 -46 -6 -134 18 -134 5 0 4 18 -1 40 -8 28 -8 52 0 80
11 44 -2 55 -17 14z"/>
<path d="M4320 336 c0 -63 0 -64 28 -64 34 0 52 14 52 43 0 27 -24 49 -45 41
-11 -4 -15 1 -15 19 0 14 -4 25 -10 25 -6 0 -10 -28 -10 -64z m55 -22 c0 -19
-5 -29 -15 -29 -16 0 -25 28 -16 51 10 25 31 10 31 -22z"/>
<path d="M4433 360 c8 -28 8 -52 0 -80 -8 -30 -7 -40 1 -37 6 2 15 20 20 40
10 41 -2 108 -20 114 -8 3 -9 -7 -1 -37z"/>
<path d="M225 350 c-4 -7 2 -9 19 -4 20 5 26 2 26 -9 0 -9 -10 -17 -22 -19
-15 -2 -23 -10 -23 -23 0 -16 7 -20 33 -22 33 -1 33 -1 30 40 -3 37 -6 42 -30
45 -14 2 -29 -2 -33 -8z m43 -52 c-6 -18 -28 -21 -28 -4 0 9 7 16 16 16 9 0
14 -5 12 -12z"/>
</g>
</svg>
