<?xml version="1.0" standalone="no"?>
<!DOCTYPE svg PUBLIC "-//W3C//DTD SVG 20010904//EN"
 "http://www.w3.org/TR/2001/REC-SVG-20010904/DTD/svg10.dtd">
<svg version="1.0" xmlns="http://www.w3.org/2000/svg"
 width="372.000000pt" height="123.000000pt" viewBox="0 0 372.000000 123.000000"
 preserveAspectRatio="xMidYMid meet">
<metadata>
Created by potrace 1.13, written by Peter Selinger 2001-2015
</metadata>
<g transform="translate(0.000000,123.000000) scale(0.100000,-0.100000)"
fill="#000000" stroke="none">
<path d="M720 1013 c-18 -49 -35 -94 -38 -100 -2 -7 2 -13 11 -13 12 0 30 39
85 188 2 6 -2 12 -11 12 -9 0 -26 -32 -47 -87z"/>
<path d="M1960 1013 c-18 -49 -35 -94 -38 -100 -2 -7 2 -13 11 -13 12 0 30 39
85 188 2 6 -2 12 -11 12 -9 0 -26 -32 -47 -87z"/>
<path d="M3090 1013 c-18 -49 -35 -94 -38 -100 -2 -7 2 -13 11 -13 12 0 30 39
85 188 2 6 -2 12 -11 12 -9 0 -26 -32 -47 -87z"/>
<path d="M797 1073 c-14 -14 -6 -22 21 -20 33 2 38 -26 5 -31 -32 -5 -29 -20
5 -24 19 -2 27 -9 27 -23 0 -16 -6 -20 -33 -18 -35 1 -41 -19 -8 -25 53 -11
95 34 63 65 -12 12 -13 20 -4 34 8 13 8 21 -2 33 -13 16 -62 22 -74 9z"/>
<path d="M2037 1073 c-14 -14 -6 -22 21 -20 33 2 38 -26 5 -31 -32 -5 -29 -20
5 -24 19 -2 27 -9 27 -23 0 -16 -6 -20 -33 -18 -35 1 -41 -19 -8 -25 53 -11
95 34 63 65 -12 12 -13 20 -4 34 8 13 8 21 -2 33 -13 16 -62 22 -74 9z"/>
<path d="M3167 1073 c-14 -14 -6 -22 21 -20 33 2 38 -26 5 -31 -32 -5 -29 -20
5 -24 19 -2 27 -9 27 -23 0 -16 -6 -20 -33 -18 -35 1 -41 -19 -8 -25 53 -11
95 34 63 65 -12 12 -13 20 -4 34 8 13 8 21 -2 33 -13 16 -62 22 -74 9z"/>
<path d="M580 1035 c0 -2 5 -15 11 -29 10 -20 9 -30 -5 -51 -16 -24 -15 -25 2
-25 11 0 23 10 29 23 l10 22 7 -22 c4 -14 15 -23 27 -23 19 0 19 1 3 25 -14
21 -15 31 -5 51 14 32 14 34 -4 34 -9 0 -19 -10 -24 -22 l-8 -22 -5 22 c-4 12
-13 22 -22 22 -9 0 -16 -2 -16 -5z"/>
<path d="M1820 1035 c0 -2 5 -15 11 -29 10 -20 9 -30 -5 -51 -16 -24 -15 -25
2 -25 11 0 23 10 29 23 l10 22 7 -22 c4 -14 15 -23 27 -23 19 0 19 1 3 25 -14
21 -15 31 -5 51 14 32 14 34 -4 34 -9 0 -19 -10 -24 -22 l-8 -22 -5 22 c-4 12
-13 22 -22 22 -9 0 -16 -2 -16 -5z"/>
<path d="M2950 1035 c0 -2 5 -15 11 -29 10 -20 9 -30 -5 -51 -16 -24 -15 -25
2 -25 11 0 23 10 29 23 l10 22 7 -22 c4 -14 15 -23 27 -23 19 0 19 1 3 25 -14
21 -15 31 -5 51 14 32 14 34 -4 34 -9 0 -19 -10 -24 -22 l-8 -22 -5 22 c-4 12
-13 22 -22 22 -9 0 -16 -2 -16 -5z"/>
<path d="M92 658 c-8 -8 -12 -49 -12 -115 0 -79 -3 -103 -13 -103 -24 0 -58
-46 -59 -79 -1 -42 20 -80 49 -87 22 -6 23 -10 25 -138 l3 -131 1815 0 1815 0
3 324 c2 253 -1 326 -10 333 -7 4 -821 8 -1809 8 -1376 0 -1798 -3 -1807 -12z
m1178 -323 l0 -295 -575 0 -575 0 0 114 c0 108 1 115 21 121 26 9 51 67 43
100 -3 14 -19 36 -35 49 -28 24 -29 28 -29 115 l0 91 575 0 575 0 0 -295z
m1220 0 l0 -295 -580 0 -580 0 0 295 0 295 580 0 580 0 0 -295z m1190 0 l0
-295 -575 0 -575 0 0 295 0 295 575 0 575 0 0 -295z m-3600 19 c0 -32 -4 -44
-12 -42 -17 6 -22 56 -7 74 17 21 19 18 19 -32z m60 27 c0 -5 2 -15 5 -23 3
-7 -1 -22 -9 -33 -14 -19 -15 -17 -16 23 0 23 5 42 10 42 6 0 10 -4 10 -9z"/>
<path d="M651 396 c-66 -70 12 -182 101 -145 35 14 63 68 52 102 -20 67 -107
92 -153 43z m95 -24 c50 -34 -2 -111 -56 -82 -23 12 -28 58 -8 78 13 13 47 16
64 4z"/>
<path d="M1851 416 c-66 -70 12 -182 101 -145 35 14 63 68 52 102 -20 67 -107
92 -153 43z m95 -24 c50 -34 -2 -111 -56 -82 -23 12 -28 58 -8 78 13 13 47 16
64 4z"/>
<path d="M3051 406 c-66 -70 12 -182 101 -145 35 14 63 68 52 102 -20 67 -107
92 -153 43z m95 -24 c50 -34 -2 -111 -56 -82 -23 12 -28 58 -8 78 13 13 47 16
64 4z"/>
</g>
</svg>
