<?xml version="1.0" standalone="no"?>
<!DOCTYPE svg PUBLIC "-//W3C//DTD SVG 20010904//EN"
 "http://www.w3.org/TR/2001/REC-SVG-20010904/DTD/svg10.dtd">
<svg version="1.0" xmlns="http://www.w3.org/2000/svg"
 width="380.000000pt" height="124.000000pt" viewBox="0 0 380.000000 124.000000"
 preserveAspectRatio="xMidYMid meet">
<metadata>
Created by potrace 1.13, written by Peter Selinger 2001-2015
</metadata>
<g transform="translate(0.000000,124.000000) scale(0.100000,-0.100000)"
fill="#000000" stroke="none">
<path d="M1030 1023 c-18 -49 -35 -94 -38 -100 -2 -7 2 -13 11 -13 12 0 30 39
85 188 2 6 -2 12 -11 12 -9 0 -26 -32 -47 -87z"/>
<path d="M2810 1023 c-18 -49 -35 -94 -38 -100 -2 -7 2 -13 11 -13 12 0 30 39
85 188 2 6 -2 12 -11 12 -9 0 -26 -32 -47 -87z"/>
<path d="M1113 1083 c-23 -9 -14 -22 14 -20 39 3 40 -22 3 -68 -16 -21 -30
-42 -30 -46 0 -5 23 -9 50 -9 28 0 50 5 50 10 0 6 -16 10 -36 10 l-36 0 31 35
c33 38 39 63 19 83 -12 12 -43 15 -65 5z"/>
<path d="M2893 1083 c-23 -9 -14 -22 14 -20 39 3 40 -22 3 -68 -16 -21 -30
-42 -30 -46 0 -5 23 -9 50 -9 28 0 50 5 50 10 0 6 -16 10 -36 10 l-36 0 31 35
c33 38 39 63 19 83 -12 12 -43 15 -65 5z"/>
<path d="M890 1045 c0 -2 5 -15 11 -29 10 -20 9 -30 -5 -51 -16 -24 -15 -25 2
-25 11 0 23 10 29 23 l10 22 7 -22 c4 -14 15 -23 27 -23 19 0 19 1 3 25 -14
21 -15 31 -5 51 14 32 14 34 -4 34 -9 0 -19 -10 -24 -22 l-8 -22 -5 22 c-4 12
-13 22 -22 22 -9 0 -16 -2 -16 -5z"/>
<path d="M2670 1045 c0 -2 5 -15 11 -29 10 -20 9 -30 -5 -51 -16 -24 -15 -25
2 -25 11 0 23 10 29 23 l10 22 7 -22 c4 -14 15 -23 27 -23 19 0 19 1 3 25 -14
21 -15 31 -5 51 14 32 14 34 -4 34 -9 0 -19 -10 -24 -22 l-8 -22 -5 22 c-4 12
-13 22 -22 22 -9 0 -16 -2 -16 -5z"/>
<path d="M82 658 c-8 -8 -12 -48 -12 -115 0 -103 0 -103 -31 -131 -21 -19 -30
-37 -31 -60 -1 -39 19 -80 43 -87 16 -5 19 -21 21 -133 l3 -127 1820 0 1820 0
3 122 3 123 28 15 c32 16 56 70 45 101 -10 27 -45 64 -61 64 -10 0 -13 26 -13
114 0 95 -3 115 -16 120 -9 3 -824 6 -1813 6 -1384 0 -1800 -3 -1809 -12z
m1788 -323 l0 -295 -880 0 -880 0 0 105 0 104 29 16 c32 16 56 70 45 101 -10
27 -45 64 -61 64 -10 0 -13 24 -13 100 l0 100 880 0 880 0 0 -295z m1810 200
c0 -94 -1 -96 -31 -123 -21 -19 -30 -37 -31 -60 -1 -40 19 -80 44 -88 16 -5
18 -17 18 -115 l0 -109 -880 0 -880 0 0 295 0 295 880 0 880 0 0 -95z m-3536
-177 c5 -23 -9 -58 -24 -58 -6 0 -10 20 -10 45 0 34 3 43 14 39 8 -3 16 -15
20 -26z m3610 0 c5 -23 -9 -58 -24 -58 -6 0 -10 20 -10 45 0 34 3 43 14 39 8
-3 16 -15 20 -26z m-3684 -19 c0 -24 -4 -38 -10 -34 -17 10 -11 75 7 75 2 0 3
-18 3 -41z m3610 0 c0 -24 -4 -38 -10 -34 -17 10 -11 75 7 75 2 0 3 -18 3 -41z"/>
<path d="M931 396 c-66 -70 12 -182 101 -145 35 14 63 68 52 102 -20 67 -107
92 -153 43z m95 -24 c50 -34 -2 -111 -56 -82 -23 12 -28 58 -8 78 13 13 47 16
64 4z"/>
<path d="M2741 406 c-66 -70 12 -182 101 -145 35 14 63 68 52 102 -20 67 -107
92 -153 43z m95 -24 c50 -34 -2 -111 -56 -82 -23 12 -28 58 -8 78 13 13 47 16
64 4z"/>
</g>
</svg>
