<?xml version="1.0" standalone="no"?>
<!DOCTYPE svg PUBLIC "-//W3C//DTD SVG 20010904//EN"
 "http://www.w3.org/TR/2001/REC-SVG-20010904/DTD/svg10.dtd">
<svg version="1.0" xmlns="http://www.w3.org/2000/svg"
 width="562.000000pt" height="117.000000pt" viewBox="0 0 562.000000 117.000000"
 preserveAspectRatio="xMidYMid meet">
<metadata>
Created by potrace 1.13, written by Peter Selinger 2001-2015
</metadata>
<g transform="translate(0.000000,117.000000) scale(0.100000,-0.100000)"
fill="#000000" stroke="none">
<path d="M1930 963 c-18 -49 -35 -94 -38 -100 -2 -7 2 -13 11 -13 12 0 30 39
85 188 2 6 -2 12 -11 12 -9 0 -26 -32 -47 -87z"/>
<path d="M3720 963 c-18 -49 -35 -94 -38 -100 -2 -7 2 -13 11 -13 12 0 30 39
85 188 2 6 -2 12 -11 12 -9 0 -26 -32 -47 -87z"/>
<path d="M2013 1023 c-23 -9 -14 -22 14 -20 39 3 40 -22 3 -68 -16 -21 -30
-42 -30 -46 0 -5 23 -9 50 -9 28 0 50 5 50 10 0 6 -16 10 -36 10 l-36 0 31 35
c33 38 39 63 19 83 -12 12 -43 15 -65 5z"/>
<path d="M3803 1023 c-23 -9 -14 -22 14 -20 39 3 40 -22 3 -68 -16 -21 -30
-42 -30 -46 0 -5 23 -9 50 -9 28 0 50 5 50 10 0 6 -16 10 -36 10 l-36 0 31 35
c33 38 39 63 19 83 -12 12 -43 15 -65 5z"/>
<path d="M1790 985 c0 -2 5 -15 11 -29 10 -20 9 -30 -5 -51 -16 -24 -15 -25 2
-25 11 0 23 10 29 23 l10 22 7 -22 c4 -14 15 -23 27 -23 19 0 19 1 3 25 -14
21 -15 31 -5 51 14 32 14 34 -4 34 -9 0 -19 -10 -24 -22 l-8 -22 -5 22 c-4 12
-13 22 -22 22 -9 0 -16 -2 -16 -5z"/>
<path d="M3580 985 c0 -2 5 -15 11 -29 10 -20 9 -30 -5 -51 -16 -24 -15 -25 2
-25 11 0 23 10 29 23 l10 22 7 -22 c4 -14 15 -23 27 -23 19 0 19 1 3 25 -14
21 -15 31 -5 51 14 32 14 34 -4 34 -9 0 -19 -10 -24 -22 l-8 -22 -5 22 c-4 12
-13 22 -22 22 -9 0 -16 -2 -16 -5z"/>
<path d="M992 658 c-8 -8 -12 -48 -12 -115 0 -79 -3 -103 -13 -103 -24 0 -58
-46 -59 -79 -1 -42 20 -80 49 -87 22 -6 23 -10 25 -138 l3 -131 1820 0 1820 0
3 132 c2 123 4 132 23 138 26 9 51 67 43 100 -3 14 -19 36 -35 49 -29 24 -29
26 -29 129 0 86 -3 106 -16 111 -9 3 -824 6 -1813 6 -1384 0 -1800 -3 -1809
-12z m1788 -323 l0 -295 -880 0 -880 0 0 114 c0 108 1 115 21 121 26 9 51 67
43 100 -3 14 -19 36 -35 49 -28 24 -29 28 -29 115 l0 91 880 0 880 0 0 -295z
m1810 200 c0 -72 -3 -95 -13 -95 -24 0 -58 -46 -59 -79 -1 -42 20 -80 49 -87
22 -6 23 -9 23 -120 l0 -114 -880 0 -880 0 0 295 0 295 880 0 880 0 0 -95z
m-3610 -181 c0 -32 -4 -44 -12 -42 -17 6 -22 56 -7 74 17 21 19 18 19 -32z
m3656 38 c50 -34 -2 -111 -56 -82 -23 12 -28 58 -8 78 13 13 47 16 64 4z
m-3596 -11 c0 -5 2 -15 5 -23 3 -7 -1 -22 -9 -33 -14 -19 -15 -17 -16 23 0 23
5 42 10 42 6 0 10 -4 10 -9z"/>
<path d="M1831 416 c-66 -70 12 -182 101 -145 35 14 63 68 52 102 -20 67 -107
92 -153 43z m95 -24 c50 -34 -2 -111 -56 -82 -23 12 -28 58 -8 78 13 13 47 16
64 4z"/>
<path d="M3641 426 c-66 -70 12 -182 101 -145 35 14 63 68 52 102 -20 67 -107
92 -153 43z m95 -24 c50 -34 -2 -111 -56 -82 -23 12 -28 58 -8 78 13 13 47 16
64 4z"/>
<path d="M5032 400 c-9 -25 -3 -110 9 -110 5 0 9 18 9 39 0 22 5 42 13 44 10
4 10 6 0 6 -19 1 -15 29 5 34 12 4 11 5 -6 6 -14 1 -25 -6 -30 -19z"/>
<path d="M5370 356 c0 -63 0 -64 28 -64 34 0 52 14 52 43 0 27 -24 49 -45 41
-11 -4 -15 1 -15 19 0 14 -4 25 -10 25 -6 0 -10 -28 -10 -64z m55 -22 c0 -19
-5 -29 -15 -29 -16 0 -25 28 -16 51 10 25 31 10 31 -22z"/>
<path d="M4772 398 c-18 -18 -15 -30 15 -53 30 -25 24 -50 -10 -39 -17 5 -19
3 -11 -6 16 -16 44 -9 58 13 9 15 6 22 -18 42 -31 25 -27 50 6 39 14 -4 18 -2
14 5 -9 15 -39 14 -54 -1z"/>
<path d="M432 380 c-9 -25 -3 -110 9 -110 5 0 9 18 9 39 0 22 5 42 13 44 10 4
10 6 0 6 -19 1 -15 29 5 34 12 4 11 5 -6 6 -14 1 -25 -6 -30 -19z"/>
<path d="M172 378 c-18 -18 -15 -30 15 -53 30 -25 24 -50 -10 -39 -17 5 -19 3
-11 -6 16 -16 44 -9 58 13 9 15 6 22 -18 42 -31 25 -27 50 6 39 14 -4 18 -2
14 5 -9 15 -39 14 -54 -1z"/>
<path d="M4850 346 c0 -39 14 -54 53 -54 25 0 27 3 27 44 0 54 -18 59 -22 7
-2 -26 -8 -38 -18 -38 -10 0 -16 12 -18 38 -4 46 -22 49 -22 3z"/>
<path d="M4950 334 c0 -24 5 -44 10 -44 6 0 10 16 10 35 0 21 6 37 17 43 13 8
11 10 -10 10 -25 0 -27 -4 -27 -44z"/>
<path d="M5085 370 c-4 -7 2 -9 19 -4 20 5 26 2 26 -9 0 -9 -10 -17 -22 -19
-15 -2 -23 -10 -23 -23 0 -16 7 -20 33 -22 33 -1 33 -1 30 40 -3 37 -6 42 -30
45 -14 2 -29 -2 -33 -8z m43 -52 c-6 -18 -28 -21 -28 -4 0 9 7 16 16 16 9 0
14 -5 12 -12z"/>
<path d="M5182 368 c-27 -27 -7 -78 29 -78 10 0 21 4 24 10 4 6 -4 9 -17 7
-19 -2 -23 3 -23 28 0 25 4 30 23 28 13 -2 21 1 17 7 -8 14 -38 13 -53 -2z"/>
<path d="M5262 368 c-15 -15 -16 -50 0 -66 14 -14 44 -16 52 -4 3 5 -4 8 -16
8 -12 -1 -23 5 -25 12 -3 7 5 12 22 12 22 0 26 4 23 23 -3 25 -36 35 -56 15z
m38 -13 c0 -8 -7 -15 -15 -15 -16 0 -20 12 -8 23 11 12 23 8 23 -8z"/>
<path d="M250 326 c0 -39 14 -54 53 -54 25 0 27 3 27 44 0 54 -18 59 -22 7 -2
-26 -8 -38 -18 -38 -10 0 -16 12 -18 38 -4 46 -22 49 -22 3z"/>
<path d="M350 314 c0 -24 5 -44 10 -44 6 0 10 16 10 35 0 21 6 37 17 43 13 8
11 10 -10 10 -25 0 -27 -4 -27 -44z"/>
<path d="M485 350 c-4 -7 2 -9 19 -4 20 5 26 2 26 -9 0 -9 -10 -17 -22 -19
-15 -2 -23 -10 -23 -23 0 -16 7 -20 33 -22 33 -1 33 -1 30 40 -3 37 -6 42 -30
45 -14 2 -29 -2 -33 -8z m43 -52 c-6 -18 -28 -21 -28 -4 0 9 7 16 16 16 9 0
14 -5 12 -12z"/>
<path d="M582 348 c-15 -15 -15 -51 0 -66 15 -15 45 -16 53 -2 4 6 -4 9 -17 7
-19 -2 -23 3 -23 28 0 25 4 30 23 28 13 -2 21 1 17 7 -8 14 -38 13 -53 -2z"/>
<path d="M662 348 c-15 -15 -16 -50 0 -66 14 -14 44 -16 52 -4 3 5 -4 8 -16 8
-12 -1 -23 5 -25 12 -3 7 5 12 22 12 22 0 26 4 23 23 -3 25 -36 35 -56 15z
m38 -13 c0 -8 -7 -15 -15 -15 -16 0 -20 12 -8 23 11 12 23 8 23 -8z"/>
<path d="M775 350 c-4 -7 2 -9 19 -4 20 5 26 2 26 -9 0 -9 -10 -17 -22 -19
-15 -2 -23 -10 -23 -23 0 -16 7 -20 33 -22 33 -1 33 -1 30 40 -3 37 -6 42 -30
45 -14 2 -29 -2 -33 -8z m43 -52 c-6 -18 -28 -21 -28 -4 0 9 7 16 16 16 9 0
14 -5 12 -12z"/>
</g>
</svg>
