<svg width="2367" height="1564" xmlns="http://www.w3.org/2000/svg" xmlns:xlink="http://www.w3.org/1999/xlink" overflow="hidden"><defs><clipPath id="clip0"><rect x="1015" y="345" width="2367" height="1564"/></clipPath></defs><g clip-path="url(#clip0)" transform="translate(-1015 -345)"><text font-family="Cambria Math,Cambria Math_MSFontService,sans-serif" font-style="oblique" font-weight="400" font-size="46" transform="matrix(1 0 0 1 2019.33 1761)">on: Enabling signal <tspan font-size="46" x="-49.8438" y="55">QLoa: Total cooling load </tspan><tspan font-size="46" x="-256.667" y="110">QChi_nominal: one chiller's nominal capacity  </tspan><tspan font-family="Times New Roman,Times New Roman_MSFontService,sans-serif" font-style="normal" font-weight="700" font-size="55" x="-85.6505" y="-1346">Chiller Staging Control</tspan></text><path d="M1933.41 421.022 2071.91 421.022 2210.41 421.022 2348.91 421.022 2487.41 421.022 2487.41 426.022 2348.91 426.022 2210.41 426.022 2071.91 426.022 1933.41 426.022Z" fill-rule="evenodd"/><text font-family="Cambria Math,Cambria Math_MSFontService,sans-serif" font-weight="400" font-size="46" transform="translate(1145.6 1261)">洧녶洧녵<tspan font-size="46" x="51.7687" y="0"> </tspan></text><text font-family="Times New Roman,Times New Roman_MSFontService,sans-serif" font-style="italic" font-weight="400" font-size="46" transform="matrix(1 0 0 1 1207.69 1261)">= true and <tspan font-family="Cambria Math,Cambria Math_MSFontService,sans-serif" font-style="oblique" font-size="46" x="207.969" y="0">QLoa</tspan><tspan font-family="Cambria Math,Cambria Math_MSFontService,sans-serif" font-style="oblique" font-size="46" x="319.115" y="0">&gt; 80% * </tspan><tspan font-family="Cambria Math,Cambria Math_MSFontService,sans-serif" font-style="oblique" font-size="46" x="495" y="0">QChi_nominal</tspan><tspan font-size="46" x="330.71" y="55">and w</tspan></text><text font-family="Cambria Math,Cambria Math_MSFontService,sans-serif" font-weight="400" font-size="46" transform="translate(1648.97 1316)">洧녩洧녰洧노洧녢洧녰洧녴洧<tspan font-size="46" x="175.312" y="0">&gt;</tspan><tspan font-size="46" x="222.429" y="0">洧노洧녥洧녩洧녰</tspan><tspan font-size="46" x="795.487" y="-534">洧녶洧녵</tspan><tspan font-size="46" x="847.255" y="-534"> </tspan></text><text font-family="Times New Roman,Times New Roman_MSFontService,sans-serif" font-style="italic" font-weight="400" font-size="46" transform="matrix(1 0 0 1 2506.54 782)">= <tspan font-size="46" x="42.396" y="0">f</tspan><tspan font-size="46" x="55" y="0">alse </tspan><tspan font-size="46" x="-62.0811" y="55">and </tspan><tspan font-size="46" x="18.1272" y="55">w</tspan></text><text font-family="Cambria Math,Cambria Math_MSFontService,sans-serif" font-weight="400" font-size="46" transform="translate(2555.03 837)">洧녩洧녰洧노洧녢洧녰洧녴洧<tspan font-size="46" x="175.312" y="0">&gt;</tspan><tspan font-size="46" x="222.429" y="0">洧노洧녥洧녩洧녰</tspan><tspan font-size="46" x="-838.574" y="-52">洧녶洧녵</tspan><tspan font-size="46" x="-786.805" y="-52"> </tspan></text><text font-family="Times New Roman,Times New Roman_MSFontService,sans-serif" font-style="italic" font-weight="400" font-size="46" transform="matrix(1 0 0 1 1778.54 785)">= true and <tspan font-size="46" x="-239.915" y="55">and </tspan><tspan font-size="46" x="-159.706" y="55">w</tspan></text><text font-family="Cambria Math,Cambria Math_MSFontService,sans-serif" font-weight="400" font-size="46" transform="translate(1649.19 840)">洧녩洧녰洧노洧녢洧녰洧녴洧<tspan font-size="46" x="175.312" y="0">&gt;</tspan><tspan font-size="46" x="222.429" y="0">洧노洧녥洧녩洧녰</tspan></text><path d="M2085.5 1539C2085.5 1469.69 2141.69 1413.5 2211 1413.5 2280.31 1413.5 2336.5 1469.69 2336.5 1539 2336.5 1608.31 2280.31 1664.5 2211 1664.5 2141.69 1664.5 2085.5 1608.31 2085.5 1539Z" stroke="#000000" stroke-width="6.875" stroke-miterlimit="8" fill="#F2F2F2" fill-rule="evenodd"/><text font-family="Times New Roman,Times New Roman_MSFontService,sans-serif" font-weight="700" font-size="55" transform="matrix(1 0 0 1 2158.55 1526)">Two <tspan font-size="55" x="15.1936" y="66">On</tspan></text><path d="M2085.5 1065C2085.5 995.688 2141.69 939.5 2211 939.5 2280.31 939.5 2336.5 995.688 2336.5 1065 2336.5 1134.31 2280.31 1190.5 2211 1190.5 2141.69 1190.5 2085.5 1134.31 2085.5 1065Z" stroke="#000000" stroke-width="6.875" stroke-miterlimit="8" fill="#F2F2F2" fill-rule="evenodd"/><text font-family="Times New Roman,Times New Roman_MSFontService,sans-serif" font-weight="700" font-size="55" transform="matrix(1 0 0 1 2161.41 1051)">One <tspan font-size="55" x="12.3291" y="66">On</tspan></text><path d="M2085.5 590C2085.5 520.688 2141.69 464.5 2211 464.5 2280.31 464.5 2336.5 520.688 2336.5 590 2336.5 659.312 2280.31 715.5 2211 715.5 2141.69 715.5 2085.5 659.312 2085.5 590Z" stroke="#000000" stroke-width="6.875" stroke-miterlimit="8" fill="#F2F2F2" fill-rule="evenodd"/><text font-family="Times New Roman,Times New Roman_MSFontService,sans-serif" font-weight="700" font-size="55" transform="matrix(1 0 0 1 2175.16 577)">All <tspan font-size="55" x="-4.58325" y="66">Off</tspan></text><text font-family="Cambria Math,Cambria Math_MSFontService,sans-serif" font-weight="400" font-size="46" transform="translate(2444.46 1262)">{<tspan font-size="46" x="17.7605" y="0">(</tspan>洧녶洧녵<tspan font-size="46" x="88.4355" y="0"> </tspan></text><text font-family="Times New Roman,Times New Roman_MSFontService,sans-serif" font-style="italic" font-weight="400" font-size="46" transform="matrix(1 0 0 1 2543.2 1262)">= true and <tspan font-family="Cambria Math,Cambria Math_MSFontService,sans-serif" font-style="oblique" font-size="46" x="207.969" y="0">QLoa</tspan><tspan font-family="Cambria Math,Cambria Math_MSFontService,sans-serif" font-style="oblique" font-size="46" x="319.115" y="0">&lt; 60% * </tspan><tspan font-family="Cambria Math,Cambria Math_MSFontService,sans-serif" font-style="oblique" font-size="46" x="495" y="0">QChi_nominal</tspan><tspan font-family="Cambria Math,Cambria Math_MSFontService,sans-serif" font-style="oblique" font-size="46" x="777.448" y="0">) </tspan><tspan font-family="Cambria Math,Cambria Math_MSFontService,sans-serif" font-style="oblique" font-size="46" x="-98.7481" y="56">or </tspan><tspan font-family="Cambria Math,Cambria Math_MSFontService,sans-serif" font-style="oblique" font-size="46" x="-45.4668" y="56">(on = false)}</tspan><tspan font-family="Cambria Math,Cambria Math_MSFontService,sans-serif" font-style="oblique" font-size="46" x="-98.7481" y="111">and w</tspan></text><text font-family="Cambria Math,Cambria Math_MSFontService,sans-serif" font-style="oblique" font-weight="400" font-size="46" transform="translate(2563.62 1373)">洧녩<tspan font-size="46" x="25.7812" y="0">洧녰</tspan><tspan font-size="46" x="40.1042" y="0">洧노</tspan><tspan font-size="46" x="58.4375" y="0">洧녢</tspan>洧녰<tspan font-size="46" x="100.26" y="0">洧녴</tspan><tspan font-size="46" x="138.646" y="0">洧</tspan></text><text font-family="Cambria Math,Cambria Math_MSFontService,sans-serif" font-weight="400" font-size="46" transform="matrix(1 0 0 1 2735.5 1373)">&gt; </text><text font-family="Cambria Math,Cambria Math_MSFontService,sans-serif" font-weight="400" font-size="46" transform="translate(2780.18 1373)">洧노<tspan font-size="46" x="18.3333" y="0">洧녥</tspan><tspan font-size="46" x="61.875" y="0">洧녩</tspan>洧녰</text><path d="M2352.63 1134.92 2358.41 1145.89 2363.84 1158.12 2368.87 1170.45 2377.47 1195.54 2384.15 1221.04 2389.03 1246.83 2390.74 1259.86 2391.96 1272.91 2392.69 1286.02 2392.96 1299.12 2392.81 1312.17 2392.12 1325.26 2390.97 1338.33 2389.35 1351.32 2387.28 1364.32 2384.73 1377.23 2381.66 1390.02 2378.17 1402.75 2374.24 1415.36 2369.75 1427.9 2364.85 1440.24 2359.43 1452.46 2353.58 1464.55 2347.23 1476.46 2340.42 1488.15 2333.16 1499.61 2327.35 1495.93 2334.58 1484.53 2334.51 1484.64 2341.25 1473.06 2341.19 1473.17 2347.48 1461.37 2347.42 1461.49 2353.22 1449.52 2353.17 1449.62 2358.54 1437.52 2358.49 1437.64 2363.34 1425.42 2363.29 1425.52 2367.74 1413.11 2367.7 1413.24 2371.59 1400.76 2371.56 1400.88 2375.02 1388.26 2374.99 1388.36 2378.03 1375.7 2378 1375.83 2380.52 1363.05 2380.5 1363.17 2382.56 1350.3 2382.54 1350.41 2384.14 1337.54 2384.13 1337.67 2385.26 1324.72 2385.26 1324.83 2385.94 1311.88 2385.94 1312.02 2386.08 1299.09 2386.08 1299.2 2385.81 1286.22 2385.82 1286.34 2385.1 1273.36 2385.11 1273.49 2383.9 1260.56 2383.92 1260.69 2382.23 1247.82 2382.26 1248.01 2377.42 1222.43 2377.47 1222.66 2370.85 1197.4 2370.93 1197.65 2362.4 1172.78 2362.47 1172.96 2357.49 1160.76 2357.53 1160.86 2352.17 1148.79 2352.27 1148.99 2346.54 1138.12ZM2332.06 1151.98 2328.9 1100.83 2371.71 1128.99Z"/><path d="M2066.21 1461.83 2060.56 1450.79 2055.28 1438.5 2050.39 1426.11 2042.09 1400.92 2035.71 1375.35 2031.15 1349.5 2029.59 1336.45 2028.53 1323.38 2027.96 1310.27 2027.84 1297.17 2028.15 1284.11 2029 1271.04 2030.3 1257.98 2032.07 1245.01 2034.3 1232.04 2037 1219.15 2040.23 1206.4 2043.87 1193.71 2047.95 1181.15 2052.59 1168.67 2057.63 1156.39 2063.2 1144.23 2069.2 1132.22 2075.69 1120.38 2082.64 1108.77 2090.03 1097.4 2095.8 1101.15 2088.43 1112.47 2088.5 1112.36 2081.62 1123.85 2081.69 1123.74 2075.26 1135.46 2075.32 1135.35 2069.38 1147.25 2069.43 1147.14 2063.91 1159.19 2063.97 1159.06 2058.97 1171.23 2059.02 1171.12 2054.42 1183.48 2054.47 1183.35 2050.42 1195.78 2050.46 1195.67 2046.85 1208.24 2046.88 1208.14 2043.68 1220.77 2043.72 1220.63 2041.04 1233.39 2041.06 1233.27 2038.86 1246.11 2038.87 1246 2037.12 1258.84 2037.13 1258.72 2035.84 1271.66 2035.85 1271.54 2035.01 1284.48 2035.02 1284.34 2034.72 1297.27 2034.72 1297.16 2034.83 1310.15 2034.83 1310.03 2035.39 1323.01 2035.39 1322.89 2036.44 1335.83 2036.42 1335.7 2037.96 1348.59 2037.93 1348.4 2042.46 1374.03 2042.41 1373.8 2048.73 1399.14 2048.66 1398.89 2056.89 1423.86 2056.82 1423.68 2061.65 1435.93 2061.61 1435.84 2066.83 1447.97 2066.73 1447.77 2072.33 1458.7ZM2086.98 1445.02 2089.53 1496.2 2047.05 1467.53Z"/><path d="M2352.63 664.918 2358.41 675.889 2363.84 688.116 2368.87 700.453 2377.47 725.536 2384.15 751.034 2389.03 776.827 2390.74 789.858 2391.96 802.913 2392.69 816.017 2392.96 829.114 2392.81 842.173 2392.12 855.255 2390.97 868.332 2389.35 881.322 2387.28 894.314 2384.73 907.233 2381.66 920.023 2378.17 932.752 2374.24 945.359 2369.75 957.896 2364.85 970.24 2359.43 982.464 2353.58 994.546 2347.23 1006.46 2340.42 1018.15 2333.16 1029.61 2327.35 1025.93 2334.58 1014.52 2334.51 1014.63 2341.25 1003.06 2341.19 1003.17 2347.48 991.371 2347.42 991.488 2353.22 979.517 2353.17 979.623 2358.54 967.516 2358.49 967.642 2363.34 955.416 2363.29 955.523 2367.74 943.108 2367.7 943.244 2371.59 930.762 2371.56 930.877 2375.02 918.258 2374.99 918.364 2378.03 905.695 2378 905.833 2380.52 893.046 2380.5 893.169 2382.56 880.297 2382.54 880.414 2384.14 867.544 2384.13 867.669 2385.26 854.715 2385.26 854.833 2385.94 841.881 2385.94 842.023 2386.08 829.091 2386.08 829.202 2385.81 816.219 2385.82 816.338 2385.1 803.358 2385.11 803.487 2383.9 790.561 2383.92 790.689 2382.23 777.818 2382.26 778.009 2377.42 752.428 2377.47 752.661 2370.85 727.402 2370.93 727.645 2362.4 702.775 2362.47 702.96 2357.49 690.763 2357.53 690.858 2352.17 678.784 2352.27 678.991 2346.54 668.122ZM2332.06 681.978 2328.9 630.832 2371.71 658.993Z"/><path d="M2066.21 991.833 2060.56 980.793 2055.28 968.502 2050.39 956.106 2042.09 930.922 2035.71 905.345 2031.15 879.496 2029.59 866.445 2028.53 853.377 2027.96 840.265 2027.84 827.166 2028.15 814.11 2029 801.036 2030.3 787.975 2032.07 775.004 2034.3 762.038 2037 749.151 2040.23 736.398 2043.87 723.712 2047.95 711.152 2052.59 698.67 2057.63 686.386 2063.2 674.228 2069.2 662.216 2075.69 650.378 2082.64 638.772 2090.03 627.399 2095.8 631.148 2088.43 642.466 2088.5 642.357 2081.62 653.852 2081.69 653.74 2075.26 665.464 2075.32 665.347 2069.38 677.248 2069.43 677.143 2063.91 689.185 2063.97 689.06 2058.97 701.227 2059.02 701.12 2054.42 713.481 2054.47 713.346 2050.42 725.781 2050.46 725.666 2046.85 738.242 2046.88 738.137 2043.68 750.768 2043.72 750.631 2041.04 763.387 2041.06 763.264 2038.86 776.111 2038.87 775.994 2037.12 788.844 2037.13 788.719 2035.84 801.659 2035.85 801.54 2035.01 814.483 2035.02 814.341 2034.72 827.271 2034.72 827.16 2034.83 840.145 2034.83 840.026 2035.39 853.014 2035.39 852.885 2036.44 865.824 2036.42 865.696 2037.96 878.587 2037.93 878.395 2042.46 904.031 2042.41 903.798 2048.73 929.135 2048.66 928.891 2056.89 953.861 2056.82 953.675 2061.65 965.931 2061.61 965.835 2066.83 977.972 2066.73 977.764 2072.33 988.701ZM2086.98 975.02 2089.53 1026.2 2047.05 997.529Z"/></g></svg>