<?xml version="1.0" standalone="no"?>
<!DOCTYPE svg PUBLIC "-//W3C//DTD SVG 1.1//EN" "http://www.w3.org/Graphics/SVG/1.1/DTD/svg11.dtd">
<svg viewBox="0 0 400 503" version="1.1" xmlns="http://www.w3.org/2000/svg" xmlns:xlink="http://www.w3.org/1999/xlink">
	<polyline fill="none" stroke="rgb(240,240,240)" stroke-width="0.5" stroke-opacity="1" points="57,19 57,138"/>
	<polyline fill="none" stroke="rgb(240,240,240)" stroke-width="0.5" stroke-opacity="1" points="93.875,19 93.875,138"/>
	<polyline fill="none" stroke="rgb(240,240,240)" stroke-width="0.5" stroke-opacity="1" points="130.75,19 130.75,138"/>
	<polyline fill="none" stroke="rgb(240,240,240)" stroke-width="0.5" stroke-opacity="1" points="167.625,19 167.625,138"/>
	<polyline fill="none" stroke="rgb(240,240,240)" stroke-width="0.5" stroke-opacity="1" points="204.5,19 204.5,138"/>
	<polyline fill="none" stroke="rgb(240,240,240)" stroke-width="0.5" stroke-opacity="1" points="241.375,19 241.375,138"/>
	<polyline fill="none" stroke="rgb(240,240,240)" stroke-width="0.5" stroke-opacity="1" points="278.25,19 278.25,138"/>
	<polyline fill="none" stroke="rgb(240,240,240)" stroke-width="0.5" stroke-opacity="1" points="315.125,19 315.125,138"/>
	<polyline fill="none" stroke="rgb(240,240,240)" stroke-width="0.5" stroke-opacity="1" points="352,19 352,138"/>
	<rect fill="rgb(240,240,240)" stroke="rgb(240,240,240)" stroke-width="0.5" stroke-opacity="1" x="57" y="33.875" width="295" height="89.25"/>
	<polyline fill="none" stroke="rgb(0,0,0)" stroke-width="0.5" stroke-opacity="1" points="57,138 352,138"/>
	<polyline fill="none" stroke="rgb(0,0,0)" stroke-width="0.5" stroke-opacity="1" points="352,138 352,19"/>
	<polyline fill="none" stroke="rgb(0,0,0)" stroke-width="0.5" stroke-opacity="1" points="352,19 57,19"/>
	<polyline fill="none" stroke="rgb(0,0,0)" stroke-width="0.5" stroke-opacity="1" points="57,19 57,138"/>
	<polyline fill="none" stroke="rgb(0,0,0)" stroke-width="0.5" stroke-opacity="1" points="57,138 57,142"/>
	<polyline fill="none" stroke="rgb(0,0,0)" stroke-width="0.5" stroke-opacity="1" points="93.875,138 93.875,142"/>
	<polyline fill="none" stroke="rgb(0,0,0)" stroke-width="0.5" stroke-opacity="1" points="130.75,138 130.75,142"/>
	<polyline fill="none" stroke="rgb(0,0,0)" stroke-width="0.5" stroke-opacity="1" points="167.625,138 167.625,142"/>
	<polyline fill="none" stroke="rgb(0,0,0)" stroke-width="0.5" stroke-opacity="1" points="204.5,138 204.5,142"/>
	<polyline fill="none" stroke="rgb(0,0,0)" stroke-width="0.5" stroke-opacity="1" points="241.375,138 241.375,142"/>
	<polyline fill="none" stroke="rgb(0,0,0)" stroke-width="0.5" stroke-opacity="1" points="278.25,138 278.25,142"/>
	<polyline fill="none" stroke="rgb(0,0,0)" stroke-width="0.5" stroke-opacity="1" points="315.125,138 315.125,142"/>
	<polyline fill="none" stroke="rgb(0,0,0)" stroke-width="0.5" stroke-opacity="1" points="352,138 352,142"/>
	<polyline fill="none" stroke="rgb(0,0,0)" stroke-width="0.5" stroke-opacity="1" points="57,138 57,144.4"/>
	<text fill="rgb(0,0,0)" font-size="11" font-family="helvetica" text-anchor="middle" dominant-baseline="central" x="57" y="154">0</text>
	<polyline fill="none" stroke="rgb(0,0,0)" stroke-width="0.5" stroke-opacity="1" points="241.375,138 241.375,144.4"/>
	<text fill="rgb(0,0,0)" font-size="11" font-family="helvetica" text-anchor="middle" dominant-baseline="central" x="241.375" y="154">5000</text>
	<polyline fill="none" stroke="rgb(0,0,0)" stroke-width="0.5" stroke-opacity="1" points="53,123.125 57,123.125"/>
	<text fill="rgb(0,0,0)" font-size="11" font-family="helvetica" text-anchor="end" dominant-baseline="central" x="49" y="123.125">false</text>
	<polyline fill="none" stroke="rgb(0,0,0)" stroke-width="0.5" stroke-opacity="1" points="53,33.875 57,33.875"/>
	<text fill="rgb(0,0,0)" font-size="11" font-family="helvetica" text-anchor="end" dominant-baseline="central" x="49" y="33.875">true</text>
	<clipPath id="clipArea1">
		<rect x="57" y="19" width="296" height="119">
		</rect>
	</clipPath>
	<polyline fill="none" stroke="rgb(28,108,200)" stroke-width="1" stroke-opacity="1" clip-path="url(#clipArea1)" points="57,33.875 322.5,33.875"/>
	<text fill="rgb(0,0,0)" font-size="11" font-family="helvetica" text-anchor="start" dominant-baseline="central" x="58" y="22">trimRespondLogic1.uDevSta</text>
	<polyline fill="none" stroke="rgb(240,240,240)" stroke-width="0.5" stroke-opacity="1" points="57,186 57,305"/>
	<polyline fill="none" stroke="rgb(240,240,240)" stroke-width="0.5" stroke-opacity="1" points="93.875,186 93.875,305"/>
	<polyline fill="none" stroke="rgb(240,240,240)" stroke-width="0.5" stroke-opacity="1" points="130.75,186 130.75,305"/>
	<polyline fill="none" stroke="rgb(240,240,240)" stroke-width="0.5" stroke-opacity="1" points="167.625,186 167.625,305"/>
	<polyline fill="none" stroke="rgb(240,240,240)" stroke-width="0.5" stroke-opacity="1" points="204.5,186 204.5,305"/>
	<polyline fill="none" stroke="rgb(240,240,240)" stroke-width="0.5" stroke-opacity="1" points="241.375,186 241.375,305"/>
	<polyline fill="none" stroke="rgb(240,240,240)" stroke-width="0.5" stroke-opacity="1" points="278.25,186 278.25,305"/>
	<polyline fill="none" stroke="rgb(240,240,240)" stroke-width="0.5" stroke-opacity="1" points="315.125,186 315.125,305"/>
	<polyline fill="none" stroke="rgb(240,240,240)" stroke-width="0.5" stroke-opacity="1" points="352,186 352,305"/>
	<rect fill="rgb(240,240,240)" stroke="rgb(240,240,240)" stroke-width="0.5" stroke-opacity="1" x="57" y="200.875" width="295" height="89.25"/>
	<polyline fill="none" stroke="rgb(0,0,0)" stroke-width="0.5" stroke-opacity="1" points="57,305 352,305"/>
	<polyline fill="none" stroke="rgb(0,0,0)" stroke-width="0.5" stroke-opacity="1" points="352,305 352,186"/>
	<polyline fill="none" stroke="rgb(0,0,0)" stroke-width="0.5" stroke-opacity="1" points="352,186 57,186"/>
	<polyline fill="none" stroke="rgb(0,0,0)" stroke-width="0.5" stroke-opacity="1" points="57,186 57,305"/>
	<polyline fill="none" stroke="rgb(0,0,0)" stroke-width="0.5" stroke-opacity="1" points="57,305 57,309"/>
	<polyline fill="none" stroke="rgb(0,0,0)" stroke-width="0.5" stroke-opacity="1" points="93.875,305 93.875,309"/>
	<polyline fill="none" stroke="rgb(0,0,0)" stroke-width="0.5" stroke-opacity="1" points="130.75,305 130.75,309"/>
	<polyline fill="none" stroke="rgb(0,0,0)" stroke-width="0.5" stroke-opacity="1" points="167.625,305 167.625,309"/>
	<polyline fill="none" stroke="rgb(0,0,0)" stroke-width="0.5" stroke-opacity="1" points="204.5,305 204.5,309"/>
	<polyline fill="none" stroke="rgb(0,0,0)" stroke-width="0.5" stroke-opacity="1" points="241.375,305 241.375,309"/>
	<polyline fill="none" stroke="rgb(0,0,0)" stroke-width="0.5" stroke-opacity="1" points="278.25,305 278.25,309"/>
	<polyline fill="none" stroke="rgb(0,0,0)" stroke-width="0.5" stroke-opacity="1" points="315.125,305 315.125,309"/>
	<polyline fill="none" stroke="rgb(0,0,0)" stroke-width="0.5" stroke-opacity="1" points="352,305 352,309"/>
	<polyline fill="none" stroke="rgb(0,0,0)" stroke-width="0.5" stroke-opacity="1" points="57,305 57,311.4"/>
	<text fill="rgb(0,0,0)" font-size="11" font-family="helvetica" text-anchor="middle" dominant-baseline="central" x="57" y="321">0</text>
	<polyline fill="none" stroke="rgb(0,0,0)" stroke-width="0.5" stroke-opacity="1" points="241.375,305 241.375,311.4"/>
	<text fill="rgb(0,0,0)" font-size="11" font-family="helvetica" text-anchor="middle" dominant-baseline="central" x="241.375" y="321">5000</text>
	<polyline fill="none" stroke="rgb(0,0,0)" stroke-width="0.5" stroke-opacity="1" points="53,290.125 57,290.125"/>
	<text fill="rgb(0,0,0)" font-size="11" font-family="helvetica" text-anchor="end" dominant-baseline="central" x="49" y="290.125">0</text>
	<polyline fill="none" stroke="rgb(0,0,0)" stroke-width="0.5" stroke-opacity="1" points="53,260.375 57,260.375"/>
	<text fill="rgb(0,0,0)" font-size="11" font-family="helvetica" text-anchor="end" dominant-baseline="central" x="49" y="260.375">2</text>
	<polyline fill="none" stroke="rgb(0,0,0)" stroke-width="0.5" stroke-opacity="1" points="53,230.625 57,230.625"/>
	<text fill="rgb(0,0,0)" font-size="11" font-family="helvetica" text-anchor="end" dominant-baseline="central" x="49" y="230.625">4</text>
	<polyline fill="none" stroke="rgb(0,0,0)" stroke-width="0.5" stroke-opacity="1" points="53,200.875 57,200.875"/>
	<text fill="rgb(0,0,0)" font-size="11" font-family="helvetica" text-anchor="end" dominant-baseline="central" x="49" y="200.875">6</text>
	<clipPath id="clipArea2">
		<rect x="57" y="186" width="296" height="119">
		</rect>
	</clipPath>
	<polyline fill="none" stroke="rgb(28,108,200)" stroke-width="1" stroke-opacity="1" clip-path="url(#clipArea2)" points="57,290.125 57,290.125 57,290.125 57.531,290.125 58.062,290.125 58.593,290.125 59.124,290.125 59.644,290.125 59.644,275.25 59.655,275.25 60.186,275.25 60.717,275.25 61.248,275.25 61.425,275.25 61.425,275.25 61.779,275.25 62.31,275.25 62.841,275.25 63.372,275.25 63.903,275.25 64.434,275.25 64.965,275.25 65.0079,275.25 65.0079,260.375 65.496,260.375 65.85,260.375 65.85,260.375 66.027,260.375 66.558,260.375 67.089,260.375 67.62,260.375 68.151,260.375 68.682,260.375 69.213,260.375 69.744,260.375 70.275,260.375 70.275,260.375 70.6203,260.375 70.6203,245.5 70.806,245.5 71.337,245.5 71.868,245.5 72.399,245.5 72.4875,245.5 72.4875,245.5 72.93,245.5 73.461,245.5 73.992,245.5 74.523,245.5 74.7,245.5 74.7,245.5 75.054,245.5 75.4375,245.5 75.4375,245.5 75.585,245.5 76.116,245.5 76.647,245.5 76.7385,245.5 76.7385,230.625 77.178,230.625 77.709,230.625 78.24,230.625 78.771,230.625 79.125,230.625 79.125,230.625 79.302,230.625 79.833,230.625 80.364,230.625 80.895,230.625 81.3375,230.625 81.3375,230.625 81.426,230.625 81.957,230.625 82.488,230.625 83.019,230.625 83.55,230.625 83.55,230.625 83.8766,230.625 83.8766,215.75 84.081,215.75 84.612,215.75 85.143,215.75 85.674,215.75 86.205,215.75 86.5,215.75 86.5,215.75 86.736,215.75 87.267,215.75 87.798,215.75 87.975,215.75 87.975,215.75 88.329,215.75 88.86,215.75 89.391,215.75 89.922,215.75 90.453,215.75 90.984,215.75 91.515,215.75 92.046,215.75 92.4,215.75 92.4,215.75 92.577,215.75 93.108,215.75 93.639,215.75 93.7516,215.75 93.7516,200.875 93.875,200.875 93.875,200.875 94.17,200.875 94.701,200.875 95.232,200.875 95.763,200.875 96.294,200.875 96.825,200.875 96.825,200.875 96.825,200.875 96.825,200.875 97.356,200.875 97.887,200.875 98.418,200.875 98.949,200.875 99.48,200.875 100.011,200.875 100.542,200.875 101.073,200.875 101.25,200.875 101.25,200.875 101.604,200.875 102.135,200.875 102.666,200.875 103.197,200.875 103.728,200.875 104.259,200.875 104.79,200.875 105.321,200.875 105.675,200.875 105.675,200.875 105.852,200.875 106.383,200.875 106.914,200.875 107.445,200.875 107.976,200.875 108.507,200.875 109.038,200.875 109.569,200.875 110.1,200.875 110.1,200.875 110.631,200.875 111.162,200.875 111.693,200.875 112.224,200.875 112.312,200.875 112.312,200.875 112.755,200.875 113.286,200.875 113.817,200.875 114.348,200.875 114.525,200.875 114.525,200.875 114.879,200.875 115.41,200.875 115.941,200.875 116,200.875 116,200.875 116.472,200.875 117.003,200.875 117.534,200.875 118.065,200.875 118.596,200.875 118.95,200.875 118.95,200.875 119.127,200.875 119.658,200.875 119.811,200.875 119.811,215.75 120.189,215.75 120.72,215.75 121.251,215.75 121.782,215.75 122.313,215.75 122.844,215.75 123.375,215.75 123.375,215.75 123.906,215.75 124.437,215.75 124.968,215.75 125.499,215.75 126.03,215.75 126.561,215.75 127.092,215.75 127.623,215.75 127.8,215.75 127.8,215.75 128.154,215.75 128.685,215.75 129.216,215.75 129.686,215.75 129.686,230.625 129.747,230.625 130.278,230.625 130.75,230.625 130.75,230.625 130.809,230.625 131.34,230.625 131.871,230.625 132.225,230.625 132.225,230.625 132.402,230.625 132.933,230.625 133.464,230.625 133.995,230.625 134.526,230.625 135.057,230.625 135.588,230.625 136.119,230.625 136.65,230.625 136.65,230.625 136.824,230.625 136.824,245.5 137.181,245.5 137.712,245.5 138.243,245.5 138.774,245.5 139.305,245.5 139.836,245.5 140.367,245.5 140.898,245.5 141.075,245.5 141.075,245.5 141.429,245.5 141.96,245.5 142.491,245.5 142.942,245.5 142.942,260.375 143.022,260.375 143.553,260.375 144.084,260.375 144.615,260.375 145.146,260.375 145.5,260.375 145.5,260.375 145.677,260.375 146.208,260.375 146.739,260.375 147.27,260.375 147.801,260.375 148.332,260.375 148.555,260.375 148.555,275.25 148.863,275.25 149.188,275.25 149.188,275.25 149.394,275.25 149.925,275.25 149.925,275.25 150.456,275.25 150.987,275.25 151.518,275.25 152.049,275.25 152.58,275.25 153.111,275.25 153.642,275.25 153.918,275.25 153.918,290.125 154.173,290.125 154.35,290.125 154.35,290.125 154.704,290.125 155.235,290.125 155.766,290.125 156.297,290.125 156.828,290.125 157.359,290.125 157.89,290.125 158.421,290.125 158.775,290.125 158.775,290.125 158.952,290.125 159.207,290.125 159.207,275.25 159.483,275.25 160.014,275.25 160.25,275.25 160.25,275.25 160.545,275.25 161.076,275.25 161.607,275.25 162.138,275.25 162.669,275.25 163.2,275.25 163.2,275.25 163.731,275.25 164.262,275.25 164.57,275.25 164.57,260.375 164.793,260.375 165.324,260.375 165.855,260.375 166.386,260.375 166.917,260.375 167.448,260.375 167.625,260.375 167.625,260.375 167.979,260.375 168.51,260.375 169.041,260.375 169.572,260.375 170.103,260.375 170.183,260.375 170.183,245.5 170.634,245.5 171.165,245.5 171.696,245.5 172.05,245.5 172.05,245.5 172.227,245.5 172.758,245.5 173.289,245.5 173.82,245.5 174.351,245.5 174.882,245.5 175.413,245.5 175.944,245.5 176.301,245.5 176.301,230.625 176.475,230.625 176.475,230.625 177.006,230.625 177.537,230.625 178.068,230.625 178.599,230.625 179.13,230.625 179.661,230.625 180.192,230.625 180.723,230.625 180.9,230.625 180.9,230.625 181.254,230.625 181.785,230.625 182.316,230.625 182.847,230.625 183.378,230.625 183.439,230.625 183.439,215.75 183.909,215.75 184.44,215.75 184.971,215.75 185.325,215.75 185.325,215.75 185.502,215.75 186.033,215.75 186.062,215.75 186.062,215.75 186.564,215.75 187.095,215.75 187.626,215.75 188.157,215.75 188.688,215.75 189.219,215.75 189.75,215.75 189.75,215.75 190.281,215.75 190.812,215.75 191.343,215.75 191.874,215.75 192.405,215.75 192.936,215.75 193.314,215.75 193.314,200.875 193.467,200.875 193.998,200.875 194.175,200.875 194.175,200.875 194.529,200.875 195.06,200.875 195.591,200.875 196.122,200.875 196.653,200.875 197.125,200.875 197.125,200.875 197.184,200.875 197.715,200.875 198.246,200.875 198.6,200.875 198.6,200.875 198.777,200.875 199.308,200.875 199.839,200.875 200.37,200.875 200.901,200.875 201.432,200.875 201.963,200.875 202.494,200.875 203.025,200.875 203.025,200.875 203.556,200.875 204.087,200.875 204.5,200.875 204.5,200.875 204.618,200.875 205.149,200.875 205.68,200.875 206.211,200.875 206.742,200.875 207.273,200.875 207.45,200.875 207.45,200.875 207.804,200.875 208.335,200.875 208.866,200.875 209.397,200.875 209.928,200.875 210.459,200.875 210.99,200.875 211.521,200.875 211.875,200.875 211.875,200.875 212.052,200.875 212.583,200.875 213.114,200.875 213.645,200.875 214.088,200.875 214.088,200.875 214.176,200.875 214.707,200.875 215.238,200.875 215.769,200.875 216.3,200.875 216.3,200.875 216.831,200.875 217.362,200.875 217.893,200.875 218.424,200.875 218.955,200.875 219.373,200.875 219.373,215.75 219.486,215.75 220.017,215.75 220.548,215.75 220.725,215.75 220.725,215.75 221.079,215.75 221.61,215.75 222.141,215.75 222.672,215.75 222.938,215.75 222.938,215.75 223.203,215.75 223.734,215.75 224.265,215.75 224.796,215.75 225.15,215.75 225.15,215.75 225.327,215.75 225.858,215.75 226.389,215.75 226.92,215.75 227.451,215.75 227.982,215.75 228.513,215.75 229.044,215.75 229.248,215.75 229.248,230.625 229.575,230.625 229.575,230.625 229.575,230.625 229.575,230.625 230.106,230.625 230.637,230.625 231.168,230.625 231.699,230.625 232.23,230.625 232.761,230.625 233.292,230.625 233.823,230.625 234,230.625 234,230.625 234.354,230.625 234.885,230.625 235.416,230.625 235.947,230.625 236.387,230.625 236.387,245.5 236.478,245.5 237.009,245.5 237.54,245.5 238.071,245.5 238.425,245.5 238.425,245.5 238.602,245.5 239.133,245.5 239.664,245.5 240.195,245.5 240.726,245.5 241.257,245.5 241.375,245.5 241.375,245.5 241.788,245.5 242.319,245.5 242.505,245.5 242.505,260.375 242.85,260.375 242.85,260.375 243.381,260.375 243.912,260.375 244.443,260.375 244.974,260.375 245.505,260.375 246.036,260.375 246.567,260.375 247.098,260.375 247.275,260.375 247.275,260.375 247.629,260.375 248.117,260.375 248.117,275.25 248.16,275.25 248.691,275.25 249.222,275.25 249.753,275.25 250.284,275.25 250.815,275.25 251.346,275.25 251.7,275.25 251.7,275.25 251.877,275.25 252.408,275.25 252.939,275.25 253.47,275.25 253.481,275.25 253.481,290.125 254.001,290.125 254.532,290.125 255.063,290.125 255.594,290.125 256.125,290.125 256.125,290.125 256.656,290.125 257.187,290.125 257.718,290.125 258.249,290.125 258.769,290.125 258.769,275.25 258.78,275.25 259.311,275.25 259.812,275.25 259.812,275.25 259.842,275.25 260.373,275.25 260.55,275.25 260.55,275.25 260.904,275.25 261.435,275.25 261.966,275.25 262.497,275.25 263.028,275.25 263.5,275.25 263.5,275.25 263.559,275.25 264.09,275.25 264.133,275.25 264.133,260.375 264.621,260.375 264.975,260.375 264.975,260.375 265.152,260.375 265.683,260.375 266.214,260.375 266.745,260.375 267.276,260.375 267.807,260.375 268.338,260.375 268.869,260.375 269.4,260.375 269.4,260.375 269.745,260.375 269.745,245.5 269.931,245.5 270.462,245.5 270.875,245.5 270.875,245.5 270.993,245.5 271.524,245.5 272.055,245.5 272.586,245.5 273.117,245.5 273.648,245.5 273.825,245.5 273.825,245.5 274.179,245.5 274.71,245.5 275.241,245.5 275.772,245.5 275.863,245.5 275.863,230.625 276.303,230.625 276.834,230.625 277.365,230.625 277.896,230.625 278.25,230.625 278.25,230.625 278.427,230.625 278.958,230.625 279.489,230.625 280.02,230.625 280.551,230.625 281.082,230.625 281.613,230.625 282.144,230.625 282.675,230.625 282.675,230.625 283.002,230.625 283.002,215.75 283.206,215.75 283.737,215.75 284.268,215.75 284.799,215.75 285.33,215.75 285.861,215.75 286.392,215.75 286.923,215.75 287.1,215.75 287.1,215.75 287.454,215.75 287.985,215.75 288.516,215.75 289.047,215.75 289.578,215.75 290.109,215.75 290.64,215.75 291.171,215.75 291.525,215.75 291.525,215.75 291.702,215.75 292.233,215.75 292.764,215.75 292.877,215.75 292.877,200.875 293.295,200.875 293.826,200.875 294.357,200.875 294.888,200.875 295.419,200.875 295.95,200.875 295.95,200.875 296.481,200.875 296.688,200.875 296.688,200.875 297.012,200.875 297.543,200.875 298.074,200.875 298.605,200.875 299.136,200.875 299.667,200.875 300.198,200.875 300.375,200.875 300.375,200.875 300.729,200.875 301.26,200.875 301.791,200.875 302.322,200.875 302.853,200.875 303.384,200.875 303.915,200.875 304.446,200.875 304.8,200.875 304.8,200.875 304.977,200.875 305.508,200.875 306.039,200.875 306.57,200.875 307.101,200.875 307.632,200.875 307.75,200.875 307.75,200.875 308.163,200.875 308.694,200.875 309.225,200.875 309.225,200.875 309.756,200.875 310.287,200.875 310.818,200.875 311.349,200.875 311.88,200.875 312.411,200.875 312.942,200.875 313.473,200.875 313.65,200.875 313.65,200.875 314.004,200.875 314.535,200.875 315.066,200.875 315.125,200.875 315.125,200.875 315.597,200.875 316.128,200.875 316.659,200.875 317.19,200.875 317.721,200.875 318.075,200.875 318.075,200.875 318.252,200.875 318.783,200.875 318.936,200.875 318.936,215.75 319.314,215.75 319.845,215.75 320.376,215.75 320.907,215.75 321.438,215.75 321.969,215.75 322.5,215.75 322.5,215.75"/>
	<text fill="rgb(0,0,0)" font-size="11" font-family="helvetica" text-anchor="start" dominant-baseline="central" x="58" y="189">trimRespondLogic1.numOfReq</text>
	<polyline fill="none" stroke="rgb(229,229,229)" stroke-width="0.5" stroke-opacity="1" points="57,370 57,472"/>
	<polyline fill="none" stroke="rgb(229,229,229)" stroke-width="0.5" stroke-opacity="1" points="93.875,370 93.875,472"/>
	<polyline fill="none" stroke="rgb(229,229,229)" stroke-width="0.5" stroke-opacity="1" points="130.75,370 130.75,472"/>
	<polyline fill="none" stroke="rgb(229,229,229)" stroke-width="0.5" stroke-opacity="1" points="167.625,370 167.625,472"/>
	<polyline fill="none" stroke="rgb(229,229,229)" stroke-width="0.5" stroke-opacity="1" points="204.5,370 204.5,472"/>
	<polyline fill="none" stroke="rgb(229,229,229)" stroke-width="0.5" stroke-opacity="1" points="241.375,370 241.375,472"/>
	<polyline fill="none" stroke="rgb(229,229,229)" stroke-width="0.5" stroke-opacity="1" points="278.25,370 278.25,472"/>
	<polyline fill="none" stroke="rgb(229,229,229)" stroke-width="0.5" stroke-opacity="1" points="315.125,370 315.125,472"/>
	<polyline fill="none" stroke="rgb(229,229,229)" stroke-width="0.5" stroke-opacity="1" points="352,370 352,472"/>
	<polyline fill="none" stroke="rgb(229,229,229)" stroke-width="0.5" stroke-opacity="1" points="57,472 352,472"/>
	<polyline fill="none" stroke="rgb(229,229,229)" stroke-width="0.5" stroke-opacity="1" points="57,438 352,438"/>
	<polyline fill="none" stroke="rgb(229,229,229)" stroke-width="0.5" stroke-opacity="1" points="57,404 352,404"/>
	<polyline fill="none" stroke="rgb(229,229,229)" stroke-width="0.5" stroke-opacity="1" points="57,370 352,370"/>
	<polyline fill="none" stroke="rgb(0,0,0)" stroke-width="0.5" stroke-opacity="1" points="57,472 352,472"/>
	<polyline fill="none" stroke="rgb(0,0,0)" stroke-width="0.5" stroke-opacity="1" points="352,472 352,370"/>
	<polyline fill="none" stroke="rgb(0,0,0)" stroke-width="0.5" stroke-opacity="1" points="352,370 57,370"/>
	<polyline fill="none" stroke="rgb(0,0,0)" stroke-width="0.5" stroke-opacity="1" points="57,370 57,472"/>
	<polyline fill="none" stroke="rgb(0,0,0)" stroke-width="0.5" stroke-opacity="1" points="57,472 57,476"/>
	<polyline fill="none" stroke="rgb(0,0,0)" stroke-width="0.5" stroke-opacity="1" points="93.875,472 93.875,476"/>
	<polyline fill="none" stroke="rgb(0,0,0)" stroke-width="0.5" stroke-opacity="1" points="130.75,472 130.75,476"/>
	<polyline fill="none" stroke="rgb(0,0,0)" stroke-width="0.5" stroke-opacity="1" points="167.625,472 167.625,476"/>
	<polyline fill="none" stroke="rgb(0,0,0)" stroke-width="0.5" stroke-opacity="1" points="204.5,472 204.5,476"/>
	<polyline fill="none" stroke="rgb(0,0,0)" stroke-width="0.5" stroke-opacity="1" points="241.375,472 241.375,476"/>
	<polyline fill="none" stroke="rgb(0,0,0)" stroke-width="0.5" stroke-opacity="1" points="278.25,472 278.25,476"/>
	<polyline fill="none" stroke="rgb(0,0,0)" stroke-width="0.5" stroke-opacity="1" points="315.125,472 315.125,476"/>
	<polyline fill="none" stroke="rgb(0,0,0)" stroke-width="0.5" stroke-opacity="1" points="352,472 352,476"/>
	<polyline fill="none" stroke="rgb(0,0,0)" stroke-width="0.5" stroke-opacity="1" points="57,472 57,478.4"/>
	<text fill="rgb(0,0,0)" font-size="11" font-family="helvetica" text-anchor="middle" dominant-baseline="central" x="57" y="488">0</text>
	<polyline fill="none" stroke="rgb(0,0,0)" stroke-width="0.5" stroke-opacity="1" points="241.375,472 241.375,478.4"/>
	<text fill="rgb(0,0,0)" font-size="11" font-family="helvetica" text-anchor="middle" dominant-baseline="central" x="241.375" y="488">5000</text>
	<polyline fill="none" stroke="rgb(0,0,0)" stroke-width="0.5" stroke-opacity="1" points="53,472 57,472"/>
	<polyline fill="none" stroke="rgb(0,0,0)" stroke-width="0.5" stroke-opacity="1" points="53,438 57,438"/>
	<polyline fill="none" stroke="rgb(0,0,0)" stroke-width="0.5" stroke-opacity="1" points="53,404 57,404"/>
	<polyline fill="none" stroke="rgb(0,0,0)" stroke-width="0.5" stroke-opacity="1" points="53,370 57,370"/>
	<rect fill="none" stroke="none" stroke-dasharray="none" stroke-width="0.5" stroke-opacity="1" x="-8" y="464" width="57" height="16"/>
	<polyline fill="none" stroke="rgb(0,0,0)" stroke-width="0.5" stroke-opacity="1" points="50.6,472 57,472"/>
	<text fill="rgb(0,0,0)" font-size="11" font-family="helvetica" text-anchor="end" dominant-baseline="central" x="49" y="472">0</text>
	<polyline fill="none" stroke="rgb(0,0,0)" stroke-width="0.5" stroke-opacity="1" points="50.6,438 57,438"/>
	<text fill="rgb(0,0,0)" font-size="11" font-family="helvetica" text-anchor="end" dominant-baseline="central" x="49" y="438">50</text>
	<polyline fill="none" stroke="rgb(0,0,0)" stroke-width="0.5" stroke-opacity="1" points="50.6,404 57,404"/>
	<text fill="rgb(0,0,0)" font-size="11" font-family="helvetica" text-anchor="end" dominant-baseline="central" x="49" y="404">100</text>
	<polyline fill="none" stroke="rgb(0,0,0)" stroke-width="0.5" stroke-opacity="1" points="50.6,370 57,370"/>
	<text fill="rgb(0,0,0)" font-size="11" font-family="helvetica" text-anchor="end" dominant-baseline="central" x="49" y="370">150</text>
	<clipPath id="clipArea3">
		<rect x="57" y="370" width="296" height="102">
		</rect>
	</clipPath>
	<polyline fill="none" stroke="rgb(238,46,47)" stroke-width="1" stroke-opacity="1" clip-path="url(#clipArea3)" points="57,390.4 57,390.4 57,390.4 57.531,390.4 58.062,390.4 58.593,390.4 59.124,390.4 59.644,390.4 59.644,390.4 59.655,390.4 60.186,390.4 60.717,390.4 61.248,390.4 61.425,390.4 61.425,390.4 61.779,390.4 62.31,390.4 62.841,390.4 63.372,390.4 63.903,390.4 64.434,390.4 64.965,390.4 65.0079,390.4 65.0079,390.4 65.496,390.4 65.85,390.4 65.85,390.4 66.027,390.4 66.558,390.4 67.089,390.4 67.62,390.4 68.151,390.4 68.682,390.4 69.213,390.4 69.744,390.4 70.275,390.4 70.275,390.4 70.6203,390.4 70.6203,390.4 70.806,390.4 71.337,390.4 71.868,390.4 72.399,390.4 72.4875,390.4 72.4875,383.6 72.93,383.6 73.461,383.6 73.992,383.6 74.523,383.6 74.7,383.6 74.7,387 75.054,387 75.4375,387 75.4375,387 75.585,387 76.116,387 76.647,387 76.7385,387 76.7385,387 77.178,387 77.709,387 78.24,387 78.771,387 79.125,387 79.125,400.6 79.302,400.6 79.833,400.6 80.364,400.6 80.895,400.6 81.3375,400.6 81.3375,400.6 81.426,400.6 81.957,400.6 82.488,400.6 83.019,400.6 83.55,400.6 83.55,414.2 83.8766,414.2 83.8766,414.2 84.081,414.2 84.612,414.2 85.143,414.2 85.674,414.2 86.205,414.2 86.5,414.2 86.5,414.2 86.736,414.2 87.267,414.2 87.798,414.2 87.975,414.2 87.975,432.56 88.329,432.56 88.86,432.56 89.391,432.56 89.922,432.56 90.453,432.56 90.984,432.56 91.515,432.56 92.046,432.56 92.4,432.56 92.4,446.84 92.577,446.84 93.108,446.84 93.639,446.84 93.7516,446.84 93.7516,446.84 93.875,446.84 93.875,446.84 94.17,446.84 94.701,446.84 95.232,446.84 95.763,446.84 96.294,446.84 96.825,446.84 96.825,446.84 96.825,446.84 96.825,446.84 97.356,446.84 97.887,446.84 98.418,446.84 98.949,446.84 99.48,446.84 100.011,446.84 100.542,446.84 101.073,446.84 101.25,446.84 101.25,446.84 101.604,446.84 102.135,446.84 102.666,446.84 103.197,446.84 103.728,446.84 104.259,446.84 104.79,446.84 105.321,446.84 105.675,446.84 105.675,446.84 105.852,446.84 106.383,446.84 106.914,446.84 107.445,446.84 107.976,446.84 108.507,446.84 109.038,446.84 109.569,446.84 110.1,446.84 110.1,446.84 110.631,446.84 111.162,446.84 111.693,446.84 112.224,446.84 112.312,446.84 112.312,446.84 112.755,446.84 113.286,446.84 113.817,446.84 114.348,446.84 114.525,446.84 114.525,446.84 114.879,446.84 115.41,446.84 115.941,446.84 116,446.84 116,446.84 116.472,446.84 117.003,446.84 117.534,446.84 118.065,446.84 118.596,446.84 118.95,446.84 118.95,446.84 119.127,446.84 119.658,446.84 119.811,446.84 119.811,446.84 120.189,446.84 120.72,446.84 121.251,446.84 121.782,446.84 122.313,446.84 122.844,446.84 123.375,446.84 123.375,446.84 123.906,446.84 124.437,446.84 124.968,446.84 125.499,446.84 126.03,446.84 126.561,446.84 127.092,446.84 127.623,446.84 127.8,446.84 127.8,446.84 128.154,446.84 128.685,446.84 129.216,446.84 129.686,446.84 129.686,446.84 129.747,446.84 130.278,446.84 130.75,446.84 130.75,446.84 130.809,446.84 131.34,446.84 131.871,446.84 132.225,446.84 132.225,446.84 132.402,446.84 132.933,446.84 133.464,446.84 133.995,446.84 134.526,446.84 135.057,446.84 135.588,446.84 136.119,446.84 136.65,446.84 136.65,446.84 136.824,446.84 136.824,446.84 137.181,446.84 137.712,446.84 138.243,446.84 138.774,446.84 139.305,446.84 139.836,446.84 140.367,446.84 140.898,446.84 141.075,446.84 141.075,446.84 141.429,446.84 141.96,446.84 142.491,446.84 142.942,446.84 142.942,446.84 143.022,446.84 143.553,446.84 144.084,446.84 144.615,446.84 145.146,446.84 145.5,446.84 145.5,440.04 145.677,440.04 146.208,440.04 146.739,440.04 147.27,440.04 147.801,440.04 148.332,440.04 148.555,440.04 148.555,440.04 148.863,440.04 149.188,440.04 149.188,440.04 149.394,440.04 149.925,440.04 149.925,433.24 150.456,433.24 150.987,433.24 151.518,433.24 152.049,433.24 152.58,433.24 153.111,433.24 153.642,433.24 153.918,433.24 153.918,433.24 154.173,433.24 154.35,433.24 154.35,426.44 154.704,426.44 155.235,426.44 155.766,426.44 156.297,426.44 156.828,426.44 157.359,426.44 157.89,426.44 158.421,426.44 158.775,426.44 158.775,419.64 158.952,419.64 159.207,419.64 159.207,419.64 159.483,419.64 160.014,419.64 160.25,419.64 160.25,419.64 160.545,419.64 161.076,419.64 161.607,419.64 162.138,419.64 162.669,419.64 163.2,419.64 163.2,412.84 163.731,412.84 164.262,412.84 164.57,412.84 164.57,412.84 164.793,412.84 165.324,412.84 165.855,412.84 166.386,412.84 166.917,412.84 167.448,412.84 167.625,412.84 167.625,406.04 167.979,406.04 168.51,406.04 169.041,406.04 169.572,406.04 170.103,406.04 170.183,406.04 170.183,406.04 170.634,406.04 171.165,406.04 171.696,406.04 172.05,406.04 172.05,409.44 172.227,409.44 172.758,409.44 173.289,409.44 173.82,409.44 174.351,409.44 174.882,409.44 175.413,409.44 175.944,409.44 176.301,409.44 176.301,409.44 176.475,409.44 176.475,423.04 177.006,423.04 177.537,423.04 178.068,423.04 178.599,423.04 179.13,423.04 179.661,423.04 180.192,423.04 180.723,423.04 180.9,423.04 180.9,436.64 181.254,436.64 181.785,436.64 182.316,436.64 182.847,436.64 183.378,436.64 183.439,436.64 183.439,436.64 183.909,436.64 184.44,436.64 184.971,436.64 185.325,436.64 185.325,446.84 185.502,446.84 186.033,446.84 186.062,446.84 186.062,446.84 186.564,446.84 187.095,446.84 187.626,446.84 188.157,446.84 188.688,446.84 189.219,446.84 189.75,446.84 189.75,446.84 190.281,446.84 190.812,446.84 191.343,446.84 191.874,446.84 192.405,446.84 192.936,446.84 193.314,446.84 193.314,446.84 193.467,446.84 193.998,446.84 194.175,446.84 194.175,446.84 194.529,446.84 195.06,446.84 195.591,446.84 196.122,446.84 196.653,446.84 197.125,446.84 197.125,446.84 197.184,446.84 197.715,446.84 198.246,446.84 198.6,446.84 198.6,446.84 198.777,446.84 199.308,446.84 199.839,446.84 200.37,446.84 200.901,446.84 201.432,446.84 201.963,446.84 202.494,446.84 203.025,446.84 203.025,446.84 203.556,446.84 204.087,446.84 204.5,446.84 204.5,446.84 204.618,446.84 205.149,446.84 205.68,446.84 206.211,446.84 206.742,446.84 207.273,446.84 207.45,446.84 207.45,446.84 207.804,446.84 208.335,446.84 208.866,446.84 209.397,446.84 209.928,446.84 210.459,446.84 210.99,446.84 211.521,446.84 211.875,446.84 211.875,446.84 212.052,446.84 212.583,446.84 213.114,446.84 213.645,446.84 214.088,446.84 214.088,446.84 214.176,446.84 214.707,446.84 215.238,446.84 215.769,446.84 216.3,446.84 216.3,446.84 216.831,446.84 217.362,446.84 217.893,446.84 218.424,446.84 218.955,446.84 219.373,446.84 219.373,446.84 219.486,446.84 220.017,446.84 220.548,446.84 220.725,446.84 220.725,446.84 221.079,446.84 221.61,446.84 222.141,446.84 222.672,446.84 222.938,446.84 222.938,446.84 223.203,446.84 223.734,446.84 224.265,446.84 224.796,446.84 225.15,446.84 225.15,446.84 225.327,446.84 225.858,446.84 226.389,446.84 226.92,446.84 227.451,446.84 227.982,446.84 228.513,446.84 229.044,446.84 229.248,446.84 229.248,446.84 229.575,446.84 229.575,446.84 229.575,446.84 229.575,446.84 230.106,446.84 230.637,446.84 231.168,446.84 231.699,446.84 232.23,446.84 232.761,446.84 233.292,446.84 233.823,446.84 234,446.84 234,446.84 234.354,446.84 234.885,446.84 235.416,446.84 235.947,446.84 236.387,446.84 236.387,446.84 236.478,446.84 237.009,446.84 237.54,446.84 238.071,446.84 238.425,446.84 238.425,446.84 238.602,446.84 239.133,446.84 239.664,446.84 240.195,446.84 240.726,446.84 241.257,446.84 241.375,446.84 241.375,446.84 241.788,446.84 242.319,446.84 242.505,446.84 242.505,446.84 242.85,446.84 242.85,440.04 243.381,440.04 243.912,440.04 244.443,440.04 244.974,440.04 245.505,440.04 246.036,440.04 246.567,440.04 247.098,440.04 247.275,440.04 247.275,433.24 247.629,433.24 248.117,433.24 248.117,433.24 248.16,433.24 248.691,433.24 249.222,433.24 249.753,433.24 250.284,433.24 250.815,433.24 251.346,433.24 251.7,433.24 251.7,426.44 251.877,426.44 252.408,426.44 252.939,426.44 253.47,426.44 253.481,426.44 253.481,426.44 254.001,426.44 254.532,426.44 255.063,426.44 255.594,426.44 256.125,426.44 256.125,419.64 256.656,419.64 257.187,419.64 257.718,419.64 258.249,419.64 258.769,419.64 258.769,419.64 258.78,419.64 259.311,419.64 259.812,419.64 259.812,419.64 259.842,419.64 260.373,419.64 260.55,419.64 260.55,412.84 260.904,412.84 261.435,412.84 261.966,412.84 262.497,412.84 263.028,412.84 263.5,412.84 263.5,412.84 263.559,412.84 264.09,412.84 264.133,412.84 264.133,412.84 264.621,412.84 264.975,412.84 264.975,406.04 265.152,406.04 265.683,406.04 266.214,406.04 266.745,406.04 267.276,406.04 267.807,406.04 268.338,406.04 268.869,406.04 269.4,406.04 269.4,399.24 269.745,399.24 269.745,399.24 269.931,399.24 270.462,399.24 270.875,399.24 270.875,399.24 270.993,399.24 271.524,399.24 272.055,399.24 272.586,399.24 273.117,399.24 273.648,399.24 273.825,399.24 273.825,402.64 274.179,402.64 274.71,402.64 275.241,402.64 275.772,402.64 275.863,402.64 275.863,402.64 276.303,402.64 276.834,402.64 277.365,402.64 277.896,402.64 278.25,402.64 278.25,416.24 278.427,416.24 278.958,416.24 279.489,416.24 280.02,416.24 280.551,416.24 281.082,416.24 281.613,416.24 282.144,416.24 282.675,416.24 282.675,429.84 283.002,429.84 283.002,429.84 283.206,429.84 283.737,429.84 284.268,429.84 284.799,429.84 285.33,429.84 285.861,429.84 286.392,429.84 286.923,429.84 287.1,429.84 287.1,446.84 287.454,446.84 287.985,446.84 288.516,446.84 289.047,446.84 289.578,446.84 290.109,446.84 290.64,446.84 291.171,446.84 291.525,446.84 291.525,446.84 291.702,446.84 292.233,446.84 292.764,446.84 292.877,446.84 292.877,446.84 293.295,446.84 293.826,446.84 294.357,446.84 294.888,446.84 295.419,446.84 295.95,446.84 295.95,446.84 296.481,446.84 296.688,446.84 296.688,446.84 297.012,446.84 297.543,446.84 298.074,446.84 298.605,446.84 299.136,446.84 299.667,446.84 300.198,446.84 300.375,446.84 300.375,446.84 300.729,446.84 301.26,446.84 301.791,446.84 302.322,446.84 302.853,446.84 303.384,446.84 303.915,446.84 304.446,446.84 304.8,446.84 304.8,446.84 304.977,446.84 305.508,446.84 306.039,446.84 306.57,446.84 307.101,446.84 307.632,446.84 307.75,446.84 307.75,446.84 308.163,446.84 308.694,446.84 309.225,446.84 309.225,446.84 309.756,446.84 310.287,446.84 310.818,446.84 311.349,446.84 311.88,446.84 312.411,446.84 312.942,446.84 313.473,446.84 313.65,446.84 313.65,446.84 314.004,446.84 314.535,446.84 315.066,446.84 315.125,446.84 315.125,446.84 315.597,446.84 316.128,446.84 316.659,446.84 317.19,446.84 317.721,446.84 318.075,446.84 318.075,446.84 318.252,446.84 318.783,446.84 318.936,446.84 318.936,446.84 319.314,446.84 319.845,446.84 320.376,446.84 320.907,446.84 321.438,446.84 321.969,446.84 322.5,446.84 322.5,446.84"/>
	<rect fill="rgb(255,255,255)" stroke="none" stroke-opacity="0.7" transform="translate(128.5, 352.5) translate(0, 0) scale(1,-1)" x="-71.5" y="-8.5" width="143" height="17"/>
	<polyline fill="none" stroke="rgb(238,46,47)" stroke-width="1" stroke-opacity="1" points="57,353 87,353"/>
	<text fill="rgb(0,0,0)" font-size="11" font-family="helvetica" text-anchor="start" dominant-baseline="central" x="92" y="353">trimRespondLogic1.y</text>
</svg>
