<?xml version="1.0" standalone="no"?>
<!DOCTYPE svg PUBLIC "-//W3C//DTD SVG 1.1//EN" "http://www.w3.org/Graphics/SVG/1.1/DTD/svg11.dtd">
<svg viewBox="0 0 400 503" version="1.1" xmlns="http://www.w3.org/2000/svg" xmlns:xlink="http://www.w3.org/1999/xlink">
	<polyline fill="none" stroke="rgb(240,240,240)" stroke-width="0.5" stroke-opacity="1" points="57,19 57,138"/>
	<polyline fill="none" stroke="rgb(240,240,240)" stroke-width="0.5" stroke-opacity="1" points="93.875,19 93.875,138"/>
	<polyline fill="none" stroke="rgb(240,240,240)" stroke-width="0.5" stroke-opacity="1" points="130.75,19 130.75,138"/>
	<polyline fill="none" stroke="rgb(240,240,240)" stroke-width="0.5" stroke-opacity="1" points="167.625,19 167.625,138"/>
	<polyline fill="none" stroke="rgb(240,240,240)" stroke-width="0.5" stroke-opacity="1" points="204.5,19 204.5,138"/>
	<polyline fill="none" stroke="rgb(240,240,240)" stroke-width="0.5" stroke-opacity="1" points="241.375,19 241.375,138"/>
	<polyline fill="none" stroke="rgb(240,240,240)" stroke-width="0.5" stroke-opacity="1" points="278.25,19 278.25,138"/>
	<polyline fill="none" stroke="rgb(240,240,240)" stroke-width="0.5" stroke-opacity="1" points="315.125,19 315.125,138"/>
	<polyline fill="none" stroke="rgb(240,240,240)" stroke-width="0.5" stroke-opacity="1" points="352,19 352,138"/>
	<rect fill="rgb(240,240,240)" stroke="rgb(240,240,240)" stroke-width="0.5" stroke-opacity="1" x="57" y="33.875" width="295" height="37.1875"/>
	<rect fill="rgb(240,240,240)" stroke="rgb(240,240,240)" stroke-width="0.5" stroke-opacity="1" x="57" y="85.9375" width="295" height="37.1875"/>
	<polyline fill="none" stroke="rgb(0,0,0)" stroke-width="0.5" stroke-opacity="1" points="57,138 352,138"/>
	<polyline fill="none" stroke="rgb(0,0,0)" stroke-width="0.5" stroke-opacity="1" points="352,138 352,19"/>
	<polyline fill="none" stroke="rgb(0,0,0)" stroke-width="0.5" stroke-opacity="1" points="352,19 57,19"/>
	<polyline fill="none" stroke="rgb(0,0,0)" stroke-width="0.5" stroke-opacity="1" points="57,19 57,138"/>
	<polyline fill="none" stroke="rgb(0,0,0)" stroke-width="0.5" stroke-opacity="1" points="57,138 57,142"/>
	<polyline fill="none" stroke="rgb(0,0,0)" stroke-width="0.5" stroke-opacity="1" points="93.875,138 93.875,142"/>
	<polyline fill="none" stroke="rgb(0,0,0)" stroke-width="0.5" stroke-opacity="1" points="130.75,138 130.75,142"/>
	<polyline fill="none" stroke="rgb(0,0,0)" stroke-width="0.5" stroke-opacity="1" points="167.625,138 167.625,142"/>
	<polyline fill="none" stroke="rgb(0,0,0)" stroke-width="0.5" stroke-opacity="1" points="204.5,138 204.5,142"/>
	<polyline fill="none" stroke="rgb(0,0,0)" stroke-width="0.5" stroke-opacity="1" points="241.375,138 241.375,142"/>
	<polyline fill="none" stroke="rgb(0,0,0)" stroke-width="0.5" stroke-opacity="1" points="278.25,138 278.25,142"/>
	<polyline fill="none" stroke="rgb(0,0,0)" stroke-width="0.5" stroke-opacity="1" points="315.125,138 315.125,142"/>
	<polyline fill="none" stroke="rgb(0,0,0)" stroke-width="0.5" stroke-opacity="1" points="352,138 352,142"/>
	<polyline fill="none" stroke="rgb(0,0,0)" stroke-width="0.5" stroke-opacity="1" points="57,138 57,144.4"/>
	<text fill="rgb(0,0,0)" font-size="11" font-family="helvetica" text-anchor="middle" dominant-baseline="central" x="57" y="154">0</text>
	<polyline fill="none" stroke="rgb(0,0,0)" stroke-width="0.5" stroke-opacity="1" points="241.375,138 241.375,144.4"/>
	<text fill="rgb(0,0,0)" font-size="11" font-family="helvetica" text-anchor="middle" dominant-baseline="central" x="241.375" y="154">5000</text>
	<polyline fill="none" stroke="rgb(0,0,0)" stroke-width="0.5" stroke-opacity="1" points="53,71.0625 57,71.0625"/>
	<text fill="rgb(0,0,0)" font-size="11" font-family="helvetica" text-anchor="end" dominant-baseline="central" x="49" y="71.0625">false</text>
	<polyline fill="none" stroke="rgb(0,0,0)" stroke-width="0.5" stroke-opacity="1" points="53,33.875 57,33.875"/>
	<text fill="rgb(0,0,0)" font-size="11" font-family="helvetica" text-anchor="end" dominant-baseline="central" x="49" y="33.875">true</text>
	<polyline fill="none" stroke="rgb(0,0,0)" stroke-width="0.5" stroke-opacity="1" points="53,123.125 57,123.125"/>
	<text fill="rgb(0,0,0)" font-size="11" font-family="helvetica" text-anchor="end" dominant-baseline="central" x="49" y="123.125">false</text>
	<polyline fill="none" stroke="rgb(0,0,0)" stroke-width="0.5" stroke-opacity="1" points="53,85.9375 57,85.9375"/>
	<text fill="rgb(0,0,0)" font-size="11" font-family="helvetica" text-anchor="end" dominant-baseline="central" x="49" y="85.9375">true</text>
	<clipPath id="clipArea1">
		<rect x="57" y="19" width="296" height="119">
		</rect>
	</clipPath>
	<polyline fill="none" stroke="rgb(28,108,200)" stroke-width="1" stroke-opacity="1" clip-path="url(#clipArea1)" points="57,33.875 322.5,33.875"/>
	<polyline fill="none" stroke="rgb(28,108,200)" stroke-width="1" stroke-opacity="1" clip-path="url(#clipArea1)" points="57,123.125 57,123.125 57,123.125 57.531,123.125 58.062,123.125 58.593,123.125 59.124,123.125 59.644,123.125 59.644,123.125 59.655,123.125 60.186,123.125 60.717,123.125 61.248,123.125 61.425,123.125 61.425,123.125 61.779,123.125 62.31,123.125 62.841,123.125 63.372,123.125 63.903,123.125 64.434,123.125 64.965,123.125 65.0079,123.125 65.0079,123.125 65.496,123.125 65.85,123.125 65.85,123.125 66.027,123.125 66.558,123.125 67.089,123.125 67.62,123.125 68.151,123.125 68.682,123.125 69.213,123.125 69.744,123.125 70.275,123.125 70.275,123.125 70.6203,123.125 70.6203,123.125 70.806,123.125 71.337,123.125 71.868,123.125 72.399,123.125 72.4875,123.125 72.4875,123.125 72.93,123.125 73.461,123.125 73.992,123.125 74.523,123.125 74.7,123.125 74.7,123.125 75.054,123.125 75.4375,123.125 75.4375,85.9375 75.585,85.9375 76.116,85.9375 76.647,85.9375 76.7385,85.9375 76.7385,85.9375 77.178,85.9375 77.709,85.9375 78.24,85.9375 78.771,85.9375 79.125,85.9375 79.125,85.9375 79.302,85.9375 79.833,85.9375 80.364,85.9375 80.895,85.9375 81.3375,85.9375 81.3375,85.9375 81.426,85.9375 81.957,85.9375 82.488,85.9375 83.019,85.9375 83.55,85.9375 83.55,85.9375 83.8766,85.9375 83.8766,85.9375 84.081,85.9375 84.612,85.9375 85.143,85.9375 85.674,85.9375 86.205,85.9375 86.5,85.9375 86.5,85.9375 86.736,85.9375 87.267,85.9375 87.798,85.9375 87.975,85.9375 87.975,85.9375 88.329,85.9375 88.86,85.9375 89.391,85.9375 89.922,85.9375 90.453,85.9375 90.984,85.9375 91.515,85.9375 92.046,85.9375 92.4,85.9375 92.4,85.9375 92.577,85.9375 93.108,85.9375 93.639,85.9375 93.7516,85.9375 93.7516,85.9375 93.875,85.9375 93.875,123.125 94.17,123.125 94.701,123.125 95.232,123.125 95.763,123.125 96.294,123.125 96.825,123.125 96.825,123.125 96.825,123.125 96.825,123.125 97.356,123.125 97.887,123.125 98.418,123.125 98.949,123.125 99.48,123.125 100.011,123.125 100.542,123.125 101.073,123.125 101.25,123.125 101.25,123.125 101.604,123.125 102.135,123.125 102.666,123.125 103.197,123.125 103.728,123.125 104.259,123.125 104.79,123.125 105.321,123.125 105.675,123.125 105.675,123.125 105.852,123.125 106.383,123.125 106.914,123.125 107.445,123.125 107.976,123.125 108.507,123.125 109.038,123.125 109.569,123.125 110.1,123.125 110.1,123.125 110.631,123.125 111.162,123.125 111.693,123.125 112.224,123.125 112.312,123.125 112.312,85.9375 112.755,85.9375 113.286,85.9375 113.817,85.9375 114.348,85.9375 114.525,85.9375 114.525,85.9375 114.879,85.9375 115.41,85.9375 115.941,85.9375 116,85.9375 116,123.125 116.472,123.125 117.003,123.125 117.534,123.125 118.065,123.125 118.596,123.125 118.95,123.125 118.95,123.125 119.127,123.125 119.658,123.125 119.811,123.125 119.811,123.125 120.189,123.125 120.72,123.125 121.251,123.125 121.782,123.125 122.313,123.125 122.844,123.125 123.375,123.125 123.375,123.125 123.906,123.125 124.437,123.125 124.968,123.125 125.499,123.125 126.03,123.125 126.561,123.125 127.092,123.125 127.623,123.125 127.8,123.125 127.8,123.125 128.154,123.125 128.685,123.125 129.216,123.125 129.686,123.125 129.686,123.125 129.747,123.125 130.278,123.125 130.75,123.125 130.75,123.125 130.809,123.125 131.34,123.125 131.871,123.125 132.225,123.125 132.225,123.125 132.402,123.125 132.933,123.125 133.464,123.125 133.995,123.125 134.526,123.125 135.057,123.125 135.588,123.125 136.119,123.125 136.65,123.125 136.65,123.125 136.824,123.125 136.824,123.125 137.181,123.125 137.712,123.125 138.243,123.125 138.774,123.125 139.305,123.125 139.836,123.125 140.367,123.125 140.898,123.125 141.075,123.125 141.075,123.125 141.429,123.125 141.96,123.125 142.491,123.125 142.942,123.125 142.942,123.125 143.022,123.125 143.553,123.125 144.084,123.125 144.615,123.125 145.146,123.125 145.5,123.125 145.5,123.125 145.677,123.125 146.208,123.125 146.739,123.125 147.27,123.125 147.801,123.125 148.332,123.125 148.555,123.125 148.555,123.125 148.863,123.125 149.188,123.125 149.188,85.9375 149.394,85.9375 149.925,85.9375 149.925,85.9375 150.456,85.9375 150.987,85.9375 151.518,85.9375 152.049,85.9375 152.58,85.9375 153.111,85.9375 153.642,85.9375 153.918,85.9375 153.918,85.9375 154.173,85.9375 154.35,85.9375 154.35,85.9375 154.704,85.9375 155.235,85.9375 155.766,85.9375 156.297,85.9375 156.828,85.9375 157.359,85.9375 157.89,85.9375 158.421,85.9375 158.775,85.9375 158.775,85.9375 158.952,85.9375 159.207,85.9375 159.207,85.9375 159.483,85.9375 160.014,85.9375 160.25,85.9375 160.25,85.9375 160.545,85.9375 161.076,85.9375 161.607,85.9375 162.138,85.9375 162.669,85.9375 163.2,85.9375 163.2,85.9375 163.731,85.9375 164.262,85.9375 164.57,85.9375 164.57,85.9375 164.793,85.9375 165.324,85.9375 165.855,85.9375 166.386,85.9375 166.917,85.9375 167.448,85.9375 167.625,85.9375 167.625,123.125 167.979,123.125 168.51,123.125 169.041,123.125 169.572,123.125 170.103,123.125 170.183,123.125 170.183,123.125 170.634,123.125 171.165,123.125 171.696,123.125 172.05,123.125 172.05,123.125 172.227,123.125 172.758,123.125 173.289,123.125 173.82,123.125 174.351,123.125 174.882,123.125 175.413,123.125 175.944,123.125 176.301,123.125 176.301,123.125 176.475,123.125 176.475,123.125 177.006,123.125 177.537,123.125 178.068,123.125 178.599,123.125 179.13,123.125 179.661,123.125 180.192,123.125 180.723,123.125 180.9,123.125 180.9,123.125 181.254,123.125 181.785,123.125 182.316,123.125 182.847,123.125 183.378,123.125 183.439,123.125 183.439,123.125 183.909,123.125 184.44,123.125 184.971,123.125 185.325,123.125 185.325,123.125 185.502,123.125 186.033,123.125 186.062,123.125 186.062,85.9375 186.564,85.9375 187.095,85.9375 187.626,85.9375 188.157,85.9375 188.688,85.9375 189.219,85.9375 189.75,85.9375 189.75,123.125 190.281,123.125 190.812,123.125 191.343,123.125 191.874,123.125 192.405,123.125 192.936,123.125 193.314,123.125 193.314,123.125 193.467,123.125 193.998,123.125 194.175,123.125 194.175,123.125 194.529,123.125 195.06,123.125 195.591,123.125 196.122,123.125 196.653,123.125 197.125,123.125 197.125,123.125 197.184,123.125 197.715,123.125 198.246,123.125 198.6,123.125 198.6,123.125 198.777,123.125 199.308,123.125 199.839,123.125 200.37,123.125 200.901,123.125 201.432,123.125 201.963,123.125 202.494,123.125 203.025,123.125 203.025,123.125 203.556,123.125 204.087,123.125 204.5,123.125 204.5,123.125 204.618,123.125 205.149,123.125 205.68,123.125 206.211,123.125 206.742,123.125 207.273,123.125 207.45,123.125 207.45,123.125 207.804,123.125 208.335,123.125 208.866,123.125 209.397,123.125 209.928,123.125 210.459,123.125 210.99,123.125 211.521,123.125 211.875,123.125 211.875,123.125 212.052,123.125 212.583,123.125 213.114,123.125 213.645,123.125 214.088,123.125 214.088,123.125 214.176,123.125 214.707,123.125 215.238,123.125 215.769,123.125 216.3,123.125 216.3,123.125 216.831,123.125 217.362,123.125 217.893,123.125 218.424,123.125 218.955,123.125 219.373,123.125 219.373,123.125 219.486,123.125 220.017,123.125 220.548,123.125 220.725,123.125 220.725,123.125 221.079,123.125 221.61,123.125 222.141,123.125 222.672,123.125 222.938,123.125 222.938,85.9375 223.203,85.9375 223.734,85.9375 224.265,85.9375 224.796,85.9375 225.15,85.9375 225.15,85.9375 225.327,85.9375 225.858,85.9375 226.389,85.9375 226.92,85.9375 227.451,85.9375 227.982,85.9375 228.513,85.9375 229.044,85.9375 229.248,85.9375 229.248,85.9375 229.575,85.9375 229.575,85.9375 229.575,85.9375 229.575,85.9375 230.106,85.9375 230.637,85.9375 231.168,85.9375 231.699,85.9375 232.23,85.9375 232.761,85.9375 233.292,85.9375 233.823,85.9375 234,85.9375 234,85.9375 234.354,85.9375 234.885,85.9375 235.416,85.9375 235.947,85.9375 236.387,85.9375 236.387,85.9375 236.478,85.9375 237.009,85.9375 237.54,85.9375 238.071,85.9375 238.425,85.9375 238.425,85.9375 238.602,85.9375 239.133,85.9375 239.664,85.9375 240.195,85.9375 240.726,85.9375 241.257,85.9375 241.375,85.9375 241.375,123.125 241.788,123.125 242.319,123.125 242.505,123.125 242.505,123.125 242.85,123.125 242.85,123.125 243.381,123.125 243.912,123.125 244.443,123.125 244.974,123.125 245.505,123.125 246.036,123.125 246.567,123.125 247.098,123.125 247.275,123.125 247.275,123.125 247.629,123.125 248.117,123.125 248.117,123.125 248.16,123.125 248.691,123.125 249.222,123.125 249.753,123.125 250.284,123.125 250.815,123.125 251.346,123.125 251.7,123.125 251.7,123.125 251.877,123.125 252.408,123.125 252.939,123.125 253.47,123.125 253.481,123.125 253.481,123.125 254.001,123.125 254.532,123.125 255.063,123.125 255.594,123.125 256.125,123.125 256.125,123.125 256.656,123.125 257.187,123.125 257.718,123.125 258.249,123.125 258.769,123.125 258.769,123.125 258.78,123.125 259.311,123.125 259.812,123.125 259.812,85.9375 259.842,85.9375 260.373,85.9375 260.55,85.9375 260.55,85.9375 260.904,85.9375 261.435,85.9375 261.966,85.9375 262.497,85.9375 263.028,85.9375 263.5,85.9375 263.5,123.125 263.559,123.125 264.09,123.125 264.133,123.125 264.133,123.125 264.621,123.125 264.975,123.125 264.975,123.125 265.152,123.125 265.683,123.125 266.214,123.125 266.745,123.125 267.276,123.125 267.807,123.125 268.338,123.125 268.869,123.125 269.4,123.125 269.4,123.125 269.745,123.125 269.745,123.125 269.931,123.125 270.462,123.125 270.875,123.125 270.875,123.125 270.993,123.125 271.524,123.125 272.055,123.125 272.586,123.125 273.117,123.125 273.648,123.125 273.825,123.125 273.825,123.125 274.179,123.125 274.71,123.125 275.241,123.125 275.772,123.125 275.863,123.125 275.863,123.125 276.303,123.125 276.834,123.125 277.365,123.125 277.896,123.125 278.25,123.125 278.25,123.125 278.427,123.125 278.958,123.125 279.489,123.125 280.02,123.125 280.551,123.125 281.082,123.125 281.613,123.125 282.144,123.125 282.675,123.125 282.675,123.125 283.002,123.125 283.002,123.125 283.206,123.125 283.737,123.125 284.268,123.125 284.799,123.125 285.33,123.125 285.861,123.125 286.392,123.125 286.923,123.125 287.1,123.125 287.1,123.125 287.454,123.125 287.985,123.125 288.516,123.125 289.047,123.125 289.578,123.125 290.109,123.125 290.64,123.125 291.171,123.125 291.525,123.125 291.525,123.125 291.702,123.125 292.233,123.125 292.764,123.125 292.877,123.125 292.877,123.125 293.295,123.125 293.826,123.125 294.357,123.125 294.888,123.125 295.419,123.125 295.95,123.125 295.95,123.125 296.481,123.125 296.688,123.125 296.688,85.9375 297.012,85.9375 297.543,85.9375 298.074,85.9375 298.605,85.9375 299.136,85.9375 299.667,85.9375 300.198,85.9375 300.375,85.9375 300.375,85.9375 300.729,85.9375 301.26,85.9375 301.791,85.9375 302.322,85.9375 302.853,85.9375 303.384,85.9375 303.915,85.9375 304.446,85.9375 304.8,85.9375 304.8,85.9375 304.977,85.9375 305.508,85.9375 306.039,85.9375 306.57,85.9375 307.101,85.9375 307.632,85.9375 307.75,85.9375 307.75,85.9375 308.163,85.9375 308.694,85.9375 309.225,85.9375 309.225,85.9375 309.756,85.9375 310.287,85.9375 310.818,85.9375 311.349,85.9375 311.88,85.9375 312.411,85.9375 312.942,85.9375 313.473,85.9375 313.65,85.9375 313.65,85.9375 314.004,85.9375 314.535,85.9375 315.066,85.9375 315.125,85.9375 315.125,123.125 315.597,123.125 316.128,123.125 316.659,123.125 317.19,123.125 317.721,123.125 318.075,123.125 318.075,123.125 318.252,123.125 318.783,123.125 318.936,123.125 318.936,123.125 319.314,123.125 319.845,123.125 320.376,123.125 320.907,123.125 321.438,123.125 321.969,123.125 322.5,123.125 322.5,123.125"/>
	<text fill="rgb(0,0,0)" font-size="11" font-family="helvetica" text-anchor="start" dominant-baseline="central" x="58" y="22">trimRespondLogic.uDevSta</text>
	<text fill="rgb(0,0,0)" font-size="11" font-family="helvetica" text-anchor="start" dominant-baseline="central" x="58" y="74">trimRespondLogicHold.uHol</text>
	<polyline fill="none" stroke="rgb(240,240,240)" stroke-width="0.5" stroke-opacity="1" points="57,186 57,305"/>
	<polyline fill="none" stroke="rgb(240,240,240)" stroke-width="0.5" stroke-opacity="1" points="93.875,186 93.875,305"/>
	<polyline fill="none" stroke="rgb(240,240,240)" stroke-width="0.5" stroke-opacity="1" points="130.75,186 130.75,305"/>
	<polyline fill="none" stroke="rgb(240,240,240)" stroke-width="0.5" stroke-opacity="1" points="167.625,186 167.625,305"/>
	<polyline fill="none" stroke="rgb(240,240,240)" stroke-width="0.5" stroke-opacity="1" points="204.5,186 204.5,305"/>
	<polyline fill="none" stroke="rgb(240,240,240)" stroke-width="0.5" stroke-opacity="1" points="241.375,186 241.375,305"/>
	<polyline fill="none" stroke="rgb(240,240,240)" stroke-width="0.5" stroke-opacity="1" points="278.25,186 278.25,305"/>
	<polyline fill="none" stroke="rgb(240,240,240)" stroke-width="0.5" stroke-opacity="1" points="315.125,186 315.125,305"/>
	<polyline fill="none" stroke="rgb(240,240,240)" stroke-width="0.5" stroke-opacity="1" points="352,186 352,305"/>
	<rect fill="rgb(240,240,240)" stroke="rgb(240,240,240)" stroke-width="0.5" stroke-opacity="1" x="57" y="200.875" width="295" height="89.25"/>
	<polyline fill="none" stroke="rgb(0,0,0)" stroke-width="0.5" stroke-opacity="1" points="57,305 352,305"/>
	<polyline fill="none" stroke="rgb(0,0,0)" stroke-width="0.5" stroke-opacity="1" points="352,305 352,186"/>
	<polyline fill="none" stroke="rgb(0,0,0)" stroke-width="0.5" stroke-opacity="1" points="352,186 57,186"/>
	<polyline fill="none" stroke="rgb(0,0,0)" stroke-width="0.5" stroke-opacity="1" points="57,186 57,305"/>
	<polyline fill="none" stroke="rgb(0,0,0)" stroke-width="0.5" stroke-opacity="1" points="57,305 57,309"/>
	<polyline fill="none" stroke="rgb(0,0,0)" stroke-width="0.5" stroke-opacity="1" points="93.875,305 93.875,309"/>
	<polyline fill="none" stroke="rgb(0,0,0)" stroke-width="0.5" stroke-opacity="1" points="130.75,305 130.75,309"/>
	<polyline fill="none" stroke="rgb(0,0,0)" stroke-width="0.5" stroke-opacity="1" points="167.625,305 167.625,309"/>
	<polyline fill="none" stroke="rgb(0,0,0)" stroke-width="0.5" stroke-opacity="1" points="204.5,305 204.5,309"/>
	<polyline fill="none" stroke="rgb(0,0,0)" stroke-width="0.5" stroke-opacity="1" points="241.375,305 241.375,309"/>
	<polyline fill="none" stroke="rgb(0,0,0)" stroke-width="0.5" stroke-opacity="1" points="278.25,305 278.25,309"/>
	<polyline fill="none" stroke="rgb(0,0,0)" stroke-width="0.5" stroke-opacity="1" points="315.125,305 315.125,309"/>
	<polyline fill="none" stroke="rgb(0,0,0)" stroke-width="0.5" stroke-opacity="1" points="352,305 352,309"/>
	<polyline fill="none" stroke="rgb(0,0,0)" stroke-width="0.5" stroke-opacity="1" points="57,305 57,311.4"/>
	<text fill="rgb(0,0,0)" font-size="11" font-family="helvetica" text-anchor="middle" dominant-baseline="central" x="57" y="321">0</text>
	<polyline fill="none" stroke="rgb(0,0,0)" stroke-width="0.5" stroke-opacity="1" points="241.375,305 241.375,311.4"/>
	<text fill="rgb(0,0,0)" font-size="11" font-family="helvetica" text-anchor="middle" dominant-baseline="central" x="241.375" y="321">5000</text>
	<polyline fill="none" stroke="rgb(0,0,0)" stroke-width="0.5" stroke-opacity="1" points="53,290.125 57,290.125"/>
	<text fill="rgb(0,0,0)" font-size="11" font-family="helvetica" text-anchor="end" dominant-baseline="central" x="49" y="290.125">0</text>
	<polyline fill="none" stroke="rgb(0,0,0)" stroke-width="0.5" stroke-opacity="1" points="53,260.375 57,260.375"/>
	<text fill="rgb(0,0,0)" font-size="11" font-family="helvetica" text-anchor="end" dominant-baseline="central" x="49" y="260.375">2</text>
	<polyline fill="none" stroke="rgb(0,0,0)" stroke-width="0.5" stroke-opacity="1" points="53,230.625 57,230.625"/>
	<text fill="rgb(0,0,0)" font-size="11" font-family="helvetica" text-anchor="end" dominant-baseline="central" x="49" y="230.625">4</text>
	<polyline fill="none" stroke="rgb(0,0,0)" stroke-width="0.5" stroke-opacity="1" points="53,200.875 57,200.875"/>
	<text fill="rgb(0,0,0)" font-size="11" font-family="helvetica" text-anchor="end" dominant-baseline="central" x="49" y="200.875">6</text>
	<clipPath id="clipArea2">
		<rect x="57" y="186" width="296" height="119">
		</rect>
	</clipPath>
	<polyline fill="none" stroke="rgb(28,108,200)" stroke-width="1" stroke-opacity="1" clip-path="url(#clipArea2)" points="57,290.125 57,290.125 57,290.125 57.531,290.125 58.062,290.125 58.593,290.125 59.124,290.125 59.644,290.125 59.644,275.25 59.655,275.25 60.186,275.25 60.717,275.25 61.248,275.25 61.425,275.25 61.425,275.25 61.779,275.25 62.31,275.25 62.841,275.25 63.372,275.25 63.903,275.25 64.434,275.25 64.965,275.25 65.0079,275.25 65.0079,260.375 65.496,260.375 65.85,260.375 65.85,260.375 66.027,260.375 66.558,260.375 67.089,260.375 67.62,260.375 68.151,260.375 68.682,260.375 69.213,260.375 69.744,260.375 70.275,260.375 70.275,260.375 70.6203,260.375 70.6203,245.5 70.806,245.5 71.337,245.5 71.868,245.5 72.399,245.5 72.4875,245.5 72.4875,245.5 72.93,245.5 73.461,245.5 73.992,245.5 74.523,245.5 74.7,245.5 74.7,245.5 75.054,245.5 75.4375,245.5 75.4375,245.5 75.585,245.5 76.116,245.5 76.647,245.5 76.7385,245.5 76.7385,230.625 77.178,230.625 77.709,230.625 78.24,230.625 78.771,230.625 79.125,230.625 79.125,230.625 79.302,230.625 79.833,230.625 80.364,230.625 80.895,230.625 81.3375,230.625 81.3375,230.625 81.426,230.625 81.957,230.625 82.488,230.625 83.019,230.625 83.55,230.625 83.55,230.625 83.8766,230.625 83.8766,215.75 84.081,215.75 84.612,215.75 85.143,215.75 85.674,215.75 86.205,215.75 86.5,215.75 86.5,215.75 86.736,215.75 87.267,215.75 87.798,215.75 87.975,215.75 87.975,215.75 88.329,215.75 88.86,215.75 89.391,215.75 89.922,215.75 90.453,215.75 90.984,215.75 91.515,215.75 92.046,215.75 92.4,215.75 92.4,215.75 92.577,215.75 93.108,215.75 93.639,215.75 93.7516,215.75 93.7516,200.875 93.875,200.875 93.875,200.875 94.17,200.875 94.701,200.875 95.232,200.875 95.763,200.875 96.294,200.875 96.825,200.875 96.825,200.875 96.825,200.875 96.825,200.875 97.356,200.875 97.887,200.875 98.418,200.875 98.949,200.875 99.48,200.875 100.011,200.875 100.542,200.875 101.073,200.875 101.25,200.875 101.25,200.875 101.604,200.875 102.135,200.875 102.666,200.875 103.197,200.875 103.728,200.875 104.259,200.875 104.79,200.875 105.321,200.875 105.675,200.875 105.675,200.875 105.852,200.875 106.383,200.875 106.914,200.875 107.445,200.875 107.976,200.875 108.507,200.875 109.038,200.875 109.569,200.875 110.1,200.875 110.1,200.875 110.631,200.875 111.162,200.875 111.693,200.875 112.224,200.875 112.312,200.875 112.312,200.875 112.755,200.875 113.286,200.875 113.817,200.875 114.348,200.875 114.525,200.875 114.525,200.875 114.879,200.875 115.41,200.875 115.941,200.875 116,200.875 116,200.875 116.472,200.875 117.003,200.875 117.534,200.875 118.065,200.875 118.596,200.875 118.95,200.875 118.95,200.875 119.127,200.875 119.658,200.875 119.811,200.875 119.811,215.75 120.189,215.75 120.72,215.75 121.251,215.75 121.782,215.75 122.313,215.75 122.844,215.75 123.375,215.75 123.375,215.75 123.906,215.75 124.437,215.75 124.968,215.75 125.499,215.75 126.03,215.75 126.561,215.75 127.092,215.75 127.623,215.75 127.8,215.75 127.8,215.75 128.154,215.75 128.685,215.75 129.216,215.75 129.686,215.75 129.686,230.625 129.747,230.625 130.278,230.625 130.75,230.625 130.75,230.625 130.809,230.625 131.34,230.625 131.871,230.625 132.225,230.625 132.225,230.625 132.402,230.625 132.933,230.625 133.464,230.625 133.995,230.625 134.526,230.625 135.057,230.625 135.588,230.625 136.119,230.625 136.65,230.625 136.65,230.625 136.824,230.625 136.824,245.5 137.181,245.5 137.712,245.5 138.243,245.5 138.774,245.5 139.305,245.5 139.836,245.5 140.367,245.5 140.898,245.5 141.075,245.5 141.075,245.5 141.429,245.5 141.96,245.5 142.491,245.5 142.942,245.5 142.942,260.375 143.022,260.375 143.553,260.375 144.084,260.375 144.615,260.375 145.146,260.375 145.5,260.375 145.5,260.375 145.677,260.375 146.208,260.375 146.739,260.375 147.27,260.375 147.801,260.375 148.332,260.375 148.555,260.375 148.555,275.25 148.863,275.25 149.188,275.25 149.188,275.25 149.394,275.25 149.925,275.25 149.925,275.25 150.456,275.25 150.987,275.25 151.518,275.25 152.049,275.25 152.58,275.25 153.111,275.25 153.642,275.25 153.918,275.25 153.918,290.125 154.173,290.125 154.35,290.125 154.35,290.125 154.704,290.125 155.235,290.125 155.766,290.125 156.297,290.125 156.828,290.125 157.359,290.125 157.89,290.125 158.421,290.125 158.775,290.125 158.775,290.125 158.952,290.125 159.207,290.125 159.207,275.25 159.483,275.25 160.014,275.25 160.25,275.25 160.25,275.25 160.545,275.25 161.076,275.25 161.607,275.25 162.138,275.25 162.669,275.25 163.2,275.25 163.2,275.25 163.731,275.25 164.262,275.25 164.57,275.25 164.57,260.375 164.793,260.375 165.324,260.375 165.855,260.375 166.386,260.375 166.917,260.375 167.448,260.375 167.625,260.375 167.625,260.375 167.979,260.375 168.51,260.375 169.041,260.375 169.572,260.375 170.103,260.375 170.183,260.375 170.183,245.5 170.634,245.5 171.165,245.5 171.696,245.5 172.05,245.5 172.05,245.5 172.227,245.5 172.758,245.5 173.289,245.5 173.82,245.5 174.351,245.5 174.882,245.5 175.413,245.5 175.944,245.5 176.301,245.5 176.301,230.625 176.475,230.625 176.475,230.625 177.006,230.625 177.537,230.625 178.068,230.625 178.599,230.625 179.13,230.625 179.661,230.625 180.192,230.625 180.723,230.625 180.9,230.625 180.9,230.625 181.254,230.625 181.785,230.625 182.316,230.625 182.847,230.625 183.378,230.625 183.439,230.625 183.439,215.75 183.909,215.75 184.44,215.75 184.971,215.75 185.325,215.75 185.325,215.75 185.502,215.75 186.033,215.75 186.062,215.75 186.062,215.75 186.564,215.75 187.095,215.75 187.626,215.75 188.157,215.75 188.688,215.75 189.219,215.75 189.75,215.75 189.75,215.75 190.281,215.75 190.812,215.75 191.343,215.75 191.874,215.75 192.405,215.75 192.936,215.75 193.314,215.75 193.314,200.875 193.467,200.875 193.998,200.875 194.175,200.875 194.175,200.875 194.529,200.875 195.06,200.875 195.591,200.875 196.122,200.875 196.653,200.875 197.125,200.875 197.125,200.875 197.184,200.875 197.715,200.875 198.246,200.875 198.6,200.875 198.6,200.875 198.777,200.875 199.308,200.875 199.839,200.875 200.37,200.875 200.901,200.875 201.432,200.875 201.963,200.875 202.494,200.875 203.025,200.875 203.025,200.875 203.556,200.875 204.087,200.875 204.5,200.875 204.5,200.875 204.618,200.875 205.149,200.875 205.68,200.875 206.211,200.875 206.742,200.875 207.273,200.875 207.45,200.875 207.45,200.875 207.804,200.875 208.335,200.875 208.866,200.875 209.397,200.875 209.928,200.875 210.459,200.875 210.99,200.875 211.521,200.875 211.875,200.875 211.875,200.875 212.052,200.875 212.583,200.875 213.114,200.875 213.645,200.875 214.088,200.875 214.088,200.875 214.176,200.875 214.707,200.875 215.238,200.875 215.769,200.875 216.3,200.875 216.3,200.875 216.831,200.875 217.362,200.875 217.893,200.875 218.424,200.875 218.955,200.875 219.373,200.875 219.373,215.75 219.486,215.75 220.017,215.75 220.548,215.75 220.725,215.75 220.725,215.75 221.079,215.75 221.61,215.75 222.141,215.75 222.672,215.75 222.938,215.75 222.938,215.75 223.203,215.75 223.734,215.75 224.265,215.75 224.796,215.75 225.15,215.75 225.15,215.75 225.327,215.75 225.858,215.75 226.389,215.75 226.92,215.75 227.451,215.75 227.982,215.75 228.513,215.75 229.044,215.75 229.248,215.75 229.248,230.625 229.575,230.625 229.575,230.625 229.575,230.625 229.575,230.625 230.106,230.625 230.637,230.625 231.168,230.625 231.699,230.625 232.23,230.625 232.761,230.625 233.292,230.625 233.823,230.625 234,230.625 234,230.625 234.354,230.625 234.885,230.625 235.416,230.625 235.947,230.625 236.387,230.625 236.387,245.5 236.478,245.5 237.009,245.5 237.54,245.5 238.071,245.5 238.425,245.5 238.425,245.5 238.602,245.5 239.133,245.5 239.664,245.5 240.195,245.5 240.726,245.5 241.257,245.5 241.375,245.5 241.375,245.5 241.788,245.5 242.319,245.5 242.505,245.5 242.505,260.375 242.85,260.375 242.85,260.375 243.381,260.375 243.912,260.375 244.443,260.375 244.974,260.375 245.505,260.375 246.036,260.375 246.567,260.375 247.098,260.375 247.275,260.375 247.275,260.375 247.629,260.375 248.117,260.375 248.117,275.25 248.16,275.25 248.691,275.25 249.222,275.25 249.753,275.25 250.284,275.25 250.815,275.25 251.346,275.25 251.7,275.25 251.7,275.25 251.877,275.25 252.408,275.25 252.939,275.25 253.47,275.25 253.481,275.25 253.481,290.125 254.001,290.125 254.532,290.125 255.063,290.125 255.594,290.125 256.125,290.125 256.125,290.125 256.656,290.125 257.187,290.125 257.718,290.125 258.249,290.125 258.769,290.125 258.769,275.25 258.78,275.25 259.311,275.25 259.812,275.25 259.812,275.25 259.842,275.25 260.373,275.25 260.55,275.25 260.55,275.25 260.904,275.25 261.435,275.25 261.966,275.25 262.497,275.25 263.028,275.25 263.5,275.25 263.5,275.25 263.559,275.25 264.09,275.25 264.133,275.25 264.133,260.375 264.621,260.375 264.975,260.375 264.975,260.375 265.152,260.375 265.683,260.375 266.214,260.375 266.745,260.375 267.276,260.375 267.807,260.375 268.338,260.375 268.869,260.375 269.4,260.375 269.4,260.375 269.745,260.375 269.745,245.5 269.931,245.5 270.462,245.5 270.875,245.5 270.875,245.5 270.993,245.5 271.524,245.5 272.055,245.5 272.586,245.5 273.117,245.5 273.648,245.5 273.825,245.5 273.825,245.5 274.179,245.5 274.71,245.5 275.241,245.5 275.772,245.5 275.863,245.5 275.863,230.625 276.303,230.625 276.834,230.625 277.365,230.625 277.896,230.625 278.25,230.625 278.25,230.625 278.427,230.625 278.958,230.625 279.489,230.625 280.02,230.625 280.551,230.625 281.082,230.625 281.613,230.625 282.144,230.625 282.675,230.625 282.675,230.625 283.002,230.625 283.002,215.75 283.206,215.75 283.737,215.75 284.268,215.75 284.799,215.75 285.33,215.75 285.861,215.75 286.392,215.75 286.923,215.75 287.1,215.75 287.1,215.75 287.454,215.75 287.985,215.75 288.516,215.75 289.047,215.75 289.578,215.75 290.109,215.75 290.64,215.75 291.171,215.75 291.525,215.75 291.525,215.75 291.702,215.75 292.233,215.75 292.764,215.75 292.877,215.75 292.877,200.875 293.295,200.875 293.826,200.875 294.357,200.875 294.888,200.875 295.419,200.875 295.95,200.875 295.95,200.875 296.481,200.875 296.688,200.875 296.688,200.875 297.012,200.875 297.543,200.875 298.074,200.875 298.605,200.875 299.136,200.875 299.667,200.875 300.198,200.875 300.375,200.875 300.375,200.875 300.729,200.875 301.26,200.875 301.791,200.875 302.322,200.875 302.853,200.875 303.384,200.875 303.915,200.875 304.446,200.875 304.8,200.875 304.8,200.875 304.977,200.875 305.508,200.875 306.039,200.875 306.57,200.875 307.101,200.875 307.632,200.875 307.75,200.875 307.75,200.875 308.163,200.875 308.694,200.875 309.225,200.875 309.225,200.875 309.756,200.875 310.287,200.875 310.818,200.875 311.349,200.875 311.88,200.875 312.411,200.875 312.942,200.875 313.473,200.875 313.65,200.875 313.65,200.875 314.004,200.875 314.535,200.875 315.066,200.875 315.125,200.875 315.125,200.875 315.597,200.875 316.128,200.875 316.659,200.875 317.19,200.875 317.721,200.875 318.075,200.875 318.075,200.875 318.252,200.875 318.783,200.875 318.936,200.875 318.936,215.75 319.314,215.75 319.845,215.75 320.376,215.75 320.907,215.75 321.438,215.75 321.969,215.75 322.5,215.75 322.5,215.75"/>
	<text fill="rgb(0,0,0)" font-size="11" font-family="helvetica" text-anchor="start" dominant-baseline="central" x="58" y="189">trimRespondLogic.numOfReq</text>
	<polyline fill="none" stroke="rgb(229,229,229)" stroke-width="0.5" stroke-opacity="1" points="57,370 57,472"/>
	<polyline fill="none" stroke="rgb(229,229,229)" stroke-width="0.5" stroke-opacity="1" points="93.875,370 93.875,472"/>
	<polyline fill="none" stroke="rgb(229,229,229)" stroke-width="0.5" stroke-opacity="1" points="130.75,370 130.75,472"/>
	<polyline fill="none" stroke="rgb(229,229,229)" stroke-width="0.5" stroke-opacity="1" points="167.625,370 167.625,472"/>
	<polyline fill="none" stroke="rgb(229,229,229)" stroke-width="0.5" stroke-opacity="1" points="204.5,370 204.5,472"/>
	<polyline fill="none" stroke="rgb(229,229,229)" stroke-width="0.5" stroke-opacity="1" points="241.375,370 241.375,472"/>
	<polyline fill="none" stroke="rgb(229,229,229)" stroke-width="0.5" stroke-opacity="1" points="278.25,370 278.25,472"/>
	<polyline fill="none" stroke="rgb(229,229,229)" stroke-width="0.5" stroke-opacity="1" points="315.125,370 315.125,472"/>
	<polyline fill="none" stroke="rgb(229,229,229)" stroke-width="0.5" stroke-opacity="1" points="352,370 352,472"/>
	<polyline fill="none" stroke="rgb(229,229,229)" stroke-width="0.5" stroke-opacity="1" points="57,472 352,472"/>
	<polyline fill="none" stroke="rgb(229,229,229)" stroke-width="0.5" stroke-opacity="1" points="57,438 352,438"/>
	<polyline fill="none" stroke="rgb(229,229,229)" stroke-width="0.5" stroke-opacity="1" points="57,404 352,404"/>
	<polyline fill="none" stroke="rgb(229,229,229)" stroke-width="0.5" stroke-opacity="1" points="57,370 352,370"/>
	<polyline fill="none" stroke="rgb(0,0,0)" stroke-width="0.5" stroke-opacity="1" points="57,472 352,472"/>
	<polyline fill="none" stroke="rgb(0,0,0)" stroke-width="0.5" stroke-opacity="1" points="352,472 352,370"/>
	<polyline fill="none" stroke="rgb(0,0,0)" stroke-width="0.5" stroke-opacity="1" points="352,370 57,370"/>
	<polyline fill="none" stroke="rgb(0,0,0)" stroke-width="0.5" stroke-opacity="1" points="57,370 57,472"/>
	<polyline fill="none" stroke="rgb(0,0,0)" stroke-width="0.5" stroke-opacity="1" points="57,472 57,476"/>
	<polyline fill="none" stroke="rgb(0,0,0)" stroke-width="0.5" stroke-opacity="1" points="93.875,472 93.875,476"/>
	<polyline fill="none" stroke="rgb(0,0,0)" stroke-width="0.5" stroke-opacity="1" points="130.75,472 130.75,476"/>
	<polyline fill="none" stroke="rgb(0,0,0)" stroke-width="0.5" stroke-opacity="1" points="167.625,472 167.625,476"/>
	<polyline fill="none" stroke="rgb(0,0,0)" stroke-width="0.5" stroke-opacity="1" points="204.5,472 204.5,476"/>
	<polyline fill="none" stroke="rgb(0,0,0)" stroke-width="0.5" stroke-opacity="1" points="241.375,472 241.375,476"/>
	<polyline fill="none" stroke="rgb(0,0,0)" stroke-width="0.5" stroke-opacity="1" points="278.25,472 278.25,476"/>
	<polyline fill="none" stroke="rgb(0,0,0)" stroke-width="0.5" stroke-opacity="1" points="315.125,472 315.125,476"/>
	<polyline fill="none" stroke="rgb(0,0,0)" stroke-width="0.5" stroke-opacity="1" points="352,472 352,476"/>
	<polyline fill="none" stroke="rgb(0,0,0)" stroke-width="0.5" stroke-opacity="1" points="57,472 57,478.4"/>
	<text fill="rgb(0,0,0)" font-size="11" font-family="helvetica" text-anchor="middle" dominant-baseline="central" x="57" y="488">0</text>
	<polyline fill="none" stroke="rgb(0,0,0)" stroke-width="0.5" stroke-opacity="1" points="241.375,472 241.375,478.4"/>
	<text fill="rgb(0,0,0)" font-size="11" font-family="helvetica" text-anchor="middle" dominant-baseline="central" x="241.375" y="488">5000</text>
	<polyline fill="none" stroke="rgb(0,0,0)" stroke-width="0.5" stroke-opacity="1" points="53,472 57,472"/>
	<polyline fill="none" stroke="rgb(0,0,0)" stroke-width="0.5" stroke-opacity="1" points="53,438 57,438"/>
	<polyline fill="none" stroke="rgb(0,0,0)" stroke-width="0.5" stroke-opacity="1" points="53,404 57,404"/>
	<polyline fill="none" stroke="rgb(0,0,0)" stroke-width="0.5" stroke-opacity="1" points="53,370 57,370"/>
	<rect fill="none" stroke="none" stroke-dasharray="none" stroke-width="0.5" stroke-opacity="1" x="-8" y="464" width="57" height="16"/>
	<polyline fill="none" stroke="rgb(0,0,0)" stroke-width="0.5" stroke-opacity="1" points="50.6,472 57,472"/>
	<text fill="rgb(0,0,0)" font-size="11" font-family="helvetica" text-anchor="end" dominant-baseline="central" x="49" y="472">100</text>
	<polyline fill="none" stroke="rgb(0,0,0)" stroke-width="0.5" stroke-opacity="1" points="50.6,438 57,438"/>
	<text fill="rgb(0,0,0)" font-size="11" font-family="helvetica" text-anchor="end" dominant-baseline="central" x="49" y="438">200</text>
	<polyline fill="none" stroke="rgb(0,0,0)" stroke-width="0.5" stroke-opacity="1" points="50.6,404 57,404"/>
	<text fill="rgb(0,0,0)" font-size="11" font-family="helvetica" text-anchor="end" dominant-baseline="central" x="49" y="404">300</text>
	<polyline fill="none" stroke="rgb(0,0,0)" stroke-width="0.5" stroke-opacity="1" points="50.6,370 57,370"/>
	<text fill="rgb(0,0,0)" font-size="11" font-family="helvetica" text-anchor="end" dominant-baseline="central" x="49" y="370">400</text>
	<clipPath id="clipArea3">
		<rect x="57" y="370" width="296" height="102">
		</rect>
	</clipPath>
	<polyline fill="none" stroke="rgb(28,108,200)" stroke-width="1" stroke-opacity="1" clip-path="url(#clipArea3)" points="57,465.2 57,465.2 57,465.2 57.531,465.2 58.062,465.2 58.593,465.2 59.124,465.2 59.644,465.2 59.644,465.2 59.655,465.2 60.186,465.2 60.717,465.2 61.248,465.2 61.425,465.2 61.425,465.2 61.779,465.2 62.31,465.2 62.841,465.2 63.372,465.2 63.903,465.2 64.434,465.2 64.965,465.2 65.0079,465.2 65.0079,465.2 65.496,465.2 65.85,465.2 65.85,465.2 66.027,465.2 66.558,465.2 67.089,465.2 67.62,465.2 68.151,465.2 68.682,465.2 69.213,465.2 69.744,465.2 70.275,465.2 70.275,465.2 70.6203,465.2 70.6203,465.2 70.806,465.2 71.337,465.2 71.868,465.2 72.399,465.2 72.4875,465.2 72.4875,468.6 72.93,468.6 73.461,468.6 73.992,468.6 74.523,468.6 74.7,468.6 74.7,466.9 75.054,466.9 75.4375,466.9 75.4375,466.9 75.585,466.9 76.116,466.9 76.647,466.9 76.7385,466.9 76.7385,466.9 77.178,466.9 77.709,466.9 78.24,466.9 78.771,466.9 79.125,466.9 79.125,460.1 79.302,460.1 79.833,460.1 80.364,460.1 80.895,460.1 81.3375,460.1 81.3375,460.1 81.426,460.1 81.957,460.1 82.488,460.1 83.019,460.1 83.55,460.1 83.55,453.3 83.8766,453.3 83.8766,453.3 84.081,453.3 84.612,453.3 85.143,453.3 85.674,453.3 86.205,453.3 86.5,453.3 86.5,453.3 86.736,453.3 87.267,453.3 87.798,453.3 87.975,453.3 87.975,444.12 88.329,444.12 88.86,444.12 89.391,444.12 89.922,444.12 90.453,444.12 90.984,444.12 91.515,444.12 92.046,444.12 92.4,444.12 92.4,434.94 92.577,434.94 93.108,434.94 93.639,434.94 93.7516,434.94 93.7516,434.94 93.875,434.94 93.875,434.94 94.17,434.94 94.701,434.94 95.232,434.94 95.763,434.94 96.294,434.94 96.825,434.94 96.825,434.94 96.825,434.94 96.825,425.76 97.356,425.76 97.887,425.76 98.418,425.76 98.949,425.76 99.48,425.76 100.011,425.76 100.542,425.76 101.073,425.76 101.25,425.76 101.25,416.58 101.604,416.58 102.135,416.58 102.666,416.58 103.197,416.58 103.728,416.58 104.259,416.58 104.79,416.58 105.321,416.58 105.675,416.58 105.675,407.4 105.852,407.4 106.383,407.4 106.914,407.4 107.445,407.4 107.976,407.4 108.507,407.4 109.038,407.4 109.569,407.4 110.1,407.4 110.1,398.22 110.631,398.22 111.162,398.22 111.693,398.22 112.224,398.22 112.312,398.22 112.312,398.22 112.755,398.22 113.286,398.22 113.817,398.22 114.348,398.22 114.525,398.22 114.525,389.04 114.879,389.04 115.41,389.04 115.941,389.04 116,389.04 116,389.04 116.472,389.04 117.003,389.04 117.534,389.04 118.065,389.04 118.596,389.04 118.95,389.04 118.95,380.2 119.127,380.2 119.658,380.2 119.811,380.2 119.811,380.2 120.189,380.2 120.72,380.2 121.251,380.2 121.782,380.2 122.313,380.2 122.844,380.2 123.375,380.2 123.375,380.2 123.906,380.2 124.437,380.2 124.968,380.2 125.499,380.2 126.03,380.2 126.561,380.2 127.092,380.2 127.623,380.2 127.8,380.2 127.8,380.2 128.154,380.2 128.685,380.2 129.216,380.2 129.686,380.2 129.686,380.2 129.747,380.2 130.278,380.2 130.75,380.2 130.75,380.2 130.809,380.2 131.34,380.2 131.871,380.2 132.225,380.2 132.225,380.2 132.402,380.2 132.933,380.2 133.464,380.2 133.995,380.2 134.526,380.2 135.057,380.2 135.588,380.2 136.119,380.2 136.65,380.2 136.65,380.2 136.824,380.2 136.824,380.2 137.181,380.2 137.712,380.2 138.243,380.2 138.774,380.2 139.305,380.2 139.836,380.2 140.367,380.2 140.898,380.2 141.075,380.2 141.075,380.2 141.429,380.2 141.96,380.2 142.491,380.2 142.942,380.2 142.942,380.2 143.022,380.2 143.553,380.2 144.084,380.2 144.615,380.2 145.146,380.2 145.5,380.2 145.5,383.6 145.677,383.6 146.208,383.6 146.739,383.6 147.27,383.6 147.801,383.6 148.332,383.6 148.555,383.6 148.555,383.6 148.863,383.6 149.188,383.6 149.188,383.6 149.394,383.6 149.925,383.6 149.925,387 150.456,387 150.987,387 151.518,387 152.049,387 152.58,387 153.111,387 153.642,387 153.918,387 153.918,387 154.173,387 154.35,387 154.35,390.4 154.704,390.4 155.235,390.4 155.766,390.4 156.297,390.4 156.828,390.4 157.359,390.4 157.89,390.4 158.421,390.4 158.775,390.4 158.775,393.8 158.952,393.8 159.207,393.8 159.207,393.8 159.483,393.8 160.014,393.8 160.25,393.8 160.25,393.8 160.545,393.8 161.076,393.8 161.607,393.8 162.138,393.8 162.669,393.8 163.2,393.8 163.2,397.2 163.731,397.2 164.262,397.2 164.57,397.2 164.57,397.2 164.793,397.2 165.324,397.2 165.855,397.2 166.386,397.2 166.917,397.2 167.448,397.2 167.625,397.2 167.625,400.6 167.979,400.6 168.51,400.6 169.041,400.6 169.572,400.6 170.103,400.6 170.183,400.6 170.183,400.6 170.634,400.6 171.165,400.6 171.696,400.6 172.05,400.6 172.05,398.9 172.227,398.9 172.758,398.9 173.289,398.9 173.82,398.9 174.351,398.9 174.882,398.9 175.413,398.9 175.944,398.9 176.301,398.9 176.301,398.9 176.475,398.9 176.475,392.1 177.006,392.1 177.537,392.1 178.068,392.1 178.599,392.1 179.13,392.1 179.661,392.1 180.192,392.1 180.723,392.1 180.9,392.1 180.9,385.3 181.254,385.3 181.785,385.3 182.316,385.3 182.847,385.3 183.378,385.3 183.439,385.3 183.439,385.3 183.909,385.3 184.44,385.3 184.971,385.3 185.325,385.3 185.325,380.2 185.502,380.2 186.033,380.2 186.062,380.2 186.062,380.2 186.564,380.2 187.095,380.2 187.626,380.2 188.157,380.2 188.688,380.2 189.219,380.2 189.75,380.2 189.75,380.2 190.281,380.2 190.812,380.2 191.343,380.2 191.874,380.2 192.405,380.2 192.936,380.2 193.314,380.2 193.314,380.2 193.467,380.2 193.998,380.2 194.175,380.2 194.175,380.2 194.529,380.2 195.06,380.2 195.591,380.2 196.122,380.2 196.653,380.2 197.125,380.2 197.125,380.2 197.184,380.2 197.715,380.2 198.246,380.2 198.6,380.2 198.6,380.2 198.777,380.2 199.308,380.2 199.839,380.2 200.37,380.2 200.901,380.2 201.432,380.2 201.963,380.2 202.494,380.2 203.025,380.2 203.025,380.2 203.556,380.2 204.087,380.2 204.5,380.2 204.5,380.2 204.618,380.2 205.149,380.2 205.68,380.2 206.211,380.2 206.742,380.2 207.273,380.2 207.45,380.2 207.45,380.2 207.804,380.2 208.335,380.2 208.866,380.2 209.397,380.2 209.928,380.2 210.459,380.2 210.99,380.2 211.521,380.2 211.875,380.2 211.875,380.2 212.052,380.2 212.583,380.2 213.114,380.2 213.645,380.2 214.088,380.2 214.088,380.2 214.176,380.2 214.707,380.2 215.238,380.2 215.769,380.2 216.3,380.2 216.3,380.2 216.831,380.2 217.362,380.2 217.893,380.2 218.424,380.2 218.955,380.2 219.373,380.2 219.373,380.2 219.486,380.2 220.017,380.2 220.548,380.2 220.725,380.2 220.725,380.2 221.079,380.2 221.61,380.2 222.141,380.2 222.672,380.2 222.938,380.2 222.938,380.2 223.203,380.2 223.734,380.2 224.265,380.2 224.796,380.2 225.15,380.2 225.15,380.2 225.327,380.2 225.858,380.2 226.389,380.2 226.92,380.2 227.451,380.2 227.982,380.2 228.513,380.2 229.044,380.2 229.248,380.2 229.248,380.2 229.575,380.2 229.575,380.2 229.575,380.2 229.575,380.2 230.106,380.2 230.637,380.2 231.168,380.2 231.699,380.2 232.23,380.2 232.761,380.2 233.292,380.2 233.823,380.2 234,380.2 234,380.2 234.354,380.2 234.885,380.2 235.416,380.2 235.947,380.2 236.387,380.2 236.387,380.2 236.478,380.2 237.009,380.2 237.54,380.2 238.071,380.2 238.425,380.2 238.425,380.2 238.602,380.2 239.133,380.2 239.664,380.2 240.195,380.2 240.726,380.2 241.257,380.2 241.375,380.2 241.375,380.2 241.788,380.2 242.319,380.2 242.505,380.2 242.505,380.2 242.85,380.2 242.85,383.6 243.381,383.6 243.912,383.6 244.443,383.6 244.974,383.6 245.505,383.6 246.036,383.6 246.567,383.6 247.098,383.6 247.275,383.6 247.275,387 247.629,387 248.117,387 248.117,387 248.16,387 248.691,387 249.222,387 249.753,387 250.284,387 250.815,387 251.346,387 251.7,387 251.7,390.4 251.877,390.4 252.408,390.4 252.939,390.4 253.47,390.4 253.481,390.4 253.481,390.4 254.001,390.4 254.532,390.4 255.063,390.4 255.594,390.4 256.125,390.4 256.125,393.8 256.656,393.8 257.187,393.8 257.718,393.8 258.249,393.8 258.769,393.8 258.769,393.8 258.78,393.8 259.311,393.8 259.812,393.8 259.812,393.8 259.842,393.8 260.373,393.8 260.55,393.8 260.55,397.2 260.904,397.2 261.435,397.2 261.966,397.2 262.497,397.2 263.028,397.2 263.5,397.2 263.5,397.2 263.559,397.2 264.09,397.2 264.133,397.2 264.133,397.2 264.621,397.2 264.975,397.2 264.975,400.6 265.152,400.6 265.683,400.6 266.214,400.6 266.745,400.6 267.276,400.6 267.807,400.6 268.338,400.6 268.869,400.6 269.4,400.6 269.4,404 269.745,404 269.745,404 269.931,404 270.462,404 270.875,404 270.875,404 270.993,404 271.524,404 272.055,404 272.586,404 273.117,404 273.648,404 273.825,404 273.825,402.3 274.179,402.3 274.71,402.3 275.241,402.3 275.772,402.3 275.863,402.3 275.863,402.3 276.303,402.3 276.834,402.3 277.365,402.3 277.896,402.3 278.25,402.3 278.25,395.5 278.427,395.5 278.958,395.5 279.489,395.5 280.02,395.5 280.551,395.5 281.082,395.5 281.613,395.5 282.144,395.5 282.675,395.5 282.675,388.7 283.002,388.7 283.002,388.7 283.206,388.7 283.737,388.7 284.268,388.7 284.799,388.7 285.33,388.7 285.861,388.7 286.392,388.7 286.923,388.7 287.1,388.7 287.1,380.2 287.454,380.2 287.985,380.2 288.516,380.2 289.047,380.2 289.578,380.2 290.109,380.2 290.64,380.2 291.171,380.2 291.525,380.2 291.525,380.2 291.702,380.2 292.233,380.2 292.764,380.2 292.877,380.2 292.877,380.2 293.295,380.2 293.826,380.2 294.357,380.2 294.888,380.2 295.419,380.2 295.95,380.2 295.95,380.2 296.481,380.2 296.688,380.2 296.688,380.2 297.012,380.2 297.543,380.2 298.074,380.2 298.605,380.2 299.136,380.2 299.667,380.2 300.198,380.2 300.375,380.2 300.375,380.2 300.729,380.2 301.26,380.2 301.791,380.2 302.322,380.2 302.853,380.2 303.384,380.2 303.915,380.2 304.446,380.2 304.8,380.2 304.8,380.2 304.977,380.2 305.508,380.2 306.039,380.2 306.57,380.2 307.101,380.2 307.632,380.2 307.75,380.2 307.75,380.2 308.163,380.2 308.694,380.2 309.225,380.2 309.225,380.2 309.756,380.2 310.287,380.2 310.818,380.2 311.349,380.2 311.88,380.2 312.411,380.2 312.942,380.2 313.473,380.2 313.65,380.2 313.65,380.2 314.004,380.2 314.535,380.2 315.066,380.2 315.125,380.2 315.125,380.2 315.597,380.2 316.128,380.2 316.659,380.2 317.19,380.2 317.721,380.2 318.075,380.2 318.075,380.2 318.252,380.2 318.783,380.2 318.936,380.2 318.936,380.2 319.314,380.2 319.845,380.2 320.376,380.2 320.907,380.2 321.438,380.2 321.969,380.2 322.5,380.2 322.5,380.2"/>
	<polyline fill="none" stroke="rgb(238,46,47)" stroke-width="1" stroke-opacity="1" clip-path="url(#clipArea3)" points="57,465.2 57,465.2 57,465.2 57.531,465.2 58.062,465.2 58.593,465.2 59.124,465.2 59.644,465.2 59.644,465.2 59.655,465.2 60.186,465.2 60.717,465.2 61.248,465.2 61.425,465.2 61.425,465.2 61.779,465.2 62.31,465.2 62.841,465.2 63.372,465.2 63.903,465.2 64.434,465.2 64.965,465.2 65.0079,465.2 65.0079,465.2 65.496,465.2 65.85,465.2 65.85,465.2 66.027,465.2 66.558,465.2 67.089,465.2 67.62,465.2 68.151,465.2 68.682,465.2 69.213,465.2 69.744,465.2 70.275,465.2 70.275,465.2 70.6203,465.2 70.6203,465.2 70.806,465.2 71.337,465.2 71.868,465.2 72.399,465.2 72.4875,465.2 72.4875,468.6 72.93,468.6 73.461,468.6 73.992,468.6 74.523,468.6 74.7,468.6 74.7,466.9 75.054,466.9 75.4375,466.9 75.4375,466.9 75.585,466.9 76.116,466.9 76.647,466.9 76.7385,466.9 76.7385,466.9 77.178,466.9 77.709,466.9 78.24,466.9 78.771,466.9 79.125,466.9 79.125,466.9 79.302,466.9 79.833,466.9 80.364,466.9 80.895,466.9 81.3375,466.9 81.3375,466.9 81.426,466.9 81.957,466.9 82.488,466.9 83.019,466.9 83.55,466.9 83.55,466.9 83.8766,466.9 83.8766,466.9 84.081,466.9 84.612,466.9 85.143,466.9 85.674,466.9 86.205,466.9 86.5,466.9 86.5,466.9 86.736,466.9 87.267,466.9 87.798,466.9 87.975,466.9 87.975,466.9 88.329,466.9 88.86,466.9 89.391,466.9 89.922,466.9 90.453,466.9 90.984,466.9 91.515,466.9 92.046,466.9 92.4,466.9 92.4,466.9 92.577,466.9 93.108,466.9 93.639,466.9 93.7516,466.9 93.7516,466.9 93.875,466.9 93.875,466.9 94.17,466.9 94.701,466.9 95.232,466.9 95.763,466.9 96.294,466.9 96.825,466.9 96.825,466.9 96.825,466.9 96.825,457.72 97.356,457.72 97.887,457.72 98.418,457.72 98.949,457.72 99.48,457.72 100.011,457.72 100.542,457.72 101.073,457.72 101.25,457.72 101.25,448.54 101.604,448.54 102.135,448.54 102.666,448.54 103.197,448.54 103.728,448.54 104.259,448.54 104.79,448.54 105.321,448.54 105.675,448.54 105.675,439.36 105.852,439.36 106.383,439.36 106.914,439.36 107.445,439.36 107.976,439.36 108.507,439.36 109.038,439.36 109.569,439.36 110.1,439.36 110.1,430.18 110.631,430.18 111.162,430.18 111.693,430.18 112.224,430.18 112.312,430.18 112.312,430.18 112.755,430.18 113.286,430.18 113.817,430.18 114.348,430.18 114.525,430.18 114.525,430.18 114.879,430.18 115.41,430.18 115.941,430.18 116,430.18 116,430.18 116.472,430.18 117.003,430.18 117.534,430.18 118.065,430.18 118.596,430.18 118.95,430.18 118.95,430.18 119.127,430.18 119.658,430.18 119.811,430.18 119.811,430.18 120.189,430.18 120.72,430.18 121.251,430.18 121.782,430.18 122.313,430.18 122.844,430.18 123.375,430.18 123.375,421 123.906,421 124.437,421 124.968,421 125.499,421 126.03,421 126.561,421 127.092,421 127.623,421 127.8,421 127.8,411.82 128.154,411.82 128.685,411.82 129.216,411.82 129.686,411.82 129.686,411.82 129.747,411.82 130.278,411.82 130.75,411.82 130.75,411.82 130.809,411.82 131.34,411.82 131.871,411.82 132.225,411.82 132.225,405.02 132.402,405.02 132.933,405.02 133.464,405.02 133.995,405.02 134.526,405.02 135.057,405.02 135.588,405.02 136.119,405.02 136.65,405.02 136.65,398.22 136.824,398.22 136.824,398.22 137.181,398.22 137.712,398.22 138.243,398.22 138.774,398.22 139.305,398.22 139.836,398.22 140.367,398.22 140.898,398.22 141.075,398.22 141.075,396.52 141.429,396.52 141.96,396.52 142.491,396.52 142.942,396.52 142.942,396.52 143.022,396.52 143.553,396.52 144.084,396.52 144.615,396.52 145.146,396.52 145.5,396.52 145.5,399.92 145.677,399.92 146.208,399.92 146.739,399.92 147.27,399.92 147.801,399.92 148.332,399.92 148.555,399.92 148.555,399.92 148.863,399.92 149.188,399.92 149.188,399.92 149.394,399.92 149.925,399.92 149.925,399.92 150.456,399.92 150.987,399.92 151.518,399.92 152.049,399.92 152.58,399.92 153.111,399.92 153.642,399.92 153.918,399.92 153.918,399.92 154.173,399.92 154.35,399.92 154.35,399.92 154.704,399.92 155.235,399.92 155.766,399.92 156.297,399.92 156.828,399.92 157.359,399.92 157.89,399.92 158.421,399.92 158.775,399.92 158.775,399.92 158.952,399.92 159.207,399.92 159.207,399.92 159.483,399.92 160.014,399.92 160.25,399.92 160.25,399.92 160.545,399.92 161.076,399.92 161.607,399.92 162.138,399.92 162.669,399.92 163.2,399.92 163.2,399.92 163.731,399.92 164.262,399.92 164.57,399.92 164.57,399.92 164.793,399.92 165.324,399.92 165.855,399.92 166.386,399.92 166.917,399.92 167.448,399.92 167.625,399.92 167.625,403.32 167.979,403.32 168.51,403.32 169.041,403.32 169.572,403.32 170.103,403.32 170.183,403.32 170.183,403.32 170.634,403.32 171.165,403.32 171.696,403.32 172.05,403.32 172.05,401.62 172.227,401.62 172.758,401.62 173.289,401.62 173.82,401.62 174.351,401.62 174.882,401.62 175.413,401.62 175.944,401.62 176.301,401.62 176.301,401.62 176.475,401.62 176.475,394.82 177.006,394.82 177.537,394.82 178.068,394.82 178.599,394.82 179.13,394.82 179.661,394.82 180.192,394.82 180.723,394.82 180.9,394.82 180.9,388.02 181.254,388.02 181.785,388.02 182.316,388.02 182.847,388.02 183.378,388.02 183.439,388.02 183.439,388.02 183.909,388.02 184.44,388.02 184.971,388.02 185.325,388.02 185.325,380.2 185.502,380.2 186.033,380.2 186.062,380.2 186.062,380.2 186.564,380.2 187.095,380.2 187.626,380.2 188.157,380.2 188.688,380.2 189.219,380.2 189.75,380.2 189.75,380.2 190.281,380.2 190.812,380.2 191.343,380.2 191.874,380.2 192.405,380.2 192.936,380.2 193.314,380.2 193.314,380.2 193.467,380.2 193.998,380.2 194.175,380.2 194.175,380.2 194.529,380.2 195.06,380.2 195.591,380.2 196.122,380.2 196.653,380.2 197.125,380.2 197.125,380.2 197.184,380.2 197.715,380.2 198.246,380.2 198.6,380.2 198.6,380.2 198.777,380.2 199.308,380.2 199.839,380.2 200.37,380.2 200.901,380.2 201.432,380.2 201.963,380.2 202.494,380.2 203.025,380.2 203.025,380.2 203.556,380.2 204.087,380.2 204.5,380.2 204.5,380.2 204.618,380.2 205.149,380.2 205.68,380.2 206.211,380.2 206.742,380.2 207.273,380.2 207.45,380.2 207.45,380.2 207.804,380.2 208.335,380.2 208.866,380.2 209.397,380.2 209.928,380.2 210.459,380.2 210.99,380.2 211.521,380.2 211.875,380.2 211.875,380.2 212.052,380.2 212.583,380.2 213.114,380.2 213.645,380.2 214.088,380.2 214.088,380.2 214.176,380.2 214.707,380.2 215.238,380.2 215.769,380.2 216.3,380.2 216.3,380.2 216.831,380.2 217.362,380.2 217.893,380.2 218.424,380.2 218.955,380.2 219.373,380.2 219.373,380.2 219.486,380.2 220.017,380.2 220.548,380.2 220.725,380.2 220.725,380.2 221.079,380.2 221.61,380.2 222.141,380.2 222.672,380.2 222.938,380.2 222.938,380.2 223.203,380.2 223.734,380.2 224.265,380.2 224.796,380.2 225.15,380.2 225.15,380.2 225.327,380.2 225.858,380.2 226.389,380.2 226.92,380.2 227.451,380.2 227.982,380.2 228.513,380.2 229.044,380.2 229.248,380.2 229.248,380.2 229.575,380.2 229.575,380.2 229.575,380.2 229.575,380.2 230.106,380.2 230.637,380.2 231.168,380.2 231.699,380.2 232.23,380.2 232.761,380.2 233.292,380.2 233.823,380.2 234,380.2 234,380.2 234.354,380.2 234.885,380.2 235.416,380.2 235.947,380.2 236.387,380.2 236.387,380.2 236.478,380.2 237.009,380.2 237.54,380.2 238.071,380.2 238.425,380.2 238.425,380.2 238.602,380.2 239.133,380.2 239.664,380.2 240.195,380.2 240.726,380.2 241.257,380.2 241.375,380.2 241.375,380.2 241.788,380.2 242.319,380.2 242.505,380.2 242.505,380.2 242.85,380.2 242.85,383.6 243.381,383.6 243.912,383.6 244.443,383.6 244.974,383.6 245.505,383.6 246.036,383.6 246.567,383.6 247.098,383.6 247.275,383.6 247.275,387 247.629,387 248.117,387 248.117,387 248.16,387 248.691,387 249.222,387 249.753,387 250.284,387 250.815,387 251.346,387 251.7,387 251.7,390.4 251.877,390.4 252.408,390.4 252.939,390.4 253.47,390.4 253.481,390.4 253.481,390.4 254.001,390.4 254.532,390.4 255.063,390.4 255.594,390.4 256.125,390.4 256.125,393.8 256.656,393.8 257.187,393.8 257.718,393.8 258.249,393.8 258.769,393.8 258.769,393.8 258.78,393.8 259.311,393.8 259.812,393.8 259.812,393.8 259.842,393.8 260.373,393.8 260.55,393.8 260.55,393.8 260.904,393.8 261.435,393.8 261.966,393.8 262.497,393.8 263.028,393.8 263.5,393.8 263.5,393.8 263.559,393.8 264.09,393.8 264.133,393.8 264.133,393.8 264.621,393.8 264.975,393.8 264.975,393.8 265.152,393.8 265.683,393.8 266.214,393.8 266.745,393.8 267.276,393.8 267.807,393.8 268.338,393.8 268.869,393.8 269.4,393.8 269.4,393.8 269.745,393.8 269.745,393.8 269.931,393.8 270.462,393.8 270.875,393.8 270.875,393.8 270.993,393.8 271.524,393.8 272.055,393.8 272.586,393.8 273.117,393.8 273.648,393.8 273.825,393.8 273.825,392.1 274.179,392.1 274.71,392.1 275.241,392.1 275.772,392.1 275.863,392.1 275.863,392.1 276.303,392.1 276.834,392.1 277.365,392.1 277.896,392.1 278.25,392.1 278.25,385.3 278.427,385.3 278.958,385.3 279.489,385.3 280.02,385.3 280.551,385.3 281.082,385.3 281.613,385.3 282.144,385.3 282.675,385.3 282.675,380.2 283.002,380.2 283.002,380.2 283.206,380.2 283.737,380.2 284.268,380.2 284.799,380.2 285.33,380.2 285.861,380.2 286.392,380.2 286.923,380.2 287.1,380.2 287.1,380.2 287.454,380.2 287.985,380.2 288.516,380.2 289.047,380.2 289.578,380.2 290.109,380.2 290.64,380.2 291.171,380.2 291.525,380.2 291.525,380.2 291.702,380.2 292.233,380.2 292.764,380.2 292.877,380.2 292.877,380.2 293.295,380.2 293.826,380.2 294.357,380.2 294.888,380.2 295.419,380.2 295.95,380.2 295.95,380.2 296.481,380.2 296.688,380.2 296.688,380.2 297.012,380.2 297.543,380.2 298.074,380.2 298.605,380.2 299.136,380.2 299.667,380.2 300.198,380.2 300.375,380.2 300.375,380.2 300.729,380.2 301.26,380.2 301.791,380.2 302.322,380.2 302.853,380.2 303.384,380.2 303.915,380.2 304.446,380.2 304.8,380.2 304.8,380.2 304.977,380.2 305.508,380.2 306.039,380.2 306.57,380.2 307.101,380.2 307.632,380.2 307.75,380.2 307.75,380.2 308.163,380.2 308.694,380.2 309.225,380.2 309.225,380.2 309.756,380.2 310.287,380.2 310.818,380.2 311.349,380.2 311.88,380.2 312.411,380.2 312.942,380.2 313.473,380.2 313.65,380.2 313.65,380.2 314.004,380.2 314.535,380.2 315.066,380.2 315.125,380.2 315.125,380.2 315.597,380.2 316.128,380.2 316.659,380.2 317.19,380.2 317.721,380.2 318.075,380.2 318.075,380.2 318.252,380.2 318.783,380.2 318.936,380.2 318.936,380.2 319.314,380.2 319.845,380.2 320.376,380.2 320.907,380.2 321.438,380.2 321.969,380.2 322.5,380.2 322.5,380.2"/>
	<rect fill="rgb(255,255,255)" stroke="none" stroke-opacity="0.7" transform="translate(208, 352.5) translate(0, 0) scale(1,-1)" x="-151" y="-8.5" width="302" height="17"/>
	<polyline fill="none" stroke="rgb(28,108,200)" stroke-width="1" stroke-opacity="1" points="57,353 87,353"/>
	<text fill="rgb(0,0,0)" font-size="11" font-family="helvetica" text-anchor="start" dominant-baseline="central" x="92" y="353">trimRespondLogic.y</text>
	<polyline fill="none" stroke="rgb(238,46,47)" stroke-width="1" stroke-opacity="1" points="199,353 229,353"/>
	<text fill="rgb(0,0,0)" font-size="11" font-family="helvetica" text-anchor="start" dominant-baseline="central" x="234" y="353">trimRespondLogicHold.y</text>
</svg>
