<?xml version="1.0" standalone="no"?>
<!DOCTYPE svg PUBLIC "-//W3C//DTD SVG 1.1//EN" "http://www.w3.org/Graphics/SVG/1.1/DTD/svg11.dtd">
<svg viewBox="0 0 400 503" version="1.1" xmlns="http://www.w3.org/2000/svg" xmlns:xlink="http://www.w3.org/1999/xlink">
	<polyline fill="none" stroke="rgb(240,240,240)" stroke-width="0.5" stroke-opacity="1" points="57,19 57,138"/>
	<polyline fill="none" stroke="rgb(240,240,240)" stroke-width="0.5" stroke-opacity="1" points="93.875,19 93.875,138"/>
	<polyline fill="none" stroke="rgb(240,240,240)" stroke-width="0.5" stroke-opacity="1" points="130.75,19 130.75,138"/>
	<polyline fill="none" stroke="rgb(240,240,240)" stroke-width="0.5" stroke-opacity="1" points="167.625,19 167.625,138"/>
	<polyline fill="none" stroke="rgb(240,240,240)" stroke-width="0.5" stroke-opacity="1" points="204.5,19 204.5,138"/>
	<polyline fill="none" stroke="rgb(240,240,240)" stroke-width="0.5" stroke-opacity="1" points="241.375,19 241.375,138"/>
	<polyline fill="none" stroke="rgb(240,240,240)" stroke-width="0.5" stroke-opacity="1" points="278.25,19 278.25,138"/>
	<polyline fill="none" stroke="rgb(240,240,240)" stroke-width="0.5" stroke-opacity="1" points="315.125,19 315.125,138"/>
	<polyline fill="none" stroke="rgb(240,240,240)" stroke-width="0.5" stroke-opacity="1" points="352,19 352,138"/>
	<rect fill="rgb(240,240,240)" stroke="rgb(240,240,240)" stroke-width="0.5" stroke-opacity="1" x="57" y="33.875" width="295" height="89.25"/>
	<polyline fill="none" stroke="rgb(0,0,0)" stroke-width="0.5" stroke-opacity="1" points="57,138 352,138"/>
	<polyline fill="none" stroke="rgb(0,0,0)" stroke-width="0.5" stroke-opacity="1" points="352,138 352,19"/>
	<polyline fill="none" stroke="rgb(0,0,0)" stroke-width="0.5" stroke-opacity="1" points="352,19 57,19"/>
	<polyline fill="none" stroke="rgb(0,0,0)" stroke-width="0.5" stroke-opacity="1" points="57,19 57,138"/>
	<polyline fill="none" stroke="rgb(0,0,0)" stroke-width="0.5" stroke-opacity="1" points="57,138 57,142"/>
	<polyline fill="none" stroke="rgb(0,0,0)" stroke-width="0.5" stroke-opacity="1" points="93.875,138 93.875,142"/>
	<polyline fill="none" stroke="rgb(0,0,0)" stroke-width="0.5" stroke-opacity="1" points="130.75,138 130.75,142"/>
	<polyline fill="none" stroke="rgb(0,0,0)" stroke-width="0.5" stroke-opacity="1" points="167.625,138 167.625,142"/>
	<polyline fill="none" stroke="rgb(0,0,0)" stroke-width="0.5" stroke-opacity="1" points="204.5,138 204.5,142"/>
	<polyline fill="none" stroke="rgb(0,0,0)" stroke-width="0.5" stroke-opacity="1" points="241.375,138 241.375,142"/>
	<polyline fill="none" stroke="rgb(0,0,0)" stroke-width="0.5" stroke-opacity="1" points="278.25,138 278.25,142"/>
	<polyline fill="none" stroke="rgb(0,0,0)" stroke-width="0.5" stroke-opacity="1" points="315.125,138 315.125,142"/>
	<polyline fill="none" stroke="rgb(0,0,0)" stroke-width="0.5" stroke-opacity="1" points="352,138 352,142"/>
	<polyline fill="none" stroke="rgb(0,0,0)" stroke-width="0.5" stroke-opacity="1" points="57,138 57,144.4"/>
	<text fill="rgb(0,0,0)" font-size="11" font-family="helvetica" text-anchor="middle" dominant-baseline="central" x="57" y="154">0</text>
	<polyline fill="none" stroke="rgb(0,0,0)" stroke-width="0.5" stroke-opacity="1" points="241.375,138 241.375,144.4"/>
	<text fill="rgb(0,0,0)" font-size="11" font-family="helvetica" text-anchor="middle" dominant-baseline="central" x="241.375" y="154">5000</text>
	<polyline fill="none" stroke="rgb(0,0,0)" stroke-width="0.5" stroke-opacity="1" points="53,123.125 57,123.125"/>
	<text fill="rgb(0,0,0)" font-size="11" font-family="helvetica" text-anchor="end" dominant-baseline="central" x="49" y="123.125">false</text>
	<polyline fill="none" stroke="rgb(0,0,0)" stroke-width="0.5" stroke-opacity="1" points="53,33.875 57,33.875"/>
	<text fill="rgb(0,0,0)" font-size="11" font-family="helvetica" text-anchor="end" dominant-baseline="central" x="49" y="33.875">true</text>
	<clipPath id="clipArea1">
		<rect x="57" y="19" width="296" height="119">
		</rect>
	</clipPath>
	<polyline fill="none" stroke="rgb(28,108,200)" stroke-width="1" stroke-opacity="1" clip-path="url(#clipArea1)" points="57,123.125 57,123.125 57,123.125 57.531,123.125 58.062,123.125 58.593,123.125 59.124,123.125 59.644,123.125 59.644,123.125 59.655,123.125 60.186,123.125 60.717,123.125 61.248,123.125 61.425,123.125 61.425,123.125 61.779,123.125 62.31,123.125 62.841,123.125 63.372,123.125 63.903,123.125 64.434,123.125 64.965,123.125 65.0079,123.125 65.0079,123.125 65.496,123.125 65.85,123.125 65.85,123.125 66.027,123.125 66.558,123.125 67.089,123.125 67.62,123.125 68.151,123.125 68.682,123.125 69.213,123.125 69.744,123.125 70.275,123.125 70.275,123.125 70.6203,123.125 70.6203,123.125 70.806,123.125 71.337,123.125 71.868,123.125 72.399,123.125 72.4875,123.125 72.4875,123.125 72.93,123.125 73.461,123.125 73.992,123.125 74.523,123.125 74.7,123.125 74.7,123.125 75.054,123.125 75.4375,123.125 75.4375,123.125 75.585,123.125 76.116,123.125 76.647,123.125 76.7385,123.125 76.7385,123.125 77.178,123.125 77.709,123.125 78.24,123.125 78.771,123.125 79.125,123.125 79.125,123.125 79.302,123.125 79.833,123.125 80.364,123.125 80.895,123.125 81.3375,123.125 81.3375,33.875 81.426,33.875 81.957,33.875 82.488,33.875 83.019,33.875 83.55,33.875 83.55,33.875 83.8766,33.875 83.8766,33.875 84.081,33.875 84.612,33.875 85.143,33.875 85.674,33.875 86.205,33.875 86.5,33.875 86.5,33.875 86.736,33.875 87.267,33.875 87.798,33.875 87.975,33.875 87.975,33.875 88.329,33.875 88.86,33.875 89.391,33.875 89.922,33.875 90.453,33.875 90.984,33.875 91.515,33.875 92.046,33.875 92.4,33.875 92.4,33.875 92.577,33.875 93.108,33.875 93.639,33.875 93.7516,33.875 93.7516,33.875 93.875,33.875 93.875,33.875 94.17,33.875 94.701,33.875 95.232,33.875 95.763,33.875 96.294,33.875 96.825,33.875 96.825,33.875 96.825,33.875 96.825,33.875 97.356,33.875 97.887,33.875 98.418,33.875 98.949,33.875 99.48,33.875 100.011,33.875 100.542,33.875 101.073,33.875 101.25,33.875 101.25,33.875 101.604,33.875 102.135,33.875 102.666,33.875 103.197,33.875 103.728,33.875 104.259,33.875 104.79,33.875 105.321,33.875 105.675,33.875 105.675,33.875 105.852,33.875 106.383,33.875 106.914,33.875 107.445,33.875 107.976,33.875 108.507,33.875 109.038,33.875 109.569,33.875 110.1,33.875 110.1,33.875 110.631,33.875 111.162,33.875 111.693,33.875 112.224,33.875 112.312,33.875 112.312,33.875 112.755,33.875 113.286,33.875 113.817,33.875 114.348,33.875 114.525,33.875 114.525,33.875 114.879,33.875 115.41,33.875 115.941,33.875 116,33.875 116,33.875 116.472,33.875 117.003,33.875 117.534,33.875 118.065,33.875 118.596,33.875 118.95,33.875 118.95,33.875 119.127,33.875 119.658,33.875 119.811,33.875 119.811,33.875 120.189,33.875 120.72,33.875 121.251,33.875 121.782,33.875 122.313,33.875 122.844,33.875 123.375,33.875 123.375,33.875 123.906,33.875 124.437,33.875 124.968,33.875 125.499,33.875 126.03,33.875 126.561,33.875 127.092,33.875 127.623,33.875 127.8,33.875 127.8,33.875 128.154,33.875 128.685,33.875 129.216,33.875 129.686,33.875 129.686,33.875 129.747,33.875 130.278,33.875 130.75,33.875 130.75,33.875 130.809,33.875 131.34,33.875 131.871,33.875 132.225,33.875 132.225,33.875 132.402,33.875 132.933,33.875 133.464,33.875 133.995,33.875 134.526,33.875 135.057,33.875 135.588,33.875 136.119,33.875 136.65,33.875 136.65,33.875 136.824,33.875 136.824,33.875 137.181,33.875 137.712,33.875 138.243,33.875 138.774,33.875 139.305,33.875 139.836,33.875 140.367,33.875 140.898,33.875 141.075,33.875 141.075,33.875 141.429,33.875 141.96,33.875 142.491,33.875 142.942,33.875 142.942,33.875 143.022,33.875 143.553,33.875 144.084,33.875 144.615,33.875 145.146,33.875 145.5,33.875 145.5,33.875 145.677,33.875 146.208,33.875 146.739,33.875 147.27,33.875 147.801,33.875 148.332,33.875 148.555,33.875 148.555,33.875 148.863,33.875 149.188,33.875 149.188,33.875 149.394,33.875 149.925,33.875 149.925,33.875 150.456,33.875 150.987,33.875 151.518,33.875 152.049,33.875 152.58,33.875 153.111,33.875 153.642,33.875 153.918,33.875 153.918,33.875 154.173,33.875 154.35,33.875 154.35,33.875 154.704,33.875 155.235,33.875 155.766,33.875 156.297,33.875 156.828,33.875 157.359,33.875 157.89,33.875 158.421,33.875 158.775,33.875 158.775,33.875 158.952,33.875 159.207,33.875 159.207,33.875 159.483,33.875 160.014,33.875 160.25,33.875 160.25,33.875 160.545,33.875 161.076,33.875 161.607,33.875 162.138,33.875 162.669,33.875 163.2,33.875 163.2,33.875 163.731,33.875 164.262,33.875 164.57,33.875 164.57,33.875 164.793,33.875 165.324,33.875 165.855,33.875 166.386,33.875 166.917,33.875 167.448,33.875 167.625,33.875 167.625,33.875 167.979,33.875 168.51,33.875 169.041,33.875 169.572,33.875 170.103,33.875 170.183,33.875 170.183,33.875 170.634,33.875 171.165,33.875 171.696,33.875 172.05,33.875 172.05,33.875 172.227,33.875 172.758,33.875 173.289,33.875 173.82,33.875 174.351,33.875 174.882,33.875 175.413,33.875 175.944,33.875 176.301,33.875 176.301,33.875 176.475,33.875 176.475,33.875 177.006,33.875 177.537,33.875 178.068,33.875 178.599,33.875 179.13,33.875 179.661,33.875 180.192,33.875 180.723,33.875 180.9,33.875 180.9,33.875 181.254,33.875 181.785,33.875 182.316,33.875 182.847,33.875 183.378,33.875 183.439,33.875 183.439,33.875 183.909,33.875 184.44,33.875 184.971,33.875 185.325,33.875 185.325,33.875 185.502,33.875 186.033,33.875 186.062,33.875 186.062,33.875 186.564,33.875 187.095,33.875 187.626,33.875 188.157,33.875 188.688,33.875 189.219,33.875 189.75,33.875 189.75,123.125 190.281,123.125 190.812,123.125 191.343,123.125 191.874,123.125 192.405,123.125 192.936,123.125 193.314,123.125 193.314,123.125 193.467,123.125 193.998,123.125 194.175,123.125 194.175,123.125 194.529,123.125 195.06,123.125 195.591,123.125 196.122,123.125 196.653,123.125 197.125,123.125 197.125,123.125 197.184,123.125 197.715,123.125 198.246,123.125 198.6,123.125 198.6,123.125 198.777,123.125 199.308,123.125 199.839,123.125 200.37,123.125 200.901,123.125 201.432,123.125 201.963,123.125 202.494,123.125 203.025,123.125 203.025,123.125 203.556,123.125 204.087,123.125 204.5,123.125 204.5,123.125 204.618,123.125 205.149,123.125 205.68,123.125 206.211,123.125 206.742,123.125 207.273,123.125 207.45,123.125 207.45,123.125 207.804,123.125 208.335,123.125 208.866,123.125 209.397,123.125 209.928,123.125 210.459,123.125 210.99,123.125 211.521,123.125 211.875,123.125 211.875,123.125 212.052,123.125 212.583,123.125 213.114,123.125 213.645,123.125 214.088,123.125 214.088,33.875 214.176,33.875 214.707,33.875 215.238,33.875 215.769,33.875 216.3,33.875 216.3,33.875 216.831,33.875 217.362,33.875 217.893,33.875 218.424,33.875 218.955,33.875 219.373,33.875 219.373,33.875 219.486,33.875 220.017,33.875 220.548,33.875 220.725,33.875 220.725,33.875 221.079,33.875 221.61,33.875 222.141,33.875 222.672,33.875 222.938,33.875 222.938,33.875 223.203,33.875 223.734,33.875 224.265,33.875 224.796,33.875 225.15,33.875 225.15,33.875 225.327,33.875 225.858,33.875 226.389,33.875 226.92,33.875 227.451,33.875 227.982,33.875 228.513,33.875 229.044,33.875 229.248,33.875 229.248,33.875 229.575,33.875 229.575,33.875 229.575,33.875 229.575,33.875 230.106,33.875 230.637,33.875 231.168,33.875 231.699,33.875 232.23,33.875 232.761,33.875 233.292,33.875 233.823,33.875 234,33.875 234,33.875 234.354,33.875 234.885,33.875 235.416,33.875 235.947,33.875 236.387,33.875 236.387,33.875 236.478,33.875 237.009,33.875 237.54,33.875 238.071,33.875 238.425,33.875 238.425,33.875 238.602,33.875 239.133,33.875 239.664,33.875 240.195,33.875 240.726,33.875 241.257,33.875 241.375,33.875 241.375,33.875 241.788,33.875 242.319,33.875 242.505,33.875 242.505,33.875 242.85,33.875 242.85,33.875 243.381,33.875 243.912,33.875 244.443,33.875 244.974,33.875 245.505,33.875 246.036,33.875 246.567,33.875 247.098,33.875 247.275,33.875 247.275,33.875 247.629,33.875 248.117,33.875 248.117,33.875 248.16,33.875 248.691,33.875 249.222,33.875 249.753,33.875 250.284,33.875 250.815,33.875 251.346,33.875 251.7,33.875 251.7,33.875 251.877,33.875 252.408,33.875 252.939,33.875 253.47,33.875 253.481,33.875 253.481,33.875 254.001,33.875 254.532,33.875 255.063,33.875 255.594,33.875 256.125,33.875 256.125,33.875 256.656,33.875 257.187,33.875 257.718,33.875 258.249,33.875 258.769,33.875 258.769,33.875 258.78,33.875 259.311,33.875 259.812,33.875 259.812,33.875 259.842,33.875 260.373,33.875 260.55,33.875 260.55,33.875 260.904,33.875 261.435,33.875 261.966,33.875 262.497,33.875 263.028,33.875 263.5,33.875 263.5,33.875 263.559,33.875 264.09,33.875 264.133,33.875 264.133,33.875 264.621,33.875 264.975,33.875 264.975,33.875 265.152,33.875 265.683,33.875 266.214,33.875 266.745,33.875 267.276,33.875 267.807,33.875 268.338,33.875 268.869,33.875 269.4,33.875 269.4,33.875 269.745,33.875 269.745,33.875 269.931,33.875 270.462,33.875 270.875,33.875 270.875,33.875 270.993,33.875 271.524,33.875 272.055,33.875 272.586,33.875 273.117,33.875 273.648,33.875 273.825,33.875 273.825,33.875 274.179,33.875 274.71,33.875 275.241,33.875 275.772,33.875 275.863,33.875 275.863,33.875 276.303,33.875 276.834,33.875 277.365,33.875 277.896,33.875 278.25,33.875 278.25,33.875 278.427,33.875 278.958,33.875 279.489,33.875 280.02,33.875 280.551,33.875 281.082,33.875 281.613,33.875 282.144,33.875 282.675,33.875 282.675,33.875 283.002,33.875 283.002,33.875 283.206,33.875 283.737,33.875 284.268,33.875 284.799,33.875 285.33,33.875 285.861,33.875 286.392,33.875 286.923,33.875 287.1,33.875 287.1,33.875 287.454,33.875 287.985,33.875 288.516,33.875 289.047,33.875 289.578,33.875 290.109,33.875 290.64,33.875 291.171,33.875 291.525,33.875 291.525,33.875 291.702,33.875 292.233,33.875 292.764,33.875 292.877,33.875 292.877,33.875 293.295,33.875 293.826,33.875 294.357,33.875 294.888,33.875 295.419,33.875 295.95,33.875 295.95,33.875 296.481,33.875 296.688,33.875 296.688,33.875 297.012,33.875 297.543,33.875 298.074,33.875 298.605,33.875 299.136,33.875 299.667,33.875 300.198,33.875 300.375,33.875 300.375,33.875 300.729,33.875 301.26,33.875 301.791,33.875 302.322,33.875 302.853,33.875 303.384,33.875 303.915,33.875 304.446,33.875 304.8,33.875 304.8,33.875 304.977,33.875 305.508,33.875 306.039,33.875 306.57,33.875 307.101,33.875 307.632,33.875 307.75,33.875 307.75,33.875 308.163,33.875 308.694,33.875 309.225,33.875 309.225,33.875 309.756,33.875 310.287,33.875 310.818,33.875 311.349,33.875 311.88,33.875 312.411,33.875 312.942,33.875 313.473,33.875 313.65,33.875 313.65,33.875 314.004,33.875 314.535,33.875 315.066,33.875 315.125,33.875 315.125,33.875 315.597,33.875 316.128,33.875 316.659,33.875 317.19,33.875 317.721,33.875 318.075,33.875 318.075,33.875 318.252,33.875 318.783,33.875 318.936,33.875 318.936,33.875 319.314,33.875 319.845,33.875 320.376,33.875 320.907,33.875 321.438,33.875 321.969,33.875 322.5,33.875 322.5,123.125"/>
	<text fill="rgb(0,0,0)" font-size="11" font-family="helvetica" text-anchor="start" dominant-baseline="central" x="58" y="22">trimRespondLogic2.uDevSta</text>
	<polyline fill="none" stroke="rgb(240,240,240)" stroke-width="0.5" stroke-opacity="1" points="57,186 57,305"/>
	<polyline fill="none" stroke="rgb(240,240,240)" stroke-width="0.5" stroke-opacity="1" points="93.875,186 93.875,305"/>
	<polyline fill="none" stroke="rgb(240,240,240)" stroke-width="0.5" stroke-opacity="1" points="130.75,186 130.75,305"/>
	<polyline fill="none" stroke="rgb(240,240,240)" stroke-width="0.5" stroke-opacity="1" points="167.625,186 167.625,305"/>
	<polyline fill="none" stroke="rgb(240,240,240)" stroke-width="0.5" stroke-opacity="1" points="204.5,186 204.5,305"/>
	<polyline fill="none" stroke="rgb(240,240,240)" stroke-width="0.5" stroke-opacity="1" points="241.375,186 241.375,305"/>
	<polyline fill="none" stroke="rgb(240,240,240)" stroke-width="0.5" stroke-opacity="1" points="278.25,186 278.25,305"/>
	<polyline fill="none" stroke="rgb(240,240,240)" stroke-width="0.5" stroke-opacity="1" points="315.125,186 315.125,305"/>
	<polyline fill="none" stroke="rgb(240,240,240)" stroke-width="0.5" stroke-opacity="1" points="352,186 352,305"/>
	<rect fill="rgb(240,240,240)" stroke="rgb(240,240,240)" stroke-width="0.5" stroke-opacity="1" x="57" y="200.875" width="295" height="89.25"/>
	<polyline fill="none" stroke="rgb(0,0,0)" stroke-width="0.5" stroke-opacity="1" points="57,305 352,305"/>
	<polyline fill="none" stroke="rgb(0,0,0)" stroke-width="0.5" stroke-opacity="1" points="352,305 352,186"/>
	<polyline fill="none" stroke="rgb(0,0,0)" stroke-width="0.5" stroke-opacity="1" points="352,186 57,186"/>
	<polyline fill="none" stroke="rgb(0,0,0)" stroke-width="0.5" stroke-opacity="1" points="57,186 57,305"/>
	<polyline fill="none" stroke="rgb(0,0,0)" stroke-width="0.5" stroke-opacity="1" points="57,305 57,309"/>
	<polyline fill="none" stroke="rgb(0,0,0)" stroke-width="0.5" stroke-opacity="1" points="93.875,305 93.875,309"/>
	<polyline fill="none" stroke="rgb(0,0,0)" stroke-width="0.5" stroke-opacity="1" points="130.75,305 130.75,309"/>
	<polyline fill="none" stroke="rgb(0,0,0)" stroke-width="0.5" stroke-opacity="1" points="167.625,305 167.625,309"/>
	<polyline fill="none" stroke="rgb(0,0,0)" stroke-width="0.5" stroke-opacity="1" points="204.5,305 204.5,309"/>
	<polyline fill="none" stroke="rgb(0,0,0)" stroke-width="0.5" stroke-opacity="1" points="241.375,305 241.375,309"/>
	<polyline fill="none" stroke="rgb(0,0,0)" stroke-width="0.5" stroke-opacity="1" points="278.25,305 278.25,309"/>
	<polyline fill="none" stroke="rgb(0,0,0)" stroke-width="0.5" stroke-opacity="1" points="315.125,305 315.125,309"/>
	<polyline fill="none" stroke="rgb(0,0,0)" stroke-width="0.5" stroke-opacity="1" points="352,305 352,309"/>
	<polyline fill="none" stroke="rgb(0,0,0)" stroke-width="0.5" stroke-opacity="1" points="57,305 57,311.4"/>
	<text fill="rgb(0,0,0)" font-size="11" font-family="helvetica" text-anchor="middle" dominant-baseline="central" x="57" y="321">0</text>
	<polyline fill="none" stroke="rgb(0,0,0)" stroke-width="0.5" stroke-opacity="1" points="241.375,305 241.375,311.4"/>
	<text fill="rgb(0,0,0)" font-size="11" font-family="helvetica" text-anchor="middle" dominant-baseline="central" x="241.375" y="321">5000</text>
	<polyline fill="none" stroke="rgb(0,0,0)" stroke-width="0.5" stroke-opacity="1" points="53,290.125 57,290.125"/>
	<text fill="rgb(0,0,0)" font-size="11" font-family="helvetica" text-anchor="end" dominant-baseline="central" x="49" y="290.125">0</text>
	<polyline fill="none" stroke="rgb(0,0,0)" stroke-width="0.5" stroke-opacity="1" points="53,260.375 57,260.375"/>
	<text fill="rgb(0,0,0)" font-size="11" font-family="helvetica" text-anchor="end" dominant-baseline="central" x="49" y="260.375">2</text>
	<polyline fill="none" stroke="rgb(0,0,0)" stroke-width="0.5" stroke-opacity="1" points="53,230.625 57,230.625"/>
	<text fill="rgb(0,0,0)" font-size="11" font-family="helvetica" text-anchor="end" dominant-baseline="central" x="49" y="230.625">4</text>
	<polyline fill="none" stroke="rgb(0,0,0)" stroke-width="0.5" stroke-opacity="1" points="53,200.875 57,200.875"/>
	<text fill="rgb(0,0,0)" font-size="11" font-family="helvetica" text-anchor="end" dominant-baseline="central" x="49" y="200.875">6</text>
	<clipPath id="clipArea2">
		<rect x="57" y="186" width="296" height="119">
		</rect>
	</clipPath>
	<polyline fill="none" stroke="rgb(28,108,200)" stroke-width="1" stroke-opacity="1" clip-path="url(#clipArea2)" points="57,290.125 57,290.125 57,290.125 57.531,290.125 58.062,290.125 58.593,290.125 59.124,290.125 59.644,290.125 59.644,290.125 59.655,290.125 60.186,290.125 60.717,290.125 61.248,290.125 61.425,290.125 61.425,290.125 61.779,290.125 62.31,290.125 62.841,290.125 63.372,290.125 63.903,290.125 64.434,290.125 64.965,290.125 65.0079,290.125 65.0079,290.125 65.496,290.125 65.85,290.125 65.85,290.125 66.027,290.125 66.558,290.125 67.089,290.125 67.62,290.125 68.151,290.125 68.682,290.125 69.213,290.125 69.744,290.125 70.275,290.125 70.275,290.125 70.6203,290.125 70.6203,290.125 70.806,290.125 71.337,290.125 71.868,290.125 72.399,290.125 72.4875,290.125 72.4875,290.125 72.93,290.125 73.461,290.125 73.992,290.125 74.523,290.125 74.7,290.125 74.7,290.125 75.054,290.125 75.4375,290.125 75.4375,290.125 75.585,290.125 76.116,290.125 76.647,290.125 76.7385,290.125 76.7385,290.125 77.178,290.125 77.709,290.125 78.24,290.125 78.771,290.125 79.125,290.125 79.125,290.125 79.302,290.125 79.833,290.125 80.364,290.125 80.895,290.125 81.3375,290.125 81.3375,230.625 81.426,230.625 81.957,230.625 82.488,230.625 83.019,230.625 83.55,230.625 83.55,230.625 83.8766,230.625 83.8766,215.75 84.081,215.75 84.612,215.75 85.143,215.75 85.674,215.75 86.205,215.75 86.5,215.75 86.5,215.75 86.736,215.75 87.267,215.75 87.798,215.75 87.975,215.75 87.975,215.75 88.329,215.75 88.86,215.75 89.391,215.75 89.922,215.75 90.453,215.75 90.984,215.75 91.515,215.75 92.046,215.75 92.4,215.75 92.4,215.75 92.577,215.75 93.108,215.75 93.639,215.75 93.7516,215.75 93.7516,200.875 93.875,200.875 93.875,200.875 94.17,200.875 94.701,200.875 95.232,200.875 95.763,200.875 96.294,200.875 96.825,200.875 96.825,200.875 96.825,200.875 96.825,200.875 97.356,200.875 97.887,200.875 98.418,200.875 98.949,200.875 99.48,200.875 100.011,200.875 100.542,200.875 101.073,200.875 101.25,200.875 101.25,200.875 101.604,200.875 102.135,200.875 102.666,200.875 103.197,200.875 103.728,200.875 104.259,200.875 104.79,200.875 105.321,200.875 105.675,200.875 105.675,200.875 105.852,200.875 106.383,200.875 106.914,200.875 107.445,200.875 107.976,200.875 108.507,200.875 109.038,200.875 109.569,200.875 110.1,200.875 110.1,200.875 110.631,200.875 111.162,200.875 111.693,200.875 112.224,200.875 112.312,200.875 112.312,200.875 112.755,200.875 113.286,200.875 113.817,200.875 114.348,200.875 114.525,200.875 114.525,200.875 114.879,200.875 115.41,200.875 115.941,200.875 116,200.875 116,200.875 116.472,200.875 117.003,200.875 117.534,200.875 118.065,200.875 118.596,200.875 118.95,200.875 118.95,200.875 119.127,200.875 119.658,200.875 119.811,200.875 119.811,215.75 120.189,215.75 120.72,215.75 121.251,215.75 121.782,215.75 122.313,215.75 122.844,215.75 123.375,215.75 123.375,215.75 123.906,215.75 124.437,215.75 124.968,215.75 125.499,215.75 126.03,215.75 126.561,215.75 127.092,215.75 127.623,215.75 127.8,215.75 127.8,215.75 128.154,215.75 128.685,215.75 129.216,215.75 129.686,215.75 129.686,230.625 129.747,230.625 130.278,230.625 130.75,230.625 130.75,230.625 130.809,230.625 131.34,230.625 131.871,230.625 132.225,230.625 132.225,230.625 132.402,230.625 132.933,230.625 133.464,230.625 133.995,230.625 134.526,230.625 135.057,230.625 135.588,230.625 136.119,230.625 136.65,230.625 136.65,230.625 136.824,230.625 136.824,245.5 137.181,245.5 137.712,245.5 138.243,245.5 138.774,245.5 139.305,245.5 139.836,245.5 140.367,245.5 140.898,245.5 141.075,245.5 141.075,245.5 141.429,245.5 141.96,245.5 142.491,245.5 142.942,245.5 142.942,260.375 143.022,260.375 143.553,260.375 144.084,260.375 144.615,260.375 145.146,260.375 145.5,260.375 145.5,260.375 145.677,260.375 146.208,260.375 146.739,260.375 147.27,260.375 147.801,260.375 148.332,260.375 148.555,260.375 148.555,275.25 148.863,275.25 149.188,275.25 149.188,275.25 149.394,275.25 149.925,275.25 149.925,275.25 150.456,275.25 150.987,275.25 151.518,275.25 152.049,275.25 152.58,275.25 153.111,275.25 153.642,275.25 153.918,275.25 153.918,290.125 154.173,290.125 154.35,290.125 154.35,290.125 154.704,290.125 155.235,290.125 155.766,290.125 156.297,290.125 156.828,290.125 157.359,290.125 157.89,290.125 158.421,290.125 158.775,290.125 158.775,290.125 158.952,290.125 159.207,290.125 159.207,275.25 159.483,275.25 160.014,275.25 160.25,275.25 160.25,275.25 160.545,275.25 161.076,275.25 161.607,275.25 162.138,275.25 162.669,275.25 163.2,275.25 163.2,275.25 163.731,275.25 164.262,275.25 164.57,275.25 164.57,260.375 164.793,260.375 165.324,260.375 165.855,260.375 166.386,260.375 166.917,260.375 167.448,260.375 167.625,260.375 167.625,260.375 167.979,260.375 168.51,260.375 169.041,260.375 169.572,260.375 170.103,260.375 170.183,260.375 170.183,245.5 170.634,245.5 171.165,245.5 171.696,245.5 172.05,245.5 172.05,245.5 172.227,245.5 172.758,245.5 173.289,245.5 173.82,245.5 174.351,245.5 174.882,245.5 175.413,245.5 175.944,245.5 176.301,245.5 176.301,230.625 176.475,230.625 176.475,230.625 177.006,230.625 177.537,230.625 178.068,230.625 178.599,230.625 179.13,230.625 179.661,230.625 180.192,230.625 180.723,230.625 180.9,230.625 180.9,230.625 181.254,230.625 181.785,230.625 182.316,230.625 182.847,230.625 183.378,230.625 183.439,230.625 183.439,215.75 183.909,215.75 184.44,215.75 184.971,215.75 185.325,215.75 185.325,215.75 185.502,215.75 186.033,215.75 186.062,215.75 186.062,215.75 186.564,215.75 187.095,215.75 187.626,215.75 188.157,215.75 188.688,215.75 189.219,215.75 189.75,215.75 189.75,290.125 190.281,290.125 190.812,290.125 191.343,290.125 191.874,290.125 192.405,290.125 192.936,290.125 193.314,290.125 193.314,290.125 193.467,290.125 193.998,290.125 194.175,290.125 194.175,290.125 194.529,290.125 195.06,290.125 195.591,290.125 196.122,290.125 196.653,290.125 197.125,290.125 197.125,290.125 197.184,290.125 197.715,290.125 198.246,290.125 198.6,290.125 198.6,290.125 198.777,290.125 199.308,290.125 199.839,290.125 200.37,290.125 200.901,290.125 201.432,290.125 201.963,290.125 202.494,290.125 203.025,290.125 203.025,290.125 203.556,290.125 204.087,290.125 204.5,290.125 204.5,290.125 204.618,290.125 205.149,290.125 205.68,290.125 206.211,290.125 206.742,290.125 207.273,290.125 207.45,290.125 207.45,290.125 207.804,290.125 208.335,290.125 208.866,290.125 209.397,290.125 209.928,290.125 210.459,290.125 210.99,290.125 211.521,290.125 211.875,290.125 211.875,290.125 212.052,290.125 212.583,290.125 213.114,290.125 213.645,290.125 214.088,290.125 214.088,200.875 214.176,200.875 214.707,200.875 215.238,200.875 215.769,200.875 216.3,200.875 216.3,200.875 216.831,200.875 217.362,200.875 217.893,200.875 218.424,200.875 218.955,200.875 219.373,200.875 219.373,215.75 219.486,215.75 220.017,215.75 220.548,215.75 220.725,215.75 220.725,215.75 221.079,215.75 221.61,215.75 222.141,215.75 222.672,215.75 222.938,215.75 222.938,215.75 223.203,215.75 223.734,215.75 224.265,215.75 224.796,215.75 225.15,215.75 225.15,215.75 225.327,215.75 225.858,215.75 226.389,215.75 226.92,215.75 227.451,215.75 227.982,215.75 228.513,215.75 229.044,215.75 229.248,215.75 229.248,230.625 229.575,230.625 229.575,230.625 229.575,230.625 229.575,230.625 230.106,230.625 230.637,230.625 231.168,230.625 231.699,230.625 232.23,230.625 232.761,230.625 233.292,230.625 233.823,230.625 234,230.625 234,230.625 234.354,230.625 234.885,230.625 235.416,230.625 235.947,230.625 236.387,230.625 236.387,245.5 236.478,245.5 237.009,245.5 237.54,245.5 238.071,245.5 238.425,245.5 238.425,245.5 238.602,245.5 239.133,245.5 239.664,245.5 240.195,245.5 240.726,245.5 241.257,245.5 241.375,245.5 241.375,245.5 241.788,245.5 242.319,245.5 242.505,245.5 242.505,260.375 242.85,260.375 242.85,260.375 243.381,260.375 243.912,260.375 244.443,260.375 244.974,260.375 245.505,260.375 246.036,260.375 246.567,260.375 247.098,260.375 247.275,260.375 247.275,260.375 247.629,260.375 248.117,260.375 248.117,275.25 248.16,275.25 248.691,275.25 249.222,275.25 249.753,275.25 250.284,275.25 250.815,275.25 251.346,275.25 251.7,275.25 251.7,275.25 251.877,275.25 252.408,275.25 252.939,275.25 253.47,275.25 253.481,275.25 253.481,290.125 254.001,290.125 254.532,290.125 255.063,290.125 255.594,290.125 256.125,290.125 256.125,290.125 256.656,290.125 257.187,290.125 257.718,290.125 258.249,290.125 258.769,290.125 258.769,275.25 258.78,275.25 259.311,275.25 259.812,275.25 259.812,275.25 259.842,275.25 260.373,275.25 260.55,275.25 260.55,275.25 260.904,275.25 261.435,275.25 261.966,275.25 262.497,275.25 263.028,275.25 263.5,275.25 263.5,275.25 263.559,275.25 264.09,275.25 264.133,275.25 264.133,260.375 264.621,260.375 264.975,260.375 264.975,260.375 265.152,260.375 265.683,260.375 266.214,260.375 266.745,260.375 267.276,260.375 267.807,260.375 268.338,260.375 268.869,260.375 269.4,260.375 269.4,260.375 269.745,260.375 269.745,245.5 269.931,245.5 270.462,245.5 270.875,245.5 270.875,245.5 270.993,245.5 271.524,245.5 272.055,245.5 272.586,245.5 273.117,245.5 273.648,245.5 273.825,245.5 273.825,245.5 274.179,245.5 274.71,245.5 275.241,245.5 275.772,245.5 275.863,245.5 275.863,230.625 276.303,230.625 276.834,230.625 277.365,230.625 277.896,230.625 278.25,230.625 278.25,230.625 278.427,230.625 278.958,230.625 279.489,230.625 280.02,230.625 280.551,230.625 281.082,230.625 281.613,230.625 282.144,230.625 282.675,230.625 282.675,230.625 283.002,230.625 283.002,215.75 283.206,215.75 283.737,215.75 284.268,215.75 284.799,215.75 285.33,215.75 285.861,215.75 286.392,215.75 286.923,215.75 287.1,215.75 287.1,215.75 287.454,215.75 287.985,215.75 288.516,215.75 289.047,215.75 289.578,215.75 290.109,215.75 290.64,215.75 291.171,215.75 291.525,215.75 291.525,215.75 291.702,215.75 292.233,215.75 292.764,215.75 292.877,215.75 292.877,200.875 293.295,200.875 293.826,200.875 294.357,200.875 294.888,200.875 295.419,200.875 295.95,200.875 295.95,200.875 296.481,200.875 296.688,200.875 296.688,200.875 297.012,200.875 297.543,200.875 298.074,200.875 298.605,200.875 299.136,200.875 299.667,200.875 300.198,200.875 300.375,200.875 300.375,200.875 300.729,200.875 301.26,200.875 301.791,200.875 302.322,200.875 302.853,200.875 303.384,200.875 303.915,200.875 304.446,200.875 304.8,200.875 304.8,200.875 304.977,200.875 305.508,200.875 306.039,200.875 306.57,200.875 307.101,200.875 307.632,200.875 307.75,200.875 307.75,200.875 308.163,200.875 308.694,200.875 309.225,200.875 309.225,200.875 309.756,200.875 310.287,200.875 310.818,200.875 311.349,200.875 311.88,200.875 312.411,200.875 312.942,200.875 313.473,200.875 313.65,200.875 313.65,200.875 314.004,200.875 314.535,200.875 315.066,200.875 315.125,200.875 315.125,200.875 315.597,200.875 316.128,200.875 316.659,200.875 317.19,200.875 317.721,200.875 318.075,200.875 318.075,200.875 318.252,200.875 318.783,200.875 318.936,200.875 318.936,215.75 319.314,215.75 319.845,215.75 320.376,215.75 320.907,215.75 321.438,215.75 321.969,215.75 322.5,215.75 322.5,290.125"/>
	<text fill="rgb(0,0,0)" font-size="11" font-family="helvetica" text-anchor="start" dominant-baseline="central" x="58" y="189">trimRespondLogic2.numOfReq</text>
	<polyline fill="none" stroke="rgb(229,229,229)" stroke-width="0.5" stroke-opacity="1" points="57,370 57,472"/>
	<polyline fill="none" stroke="rgb(229,229,229)" stroke-width="0.5" stroke-opacity="1" points="93.875,370 93.875,472"/>
	<polyline fill="none" stroke="rgb(229,229,229)" stroke-width="0.5" stroke-opacity="1" points="130.75,370 130.75,472"/>
	<polyline fill="none" stroke="rgb(229,229,229)" stroke-width="0.5" stroke-opacity="1" points="167.625,370 167.625,472"/>
	<polyline fill="none" stroke="rgb(229,229,229)" stroke-width="0.5" stroke-opacity="1" points="204.5,370 204.5,472"/>
	<polyline fill="none" stroke="rgb(229,229,229)" stroke-width="0.5" stroke-opacity="1" points="241.375,370 241.375,472"/>
	<polyline fill="none" stroke="rgb(229,229,229)" stroke-width="0.5" stroke-opacity="1" points="278.25,370 278.25,472"/>
	<polyline fill="none" stroke="rgb(229,229,229)" stroke-width="0.5" stroke-opacity="1" points="315.125,370 315.125,472"/>
	<polyline fill="none" stroke="rgb(229,229,229)" stroke-width="0.5" stroke-opacity="1" points="352,370 352,472"/>
	<polyline fill="none" stroke="rgb(229,229,229)" stroke-width="0.5" stroke-opacity="1" points="57,472 352,472"/>
	<polyline fill="none" stroke="rgb(229,229,229)" stroke-width="0.5" stroke-opacity="1" points="57,438 352,438"/>
	<polyline fill="none" stroke="rgb(229,229,229)" stroke-width="0.5" stroke-opacity="1" points="57,404 352,404"/>
	<polyline fill="none" stroke="rgb(229,229,229)" stroke-width="0.5" stroke-opacity="1" points="57,370 352,370"/>
	<polyline fill="none" stroke="rgb(0,0,0)" stroke-width="0.5" stroke-opacity="1" points="57,472 352,472"/>
	<polyline fill="none" stroke="rgb(0,0,0)" stroke-width="0.5" stroke-opacity="1" points="352,472 352,370"/>
	<polyline fill="none" stroke="rgb(0,0,0)" stroke-width="0.5" stroke-opacity="1" points="352,370 57,370"/>
	<polyline fill="none" stroke="rgb(0,0,0)" stroke-width="0.5" stroke-opacity="1" points="57,370 57,472"/>
	<polyline fill="none" stroke="rgb(0,0,0)" stroke-width="0.5" stroke-opacity="1" points="57,472 57,476"/>
	<polyline fill="none" stroke="rgb(0,0,0)" stroke-width="0.5" stroke-opacity="1" points="93.875,472 93.875,476"/>
	<polyline fill="none" stroke="rgb(0,0,0)" stroke-width="0.5" stroke-opacity="1" points="130.75,472 130.75,476"/>
	<polyline fill="none" stroke="rgb(0,0,0)" stroke-width="0.5" stroke-opacity="1" points="167.625,472 167.625,476"/>
	<polyline fill="none" stroke="rgb(0,0,0)" stroke-width="0.5" stroke-opacity="1" points="204.5,472 204.5,476"/>
	<polyline fill="none" stroke="rgb(0,0,0)" stroke-width="0.5" stroke-opacity="1" points="241.375,472 241.375,476"/>
	<polyline fill="none" stroke="rgb(0,0,0)" stroke-width="0.5" stroke-opacity="1" points="278.25,472 278.25,476"/>
	<polyline fill="none" stroke="rgb(0,0,0)" stroke-width="0.5" stroke-opacity="1" points="315.125,472 315.125,476"/>
	<polyline fill="none" stroke="rgb(0,0,0)" stroke-width="0.5" stroke-opacity="1" points="352,472 352,476"/>
	<polyline fill="none" stroke="rgb(0,0,0)" stroke-width="0.5" stroke-opacity="1" points="57,472 57,478.4"/>
	<text fill="rgb(0,0,0)" font-size="11" font-family="helvetica" text-anchor="middle" dominant-baseline="central" x="57" y="488">0</text>
	<polyline fill="none" stroke="rgb(0,0,0)" stroke-width="0.5" stroke-opacity="1" points="241.375,472 241.375,478.4"/>
	<text fill="rgb(0,0,0)" font-size="11" font-family="helvetica" text-anchor="middle" dominant-baseline="central" x="241.375" y="488">5000</text>
	<polyline fill="none" stroke="rgb(0,0,0)" stroke-width="0.5" stroke-opacity="1" points="53,472 57,472"/>
	<polyline fill="none" stroke="rgb(0,0,0)" stroke-width="0.5" stroke-opacity="1" points="53,438 57,438"/>
	<polyline fill="none" stroke="rgb(0,0,0)" stroke-width="0.5" stroke-opacity="1" points="53,404 57,404"/>
	<polyline fill="none" stroke="rgb(0,0,0)" stroke-width="0.5" stroke-opacity="1" points="53,370 57,370"/>
	<rect fill="none" stroke="none" stroke-dasharray="none" stroke-width="0.5" stroke-opacity="1" x="-8" y="464" width="57" height="16"/>
	<polyline fill="none" stroke="rgb(0,0,0)" stroke-width="0.5" stroke-opacity="1" points="50.6,472 57,472"/>
	<text fill="rgb(0,0,0)" font-size="11" font-family="helvetica" text-anchor="end" dominant-baseline="central" x="49" y="472">100</text>
	<polyline fill="none" stroke="rgb(0,0,0)" stroke-width="0.5" stroke-opacity="1" points="50.6,438 57,438"/>
	<text fill="rgb(0,0,0)" font-size="11" font-family="helvetica" text-anchor="end" dominant-baseline="central" x="49" y="438">200</text>
	<polyline fill="none" stroke="rgb(0,0,0)" stroke-width="0.5" stroke-opacity="1" points="50.6,404 57,404"/>
	<text fill="rgb(0,0,0)" font-size="11" font-family="helvetica" text-anchor="end" dominant-baseline="central" x="49" y="404">300</text>
	<polyline fill="none" stroke="rgb(0,0,0)" stroke-width="0.5" stroke-opacity="1" points="50.6,370 57,370"/>
	<text fill="rgb(0,0,0)" font-size="11" font-family="helvetica" text-anchor="end" dominant-baseline="central" x="49" y="370">400</text>
	<clipPath id="clipArea3">
		<rect x="57" y="370" width="296" height="102">
		</rect>
	</clipPath>
	<polyline fill="none" stroke="rgb(238,46,47)" stroke-width="1" stroke-opacity="1" clip-path="url(#clipArea3)" points="57,465.2 57,465.2 57,465.2 57.531,465.2 58.062,465.2 58.593,465.2 59.124,465.2 59.644,465.2 59.644,465.2 59.655,465.2 60.186,465.2 60.717,465.2 61.248,465.2 61.425,465.2 61.425,465.2 61.779,465.2 62.31,465.2 62.841,465.2 63.372,465.2 63.903,465.2 64.434,465.2 64.965,465.2 65.0079,465.2 65.0079,465.2 65.496,465.2 65.85,465.2 65.85,465.2 66.027,465.2 66.558,465.2 67.089,465.2 67.62,465.2 68.151,465.2 68.682,465.2 69.213,465.2 69.744,465.2 70.275,465.2 70.275,465.2 70.6203,465.2 70.6203,465.2 70.806,465.2 71.337,465.2 71.868,465.2 72.399,465.2 72.4875,465.2 72.4875,465.2 72.93,465.2 73.461,465.2 73.992,465.2 74.523,465.2 74.7,465.2 74.7,465.2 75.054,465.2 75.4375,465.2 75.4375,465.2 75.585,465.2 76.116,465.2 76.647,465.2 76.7385,465.2 76.7385,465.2 77.178,465.2 77.709,465.2 78.24,465.2 78.771,465.2 79.125,465.2 79.125,465.2 79.302,465.2 79.833,465.2 80.364,465.2 80.895,465.2 81.3375,465.2 81.3375,465.2 81.426,465.2 81.957,465.2 82.488,465.2 83.019,465.2 83.55,465.2 83.55,465.2 83.8766,465.2 83.8766,465.2 84.081,465.2 84.612,465.2 85.143,465.2 85.674,465.2 86.205,465.2 86.5,465.2 86.5,465.2 86.736,465.2 87.267,465.2 87.798,465.2 87.975,465.2 87.975,465.2 88.329,465.2 88.86,465.2 89.391,465.2 89.922,465.2 90.453,465.2 90.984,465.2 91.515,465.2 92.046,465.2 92.4,465.2 92.4,465.2 92.577,465.2 93.108,465.2 93.639,465.2 93.7516,465.2 93.7516,465.2 93.875,465.2 93.875,465.2 94.17,465.2 94.701,465.2 95.232,465.2 95.763,465.2 96.294,465.2 96.825,465.2 96.825,456.02 96.825,456.02 96.825,446.84 97.356,446.84 97.887,446.84 98.418,446.84 98.949,446.84 99.48,446.84 100.011,446.84 100.542,446.84 101.073,446.84 101.25,446.84 101.25,437.66 101.604,437.66 102.135,437.66 102.666,437.66 103.197,437.66 103.728,437.66 104.259,437.66 104.79,437.66 105.321,437.66 105.675,437.66 105.675,428.48 105.852,428.48 106.383,428.48 106.914,428.48 107.445,428.48 107.976,428.48 108.507,428.48 109.038,428.48 109.569,428.48 110.1,428.48 110.1,419.3 110.631,419.3 111.162,419.3 111.693,419.3 112.224,419.3 112.312,419.3 112.312,419.3 112.755,419.3 113.286,419.3 113.817,419.3 114.348,419.3 114.525,419.3 114.525,410.12 114.879,410.12 115.41,410.12 115.941,410.12 116,410.12 116,410.12 116.472,410.12 117.003,410.12 117.534,410.12 118.065,410.12 118.596,410.12 118.95,410.12 118.95,400.94 119.127,400.94 119.658,400.94 119.811,400.94 119.811,400.94 120.189,400.94 120.72,400.94 121.251,400.94 121.782,400.94 122.313,400.94 122.844,400.94 123.375,400.94 123.375,391.76 123.906,391.76 124.437,391.76 124.968,391.76 125.499,391.76 126.03,391.76 126.561,391.76 127.092,391.76 127.623,391.76 127.8,391.76 127.8,382.58 128.154,382.58 128.685,382.58 129.216,382.58 129.686,382.58 129.686,382.58 129.747,382.58 130.278,382.58 130.75,382.58 130.75,382.58 130.809,382.58 131.34,382.58 131.871,382.58 132.225,382.58 132.225,380.2 132.402,380.2 132.933,380.2 133.464,380.2 133.995,380.2 134.526,380.2 135.057,380.2 135.588,380.2 136.119,380.2 136.65,380.2 136.65,380.2 136.824,380.2 136.824,380.2 137.181,380.2 137.712,380.2 138.243,380.2 138.774,380.2 139.305,380.2 139.836,380.2 140.367,380.2 140.898,380.2 141.075,380.2 141.075,380.2 141.429,380.2 141.96,380.2 142.491,380.2 142.942,380.2 142.942,380.2 143.022,380.2 143.553,380.2 144.084,380.2 144.615,380.2 145.146,380.2 145.5,380.2 145.5,383.6 145.677,383.6 146.208,383.6 146.739,383.6 147.27,383.6 147.801,383.6 148.332,383.6 148.555,383.6 148.555,383.6 148.863,383.6 149.188,383.6 149.188,383.6 149.394,383.6 149.925,383.6 149.925,387 150.456,387 150.987,387 151.518,387 152.049,387 152.58,387 153.111,387 153.642,387 153.918,387 153.918,387 154.173,387 154.35,387 154.35,390.4 154.704,390.4 155.235,390.4 155.766,390.4 156.297,390.4 156.828,390.4 157.359,390.4 157.89,390.4 158.421,390.4 158.775,390.4 158.775,393.8 158.952,393.8 159.207,393.8 159.207,393.8 159.483,393.8 160.014,393.8 160.25,393.8 160.25,393.8 160.545,393.8 161.076,393.8 161.607,393.8 162.138,393.8 162.669,393.8 163.2,393.8 163.2,397.2 163.731,397.2 164.262,397.2 164.57,397.2 164.57,397.2 164.793,397.2 165.324,397.2 165.855,397.2 166.386,397.2 166.917,397.2 167.448,397.2 167.625,397.2 167.625,400.6 167.979,400.6 168.51,400.6 169.041,400.6 169.572,400.6 170.103,400.6 170.183,400.6 170.183,400.6 170.634,400.6 171.165,400.6 171.696,400.6 172.05,400.6 172.05,398.9 172.227,398.9 172.758,398.9 173.289,398.9 173.82,398.9 174.351,398.9 174.882,398.9 175.413,398.9 175.944,398.9 176.301,398.9 176.301,398.9 176.475,398.9 176.475,392.1 177.006,392.1 177.537,392.1 178.068,392.1 178.599,392.1 179.13,392.1 179.661,392.1 180.192,392.1 180.723,392.1 180.9,392.1 180.9,385.3 181.254,385.3 181.785,385.3 182.316,385.3 182.847,385.3 183.378,385.3 183.439,385.3 183.439,385.3 183.909,385.3 184.44,385.3 184.971,385.3 185.325,385.3 185.325,380.2 185.502,380.2 186.033,380.2 186.062,380.2 186.062,380.2 186.564,380.2 187.095,380.2 187.626,380.2 188.157,380.2 188.688,380.2 189.219,380.2 189.75,380.2 189.75,465.2 190.281,465.2 190.812,465.2 191.343,465.2 191.874,465.2 192.405,465.2 192.936,465.2 193.314,465.2 193.314,465.2 193.467,465.2 193.998,465.2 194.175,465.2 194.175,465.2 194.529,465.2 195.06,465.2 195.591,465.2 196.122,465.2 196.653,465.2 197.125,465.2 197.125,465.2 197.184,465.2 197.715,465.2 198.246,465.2 198.6,465.2 198.6,465.2 198.777,465.2 199.308,465.2 199.839,465.2 200.37,465.2 200.901,465.2 201.432,465.2 201.963,465.2 202.494,465.2 203.025,465.2 203.025,465.2 203.556,465.2 204.087,465.2 204.5,465.2 204.5,465.2 204.618,465.2 205.149,465.2 205.68,465.2 206.211,465.2 206.742,465.2 207.273,465.2 207.45,465.2 207.45,465.2 207.804,465.2 208.335,465.2 208.866,465.2 209.397,465.2 209.928,465.2 210.459,465.2 210.99,465.2 211.521,465.2 211.875,465.2 211.875,465.2 212.052,465.2 212.583,465.2 213.114,465.2 213.645,465.2 214.088,465.2 214.088,465.2 214.176,465.2 214.707,465.2 215.238,465.2 215.769,465.2 216.3,465.2 216.3,465.2 216.831,465.2 217.362,465.2 217.893,465.2 218.424,465.2 218.955,465.2 219.373,465.2 219.373,465.2 219.486,465.2 220.017,465.2 220.548,465.2 220.725,465.2 220.725,465.2 221.079,465.2 221.61,465.2 222.141,465.2 222.672,465.2 222.938,465.2 222.938,465.2 223.203,465.2 223.734,465.2 224.265,465.2 224.796,465.2 225.15,465.2 225.15,465.2 225.327,465.2 225.858,465.2 226.389,465.2 226.92,465.2 227.451,465.2 227.982,465.2 228.513,465.2 229.044,465.2 229.248,465.2 229.248,465.2 229.575,465.2 229.575,456.02 229.575,456.02 229.575,449.22 230.106,449.22 230.637,449.22 231.168,449.22 231.699,449.22 232.23,449.22 232.761,449.22 233.292,449.22 233.823,449.22 234,449.22 234,442.42 234.354,442.42 234.885,442.42 235.416,442.42 235.947,442.42 236.387,442.42 236.387,442.42 236.478,442.42 237.009,442.42 237.54,442.42 238.071,442.42 238.425,442.42 238.425,440.72 238.602,440.72 239.133,440.72 239.664,440.72 240.195,440.72 240.726,440.72 241.257,440.72 241.375,440.72 241.375,440.72 241.788,440.72 242.319,440.72 242.505,440.72 242.505,440.72 242.85,440.72 242.85,444.12 243.381,444.12 243.912,444.12 244.443,444.12 244.974,444.12 245.505,444.12 246.036,444.12 246.567,444.12 247.098,444.12 247.275,444.12 247.275,447.52 247.629,447.52 248.117,447.52 248.117,447.52 248.16,447.52 248.691,447.52 249.222,447.52 249.753,447.52 250.284,447.52 250.815,447.52 251.346,447.52 251.7,447.52 251.7,450.92 251.877,450.92 252.408,450.92 252.939,450.92 253.47,450.92 253.481,450.92 253.481,450.92 254.001,450.92 254.532,450.92 255.063,450.92 255.594,450.92 256.125,450.92 256.125,454.32 256.656,454.32 257.187,454.32 257.718,454.32 258.249,454.32 258.769,454.32 258.769,454.32 258.78,454.32 259.311,454.32 259.812,454.32 259.812,454.32 259.842,454.32 260.373,454.32 260.55,454.32 260.55,457.72 260.904,457.72 261.435,457.72 261.966,457.72 262.497,457.72 263.028,457.72 263.5,457.72 263.5,457.72 263.559,457.72 264.09,457.72 264.133,457.72 264.133,457.72 264.621,457.72 264.975,457.72 264.975,461.12 265.152,461.12 265.683,461.12 266.214,461.12 266.745,461.12 267.276,461.12 267.807,461.12 268.338,461.12 268.869,461.12 269.4,461.12 269.4,464.52 269.745,464.52 269.745,464.52 269.931,464.52 270.462,464.52 270.875,464.52 270.875,464.52 270.993,464.52 271.524,464.52 272.055,464.52 272.586,464.52 273.117,464.52 273.648,464.52 273.825,464.52 273.825,462.82 274.179,462.82 274.71,462.82 275.241,462.82 275.772,462.82 275.863,462.82 275.863,462.82 276.303,462.82 276.834,462.82 277.365,462.82 277.896,462.82 278.25,462.82 278.25,456.02 278.427,456.02 278.958,456.02 279.489,456.02 280.02,456.02 280.551,456.02 281.082,456.02 281.613,456.02 282.144,456.02 282.675,456.02 282.675,449.22 283.002,449.22 283.002,449.22 283.206,449.22 283.737,449.22 284.268,449.22 284.799,449.22 285.33,449.22 285.861,449.22 286.392,449.22 286.923,449.22 287.1,449.22 287.1,440.04 287.454,440.04 287.985,440.04 288.516,440.04 289.047,440.04 289.578,440.04 290.109,440.04 290.64,440.04 291.171,440.04 291.525,440.04 291.525,430.86 291.702,430.86 292.233,430.86 292.764,430.86 292.877,430.86 292.877,430.86 293.295,430.86 293.826,430.86 294.357,430.86 294.888,430.86 295.419,430.86 295.95,430.86 295.95,421.68 296.481,421.68 296.688,421.68 296.688,421.68 297.012,421.68 297.543,421.68 298.074,421.68 298.605,421.68 299.136,421.68 299.667,421.68 300.198,421.68 300.375,421.68 300.375,412.5 300.729,412.5 301.26,412.5 301.791,412.5 302.322,412.5 302.853,412.5 303.384,412.5 303.915,412.5 304.446,412.5 304.8,412.5 304.8,403.32 304.977,403.32 305.508,403.32 306.039,403.32 306.57,403.32 307.101,403.32 307.632,403.32 307.75,403.32 307.75,403.32 308.163,403.32 308.694,403.32 309.225,403.32 309.225,394.14 309.756,394.14 310.287,394.14 310.818,394.14 311.349,394.14 311.88,394.14 312.411,394.14 312.942,394.14 313.473,394.14 313.65,394.14 313.65,384.96 314.004,384.96 314.535,384.96 315.066,384.96 315.125,384.96 315.125,384.96 315.597,384.96 316.128,384.96 316.659,384.96 317.19,384.96 317.721,384.96 318.075,384.96 318.075,380.2 318.252,380.2 318.783,380.2 318.936,380.2 318.936,380.2 319.314,380.2 319.845,380.2 320.376,380.2 320.907,380.2 321.438,380.2 321.969,380.2 322.5,380.2 322.5,465.2"/>
	<rect fill="rgb(255,255,255)" stroke="none" stroke-opacity="0.7" transform="translate(128.5, 352.5) translate(0, 0) scale(1,-1)" x="-71.5" y="-8.5" width="143" height="17"/>
	<polyline fill="none" stroke="rgb(238,46,47)" stroke-width="1" stroke-opacity="1" points="57,353 87,353"/>
	<text fill="rgb(0,0,0)" font-size="11" font-family="helvetica" text-anchor="start" dominant-baseline="central" x="92" y="353">trimRespondLogic2.y</text>
</svg>
