<?xml version="1.0" encoding="UTF-8" standalone="no"?>
<svg
   xmlns:dc="http://purl.org/dc/elements/1.1/"
   xmlns:cc="http://creativecommons.org/ns#"
   xmlns:rdf="http://www.w3.org/1999/02/22-rdf-syntax-ns#"
   xmlns:svg="http://www.w3.org/2000/svg"
   xmlns="http://www.w3.org/2000/svg"
   width="177.77692mm"
   height="53.24939mm"
   viewBox="0 0 177.77692 53.24939"
   version="1.1"
   id="svg2261">
  <defs
     id="defs2255">
    <marker
       style="overflow:visible"
       orient="auto"
       overflow="visible"
       id="marker5381-6-6-0">
      <path
         style="fill-rule:evenodd;stroke:#000000;stroke-width:1pt"
         id="path4488-0-7"
         d="M 0,0 5,-5 -12.5,0 5,5 Z"
         transform="matrix(-0.8,0,0,-0.8,-10,0)" />
    </marker>
    <marker
       style="overflow:visible"
       orient="auto"
       overflow="visible"
       id="marker5553-0-3-6">
      <path
         style="fill-rule:evenodd;stroke:#000000;stroke-width:1pt"
         id="path4485-1-0"
         d="M 0,0 5,-5 -12.5,0 5,5 Z"
         transform="matrix(-0.8,0,0,-0.8,-10,0)" />
    </marker>
  </defs>
  <metadata
     id="metadata2258">
    <rdf:RDF>
      <cc:Work
         rdf:about="">
        <dc:format>image/svg+xml</dc:format>
        <dc:type
           rdf:resource="http://purl.org/dc/dcmitype/StillImage" />
        <dc:title></dc:title>
      </cc:Work>
    </rdf:RDF>
  </metadata>
  <g
     id="layer1"
     transform="translate(-19.089154,-22.818619)">
    <path
       style="fill:none;fill-opacity:1;stroke:#000000;stroke-width:0.0605999;stroke-opacity:0.666667"
       id="path4497-0-51"
       d="M 98.387026,75.880981 C 90.011225,75.264772 83.190754,73.486862 79.634915,70.99283 c -1.68806,-1.183978 -2.193229,-1.964938 -2.193229,-3.390698 0,-1.411283 0.491818,-2.186213 2.12819,-3.353293 3.382629,-2.41232 9.554979,-4.089818 17.772559,-4.83022 3.626055,-0.326678 9.451835,-0.349218 13.048155,-0.0505 7.10585,0.59028 12.65529,1.845119 16.44925,3.719629 4.93012,2.435532 5.58369,5.412581 1.76623,8.04545 -3.35077,2.311299 -10.09837,4.065521 -18.0566,4.694409 -3.25256,0.256982 -9.04808,0.282321 -12.163245,0.0529 z" />
    <path
       style="fill:none;stroke:#000000;stroke-width:0.1783;marker-end:url(#marker5381-6-6-0)"
       id="path4499-2-97"
       d="M 105.0106,39.73002 V 58.971651" />
    <path
       d="M 94.76547,59.57706 C 80.313958,50.19884 97.14105,39.85225 97.14105,39.85225"
       id="path4503-4-13"
       style="fill:none;stroke:#000000;stroke-width:0.214825px;marker-end:url(#marker5553-0-3-6)" />
    <text
       xml:space="preserve"
       style="font-style:normal;font-weight:normal;font-size:4.23333px;line-height:1.25;font-family:sans-serif;text-align:center;letter-spacing:0px;word-spacing:0px;text-anchor:middle;fill:#000000;fill-opacity:1;stroke:none;stroke-width:0.264583"
       x="103.69078"
       y="29.803211"
       id="text4487-8-5-3-120"><tspan
         x="103.69078"
         y="29.803211"
         style="font-size:4.23333px;text-align:center;text-anchor:middle;fill:#000000;stroke-width:0.264583"
         id="tspan8823-6">Enable WSE</tspan><tspan
         x="103.69078"
         y="35.094872"
         style="font-size:4.23333px;text-align:center;text-anchor:middle;fill:#000000;stroke-width:0.264583"
         id="tspan11946">hold for holdPeriod</tspan></text>
    <path
       style="fill:none;fill-opacity:1;stroke:#000000;stroke-width:0.0623623;stroke-opacity:0.666667"
       id="path4497-0-4-6"
       d="m 97.408534,39.57466 c -8.869069,-0.61628 -16.091199,-2.39438 -19.85644,-4.88869 -1.787469,-1.18411 -2.322391,-1.96516 -2.322391,-3.39108 0,-1.41144 0.520782,-2.18645 2.25352,-3.35367 3.581831,-2.41259 10.117672,-4.09027 18.819201,-4.83075 3.839596,-0.32673 10.008466,-0.34926 13.816576,-0.0505 7.52431,0.59034 13.40057,1.84532 17.41795,3.72004 5.22047,2.4358 5.91253,5.41318 1.87025,8.04636 -3.54809,2.31155 -10.69306,4.06597 -19.11997,4.69491 -3.4441,0.25703 -9.58092,0.28236 -12.879546,0.0529 z" />
    <text
       xml:space="preserve"
       style="font-style:normal;font-weight:normal;font-size:4.23333px;line-height:1.25;font-family:sans-serif;text-align:center;letter-spacing:0px;word-spacing:0px;text-anchor:middle;fill:#000000;fill-opacity:1;stroke:none;stroke-width:0.264583"
       x="103.55734"
       y="65.867455"
       id="text4487-8-5-3-0-0"><tspan
         x="103.55734"
         y="65.867455"
         style="font-size:4.23333px;text-align:center;text-anchor:middle;fill:#000000;stroke-width:0.264583"
         id="tspan8823-7-6">Disable WSE</tspan><tspan
         x="103.55734"
         y="71.159119"
         style="font-size:4.23333px;text-align:center;text-anchor:middle;fill:#000000;stroke-width:0.264583"
         id="tspan11950">hold for holdPeriod</tspan></text>
    <text
       xml:space="preserve"
       style="font-style:normal;font-weight:normal;font-size:4.23333px;line-height:1.25;font-family:sans-serif;letter-spacing:0px;word-spacing:0px;fill:#000000;fill-opacity:1;stroke:none;stroke-width:0.264583"
       x="19.101557"
       y="47.238701"
       id="text4487-4-1-0-3-4-1-4-9-0"><tspan
         x="19.101557"
         y="47.238701"
         style="font-size:4.23333px;line-height:1.4;fill:#000000;stroke-width:0.264583"
         id="tspan6888-9-3-8-2">TChiWatRet (upstream WSE) &gt; </tspan><tspan
         x="19.101557"
         y="53.165363"
         style="font-size:4.23333px;line-height:1.4;fill:#000000;stroke-width:0.264583"
         id="tspan1517">wseTOut.y + TOffsetEna </tspan><tspan
         x="19.101557"
         y="58.774525"
         style="font-size:4.23333px;line-height:1.4;fill:#000000;stroke-width:0.264583"
         id="tspan6940-0-1-39" /></text>
    <text
       xml:space="preserve"
       style="font-style:normal;font-weight:normal;font-size:4.23333px;line-height:1.25;font-family:sans-serif;letter-spacing:0px;word-spacing:0px;fill:#000000;fill-opacity:1;stroke:none;stroke-width:0.264583"
       x="110.77113"
       y="44.804279"
       id="text4487-4-1-0-3-4-1-4-9-0-4"><tspan
         x="110.77113"
         y="44.804279"
         style="font-size:4.23333px;line-height:1.4;fill:#000000;stroke-width:0.264583"
         id="tspan6888-9-3-8-2-4">TChiWatRetDow (downstream WSE) &gt; </tspan><tspan
         x="110.77113"
         y="50.730942"
         style="font-size:4.23333px;line-height:1.4;fill:#000000;stroke-width:0.264583"
         id="tspan1515">TChiWatRet (upstream WSE) - TOffsetDis</tspan><tspan
         x="110.77113"
         y="56.657604"
         style="font-size:4.23333px;line-height:1.4;fill:#000000;stroke-width:0.264583"
         id="tspan12005">for delDis period of time</tspan><tspan
         x="110.77113"
         y="62.266766"
         style="font-size:4.23333px;line-height:1.4;fill:#000000;stroke-width:0.264583"
         id="tspan6940-0-1-39-2" /></text>
  </g>
</svg>
