<?xml version="1.0" encoding="UTF-8" standalone="no"?>
<!-- Created with Inkscape (http://www.inkscape.org/) -->

<svg
   xmlns:dc="http://purl.org/dc/elements/1.1/"
   xmlns:cc="http://creativecommons.org/ns#"
   xmlns:rdf="http://www.w3.org/1999/02/22-rdf-syntax-ns#"
   xmlns:svg="http://www.w3.org/2000/svg"
   xmlns="http://www.w3.org/2000/svg"
   xmlns:sodipodi="http://sodipodi.sourceforge.net/DTD/sodipodi-0.dtd"
   xmlns:inkscape="http://www.inkscape.org/namespaces/inkscape"
   width="200.74554mm"
   height="94.816734mm"
   viewBox="0 0 711.30311 335.9648"
   id="svg2"
   version="1.1"
   inkscape:version="0.91 r13725"
   sodipodi:docname="Latch.svg"
   inkscape:export-filename="Latch.png"
   inkscape:export-xdpi="101.22268"
   inkscape:export-ydpi="101.22268">
  <defs
     id="defs4">
    <marker
       inkscape:stockid="Arrow1Lend"
       orient="auto"
       refY="0"
       refX="0"
       id="marker5630"
       style="overflow:visible"
       inkscape:isstock="true">
      <path
         id="path5632"
         d="M 0,0 5,-5 -12.5,0 5,5 0,0 Z"
         style="fill:#000000;fill-opacity:1;fill-rule:evenodd;stroke:#000000;stroke-width:1pt;stroke-opacity:1"
         transform="matrix(-0.8,0,0,-0.8,-10,0)"
         inkscape:connector-curvature="0" />
    </marker>
    <marker
       inkscape:stockid="Arrow1Lend"
       orient="auto"
       refY="0"
       refX="0"
       id="Arrow1Lend"
       style="overflow:visible"
       inkscape:isstock="true">
      <path
         id="path4814"
         d="M 0,0 5,-5 -12.5,0 5,5 0,0 Z"
         style="fill:#000000;fill-opacity:1;fill-rule:evenodd;stroke:#000000;stroke-width:1pt;stroke-opacity:1"
         transform="matrix(-0.8,0,0,-0.8,-10,0)"
         inkscape:connector-curvature="0" />
    </marker>
    <marker
       inkscape:stockid="Arrow1Lend"
       orient="auto"
       refY="0"
       refX="0"
       id="Arrow1Lend-9"
       style="overflow:visible"
       inkscape:isstock="true">
      <path
         inkscape:connector-curvature="0"
         id="path4814-1"
         d="M 0,0 5,-5 -12.5,0 5,5 0,0 Z"
         style="fill:#000000;fill-opacity:1;fill-rule:evenodd;stroke:#000000;stroke-width:1pt;stroke-opacity:1"
         transform="matrix(-0.8,0,0,-0.8,-10,0)" />
    </marker>
  </defs>
  <sodipodi:namedview
     id="base"
     pagecolor="#ffffff"
     bordercolor="#666666"
     borderopacity="1.0"
     inkscape:pageopacity="0.0"
     inkscape:pageshadow="2"
     inkscape:zoom="1.7729263"
     inkscape:cx="228.52163"
     inkscape:cy="88.012839"
     inkscape:document-units="px"
     inkscape:current-layer="g4570"
     showgrid="false"
     inkscape:snap-nodes="true"
     inkscape:snap-others="false"
     inkscape:snap-global="true"
     inkscape:snap-intersection-paths="false"
     inkscape:object-nodes="true"
     inkscape:snap-midpoints="false"
     inkscape:snap-grids="false"
     inkscape:window-width="2560"
     inkscape:window-height="1527"
     inkscape:window-x="0"
     inkscape:window-y="24"
     inkscape:window-maximized="1"
     fit-margin-top="0"
     fit-margin-left="0"
     fit-margin-right="0"
     fit-margin-bottom="0">
    <inkscape:grid
       type="xygrid"
       id="grid4136"
       originx="-16.751499"
       originy="-381.43952" />
  </sodipodi:namedview>
  <metadata
     id="metadata7">
    <rdf:RDF>
      <cc:Work
         rdf:about="">
        <dc:format>image/svg+xml</dc:format>
        <dc:type
           rdf:resource="http://purl.org/dc/dcmitype/StillImage" />
        <dc:title></dc:title>
      </cc:Work>
    </rdf:RDF>
  </metadata>
  <g
     inkscape:label="Layer 1"
     inkscape:groupmode="layer"
     id="layer1"
     transform="translate(-16.751499,-334.95787)">
    <g
       id="g4570"
       transform="matrix(0.82918921,0,0,0.82918921,-2.9511507,321.27625)">
      <polyline
         id="polyline4383"
         points="59.000000,17.000000 59.000000,395.000000"
         style="fill:none;stroke:#f0f0f0;stroke-width:1;stroke-opacity:1"
         inkscape:export-xdpi="44.284924"
         inkscape:export-ydpi="44.284924" />
      <polyline
         id="polyline4385"
         points="99.800000,17.000000 99.800000,395.000000"
         style="fill:none;stroke:#f0f0f0;stroke-width:1;stroke-opacity:1"
         inkscape:export-xdpi="44.284924"
         inkscape:export-ydpi="44.284924" />
      <polyline
         id="polyline4387"
         points="140.600000,17.000000 140.600000,395.000000"
         style="fill:none;stroke:#f0f0f0;stroke-width:1;stroke-opacity:1"
         inkscape:export-xdpi="44.284924"
         inkscape:export-ydpi="44.284924" />
      <polyline
         id="polyline4389"
         points="181.400000,17.000000 181.400000,395.000000"
         style="fill:none;stroke:#f0f0f0;stroke-width:1;stroke-opacity:1"
         inkscape:export-xdpi="44.284924"
         inkscape:export-ydpi="44.284924" />
      <polyline
         id="polyline4391"
         points="222.200000,17.000000 222.200000,395.000000"
         style="fill:none;stroke:#f0f0f0;stroke-width:1;stroke-opacity:1"
         inkscape:export-xdpi="44.284924"
         inkscape:export-ydpi="44.284924" />
      <polyline
         id="polyline4393"
         points="263.000000,17.000000 263.000000,395.000000"
         style="fill:none;stroke:#f0f0f0;stroke-width:1;stroke-opacity:1"
         inkscape:export-xdpi="44.284924"
         inkscape:export-ydpi="44.284924" />
      <polyline
         id="polyline4395"
         points="303.800000,17.000000 303.800000,395.000000"
         style="fill:none;stroke:#f0f0f0;stroke-width:1;stroke-opacity:1"
         inkscape:export-xdpi="44.284924"
         inkscape:export-ydpi="44.284924" />
      <polyline
         id="polyline4397"
         points="344.600000,17.000000 344.600000,395.000000"
         style="fill:none;stroke:#f0f0f0;stroke-width:1;stroke-opacity:1"
         inkscape:export-xdpi="44.284924"
         inkscape:export-ydpi="44.284924" />
      <polyline
         id="polyline4399"
         points="385.400000,17.000000 385.400000,395.000000"
         style="fill:none;stroke:#f0f0f0;stroke-width:1;stroke-opacity:1"
         inkscape:export-xdpi="44.284924"
         inkscape:export-ydpi="44.284924" />
      <polyline
         id="polyline4401"
         points="426.200000,17.000000 426.200000,395.000000"
         style="fill:none;stroke:#f0f0f0;stroke-width:1;stroke-opacity:1"
         inkscape:export-xdpi="44.284924"
         inkscape:export-ydpi="44.284924" />
      <polyline
         id="polyline4403"
         points="467.000000,17.000000 467.000000,395.000000"
         style="fill:none;stroke:#f0f0f0;stroke-width:1;stroke-opacity:1"
         inkscape:export-xdpi="44.284924"
         inkscape:export-ydpi="44.284924" />
      <polyline
         id="polyline4405"
         points="507.800000,17.000000 507.800000,395.000000"
         style="fill:none;stroke:#f0f0f0;stroke-width:1;stroke-opacity:1"
         inkscape:export-xdpi="44.284924"
         inkscape:export-ydpi="44.284924" />
      <polyline
         id="polyline4407"
         points="548.600000,17.000000 548.600000,395.000000"
         style="fill:none;stroke:#f0f0f0;stroke-width:1;stroke-opacity:1"
         inkscape:export-xdpi="44.284924"
         inkscape:export-ydpi="44.284924" />
      <polyline
         id="polyline4409"
         points="589.400000,17.000000 589.400000,395.000000"
         style="fill:none;stroke:#f0f0f0;stroke-width:1;stroke-opacity:1"
         inkscape:export-xdpi="44.284924"
         inkscape:export-ydpi="44.284924" />
      <polyline
         id="polyline4411"
         points="630.200000,17.000000 630.200000,395.000000"
         style="fill:none;stroke:#f0f0f0;stroke-width:1;stroke-opacity:1"
         inkscape:export-xdpi="44.284924"
         inkscape:export-ydpi="44.284924" />
      <polyline
         id="polyline4413"
         points="671.000000,17.000000 671.000000,395.000000"
         style="fill:none;stroke:#f0f0f0;stroke-width:1;stroke-opacity:1"
         inkscape:export-xdpi="44.284924"
         inkscape:export-ydpi="44.284924" />
      <polyline
         id="polyline4415"
         points="711.800000,17.000000 711.800000,395.000000"
         style="fill:none;stroke:#f0f0f0;stroke-width:1;stroke-opacity:1"
         inkscape:export-xdpi="44.284924"
         inkscape:export-ydpi="44.284924" />
      <polyline
         id="polyline4417"
         points="752.600000,17.000000 752.600000,395.000000"
         style="fill:none;stroke:#f0f0f0;stroke-width:1;stroke-opacity:1"
         inkscape:export-xdpi="44.284924"
         inkscape:export-ydpi="44.284924" />
      <polyline
         id="polyline4419"
         points="793.400000,17.000000 793.400000,395.000000"
         style="fill:none;stroke:#f0f0f0;stroke-width:1;stroke-opacity:1"
         inkscape:export-xdpi="44.284924"
         inkscape:export-ydpi="44.284924" />
      <polyline
         id="polyline4421"
         points="834.200000,17.000000 834.200000,395.000000"
         style="fill:none;stroke:#f0f0f0;stroke-width:1;stroke-opacity:1"
         inkscape:export-xdpi="44.284924"
         inkscape:export-ydpi="44.284924" />
      <polyline
         id="polyline4423"
         points="875.000000,17.000000 875.000000,395.000000"
         style="fill:none;stroke:#f0f0f0;stroke-width:1;stroke-opacity:1"
         inkscape:export-xdpi="44.284924"
         inkscape:export-ydpi="44.284924" />
      <rect
         id="rect4425"
         height="75.599998"
         width="816"
         y="54.799999"
         x="59"
         style="fill:#f0f0f0;stroke:#f0f0f0;stroke-width:1;stroke-opacity:1"
         inkscape:export-xdpi="44.284924"
         inkscape:export-ydpi="44.284924" />
      <rect
         id="rect4427"
         height="75.599998"
         width="816"
         y="168.2"
         x="59"
         style="fill:#f0f0f0;stroke:#f0f0f0;stroke-width:1;stroke-opacity:1"
         inkscape:export-xdpi="44.284924"
         inkscape:export-ydpi="44.284924" />
      <rect
         id="rect4429"
         height="75.599998"
         width="816"
         y="281.60001"
         x="59"
         style="fill:#f0f0f0;stroke:#f0f0f0;stroke-width:1;stroke-opacity:1"
         inkscape:export-xdpi="44.284924"
         inkscape:export-ydpi="44.284924" />
      <polyline
         id="polyline4431"
         points="59.000000,395.000000 875.000000,395.000000"
         style="opacity:0.7;fill:none;stroke:#000000;stroke-width:1;stroke-opacity:1"
         inkscape:export-xdpi="44.284924"
         inkscape:export-ydpi="44.284924" />
      <polyline
         id="polyline4433"
         points="875.000000,395.000000 875.000000,17.000000"
         style="opacity:0.7;fill:none;stroke:#000000;stroke-width:1;stroke-opacity:1"
         inkscape:export-xdpi="44.284924"
         inkscape:export-ydpi="44.284924" />
      <polyline
         id="polyline4435"
         points="875.000000,17.000000 59.000000,17.000000"
         style="opacity:0.7;fill:none;stroke:#000000;stroke-width:1;stroke-opacity:1"
         inkscape:export-xdpi="44.284924"
         inkscape:export-ydpi="44.284924" />
      <polyline
         id="polyline4437"
         points="59.000000,17.000000 59.000000,395.000000"
         style="opacity:0.7;fill:none;stroke:#000000;stroke-width:1;stroke-opacity:1"
         inkscape:export-xdpi="44.284924"
         inkscape:export-ydpi="44.284924" />
      <polyline
         id="polyline4439"
         points="59.000000,395.000000 59.000000,399.000000"
         style="fill:none;stroke:#000000;stroke-width:1;stroke-opacity:1"
         inkscape:export-xdpi="44.284924"
         inkscape:export-ydpi="44.284924" />
      <polyline
         id="polyline4441"
         points="99.800000,395.000000 99.800000,399.000000"
         style="fill:none;stroke:#000000;stroke-width:1;stroke-opacity:1"
         inkscape:export-xdpi="44.284924"
         inkscape:export-ydpi="44.284924" />
      <polyline
         id="polyline4443"
         points="140.600000,395.000000 140.600000,399.000000"
         style="fill:none;stroke:#000000;stroke-width:1;stroke-opacity:1"
         inkscape:export-xdpi="44.284924"
         inkscape:export-ydpi="44.284924" />
      <polyline
         id="polyline4445"
         points="181.400000,395.000000 181.400000,399.000000"
         style="fill:none;stroke:#000000;stroke-width:1;stroke-opacity:1"
         inkscape:export-xdpi="44.284924"
         inkscape:export-ydpi="44.284924" />
      <polyline
         id="polyline4447"
         points="222.200000,395.000000 222.200000,399.000000"
         style="fill:none;stroke:#000000;stroke-width:1;stroke-opacity:1"
         inkscape:export-xdpi="44.284924"
         inkscape:export-ydpi="44.284924" />
      <polyline
         id="polyline4449"
         points="263.000000,395.000000 263.000000,399.000000"
         style="fill:none;stroke:#000000;stroke-width:1;stroke-opacity:1"
         inkscape:export-xdpi="44.284924"
         inkscape:export-ydpi="44.284924" />
      <polyline
         id="polyline4451"
         points="303.800000,395.000000 303.800000,399.000000"
         style="fill:none;stroke:#000000;stroke-width:1;stroke-opacity:1"
         inkscape:export-xdpi="44.284924"
         inkscape:export-ydpi="44.284924" />
      <polyline
         id="polyline4453"
         points="344.600000,395.000000 344.600000,399.000000"
         style="fill:none;stroke:#000000;stroke-width:1;stroke-opacity:1"
         inkscape:export-xdpi="44.284924"
         inkscape:export-ydpi="44.284924" />
      <polyline
         id="polyline4455"
         points="385.400000,395.000000 385.400000,399.000000"
         style="fill:none;stroke:#000000;stroke-width:1;stroke-opacity:1"
         inkscape:export-xdpi="44.284924"
         inkscape:export-ydpi="44.284924" />
      <polyline
         id="polyline4457"
         points="426.200000,395.000000 426.200000,399.000000"
         style="fill:none;stroke:#000000;stroke-width:1;stroke-opacity:1"
         inkscape:export-xdpi="44.284924"
         inkscape:export-ydpi="44.284924" />
      <polyline
         id="polyline4459"
         points="467.000000,395.000000 467.000000,399.000000"
         style="fill:none;stroke:#000000;stroke-width:1;stroke-opacity:1"
         inkscape:export-xdpi="44.284924"
         inkscape:export-ydpi="44.284924" />
      <polyline
         id="polyline4461"
         points="507.800000,395.000000 507.800000,399.000000"
         style="fill:none;stroke:#000000;stroke-width:1;stroke-opacity:1"
         inkscape:export-xdpi="44.284924"
         inkscape:export-ydpi="44.284924" />
      <polyline
         id="polyline4463"
         points="548.600000,395.000000 548.600000,399.000000"
         style="fill:none;stroke:#000000;stroke-width:1;stroke-opacity:1"
         inkscape:export-xdpi="44.284924"
         inkscape:export-ydpi="44.284924" />
      <polyline
         id="polyline4465"
         points="589.400000,395.000000 589.400000,399.000000"
         style="fill:none;stroke:#000000;stroke-width:1;stroke-opacity:1"
         inkscape:export-xdpi="44.284924"
         inkscape:export-ydpi="44.284924" />
      <polyline
         id="polyline4467"
         points="630.200000,395.000000 630.200000,399.000000"
         style="fill:none;stroke:#000000;stroke-width:1;stroke-opacity:1"
         inkscape:export-xdpi="44.284924"
         inkscape:export-ydpi="44.284924" />
      <polyline
         id="polyline4469"
         points="671.000000,395.000000 671.000000,399.000000"
         style="fill:none;stroke:#000000;stroke-width:1;stroke-opacity:1"
         inkscape:export-xdpi="44.284924"
         inkscape:export-ydpi="44.284924" />
      <polyline
         id="polyline4471"
         points="711.800000,395.000000 711.800000,399.000000"
         style="fill:none;stroke:#000000;stroke-width:1;stroke-opacity:1"
         inkscape:export-xdpi="44.284924"
         inkscape:export-ydpi="44.284924" />
      <polyline
         id="polyline4473"
         points="752.600000,395.000000 752.600000,399.000000"
         style="fill:none;stroke:#000000;stroke-width:1;stroke-opacity:1"
         inkscape:export-xdpi="44.284924"
         inkscape:export-ydpi="44.284924" />
      <polyline
         id="polyline4475"
         points="793.400000,395.000000 793.400000,399.000000"
         style="fill:none;stroke:#000000;stroke-width:1;stroke-opacity:1"
         inkscape:export-xdpi="44.284924"
         inkscape:export-ydpi="44.284924" />
      <polyline
         id="polyline4477"
         points="834.200000,395.000000 834.200000,399.000000"
         style="fill:none;stroke:#000000;stroke-width:1;stroke-opacity:1"
         inkscape:export-xdpi="44.284924"
         inkscape:export-ydpi="44.284924" />
      <polyline
         id="polyline4479"
         points="875.000000,395.000000 875.000000,399.000000"
         style="fill:none;stroke:#000000;stroke-width:1;stroke-opacity:1"
         inkscape:export-xdpi="44.284924"
         inkscape:export-ydpi="44.284924" />
      <polyline
         id="polyline4481"
         points="59.000000,395.000000 59.000000,401.400000"
         style="fill:none;stroke:#000000;stroke-width:1;stroke-opacity:1"
         inkscape:export-xdpi="44.284924"
         inkscape:export-ydpi="44.284924" />
      <text
         id="text4483"
         font-size="13"
         dominant-baseline="central"
         y="409.5"
         x="59"
         style="font-size:13px;font-family:helvetica;text-anchor:middle;opacity:0.7;fill:#000000"
         inkscape:export-xdpi="44.284924"
         inkscape:export-ydpi="44.284924">0</text>
      <polyline
         id="polyline4485"
         points="140.600000,395.000000 140.600000,401.400000"
         style="fill:none;stroke:#000000;stroke-width:1;stroke-opacity:1"
         inkscape:export-xdpi="44.284924"
         inkscape:export-ydpi="44.284924" />
      <text
         id="text4487"
         font-size="13"
         dominant-baseline="central"
         y="409.5"
         x="140.60001"
         style="font-size:13px;font-family:helvetica;text-anchor:middle;opacity:0.7;fill:#000000"
         inkscape:export-xdpi="44.284924"
         inkscape:export-ydpi="44.284924">1</text>
      <polyline
         id="polyline4489"
         points="222.200000,395.000000 222.200000,401.400000"
         style="fill:none;stroke:#000000;stroke-width:1;stroke-opacity:1"
         inkscape:export-xdpi="44.284924"
         inkscape:export-ydpi="44.284924" />
      <text
         id="text4491"
         font-size="13"
         dominant-baseline="central"
         y="409.5"
         x="222.2"
         style="font-size:13px;font-family:helvetica;text-anchor:middle;opacity:0.7;fill:#000000"
         inkscape:export-xdpi="44.284924"
         inkscape:export-ydpi="44.284924">2</text>
      <polyline
         id="polyline4493"
         points="303.800000,395.000000 303.800000,401.400000"
         style="fill:none;stroke:#000000;stroke-width:1;stroke-opacity:1"
         inkscape:export-xdpi="44.284924"
         inkscape:export-ydpi="44.284924" />
      <text
         id="text4495"
         font-size="13"
         dominant-baseline="central"
         y="409.5"
         x="303.79999"
         style="font-size:13px;font-family:helvetica;text-anchor:middle;opacity:0.7;fill:#000000"
         inkscape:export-xdpi="44.284924"
         inkscape:export-ydpi="44.284924">3</text>
      <polyline
         id="polyline4497"
         points="385.400000,395.000000 385.400000,401.400000"
         style="fill:none;stroke:#000000;stroke-width:1;stroke-opacity:1"
         inkscape:export-xdpi="44.284924"
         inkscape:export-ydpi="44.284924" />
      <text
         id="text4499"
         font-size="13"
         dominant-baseline="central"
         y="409.5"
         x="385.39999"
         style="font-size:13px;font-family:helvetica;text-anchor:middle;opacity:0.7;fill:#000000"
         inkscape:export-xdpi="44.284924"
         inkscape:export-ydpi="44.284924">4</text>
      <polyline
         id="polyline4501"
         points="467.000000,395.000000 467.000000,401.400000"
         style="fill:none;stroke:#000000;stroke-width:1;stroke-opacity:1"
         inkscape:export-xdpi="44.284924"
         inkscape:export-ydpi="44.284924" />
      <text
         id="text4503"
         font-size="13"
         dominant-baseline="central"
         y="409.5"
         x="467"
         style="font-size:13px;font-family:helvetica;text-anchor:middle;opacity:0.7;fill:#000000"
         inkscape:export-xdpi="44.284924"
         inkscape:export-ydpi="44.284924">5</text>
      <polyline
         id="polyline4505"
         points="548.600000,395.000000 548.600000,401.400000"
         style="fill:none;stroke:#000000;stroke-width:1;stroke-opacity:1"
         inkscape:export-xdpi="44.284924"
         inkscape:export-ydpi="44.284924" />
      <text
         id="text4507"
         font-size="13"
         dominant-baseline="central"
         y="409.5"
         x="548.59998"
         style="font-size:13px;font-family:helvetica;text-anchor:middle;opacity:0.7;fill:#000000"
         inkscape:export-xdpi="44.284924"
         inkscape:export-ydpi="44.284924">6</text>
      <polyline
         id="polyline4509"
         points="630.200000,395.000000 630.200000,401.400000"
         style="fill:none;stroke:#000000;stroke-width:1;stroke-opacity:1"
         inkscape:export-xdpi="44.284924"
         inkscape:export-ydpi="44.284924" />
      <text
         id="text4511"
         font-size="13"
         dominant-baseline="central"
         y="409.5"
         x="630.20001"
         style="font-size:13px;font-family:helvetica;text-anchor:middle;opacity:0.7;fill:#000000"
         inkscape:export-xdpi="44.284924"
         inkscape:export-ydpi="44.284924">7</text>
      <polyline
         id="polyline4513"
         points="711.800000,395.000000 711.800000,401.400000"
         style="fill:none;stroke:#000000;stroke-width:1;stroke-opacity:1"
         inkscape:export-xdpi="44.284924"
         inkscape:export-ydpi="44.284924" />
      <text
         id="text4515"
         font-size="13"
         dominant-baseline="central"
         y="409.5"
         x="711.79999"
         style="font-size:13px;font-family:helvetica;text-anchor:middle;opacity:0.7;fill:#000000"
         inkscape:export-xdpi="44.284924"
         inkscape:export-ydpi="44.284924">8</text>
      <polyline
         id="polyline4517"
         points="793.400000,395.000000 793.400000,401.400000"
         style="fill:none;stroke:#000000;stroke-width:1;stroke-opacity:1"
         inkscape:export-xdpi="44.284924"
         inkscape:export-ydpi="44.284924" />
      <text
         id="text4519"
         font-size="13"
         dominant-baseline="central"
         y="409.5"
         x="793.40002"
         style="font-size:13px;font-family:helvetica;text-anchor:middle;opacity:0.7;fill:#000000"
         inkscape:export-xdpi="44.284924"
         inkscape:export-ydpi="44.284924">9</text>
      <polyline
         id="polyline4521"
         points="875.000000,395.000000 875.000000,401.400000"
         style="fill:none;stroke:#000000;stroke-width:1;stroke-opacity:1"
         inkscape:export-xdpi="44.284924"
         inkscape:export-ydpi="44.284924" />
      <text
         id="text4523"
         font-size="13"
         dominant-baseline="central"
         y="409.5"
         x="875"
         style="font-size:13px;font-family:helvetica;text-anchor:middle;opacity:0.7;fill:#000000"
         inkscape:export-xdpi="44.284924"
         inkscape:export-ydpi="44.284924">10</text>
      <polyline
         id="polyline4525"
         points="55.000000,54.800000 59.000000,54.800000"
         style="fill:none;stroke:#000000;stroke-width:1;stroke-opacity:1"
         inkscape:export-xdpi="44.284924"
         inkscape:export-ydpi="44.284924" />
      <polyline
         id="polyline4527"
         points="55.000000,130.400000 59.000000,130.400000"
         style="fill:none;stroke:#000000;stroke-width:1;stroke-opacity:1"
         inkscape:export-xdpi="44.284924"
         inkscape:export-ydpi="44.284924" />
      <text
         id="text4529"
         font-size="13"
         dominant-baseline="central"
         y="54.799999"
         x="51"
         style="font-size:13px;font-family:helvetica;text-anchor:end;opacity:0.7;fill:#000000"
         inkscape:export-xdpi="44.284924"
         inkscape:export-ydpi="44.284924">true</text>
      <text
         id="text4531"
         font-size="13"
         dominant-baseline="central"
         y="130.39999"
         x="51"
         style="font-size:13px;font-family:helvetica;text-anchor:end;opacity:0.7;fill:#000000"
         inkscape:export-xdpi="44.284924"
         inkscape:export-ydpi="44.284924">false</text>
      <polyline
         id="polyline4533"
         points="55.000000,168.200000 59.000000,168.200000"
         style="fill:none;stroke:#000000;stroke-width:1;stroke-opacity:1"
         inkscape:export-xdpi="44.284924"
         inkscape:export-ydpi="44.284924" />
      <polyline
         id="polyline4535"
         points="55.000000,243.800000 59.000000,243.800000"
         style="fill:none;stroke:#000000;stroke-width:1;stroke-opacity:1"
         inkscape:export-xdpi="44.284924"
         inkscape:export-ydpi="44.284924" />
      <text
         id="text4537"
         font-size="13"
         dominant-baseline="central"
         y="168.2"
         x="51"
         style="font-size:13px;font-family:helvetica;text-anchor:end;opacity:0.7;fill:#000000"
         inkscape:export-xdpi="44.284924"
         inkscape:export-ydpi="44.284924">true</text>
      <text
         id="text4539"
         font-size="13"
         dominant-baseline="central"
         y="243.8"
         x="51"
         style="font-size:13px;font-family:helvetica;text-anchor:end;opacity:0.7;fill:#000000"
         inkscape:export-xdpi="44.284924"
         inkscape:export-ydpi="44.284924">false</text>
      <polyline
         id="polyline4541"
         points="55.000000,281.600000 59.000000,281.600000"
         style="fill:none;stroke:#000000;stroke-width:1;stroke-opacity:1"
         inkscape:export-xdpi="44.284924"
         inkscape:export-ydpi="44.284924" />
      <polyline
         id="polyline4543"
         points="55.000000,357.200000 59.000000,357.200000"
         style="fill:none;stroke:#000000;stroke-width:1;stroke-opacity:1"
         inkscape:export-xdpi="44.284924"
         inkscape:export-ydpi="44.284924" />
      <text
         id="text4545"
         font-size="13"
         dominant-baseline="central"
         y="281.60001"
         x="51"
         style="font-size:13px;font-family:helvetica;text-anchor:end;opacity:0.7;fill:#000000"
         inkscape:export-xdpi="44.284924"
         inkscape:export-ydpi="44.284924">true</text>
      <text
         id="text4547"
         font-size="13"
         dominant-baseline="central"
         y="357.20001"
         x="51"
         style="font-size:13px;font-family:helvetica;text-anchor:end;opacity:0.7;fill:#000000"
         inkscape:export-xdpi="44.284924"
         inkscape:export-ydpi="44.284924">false</text>
      <text
         id="text4549"
         font-size="13"
         dominant-baseline="central"
         y="92.296318"
         x="41.593105"
         style="font-style:normal;font-variant:normal;font-weight:normal;font-stretch:normal;font-size:13.00004864px;line-height:125%;font-family:helvetica;-inkscape-font-specification:'helvetica, Normal';text-align:start;writing-mode:lr-tb;text-anchor:start;fill:#000000"
         sodipodi:linespacing="125%"
         inkscape:export-xdpi="44.284924"
         inkscape:export-ydpi="44.284924">
        <tspan
           sodipodi:role="line"
           id="tspan4661"
           x="41.593105"
           y="92.296318">u0</tspan>
      </text>
      <text
         id="text4551"
         font-size="13"
         dominant-baseline="central"
         y="206.29633"
         x="41.593105"
         style="font-style:normal;font-variant:normal;font-weight:normal;font-stretch:normal;font-size:13.00004864px;line-height:125%;font-family:helvetica;-inkscape-font-specification:'helvetica, Normal';text-align:start;writing-mode:lr-tb;text-anchor:start;fill:#000000"
         sodipodi:linespacing="125%"
         inkscape:export-xdpi="44.284924"
         inkscape:export-ydpi="44.284924">
        <tspan
           sodipodi:role="line"
           id="tspan4665"
           x="41.593105"
           y="206.29633">u</tspan>
      </text>
      <text
         id="text4553"
         font-size="13"
         dominant-baseline="central"
         y="319.29633"
         x="41.593105"
         style="font-style:normal;font-variant:normal;font-weight:normal;font-stretch:normal;font-size:13.00004864px;line-height:125%;font-family:helvetica;-inkscape-font-specification:'helvetica, Normal';text-align:start;writing-mode:lr-tb;text-anchor:start;fill:#000000"
         sodipodi:linespacing="125%"
         inkscape:export-xdpi="44.284924"
         inkscape:export-ydpi="44.284924">
        <tspan
           sodipodi:role="line"
           id="tspan4663"
           x="41.593105"
           y="319.29633">y</tspan>
      </text>
      <polyline
         id="polyline4558"
         points="59.000000,130.400000 60.632000,130.400000 62.264000,130.400000 63.896000,130.400000 65.528000,130.400000 67.160000,130.400000 68.792000,130.400000 70.424000,130.400000 72.056000,130.400000 73.688001,130.400000 75.320000,130.400000 76.952000,130.400000 78.584000,130.400000 80.215999,130.400000 81.848000,130.400000 83.480001,130.400000 85.111999,130.400000 86.744000,130.400000 88.376001,130.400000 90.008000,130.400000 91.640000,130.400000 93.271999,130.400000 94.904000,130.400000 96.536001,130.400000 98.167999,130.400000 99.800000,130.400000 101.431998,130.400000 103.064002,130.400000 104.696000,130.400000 106.327999,130.400000 107.960002,130.400000 109.592000,130.400000 111.223999,130.400000 112.856002,130.400000 114.488001,130.400000 116.119999,130.400000 117.752002,130.400000 119.384001,130.400000 120.200000,130.400000 120.200000,130.400000 121.015999,130.400000 122.647998,130.400000 124.280001,130.400000 125.911999,130.400000 127.543998,130.400000 129.176001,130.400000 130.808000,130.400000 132.439998,130.400000 134.072001,130.400000 135.704000,130.400000 137.335998,130.400000 138.968002,130.400000 140.600000,130.400000 142.231998,130.400000 143.863997,130.400000 145.495995,130.400000 147.128004,130.400000 148.760002,130.400000 150.392000,130.400000 152.023999,130.400000 153.655997,130.400000 155.287996,130.400000 156.920004,130.400000 158.552002,130.400000 160.184001,130.400000 161.815999,130.400000 163.447998,130.400000 165.079996,130.400000 166.712004,130.400000 168.344003,130.400000 169.976001,130.400000 171.608000,130.400000 173.239998,130.400000 174.871996,130.400000 176.504005,130.400000 178.136003,130.400000 179.768002,130.400000 181.400000,130.400000 181.400000,130.400000 181.400000,130.400000 183.031998,130.400000 184.663997,130.400000 186.295995,130.400000 187.928004,130.400000 189.560002,130.400000 191.192000,130.400000 192.823999,130.400000 194.455997,130.400000 196.087996,130.400000 197.720004,130.400000 199.352002,130.400000 200.984001,130.400000 202.615999,130.400000 204.247998,130.400000 205.879996,130.400000 207.512004,130.400000 209.144003,130.400000 210.776001,130.400000 212.408000,130.400000 214.039998,130.400000 215.671996,130.400000 217.304005,130.400000 218.936003,130.400000 220.568002,130.400000 222.200000,130.400000 223.831998,130.400000 225.463997,130.400000 227.095995,130.400000 228.727994,130.400000 230.359992,130.400000 231.991991,130.400000 233.624009,130.400000 235.256007,130.400000 236.888005,130.400000 238.520004,130.400000 240.152002,130.400000 241.784001,130.400000 242.600000,130.400000 242.600000,130.400000 243.415999,130.400000 245.047998,130.400000 246.679996,130.400000 248.311995,130.400000 249.943993,130.400000 251.575991,130.400000 253.208009,130.400000 254.840008,130.400000 256.472006,130.400000 258.104005,130.400000 259.736003,130.400000 261.368002,130.400000 263.000000,130.400000 263.000000,54.800000 264.631998,54.800000 266.263997,54.800000 267.895995,54.800000 269.527994,54.800000 271.159992,54.800000 272.791991,54.800000 274.424009,54.800000 276.056007,54.800000 277.688005,54.800000 279.320004,54.800000 280.952002,54.800000 282.584001,54.800000 284.215999,54.800000 285.847998,54.800000 287.479996,54.800000 289.111995,54.800000 290.743993,54.800000 292.375991,54.800000 294.008009,54.800000 295.640008,54.800000 297.272006,54.800000 298.904005,54.800000 300.536003,54.800000 302.168002,54.800000 303.800000,54.800000 303.800000,54.800000 303.800000,54.800000 305.431998,54.800000 307.063997,54.800000 308.695995,54.800000 310.327994,54.800000 311.959992,54.800000 313.591991,54.800000 315.224009,54.800000 316.856007,54.800000 318.488005,54.800000 320.120004,54.800000 321.752002,54.800000 323.384001,54.800000 325.015999,54.800000 326.647998,54.800000 328.279996,54.800000 329.911995,54.800000 331.543993,54.800000 333.175991,54.800000 334.808009,54.800000 336.440008,54.800000 338.072006,54.800000 339.704005,54.800000 341.336003,54.800000 342.968002,54.800000 344.600000,54.800000 346.231998,54.800000 347.863997,54.800000 349.495995,54.800000 351.127994,54.800000 352.759992,54.800000 354.391991,54.800000 356.024009,54.800000 357.656007,54.800000 359.288005,54.800000 360.920004,54.800000 362.552002,54.800000 364.184001,54.800000 365.000000,54.800000 365.000000,54.800000 365.815999,54.800000 367.447998,54.800000 369.079996,54.800000 370.711995,54.800000 372.343993,54.800000 373.975991,54.800000 375.608009,54.800000 377.240008,54.800000 378.872006,54.800000 380.504005,54.800000 382.136003,54.800000 383.768002,54.800000 385.400000,54.800000 387.031998,54.800000 388.663997,54.800000 390.295995,54.800000 391.927994,54.800000 393.559992,54.800000 395.191991,54.800000 396.823989,54.800000 398.455988,54.800000 400.087986,54.800000 401.719984,54.800000 403.351983,54.800000 404.983981,54.800000 406.616019,54.800000 408.248017,54.800000 409.880016,54.800000 411.512014,54.800000 413.144012,54.800000 414.776011,54.800000 416.408009,54.800000 418.040008,54.800000 419.672006,54.800000 421.304005,54.800000 422.936003,54.800000 424.568002,54.800000 426.200000,54.800000 426.200000,54.800000 426.200000,54.800000 427.831998,54.800000 429.463997,54.800000 431.095995,54.800000 432.727994,54.800000 434.359992,54.800000 435.991991,54.800000 437.623989,54.800000 439.255988,54.800000 440.887986,54.800000 442.519984,54.800000 444.151983,54.800000 445.783981,54.800000 447.416019,54.800000 449.048017,54.800000 450.680016,54.800000 452.312014,54.800000 453.944012,54.800000 455.576011,54.800000 457.208009,54.800000 458.840008,54.800000 460.472006,54.800000 462.104005,54.800000 463.736003,54.800000 465.368002,54.800000 467.000000,54.800000 467.000000,54.800000 467.000000,130.400000 468.631998,130.400000 470.263997,130.400000 471.895995,130.400000 473.527994,130.400000 475.159992,130.400000 476.791991,130.400000 478.423989,130.400000 480.055988,130.400000 481.687986,130.400000 483.319984,130.400000 484.951983,130.400000 486.583981,130.400000 487.400000,130.400000 487.400000,130.400000 488.216019,130.400000 489.848017,130.400000 491.480016,130.400000 493.112014,130.400000 494.744012,130.400000 496.376011,130.400000 498.008009,130.400000 499.640008,130.400000 501.272006,130.400000 502.904005,130.400000 504.536003,130.400000 506.168002,130.400000 507.800000,130.400000 509.431998,130.400000 511.063997,130.400000 512.695995,130.400000 514.327994,130.400000 515.959992,130.400000 517.591991,130.400000 519.223989,130.400000 520.855988,130.400000 522.487986,130.400000 524.119984,130.400000 525.751983,130.400000 527.383981,130.400000 529.016019,130.400000 530.648017,130.400000 532.280016,130.400000 533.912014,130.400000 535.544012,130.400000 537.176011,130.400000 538.808009,130.400000 540.440008,130.400000 542.072006,130.400000 543.704005,130.400000 545.336003,130.400000 546.968002,130.400000 548.600000,130.400000 548.600000,130.400000 548.600000,130.400000 550.231998,130.400000 551.863997,130.400000 553.495995,130.400000 555.127994,130.400000 556.759992,130.400000 558.391991,130.400000 560.023989,130.400000 561.655988,130.400000 563.287986,130.400000 564.919984,130.400000 566.551983,130.400000 568.183981,130.400000 569.816019,130.400000 571.448017,130.400000 573.080016,130.400000 574.712014,130.400000 576.344012,130.400000 577.976011,130.400000 579.608009,130.400000 581.240008,130.400000 582.872006,130.400000 584.504005,130.400000 586.136003,130.400000 587.768002,130.400000 589.400000,130.400000 591.031998,130.400000 592.663997,130.400000 594.295995,130.400000 595.927994,130.400000 597.559992,130.400000 599.191991,130.400000 600.823989,130.400000 602.455988,130.400000 604.087986,130.400000 605.719984,130.400000 607.351983,130.400000 608.983981,130.400000 609.800000,130.400000 609.800000,130.400000 610.616019,130.400000 612.248017,130.400000 613.880016,130.400000 615.512014,130.400000 617.144012,130.400000 618.776011,130.400000 620.408009,130.400000 622.040008,130.400000 623.672006,130.400000 625.304005,130.400000 626.936003,130.400000 628.568002,130.400000 630.200000,130.400000 631.831998,130.400000 633.463997,130.400000 635.095995,130.400000 636.727994,130.400000 638.359992,130.400000 639.991991,130.400000 641.623989,130.400000 643.255988,130.400000 644.887986,130.400000 646.519984,130.400000 648.151983,130.400000 649.783981,130.400000 651.416019,130.400000 653.048017,130.400000 654.680016,130.400000 656.312014,130.400000 657.944012,130.400000 659.576011,130.400000 661.208009,130.400000 662.840008,130.400000 664.472006,130.400000 666.104005,130.400000 667.736003,130.400000 669.368002,130.400000 671.000000,130.400000 671.000000,130.400000 671.000000,130.400000 671.000000,130.400000 671.000000,54.800000 672.631998,54.800000 674.263997,54.800000 675.895995,54.800000 677.527994,54.800000 679.159992,54.800000 680.791991,54.800000 682.423989,54.800000 684.055988,54.800000 685.687986,54.800000 687.319984,54.800000 688.951983,54.800000 690.583981,54.800000 692.216019,54.800000 693.848017,54.800000 695.480016,54.800000 697.112014,54.800000 698.744012,54.800000 700.376011,54.800000 702.008009,54.800000 703.640008,54.800000 705.272006,54.800000 706.904005,54.800000 708.536003,54.800000 710.168002,54.800000 711.800000,54.800000 713.432037,54.800000 715.063997,54.800000 716.696034,54.800000 718.327994,54.800000 719.960031,54.800000 721.591991,54.800000 723.224028,54.800000 724.855988,54.800000 726.488025,54.800000 728.119984,54.800000 729.752022,54.800000 731.383981,54.800000 732.200000,54.800000 732.200000,54.800000 733.016019,54.800000 734.647978,54.800000 736.280016,54.800000 737.911975,54.800000 739.544012,54.800000 741.175972,54.800000 742.808009,54.800000 744.439969,54.800000 746.072006,54.800000 747.703966,54.800000 749.336003,54.800000 750.967963,54.800000 752.600000,54.800000 754.232037,54.800000 755.863997,54.800000 757.496034,54.800000 759.127994,54.800000 760.760031,54.800000 762.391991,54.800000 764.024028,54.800000 765.655988,54.800000 767.288025,54.800000 768.919984,54.800000 770.552022,54.800000 772.183981,54.800000 773.816019,54.800000 775.447978,54.800000 777.080016,54.800000 778.711975,54.800000 780.344012,54.800000 781.975972,54.800000 783.608009,54.800000 785.239969,54.800000 786.872006,54.800000 788.503966,54.800000 790.136003,54.800000 791.767963,54.800000 793.400000,54.800000 793.400000,54.800000 793.400000,54.800000 795.032037,54.800000 796.663997,54.800000 798.296034,54.800000 799.927994,54.800000 801.560031,54.800000 803.191991,54.800000 804.824028,54.800000 806.455988,54.800000 808.088025,54.800000 809.719984,54.800000 811.352022,54.800000 812.983981,54.800000 814.616019,54.800000 816.247978,54.800000 817.880016,54.800000 819.511975,54.800000 821.144012,54.800000 822.775972,54.800000 824.408009,54.800000 826.039969,54.800000 827.672006,54.800000 829.303966,54.800000 830.936003,54.800000 832.567963,54.800000 834.200000,54.800000 835.832037,54.800000 837.463997,54.800000 839.096034,54.800000 840.727994,54.800000 842.360031,54.800000 843.991991,54.800000 845.624028,54.800000 847.255988,54.800000 848.888025,54.800000 850.519984,54.800000 852.152022,54.800000 853.783981,54.800000 854.600000,54.800000 854.600000,54.800000 855.416019,54.800000 857.047978,54.800000 858.680016,54.800000 860.311975,54.800000 861.944012,54.800000 863.575972,54.800000 865.208009,54.800000 866.839969,54.800000 868.472006,54.800000 870.103966,54.800000 871.736003,54.800000 873.367963,54.800000 875.000000,54.800000 875.000000,130.400000"
         clip-path="url(#clipArea1)"
         style="fill:none;stroke:#1c6cc8;stroke-width:1;stroke-opacity:1"
         inkscape:export-xdpi="44.284924"
         inkscape:export-ydpi="44.284924" />
      <polyline
         id="polyline4560"
         points="59.000000,243.800000 60.632000,243.800000 62.264000,243.800000 63.896000,243.800000 65.528000,243.800000 67.160000,243.800000 68.792000,243.800000 70.424000,243.800000 72.056000,243.800000 73.688001,243.800000 75.320000,243.800000 76.952000,243.800000 78.584000,243.800000 80.215999,243.800000 81.848000,243.800000 83.480001,243.800000 85.111999,243.800000 86.744000,243.800000 88.376001,243.800000 90.008000,243.800000 91.640000,243.800000 93.271999,243.800000 94.904000,243.800000 96.536001,243.800000 98.167999,243.800000 99.800000,243.800000 101.431998,243.800000 103.064002,243.800000 104.696000,243.800000 106.327999,243.800000 107.960002,243.800000 109.592000,243.800000 111.223999,243.800000 112.856002,243.800000 114.488001,243.800000 116.119999,243.800000 117.752002,243.800000 119.384001,243.800000 120.200000,243.800000 120.200000,168.200000 121.015999,168.200000 122.647998,168.200000 124.280001,168.200000 125.911999,168.200000 127.543998,168.200000 129.176001,168.200000 130.808000,168.200000 132.439998,168.200000 134.072001,168.200000 135.704000,168.200000 137.335998,168.200000 138.968002,168.200000 140.600000,168.200000 142.231998,168.200000 143.863997,168.200000 145.495995,168.200000 147.128004,168.200000 148.760002,168.200000 150.392000,168.200000 152.023999,168.200000 153.655997,168.200000 155.287996,168.200000 156.920004,168.200000 158.552002,168.200000 160.184001,168.200000 161.815999,168.200000 163.447998,168.200000 165.079996,168.200000 166.712004,168.200000 168.344003,168.200000 169.976001,168.200000 171.608000,168.200000 173.239998,168.200000 174.871996,168.200000 176.504005,168.200000 178.136003,168.200000 179.768002,168.200000 181.400000,168.200000 181.400000,168.200000 181.400000,243.800000 183.031998,243.800000 184.663997,243.800000 186.295995,243.800000 187.928004,243.800000 189.560002,243.800000 191.192000,243.800000 192.823999,243.800000 194.455997,243.800000 196.087996,243.800000 197.720004,243.800000 199.352002,243.800000 200.984001,243.800000 202.615999,243.800000 204.247998,243.800000 205.879996,243.800000 207.512004,243.800000 209.144003,243.800000 210.776001,243.800000 212.408000,243.800000 214.039998,243.800000 215.671996,243.800000 217.304005,243.800000 218.936003,243.800000 220.568002,243.800000 222.200000,243.800000 223.831998,243.800000 225.463997,243.800000 227.095995,243.800000 228.727994,243.800000 230.359992,243.800000 231.991991,243.800000 233.624009,243.800000 235.256007,243.800000 236.888005,243.800000 238.520004,243.800000 240.152002,243.800000 241.784001,243.800000 242.600000,243.800000 242.600000,168.200000 243.415999,168.200000 245.047998,168.200000 246.679996,168.200000 248.311995,168.200000 249.943993,168.200000 251.575991,168.200000 253.208009,168.200000 254.840008,168.200000 256.472006,168.200000 258.104005,168.200000 259.736003,168.200000 261.368002,168.200000 263.000000,168.200000 263.000000,168.200000 264.631998,168.200000 266.263997,168.200000 267.895995,168.200000 269.527994,168.200000 271.159992,168.200000 272.791991,168.200000 274.424009,168.200000 276.056007,168.200000 277.688005,168.200000 279.320004,168.200000 280.952002,168.200000 282.584001,168.200000 284.215999,168.200000 285.847998,168.200000 287.479996,168.200000 289.111995,168.200000 290.743993,168.200000 292.375991,168.200000 294.008009,168.200000 295.640008,168.200000 297.272006,168.200000 298.904005,168.200000 300.536003,168.200000 302.168002,168.200000 303.800000,168.200000 303.800000,168.200000 303.800000,243.800000 305.431998,243.800000 307.063997,243.800000 308.695995,243.800000 310.327994,243.800000 311.959992,243.800000 313.591991,243.800000 315.224009,243.800000 316.856007,243.800000 318.488005,243.800000 320.120004,243.800000 321.752002,243.800000 323.384001,243.800000 325.015999,243.800000 326.647998,243.800000 328.279996,243.800000 329.911995,243.800000 331.543993,243.800000 333.175991,243.800000 334.808009,243.800000 336.440008,243.800000 338.072006,243.800000 339.704005,243.800000 341.336003,243.800000 342.968002,243.800000 344.600000,243.800000 346.231998,243.800000 347.863997,243.800000 349.495995,243.800000 351.127994,243.800000 352.759992,243.800000 354.391991,243.800000 356.024009,243.800000 357.656007,243.800000 359.288005,243.800000 360.920004,243.800000 362.552002,243.800000 364.184001,243.800000 365.000000,243.800000 365.000000,168.200000 365.815999,168.200000 367.447998,168.200000 369.079996,168.200000 370.711995,168.200000 372.343993,168.200000 373.975991,168.200000 375.608009,168.200000 377.240008,168.200000 378.872006,168.200000 380.504005,168.200000 382.136003,168.200000 383.768002,168.200000 385.400000,168.200000 387.031998,168.200000 388.663997,168.200000 390.295995,168.200000 391.927994,168.200000 393.559992,168.200000 395.191991,168.200000 396.823989,168.200000 398.455988,168.200000 400.087986,168.200000 401.719984,168.200000 403.351983,168.200000 404.983981,168.200000 406.616019,168.200000 408.248017,168.200000 409.880016,168.200000 411.512014,168.200000 413.144012,168.200000 414.776011,168.200000 416.408009,168.200000 418.040008,168.200000 419.672006,168.200000 421.304005,168.200000 422.936003,168.200000 424.568002,168.200000 426.200000,168.200000 426.200000,168.200000 426.200000,243.800000 427.831998,243.800000 429.463997,243.800000 431.095995,243.800000 432.727994,243.800000 434.359992,243.800000 435.991991,243.800000 437.623989,243.800000 439.255988,243.800000 440.887986,243.800000 442.519984,243.800000 444.151983,243.800000 445.783981,243.800000 447.416019,243.800000 449.048017,243.800000 450.680016,243.800000 452.312014,243.800000 453.944012,243.800000 455.576011,243.800000 457.208009,243.800000 458.840008,243.800000 460.472006,243.800000 462.104005,243.800000 463.736003,243.800000 465.368002,243.800000 467.000000,243.800000 467.000000,243.800000 467.000000,243.800000 468.631998,243.800000 470.263997,243.800000 471.895995,243.800000 473.527994,243.800000 475.159992,243.800000 476.791991,243.800000 478.423989,243.800000 480.055988,243.800000 481.687986,243.800000 483.319984,243.800000 484.951983,243.800000 486.583981,243.800000 487.400000,243.800000 487.400000,168.200000 488.216019,168.200000 489.848017,168.200000 491.480016,168.200000 493.112014,168.200000 494.744012,168.200000 496.376011,168.200000 498.008009,168.200000 499.640008,168.200000 501.272006,168.200000 502.904005,168.200000 504.536003,168.200000 506.168002,168.200000 507.800000,168.200000 509.431998,168.200000 511.063997,168.200000 512.695995,168.200000 514.327994,168.200000 515.959992,168.200000 517.591991,168.200000 519.223989,168.200000 520.855988,168.200000 522.487986,168.200000 524.119984,168.200000 525.751983,168.200000 527.383981,168.200000 529.016019,168.200000 530.648017,168.200000 532.280016,168.200000 533.912014,168.200000 535.544012,168.200000 537.176011,168.200000 538.808009,168.200000 540.440008,168.200000 542.072006,168.200000 543.704005,168.200000 545.336003,168.200000 546.968002,168.200000 548.600000,168.200000 548.600000,168.200000 548.600000,243.800000 550.231998,243.800000 551.863997,243.800000 553.495995,243.800000 555.127994,243.800000 556.759992,243.800000 558.391991,243.800000 560.023989,243.800000 561.655988,243.800000 563.287986,243.800000 564.919984,243.800000 566.551983,243.800000 568.183981,243.800000 569.816019,243.800000 571.448017,243.800000 573.080016,243.800000 574.712014,243.800000 576.344012,243.800000 577.976011,243.800000 579.608009,243.800000 581.240008,243.800000 582.872006,243.800000 584.504005,243.800000 586.136003,243.800000 587.768002,243.800000 589.400000,243.800000 591.031998,243.800000 592.663997,243.800000 594.295995,243.800000 595.927994,243.800000 597.559992,243.800000 599.191991,243.800000 600.823989,243.800000 602.455988,243.800000 604.087986,243.800000 605.719984,243.800000 607.351983,243.800000 608.983981,243.800000 609.800000,243.800000 609.800000,168.200000 610.616019,168.200000 612.248017,168.200000 613.880016,168.200000 615.512014,168.200000 617.144012,168.200000 618.776011,168.200000 620.408009,168.200000 622.040008,168.200000 623.672006,168.200000 625.304005,168.200000 626.936003,168.200000 628.568002,168.200000 630.200000,168.200000 631.831998,168.200000 633.463997,168.200000 635.095995,168.200000 636.727994,168.200000 638.359992,168.200000 639.991991,168.200000 641.623989,168.200000 643.255988,168.200000 644.887986,168.200000 646.519984,168.200000 648.151983,168.200000 649.783981,168.200000 651.416019,168.200000 653.048017,168.200000 654.680016,168.200000 656.312014,168.200000 657.944012,168.200000 659.576011,168.200000 661.208009,168.200000 662.840008,168.200000 664.472006,168.200000 666.104005,168.200000 667.736003,168.200000 669.368002,168.200000 671.000000,168.200000 671.000000,168.200000 671.000000,243.800000 671.000000,243.800000 671.000000,243.800000 672.631998,243.800000 674.263997,243.800000 675.895995,243.800000 677.527994,243.800000 679.159992,243.800000 680.791991,243.800000 682.423989,243.800000 684.055988,243.800000 685.687986,243.800000 687.319984,243.800000 688.951983,243.800000 690.583981,243.800000 692.216019,243.800000 693.848017,243.800000 695.480016,243.800000 697.112014,243.800000 698.744012,243.800000 700.376011,243.800000 702.008009,243.800000 703.640008,243.800000 705.272006,243.800000 706.904005,243.800000 708.536003,243.800000 710.168002,243.800000 711.800000,243.800000 713.432037,243.800000 715.063997,243.800000 716.696034,243.800000 718.327994,243.800000 719.960031,243.800000 721.591991,243.800000 723.224028,243.800000 724.855988,243.800000 726.488025,243.800000 728.119984,243.800000 729.752022,243.800000 731.383981,243.800000 732.200000,243.800000 732.200000,168.200000 733.016019,168.200000 734.647978,168.200000 736.280016,168.200000 737.911975,168.200000 739.544012,168.200000 741.175972,168.200000 742.808009,168.200000 744.439969,168.200000 746.072006,168.200000 747.703966,168.200000 749.336003,168.200000 750.967963,168.200000 752.600000,168.200000 754.232037,168.200000 755.863997,168.200000 757.496034,168.200000 759.127994,168.200000 760.760031,168.200000 762.391991,168.200000 764.024028,168.200000 765.655988,168.200000 767.288025,168.200000 768.919984,168.200000 770.552022,168.200000 772.183981,168.200000 773.816019,168.200000 775.447978,168.200000 777.080016,168.200000 778.711975,168.200000 780.344012,168.200000 781.975972,168.200000 783.608009,168.200000 785.239969,168.200000 786.872006,168.200000 788.503966,168.200000 790.136003,168.200000 791.767963,168.200000 793.400000,168.200000 793.400000,168.200000 793.400000,243.800000 795.032037,243.800000 796.663997,243.800000 798.296034,243.800000 799.927994,243.800000 801.560031,243.800000 803.191991,243.800000 804.824028,243.800000 806.455988,243.800000 808.088025,243.800000 809.719984,243.800000 811.352022,243.800000 812.983981,243.800000 814.616019,243.800000 816.247978,243.800000 817.880016,243.800000 819.511975,243.800000 821.144012,243.800000 822.775972,243.800000 824.408009,243.800000 826.039969,243.800000 827.672006,243.800000 829.303966,243.800000 830.936003,243.800000 832.567963,243.800000 834.200000,243.800000 835.832037,243.800000 837.463997,243.800000 839.096034,243.800000 840.727994,243.800000 842.360031,243.800000 843.991991,243.800000 845.624028,243.800000 847.255988,243.800000 848.888025,243.800000 850.519984,243.800000 852.152022,243.800000 853.783981,243.800000 854.600000,243.800000 854.600000,168.200000 855.416019,168.200000 857.047978,168.200000 858.680016,168.200000 860.311975,168.200000 861.944012,168.200000 863.575972,168.200000 865.208009,168.200000 866.839969,168.200000 868.472006,168.200000 870.103966,168.200000 871.736003,168.200000 873.367963,168.200000 875.000000,168.200000 875.000000,168.200000"
         clip-path="url(#clipArea1)"
         style="fill:none;stroke:#1c6cc8;stroke-width:1;stroke-opacity:1"
         inkscape:export-xdpi="44.284924"
         inkscape:export-ydpi="44.284924" />
      <polyline
         id="polyline4562"
         points="59.000000,357.200000 60.632000,357.200000 62.264000,357.200000 63.896000,357.200000 65.528000,357.200000 67.160000,357.200000 68.792000,357.200000 70.424000,357.200000 72.056000,357.200000 73.688001,357.200000 75.320000,357.200000 76.952000,357.200000 78.584000,357.200000 80.215999,357.200000 81.848000,357.200000 83.480001,357.200000 85.111999,357.200000 86.744000,357.200000 88.376001,357.200000 90.008000,357.200000 91.640000,357.200000 93.271999,357.200000 94.904000,357.200000 96.536001,357.200000 98.167999,357.200000 99.800000,357.200000 101.431998,357.200000 103.064002,357.200000 104.696000,357.200000 106.327999,357.200000 107.960002,357.200000 109.592000,357.200000 111.223999,357.200000 112.856002,357.200000 114.488001,357.200000 116.119999,357.200000 117.752002,357.200000 119.384001,357.200000 120.200000,357.200000 120.200000,281.600000 121.015999,281.600000 122.647998,281.600000 124.280001,281.600000 125.911999,281.600000 127.543998,281.600000 129.176001,281.600000 130.808000,281.600000 132.439998,281.600000 134.072001,281.600000 135.704000,281.600000 137.335998,281.600000 138.968002,281.600000 140.600000,281.600000 142.231998,281.600000 143.863997,281.600000 145.495995,281.600000 147.128004,281.600000 148.760002,281.600000 150.392000,281.600000 152.023999,281.600000 153.655997,281.600000 155.287996,281.600000 156.920004,281.600000 158.552002,281.600000 160.184001,281.600000 161.815999,281.600000 163.447998,281.600000 165.079996,281.600000 166.712004,281.600000 168.344003,281.600000 169.976001,281.600000 171.608000,281.600000 173.239998,281.600000 174.871996,281.600000 176.504005,281.600000 178.136003,281.600000 179.768002,281.600000 181.400000,281.600000 181.400000,281.600000 181.400000,281.600000 183.031998,281.600000 184.663997,281.600000 186.295995,281.600000 187.928004,281.600000 189.560002,281.600000 191.192000,281.600000 192.823999,281.600000 194.455997,281.600000 196.087996,281.600000 197.720004,281.600000 199.352002,281.600000 200.984001,281.600000 202.615999,281.600000 204.247998,281.600000 205.879996,281.600000 207.512004,281.600000 209.144003,281.600000 210.776001,281.600000 212.408000,281.600000 214.039998,281.600000 215.671996,281.600000 217.304005,281.600000 218.936003,281.600000 220.568002,281.600000 222.200000,281.600000 223.831998,281.600000 225.463997,281.600000 227.095995,281.600000 228.727994,281.600000 230.359992,281.600000 231.991991,281.600000 233.624009,281.600000 235.256007,281.600000 236.888005,281.600000 238.520004,281.600000 240.152002,281.600000 241.784001,281.600000 242.600000,281.600000 242.600000,281.600000 243.415999,281.600000 245.047998,281.600000 246.679996,281.600000 248.311995,281.600000 249.943993,281.600000 251.575991,281.600000 253.208009,281.600000 254.840008,281.600000 256.472006,281.600000 258.104005,281.600000 259.736003,281.600000 261.368002,281.600000 263.000000,281.600000 263.000000,357.200000 264.631998,357.200000 266.263997,357.200000 267.895995,357.200000 269.527994,357.200000 271.159992,357.200000 272.791991,357.200000 274.424009,357.200000 276.056007,357.200000 277.688005,357.200000 279.320004,357.200000 280.952002,357.200000 282.584001,357.200000 284.215999,357.200000 285.847998,357.200000 287.479996,357.200000 289.111995,357.200000 290.743993,357.200000 292.375991,357.200000 294.008009,357.200000 295.640008,357.200000 297.272006,357.200000 298.904005,357.200000 300.536003,357.200000 302.168002,357.200000 303.800000,357.200000 303.800000,357.200000 303.800000,357.200000 305.431998,357.200000 307.063997,357.200000 308.695995,357.200000 310.327994,357.200000 311.959992,357.200000 313.591991,357.200000 315.224009,357.200000 316.856007,357.200000 318.488005,357.200000 320.120004,357.200000 321.752002,357.200000 323.384001,357.200000 325.015999,357.200000 326.647998,357.200000 328.279996,357.200000 329.911995,357.200000 331.543993,357.200000 333.175991,357.200000 334.808009,357.200000 336.440008,357.200000 338.072006,357.200000 339.704005,357.200000 341.336003,357.200000 342.968002,357.200000 344.600000,357.200000 346.231998,357.200000 347.863997,357.200000 349.495995,357.200000 351.127994,357.200000 352.759992,357.200000 354.391991,357.200000 356.024009,357.200000 357.656007,357.200000 359.288005,357.200000 360.920004,357.200000 362.552002,357.200000 364.184001,357.200000 365.000000,357.200000 365.000000,357.200000 365.815999,357.200000 367.447998,357.200000 369.079996,357.200000 370.711995,357.200000 372.343993,357.200000 373.975991,357.200000 375.608009,357.200000 377.240008,357.200000 378.872006,357.200000 380.504005,357.200000 382.136003,357.200000 383.768002,357.200000 385.400000,357.200000 387.031998,357.200000 388.663997,357.200000 390.295995,357.200000 391.927994,357.200000 393.559992,357.200000 395.191991,357.200000 396.823989,357.200000 398.455988,357.200000 400.087986,357.200000 401.719984,357.200000 403.351983,357.200000 404.983981,357.200000 406.616019,357.200000 408.248017,357.200000 409.880016,357.200000 411.512014,357.200000 413.144012,357.200000 414.776011,357.200000 416.408009,357.200000 418.040008,357.200000 419.672006,357.200000 421.304005,357.200000 422.936003,357.200000 424.568002,357.200000 426.200000,357.200000 426.200000,357.200000 426.200000,357.200000 427.831998,357.200000 429.463997,357.200000 431.095995,357.200000 432.727994,357.200000 434.359992,357.200000 435.991991,357.200000 437.623989,357.200000 439.255988,357.200000 440.887986,357.200000 442.519984,357.200000 444.151983,357.200000 445.783981,357.200000 447.416019,357.200000 449.048017,357.200000 450.680016,357.200000 452.312014,357.200000 453.944012,357.200000 455.576011,357.200000 457.208009,357.200000 458.840008,357.200000 460.472006,357.200000 462.104005,357.200000 463.736003,357.200000 465.368002,357.200000 467.000000,357.200000 467.000000,357.200000 467.000000,357.200000 468.631998,357.200000 470.263997,357.200000 471.895995,357.200000 473.527994,357.200000 475.159992,357.200000 476.791991,357.200000 478.423989,357.200000 480.055988,357.200000 481.687986,357.200000 483.319984,357.200000 484.951983,357.200000 486.583981,357.200000 487.400000,357.200000 487.400000,281.600000 488.216019,281.600000 489.848017,281.600000 491.480016,281.600000 493.112014,281.600000 494.744012,281.600000 496.376011,281.600000 498.008009,281.600000 499.640008,281.600000 501.272006,281.600000 502.904005,281.600000 504.536003,281.600000 506.168002,281.600000 507.800000,281.600000 509.431998,281.600000 511.063997,281.600000 512.695995,281.600000 514.327994,281.600000 515.959992,281.600000 517.591991,281.600000 519.223989,281.600000 520.855988,281.600000 522.487986,281.600000 524.119984,281.600000 525.751983,281.600000 527.383981,281.600000 529.016019,281.600000 530.648017,281.600000 532.280016,281.600000 533.912014,281.600000 535.544012,281.600000 537.176011,281.600000 538.808009,281.600000 540.440008,281.600000 542.072006,281.600000 543.704005,281.600000 545.336003,281.600000 546.968002,281.600000 548.600000,281.600000 548.600000,281.600000 548.600000,281.600000 550.231998,281.600000 551.863997,281.600000 553.495995,281.600000 555.127994,281.600000 556.759992,281.600000 558.391991,281.600000 560.023989,281.600000 561.655988,281.600000 563.287986,281.600000 564.919984,281.600000 566.551983,281.600000 568.183981,281.600000 569.816019,281.600000 571.448017,281.600000 573.080016,281.600000 574.712014,281.600000 576.344012,281.600000 577.976011,281.600000 579.608009,281.600000 581.240008,281.600000 582.872006,281.600000 584.504005,281.600000 586.136003,281.600000 587.768002,281.600000 589.400000,281.600000 591.031998,281.600000 592.663997,281.600000 594.295995,281.600000 595.927994,281.600000 597.559992,281.600000 599.191991,281.600000 600.823989,281.600000 602.455988,281.600000 604.087986,281.600000 605.719984,281.600000 607.351983,281.600000 608.983981,281.600000 609.800000,281.600000 609.800000,281.600000 610.616019,281.600000 612.248017,281.600000 613.880016,281.600000 615.512014,281.600000 617.144012,281.600000 618.776011,281.600000 620.408009,281.600000 622.040008,281.600000 623.672006,281.600000 625.304005,281.600000 626.936003,281.600000 628.568002,281.600000 630.200000,281.600000 631.831998,281.600000 633.463997,281.600000 635.095995,281.600000 636.727994,281.600000 638.359992,281.600000 639.991991,281.600000 641.623989,281.600000 643.255988,281.600000 644.887986,281.600000 646.519984,281.600000 648.151983,281.600000 649.783981,281.600000 651.416019,281.600000 653.048017,281.600000 654.680016,281.600000 656.312014,281.600000 657.944012,281.600000 659.576011,281.600000 661.208009,281.600000 662.840008,281.600000 664.472006,281.600000 666.104005,281.600000 667.736003,281.600000 669.368002,281.600000 671.000000,281.600000 671.000000,281.600000 671.000000,281.600000 671.000000,281.600000 671.000000,357.200000 672.631998,357.200000 674.263997,357.200000 675.895995,357.200000 677.527994,357.200000 679.159992,357.200000 680.791991,357.200000 682.423989,357.200000 684.055988,357.200000 685.687986,357.200000 687.319984,357.200000 688.951983,357.200000 690.583981,357.200000 692.216019,357.200000 693.848017,357.200000 695.480016,357.200000 697.112014,357.200000 698.744012,357.200000 700.376011,357.200000 702.008009,357.200000 703.640008,357.200000 705.272006,357.200000 706.904005,357.200000 708.536003,357.200000 710.168002,357.200000 711.800000,357.200000 713.432037,357.200000 715.063997,357.200000 716.696034,357.200000 718.327994,357.200000 719.960031,357.200000 721.591991,357.200000 723.224028,357.200000 724.855988,357.200000 726.488025,357.200000 728.119984,357.200000 729.752022,357.200000 731.383981,357.200000 732.200000,357.200000 732.200000,357.200000 733.016019,357.200000 734.647978,357.200000 736.280016,357.200000 737.911975,357.200000 739.544012,357.200000 741.175972,357.200000 742.808009,357.200000 744.439969,357.200000 746.072006,357.200000 747.703966,357.200000 749.336003,357.200000 750.967963,357.200000 752.600000,357.200000 754.232037,357.200000 755.863997,357.200000 757.496034,357.200000 759.127994,357.200000 760.760031,357.200000 762.391991,357.200000 764.024028,357.200000 765.655988,357.200000 767.288025,357.200000 768.919984,357.200000 770.552022,357.200000 772.183981,357.200000 773.816019,357.200000 775.447978,357.200000 777.080016,357.200000 778.711975,357.200000 780.344012,357.200000 781.975972,357.200000 783.608009,357.200000 785.239969,357.200000 786.872006,357.200000 788.503966,357.200000 790.136003,357.200000 791.767963,357.200000 793.400000,357.200000 793.400000,357.200000 793.400000,357.200000 795.032037,357.200000 796.663997,357.200000 798.296034,357.200000 799.927994,357.200000 801.560031,357.200000 803.191991,357.200000 804.824028,357.200000 806.455988,357.200000 808.088025,357.200000 809.719984,357.200000 811.352022,357.200000 812.983981,357.200000 814.616019,357.200000 816.247978,357.200000 817.880016,357.200000 819.511975,357.200000 821.144012,357.200000 822.775972,357.200000 824.408009,357.200000 826.039969,357.200000 827.672006,357.200000 829.303966,357.200000 830.936003,357.200000 832.567963,357.200000 834.200000,357.200000 835.832037,357.200000 837.463997,357.200000 839.096034,357.200000 840.727994,357.200000 842.360031,357.200000 843.991991,357.200000 845.624028,357.200000 847.255988,357.200000 848.888025,357.200000 850.519984,357.200000 852.152022,357.200000 853.783981,357.200000 854.600000,357.200000 854.600000,357.200000 855.416019,357.200000 857.047978,357.200000 858.680016,357.200000 860.311975,357.200000 861.944012,357.200000 863.575972,357.200000 865.208009,357.200000 866.839969,357.200000 868.472006,357.200000 870.103966,357.200000 871.736003,357.200000 873.367963,357.200000 875.000000,357.200000 875.000000,281.600000"
         clip-path="url(#clipArea1)"
         style="fill:none;stroke:#1c6cc8;stroke-width:1;stroke-opacity:1"
         inkscape:export-xdpi="44.284924"
         inkscape:export-ydpi="44.284924" />
      <path
         style="opacity:0.5;fill:none;fill-rule:evenodd;stroke:#000000;stroke-width:0.60299867;stroke-linecap:butt;stroke-linejoin:miter;stroke-miterlimit:4;stroke-dasharray:1.20599736, 0.60299868;stroke-dashoffset:0;stroke-opacity:1"
         d="M 120.2,281.60002 120.2,130.4"
         id="path4667"
         inkscape:connector-curvature="0"
         inkscape:export-xdpi="44.284924"
         inkscape:export-ydpi="44.284924" />
      <path
         style="opacity:0.5;fill:none;fill-rule:evenodd;stroke:#000000;stroke-width:0.60299867;stroke-linecap:butt;stroke-linejoin:miter;stroke-miterlimit:4;stroke-dasharray:1.20599736, 0.60299868;stroke-dashoffset:0;stroke-opacity:1"
         d="m 181.4,130.4 0,151.2"
         id="path4669"
         inkscape:connector-curvature="0"
         inkscape:export-xdpi="44.284924"
         inkscape:export-ydpi="44.284924" />
      <text
         id="text4549-9"
         font-size="13"
         dominant-baseline="central"
         y="106.76323"
         x="117.1274"
         style="font-style:normal;font-variant:normal;font-weight:normal;font-stretch:normal;font-size:13.00004864px;line-height:125%;font-family:helvetica;-inkscape-font-specification:'helvetica, Normal';text-align:start;writing-mode:lr-tb;text-anchor:start;fill:#000000"
         sodipodi:linespacing="125%"
         inkscape:export-xdpi="44.284924"
         inkscape:export-ydpi="44.284924">
        <tspan
           sodipodi:role="line"
           id="tspan4695"
           x="117.1274"
           y="106.76323">Scenario 1</tspan>
      </text>
      <text
         id="text4549-9-4"
         font-size="13"
         dominant-baseline="central"
         y="106.76323"
         x="192.36211"
         style="font-style:normal;font-variant:normal;font-weight:normal;font-stretch:normal;font-size:13.00004864px;line-height:125%;font-family:helvetica;-inkscape-font-specification:'helvetica, Normal';text-align:start;writing-mode:lr-tb;text-anchor:start;fill:#000000"
         sodipodi:linespacing="125%"
         inkscape:export-xdpi="44.284924"
         inkscape:export-ydpi="44.284924">
        <tspan
           sodipodi:role="line"
           id="tspan4715"
           x="192.36211"
           y="106.76323">Scenario 2</tspan>
      </text>
      <path
         style="opacity:0.5;fill:none;fill-rule:evenodd;stroke:#000000;stroke-width:0.73805082;stroke-linecap:butt;stroke-linejoin:miter;stroke-miterlimit:4;stroke-dasharray:1.4761016, 0.7380508;stroke-dashoffset:0;stroke-opacity:1"
         d="m 88.526697,356.72119 0,-226.51224"
         id="path4667-4"
         inkscape:connector-curvature="0"
         inkscape:export-xdpi="44.284924"
         inkscape:export-ydpi="44.284924" />
      <path
         style="opacity:0.5;fill:none;fill-rule:evenodd;stroke:#000000;stroke-width:0.69297945;stroke-linecap:butt;stroke-linejoin:miter;stroke-miterlimit:4;stroke-dasharray:1.38595898, 0.69297949;stroke-dashoffset:0;stroke-opacity:1"
         d="m 347.29171,55.0747 0,299.53745"
         id="path4673-8"
         inkscape:connector-curvature="0"
         inkscape:export-xdpi="44.284924"
         inkscape:export-ydpi="44.284924" />
      <text
         id="text4549-9-1"
         font-size="13"
         dominant-baseline="central"
         y="381.05493"
         x="93.876907"
         style="font-style:normal;font-variant:normal;font-weight:normal;font-stretch:normal;font-size:13.00004864px;line-height:125%;font-family:helvetica;-inkscape-font-specification:'helvetica, Normal';text-align:start;writing-mode:lr-tb;text-anchor:start;fill:#000000"
         sodipodi:linespacing="125%"
         inkscape:export-xdpi="44.284924"
         inkscape:export-ydpi="44.284924">
        <tspan
           sodipodi:role="line"
           id="tspan4765"
           x="93.876907"
           y="381.05493">Scenario 5</tspan>
      </text>
      <text
         id="text4549-9-4-8"
         font-size="13"
         dominant-baseline="central"
         y="106.76323"
         x="318.74753"
         style="font-style:normal;font-variant:normal;font-weight:normal;font-stretch:normal;font-size:13.00004864px;line-height:125%;font-family:helvetica;-inkscape-font-specification:'helvetica, Normal';text-align:start;writing-mode:lr-tb;text-anchor:start;fill:#000000"
         sodipodi:linespacing="125%"
         inkscape:export-xdpi="44.284924"
         inkscape:export-ydpi="44.284924">
        <tspan
           sodipodi:role="line"
           id="tspan4785"
           x="318.74753"
           y="106.76323">Scenario 6</tspan>
      </text>
      <path
         style="opacity:0.7;fill:none;fill-rule:evenodd;stroke:#000000;stroke-width:0.60299867;stroke-linecap:butt;stroke-linejoin:miter;stroke-miterlimit:4;stroke-dasharray:none;stroke-opacity:1;marker-end:url(#Arrow1Lend)"
         d="M 133.96255,109.73565 120.2,130.40001"
         id="path4805"
         inkscape:connector-curvature="0"
         inkscape:export-xdpi="44.284924"
         inkscape:export-ydpi="44.284924" />
      <path
         style="opacity:0.7;fill:none;fill-rule:evenodd;stroke:#000000;stroke-width:0.60299867;stroke-linecap:butt;stroke-linejoin:miter;stroke-miterlimit:4;stroke-dasharray:none;stroke-opacity:1;marker-end:url(#Arrow1Lend-9)"
         d="M 195.16255,109.73564 181.4,130.4"
         id="path4805-9"
         inkscape:connector-curvature="0"
         inkscape:export-xdpi="44.284924"
         inkscape:export-ydpi="44.284924" />
      <path
         style="opacity:0.5;fill:none;fill-rule:evenodd;stroke:#000000;stroke-width:0.60299867;stroke-linecap:butt;stroke-linejoin:miter;stroke-miterlimit:4;stroke-dasharray:none;stroke-opacity:1;marker-end:url(#marker5630)"
         d="M 99.825515,369.1771 88.526699,356.72121"
         id="path5628"
         inkscape:connector-curvature="0"
         inkscape:export-xdpi="44.284924"
         inkscape:export-ydpi="44.284924" />
      <text
         inkscape:export-ydpi="44.284924"
         inkscape:export-xdpi="44.284924"
         sodipodi:linespacing="125%"
         style="font-style:normal;font-variant:normal;font-weight:normal;font-stretch:normal;font-size:13.00004864px;line-height:125%;font-family:helvetica;-inkscape-font-specification:'helvetica, Normal';text-align:start;writing-mode:lr-tb;text-anchor:start;fill:#000000"
         x="437.48688"
         y="421.37366"
         dominant-baseline="central"
         font-size="13"
         id="text3448">
        <tspan
           y="421.37366"
           x="437.48688"
           id="tspan3450"
           sodipodi:role="line">time</tspan>
      </text>
    </g>
  </g>
</svg>
