<?xml version="1.0" standalone="no"?>
<!DOCTYPE svg PUBLIC "-//W3C//DTD SVG 1.1//EN" "http://www.w3.org/Graphics/SVG/1.1/DTD/svg11.dtd">
<svg viewBox="0 0 400 203" version="1.1" xmlns="http://www.w3.org/2000/svg" xmlns:xlink="http://www.w3.org/1999/xlink">
	<polyline fill="none" stroke="rgb(240,240,240)" stroke-width="0.5" stroke-opacity="1" points="57,19 57,174"/>
	<polyline fill="none" stroke="rgb(240,240,240)" stroke-width="0.5" stroke-opacity="1" points="96.25,19 96.25,174"/>
	<polyline fill="none" stroke="rgb(240,240,240)" stroke-width="0.5" stroke-opacity="1" points="135.5,19 135.5,174"/>
	<polyline fill="none" stroke="rgb(240,240,240)" stroke-width="0.5" stroke-opacity="1" points="174.75,19 174.75,174"/>
	<polyline fill="none" stroke="rgb(240,240,240)" stroke-width="0.5" stroke-opacity="1" points="214,19 214,174"/>
	<polyline fill="none" stroke="rgb(240,240,240)" stroke-width="0.5" stroke-opacity="1" points="253.25,19 253.25,174"/>
	<polyline fill="none" stroke="rgb(240,240,240)" stroke-width="0.5" stroke-opacity="1" points="292.5,19 292.5,174"/>
	<polyline fill="none" stroke="rgb(240,240,240)" stroke-width="0.5" stroke-opacity="1" points="331.75,19 331.75,174"/>
	<polyline fill="none" stroke="rgb(240,240,240)" stroke-width="0.5" stroke-opacity="1" points="371,19 371,174"/>
	<rect fill="rgb(240,240,240)" stroke="rgb(240,240,240)" stroke-width="0.5" stroke-opacity="1" x="57" y="38.375" width="314" height="48.4375"/>
	<rect fill="rgb(240,240,240)" stroke="rgb(240,240,240)" stroke-width="0.5" stroke-opacity="1" x="57" y="106.188" width="314" height="48.4375"/>
	<polyline fill="none" stroke="rgb(0,0,0)" stroke-width="0.5" stroke-opacity="1" points="57,174 371,174"/>
	<polyline fill="none" stroke="rgb(0,0,0)" stroke-width="0.5" stroke-opacity="1" points="371,174 371,19"/>
	<polyline fill="none" stroke="rgb(0,0,0)" stroke-width="0.5" stroke-opacity="1" points="371,19 57,19"/>
	<polyline fill="none" stroke="rgb(0,0,0)" stroke-width="0.5" stroke-opacity="1" points="57,19 57,174"/>
	<polyline fill="none" stroke="rgb(0,0,0)" stroke-width="0.5" stroke-opacity="1" points="57,174 57,178"/>
	<polyline fill="none" stroke="rgb(0,0,0)" stroke-width="0.5" stroke-opacity="1" points="96.25,174 96.25,178"/>
	<polyline fill="none" stroke="rgb(0,0,0)" stroke-width="0.5" stroke-opacity="1" points="135.5,174 135.5,178"/>
	<polyline fill="none" stroke="rgb(0,0,0)" stroke-width="0.5" stroke-opacity="1" points="174.75,174 174.75,178"/>
	<polyline fill="none" stroke="rgb(0,0,0)" stroke-width="0.5" stroke-opacity="1" points="214,174 214,178"/>
	<polyline fill="none" stroke="rgb(0,0,0)" stroke-width="0.5" stroke-opacity="1" points="253.25,174 253.25,178"/>
	<polyline fill="none" stroke="rgb(0,0,0)" stroke-width="0.5" stroke-opacity="1" points="292.5,174 292.5,178"/>
	<polyline fill="none" stroke="rgb(0,0,0)" stroke-width="0.5" stroke-opacity="1" points="331.75,174 331.75,178"/>
	<polyline fill="none" stroke="rgb(0,0,0)" stroke-width="0.5" stroke-opacity="1" points="371,174 371,178"/>
	<polyline fill="none" stroke="rgb(0,0,0)" stroke-width="0.5" stroke-opacity="1" points="57,174 57,180.4"/>
	<text fill="rgb(0,0,0)" font-size="11" font-family="helvetica" text-anchor="middle" dominant-baseline="central" x="57" y="190">0.0E0</text>
	<polyline fill="none" stroke="rgb(0,0,0)" stroke-width="0.5" stroke-opacity="1" points="135.5,174 135.5,180.4"/>
	<text fill="rgb(0,0,0)" font-size="11" font-family="helvetica" text-anchor="middle" dominant-baseline="central" x="135.5" y="190">4.0E3</text>
	<polyline fill="none" stroke="rgb(0,0,0)" stroke-width="0.5" stroke-opacity="1" points="214,174 214,180.4"/>
	<text fill="rgb(0,0,0)" font-size="11" font-family="helvetica" text-anchor="middle" dominant-baseline="central" x="214" y="190">8.0E3</text>
	<polyline fill="none" stroke="rgb(0,0,0)" stroke-width="0.5" stroke-opacity="1" points="292.5,174 292.5,180.4"/>
	<text fill="rgb(0,0,0)" font-size="11" font-family="helvetica" text-anchor="middle" dominant-baseline="central" x="292.5" y="190">1.2E4</text>
	<polyline fill="none" stroke="rgb(0,0,0)" stroke-width="0.5" stroke-opacity="1" points="371,174 371,180.4"/>
	<text fill="rgb(0,0,0)" font-size="11" font-family="helvetica" text-anchor="middle" dominant-baseline="central" x="371" y="190">1.6E4</text>
	<polyline fill="none" stroke="rgb(0,0,0)" stroke-width="0.5" stroke-opacity="1" points="53,86.8125 57,86.8125"/>
	<text fill="rgb(0,0,0)" font-size="11" font-family="helvetica" text-anchor="end" dominant-baseline="central" x="49" y="86.8125">false</text>
	<polyline fill="none" stroke="rgb(0,0,0)" stroke-width="0.5" stroke-opacity="1" points="53,38.375 57,38.375"/>
	<text fill="rgb(0,0,0)" font-size="11" font-family="helvetica" text-anchor="end" dominant-baseline="central" x="49" y="38.375">true</text>
	<polyline fill="none" stroke="rgb(0,0,0)" stroke-width="0.5" stroke-opacity="1" points="53,154.625 57,154.625"/>
	<text fill="rgb(0,0,0)" font-size="11" font-family="helvetica" text-anchor="end" dominant-baseline="central" x="49" y="154.625">false</text>
	<polyline fill="none" stroke="rgb(0,0,0)" stroke-width="0.5" stroke-opacity="1" points="53,106.188 57,106.188"/>
	<text fill="rgb(0,0,0)" font-size="11" font-family="helvetica" text-anchor="end" dominant-baseline="central" x="49" y="106.188">true</text>
	<clipPath id="clipArea1">
		<rect x="57" y="19" width="315" height="155">
		</rect>
	</clipPath>
	<polyline fill="none" stroke="rgb(28,108,200)" stroke-width="1" stroke-opacity="1" clip-path="url(#clipArea1)" points="57,86.8125 57.5887,86.8125 58.1775,86.8125 58.7662,86.8125 59.355,86.8125 59.9438,86.8125 60.5325,86.8125 61.1213,86.8125 61.71,86.8125 62.2987,86.8125 62.8875,86.8125 62.8875,38.375 63.4763,38.375 64.065,38.375 64.6538,38.375 65.2425,38.375 65.8312,38.375 66.42,38.375 67.0088,38.375 67.5975,38.375 68.1863,38.375 68.775,38.375 68.775,38.375 69.3637,38.375 69.9525,38.375 70.5413,38.375 71.13,38.375 71.7188,38.375 72.3075,38.375 72.8962,38.375 73.485,38.375 74.0738,38.375 74.6625,38.375 75.2512,38.375 75.84,38.375 76.4288,38.375 77.0175,38.375 77.6063,38.375 78.195,38.375 78.7837,38.375 79.3725,38.375 79.9613,38.375 80.55,38.375 81.1388,38.375 81.7275,38.375 82.3162,38.375 82.905,38.375 83.4938,38.375 84.0825,38.375 84.6713,38.375 85.26,38.375 85.8487,38.375 86.4375,38.375 87.0263,38.375 87.615,38.375 88.2037,38.375 88.7925,38.375 89.3812,38.375 89.97,38.375 90.5588,38.375 91.1475,38.375 91.7362,38.375 92.325,38.375 92.325,38.375 92.9137,38.375 93.5025,38.375 94.0913,38.375 94.68,38.375 95.2687,38.375 95.8575,38.375 96.4462,38.375 97.035,38.375 97.6238,38.375 98.2125,38.375 98.8013,38.375 99.39,38.375 99.9787,38.375 100.567,38.375 101.156,38.375 101.745,38.375 102.334,38.375 102.922,38.375 103.511,38.375 104.1,38.375 104.1,38.375 104.689,38.375 105.278,38.375 105.866,38.375 106.455,38.375 107.044,38.375 107.632,38.375 108.221,38.375 108.81,38.375 109.399,38.375 109.987,38.375 110.576,38.375 111.165,38.375 111.754,38.375 112.343,38.375 112.931,38.375 113.52,38.375 114.109,38.375 114.697,38.375 115.286,38.375 115.875,38.375 116.464,38.375 117.053,38.375 117.641,38.375 118.23,38.375 118.819,38.375 119.407,38.375 119.996,38.375 120.585,38.375 121.174,38.375 121.763,38.375 122.351,38.375 122.94,38.375 123.529,38.375 124.118,38.375 124.706,38.375 125.295,38.375 125.884,38.375 126.472,38.375 127.061,38.375 127.65,38.375 127.65,38.375 128.239,38.375 128.827,38.375 129.416,38.375 130.005,38.375 130.594,38.375 131.183,38.375 131.771,38.375 132.36,38.375 132.949,38.375 133.537,38.375 133.537,38.375 134.126,38.375 134.715,38.375 135.304,38.375 135.892,38.375 136.481,38.375 137.07,38.375 137.659,38.375 138.248,38.375 138.836,38.375 139.425,38.375 139.425,38.375 140.014,38.375 140.603,38.375 141.191,38.375 141.78,38.375 142.369,38.375 142.957,38.375 143.546,38.375 144.135,38.375 144.724,38.375 145.312,38.375 145.901,38.375 146.49,38.375 147.079,38.375 147.668,38.375 148.256,38.375 148.845,38.375 149.434,38.375 150.022,38.375 150.611,38.375 151.2,38.375 151.2,86.8125 151.789,86.8125 152.377,86.8125 152.966,86.8125 153.555,86.8125 154.144,86.8125 154.733,86.8125 155.321,86.8125 155.91,86.8125 156.499,86.8125 157.088,86.8125 157.676,86.8125 158.265,86.8125 158.854,86.8125 159.442,86.8125 160.031,86.8125 160.62,86.8125 161.209,86.8125 161.798,86.8125 162.386,86.8125 162.975,86.8125 162.975,86.8125 163.564,86.8125 164.153,86.8125 164.741,86.8125 165.33,86.8125 165.919,86.8125 166.507,86.8125 167.096,86.8125 167.685,86.8125 168.274,86.8125 168.863,86.8125 169.451,86.8125 170.04,86.8125 170.629,86.8125 171.218,86.8125 171.806,86.8125 172.395,86.8125 172.984,86.8125 173.572,86.8125 174.161,86.8125 174.75,86.8125 174.75,86.8125 175.339,86.8125 175.928,86.8125 176.516,86.8125 177.105,86.8125 177.694,86.8125 178.282,86.8125 178.871,86.8125 179.46,86.8125 180.049,86.8125 180.637,86.8125 181.226,86.8125 181.815,86.8125 182.404,86.8125 182.993,86.8125 183.581,86.8125 184.17,86.8125 184.759,86.8125 185.347,86.8125 185.936,86.8125 186.525,86.8125 187.114,86.8125 187.702,86.8125 188.291,86.8125 188.88,86.8125 189.469,86.8125 190.058,86.8125 190.646,86.8125 191.235,86.8125 191.824,86.8125 192.412,86.8125 193.001,86.8125 193.59,86.8125 194.179,86.8125 194.768,86.8125 195.356,86.8125 195.945,86.8125 196.534,86.8125 197.123,86.8125 197.711,86.8125 198.3,86.8125 198.3,86.8125 198.889,86.8125 199.477,86.8125 200.066,86.8125 200.655,86.8125 201.244,86.8125 201.833,86.8125 202.421,86.8125 203.01,86.8125 203.599,86.8125 204.188,86.8125 204.776,86.8125 205.365,86.8125 205.954,86.8125 206.542,86.8125 207.131,86.8125 207.72,86.8125 208.309,86.8125 208.898,86.8125 209.486,86.8125 210.075,86.8125 210.075,86.8125 210.664,86.8125 211.252,86.8125 211.841,86.8125 212.43,86.8125 213.019,86.8125 213.607,86.8125 214.196,86.8125 214.785,86.8125 215.374,86.8125 215.963,86.8125 216.551,86.8125 217.14,86.8125 217.729,86.8125 218.317,86.8125 218.906,86.8125 219.495,86.8125 220.084,86.8125 220.673,86.8125 221.261,86.8125 221.85,86.8125 221.85,86.8125 222.439,86.8125 223.028,86.8125 223.616,86.8125 224.205,86.8125 224.794,86.8125 225.382,86.8125 225.971,86.8125 226.56,86.8125 227.149,86.8125 227.738,86.8125 228.326,86.8125 228.915,86.8125 229.504,86.8125 230.093,86.8125 230.681,86.8125 231.27,86.8125 231.859,86.8125 232.447,86.8125 233.036,86.8125 233.625,86.8125 233.625,86.8125 234.214,86.8125 234.803,86.8125 235.391,86.8125 235.98,86.8125 236.569,86.8125 237.157,86.8125 237.746,86.8125 238.335,86.8125 238.924,86.8125 239.512,86.8125 239.512,38.375 240.101,38.375 240.69,38.375 241.279,38.375 241.868,38.375 242.456,38.375 243.045,38.375 243.634,38.375 244.222,38.375 244.811,38.375 245.4,38.375 245.4,38.375 245.989,38.375 246.578,38.375 247.166,38.375 247.755,38.375 248.344,38.375 248.933,38.375 249.521,38.375 250.11,38.375 250.699,38.375 251.287,38.375 251.876,38.375 252.465,38.375 253.054,38.375 253.643,38.375 254.231,38.375 254.82,38.375 255.409,38.375 255.998,38.375 256.586,38.375 257.175,38.375 257.764,38.375 258.352,38.375 258.941,38.375 259.53,38.375 260.119,38.375 260.707,38.375 261.296,38.375 261.885,38.375 262.474,38.375 263.062,38.375 263.651,38.375 264.24,38.375 264.829,38.375 265.418,38.375 266.006,38.375 266.595,38.375 267.184,38.375 267.773,38.375 268.361,38.375 268.95,38.375 268.95,38.375 269.539,38.375 270.127,38.375 270.716,38.375 271.305,38.375 271.894,38.375 272.482,38.375 273.071,38.375 273.66,38.375 274.249,38.375 274.837,38.375 275.426,38.375 276.015,38.375 276.604,38.375 277.192,38.375 277.781,38.375 278.37,38.375 278.959,38.375 279.548,38.375 280.136,38.375 280.725,38.375 280.725,38.375 281.314,38.375 281.903,38.375 282.491,38.375 283.08,38.375 283.669,38.375 284.257,38.375 284.846,38.375 285.435,38.375 286.024,38.375 286.613,38.375 287.201,38.375 287.79,38.375 288.379,38.375 288.967,38.375 289.556,38.375 290.145,38.375 290.734,38.375 291.322,38.375 291.911,38.375 292.5,38.375 293.089,38.375 293.678,38.375 294.266,38.375 294.855,38.375 295.444,38.375 296.033,38.375 296.621,38.375 297.21,38.375 297.799,38.375 298.387,38.375 298.976,38.375 299.565,38.375 300.154,38.375 300.743,38.375 301.331,38.375 301.92,38.375 302.509,38.375 303.097,38.375 303.686,38.375 304.275,38.375 304.275,38.375 304.864,38.375 305.452,38.375 306.041,38.375 306.63,38.375 307.219,38.375 307.808,38.375 308.396,38.375 308.985,38.375 309.574,38.375 310.163,38.375 310.163,38.375 310.751,38.375 311.34,38.375 311.929,38.375 312.518,38.375 313.106,38.375 313.695,38.375 314.284,38.375 314.873,38.375 315.461,38.375 316.05,38.375 316.05,38.375 316.639,38.375 317.228,38.375 317.816,38.375 318.405,38.375 318.994,38.375 319.582,38.375 320.171,38.375 320.76,38.375 321.349,38.375 321.938,38.375 322.526,38.375 323.115,38.375 323.704,38.375 324.293,38.375 324.881,38.375 325.47,38.375 326.059,38.375 326.647,38.375 327.236,38.375 327.825,38.375 327.825,86.8125 328.414,86.8125 329.002,86.8125 329.591,86.8125 330.18,86.8125 330.769,86.8125 331.358,86.8125 331.946,86.8125 332.535,86.8125 333.124,86.8125 333.712,86.8125 334.301,86.8125 334.89,86.8125 335.479,86.8125 336.067,86.8125 336.656,86.8125 337.245,86.8125 337.834,86.8125 338.423,86.8125 339.011,86.8125 339.6,86.8125 339.6,86.8125 340.189,86.8125 340.777,86.8125 341.366,86.8125 341.955,86.8125 342.544,86.8125 343.132,86.8125 343.721,86.8125 344.31,86.8125 344.899,86.8125 345.488,86.8125 346.076,86.8125 346.665,86.8125 347.254,86.8125 347.843,86.8125 348.431,86.8125 349.02,86.8125 349.609,86.8125 350.197,86.8125 350.786,86.8125 351.375,86.8125 351.375,86.8125"/>
	<polyline fill="none" stroke="rgb(28,108,200)" stroke-width="1" stroke-opacity="1" clip-path="url(#clipArea1)" points="57,154.625 57.5887,154.625 58.1775,154.625 58.7662,154.625 59.355,154.625 59.9438,154.625 60.5325,154.625 61.1213,154.625 61.71,154.625 62.2987,154.625 62.8875,154.625 62.8875,106.188 63.4763,106.188 64.065,106.188 64.6538,106.188 65.2425,106.188 65.8312,106.188 66.42,106.188 67.0088,106.188 67.5975,106.188 68.1863,106.188 68.775,106.188 68.775,106.188 69.3637,106.188 69.9525,106.188 70.5413,106.188 71.13,106.188 71.7188,106.188 72.3075,106.188 72.8962,106.188 73.485,106.188 74.0738,106.188 74.6625,106.188 75.2512,106.188 75.84,106.188 76.4288,106.188 77.0175,106.188 77.6063,106.188 78.195,106.188 78.7837,106.188 79.3725,106.188 79.9613,106.188 80.55,106.188 81.1388,106.188 81.7275,106.188 82.3162,106.188 82.905,106.188 83.4938,106.188 84.0825,106.188 84.6713,106.188 85.26,106.188 85.8487,106.188 86.4375,106.188 87.0263,106.188 87.615,106.188 88.2037,106.188 88.7925,106.188 89.3812,106.188 89.97,106.188 90.5588,106.188 91.1475,106.188 91.7362,106.188 92.325,106.188 92.325,106.188 92.9137,106.188 93.5025,106.188 94.0913,106.188 94.68,106.188 95.2687,106.188 95.8575,106.188 96.4462,106.188 97.035,106.188 97.6238,106.188 98.2125,106.188 98.8013,106.188 99.39,106.188 99.9787,106.188 100.567,106.188 101.156,106.188 101.745,106.188 102.334,106.188 102.922,106.188 103.511,106.188 104.1,106.188 104.1,106.188 104.689,106.188 105.278,106.188 105.866,106.188 106.455,106.188 107.044,106.188 107.632,106.188 108.221,106.188 108.81,106.188 109.399,106.188 109.987,106.188 110.576,106.188 111.165,106.188 111.754,106.188 112.343,106.188 112.931,106.188 113.52,106.188 114.109,106.188 114.697,106.188 115.286,106.188 115.875,106.188 116.464,106.188 117.053,106.188 117.641,106.188 118.23,106.188 118.819,106.188 119.407,106.188 119.996,106.188 120.585,106.188 121.174,106.188 121.763,106.188 122.351,106.188 122.94,106.188 123.529,106.188 124.118,106.188 124.706,106.188 125.295,106.188 125.884,106.188 126.472,106.188 127.061,106.188 127.65,106.188 127.65,106.188 128.239,106.188 128.827,106.188 129.416,106.188 130.005,106.188 130.594,106.188 131.183,106.188 131.771,106.188 132.36,106.188 132.949,106.188 133.537,106.188 133.537,106.188 134.126,106.188 134.715,106.188 135.304,106.188 135.892,106.188 136.481,106.188 137.07,106.188 137.659,106.188 138.248,106.188 138.836,106.188 139.425,106.188 139.425,106.188 140.014,106.188 140.603,106.188 141.191,106.188 141.78,106.188 142.369,106.188 142.957,106.188 143.546,106.188 144.135,106.188 144.724,106.188 145.312,106.188 145.901,106.188 146.49,106.188 147.079,106.188 147.668,106.188 148.256,106.188 148.845,106.188 149.434,106.188 150.022,106.188 150.611,106.188 151.2,106.188 151.2,154.625 151.789,154.625 152.377,154.625 152.966,154.625 153.555,154.625 154.144,154.625 154.733,154.625 155.321,154.625 155.91,154.625 156.499,154.625 157.088,154.625 157.676,154.625 158.265,154.625 158.854,154.625 159.442,154.625 160.031,154.625 160.62,154.625 161.209,154.625 161.798,154.625 162.386,154.625 162.975,154.625 162.975,154.625 163.564,154.625 164.153,154.625 164.741,154.625 165.33,154.625 165.919,154.625 166.507,154.625 167.096,154.625 167.685,154.625 168.274,154.625 168.863,154.625 169.451,154.625 170.04,154.625 170.629,154.625 171.218,154.625 171.806,154.625 172.395,154.625 172.984,154.625 173.572,154.625 174.161,154.625 174.75,154.625 174.75,154.625 175.339,154.625 175.928,154.625 176.516,154.625 177.105,154.625 177.694,154.625 178.282,154.625 178.871,154.625 179.46,154.625 180.049,154.625 180.637,154.625 181.226,154.625 181.815,154.625 182.404,154.625 182.993,154.625 183.581,154.625 184.17,154.625 184.759,154.625 185.347,154.625 185.936,154.625 186.525,154.625 187.114,154.625 187.702,154.625 188.291,154.625 188.88,154.625 189.469,154.625 190.058,154.625 190.646,154.625 191.235,154.625 191.824,154.625 192.412,154.625 193.001,154.625 193.59,154.625 194.179,154.625 194.768,154.625 195.356,154.625 195.945,154.625 196.534,154.625 197.123,154.625 197.711,154.625 198.3,154.625 198.3,154.625 198.889,154.625 199.477,154.625 200.066,154.625 200.655,154.625 201.244,154.625 201.833,154.625 202.421,154.625 203.01,154.625 203.599,154.625 204.188,154.625 204.776,154.625 205.365,154.625 205.954,154.625 206.542,154.625 207.131,154.625 207.72,154.625 208.309,154.625 208.898,154.625 209.486,154.625 210.075,154.625 210.075,154.625 210.664,154.625 211.252,154.625 211.841,154.625 212.43,154.625 213.019,154.625 213.607,154.625 214.196,154.625 214.785,154.625 215.374,154.625 215.963,154.625 216.551,154.625 217.14,154.625 217.729,154.625 218.317,154.625 218.906,154.625 219.495,154.625 220.084,154.625 220.673,154.625 221.261,154.625 221.85,154.625 221.85,154.625 222.439,154.625 223.028,154.625 223.616,154.625 224.205,154.625 224.794,154.625 225.382,154.625 225.971,154.625 226.56,154.625 227.149,154.625 227.738,154.625 228.326,154.625 228.915,154.625 229.504,154.625 230.093,154.625 230.681,154.625 231.27,154.625 231.859,154.625 232.447,154.625 233.036,154.625 233.625,154.625 233.625,154.625 234.214,154.625 234.803,154.625 235.391,154.625 235.98,154.625 236.569,154.625 237.157,154.625 237.746,154.625 238.335,154.625 238.924,154.625 239.512,154.625 239.512,106.188 240.101,106.188 240.69,106.188 241.279,106.188 241.868,106.188 242.456,106.188 243.045,106.188 243.634,106.188 244.222,106.188 244.811,106.188 245.4,106.188 245.4,106.188 245.989,106.188 246.578,106.188 247.166,106.188 247.755,106.188 248.344,106.188 248.933,106.188 249.521,106.188 250.11,106.188 250.699,106.188 251.287,106.188 251.876,106.188 252.465,106.188 253.054,106.188 253.643,106.188 254.231,106.188 254.82,106.188 255.409,106.188 255.998,106.188 256.586,106.188 257.175,106.188 257.764,106.188 258.352,106.188 258.941,106.188 259.53,106.188 260.119,106.188 260.707,106.188 261.296,106.188 261.885,106.188 262.474,106.188 263.062,106.188 263.651,106.188 264.24,106.188 264.829,106.188 265.418,106.188 266.006,106.188 266.595,106.188 267.184,106.188 267.773,106.188 268.361,106.188 268.95,106.188 268.95,106.188 269.539,106.188 270.127,106.188 270.716,106.188 271.305,106.188 271.894,106.188 272.482,106.188 273.071,106.188 273.66,106.188 274.249,106.188 274.837,106.188 275.426,106.188 276.015,106.188 276.604,106.188 277.192,106.188 277.781,106.188 278.37,106.188 278.959,106.188 279.548,106.188 280.136,106.188 280.725,106.188 280.725,106.188 281.314,106.188 281.903,106.188 282.491,106.188 283.08,106.188 283.669,106.188 284.257,106.188 284.846,106.188 285.435,106.188 286.024,106.188 286.613,106.188 287.201,106.188 287.79,106.188 288.379,106.188 288.967,106.188 289.556,106.188 290.145,106.188 290.734,106.188 291.322,106.188 291.911,106.188 292.5,106.188 293.089,106.188 293.678,106.188 294.266,106.188 294.855,106.188 295.444,106.188 296.033,106.188 296.621,106.188 297.21,106.188 297.799,106.188 298.387,106.188 298.976,106.188 299.565,106.188 300.154,106.188 300.743,106.188 301.331,106.188 301.92,106.188 302.509,106.188 303.097,106.188 303.686,106.188 304.275,106.188 304.275,106.188 304.864,106.188 305.452,106.188 306.041,106.188 306.63,106.188 307.219,106.188 307.808,106.188 308.396,106.188 308.985,106.188 309.574,106.188 310.163,106.188 310.163,106.188 310.751,106.188 311.34,106.188 311.929,106.188 312.518,106.188 313.106,106.188 313.695,106.188 314.284,106.188 314.873,106.188 315.461,106.188 316.05,106.188 316.05,106.188 316.639,106.188 317.228,106.188 317.816,106.188 318.405,106.188 318.994,106.188 319.582,106.188 320.171,106.188 320.76,106.188 321.349,106.188 321.938,106.188 322.526,106.188 323.115,106.188 323.704,106.188 324.293,106.188 324.881,106.188 325.47,106.188 326.059,106.188 326.647,106.188 327.236,106.188 327.825,106.188 327.825,154.625 328.414,154.625 329.002,154.625 329.591,154.625 330.18,154.625 330.769,154.625 331.358,154.625 331.946,154.625 332.535,154.625 333.124,154.625 333.712,154.625 334.301,154.625 334.89,154.625 335.479,154.625 336.067,154.625 336.656,154.625 337.245,154.625 337.834,154.625 338.423,154.625 339.011,154.625 339.6,154.625 339.6,154.625 340.189,154.625 340.777,154.625 341.366,154.625 341.955,154.625 342.544,154.625 343.132,154.625 343.721,154.625 344.31,154.625 344.899,154.625 345.488,154.625 346.076,154.625 346.665,154.625 347.254,154.625 347.843,154.625 348.431,154.625 349.02,154.625 349.609,154.625 350.197,154.625 350.786,154.625 351.375,154.625 351.375,154.625"/>
	<text fill="rgb(0,0,0)" font-size="11" font-family="helvetica" text-anchor="start" dominant-baseline="central" x="58" y="27">truHol.u</text>
	<text fill="rgb(0,0,0)" font-size="11" font-family="helvetica" text-anchor="start" dominant-baseline="central" x="58" y="95">truHol.y</text>
</svg>
