<?xml version="1.0" standalone="no"?>
<!DOCTYPE svg PUBLIC "-//W3C//DTD SVG 1.1//EN" "http://www.w3.org/Graphics/SVG/1.1/DTD/svg11.dtd">
<svg viewBox="-19.2 -19.2 666.4 422.4" version="1.1" xmlns="http://www.w3.org/2000/svg" xmlns:xlink="http://www.w3.org/1999/xlink">
	<text fill="rgb(0,0,255)" font-size="10" font-family="helvetica" text-anchor="middle" dominant-baseline="central" x="136.278" y="103.167">stateGraphRoot</text>
	<rect fill="none" stroke="rgb(0,0,0)" stroke-opacity="1" transform="translate(136.278, 134.222) translate(0, 0) scale(1,-1)" x="-23.8889" y="-23.8889" width="47.7778" height="47.7778"/>
	<text fill="rgb(0,0,0)" font-size="10" font-family="helvetica" text-anchor="middle" dominant-baseline="central" x="136.756" y="120.844">root</text>
	<rect fill="none" stroke="rgb(0,0,0)" stroke-opacity="1" transform="translate(121.228, 139.717) translate(0, 0) scale(1,-1)" x="-4.53889" y="-4.06111" width="9.07778" height="8.12222"/>
	<polyline fill="none" stroke="rgb(0,0,0)" stroke-opacity="1" points="136.278,131.833 136.278,148.556"/>
	<rect fill="none" stroke="rgb(0,0,0)" stroke-opacity="1" transform="translate(152.283, 139.717) translate(0, 0) scale(1,-1)" x="-4.53889" y="-4.06111" width="9.07778" height="8.12222"/>
	<polygon fill="black" stroke="rgb(0,0,0)" stroke-opacity="1" points="133.411,138.044 136.278,139.478 133.411,140.911 133.411,138.044"/>
	<polyline fill="none" stroke="rgb(0,0,0)" stroke-opacity="1" points="125.767,139.478 133.411,139.478"/>
	<polygon fill="black" stroke="rgb(0,0,0)" stroke-opacity="1" points="144.878,138.044 147.744,139.478 144.878,140.911 144.878,138.044"/>
	<polyline fill="none" stroke="rgb(0,0,0)" stroke-opacity="1" points="136.278,139.478 144.878,139.478"/>
	<text fill="rgb(0,0,255)" font-size="10" font-family="helvetica" text-anchor="middle" dominant-baseline="central" x="136.278" y="31.5">initialStep</text>
	<rect fill="rgb(255,255,255)" stroke="rgb(0,0,0)" stroke-opacity="1" transform="translate(136.278, 62.5556) translate(0, 0) scale(1,-1)" x="-23.8889" y="-23.8889" width="47.7778" height="47.7778"/>
	<rect fill="none" stroke="rgb(0,0,0)" stroke-opacity="1" transform="translate(136.278, 62.5556) translate(0, 0) scale(1,-1)" x="-19.1111" y="-19.1111" width="38.2222" height="38.2222"/>
	<text fill="rgb(0,0,255)" font-size="10" font-family="helvetica" text-anchor="middle" dominant-baseline="central" x="303.5" y="31.5">outputTrue</text>
	<rect fill="rgb(255,255,255)" stroke="rgb(0,0,0)" stroke-opacity="1" transform="translate(303.5, 62.5556) translate(0, 0) scale(1,-1)" x="-23.8889" y="-23.8889" width="47.7778" height="47.7778"/>
	<text fill="rgb(0,0,0)" font-size="10" font-family="helvetica" text-anchor="middle" dominant-baseline="central" x="303.739" y="82.3833">active</text>
	<rect fill="rgb(0,0,0)" stroke="rgb(0,0,0)" stroke-opacity="1" transform="translate(231.833, 62.5556) translate(0, 0) scale(1,-1)" x="-2.38889" y="-23.8889" width="4.77778" height="47.7778"/>
	<polyline fill="none" stroke="rgb(0,0,0)" stroke-opacity="1" points="224.667,62.5556 229.444,62.5556"/>
	<text fill="rgb(0,0,255)" font-size="10" font-family="helvetica" text-anchor="middle" dominant-baseline="central" x="231.833" y="31.5">toOutputTrue</text>
	<ellipse fill="rgb(0,0,0)" stroke="rgb(0,0,0)" stroke-opacity="1" cx="231.833" cy="83.5778" rx="1.67222" ry="1.67222"/>
	<rect fill="rgb(0,0,0)" stroke="rgb(0,0,0)" stroke-opacity="1" transform="translate(494.611, 62.5556) translate(0, 0) scale(1,-1)" x="-2.38889" y="-23.8889" width="4.77778" height="47.7778"/>
	<polyline fill="none" stroke="rgb(0,0,0)" stroke-opacity="1" points="487.444,62.5556 492.222,62.5556"/>
	<text fill="rgb(0,0,255)" font-size="10" font-family="helvetica" text-anchor="middle" dominant-baseline="central" x="494.611" y="31.5">toInitial</text>
	<ellipse fill="rgb(0,0,0)" stroke="rgb(0,0,0)" stroke-opacity="1" cx="494.611" cy="83.5778" rx="1.67222" ry="1.67222"/>
	<rect fill="rgb(255,255,255)" stroke="rgb(255,0,255)" stroke-opacity="1" x="279.611" y="325.333" width="47.7778" height="47.7778"/>
	<rect fill="rgb(255,255,255)" stroke="rgb(255,0,255)" stroke-opacity="1" transform="translate(286.778, 348.983) translate(0, 0) scale(1,-1)" x="-4.77778" y="-11.9444" width="9.55556" height="23.8889"/>
	<rect fill="rgb(255,255,255)" stroke="rgb(255,0,255)" stroke-opacity="1" transform="translate(320.222, 349.222) translate(0, 0) scale(1,-1)" x="-4.77778" y="-11.9444" width="9.55556" height="23.8889"/>
	<polygon fill="rgb(255,0,255)" stroke="rgb(255,0,255)" stroke-opacity="1" points="280.946,348.766 280.946,349.722 281.902,349.244 280.946,348.766"/>
	<polyline fill="none" stroke="rgb(255,0,255)" stroke-opacity="1" points="286.3,348.744 289.133,346.139 291.761,346.139"/>
	<polyline fill="none" stroke="rgb(255,0,255)" stroke-opacity="1" points="286.061,348.267 289.406,339.667 291.794,339.667"/>
	<polyline fill="none" stroke="rgb(255,0,255)" stroke-opacity="1" points="276.506,349.222 285.336,349.227"/>
	<ellipse fill="rgb(255,0,255)" stroke="rgb(255,0,255)" stroke-opacity="1" cx="285.334" cy="349.26" rx="1.19444" ry="1.13472"/>
	<polyline fill="none" stroke="rgb(255,0,255)" stroke-opacity="1" points="286.061,350.417 289.167,358.778 291.794,358.778"/>
	<polyline fill="none" stroke="rgb(255,0,255)" stroke-opacity="1" points="286.3,349.7 289.15,352.306 291.778,352.306"/>
	<polygon fill="rgb(255,255,255)" stroke="rgb(255,0,255)" stroke-opacity="1" points="291.823,351.85 291.823,352.806 292.778,352.328 291.823,351.85"/>
	<polyline fill="none" stroke="rgb(255,0,255)" stroke-opacity="1" points="292.511,346.117 295.139,346.117 311.861,356.389 314.25,356.389"/>
	<polyline fill="none" stroke="rgb(255,0,255)" stroke-opacity="1" points="292.75,339.667 295.139,339.667 311.861,349.222 314.011,349.222"/>
	<polyline fill="none" stroke="rgb(255,0,255)" stroke-opacity="1" points="292.75,358.778 295.378,358.778 311.861,342.056 314.011,342.056"/>
	<polygon fill="rgb(255,255,255)" stroke="rgb(255,0,255)" stroke-opacity="1" points="291.794,339.189 291.794,340.144 292.75,339.667 291.794,339.189"/>
	<polygon fill="rgb(255,255,255)" stroke="rgb(255,0,255)" stroke-opacity="1" points="291.825,358.307 291.825,359.263 292.78,358.785 291.825,358.307"/>
	<polygon fill="rgb(255,255,255)" stroke="rgb(255,0,255)" stroke-opacity="1" points="291.795,345.668 291.795,346.623 292.75,346.145 291.795,345.668"/>
	<ellipse fill="rgb(255,0,255)" stroke="rgb(255,0,255)" stroke-opacity="1" cx="321.251" cy="349.371" rx="1.19444" ry="1.13472"/>
	<polyline fill="none" stroke="rgb(255,0,255)" stroke-opacity="1" points="322.611,349.222 327.389,349.222"/>
	<polygon fill="rgb(255,0,255)" stroke="rgb(255,0,255)" stroke-opacity="1" points="313.811,341.504 313.811,342.46 314.766,341.982 313.811,341.504"/>
	<polygon fill="rgb(255,0,255)" stroke="rgb(255,0,255)" stroke-opacity="1" points="313.834,348.791 313.834,349.747 314.789,349.269 313.834,348.791"/>
	<polygon fill="rgb(255,0,255)" stroke="rgb(255,0,255)" stroke-opacity="1" points="313.983,355.953 313.983,356.908 314.938,356.431 313.983,355.953"/>
	<polyline fill="none" stroke="rgb(255,0,255)" stroke-opacity="1" points="314.967,349.222 320.222,349.222"/>
	<polyline fill="none" stroke="rgb(255,0,255)" stroke-opacity="1" points="314.728,342.056 317.833,342.056 320.939,348.506"/>
	<polyline fill="none" stroke="rgb(255,0,255)" stroke-opacity="1" points="315.206,356.389 317.833,356.389 321.178,350.178"/>
	<text fill="rgb(0,0,0)" font-size="10" font-family="helvetica" text-anchor="middle" dominant-baseline="central" x="303.5" y="380.278">extract={1}</text>
	<text fill="rgb(0,0,255)" font-size="10" font-family="helvetica" text-anchor="middle" dominant-baseline="central" x="303.5" y="320.556">pas</text>
	<rect fill="rgb(210,210,210)" stroke="rgb(0,0,0)" stroke-opacity="1" transform="translate(356.056, 158.111) translate(0, 0) scale(1,-1)" x="-23.8889" y="-23.8889" width="47.7778" height="47.7778"/>
	<rect fill="rgb(172,168,153)" stroke="none" x="331.553" y="133.609" width="0.613333" height="48.3911"/>
	<rect fill="rgb(172,168,153)" stroke="none" x="331.553" y="182" width="48.3911" height="0.613333"/>
	<rect fill="rgb(172,168,153)" stroke="none" x="379.944" y="134.222" width="0.613333" height="48.3911"/>
	<rect fill="rgb(172,168,153)" stroke="none" x="332.167" y="133.609" width="48.3911" height="0.613333"/>
	<rect fill="rgb(255,255,255)" stroke="none" x="332.167" y="134.222" width="0.92" height="47.7778"/>
	<rect fill="rgb(255,255,255)" stroke="none" x="332.167" y="134.222" width="47.7778" height="0.92"/>
	<rect fill="rgb(113,111,100)" stroke="none" x="379.331" y="134.222" width="0.613333" height="47.7778"/>
	<rect fill="rgb(113,111,100)" stroke="none" x="332.167" y="181.387" width="47.7778" height="0.613333"/>
	<rect fill="rgb(172,168,153)" stroke="none" x="378.718" y="134.836" width="0.613333" height="46.5511"/>
	<rect fill="rgb(172,168,153)" stroke="none" x="332.78" y="180.773" width="46.5511" height="0.613333"/>
	<text fill="rgb(0,0,0)" font-size="10" font-family="helvetica" text-anchor="middle" dominant-baseline="central" x="356.056" y="190.361">duration</text>
	<polyline fill="none" stroke="rgb(0,0,0)" stroke-opacity="1" points="336.944,173.878 341.722,173.878 341.722,163.367 365.133,163.367 365.133,173.878 371.822,173.878"/>
	<polyline fill="none" stroke="rgb(255,0,255)" stroke-opacity="1" points="336.944,150.467 355.1,150.467 355.1,139.956 365.133,139.956 365.133,150.467 371.822,150.467"/>
	<ellipse fill="rgb(235,235,235)" stroke="rgb(235,235,235)" stroke-opacity="1" cx="337.422" cy="158.111" rx="1.67222" ry="1.67222"/>
	<ellipse fill="rgb(235,235,235)" stroke="rgb(235,235,235)" stroke-opacity="1" cx="374.689" cy="158.111" rx="1.67222" ry="1.67222"/>
	<text fill="rgb(0,0,255)" font-size="10" font-family="helvetica" text-anchor="middle" dominant-baseline="central" x="356.056" y="127.056">onDel</text>
	<rect fill="rgb(210,210,210)" stroke="rgb(0,0,0)" stroke-opacity="1" transform="translate(446.833, 158.111) translate(0, 0) scale(1,-1)" x="-23.8889" y="-23.8889" width="47.7778" height="47.7778"/>
	<rect fill="rgb(172,168,153)" stroke="none" x="422.331" y="133.609" width="0.613333" height="48.3911"/>
	<rect fill="rgb(172,168,153)" stroke="none" x="422.331" y="182" width="48.3911" height="0.613333"/>
	<rect fill="rgb(172,168,153)" stroke="none" x="470.722" y="134.222" width="0.613333" height="48.3911"/>
	<rect fill="rgb(172,168,153)" stroke="none" x="422.944" y="133.609" width="48.3911" height="0.613333"/>
	<rect fill="rgb(255,255,255)" stroke="none" x="422.944" y="134.222" width="0.92" height="47.7778"/>
	<rect fill="rgb(255,255,255)" stroke="none" x="422.944" y="134.222" width="47.7778" height="0.92"/>
	<rect fill="rgb(113,111,100)" stroke="none" x="470.109" y="134.222" width="0.613333" height="47.7778"/>
	<rect fill="rgb(113,111,100)" stroke="none" x="422.944" y="181.387" width="47.7778" height="0.613333"/>
	<rect fill="rgb(172,168,153)" stroke="none" x="469.496" y="134.836" width="0.613333" height="46.5511"/>
	<rect fill="rgb(172,168,153)" stroke="none" x="423.558" y="180.773" width="46.5511" height="0.613333"/>
	<text fill="rgb(0,0,0)" font-size="17" font-family="helvetica" text-anchor="middle" dominant-baseline="central" x="446.833" y="158.111">and</text>
	<ellipse fill="rgb(235,235,235)" stroke="rgb(235,235,235)" stroke-opacity="1" cx="465.467" cy="158.111" rx="1.67222" ry="1.67222"/>
	<ellipse fill="rgb(235,235,235)" stroke="rgb(235,235,235)" stroke-opacity="1" cx="427.244" cy="157.872" rx="1.67222" ry="1.67222"/>
	<ellipse fill="rgb(235,235,235)" stroke="rgb(235,235,235)" stroke-opacity="1" cx="427.244" cy="177.222" rx="1.67222" ry="1.67222"/>
	<text fill="rgb(0,0,255)" font-size="10" font-family="helvetica" text-anchor="middle" dominant-baseline="central" x="446.833" y="127.056"><title>onDelAndNotU</title>onDelAndN…</text>
	<rect fill="rgb(215,215,215)" stroke="rgb(0,0,0)" stroke-opacity="1" transform="translate(303.5, 253.667) translate(0, 0) scale(1,-1)" x="-23.8889" y="-23.8889" width="47.7778" height="47.7778"/>
	<rect fill="rgb(172,168,153)" stroke="none" x="278.998" y="229.164" width="0.613333" height="48.3911"/>
	<rect fill="rgb(172,168,153)" stroke="none" x="278.998" y="277.556" width="48.3911" height="0.613333"/>
	<rect fill="rgb(172,168,153)" stroke="none" x="327.389" y="229.778" width="0.613333" height="48.3911"/>
	<rect fill="rgb(172,168,153)" stroke="none" x="279.611" y="229.164" width="48.3911" height="0.613333"/>
	<rect fill="rgb(255,255,255)" stroke="none" x="279.611" y="229.778" width="0.92" height="47.7778"/>
	<rect fill="rgb(255,255,255)" stroke="none" x="279.611" y="229.778" width="47.7778" height="0.92"/>
	<rect fill="rgb(113,111,100)" stroke="none" x="326.776" y="229.778" width="0.613333" height="47.7778"/>
	<rect fill="rgb(113,111,100)" stroke="none" x="279.611" y="276.942" width="47.7778" height="0.613333"/>
	<rect fill="rgb(172,168,153)" stroke="none" x="326.162" y="230.391" width="0.613333" height="46.5511"/>
	<rect fill="rgb(172,168,153)" stroke="none" x="280.224" y="276.329" width="46.5511" height="0.613333"/>
	<text fill="rgb(0,0,0)" font-size="10" font-family="helvetica" text-anchor="middle" dominant-baseline="central" x="305.411" y="253.189">not</text>
	<ellipse fill="rgb(235,235,235)" stroke="rgb(235,235,235)" stroke-opacity="1" cx="322.133" cy="253.667" rx="1.67222" ry="1.67222"/>
	<text fill="rgb(0,0,255)" font-size="10" font-family="helvetica" text-anchor="middle" dominant-baseline="central" x="303.5" y="222.611">notU</text>
	<polyline fill="none" stroke="rgb(255,255,255)" stroke-width="2.99" stroke-opacity="1" points="161.361,62.5556 222.278,62.5556"/>
	<polyline fill="none" stroke="rgb(0,0,0)" stroke-opacity="1" points="161.361,62.5556 222.278,62.5556"/>
	<polyline fill="none" stroke="rgb(255,255,255)" stroke-width="2.99" stroke-opacity="1" points="231.833,91.2222 231.833,205.889 16.8333,205.889"/>
	<polyline fill="none" stroke="rgb(255,0,255)" stroke-opacity="1" points="231.833,91.2222 231.833,205.889 16.8333,205.889"/>
	<polyline fill="none" stroke="rgb(255,255,255)" stroke-width="2.99" stroke-opacity="1" points="498.194,62.5556 518.5,62.5556 518.5,0.444444 88.5,0.444444 88.5,62.5556 110,62.5556"/>
	<polyline fill="none" stroke="rgb(0,0,0)" stroke-opacity="1" points="498.194,62.5556 518.5,62.5556 518.5,0.444444 88.5,0.444444 88.5,62.5556 110,62.5556"/>
	<polyline fill="none" stroke="rgb(255,255,255)" stroke-width="2.99" stroke-opacity="1" points="235.417,62.5556 277.222,62.5556"/>
	<polyline fill="none" stroke="rgb(0,0,0)" stroke-opacity="1" points="235.417,62.5556 277.222,62.5556"/>
	<polyline fill="none" stroke="rgb(255,255,255)" stroke-width="2.99" stroke-opacity="1" points="328.583,62.5556 485.056,62.5556"/>
	<polyline fill="none" stroke="rgb(0,0,0)" stroke-opacity="1" points="328.583,62.5556 485.056,62.5556"/>
	<polyline fill="none" stroke="rgb(255,255,255)" stroke-width="2.99" stroke-opacity="1" points="16.8333,205.889 112.389,205.889 112.389,349.222 274.833,349.222"/>
	<polyline fill="none" stroke="rgb(255,0,255)" stroke-opacity="1" points="16.8333,205.889 112.389,205.889 112.389,349.222 274.833,349.222"/>
	<polyline fill="none" stroke="rgb(255,255,255)" stroke-width="2.99" stroke-opacity="1" points="332.167,349.222 494.611,349.222 494.611,205.889 590.167,205.889"/>
	<polyline fill="none" stroke="rgb(255,0,255)" stroke-opacity="1" points="332.167,349.222 494.611,349.222 494.611,205.889 590.167,205.889"/>
	<polyline fill="none" stroke="rgb(255,255,255)" stroke-width="2.99" stroke-opacity="1" points="303.5,88.8333 303.5,158.111 327.389,158.111"/>
	<polyline fill="none" stroke="rgb(255,0,255)" stroke-opacity="1" points="303.5,88.8333 303.5,158.111 327.389,158.111"/>
	<polyline fill="none" stroke="rgb(255,255,255)" stroke-width="2.99" stroke-opacity="1" points="384.722,158.111 418.167,158.111"/>
	<polyline fill="none" stroke="rgb(255,0,255)" stroke-opacity="1" points="384.722,158.111 418.167,158.111"/>
	<polyline fill="none" stroke="rgb(255,255,255)" stroke-width="2.99" stroke-opacity="1" points="16.8333,205.889 231.833,205.889 231.833,253.667 274.833,253.667"/>
	<polyline fill="none" stroke="rgb(255,0,255)" stroke-opacity="1" points="16.8333,205.889 231.833,205.889 231.833,253.667 274.833,253.667"/>
	<polyline fill="none" stroke="rgb(255,255,255)" stroke-width="2.99" stroke-opacity="1" points="332.167,253.667 399.056,253.667 399.056,177.222 418.167,177.222"/>
	<polyline fill="none" stroke="rgb(255,0,255)" stroke-opacity="1" points="332.167,253.667 399.056,253.667 399.056,177.222 418.167,177.222"/>
	<polyline fill="none" stroke="rgb(255,255,255)" stroke-width="2.99" stroke-opacity="1" points="475.5,158.111 494.611,158.111 494.611,91.2222"/>
	<polyline fill="none" stroke="rgb(255,0,255)" stroke-opacity="1" points="475.5,158.111 494.611,158.111 494.611,91.2222"/>
	<polyline fill="none" stroke="rgb(255,255,255)" stroke-width="2.99" stroke-opacity="1" points="303.5,88.8333 303.5,205.889 590.167,205.889"/>
	<polyline fill="none" stroke="rgb(255,0,255)" stroke-opacity="1" points="303.5,88.8333 303.5,205.889 590.167,205.889"/>
	<ellipse fill="rgb(255,0,255)" stroke="rgb(255,0,255)" cx="112.389" cy="205.889" rx="3" ry="3"/>
	<ellipse fill="rgb(255,0,255)" stroke="rgb(255,0,255)" cx="231.833" cy="205.889" rx="3" ry="3"/>
	<ellipse fill="rgb(255,0,255)" stroke="rgb(255,0,255)" cx="112.389" cy="205.889" rx="3" ry="3"/>
	<ellipse fill="rgb(255,0,255)" stroke="rgb(255,0,255)" cx="303.5" cy="158.111" rx="3" ry="3"/>
	<ellipse fill="rgb(255,0,255)" stroke="rgb(255,0,255)" cx="494.611" cy="205.889" rx="3" ry="3"/>
	<polygon fill="rgb(255,0,255)" stroke="rgb(255,0,255)" stroke-opacity="1" points="16.8333,182 64.6111,205.889 16.8333,229.778 16.8333,182"/>
	<text fill="rgb(255,0,255)" font-size="10" font-family="helvetica" text-anchor="middle" dominant-baseline="central" x="12.0556" y="171.25">u</text>
	<polygon fill="rgb(255,255,255)" stroke="rgb(255,0,255)" stroke-opacity="1" points="542.389,182 590.167,205.889 542.389,229.778 542.389,182"/>
	<text fill="rgb(255,0,255)" font-size="22" font-family="helvetica" text-anchor="middle" dominant-baseline="central" x="604.5" y="165.278">y</text>
	<polygon fill="black" stroke="rgb(0,0,0)" stroke-opacity="1" points="107.611,64.9444 112.389,62.5556 107.611,60.1667 107.611,64.9444"/>
	<rect fill="rgb(255,255,255)" stroke="rgb(0,0,0)" stroke-opacity="1" x="160.167" y="61.3611" width="2.38889" height="2.38889"/>
	<polygon fill="black" stroke="rgb(0,0,0)" stroke-opacity="1" points="274.833,64.9444 279.611,62.5556 274.833,60.1667 274.833,64.9444"/>
	<rect fill="rgb(255,255,255)" stroke="rgb(0,0,0)" stroke-opacity="1" x="327.389" y="61.3611" width="2.38889" height="2.38889"/>
	<polygon fill="rgb(255,255,255)" stroke="rgb(255,0,255)" stroke-opacity="1" points="305.889,86.4444 303.5,91.2222 301.111,86.4444 305.889,86.4444"/>
	<polygon fill="black" stroke="rgb(0,0,0)" stroke-opacity="1" points="219.889,60.1667 224.667,62.5556 219.889,64.9444 219.889,60.1667"/>
	<rect fill="rgb(255,255,255)" stroke="rgb(0,0,0)" stroke-opacity="1" transform="translate(235.417, 62.5556) translate(0, 0) scale(1,-1)" x="-1.19444" y="-1.19444" width="2.38889" height="2.38889"/>
	<polygon fill="rgb(255,0,255)" stroke="rgb(255,0,255)" stroke-opacity="1" points="227.056,96 231.833,86.4444 236.611,96 227.056,96"/>
	<polygon fill="black" stroke="rgb(0,0,0)" stroke-opacity="1" points="482.667,60.1667 487.444,62.5556 482.667,64.9444 482.667,60.1667"/>
	<rect fill="rgb(255,255,255)" stroke="rgb(0,0,0)" stroke-opacity="1" transform="translate(498.194, 62.5556) translate(0, 0) scale(1,-1)" x="-1.19444" y="-1.19444" width="2.38889" height="2.38889"/>
	<polygon fill="rgb(255,0,255)" stroke="rgb(255,0,255)" stroke-opacity="1" points="489.833,96 494.611,86.4444 499.389,96 489.833,96"/>
	<polygon fill="rgb(255,0,255)" stroke="rgb(255,0,255)" stroke-opacity="1" points="274.833,346.833 279.611,349.222 274.833,351.611 274.833,346.833"/>
	<polygon fill="rgb(255,255,255)" stroke="rgb(255,0,255)" stroke-opacity="1" points="327.389,346.833 332.167,349.222 327.389,351.611 327.389,346.833"/>
	<polygon fill="rgb(255,0,255)" stroke="rgb(255,0,255)" stroke-opacity="1" points="327.389,155.722 332.167,158.111 327.389,160.5 327.389,155.722"/>
	<polygon fill="rgb(255,255,255)" stroke="rgb(255,0,255)" stroke-opacity="1" points="379.944,155.722 384.722,158.111 379.944,160.5 379.944,155.722"/>
	<polygon fill="rgb(255,0,255)" stroke="rgb(255,0,255)" stroke-opacity="1" points="418.167,155.722 422.944,158.111 418.167,160.5 418.167,155.722"/>
	<polygon fill="rgb(255,0,255)" stroke="rgb(255,0,255)" stroke-opacity="1" points="418.167,174.833 422.944,177.222 418.167,179.611 418.167,174.833"/>
	<polygon fill="rgb(255,255,255)" stroke="rgb(255,0,255)" stroke-opacity="1" points="470.722,155.722 475.5,158.111 470.722,160.5 470.722,155.722"/>
	<polygon fill="rgb(255,0,255)" stroke="rgb(255,0,255)" stroke-opacity="1" points="274.833,251.278 279.611,253.667 274.833,256.056 274.833,251.278"/>
	<polygon fill="rgb(255,255,255)" stroke="rgb(255,0,255)" stroke-opacity="1" points="327.389,251.278 332.167,253.667 327.389,256.056 327.389,251.278"/>
</svg>
