<?xml version="1.0" standalone="no"?>
<!DOCTYPE svg PUBLIC "-//W3C//DTD SVG 1.1//EN" "http://www.w3.org/Graphics/SVG/1.1/DTD/svg11.dtd">
<svg viewBox="0 0 400 203" version="1.1" xmlns="http://www.w3.org/2000/svg" xmlns:xlink="http://www.w3.org/1999/xlink">
	<polyline fill="none" stroke="rgb(240,240,240)" stroke-width="0.5" stroke-opacity="1" points="57,19 57,174"/>
	<polyline fill="none" stroke="rgb(240,240,240)" stroke-width="0.5" stroke-opacity="1" points="96.25,19 96.25,174"/>
	<polyline fill="none" stroke="rgb(240,240,240)" stroke-width="0.5" stroke-opacity="1" points="135.5,19 135.5,174"/>
	<polyline fill="none" stroke="rgb(240,240,240)" stroke-width="0.5" stroke-opacity="1" points="174.75,19 174.75,174"/>
	<polyline fill="none" stroke="rgb(240,240,240)" stroke-width="0.5" stroke-opacity="1" points="214,19 214,174"/>
	<polyline fill="none" stroke="rgb(240,240,240)" stroke-width="0.5" stroke-opacity="1" points="253.25,19 253.25,174"/>
	<polyline fill="none" stroke="rgb(240,240,240)" stroke-width="0.5" stroke-opacity="1" points="292.5,19 292.5,174"/>
	<polyline fill="none" stroke="rgb(240,240,240)" stroke-width="0.5" stroke-opacity="1" points="331.75,19 331.75,174"/>
	<polyline fill="none" stroke="rgb(240,240,240)" stroke-width="0.5" stroke-opacity="1" points="371,19 371,174"/>
	<rect fill="rgb(240,240,240)" stroke="rgb(240,240,240)" stroke-width="0.5" stroke-opacity="1" x="57" y="38.375" width="314" height="48.4375"/>
	<rect fill="rgb(240,240,240)" stroke="rgb(240,240,240)" stroke-width="0.5" stroke-opacity="1" x="57" y="106.188" width="314" height="48.4375"/>
	<polyline fill="none" stroke="rgb(0,0,0)" stroke-width="0.5" stroke-opacity="1" points="57,174 371,174"/>
	<polyline fill="none" stroke="rgb(0,0,0)" stroke-width="0.5" stroke-opacity="1" points="371,174 371,19"/>
	<polyline fill="none" stroke="rgb(0,0,0)" stroke-width="0.5" stroke-opacity="1" points="371,19 57,19"/>
	<polyline fill="none" stroke="rgb(0,0,0)" stroke-width="0.5" stroke-opacity="1" points="57,19 57,174"/>
	<polyline fill="none" stroke="rgb(0,0,0)" stroke-width="0.5" stroke-opacity="1" points="57,174 57,178"/>
	<polyline fill="none" stroke="rgb(0,0,0)" stroke-width="0.5" stroke-opacity="1" points="96.25,174 96.25,178"/>
	<polyline fill="none" stroke="rgb(0,0,0)" stroke-width="0.5" stroke-opacity="1" points="135.5,174 135.5,178"/>
	<polyline fill="none" stroke="rgb(0,0,0)" stroke-width="0.5" stroke-opacity="1" points="174.75,174 174.75,178"/>
	<polyline fill="none" stroke="rgb(0,0,0)" stroke-width="0.5" stroke-opacity="1" points="214,174 214,178"/>
	<polyline fill="none" stroke="rgb(0,0,0)" stroke-width="0.5" stroke-opacity="1" points="253.25,174 253.25,178"/>
	<polyline fill="none" stroke="rgb(0,0,0)" stroke-width="0.5" stroke-opacity="1" points="292.5,174 292.5,178"/>
	<polyline fill="none" stroke="rgb(0,0,0)" stroke-width="0.5" stroke-opacity="1" points="331.75,174 331.75,178"/>
	<polyline fill="none" stroke="rgb(0,0,0)" stroke-width="0.5" stroke-opacity="1" points="371,174 371,178"/>
	<polyline fill="none" stroke="rgb(0,0,0)" stroke-width="0.5" stroke-opacity="1" points="57,174 57,180.4"/>
	<text fill="rgb(0,0,0)" font-size="11" font-family="helvetica" text-anchor="middle" dominant-baseline="central" x="57" y="190">0.0E0</text>
	<polyline fill="none" stroke="rgb(0,0,0)" stroke-width="0.5" stroke-opacity="1" points="135.5,174 135.5,180.4"/>
	<text fill="rgb(0,0,0)" font-size="11" font-family="helvetica" text-anchor="middle" dominant-baseline="central" x="135.5" y="190">4.0E3</text>
	<polyline fill="none" stroke="rgb(0,0,0)" stroke-width="0.5" stroke-opacity="1" points="214,174 214,180.4"/>
	<text fill="rgb(0,0,0)" font-size="11" font-family="helvetica" text-anchor="middle" dominant-baseline="central" x="214" y="190">8.0E3</text>
	<polyline fill="none" stroke="rgb(0,0,0)" stroke-width="0.5" stroke-opacity="1" points="292.5,174 292.5,180.4"/>
	<text fill="rgb(0,0,0)" font-size="11" font-family="helvetica" text-anchor="middle" dominant-baseline="central" x="292.5" y="190">1.2E4</text>
	<polyline fill="none" stroke="rgb(0,0,0)" stroke-width="0.5" stroke-opacity="1" points="371,174 371,180.4"/>
	<text fill="rgb(0,0,0)" font-size="11" font-family="helvetica" text-anchor="middle" dominant-baseline="central" x="371" y="190">1.6E4</text>
	<polyline fill="none" stroke="rgb(0,0,0)" stroke-width="0.5" stroke-opacity="1" points="53,86.8125 57,86.8125"/>
	<text fill="rgb(0,0,0)" font-size="11" font-family="helvetica" text-anchor="end" dominant-baseline="central" x="49" y="86.8125">false</text>
	<polyline fill="none" stroke="rgb(0,0,0)" stroke-width="0.5" stroke-opacity="1" points="53,38.375 57,38.375"/>
	<text fill="rgb(0,0,0)" font-size="11" font-family="helvetica" text-anchor="end" dominant-baseline="central" x="49" y="38.375">true</text>
	<polyline fill="none" stroke="rgb(0,0,0)" stroke-width="0.5" stroke-opacity="1" points="53,154.625 57,154.625"/>
	<text fill="rgb(0,0,0)" font-size="11" font-family="helvetica" text-anchor="end" dominant-baseline="central" x="49" y="154.625">false</text>
	<polyline fill="none" stroke="rgb(0,0,0)" stroke-width="0.5" stroke-opacity="1" points="53,106.188 57,106.188"/>
	<text fill="rgb(0,0,0)" font-size="11" font-family="helvetica" text-anchor="end" dominant-baseline="central" x="49" y="106.188">true</text>
	<clipPath id="clipArea1">
		<rect x="57" y="19" width="315" height="155">
		</rect>
	</clipPath>
	<polyline fill="none" stroke="rgb(28,108,200)" stroke-width="1" stroke-opacity="1" clip-path="url(#clipArea1)" points="57,38.375 57.5887,38.375 58.1775,38.375 58.7662,38.375 59.355,38.375 59.9438,38.375 60.5325,38.375 61.1213,38.375 61.71,38.375 62.2987,38.375 62.8875,38.375 62.8875,86.8125 63.4763,86.8125 64.065,86.8125 64.6538,86.8125 65.2425,86.8125 65.8312,86.8125 66.42,86.8125 67.0088,86.8125 67.5975,86.8125 68.1863,86.8125 68.775,86.8125 68.775,86.8125 69.3637,86.8125 69.9525,86.8125 70.5413,86.8125 71.13,86.8125 71.7188,86.8125 72.3075,86.8125 72.8962,86.8125 73.485,86.8125 74.0738,86.8125 74.6625,86.8125 75.2512,86.8125 75.84,86.8125 76.4288,86.8125 77.0175,86.8125 77.6063,86.8125 78.195,86.8125 78.7837,86.8125 79.3725,86.8125 79.9613,86.8125 80.55,86.8125 81.1388,86.8125 81.7275,86.8125 82.3162,86.8125 82.905,86.8125 83.4938,86.8125 84.0825,86.8125 84.6713,86.8125 85.26,86.8125 85.8487,86.8125 86.4375,86.8125 87.0263,86.8125 87.615,86.8125 88.2037,86.8125 88.7925,86.8125 89.3812,86.8125 89.97,86.8125 90.5588,86.8125 91.1475,86.8125 91.7362,86.8125 92.325,86.8125 92.325,86.8125 92.9137,86.8125 93.5025,86.8125 94.0913,86.8125 94.68,86.8125 95.2687,86.8125 95.8575,86.8125 96.4462,86.8125 97.035,86.8125 97.6238,86.8125 98.2125,86.8125 98.8013,86.8125 99.39,86.8125 99.9787,86.8125 100.567,86.8125 101.156,86.8125 101.745,86.8125 102.334,86.8125 102.922,86.8125 103.511,86.8125 104.1,86.8125 104.1,86.8125 104.689,86.8125 105.278,86.8125 105.866,86.8125 106.455,86.8125 107.044,86.8125 107.632,86.8125 108.221,86.8125 108.81,86.8125 109.399,86.8125 109.987,86.8125 110.576,86.8125 111.165,86.8125 111.754,86.8125 112.343,86.8125 112.931,86.8125 113.52,86.8125 114.109,86.8125 114.697,86.8125 115.286,86.8125 115.875,86.8125 116.464,86.8125 117.053,86.8125 117.641,86.8125 118.23,86.8125 118.819,86.8125 119.407,86.8125 119.996,86.8125 120.585,86.8125 121.174,86.8125 121.763,86.8125 122.351,86.8125 122.94,86.8125 123.529,86.8125 124.118,86.8125 124.706,86.8125 125.295,86.8125 125.884,86.8125 126.472,86.8125 127.061,86.8125 127.65,86.8125 127.65,86.8125 128.239,86.8125 128.827,86.8125 129.416,86.8125 130.005,86.8125 130.594,86.8125 131.183,86.8125 131.771,86.8125 132.36,86.8125 132.949,86.8125 133.537,86.8125 133.537,86.8125 134.126,86.8125 134.715,86.8125 135.304,86.8125 135.892,86.8125 136.481,86.8125 137.07,86.8125 137.659,86.8125 138.248,86.8125 138.836,86.8125 139.425,86.8125 139.425,86.8125 140.014,86.8125 140.603,86.8125 141.191,86.8125 141.78,86.8125 142.369,86.8125 142.957,86.8125 143.546,86.8125 144.135,86.8125 144.724,86.8125 145.312,86.8125 145.901,86.8125 146.49,86.8125 147.079,86.8125 147.668,86.8125 148.256,86.8125 148.845,86.8125 149.434,86.8125 150.022,86.8125 150.611,86.8125 151.2,86.8125 151.2,38.375 151.789,38.375 152.377,38.375 152.966,38.375 153.555,38.375 154.144,38.375 154.733,38.375 155.321,38.375 155.91,38.375 156.499,38.375 157.088,38.375 157.676,38.375 158.265,38.375 158.854,38.375 159.442,38.375 160.031,38.375 160.62,38.375 161.209,38.375 161.798,38.375 162.386,38.375 162.975,38.375 162.975,38.375 163.564,38.375 164.153,38.375 164.741,38.375 165.33,38.375 165.919,38.375 166.507,38.375 167.096,38.375 167.685,38.375 168.274,38.375 168.863,38.375 169.451,38.375 170.04,38.375 170.629,38.375 171.218,38.375 171.806,38.375 172.395,38.375 172.984,38.375 173.572,38.375 174.161,38.375 174.75,38.375 174.75,38.375 175.339,38.375 175.928,38.375 176.516,38.375 177.105,38.375 177.694,38.375 178.282,38.375 178.871,38.375 179.46,38.375 180.049,38.375 180.637,38.375 181.226,38.375 181.815,38.375 182.404,38.375 182.993,38.375 183.581,38.375 184.17,38.375 184.759,38.375 185.347,38.375 185.936,38.375 186.525,38.375 187.114,38.375 187.702,38.375 188.291,38.375 188.88,38.375 189.469,38.375 190.058,38.375 190.646,38.375 191.235,38.375 191.824,38.375 192.412,38.375 193.001,38.375 193.59,38.375 194.179,38.375 194.768,38.375 195.356,38.375 195.945,38.375 196.534,38.375 197.123,38.375 197.711,38.375 198.3,38.375 198.3,38.375 198.889,38.375 199.477,38.375 200.066,38.375 200.655,38.375 201.244,38.375 201.833,38.375 202.421,38.375 203.01,38.375 203.599,38.375 204.188,38.375 204.776,38.375 205.365,38.375 205.954,38.375 206.542,38.375 207.131,38.375 207.72,38.375 208.309,38.375 208.898,38.375 209.486,38.375 210.075,38.375 210.075,38.375 210.664,38.375 211.252,38.375 211.841,38.375 212.43,38.375 213.019,38.375 213.607,38.375 214.196,38.375 214.785,38.375 215.374,38.375 215.963,38.375 216.551,38.375 217.14,38.375 217.729,38.375 218.317,38.375 218.906,38.375 219.495,38.375 220.084,38.375 220.673,38.375 221.261,38.375 221.85,38.375 221.85,38.375 222.439,38.375 223.028,38.375 223.616,38.375 224.205,38.375 224.794,38.375 225.382,38.375 225.971,38.375 226.56,38.375 227.149,38.375 227.738,38.375 228.326,38.375 228.915,38.375 229.504,38.375 230.093,38.375 230.681,38.375 231.27,38.375 231.859,38.375 232.447,38.375 233.036,38.375 233.625,38.375 233.625,38.375 234.214,38.375 234.803,38.375 235.391,38.375 235.98,38.375 236.569,38.375 237.157,38.375 237.746,38.375 238.335,38.375 238.924,38.375 239.512,38.375 239.512,86.8125 240.101,86.8125 240.69,86.8125 241.279,86.8125 241.868,86.8125 242.456,86.8125 243.045,86.8125 243.634,86.8125 244.222,86.8125 244.811,86.8125 245.4,86.8125 245.4,86.8125 245.989,86.8125 246.578,86.8125 247.166,86.8125 247.755,86.8125 248.344,86.8125 248.933,86.8125 249.521,86.8125 250.11,86.8125 250.699,86.8125 251.287,86.8125 251.876,86.8125 252.465,86.8125 253.054,86.8125 253.643,86.8125 254.231,86.8125 254.82,86.8125 255.409,86.8125 255.998,86.8125 256.586,86.8125 257.175,86.8125 257.764,86.8125 258.352,86.8125 258.941,86.8125 259.53,86.8125 260.119,86.8125 260.707,86.8125 261.296,86.8125 261.885,86.8125 262.474,86.8125 263.062,86.8125 263.651,86.8125 264.24,86.8125 264.829,86.8125 265.418,86.8125 266.006,86.8125 266.595,86.8125 267.184,86.8125 267.773,86.8125 268.361,86.8125 268.95,86.8125 268.95,86.8125 269.539,86.8125 270.127,86.8125 270.716,86.8125 271.305,86.8125 271.894,86.8125 272.482,86.8125 273.071,86.8125 273.66,86.8125 274.249,86.8125 274.837,86.8125 275.426,86.8125 276.015,86.8125 276.604,86.8125 277.192,86.8125 277.781,86.8125 278.37,86.8125 278.959,86.8125 279.548,86.8125 280.136,86.8125 280.725,86.8125 280.725,86.8125 281.314,86.8125 281.903,86.8125 282.491,86.8125 283.08,86.8125 283.669,86.8125 284.257,86.8125 284.846,86.8125 285.435,86.8125 286.024,86.8125 286.613,86.8125 287.201,86.8125 287.79,86.8125 288.379,86.8125 288.967,86.8125 289.556,86.8125 290.145,86.8125 290.734,86.8125 291.322,86.8125 291.911,86.8125 292.5,86.8125 293.089,86.8125 293.678,86.8125 294.266,86.8125 294.855,86.8125 295.444,86.8125 296.033,86.8125 296.621,86.8125 297.21,86.8125 297.799,86.8125 298.387,86.8125 298.976,86.8125 299.565,86.8125 300.154,86.8125 300.743,86.8125 301.331,86.8125 301.92,86.8125 302.509,86.8125 303.097,86.8125 303.686,86.8125 304.275,86.8125 304.275,86.8125 304.864,86.8125 305.452,86.8125 306.041,86.8125 306.63,86.8125 307.219,86.8125 307.808,86.8125 308.396,86.8125 308.985,86.8125 309.574,86.8125 310.163,86.8125 310.163,86.8125 310.751,86.8125 311.34,86.8125 311.929,86.8125 312.518,86.8125 313.106,86.8125 313.695,86.8125 314.284,86.8125 314.873,86.8125 315.461,86.8125 316.05,86.8125 316.05,86.8125 316.639,86.8125 317.228,86.8125 317.816,86.8125 318.405,86.8125 318.994,86.8125 319.582,86.8125 320.171,86.8125 320.76,86.8125 321.349,86.8125 321.938,86.8125 322.526,86.8125 323.115,86.8125 323.704,86.8125 324.293,86.8125 324.881,86.8125 325.47,86.8125 326.059,86.8125 326.647,86.8125 327.236,86.8125 327.825,86.8125 327.825,38.375 328.414,38.375 329.002,38.375 329.591,38.375 330.18,38.375 330.769,38.375 331.358,38.375 331.946,38.375 332.535,38.375 333.124,38.375 333.712,38.375 334.301,38.375 334.89,38.375 335.479,38.375 336.067,38.375 336.656,38.375 337.245,38.375 337.834,38.375 338.423,38.375 339.011,38.375 339.6,38.375 339.6,38.375 340.189,38.375 340.777,38.375 341.366,38.375 341.955,38.375 342.544,38.375 343.132,38.375 343.721,38.375 344.31,38.375 344.899,38.375 345.488,38.375 346.076,38.375 346.665,38.375 347.254,38.375 347.843,38.375 348.431,38.375 349.02,38.375 349.609,38.375 350.197,38.375 350.786,38.375 351.375,38.375 351.375,38.375"/>
	<polyline fill="none" stroke="rgb(28,108,200)" stroke-width="1" stroke-opacity="1" clip-path="url(#clipArea1)" points="57,106.188 57.5887,106.188 58.1775,106.188 58.7662,106.188 59.355,106.188 59.9438,106.188 60.5325,106.188 61.1213,106.188 61.71,106.188 62.2987,106.188 62.8875,106.188 62.8875,106.188 63.4763,106.188 64.065,106.188 64.6538,106.188 65.2425,106.188 65.8312,106.188 66.42,106.188 67.0088,106.188 67.5975,106.188 68.1863,106.188 68.775,106.188 68.775,106.188 69.3637,106.188 69.9525,106.188 70.5413,106.188 71.13,106.188 71.7188,106.188 72.3075,106.188 72.8962,106.188 73.485,106.188 74.0738,106.188 74.6625,106.188 75.2512,106.188 75.84,106.188 76.4288,106.188 77.0175,106.188 77.6063,106.188 78.195,106.188 78.7837,106.188 79.3725,106.188 79.9613,106.188 80.55,106.188 81.1388,106.188 81.7275,106.188 82.3162,106.188 82.905,106.188 83.4938,106.188 84.0825,106.188 84.6713,106.188 85.26,106.188 85.8487,106.188 86.4375,106.188 87.0263,106.188 87.615,106.188 88.2037,106.188 88.7925,106.188 89.3812,106.188 89.97,106.188 90.5588,106.188 91.1475,106.188 91.7362,106.188 92.325,106.188 92.325,106.188 92.9137,106.188 93.5025,106.188 94.0913,106.188 94.68,106.188 95.2687,106.188 95.8575,106.188 96.4462,106.188 97.035,106.188 97.6238,106.188 98.2125,106.188 98.8013,106.188 99.39,106.188 99.9787,106.188 100.567,106.188 101.156,106.188 101.745,106.188 102.334,106.188 102.922,106.188 103.511,106.188 104.1,106.188 104.1,106.188 104.689,106.188 105.278,106.188 105.866,106.188 106.455,106.188 107.044,106.188 107.632,106.188 108.221,106.188 108.81,106.188 109.399,106.188 109.987,106.188 110.576,106.188 111.165,106.188 111.754,106.188 112.343,106.188 112.931,106.188 113.52,106.188 114.109,106.188 114.697,106.188 115.286,106.188 115.875,106.188 116.464,106.188 117.053,106.188 117.641,106.188 118.23,106.188 118.819,106.188 119.407,106.188 119.996,106.188 120.585,106.188 121.174,106.188 121.763,106.188 122.351,106.188 122.94,106.188 123.529,106.188 124.118,106.188 124.706,106.188 125.295,106.188 125.884,106.188 126.472,106.188 127.061,106.188 127.65,106.188 127.65,154.625 128.239,154.625 128.827,154.625 129.416,154.625 130.005,154.625 130.594,154.625 131.183,154.625 131.771,154.625 132.36,154.625 132.949,154.625 133.537,154.625 133.537,154.625 134.126,154.625 134.715,154.625 135.304,154.625 135.892,154.625 136.481,154.625 137.07,154.625 137.659,154.625 138.248,154.625 138.836,154.625 139.425,154.625 139.425,154.625 140.014,154.625 140.603,154.625 141.191,154.625 141.78,154.625 142.369,154.625 142.957,154.625 143.546,154.625 144.135,154.625 144.724,154.625 145.312,154.625 145.901,154.625 146.49,154.625 147.079,154.625 147.668,154.625 148.256,154.625 148.845,154.625 149.434,154.625 150.022,154.625 150.611,154.625 151.2,154.625 151.2,106.188 151.789,106.188 152.377,106.188 152.966,106.188 153.555,106.188 154.144,106.188 154.733,106.188 155.321,106.188 155.91,106.188 156.499,106.188 157.088,106.188 157.676,106.188 158.265,106.188 158.854,106.188 159.442,106.188 160.031,106.188 160.62,106.188 161.209,106.188 161.798,106.188 162.386,106.188 162.975,106.188 162.975,106.188 163.564,106.188 164.153,106.188 164.741,106.188 165.33,106.188 165.919,106.188 166.507,106.188 167.096,106.188 167.685,106.188 168.274,106.188 168.863,106.188 169.451,106.188 170.04,106.188 170.629,106.188 171.218,106.188 171.806,106.188 172.395,106.188 172.984,106.188 173.572,106.188 174.161,106.188 174.75,106.188 174.75,106.188 175.339,106.188 175.928,106.188 176.516,106.188 177.105,106.188 177.694,106.188 178.282,106.188 178.871,106.188 179.46,106.188 180.049,106.188 180.637,106.188 181.226,106.188 181.815,106.188 182.404,106.188 182.993,106.188 183.581,106.188 184.17,106.188 184.759,106.188 185.347,106.188 185.936,106.188 186.525,106.188 187.114,106.188 187.702,106.188 188.291,106.188 188.88,106.188 189.469,106.188 190.058,106.188 190.646,106.188 191.235,106.188 191.824,106.188 192.412,106.188 193.001,106.188 193.59,106.188 194.179,106.188 194.768,106.188 195.356,106.188 195.945,106.188 196.534,106.188 197.123,106.188 197.711,106.188 198.3,106.188 198.3,106.188 198.889,106.188 199.477,106.188 200.066,106.188 200.655,106.188 201.244,106.188 201.833,106.188 202.421,106.188 203.01,106.188 203.599,106.188 204.188,106.188 204.776,106.188 205.365,106.188 205.954,106.188 206.542,106.188 207.131,106.188 207.72,106.188 208.309,106.188 208.898,106.188 209.486,106.188 210.075,106.188 210.075,106.188 210.664,106.188 211.252,106.188 211.841,106.188 212.43,106.188 213.019,106.188 213.607,106.188 214.196,106.188 214.785,106.188 215.374,106.188 215.963,106.188 216.551,106.188 217.14,106.188 217.729,106.188 218.317,106.188 218.906,106.188 219.495,106.188 220.084,106.188 220.673,106.188 221.261,106.188 221.85,106.188 221.85,106.188 222.439,106.188 223.028,106.188 223.616,106.188 224.205,106.188 224.794,106.188 225.382,106.188 225.971,106.188 226.56,106.188 227.149,106.188 227.738,106.188 228.326,106.188 228.915,106.188 229.504,106.188 230.093,106.188 230.681,106.188 231.27,106.188 231.859,106.188 232.447,106.188 233.036,106.188 233.625,106.188 233.625,106.188 234.214,106.188 234.803,106.188 235.391,106.188 235.98,106.188 236.569,106.188 237.157,106.188 237.746,106.188 238.335,106.188 238.924,106.188 239.512,106.188 239.512,154.625 240.101,154.625 240.69,154.625 241.279,154.625 241.868,154.625 242.456,154.625 243.045,154.625 243.634,154.625 244.222,154.625 244.811,154.625 245.4,154.625 245.4,154.625 245.989,154.625 246.578,154.625 247.166,154.625 247.755,154.625 248.344,154.625 248.933,154.625 249.521,154.625 250.11,154.625 250.699,154.625 251.287,154.625 251.876,154.625 252.465,154.625 253.054,154.625 253.643,154.625 254.231,154.625 254.82,154.625 255.409,154.625 255.998,154.625 256.586,154.625 257.175,154.625 257.764,154.625 258.352,154.625 258.941,154.625 259.53,154.625 260.119,154.625 260.707,154.625 261.296,154.625 261.885,154.625 262.474,154.625 263.062,154.625 263.651,154.625 264.24,154.625 264.829,154.625 265.418,154.625 266.006,154.625 266.595,154.625 267.184,154.625 267.773,154.625 268.361,154.625 268.95,154.625 268.95,154.625 269.539,154.625 270.127,154.625 270.716,154.625 271.305,154.625 271.894,154.625 272.482,154.625 273.071,154.625 273.66,154.625 274.249,154.625 274.837,154.625 275.426,154.625 276.015,154.625 276.604,154.625 277.192,154.625 277.781,154.625 278.37,154.625 278.959,154.625 279.548,154.625 280.136,154.625 280.725,154.625 280.725,154.625 281.314,154.625 281.903,154.625 282.491,154.625 283.08,154.625 283.669,154.625 284.257,154.625 284.846,154.625 285.435,154.625 286.024,154.625 286.613,154.625 287.201,154.625 287.79,154.625 288.379,154.625 288.967,154.625 289.556,154.625 290.145,154.625 290.734,154.625 291.322,154.625 291.911,154.625 292.5,154.625 293.089,154.625 293.678,154.625 294.266,154.625 294.855,154.625 295.444,154.625 296.033,154.625 296.621,154.625 297.21,154.625 297.799,154.625 298.387,154.625 298.976,154.625 299.565,154.625 300.154,154.625 300.743,154.625 301.331,154.625 301.92,154.625 302.509,154.625 303.097,154.625 303.686,154.625 304.275,154.625 304.275,154.625 304.864,154.625 305.452,154.625 306.041,154.625 306.63,154.625 307.219,154.625 307.808,154.625 308.396,154.625 308.985,154.625 309.574,154.625 310.163,154.625 310.163,154.625 310.751,154.625 311.34,154.625 311.929,154.625 312.518,154.625 313.106,154.625 313.695,154.625 314.284,154.625 314.873,154.625 315.461,154.625 316.05,154.625 316.05,154.625 316.639,154.625 317.228,154.625 317.816,154.625 318.405,154.625 318.994,154.625 319.582,154.625 320.171,154.625 320.76,154.625 321.349,154.625 321.938,154.625 322.526,154.625 323.115,154.625 323.704,154.625 324.293,154.625 324.881,154.625 325.47,154.625 326.059,154.625 326.647,154.625 327.236,154.625 327.825,154.625 327.825,106.188 328.414,106.188 329.002,106.188 329.591,106.188 330.18,106.188 330.769,106.188 331.358,106.188 331.946,106.188 332.535,106.188 333.124,106.188 333.712,106.188 334.301,106.188 334.89,106.188 335.479,106.188 336.067,106.188 336.656,106.188 337.245,106.188 337.834,106.188 338.423,106.188 339.011,106.188 339.6,106.188 339.6,106.188 340.189,106.188 340.777,106.188 341.366,106.188 341.955,106.188 342.544,106.188 343.132,106.188 343.721,106.188 344.31,106.188 344.899,106.188 345.488,106.188 346.076,106.188 346.665,106.188 347.254,106.188 347.843,106.188 348.431,106.188 349.02,106.188 349.609,106.188 350.197,106.188 350.786,106.188 351.375,106.188 351.375,106.188"/>
	<text fill="rgb(0,0,0)" font-size="11" font-family="helvetica" text-anchor="start" dominant-baseline="central" x="58" y="27">truHol2.u</text>
	<text fill="rgb(0,0,0)" font-size="11" font-family="helvetica" text-anchor="start" dominant-baseline="central" x="58" y="95">truHol2.y</text>
</svg>
