<?xml version="1.0" encoding="UTF-8" standalone="no"?>
<svg
   xmlns:dc="http://purl.org/dc/elements/1.1/"
   xmlns:cc="http://creativecommons.org/ns#"
   xmlns:rdf="http://www.w3.org/1999/02/22-rdf-syntax-ns#"
   xmlns:svg="http://www.w3.org/2000/svg"
   xmlns="http://www.w3.org/2000/svg"
   xmlns:sodipodi="http://sodipodi.sourceforge.net/DTD/sodipodi-0.dtd"
   xmlns:inkscape="http://www.inkscape.org/namespaces/inkscape"
   viewBox="0 0 1774.0076 938.72797"
   version="1.1"
   id="svg1263"
   sodipodi:docname="TrueFalseHoldImplementation-1.svg"
   width="1774.0076"
   height="938.72797"
   inkscape:export-filename="/home/jianjun/GitFolder/modelica-buildings/Buildings/Resources/Images/Controls/OBC/CDL/Logical/TrueFalseHoldImplementation-1.png"
   inkscape:export-xdpi="84.554703"
   inkscape:export-ydpi="84.554703"
   inkscape:version="1.0.1 (3bc2e813f5, 2020-09-07)">
  <metadata
     id="metadata1269">
    <rdf:RDF>
      <cc:Work
         rdf:about="">
        <dc:format>image/svg+xml</dc:format>
        <dc:type
           rdf:resource="http://purl.org/dc/dcmitype/StillImage" />
        <dc:title></dc:title>
      </cc:Work>
    </rdf:RDF>
  </metadata>
  <defs
     id="defs1267" />
  <sodipodi:namedview
     pagecolor="#ffffff"
     bordercolor="#666666"
     borderopacity="1"
     objecttolerance="10"
     gridtolerance="10"
     guidetolerance="10"
     inkscape:pageopacity="0"
     inkscape:pageshadow="2"
     inkscape:window-width="3381"
     inkscape:window-height="1897"
     id="namedview1265"
     showgrid="false"
     fit-margin-top="0"
     fit-margin-left="0"
     fit-margin-right="0"
     fit-margin-bottom="0"
     inkscape:zoom="1.410596"
     inkscape:cx="874.81541"
     inkscape:cy="528.45871"
     inkscape:window-x="51"
     inkscape:window-y="27"
     inkscape:window-maximized="1"
     inkscape:current-layer="svg1263" />
  <rect
     fill="#d2d2d2"
     stroke="#000000"
     stroke-opacity="1"
     transform="scale(1,-1)"
     x="466.85342"
     y="-755.1897"
     width="91"
     height="91"
     id="rect851" />
  <rect
     fill="#aca899"
     stroke="none"
     x="465.43542"
     y="662.77069"
     width="1.61067"
     height="92.226097"
     id="rect853" />
  <rect
     fill="#aca899"
     stroke="none"
     x="465.43542"
     y="754.9967"
     width="92.226097"
     height="1.61067"
     id="rect855" />
  <rect
     fill="#aca899"
     stroke="none"
     x="557.66144"
     y="664.38165"
     width="1.61067"
     height="92.226097"
     id="rect857" />
  <rect
     fill="#aca899"
     stroke="none"
     x="467.04645"
     y="662.77069"
     width="92.226097"
     height="1.61067"
     id="rect859" />
  <rect
     fill="#ffffff"
     stroke="none"
     x="467.04645"
     y="664.38165"
     width="2.4159999"
     height="90.615402"
     id="rect861" />
  <rect
     fill="#ffffff"
     stroke="none"
     x="467.04645"
     y="664.38165"
     width="90.615402"
     height="2.4159999"
     id="rect863" />
  <rect
     fill="#716f64"
     stroke="none"
     x="556.05042"
     y="664.38165"
     width="1.61067"
     height="90.615402"
     id="rect865" />
  <rect
     fill="#716f64"
     stroke="none"
     x="467.04645"
     y="753.38666"
     width="90.615402"
     height="1.61067"
     id="rect867" />
  <rect
     fill="#aca899"
     stroke="none"
     x="554.44043"
     y="665.99268"
     width="1.61067"
     height="87.394096"
     id="rect869" />
  <rect
     fill="#aca899"
     stroke="none"
     x="468.65643"
     y="751.7757"
     width="87.394096"
     height="1.61067"
     id="rect871" />
  <text
     fill="#000000"
     font-size="14px"
     font-family="helvetica"
     text-anchor="middle"
     dominant-baseline="central"
     x="512.35345"
     y="770.85468"
     id="text873">falseHoldDuration</text>
  <polyline
     fill="none"
     stroke="#000000"
     stroke-opacity="1"
     points="535.292308,815.133846 544.353846,815.133846 544.353846,795.198462 588.755385,795.198462 588.755385,815.133846 601.441538,815.133846"
     id="polyline875"
     transform="translate(-59.184586,-75.541293)" />
  <polyline
     fill="none"
     stroke="#ff00ff"
     stroke-opacity="1"
     points="535.292308,770.732308 569.726154,770.732308 569.726154,750.796923 588.755385,750.796923 588.755385,770.732308 601.441538,770.732308"
     id="polyline877"
     transform="translate(-59.184586,-75.541293)" />
  <circle
     fill="#ebebeb"
     stroke="#ebebeb"
     stroke-opacity="1"
     cx="477.01343"
     cy="709.6897"
     id="ellipse879"
     r="3.17154" />
  <circle
     fill="#ebebeb"
     stroke="#ebebeb"
     stroke-opacity="1"
     cx="547.69342"
     cy="709.6897"
     id="ellipse881"
     r="3.17154" />
  <text
     fill="#0000ff"
     font-size="18px"
     font-family="helvetica"
     text-anchor="middle"
     dominant-baseline="central"
     x="512.35345"
     y="650.78967"
     id="text883">onDel1</text>
  <rect
     fill="#d2d2d2"
     stroke="#000000"
     stroke-opacity="1"
     transform="scale(1,-1)"
     x="1010.5454"
     y="-891.11273"
     width="91"
     height="91"
     id="rect885" />
  <rect
     fill="#aca899"
     stroke="none"
     x="1009.1255"
     y="798.69366"
     width="1.61067"
     height="92.226097"
     id="rect887" />
  <rect
     fill="#aca899"
     stroke="none"
     x="1009.1255"
     y="890.92065"
     width="92.226097"
     height="1.61067"
     id="rect889" />
  <rect
     fill="#aca899"
     stroke="none"
     x="1101.3555"
     y="800.30469"
     width="1.61067"
     height="92.226097"
     id="rect891" />
  <rect
     fill="#aca899"
     stroke="none"
     x="1010.7355"
     y="798.69366"
     width="92.226097"
     height="1.61067"
     id="rect893" />
  <rect
     fill="#ffffff"
     stroke="none"
     x="1010.7355"
     y="800.30469"
     width="2.4159999"
     height="90.615402"
     id="rect895" />
  <rect
     fill="#ffffff"
     stroke="none"
     x="1010.7355"
     y="800.30469"
     width="90.615402"
     height="2.4159999"
     id="rect897" />
  <rect
     fill="#716f64"
     stroke="none"
     x="1099.7455"
     y="800.30469"
     width="1.61067"
     height="90.615402"
     id="rect899" />
  <rect
     fill="#716f64"
     stroke="none"
     x="1010.7355"
     y="889.30969"
     width="90.615402"
     height="1.61067"
     id="rect901" />
  <rect
     fill="#aca899"
     stroke="none"
     x="1098.1354"
     y="801.91565"
     width="1.61067"
     height="87.394096"
     id="rect903" />
  <rect
     fill="#aca899"
     stroke="none"
     x="1012.3455"
     y="887.69867"
     width="87.394096"
     height="1.61067"
     id="rect905" />
  <text
     fill="#000000"
     font-size="14px"
     font-family="helvetica"
     text-anchor="middle"
     dominant-baseline="central"
     x="1056.0454"
     y="906.77765"
     id="text907">trueHoldDuration</text>
  <polyline
     fill="none"
     stroke="#000000"
     stroke-opacity="1"
     points="1078.984615,951.056923 1088.046154,951.056923 1088.046154,931.121538 1132.447692,931.121538 1132.447692,951.056923 1145.133846,951.056923"
     id="polyline909"
     transform="translate(-59.184586,-75.541293)" />
  <polyline
     fill="none"
     stroke="#ff00ff"
     stroke-opacity="1"
     points="1078.984615,906.655385 1113.418462,906.655385 1113.418462,886.720000 1132.447692,886.720000 1132.447692,906.655385 1145.133846,906.655385"
     id="polyline911"
     transform="translate(-59.184586,-75.541293)" />
  <circle
     fill="#ebebeb"
     stroke="#ebebeb"
     stroke-opacity="1"
     cx="1020.7054"
     cy="845.61267"
     id="ellipse913"
     r="3.17154" />
  <circle
     fill="#ebebeb"
     stroke="#ebebeb"
     stroke-opacity="1"
     cx="1091.3854"
     cy="845.61267"
     id="ellipse915"
     r="3.17154" />
  <text
     fill="#0000ff"
     font-size="18px"
     font-family="helvetica"
     text-anchor="middle"
     dominant-baseline="central"
     x="1056.0454"
     y="786.71271"
     id="text917">onDel2</text>
  <text
     fill="#0000ff"
     font-size="18px"
     font-family="helvetica"
     text-anchor="middle"
     dominant-baseline="central"
     x="240.5074"
     y="16.48181"
     id="text919">stateGraphRoot</text>
  <rect
     fill="none"
     stroke="#000000"
     stroke-opacity="1"
     transform="scale(1,-1)"
     x="195.00742"
     y="-120.88171"
     width="91"
     height="91"
     id="rect921" />
  <text
     fill="#000000"
     font-size="20px"
     font-family="helvetica"
     text-anchor="middle"
     dominant-baseline="central"
     x="241.41341"
     y="50.009708"
     id="text923">root</text>
  <rect
     fill="none"
     stroke="#000000"
     stroke-opacity="1"
     transform="scale(1,-1)"
     x="203.46341"
     y="-93.302704"
     width="17"
     height="15"
     id="rect925" />
  <polyline
     fill="none"
     stroke="#000000"
     stroke-opacity="1"
     points="299.692308,146.392308 299.692308,178.107692"
     id="polyline927"
     transform="translate(-59.184586,-75.541293)" />
  <rect
     fill="none"
     stroke="#000000"
     stroke-opacity="1"
     transform="scale(1,-1)"
     x="262.3634"
     y="-93.302704"
     width="17"
     height="15"
     id="rect929" />
  <polygon
     fill="#000000"
     stroke="#000000"
     stroke-opacity="1"
     points="294.25538,163.60923 294.25538,158.17231 299.69231,160.89077 "
     id="polygon931"
     transform="translate(-59.184586,-75.541293)" />
  <polyline
     fill="none"
     stroke="#000000"
     stroke-opacity="1"
     points="279.756923,160.890769 294.255385,160.890769"
     id="polyline933"
     transform="translate(-59.184586,-75.541293)" />
  <polygon
     fill="#000000"
     stroke="#000000"
     stroke-opacity="1"
     points="316.00308,163.60923 316.00308,158.17231 321.44,160.89077 "
     id="polygon935"
     transform="translate(-59.184586,-75.541293)" />
  <polyline
     fill="none"
     stroke="#000000"
     stroke-opacity="1"
     points="299.692308,160.890769 316.003077,160.890769"
     id="polyline937"
     transform="translate(-59.184586,-75.541293)" />
  <text
     fill="#0000ff"
     font-size="18px"
     font-family="helvetica"
     text-anchor="middle"
     dominant-baseline="central"
     x="693.58441"
     y="424.2507"
     id="text939">outputFalse</text>
  <rect
     fill="#ffffff"
     stroke="#000000"
     stroke-opacity="1"
     transform="scale(1,-1)"
     x="648.08441"
     y="-528.6507"
     width="91"
     height="91"
     id="rect941" />
  <text
     fill="#000000"
     font-size="10px"
     font-family="helvetica"
     text-anchor="middle"
     dominant-baseline="central"
     x="694.03741"
     y="520.75665"
     id="text943">active</text>
  <text
     fill="#ffffff"
     font-size="11px"
     font-family="helvetica"
     text-anchor="middle"
     dominant-baseline="central"
     x="879.34644"
     y="468.42569"
     id="text945">0 s</text>
  <rect
     fill="#000000"
     stroke="#000000"
     stroke-opacity="1"
     transform="scale(1,-1)"
     x="825.00739"
     y="-528.6507"
     width="9"
     height="91"
     id="rect947" />
  <polyline
     fill="none"
     stroke="#000000"
     stroke-opacity="1"
     points="875.100000,558.692308 884.161538,558.692308"
     id="polyline949"
     transform="translate(-59.184586,-75.541293)" />
  <text
     fill="#0000ff"
     font-size="18px"
     font-family="helvetica"
     text-anchor="middle"
     dominant-baseline="central"
     x="829.50745"
     y="424.2507"
     id="text951">toTrue</text>
  <circle
     fill="#000000"
     stroke="#000000"
     stroke-opacity="1"
     cx="829.50745"
     cy="523.02167"
     id="ellipse953"
     r="3.17154" />
  <rect
     fill="#d7d7d7"
     stroke="#000000"
     stroke-opacity="1"
     transform="scale(1,-1)"
     x="285.62341"
     y="-302.1127"
     width="91"
     height="91"
     id="rect955" />
  <rect
     fill="#aca899"
     stroke="none"
     x="284.20441"
     y="209.6937"
     width="1.61067"
     height="92.226097"
     id="rect957" />
  <rect
     fill="#aca899"
     stroke="none"
     x="284.20441"
     y="301.92072"
     width="92.226097"
     height="1.61067"
     id="rect959" />
  <rect
     fill="#aca899"
     stroke="none"
     x="376.43042"
     y="211.30472"
     width="1.61067"
     height="92.226097"
     id="rect961" />
  <rect
     fill="#aca899"
     stroke="none"
     x="285.81543"
     y="209.6937"
     width="92.226097"
     height="1.61067"
     id="rect963" />
  <rect
     fill="#ffffff"
     stroke="none"
     x="285.81543"
     y="211.30472"
     width="2.4159999"
     height="90.615402"
     id="rect965" />
  <rect
     fill="#ffffff"
     stroke="none"
     x="285.81543"
     y="211.30472"
     width="90.615402"
     height="2.4159999"
     id="rect967" />
  <rect
     fill="#716f64"
     stroke="none"
     x="374.82043"
     y="211.30472"
     width="1.61067"
     height="90.615402"
     id="rect969" />
  <rect
     fill="#716f64"
     stroke="none"
     x="285.81543"
     y="300.30972"
     width="90.615402"
     height="1.61067"
     id="rect971" />
  <rect
     fill="#aca899"
     stroke="none"
     x="373.20941"
     y="212.91571"
     width="1.61067"
     height="87.394096"
     id="rect973" />
  <rect
     fill="#aca899"
     stroke="none"
     x="287.42639"
     y="298.6987"
     width="87.394096"
     height="1.61067"
     id="rect975" />
  <text
     fill="#000000"
     font-size="24px"
     font-family="helvetica"
     text-anchor="middle"
     dominant-baseline="central"
     x="334.74744"
     y="255.7067"
     id="text977">not</text>
  <circle
     fill="#ebebeb"
     stroke="#ebebeb"
     stroke-opacity="1"
     cx="366.46344"
     cy="256.6127"
     id="ellipse979"
     r="3.17154" />
  <text
     fill="#0000ff"
     font-size="18px"
     font-family="helvetica"
     text-anchor="middle"
     dominant-baseline="central"
     x="331.12341"
     y="197.71271"
     id="text981">notU</text>
  <text
     fill="#0000ff"
     font-size="18px"
     font-family="helvetica"
     text-anchor="middle"
     dominant-baseline="central"
     x="965.43542"
     y="424.2507"
     id="text983">outputTrue</text>
  <rect
     fill="#ffffff"
     stroke="#000000"
     stroke-opacity="1"
     transform="scale(1,-1)"
     x="919.93542"
     y="-528.6507"
     width="91"
     height="91"
     id="rect985" />
  <text
     fill="#000000"
     font-size="10px"
     font-family="helvetica"
     text-anchor="middle"
     dominant-baseline="central"
     x="965.88538"
     y="520.75665"
     id="text987">active</text>
  <text
     fill="#ffffff"
     font-size="11px"
     font-family="helvetica"
     text-anchor="middle"
     dominant-baseline="central"
     x="1151.1954"
     y="468.42569"
     id="text989">0 s</text>
  <rect
     fill="#000000"
     stroke="#000000"
     stroke-opacity="1"
     transform="scale(1,-1)"
     x="1096.8555"
     y="-528.6507"
     width="9"
     height="91"
     id="rect991" />
  <polyline
     fill="none"
     stroke="#000000"
     stroke-opacity="1"
     points="1146.946154,558.692308 1156.007692,558.692308"
     id="polyline993"
     transform="translate(-59.184586,-75.541293)" />
  <text
     fill="#0000ff"
     font-size="18px"
     font-family="helvetica"
     text-anchor="middle"
     dominant-baseline="central"
     x="1101.3555"
     y="424.2507"
     id="text995">toFalse</text>
  <circle
     fill="#000000"
     stroke="#000000"
     stroke-opacity="1"
     cx="1101.3555"
     cy="523.02167"
     id="ellipse997"
     r="3.17154" />
  <rect
     fill="#d2d2d2"
     stroke="#000000"
     stroke-opacity="1"
     transform="scale(1,-1)"
     x="1191.7754"
     y="-891.11273"
     width="91"
     height="91"
     id="rect999" />
  <rect
     fill="#aca899"
     stroke="none"
     x="1190.3555"
     y="798.69366"
     width="1.61067"
     height="92.226097"
     id="rect1001" />
  <rect
     fill="#aca899"
     stroke="none"
     x="1190.3555"
     y="890.92065"
     width="92.226097"
     height="1.61067"
     id="rect1003" />
  <rect
     fill="#aca899"
     stroke="none"
     x="1282.5854"
     y="800.30469"
     width="1.61067"
     height="92.226097"
     id="rect1005" />
  <rect
     fill="#aca899"
     stroke="none"
     x="1191.9655"
     y="798.69366"
     width="92.226097"
     height="1.61067"
     id="rect1007" />
  <rect
     fill="#ffffff"
     stroke="none"
     x="1191.9655"
     y="800.30469"
     width="2.4159999"
     height="90.615402"
     id="rect1009" />
  <rect
     fill="#ffffff"
     stroke="none"
     x="1191.9655"
     y="800.30469"
     width="90.615402"
     height="2.4159999"
     id="rect1011" />
  <rect
     fill="#716f64"
     stroke="none"
     x="1280.9755"
     y="800.30469"
     width="1.61067"
     height="90.615402"
     id="rect1013" />
  <rect
     fill="#716f64"
     stroke="none"
     x="1191.9655"
     y="889.30969"
     width="90.615402"
     height="1.61067"
     id="rect1015" />
  <rect
     fill="#aca899"
     stroke="none"
     x="1279.3655"
     y="801.91565"
     width="1.61067"
     height="87.394096"
     id="rect1017" />
  <rect
     fill="#aca899"
     stroke="none"
     x="1193.5754"
     y="887.69867"
     width="87.394096"
     height="1.61067"
     id="rect1019" />
  <text
     fill="#000000"
     font-size="36px"
     font-family="helvetica"
     text-anchor="middle"
     dominant-baseline="central"
     x="1237.2754"
     y="845.61267"
     id="text1021">and</text>
  <circle
     fill="#ebebeb"
     stroke="#ebebeb"
     stroke-opacity="1"
     cx="1272.6155"
     cy="845.61267"
     id="ellipse1023"
     r="3.17154" />
  <circle
     fill="#ebebeb"
     stroke="#ebebeb"
     stroke-opacity="1"
     cx="1200.1255"
     cy="845.15967"
     id="ellipse1025"
     r="3.17154" />
  <circle
     fill="#ebebeb"
     stroke="#ebebeb"
     stroke-opacity="1"
     cx="1200.1255"
     cy="881.8587"
     id="ellipse1027"
     r="3.17154" />
  <text
     fill="#0000ff"
     font-size="18px"
     font-family="helvetica"
     text-anchor="middle"
     dominant-baseline="central"
     x="1237.2754"
     y="786.71271"
     id="text1029">and2</text>
  <rect
     fill="#d2d2d2"
     stroke="#000000"
     stroke-opacity="1"
     transform="scale(1,-1)"
     x="693.3924"
     y="-755.1897"
     width="91"
     height="91"
     id="rect1031" />
  <rect
     fill="#aca899"
     stroke="none"
     x="691.97443"
     y="662.77069"
     width="1.61067"
     height="92.226097"
     id="rect1033" />
  <rect
     fill="#aca899"
     stroke="none"
     x="691.97443"
     y="754.9967"
     width="92.226097"
     height="1.61067"
     id="rect1035" />
  <rect
     fill="#aca899"
     stroke="none"
     x="784.20044"
     y="664.38165"
     width="1.61067"
     height="92.226097"
     id="rect1037" />
  <rect
     fill="#aca899"
     stroke="none"
     x="693.58441"
     y="662.77069"
     width="92.226097"
     height="1.61067"
     id="rect1039" />
  <rect
     fill="#ffffff"
     stroke="none"
     x="693.58441"
     y="664.38165"
     width="2.4159999"
     height="90.615402"
     id="rect1041" />
  <rect
     fill="#ffffff"
     stroke="none"
     x="693.58441"
     y="664.38165"
     width="90.615402"
     height="2.4159999"
     id="rect1043" />
  <rect
     fill="#716f64"
     stroke="none"
     x="782.58942"
     y="664.38165"
     width="1.61067"
     height="90.615402"
     id="rect1045" />
  <rect
     fill="#716f64"
     stroke="none"
     x="693.58441"
     y="753.38666"
     width="90.615402"
     height="1.61067"
     id="rect1047" />
  <rect
     fill="#aca899"
     stroke="none"
     x="780.97845"
     y="665.99268"
     width="1.61067"
     height="87.394096"
     id="rect1049" />
  <rect
     fill="#aca899"
     stroke="none"
     x="695.19543"
     y="751.7757"
     width="87.394096"
     height="1.61067"
     id="rect1051" />
  <text
     fill="#000000"
     font-size="36px"
     font-family="helvetica"
     text-anchor="middle"
     dominant-baseline="central"
     x="738.89246"
     y="709.6897"
     id="text1053">and</text>
  <circle
     fill="#ebebeb"
     stroke="#ebebeb"
     stroke-opacity="1"
     cx="774.23242"
     cy="709.6897"
     id="ellipse1055"
     r="3.17154" />
  <circle
     fill="#ebebeb"
     stroke="#ebebeb"
     stroke-opacity="1"
     cx="701.74042"
     cy="709.23669"
     id="ellipse1057"
     r="3.17154" />
  <circle
     fill="#ebebeb"
     stroke="#ebebeb"
     stroke-opacity="1"
     cx="701.74042"
     cy="745.93567"
     id="ellipse1059"
     r="3.17154" />
  <text
     fill="#0000ff"
     font-size="18px"
     font-family="helvetica"
     text-anchor="middle"
     dominant-baseline="central"
     x="738.89246"
     y="650.78967"
     id="text1061">and1</text>
  <text
     fill="#0000ff"
     font-size="18px"
     font-family="helvetica"
     text-anchor="middle"
     dominant-baseline="central"
     x="421.7384"
     y="16.48181"
     id="text1063">initialStep</text>
  <rect
     fill="#ffffff"
     stroke="#000000"
     stroke-opacity="1"
     transform="scale(1,-1)"
     x="376.2384"
     y="-120.88171"
     width="91"
     height="91"
     id="rect1065" />
  <rect
     fill="none"
     stroke="#000000"
     stroke-opacity="1"
     transform="scale(1,-1)"
     x="385.7384"
     y="-111.38171"
     width="72"
     height="72"
     id="rect1067" />
  <text
     fill="#ffffff"
     font-size="11px"
     font-family="helvetica"
     text-anchor="middle"
     dominant-baseline="central"
     x="698.11542"
     y="51.595707"
     id="text1069">0 s</text>
  <rect
     fill="#000000"
     stroke="#000000"
     stroke-opacity="1"
     transform="scale(1,-1)"
     x="643.7774"
     y="-111.82071"
     width="9"
     height="91"
     id="rect1071" />
  <polyline
     fill="none"
     stroke="#000000"
     stroke-opacity="1"
     points="693.869231,141.861538 702.930769,141.861538"
     id="polyline1073"
     transform="translate(-59.184586,-75.541293)" />
  <text
     fill="#0000ff"
     font-size="18px"
     font-family="helvetica"
     text-anchor="middle"
     dominant-baseline="central"
     x="648.2774"
     y="7.4202094"
     id="text1075">toTrue1</text>
  <circle
     fill="#000000"
     stroke="#000000"
     stroke-opacity="1"
     cx="648.2774"
     cy="106.1907"
     id="ellipse1077"
     r="3.17154" />
  <text
     fill="#ffffff"
     font-size="11px"
     font-family="helvetica"
     text-anchor="middle"
     dominant-baseline="central"
     x="607.50043"
     y="151.27171"
     id="text1079">0 s</text>
  <rect
     fill="#000000"
     stroke="#000000"
     stroke-opacity="1"
     transform="scale(1,-1)"
     x="553.16144"
     y="-211.4967"
     width="9"
     height="91"
     id="rect1081" />
  <polyline
     fill="none"
     stroke="#000000"
     stroke-opacity="1"
     points="603.253846,241.538462 612.315385,241.538462"
     id="polyline1083"
     transform="translate(-59.184586,-75.541293)" />
  <text
     fill="#0000ff"
     font-size="18px"
     font-family="helvetica"
     text-anchor="middle"
     dominant-baseline="central"
     x="557.66144"
     y="107.09671"
     id="text1085">toFalse1</text>
  <circle
     fill="#000000"
     stroke="#000000"
     stroke-opacity="1"
     cx="557.66144"
     cy="205.86771"
     id="ellipse1087"
     r="3.17154" />
  <polyline
     fill="none"
     stroke="#ffffff"
     stroke-width="5"
     stroke-opacity="1"
     points="1072.188462,558.692308 1106.169231,558.692308 1142.415385,558.692308"
     id="polyline1089"
     transform="translate(-59.184586,-75.541293)" />
  <polyline
     fill="none"
     stroke="#000000"
     stroke-opacity="1"
     points="1072.188462,558.692308 1106.169231,558.692308 1142.415385,558.692308"
     id="polyline1091"
     transform="translate(-59.184586,-75.541293)" />
  <polyline
     fill="none"
     stroke="#ffffff"
     stroke-width="5"
     stroke-opacity="1"
     points="1024.615385,608.530769 1024.615385,649.307692 1794.846154,649.307692"
     id="polyline1093"
     transform="translate(-59.184586,-75.541293)" />
  <polyline
     fill="none"
     stroke="#ff00ff"
     stroke-opacity="1"
     points="1024.615385,608.530769 1024.615385,649.307692 1794.846154,649.307692"
     id="polyline1095"
     transform="translate(-59.184586,-75.541293)" />
  <polyline
     fill="none"
     stroke="#ffffff"
     stroke-width="5"
     stroke-opacity="1"
     points="800.342308,558.692308 834.323077,558.692308 870.569231,558.692308"
     id="polyline1097"
     transform="translate(-59.184586,-75.541293)" />
  <polyline
     fill="none"
     stroke="#000000"
     stroke-opacity="1"
     points="800.342308,558.692308 834.323077,558.692308 870.569231,558.692308"
     id="polyline1099"
     transform="translate(-59.184586,-75.541293)" />
  <polyline
     fill="none"
     stroke="#ffffff"
     stroke-width="5"
     stroke-opacity="1"
     points="1167.334615,558.692308 1251.153846,558.692308 1251.153846,468.076923 662.153846,468.076923 662.153846,556.426923 702.930769,556.426923"
     id="polyline1101"
     transform="translate(-59.184586,-75.541293)" />
  <polyline
     fill="none"
     stroke="#000000"
     stroke-opacity="1"
     points="1167.334615,558.692308 1251.153846,558.692308 1251.153846,468.076923 662.153846,468.076923 662.153846,556.426923 702.930769,556.426923"
     id="polyline1103"
     transform="translate(-59.184586,-75.541293)" />
  <polyline
     fill="none"
     stroke="#ffffff"
     stroke-width="5"
     stroke-opacity="1"
     points="1024.615385,608.530769 1024.615385,649.307692 1024.615385,921.153846 1060.861538,921.153846"
     id="polyline1105"
     transform="translate(-59.184586,-75.541293)" />
  <polyline
     fill="none"
     stroke="#ff00ff"
     stroke-opacity="1"
     points="1024.615385,608.530769 1024.615385,649.307692 1024.615385,921.153846 1060.861538,921.153846"
     id="polyline1107"
     transform="translate(-59.184586,-75.541293)" />
  <polyline
     fill="none"
     stroke="#ffffff"
     stroke-width="5"
     stroke-opacity="1"
     points="444.676923,332.153846 1613.615385,332.153846 1613.615385,1011.769231 1196.784615,1011.769231 1196.784615,957.400000 1242.092308,957.400000"
     id="polyline1109"
     transform="translate(-59.184586,-75.541293)" />
  <polyline
     fill="none"
     stroke="#ff00ff"
     stroke-opacity="1"
     points="444.676923,332.153846 1613.615385,332.153846 1613.615385,1011.769231 1196.784615,1011.769231 1196.784615,957.400000 1242.092308,957.400000"
     id="polyline1111"
     transform="translate(-59.184586,-75.541293)" />
  <polyline
     fill="none"
     stroke="#ffffff"
     stroke-width="5"
     stroke-opacity="1"
     points="1350.830769,921.153846 1432.384615,921.153846 1432.384615,739.923077 1160.538462,739.923077 1160.538462,613.061538"
     id="polyline1113"
     transform="translate(-59.184586,-75.541293)" />
  <polyline
     fill="none"
     stroke="#ff00ff"
     stroke-opacity="1"
     points="1350.830769,921.153846 1432.384615,921.153846 1432.384615,739.923077 1160.538462,739.923077 1160.538462,613.061538"
     id="polyline1115"
     transform="translate(-59.184586,-75.541293)" />
  <polyline
     fill="none"
     stroke="#ffffff"
     stroke-width="5"
     stroke-opacity="1"
     points="752.769231,608.530769 752.769231,649.307692 345.000000,649.307692 345.000000,785.230769 517.169231,785.230769"
     id="polyline1117"
     transform="translate(-59.184586,-75.541293)" />
  <polyline
     fill="none"
     stroke="#ff00ff"
     stroke-opacity="1"
     points="752.769231,608.530769 752.769231,649.307692 345.000000,649.307692 345.000000,785.230769 517.169231,785.230769"
     id="polyline1119"
     transform="translate(-59.184586,-75.541293)" />
  <polyline
     fill="none"
     stroke="#ffffff"
     stroke-width="5"
     stroke-opacity="1"
     points="73.153846,649.307692 254.384615,649.307692 254.384615,875.846154 707.461538,875.846154 707.461538,821.476923 743.707692,821.476923 743.707692,821.476923"
     id="polyline1121"
     transform="translate(-59.184586,-75.541293)" />
  <polyline
     fill="none"
     stroke="#ff00ff"
     stroke-opacity="1"
     points="73.153846,649.307692 254.384615,649.307692 254.384615,875.846154 707.461538,875.846154 707.461538,821.476923 743.707692,821.476923 743.707692,821.476923"
     id="polyline1123"
     transform="translate(-59.184586,-75.541293)" />
  <polyline
     fill="none"
     stroke="#ffffff"
     stroke-width="5"
     stroke-opacity="1"
     points="852.446154,785.230769 888.692308,785.230769 888.692308,613.061538"
     id="polyline1125"
     transform="translate(-59.184586,-75.541293)" />
  <polyline
     fill="none"
     stroke="#ff00ff"
     stroke-opacity="1"
     points="852.446154,785.230769 888.692308,785.230769 888.692308,613.061538"
     id="polyline1127"
     transform="translate(-59.184586,-75.541293)" />
  <polyline
     fill="none"
     stroke="#ffffff"
     stroke-width="5"
     stroke-opacity="1"
     points="73.153846,649.307692 254.384615,649.307692 254.384615,413.707692 707.461538,413.707692 707.461538,196.230769"
     id="polyline1129"
     transform="translate(-59.184586,-75.541293)" />
  <polyline
     fill="none"
     stroke="#ff00ff"
     stroke-opacity="1"
     points="73.153846,649.307692 254.384615,649.307692 254.384615,413.707692 707.461538,413.707692 707.461538,196.230769"
     id="polyline1131"
     transform="translate(-59.184586,-75.541293)" />
  <polyline
     fill="none"
     stroke="#ffffff"
     stroke-width="5"
     stroke-opacity="1"
     points="714.257692,141.861538 934.000000,141.861538 934.000000,556.426923 974.776923,556.426923"
     id="polyline1133"
     transform="translate(-59.184586,-75.541293)" />
  <polyline
     fill="none"
     stroke="#000000"
     stroke-opacity="1"
     points="714.257692,141.861538 934.000000,141.861538 934.000000,556.426923 974.776923,556.426923"
     id="polyline1135"
     transform="translate(-59.184586,-75.541293)" />
  <polyline
     fill="none"
     stroke="#ffffff"
     stroke-width="5"
     stroke-opacity="1"
     points="895.488462,558.692308 974.776923,558.692308 974.776923,560.957692"
     id="polyline1137"
     transform="translate(-59.184586,-75.541293)" />
  <polyline
     fill="none"
     stroke="#000000"
     stroke-opacity="1"
     points="895.488462,558.692308 974.776923,558.692308 974.776923,560.957692"
     id="polyline1139"
     transform="translate(-59.184586,-75.541293)" />
  <polyline
     fill="none"
     stroke="#ffffff"
     stroke-width="5"
     stroke-opacity="1"
     points="623.642308,241.538462 653.092308,241.538462 653.092308,449.953846 653.092308,558.692308 702.930769,558.692308 702.930769,560.957692"
     id="polyline1141"
     transform="translate(-59.184586,-75.541293)" />
  <polyline
     fill="none"
     stroke="#000000"
     stroke-opacity="1"
     points="623.642308,241.538462 653.092308,241.538462 653.092308,449.953846 653.092308,558.692308 702.930769,558.692308 702.930769,560.957692"
     id="polyline1143"
     transform="translate(-59.184586,-75.541293)" />
  <polyline
     fill="none"
     stroke="#ffffff"
     stroke-width="5"
     stroke-opacity="1"
     points="528.496154,149.790385 571.538462,149.790385 571.538462,150.923077 571.538462,141.861538 689.338462,141.861538"
     id="polyline1145"
     transform="translate(-59.184586,-75.541293)" />
  <polyline
     fill="none"
     stroke="#000000"
     stroke-opacity="1"
     points="528.496154,149.790385 571.538462,149.790385 571.538462,150.923077 571.538462,141.861538 689.338462,141.861538"
     id="polyline1147"
     transform="translate(-59.184586,-75.541293)" />
  <polyline
     fill="none"
     stroke="#ffffff"
     stroke-width="5"
     stroke-opacity="1"
     points="528.496154,152.055769 553.415385,152.055769 553.415385,150.923077 571.538462,150.923077 571.538462,241.538462 598.723077,241.538462"
     id="polyline1149"
     transform="translate(-59.184586,-75.541293)" />
  <polyline
     fill="none"
     stroke="#000000"
     stroke-opacity="1"
     points="528.496154,152.055769 553.415385,152.055769 553.415385,150.923077 571.538462,150.923077 571.538462,241.538462 598.723077,241.538462"
     id="polyline1151"
     transform="translate(-59.184586,-75.541293)" />
  <polyline
     fill="none"
     stroke="#ffffff"
     stroke-width="5"
     stroke-opacity="1"
     points="335.938462,332.153846 254.384615,332.153846 254.384615,649.307692 73.153846,649.307692"
     id="polyline1153"
     transform="translate(-59.184586,-75.541293)" />
  <polyline
     fill="none"
     stroke="#ff00ff"
     stroke-opacity="1"
     points="335.938462,332.153846 254.384615,332.153846 254.384615,649.307692 73.153846,649.307692"
     id="polyline1155"
     transform="translate(-59.184586,-75.541293)" />
  <polyline
     fill="none"
     stroke="#ffffff"
     stroke-width="5"
     stroke-opacity="1"
     points="444.676923,332.153846 616.846154,332.153846 616.846154,295.907692"
     id="polyline1157"
     transform="translate(-59.184586,-75.541293)" />
  <polyline
     fill="none"
     stroke="#ff00ff"
     stroke-opacity="1"
     points="444.676923,332.153846 616.846154,332.153846 616.846154,295.907692"
     id="polyline1159"
     transform="translate(-59.184586,-75.541293)" />
  <polyline
     fill="none"
     stroke="#ffffff"
     stroke-width="5"
     stroke-opacity="1"
     points="625.907692,785.230769 743.707692,785.230769"
     id="polyline1161"
     transform="translate(-59.184586,-75.541293)" />
  <polyline
     fill="none"
     stroke="#ff00ff"
     stroke-opacity="1"
     points="625.907692,785.230769 743.707692,785.230769"
     id="polyline1163"
     transform="translate(-59.184586,-75.541293)" />
  <polyline
     fill="none"
     stroke="#ffffff"
     stroke-width="5"
     stroke-opacity="1"
     points="1169.600000,921.153846 1169.600000,921.153846 1242.092308,921.153846"
     id="polyline1165"
     transform="translate(-59.184586,-75.541293)" />
  <polyline
     fill="none"
     stroke="#ff00ff"
     stroke-opacity="1"
     points="1169.600000,921.153846 1169.600000,921.153846 1242.092308,921.153846"
     id="polyline1167"
     transform="translate(-59.184586,-75.541293)" />
  <circle
     fill="#ff00ff"
     stroke="#ff00ff"
     cx="195.20041"
     cy="573.76666"
     id="ellipse1169"
     r="3" />
  <circle
     fill="#ff00ff"
     stroke="#ff00ff"
     cx="195.20041"
     cy="573.76666"
     id="ellipse1171"
     r="3" />
  <circle
     fill="#ff00ff"
     stroke="#ff00ff"
     cx="195.20041"
     cy="338.16672"
     id="ellipse1173"
     r="3" />
  <circle
     fill="#ff00ff"
     stroke="#ff00ff"
     cx="557.66144"
     cy="256.6127"
     id="ellipse1175"
     r="3" />
  <circle
     fill="#ff00ff"
     stroke="#ff00ff"
     cx="965.43542"
     cy="573.76666"
     id="ellipse1177"
     r="3" />
  <polygon
     fill="#ff00ff"
     stroke="#ff00ff"
     stroke-opacity="1"
     points="73.153846,694.61538 73.153846,604 163.76923,649.30769 "
     id="polygon1179"
     transform="translate(-59.184586,-75.541293)" />
  <text
     fill="#ff00ff"
     font-size="23px"
     font-family="helvetica"
     text-anchor="middle"
     dominant-baseline="central"
     x="4.9077148"
     y="508.07071"
     id="text1181">u</text>
  <polygon
     fill="#ffffff"
     stroke="#ff00ff"
     stroke-opacity="1"
     points="1704.2308,694.61538 1704.2308,604 1794.8462,649.30769 "
     id="polygon1183"
     transform="translate(-59.184586,-75.541293)" />
  <text
     fill="#ff00ff"
     font-size="45px"
     font-family="helvetica"
     text-anchor="middle"
     dominant-baseline="central"
     x="1762.8455"
     y="496.74368"
     id="text1185">y</text>
  <polygon
     fill="#ff00ff"
     stroke="#ff00ff"
     stroke-opacity="1"
     points="517.16923,789.76154 517.16923,780.7 526.23077,785.23077 "
     id="polygon1187"
     transform="translate(-59.184586,-75.541293)" />
  <polygon
     fill="#ffffff"
     stroke="#ff00ff"
     stroke-opacity="1"
     points="616.84615,789.76154 616.84615,780.7 625.90769,785.23077 "
     id="polygon1189"
     transform="translate(-59.184586,-75.541293)" />
  <polygon
     fill="#ff00ff"
     stroke="#ff00ff"
     stroke-opacity="1"
     points="1060.8615,925.68462 1060.8615,916.62308 1069.9231,921.15385 "
     id="polygon1191"
     transform="translate(-59.184586,-75.541293)" />
  <polygon
     fill="#ffffff"
     stroke="#ff00ff"
     stroke-opacity="1"
     points="1160.5385,925.68462 1160.5385,916.62308 1169.6,921.15385 "
     id="polygon1193"
     transform="translate(-59.184586,-75.541293)" />
  <polygon
     fill="#000000"
     stroke="#000000"
     stroke-opacity="1"
     points="698.4,554.16154 698.4,563.22308 707.46154,558.69231 "
     id="polygon1195"
     transform="translate(-59.184586,-75.541293)" />
  <polygon
     fill="#000000"
     stroke="#000000"
     stroke-opacity="1"
     points="698.4,554.16154 698.4,563.22308 707.46154,558.69231 "
     id="polygon1197"
     transform="translate(-59.184586,-75.541293)" />
  <rect
     fill="#ffffff"
     stroke="#000000"
     stroke-opacity="1"
     x="738.65741"
     y="480.65073"
     width="5"
     height="5"
     id="rect1199" />
  <rect
     fill="#ffffff"
     stroke="#000000"
     stroke-opacity="1"
     x="738.65741"
     y="480.65073"
     width="5"
     height="5"
     id="rect1201" />
  <polygon
     fill="#ffffff"
     stroke="#ff00ff"
     stroke-opacity="1"
     points="748.23846,604 757.3,604 752.76923,613.06154 "
     id="polygon1203"
     transform="translate(-59.184586,-75.541293)" />
  <polygon
     fill="#000000"
     stroke="#000000"
     stroke-opacity="1"
     points="866.03846,563.22308 866.03846,554.16154 875.1,558.69231 "
     id="polygon1205"
     transform="translate(-59.184586,-75.541293)" />
  <rect
     fill="#ffffff"
     stroke="#000000"
     stroke-opacity="1"
     transform="scale(1,-1)"
     x="833.80341"
     y="-485.6507"
     width="5"
     height="5"
     id="rect1207" />
  <polygon
     fill="#ff00ff"
     stroke="#ff00ff"
     stroke-opacity="1"
     points="897.75385,622.12308 879.63077,622.12308 888.69231,604 "
     id="polygon1209"
     transform="translate(-59.184586,-75.541293)" />
  <polygon
     fill="#ff00ff"
     stroke="#ff00ff"
     stroke-opacity="1"
     points="335.93846,336.68462 335.93846,327.62308 345,332.15385 "
     id="polygon1211"
     transform="translate(-59.184586,-75.541293)" />
  <polygon
     fill="#ffffff"
     stroke="#ff00ff"
     stroke-opacity="1"
     points="435.61539,336.68462 435.61539,327.62308 444.67692,332.15385 "
     id="polygon1213"
     transform="translate(-59.184586,-75.541293)" />
  <polygon
     fill="#000000"
     stroke="#000000"
     stroke-opacity="1"
     points="970.24615,554.16154 970.24615,563.22308 979.30769,558.69231 "
     id="polygon1215"
     transform="translate(-59.184586,-75.541293)" />
  <polygon
     fill="#000000"
     stroke="#000000"
     stroke-opacity="1"
     points="970.24615,554.16154 970.24615,563.22308 979.30769,558.69231 "
     id="polygon1217"
     transform="translate(-59.184586,-75.541293)" />
  <rect
     fill="#ffffff"
     stroke="#000000"
     stroke-opacity="1"
     x="1010.5054"
     y="480.65073"
     width="5"
     height="5"
     id="rect1219" />
  <rect
     fill="#ffffff"
     stroke="#000000"
     stroke-opacity="1"
     x="1010.5054"
     y="480.65073"
     width="5"
     height="5"
     id="rect1221" />
  <polygon
     fill="#ffffff"
     stroke="#ff00ff"
     stroke-opacity="1"
     points="1020.0846,604 1029.1462,604 1024.6154,613.06154 "
     id="polygon1223"
     transform="translate(-59.184586,-75.541293)" />
  <polygon
     fill="#000000"
     stroke="#000000"
     stroke-opacity="1"
     points="1137.8846,563.22308 1137.8846,554.16154 1146.9462,558.69231 "
     id="polygon1225"
     transform="translate(-59.184586,-75.541293)" />
  <rect
     fill="#ffffff"
     stroke="#000000"
     stroke-opacity="1"
     transform="scale(1,-1)"
     x="1105.6454"
     y="-485.6507"
     width="5"
     height="5"
     id="rect1227" />
  <polygon
     fill="#ff00ff"
     stroke="#ff00ff"
     stroke-opacity="1"
     points="1169.6,622.12308 1151.4769,622.12308 1160.5385,604 "
     id="polygon1229"
     transform="translate(-59.184586,-75.541293)" />
  <polygon
     fill="#ff00ff"
     stroke="#ff00ff"
     stroke-opacity="1"
     points="1242.0923,925.68462 1242.0923,916.62308 1251.1538,921.15385 "
     id="polygon1231"
     transform="translate(-59.184586,-75.541293)" />
  <polygon
     fill="#ff00ff"
     stroke="#ff00ff"
     stroke-opacity="1"
     points="1242.0923,961.93077 1242.0923,952.86923 1251.1538,957.4 "
     id="polygon1233"
     transform="translate(-59.184586,-75.541293)" />
  <polygon
     fill="#ffffff"
     stroke="#ff00ff"
     stroke-opacity="1"
     points="1341.7692,925.68462 1341.7692,916.62308 1350.8308,921.15385 "
     id="polygon1235"
     transform="translate(-59.184586,-75.541293)" />
  <polygon
     fill="#ff00ff"
     stroke="#ff00ff"
     stroke-opacity="1"
     points="743.70769,789.76154 743.70769,780.7 752.76923,785.23077 "
     id="polygon1237"
     transform="translate(-59.184586,-75.541293)" />
  <polygon
     fill="#ff00ff"
     stroke="#ff00ff"
     stroke-opacity="1"
     points="743.70769,826.00769 743.70769,816.94615 752.76923,821.47692 "
     id="polygon1239"
     transform="translate(-59.184586,-75.541293)" />
  <polygon
     fill="#ffffff"
     stroke="#ff00ff"
     stroke-opacity="1"
     points="843.38462,789.76154 843.38462,780.7 852.44615,785.23077 "
     id="polygon1241"
     transform="translate(-59.184586,-75.541293)" />
  <polygon
     fill="#000000"
     stroke="#000000"
     stroke-opacity="1"
     points="426.55385,146.39231 426.55385,155.45385 435.61539,150.92308 "
     id="polygon1243"
     transform="translate(-59.184586,-75.541293)" />
  <polygon
     fill="#000000"
     stroke="#000000"
     stroke-opacity="1"
     points="426.55385,146.39231 426.55385,155.45385 435.61539,150.92308 "
     id="polygon1245"
     transform="translate(-59.184586,-75.541293)" />
  <rect
     fill="#ffffff"
     stroke="#000000"
     stroke-opacity="1"
     x="466.8114"
     y="72.881714"
     width="5"
     height="5"
     id="rect1247" />
  <rect
     fill="#ffffff"
     stroke="#000000"
     stroke-opacity="1"
     x="466.8114"
     y="72.881714"
     width="5"
     height="5"
     id="rect1249" />
  <polygon
     fill="#000000"
     stroke="#000000"
     stroke-opacity="1"
     points="684.80769,146.39231 684.80769,137.33077 693.86923,141.86154 "
     id="polygon1251"
     transform="translate(-59.184586,-75.541293)" />
  <rect
     fill="#ffffff"
     stroke="#000000"
     stroke-opacity="1"
     transform="scale(1,-1)"
     x="652.57343"
     y="-68.820709"
     width="5"
     height="5"
     id="rect1253" />
  <polygon
     fill="#ff00ff"
     stroke="#ff00ff"
     stroke-opacity="1"
     points="716.52308,205.29231 698.4,205.29231 707.46154,187.16923 "
     id="polygon1255"
     transform="translate(-59.184586,-75.541293)" />
  <polygon
     fill="#000000"
     stroke="#000000"
     stroke-opacity="1"
     points="594.19231,246.06923 594.19231,237.00769 603.25385,241.53846 "
     id="polygon1257"
     transform="translate(-59.184586,-75.541293)" />
  <rect
     fill="#ffffff"
     stroke="#000000"
     stroke-opacity="1"
     transform="scale(1,-1)"
     x="561.9574"
     y="-168.4967"
     width="5"
     height="5"
     id="rect1259" />
  <polygon
     fill="#ff00ff"
     stroke="#ff00ff"
     stroke-opacity="1"
     points="625.90769,304.96923 607.78462,304.96923 616.84615,286.84615 "
     id="polygon1261"
     transform="translate(-59.184586,-75.541293)" />
</svg>
