<?xml version="1.0" standalone="no"?>
<!DOCTYPE svg PUBLIC "-//W3C//DTD SVG 1.1//EN" "http://www.w3.org/Graphics/SVG/1.1/DTD/svg11.dtd">
<svg viewBox="-16.45 -16.45 708.9 361.9" version="1.1" xmlns="http://www.w3.org/2000/svg" xmlns:xlink="http://www.w3.org/1999/xlink">
	<text fill="rgb(0,0,255)" font-size="10" font-family="helvetica" text-anchor="middle" dominant-baseline="central" x="532.714" y="6.14286">stateGraphRoot</text>
	<rect fill="none" stroke="rgb(0,0,0)" stroke-opacity="1" transform="translate(532.714, 39.5714) translate(0, 0) scale(1,-1)" x="-25.7143" y="-25.7143" width="51.4286" height="51.4286"/>
	<text fill="rgb(0,0,0)" font-size="10" font-family="helvetica" text-anchor="middle" dominant-baseline="central" x="533.229" y="25.1714">root</text>
	<rect fill="none" stroke="rgb(0,0,0)" stroke-opacity="1" transform="translate(516.514, 45.4857) translate(0, 0) scale(1,-1)" x="-4.88571" y="-4.37143" width="9.77143" height="8.74286"/>
	<polyline fill="none" stroke="rgb(0,0,0)" stroke-opacity="1" points="532.714,37 532.714,55"/>
	<rect fill="none" stroke="rgb(0,0,0)" stroke-opacity="1" transform="translate(549.943, 45.4857) translate(0, 0) scale(1,-1)" x="-4.88571" y="-4.37143" width="9.77143" height="8.74286"/>
	<polygon fill="black" stroke="rgb(0,0,0)" stroke-opacity="1" points="529.629,43.6857 532.714,45.2286 529.629,46.7714 529.629,43.6857"/>
	<polyline fill="none" stroke="rgb(0,0,0)" stroke-opacity="1" points="521.4,45.2286 529.629,45.2286"/>
	<polygon fill="black" stroke="rgb(0,0,0)" stroke-opacity="1" points="541.971,43.6857 545.057,45.2286 541.971,46.7714 541.971,43.6857"/>
	<polyline fill="none" stroke="rgb(0,0,0)" stroke-opacity="1" points="532.714,45.2286 541.971,45.2286"/>
	<text fill="rgb(0,0,255)" font-size="10" font-family="helvetica" text-anchor="middle" dominant-baseline="central" x="147" y="52.4286">initialStep</text>
	<rect fill="rgb(255,255,255)" stroke="rgb(0,0,0)" stroke-opacity="1" transform="translate(147, 85.8571) translate(0, 0) scale(1,-1)" x="-25.7143" y="-25.7143" width="51.4286" height="51.4286"/>
	<rect fill="none" stroke="rgb(0,0,0)" stroke-opacity="1" transform="translate(147, 85.8571) translate(0, 0) scale(1,-1)" x="-20.5714" y="-20.5714" width="41.1429" height="41.1429"/>
	<text fill="rgb(0,0,255)" font-size="10" font-family="helvetica" text-anchor="middle" dominant-baseline="central" x="327" y="52.4286">outputTrue</text>
	<rect fill="rgb(255,255,255)" stroke="rgb(0,0,0)" stroke-opacity="1" transform="translate(327, 85.8571) translate(0, 0) scale(1,-1)" x="-25.7143" y="-25.7143" width="51.4286" height="51.4286"/>
	<text fill="rgb(0,0,0)" font-size="10" font-family="helvetica" text-anchor="middle" dominant-baseline="central" x="327.257" y="107.2">active</text>
	<rect fill="rgb(0,0,0)" stroke="rgb(0,0,0)" stroke-opacity="1" transform="translate(224.143, 85.8571) translate(0, 0) scale(1,-1)" x="-2.57143" y="-25.7143" width="5.14286" height="51.4286"/>
	<polyline fill="none" stroke="rgb(0,0,0)" stroke-opacity="1" points="216.429,85.8571 221.571,85.8571"/>
	<text fill="rgb(0,0,255)" font-size="10" font-family="helvetica" text-anchor="middle" dominant-baseline="central" x="224.143" y="52.4286">toOutputTrue</text>
	<ellipse fill="rgb(0,0,0)" stroke="rgb(0,0,0)" stroke-opacity="1" cx="224.143" cy="108.486" rx="1.8" ry="1.8"/>
	<rect fill="rgb(0,0,0)" stroke="rgb(0,0,0)" stroke-opacity="1" transform="translate(429.857, 85.8571) translate(0, 0) scale(1,-1)" x="-2.57143" y="-25.7143" width="5.14286" height="51.4286"/>
	<polyline fill="none" stroke="rgb(0,0,0)" stroke-opacity="1" points="422.143,85.8571 427.286,85.8571"/>
	<text fill="rgb(0,0,255)" font-size="10" font-family="helvetica" text-anchor="middle" dominant-baseline="central" x="429.857" y="52.4286">toInitial</text>
	<text fill="rgb(0,0,0)" font-size="10" font-family="helvetica" text-anchor="middle" dominant-baseline="central" x="458.143" y="77.5">duration</text>
	<text fill="rgb(0,0,0)" font-size="10" font-family="helvetica" text-anchor="middle" dominant-baseline="central" x="429.857" y="119.929">true</text>
	<rect fill="rgb(255,255,255)" stroke="rgb(255,0,255)" stroke-opacity="1" x="301.286" y="265.857" width="51.4286" height="51.4286"/>
	<rect fill="rgb(255,255,255)" stroke="rgb(255,0,255)" stroke-opacity="1" transform="translate(309, 291.314) translate(0, 0) scale(1,-1)" x="-5.14286" y="-12.8571" width="10.2857" height="25.7143"/>
	<rect fill="rgb(255,255,255)" stroke="rgb(255,0,255)" stroke-opacity="1" transform="translate(345, 291.571) translate(0, 0) scale(1,-1)" x="-5.14286" y="-12.8571" width="10.2857" height="25.7143"/>
	<polygon fill="rgb(255,0,255)" stroke="rgb(255,0,255)" stroke-opacity="1" points="302.723,291.081 302.723,292.109 303.752,291.595 302.723,291.081"/>
	<polyline fill="none" stroke="rgb(255,0,255)" stroke-opacity="1" points="308.486,291.057 311.536,288.252 314.364,288.252"/>
	<polyline fill="none" stroke="rgb(255,0,255)" stroke-opacity="1" points="308.229,290.543 311.829,281.286 314.4,281.286"/>
	<polyline fill="none" stroke="rgb(255,0,255)" stroke-opacity="1" points="297.943,291.571 307.448,291.576"/>
	<ellipse fill="rgb(255,0,255)" stroke="rgb(255,0,255)" stroke-opacity="1" cx="307.446" cy="291.612" rx="1.28571" ry="1.22143"/>
	<polyline fill="none" stroke="rgb(255,0,255)" stroke-opacity="1" points="308.229,292.857 311.571,301.857 314.4,301.857"/>
	<polyline fill="none" stroke="rgb(255,0,255)" stroke-opacity="1" points="308.486,292.086 311.553,294.89 314.382,294.89"/>
	<polygon fill="rgb(255,255,255)" stroke="rgb(255,0,255)" stroke-opacity="1" points="314.431,294.4 314.431,295.429 315.459,294.914 314.431,294.4"/>
	<polyline fill="none" stroke="rgb(255,0,255)" stroke-opacity="1" points="315.171,288.229 318,288.229 336,299.286 338.571,299.286"/>
	<polyline fill="none" stroke="rgb(255,0,255)" stroke-opacity="1" points="315.429,281.286 318,281.286 336,291.571 338.314,291.571"/>
	<polyline fill="none" stroke="rgb(255,0,255)" stroke-opacity="1" points="315.429,301.857 318.257,301.857 336,283.857 338.314,283.857"/>
	<polygon fill="rgb(255,255,255)" stroke="rgb(255,0,255)" stroke-opacity="1" points="314.4,280.771 314.4,281.8 315.429,281.286 314.4,280.771"/>
	<polygon fill="rgb(255,255,255)" stroke="rgb(255,0,255)" stroke-opacity="1" points="314.433,301.35 314.433,302.379 315.461,301.865 314.433,301.35"/>
	<polygon fill="rgb(255,255,255)" stroke="rgb(255,0,255)" stroke-opacity="1" points="314.4,287.745 314.4,288.774 315.429,288.259 314.4,287.745"/>
	<ellipse fill="rgb(255,0,255)" stroke="rgb(255,0,255)" stroke-opacity="1" cx="346.107" cy="291.732" rx="1.28571" ry="1.22143"/>
	<polyline fill="none" stroke="rgb(255,0,255)" stroke-opacity="1" points="347.571,291.571 352.714,291.571"/>
	<polygon fill="rgb(255,0,255)" stroke="rgb(255,0,255)" stroke-opacity="1" points="338.099,283.264 338.099,284.292 339.127,283.778 338.099,283.264"/>
	<polygon fill="rgb(255,0,255)" stroke="rgb(255,0,255)" stroke-opacity="1" points="338.123,291.107 338.123,292.136 339.152,291.622 338.123,291.107"/>
	<polygon fill="rgb(255,0,255)" stroke="rgb(255,0,255)" stroke-opacity="1" points="338.284,298.816 338.284,299.845 339.312,299.331 338.284,298.816"/>
	<polyline fill="none" stroke="rgb(255,0,255)" stroke-opacity="1" points="339.343,291.571 345,291.571"/>
	<polyline fill="none" stroke="rgb(255,0,255)" stroke-opacity="1" points="339.086,283.857 342.429,283.857 345.771,290.8"/>
	<polyline fill="none" stroke="rgb(255,0,255)" stroke-opacity="1" points="339.6,299.286 342.429,299.286 346.029,292.6"/>
	<text fill="rgb(0,0,0)" font-size="10" font-family="helvetica" text-anchor="middle" dominant-baseline="central" x="327" y="325">extract=1:nout</text>
	<text fill="rgb(0,0,255)" font-size="10" font-family="helvetica" text-anchor="middle" dominant-baseline="central" x="327" y="260.714">pas</text>
	<polyline fill="none" stroke="rgb(255,255,255)" stroke-width="3.21" stroke-opacity="1" points="174,85.8571 213.857,85.8571"/>
	<polyline fill="none" stroke="rgb(0,0,0)" stroke-opacity="1" points="174,85.8571 213.857,85.8571"/>
	<polyline fill="none" stroke="rgb(255,255,255)" stroke-width="3.21" stroke-opacity="1" points="327,114.143 327,240.143 635.571,240.143"/>
	<polyline fill="none" stroke="rgb(255,0,255)" stroke-opacity="1" points="327,114.143 327,240.143 635.571,240.143"/>
	<polyline fill="none" stroke="rgb(255,255,255)" stroke-width="3.21" stroke-opacity="1" points="224.143,116.714 224.143,240.143 18.4286,240.143"/>
	<polyline fill="none" stroke="rgb(255,0,255)" stroke-opacity="1" points="224.143,116.714 224.143,240.143 18.4286,240.143"/>
	<polyline fill="none" stroke="rgb(255,255,255)" stroke-width="3.21" stroke-opacity="1" points="433.714,85.8571 460.714,85.8571 460.714,19 95.5714,19 95.5714,85.8571 118.714,85.8571"/>
	<polyline fill="none" stroke="rgb(0,0,0)" stroke-opacity="1" points="433.714,85.8571 460.714,85.8571 460.714,19 95.5714,19 95.5714,85.8571 118.714,85.8571"/>
	<polyline fill="none" stroke="rgb(255,255,255)" stroke-width="3.21" stroke-opacity="1" points="228,85.8571 298.714,85.8571"/>
	<polyline fill="none" stroke="rgb(0,0,0)" stroke-opacity="1" points="228,85.8571 298.714,85.8571"/>
	<polyline fill="none" stroke="rgb(255,255,255)" stroke-width="3.21" stroke-opacity="1" points="354,85.8571 419.571,85.8571"/>
	<polyline fill="none" stroke="rgb(0,0,0)" stroke-opacity="1" points="354,85.8571 419.571,85.8571"/>
	<polyline fill="none" stroke="rgb(255,255,255)" stroke-width="3.21" stroke-opacity="1" points="18.4286,240.143 224.143,240.143 224.143,291.571 296.143,291.571"/>
	<polyline fill="none" stroke="rgb(255,0,255)" stroke-opacity="1" points="18.4286,240.143 224.143,240.143 224.143,291.571 296.143,291.571"/>
	<polyline fill="none" stroke="rgb(255,255,255)" stroke-width="3.21" stroke-opacity="1" points="357.857,291.571 429.857,291.571 429.857,240.143 635.571,240.143"/>
	<polyline fill="none" stroke="rgb(255,0,255)" stroke-opacity="1" points="357.857,291.571 429.857,291.571 429.857,240.143 635.571,240.143"/>
	<ellipse fill="rgb(255,0,255)" stroke="rgb(255,0,255)" cx="224.143" cy="240.143" rx="3" ry="3"/>
	<ellipse fill="rgb(255,0,255)" stroke="rgb(255,0,255)" cx="429.857" cy="240.143" rx="3" ry="3"/>
	<polygon fill="rgb(255,0,255)" stroke="rgb(255,0,255)" stroke-opacity="1" points="18.4286,214.429 69.8571,240.143 18.4286,265.857 18.4286,214.429"/>
	<text fill="rgb(255,0,255)" font-size="11" font-family="helvetica" text-anchor="middle" dominant-baseline="central" x="13.2857" y="202.857">u</text>
	<polygon fill="rgb(255,255,255)" stroke="rgb(255,0,255)" stroke-opacity="1" points="584.143,214.429 635.571,240.143 584.143,265.857 584.143,214.429"/>
	<text fill="rgb(255,0,255)" font-size="24" font-family="helvetica" text-anchor="middle" dominant-baseline="central" x="651" y="196.429">y</text>
	<polygon fill="black" stroke="rgb(0,0,0)" stroke-opacity="1" points="116.143,88.4286 121.286,85.8571 116.143,83.2857 116.143,88.4286"/>
	<rect fill="rgb(255,255,255)" stroke="rgb(0,0,0)" stroke-opacity="1" x="172.714" y="84.5714" width="2.57143" height="2.57143"/>
	<polygon fill="black" stroke="rgb(0,0,0)" stroke-opacity="1" points="296.143,88.4286 301.286,85.8571 296.143,83.2857 296.143,88.4286"/>
	<rect fill="rgb(255,255,255)" stroke="rgb(0,0,0)" stroke-opacity="1" x="352.714" y="84.5714" width="2.57143" height="2.57143"/>
	<polygon fill="rgb(255,255,255)" stroke="rgb(255,0,255)" stroke-opacity="1" points="329.571,111.571 327,116.714 324.429,111.571 329.571,111.571"/>
	<polygon fill="black" stroke="rgb(0,0,0)" stroke-opacity="1" points="211.286,83.2857 216.429,85.8571 211.286,88.4286 211.286,83.2857"/>
	<rect fill="rgb(255,255,255)" stroke="rgb(0,0,0)" stroke-opacity="1" transform="translate(228, 85.8571) translate(0, 0) scale(1,-1)" x="-1.28571" y="-1.28571" width="2.57143" height="2.57143"/>
	<polygon fill="rgb(255,0,255)" stroke="rgb(255,0,255)" stroke-opacity="1" points="219,121.857 224.143,111.571 229.286,121.857 219,121.857"/>
	<polygon fill="black" stroke="rgb(0,0,0)" stroke-opacity="1" points="417,83.2857 422.143,85.8571 417,88.4286 417,83.2857"/>
	<rect fill="rgb(255,255,255)" stroke="rgb(0,0,0)" stroke-opacity="1" transform="translate(433.714, 85.8571) translate(0, 0) scale(1,-1)" x="-1.28571" y="-1.28571" width="2.57143" height="2.57143"/>
	<polygon fill="rgb(255,0,255)" stroke="rgb(255,0,255)" stroke-opacity="1" points="296.143,289 301.286,291.571 296.143,294.143 296.143,289"/>
	<polygon fill="rgb(255,255,255)" stroke="rgb(255,0,255)" stroke-opacity="1" points="352.714,289 357.857,291.571 352.714,294.143 352.714,289"/>
</svg>
