<?xml version="1.0" standalone="no"?>
<!DOCTYPE svg PUBLIC "-//W3C//DTD SVG 1.1//EN" "http://www.w3.org/Graphics/SVG/1.1/DTD/svg11.dtd">
<svg viewBox="-29.7 -29.7 1576.4 653.4" version="1.1" xmlns="http://www.w3.org/2000/svg" xmlns:xlink="http://www.w3.org/1999/xlink">
	<text fill="rgb(0,0,255)" font-size="21" font-family="helvetica" text-anchor="middle" dominant-baseline="central" x="1194.6" y="11.93">stateGraphRoot</text>
	<rect fill="none" stroke="rgb(0,0,0)" stroke-opacity="1" transform="translate(1194.6, 86.94) translate(0, 0) scale(1,-1)" x="-57.7" y="-57.7" width="115.4" height="115.4"/>
	<text fill="rgb(0,0,0)" font-size="23" font-family="helvetica" text-anchor="middle" dominant-baseline="central" x="1195.75" y="54.628">root</text>
	<rect fill="none" stroke="rgb(0,0,0)" stroke-opacity="1" transform="translate(1158.25, 100.211) translate(0, 0) scale(1,-1)" x="-10.963" y="-9.809" width="21.926" height="19.618"/>
	<polyline fill="none" stroke="rgb(0,0,0)" stroke-opacity="1" points="1194.6,81.17 1194.6,121.56"/>
	<rect fill="none" stroke="rgb(0,0,0)" stroke-opacity="1" transform="translate(1233.26, 100.211) translate(0, 0) scale(1,-1)" x="-10.963" y="-9.809" width="21.926" height="19.618"/>
	<polygon fill="black" stroke="rgb(0,0,0)" stroke-opacity="1" points="1187.68,96.172 1194.6,99.634 1187.68,103.096 1187.68,96.172"/>
	<polyline fill="none" stroke="rgb(0,0,0)" stroke-opacity="1" points="1169.21,99.634 1187.68,99.634"/>
	<polygon fill="black" stroke="rgb(0,0,0)" stroke-opacity="1" points="1215.37,96.172 1222.3,99.634 1215.37,103.096 1215.37,96.172"/>
	<polyline fill="none" stroke="rgb(0,0,0)" stroke-opacity="1" points="1194.6,99.634 1215.37,99.634"/>
	<text fill="rgb(0,0,255)" font-size="21" font-family="helvetica" text-anchor="middle" dominant-baseline="central" x="444.5" y="288.89">initialStep</text>
	<rect fill="rgb(255,255,255)" stroke="rgb(0,0,0)" stroke-opacity="1" transform="translate(444.5, 363.9) translate(0, 0) scale(1,-1)" x="-57.7" y="-57.7" width="115.4" height="115.4"/>
	<rect fill="none" stroke="rgb(0,0,0)" stroke-opacity="1" transform="translate(444.5, 363.9) translate(0, 0) scale(1,-1)" x="-46.16" y="-46.16" width="92.32" height="92.32"/>
	<text fill="rgb(0,0,255)" font-size="21" font-family="helvetica" text-anchor="middle" dominant-baseline="central" x="848.4" y="288.89">outputTrue</text>
	<rect fill="rgb(255,255,255)" stroke="rgb(0,0,0)" stroke-opacity="1" transform="translate(848.4, 363.9) translate(0, 0) scale(1,-1)" x="-57.7" y="-57.7" width="115.4" height="115.4"/>
	<text fill="rgb(0,0,0)" font-size="10" font-family="helvetica" text-anchor="middle" dominant-baseline="central" x="848.977" y="411.791">active</text>
	<rect fill="rgb(0,0,0)" stroke="rgb(0,0,0)" stroke-opacity="1" transform="translate(617.6, 363.9) translate(0, 0) scale(1,-1)" x="-5.77" y="-57.7" width="11.54" height="115.4"/>
	<polyline fill="none" stroke="rgb(0,0,0)" stroke-opacity="1" points="600.29,363.9 611.83,363.9"/>
	<text fill="rgb(0,0,255)" font-size="21" font-family="helvetica" text-anchor="middle" dominant-baseline="central" x="617.6" y="288.89">toOutputTrue</text>
	<ellipse fill="rgb(0,0,0)" stroke="rgb(0,0,0)" stroke-opacity="1" cx="617.6" cy="414.676" rx="4.039" ry="4.039"/>
	<rect fill="rgb(0,0,0)" stroke="rgb(0,0,0)" stroke-opacity="1" transform="translate(1079.2, 363.9) translate(0, 0) scale(1,-1)" x="-5.77" y="-57.7" width="11.54" height="115.4"/>
	<polyline fill="none" stroke="rgb(0,0,0)" stroke-opacity="1" points="1061.89,363.9 1073.43,363.9"/>
	<text fill="rgb(0,0,255)" font-size="21" font-family="helvetica" text-anchor="middle" dominant-baseline="central" x="1079.2" y="288.89">toInitial</text>
	<text fill="rgb(0,0,0)" font-size="12" font-family="helvetica" text-anchor="middle" dominant-baseline="central" x="1142.67" y="345.148">duration</text>
	<text fill="rgb(0,0,0)" font-size="12" font-family="helvetica" text-anchor="middle" dominant-baseline="central" x="1079.2" y="440.353">true</text>
	<polyline fill="none" stroke="rgb(255,255,255)" stroke-width="5" stroke-opacity="1" points="505.085,363.9 594.52,363.9"/>
	<polyline fill="none" stroke="rgb(0,0,0)" stroke-opacity="1" points="505.085,363.9 594.52,363.9"/>
	<polyline fill="none" stroke="rgb(255,255,255)" stroke-width="5" stroke-opacity="1" points="848.4,427.37 848.4,537 1425.4,537"/>
	<polyline fill="none" stroke="rgb(255,0,255)" stroke-opacity="1" points="848.4,427.37 848.4,537 1425.4,537"/>
	<polyline fill="none" stroke="rgb(255,255,255)" stroke-width="5" stroke-opacity="1" points="617.6,433.14 617.6,537 40.6,537"/>
	<polyline fill="none" stroke="rgb(255,0,255)" stroke-opacity="1" points="617.6,433.14 617.6,537 40.6,537"/>
	<polyline fill="none" stroke="rgb(255,255,255)" stroke-width="5" stroke-opacity="1" points="1087.86,363.9 1194.6,363.9 1194.6,190.8 271.4,190.8 271.4,363.9 381.03,363.9"/>
	<polyline fill="none" stroke="rgb(0,0,0)" stroke-opacity="1" points="1087.86,363.9 1194.6,363.9 1194.6,190.8 271.4,190.8 271.4,363.9 381.03,363.9"/>
	<polyline fill="none" stroke="rgb(255,255,255)" stroke-width="5" stroke-opacity="1" points="626.255,363.9 784.93,363.9"/>
	<polyline fill="none" stroke="rgb(0,0,0)" stroke-opacity="1" points="626.255,363.9 784.93,363.9"/>
	<polyline fill="none" stroke="rgb(255,255,255)" stroke-width="5" stroke-opacity="1" points="908.985,363.9 1056.12,363.9"/>
	<polyline fill="none" stroke="rgb(0,0,0)" stroke-opacity="1" points="908.985,363.9 1056.12,363.9"/>
	<polygon fill="rgb(255,0,255)" stroke="rgb(255,0,255)" stroke-opacity="1" points="40.6,479.3 156,537 40.6,594.7 40.6,479.3"/>
	<text fill="rgb(255,0,255)" font-size="27" font-family="helvetica" text-anchor="middle" dominant-baseline="central" x="29.06" y="453.335">u</text>
	<polygon fill="rgb(255,255,255)" stroke="rgb(255,0,255)" stroke-opacity="1" points="1310,479.3 1425.4,537 1310,594.7 1310,479.3"/>
	<text fill="rgb(255,0,255)" font-size="56" font-family="helvetica" text-anchor="middle" dominant-baseline="central" x="1460.02" y="438.91">y</text>
	<polygon fill="black" stroke="rgb(0,0,0)" stroke-opacity="1" points="375.26,369.67 386.8,363.9 375.26,358.13 375.26,369.67"/>
	<rect fill="rgb(255,255,255)" stroke="rgb(0,0,0)" stroke-opacity="1" x="502.2" y="361.015" width="5.77" height="5.77"/>
	<polygon fill="black" stroke="rgb(0,0,0)" stroke-opacity="1" points="779.16,369.67 790.7,363.9 779.16,358.13 779.16,369.67"/>
	<rect fill="rgb(255,255,255)" stroke="rgb(0,0,0)" stroke-opacity="1" x="906.1" y="361.015" width="5.77" height="5.77"/>
	<polygon fill="rgb(255,255,255)" stroke="rgb(255,0,255)" stroke-opacity="1" points="854.17,421.6 848.4,433.14 842.63,421.6 854.17,421.6"/>
	<polygon fill="black" stroke="rgb(0,0,0)" stroke-opacity="1" points="588.75,358.13 600.29,363.9 588.75,369.67 588.75,358.13"/>
	<rect fill="rgb(255,255,255)" stroke="rgb(0,0,0)" stroke-opacity="1" transform="translate(626.255, 363.9) translate(0, 0) scale(1,-1)" x="-2.885" y="-2.885" width="5.77" height="5.77"/>
	<polygon fill="rgb(255,0,255)" stroke="rgb(255,0,255)" stroke-opacity="1" points="606.06,444.68 617.6,421.6 629.14,444.68 606.06,444.68"/>
	<polygon fill="black" stroke="rgb(0,0,0)" stroke-opacity="1" points="1050.35,358.13 1061.89,363.9 1050.35,369.67 1050.35,358.13"/>
	<rect fill="rgb(255,255,255)" stroke="rgb(0,0,0)" stroke-opacity="1" transform="translate(1087.86, 363.9) translate(0, 0) scale(1,-1)" x="-2.885" y="-2.885" width="5.77" height="5.77"/>
</svg>
