<?xml version="1.0" encoding="UTF-8" standalone="no"?>
<svg
   xmlns:dc="http://purl.org/dc/elements/1.1/"
   xmlns:cc="http://creativecommons.org/ns#"
   xmlns:rdf="http://www.w3.org/1999/02/22-rdf-syntax-ns#"
   xmlns:svg="http://www.w3.org/2000/svg"
   xmlns="http://www.w3.org/2000/svg"
   width="255.24553mm"
   height="47.927761mm"
   viewBox="0 0 255.24553 47.927761"
   version="1.1"
   id="svg1553">
  <defs
     id="defs1547">
    <marker
       style="overflow:visible"
       orient="auto"
       overflow="visible"
       id="marker5381-6-6-1">
      <path
         style="fill-rule:evenodd;stroke:#000000;stroke-width:1pt"
         id="path4488-0-34"
         d="M 0,0 5,-5 -12.5,0 5,5 Z"
         transform="matrix(-0.8,0,0,-0.8,-10,0)" />
    </marker>
    <marker
       style="overflow:visible"
       orient="auto"
       overflow="visible"
       id="marker5553-0-3-9">
      <path
         style="fill-rule:evenodd;stroke:#000000;stroke-width:1pt"
         id="path4485-1-4"
         d="M 0,0 5,-5 -12.5,0 5,5 Z"
         transform="matrix(-0.8,0,0,-0.8,-10,0)" />
    </marker>
    <marker
       style="overflow:visible"
       orient="auto"
       overflow="visible"
       id="marker5381-6-6-1-5">
      <path
         style="fill-rule:evenodd;stroke:#000000;stroke-width:1pt"
         id="path4488-0-34-9"
         d="M 0,0 5,-5 -12.5,0 5,5 Z"
         transform="matrix(-0.8,0,0,-0.8,-10,0)" />
    </marker>
    <marker
       style="overflow:visible"
       orient="auto"
       overflow="visible"
       id="marker5553-0-3-9-9">
      <path
         style="fill-rule:evenodd;stroke:#000000;stroke-width:1pt"
         id="path4485-1-4-1"
         d="M 0,0 5,-5 -12.5,0 5,5 Z"
         transform="matrix(-0.8,0,0,-0.8,-10,0)" />
    </marker>
  </defs>
  <metadata
     id="metadata1550">
    <rdf:RDF>
      <cc:Work
         rdf:about="">
        <dc:format>image/svg+xml</dc:format>
        <dc:type
           rdf:resource="http://purl.org/dc/dcmitype/StillImage" />
        <dc:title></dc:title>
      </cc:Work>
    </rdf:RDF>
  </metadata>
  <path
     style="fill:none;fill-opacity:1;stroke:#000000;stroke-width:0.0605999;stroke-opacity:0.666667"
     id="path4497-0-5"
     d="m 138.09915,47.697083 c -8.37579,-0.61621 -15.19627,-2.39412 -18.7521,-4.88816 -1.68806,-1.18397 -2.19324,-1.96493 -2.19324,-3.39069 0,-1.41128 0.49182,-2.18621 2.1282,-3.35329 3.38262,-2.41232 9.55498,-4.08982 17.77256,-4.83022 3.62604,-0.32668 9.45184,-0.34922 13.04816,-0.0505 7.10584,0.59028 12.65528,1.84512 16.44924,3.71963 4.93012,2.43553 5.58369,5.41258 1.76623,8.04545 -3.35077,2.3113 -10.09836,4.06552 -18.05659,4.69441 -3.25256,0.25698 -9.0481,0.28232 -12.16326,0.0529 z" />
  <path
     style="fill:none;stroke:#000000;stroke-width:0.156991;marker-end:url(#marker5381-6-6-1-5)"
     id="path4499-2-7"
     d="M 144.92401,16.680978 V 31.203613" />
  <path
     d="m 134.34975,31.346483 c -14.39941,-6.957825 2.36702,-14.634105 2.36702,-14.634105"
     id="path4503-4-4"
     style="fill:none;stroke:#000000;stroke-width:0.184705px;marker-end:url(#marker5553-0-3-9-9)" />
  <text
     xml:space="preserve"
     style="font-style:normal;font-weight:normal;font-size:4.23333px;line-height:1.25;font-family:sans-serif;text-align:center;letter-spacing:0px;word-spacing:0px;text-anchor:middle;fill:#000000;fill-opacity:1;stroke:none;stroke-width:0.264583"
     x="144.44223"
     y="6.9865818"
     id="text4487-8-5-3-12"><tspan
       x="144.44223"
       y="6.9865818"
       style="font-size:4.23333px;text-align:center;text-anchor:middle;fill:#000000;stroke-width:0.264583"
       id="tspan10861">Initialize plant in </tspan><tspan
       x="144.44223"
       y="12.278245"
       style="font-size:4.23333px;text-align:center;text-anchor:middle;fill:#000000;stroke-width:0.264583"
       id="tspan10886">WSE-only mode</tspan></text>
  <path
     style="fill:none;fill-opacity:1;stroke:#000000;stroke-width:0.0623623;stroke-opacity:0.666667"
     id="path4497-0-4-3"
     d="m 136.71677,16.712378 c -8.86906,-0.616271 -16.09119,-2.394371 -19.85643,-4.888681 -1.78747,-1.18412 -2.32239,-1.9651597 -2.32239,-3.3910799 0,-1.41144 0.52078,-2.18646 2.25352,-3.35367 3.58183,-2.41259 10.11767,-4.09026997 18.8192,-4.83074996 3.83959,-0.32673 10.00847,-0.34926 13.81658,-0.0505 7.52432,0.59033999 13.40057,1.84531996 17.41795,3.72002996 5.22047,2.4358 5.91253,5.41319 1.87025,8.0463599 -3.54809,2.31155 -10.69306,4.065971 -19.11997,4.69492 -3.4441,0.257021 -9.58093,0.28235 -12.87955,0.0529 z" />
  <text
     xml:space="preserve"
     style="font-style:normal;font-weight:normal;font-size:4.23333px;line-height:1.25;font-family:sans-serif;letter-spacing:0px;word-spacing:0px;fill:#000000;fill-opacity:1;stroke:none;stroke-width:0.264583"
     x="8.5229368"
     y="24.505747"
     id="text4487-4-1-0-3-4-1-4-9"><tspan
       x="8.5229368"
       y="24.505747"
       style="font-size:4.23333px;line-height:1.4;fill:#000000;stroke-width:0.264583"
       id="tspan6888-9-3-8">TChiWatSupSet - wseTOut(PLRHeaExc = 1).y &gt;=wseDt </tspan><tspan
       x="8.5229368"
       y="30.114908"
       style="font-size:4.23333px;line-height:1.4;fill:#000000;stroke-width:0.264583"
       id="tspan6940-0-1" /></text>
  <text
     xml:space="preserve"
     style="font-style:normal;font-weight:normal;font-size:4.23333px;line-height:1.25;font-family:sans-serif;text-align:center;letter-spacing:0px;word-spacing:0px;text-anchor:middle;fill:#000000;fill-opacity:1;stroke:none;stroke-width:0.264583"
     x="144.49976"
     y="37.805672"
     id="text4487-8-5-3-12-2"><tspan
       x="144.49976"
       y="37.805672"
       style="font-size:4.23333px;text-align:center;text-anchor:middle;fill:#000000;stroke-width:0.264583"
       id="tspan10861-1">Initialize plant in </tspan><tspan
       x="144.49976"
       y="43.097336"
       style="font-size:4.23333px;text-align:center;text-anchor:middle;fill:#000000;stroke-width:0.264583"
       id="tspan10886-3">chiller-only mode</tspan></text>
  <text
     xml:space="preserve"
     style="font-style:normal;font-weight:normal;font-size:4.23333px;line-height:1.25;font-family:sans-serif;letter-spacing:0px;word-spacing:0px;fill:#000000;fill-opacity:1;stroke:none;stroke-width:0.264583"
     x="149.61325"
     y="24.294382"
     id="text4487-4-1-0-3-4-1-4-9-2"><tspan
       x="149.61325"
       y="24.294382"
       style="font-size:4.23333px;line-height:1.4;fill:#000000;stroke-width:0.264583"
       id="tspan6888-9-3-8-7">TChiWatSupSet &lt; wseTOut(PLRHeaExc = 1).y </tspan><tspan
       x="149.61325"
       y="29.903543"
       style="font-size:4.23333px;line-height:1.4;fill:#000000;stroke-width:0.264583"
       id="tspan6940-0-1-3" /></text>
</svg>
