<?xml version="1.0" encoding="UTF-8" standalone="no"?>
<svg
   xmlns:dc="http://purl.org/dc/elements/1.1/"
   xmlns:cc="http://creativecommons.org/ns#"
   xmlns:rdf="http://www.w3.org/1999/02/22-rdf-syntax-ns#"
   xmlns:svg="http://www.w3.org/2000/svg"
   xmlns="http://www.w3.org/2000/svg"
   xmlns:sodipodi="http://sodipodi.sourceforge.net/DTD/sodipodi-0.dtd"
   xmlns:inkscape="http://www.inkscape.org/namespaces/inkscape"
   width="718.82733"
   height="782.30627"
   version="1.1"
   id="svg5447"
   sodipodi:docname="HysteresisWithHold.svg"
   inkscape:version="0.91 r13725"
   inkscape:export-filename="HysteresisWithHold.png"
   inkscape:export-xdpi="86.407402"
   inkscape:export-ydpi="86.407402">
  <metadata
     id="metadata5453">
    <rdf:RDF>
      <cc:Work
         rdf:about="">
        <dc:format>image/svg+xml</dc:format>
        <dc:type
           rdf:resource="http://purl.org/dc/dcmitype/StillImage" />
        <dc:title />
      </cc:Work>
    </rdf:RDF>
  </metadata>
  <defs
     id="defs5451" />
  <sodipodi:namedview
     pagecolor="#ffffff"
     bordercolor="#666666"
     borderopacity="1"
     objecttolerance="10"
     gridtolerance="10"
     guidetolerance="10"
     inkscape:pageopacity="0"
     inkscape:pageshadow="2"
     inkscape:window-width="1413"
     inkscape:window-height="855"
     id="namedview5449"
     showgrid="false"
     inkscape:zoom="1.18"
     inkscape:cx="301.4315"
     inkscape:cy="411.70315"
     inkscape:window-x="27"
     inkscape:window-y="1"
     inkscape:window-maximized="1"
     inkscape:current-layer="svg5447"
     fit-margin-top="0"
     fit-margin-left="0"
     fit-margin-right="0"
     fit-margin-bottom="0">
    <inkscape:grid
       type="xygrid"
       id="grid5467"
       originx="0"
       originy="-8.6937347" />
  </sodipodi:namedview>
  <polyline
     points="59.000000,34.000000 59.000000,373.000000"
     id="polyline4989"
     style="fill:none;stroke:#e5e5e5;stroke-width:1;stroke-opacity:1"
     transform="translate(0,-9)" />
  <polyline
     points="130.777778,34.000000 130.777778,373.000000"
     id="polyline4993"
     style="fill:none;stroke:#e5e5e5;stroke-width:1;stroke-opacity:1"
     transform="translate(0,-9)" />
  <polyline
     points="202.555556,34.000000 202.555556,373.000000"
     id="polyline4997"
     style="fill:none;stroke:#e5e5e5;stroke-width:1;stroke-opacity:1"
     transform="translate(0,-9)" />
  <polyline
     points="274.333333,34.000000 274.333333,373.000000"
     id="polyline5001"
     style="fill:none;stroke:#e5e5e5;stroke-width:1;stroke-opacity:1"
     transform="translate(0,-9)" />
  <polyline
     points="346.111111,34.000000 346.111111,373.000000"
     id="polyline5005"
     style="fill:none;stroke:#e5e5e5;stroke-width:1;stroke-opacity:1"
     transform="translate(0,-9)" />
  <polyline
     points="417.888889,34.000000 417.888889,373.000000"
     id="polyline5009"
     style="fill:none;stroke:#e5e5e5;stroke-width:1;stroke-opacity:1"
     transform="translate(0,-9)" />
  <polyline
     points="489.666667,34.000000 489.666667,373.000000"
     id="polyline5013"
     style="fill:none;stroke:#e5e5e5;stroke-width:1;stroke-opacity:1"
     transform="translate(0,-9)" />
  <polyline
     points="561.444444,34.000000 561.444444,373.000000"
     id="polyline5017"
     style="fill:none;stroke:#e5e5e5;stroke-width:1;stroke-opacity:1"
     transform="translate(0,-9)" />
  <polyline
     points="633.222222,34.000000 633.222222,373.000000"
     id="polyline5021"
     style="fill:none;stroke:#e5e5e5;stroke-width:1;stroke-opacity:1"
     transform="translate(0,-9)" />
  <polyline
     points="705.000000,34.000000 705.000000,373.000000"
     id="polyline5025"
     style="fill:none;stroke:#e5e5e5;stroke-width:1;stroke-opacity:1"
     transform="translate(0,-9)" />
  <polyline
     points="59.000000,373.000000 705.000000,373.000000"
     id="polyline5027"
     style="fill:none;stroke:#e5e5e5;stroke-width:1;stroke-opacity:1"
     transform="translate(0,-9)" />
  <polyline
     points="59.000000,330.625000 705.000000,330.625000"
     id="polyline5029"
     style="fill:none;stroke:#e5e5e5;stroke-width:1;stroke-opacity:1"
     transform="translate(0,-9)" />
  <polyline
     points="59.000000,288.250000 705.000000,288.250000"
     id="polyline5031"
     style="fill:none;stroke:#e5e5e5;stroke-width:1;stroke-opacity:1"
     transform="translate(0,-9)" />
  <polyline
     points="59.000000,245.875000 705.000000,245.875000"
     id="polyline5033"
     style="fill:none;stroke:#e5e5e5;stroke-width:1;stroke-opacity:1"
     transform="translate(0,-9)" />
  <polyline
     points="59.000000,203.500000 705.000000,203.500000"
     id="polyline5035"
     style="fill:none;stroke:#e5e5e5;stroke-width:1;stroke-opacity:1"
     transform="translate(0,-9)" />
  <polyline
     points="59.000000,161.125000 705.000000,161.125000"
     id="polyline5037"
     style="fill:none;stroke:#e5e5e5;stroke-width:1;stroke-opacity:1"
     transform="translate(0,-9)" />
  <polyline
     points="59.000000,118.750000 705.000000,118.750000"
     id="polyline5039"
     style="fill:none;stroke:#e5e5e5;stroke-width:1;stroke-opacity:1"
     transform="translate(0,-9)" />
  <polyline
     points="59.000000,76.375000 705.000000,76.375000"
     id="polyline5041"
     style="fill:none;stroke:#e5e5e5;stroke-width:1;stroke-opacity:1"
     transform="translate(0,-9)" />
  <polyline
     points="59.000000,34.000000 705.000000,34.000000"
     id="polyline5043"
     style="fill:none;stroke:#e5e5e5;stroke-width:1;stroke-opacity:1"
     transform="translate(0,-9)" />
  <polyline
     points="59.000000,288.250000 705.000000,288.250000"
     id="polyline5045"
     style="fill:none;stroke:#c0c0c0;stroke-width:1;stroke-opacity:1"
     transform="translate(0,-9)" />
  <polyline
     points="59.000000,373.000000 705.000000,373.000000"
     id="polyline5047"
     style="fill:none;stroke:#000000;stroke-width:1;stroke-opacity:1"
     transform="translate(0,-9)" />
  <polyline
     points="705.000000,373.000000 705.000000,34.000000"
     id="polyline5049"
     style="fill:none;stroke:#000000;stroke-width:1;stroke-opacity:1"
     transform="translate(0,-9)" />
  <polyline
     points="705.000000,34.000000 59.000000,34.000000"
     id="polyline5051"
     style="fill:none;stroke:#000000;stroke-width:1;stroke-opacity:1"
     transform="translate(0,-9)" />
  <polyline
     points="59.000000,34.000000 59.000000,373.000000"
     id="polyline5053"
     style="fill:none;stroke:#000000;stroke-width:1;stroke-opacity:1"
     transform="translate(0,-9)" />
  <polyline
     points="59.000000,373.000000 59.000000,377.000000"
     id="polyline5055"
     style="fill:none;stroke:#000000;stroke-width:1;stroke-opacity:1"
     transform="translate(0,-9)" />
  <polyline
     points="94.888889,373.000000 94.888889,377.000000"
     id="polyline5057"
     style="fill:none;stroke:#000000;stroke-width:1;stroke-opacity:1"
     transform="translate(0,-9)" />
  <polyline
     points="130.777778,373.000000 130.777778,377.000000"
     id="polyline5059"
     style="fill:none;stroke:#000000;stroke-width:1;stroke-opacity:1"
     transform="translate(0,-9)" />
  <polyline
     points="166.666667,373.000000 166.666667,377.000000"
     id="polyline5061"
     style="fill:none;stroke:#000000;stroke-width:1;stroke-opacity:1"
     transform="translate(0,-9)" />
  <polyline
     points="202.555556,373.000000 202.555556,377.000000"
     id="polyline5063"
     style="fill:none;stroke:#000000;stroke-width:1;stroke-opacity:1"
     transform="translate(0,-9)" />
  <polyline
     points="238.444444,373.000000 238.444444,377.000000"
     id="polyline5065"
     style="fill:none;stroke:#000000;stroke-width:1;stroke-opacity:1"
     transform="translate(0,-9)" />
  <polyline
     points="274.333333,373.000000 274.333333,377.000000"
     id="polyline5067"
     style="fill:none;stroke:#000000;stroke-width:1;stroke-opacity:1"
     transform="translate(0,-9)" />
  <polyline
     points="310.222222,373.000000 310.222222,377.000000"
     id="polyline5069"
     style="fill:none;stroke:#000000;stroke-width:1;stroke-opacity:1"
     transform="translate(0,-9)" />
  <polyline
     points="346.111111,373.000000 346.111111,377.000000"
     id="polyline5071"
     style="fill:none;stroke:#000000;stroke-width:1;stroke-opacity:1"
     transform="translate(0,-9)" />
  <polyline
     points="382.000000,373.000000 382.000000,377.000000"
     id="polyline5073"
     style="fill:none;stroke:#000000;stroke-width:1;stroke-opacity:1"
     transform="translate(0,-9)" />
  <polyline
     points="417.888889,373.000000 417.888889,377.000000"
     id="polyline5075"
     style="fill:none;stroke:#000000;stroke-width:1;stroke-opacity:1"
     transform="translate(0,-9)" />
  <polyline
     points="453.777778,373.000000 453.777778,377.000000"
     id="polyline5077"
     style="fill:none;stroke:#000000;stroke-width:1;stroke-opacity:1"
     transform="translate(0,-9)" />
  <polyline
     points="489.666667,373.000000 489.666667,377.000000"
     id="polyline5079"
     style="fill:none;stroke:#000000;stroke-width:1;stroke-opacity:1"
     transform="translate(0,-9)" />
  <polyline
     points="525.555556,373.000000 525.555556,377.000000"
     id="polyline5081"
     style="fill:none;stroke:#000000;stroke-width:1;stroke-opacity:1"
     transform="translate(0,-9)" />
  <polyline
     points="561.444444,373.000000 561.444444,377.000000"
     id="polyline5083"
     style="fill:none;stroke:#000000;stroke-width:1;stroke-opacity:1"
     transform="translate(0,-9)" />
  <polyline
     points="597.333333,373.000000 597.333333,377.000000"
     id="polyline5085"
     style="fill:none;stroke:#000000;stroke-width:1;stroke-opacity:1"
     transform="translate(0,-9)" />
  <polyline
     points="633.222222,373.000000 633.222222,377.000000"
     id="polyline5087"
     style="fill:none;stroke:#000000;stroke-width:1;stroke-opacity:1"
     transform="translate(0,-9)" />
  <polyline
     points="669.111111,373.000000 669.111111,377.000000"
     id="polyline5089"
     style="fill:none;stroke:#000000;stroke-width:1;stroke-opacity:1"
     transform="translate(0,-9)" />
  <polyline
     points="705.000000,373.000000 705.000000,377.000000"
     id="polyline5091"
     style="fill:none;stroke:#000000;stroke-width:1;stroke-opacity:1"
     transform="translate(0,-9)" />
  <polyline
     points="59.000000,373.000000 59.000000,379.400000"
     id="polyline5093"
     style="fill:none;stroke:#000000;stroke-width:1;stroke-opacity:1"
     transform="translate(0,-9)" />
  <text
     x="59"
     y="378.5"
     dominant-baseline="central"
     font-size="13"
     id="text5095"
     style="font-size:13px;font-family:helvetica;dominant-baseline:central;text-anchor:middle;fill:#000000">0</text>
  <polyline
     points="130.777778,373.000000 130.777778,379.400000"
     id="polyline5097"
     style="fill:none;stroke:#000000;stroke-width:1;stroke-opacity:1"
     transform="translate(0,-9)" />
  <text
     x="130.778"
     y="378.5"
     dominant-baseline="central"
     font-size="13"
     id="text5099"
     style="font-size:13px;font-family:helvetica;dominant-baseline:central;text-anchor:middle;fill:#000000">200</text>
  <polyline
     points="202.555556,373.000000 202.555556,379.400000"
     id="polyline5101"
     style="fill:none;stroke:#000000;stroke-width:1;stroke-opacity:1"
     transform="translate(0,-9)" />
  <text
     x="202.556"
     y="378.5"
     dominant-baseline="central"
     font-size="13"
     id="text5103"
     style="font-size:13px;font-family:helvetica;dominant-baseline:central;text-anchor:middle;fill:#000000">400</text>
  <polyline
     points="274.333333,373.000000 274.333333,379.400000"
     id="polyline5105"
     style="fill:none;stroke:#000000;stroke-width:1;stroke-opacity:1"
     transform="translate(0,-9)" />
  <text
     x="274.33301"
     y="378.5"
     dominant-baseline="central"
     font-size="13"
     id="text5107"
     style="font-size:13px;font-family:helvetica;dominant-baseline:central;text-anchor:middle;fill:#000000">600</text>
  <polyline
     points="346.111111,373.000000 346.111111,379.400000"
     id="polyline5109"
     style="fill:none;stroke:#000000;stroke-width:1;stroke-opacity:1"
     transform="translate(0,-9)" />
  <text
     x="346.11099"
     y="378.5"
     dominant-baseline="central"
     font-size="13"
     id="text5111"
     style="font-size:13px;font-family:helvetica;dominant-baseline:central;text-anchor:middle;fill:#000000">800</text>
  <polyline
     points="417.888889,373.000000 417.888889,379.400000"
     id="polyline5113"
     style="fill:none;stroke:#000000;stroke-width:1;stroke-opacity:1"
     transform="translate(0,-9)" />
  <text
     x="417.88901"
     y="378.5"
     dominant-baseline="central"
     font-size="13"
     id="text5115"
     style="font-size:13px;font-family:helvetica;dominant-baseline:central;text-anchor:middle;fill:#000000">1000</text>
  <polyline
     points="489.666667,373.000000 489.666667,379.400000"
     id="polyline5117"
     style="fill:none;stroke:#000000;stroke-width:1;stroke-opacity:1"
     transform="translate(0,-9)" />
  <text
     x="489.66699"
     y="378.5"
     dominant-baseline="central"
     font-size="13"
     id="text5119"
     style="font-size:13px;font-family:helvetica;dominant-baseline:central;text-anchor:middle;fill:#000000">1200</text>
  <polyline
     points="561.444444,373.000000 561.444444,379.400000"
     id="polyline5121"
     style="fill:none;stroke:#000000;stroke-width:1;stroke-opacity:1"
     transform="translate(0,-9)" />
  <text
     x="561.44397"
     y="378.5"
     dominant-baseline="central"
     font-size="13"
     id="text5123"
     style="font-size:13px;font-family:helvetica;dominant-baseline:central;text-anchor:middle;fill:#000000">1400</text>
  <polyline
     points="633.222222,373.000000 633.222222,379.400000"
     id="polyline5125"
     style="fill:none;stroke:#000000;stroke-width:1;stroke-opacity:1"
     transform="translate(0,-9)" />
  <text
     x="633.22198"
     y="378.5"
     dominant-baseline="central"
     font-size="13"
     id="text5127"
     style="font-size:13px;font-family:helvetica;dominant-baseline:central;text-anchor:middle;fill:#000000">1600</text>
  <polyline
     points="705.000000,373.000000 705.000000,379.400000"
     id="polyline5129"
     style="fill:none;stroke:#000000;stroke-width:1;stroke-opacity:1"
     transform="translate(0,-9)" />
  <text
     x="705"
     y="378.5"
     dominant-baseline="central"
     font-size="13"
     id="text5131"
     style="font-size:13px;font-family:helvetica;dominant-baseline:central;text-anchor:middle;fill:#000000">1800</text>
  <polyline
     points="55.000000,373.000000 59.000000,373.000000"
     id="polyline5133"
     style="fill:none;stroke:#000000;stroke-width:1;stroke-opacity:1"
     transform="translate(0,-9)" />
  <polyline
     points="55.000000,330.625000 59.000000,330.625000"
     id="polyline5135"
     style="fill:none;stroke:#000000;stroke-width:1;stroke-opacity:1"
     transform="translate(0,-9)" />
  <polyline
     points="55.000000,288.250000 59.000000,288.250000"
     id="polyline5137"
     style="fill:none;stroke:#000000;stroke-width:1;stroke-opacity:1"
     transform="translate(0,-9)" />
  <polyline
     points="55.000000,245.875000 59.000000,245.875000"
     id="polyline5139"
     style="fill:none;stroke:#000000;stroke-width:1;stroke-opacity:1"
     transform="translate(0,-9)" />
  <polyline
     points="55.000000,203.500000 59.000000,203.500000"
     id="polyline5141"
     style="fill:none;stroke:#000000;stroke-width:1;stroke-opacity:1"
     transform="translate(0,-9)" />
  <polyline
     points="55.000000,161.125000 59.000000,161.125000"
     id="polyline5143"
     style="fill:none;stroke:#000000;stroke-width:1;stroke-opacity:1"
     transform="translate(0,-9)" />
  <polyline
     points="55.000000,118.750000 59.000000,118.750000"
     id="polyline5145"
     style="fill:none;stroke:#000000;stroke-width:1;stroke-opacity:1"
     transform="translate(0,-9)" />
  <polyline
     points="55.000000,76.375000 59.000000,76.375000"
     id="polyline5147"
     style="fill:none;stroke:#000000;stroke-width:1;stroke-opacity:1"
     transform="translate(0,-9)" />
  <polyline
     points="55.000000,34.000000 59.000000,34.000000"
     id="polyline5149"
     style="fill:none;stroke:#000000;stroke-width:1;stroke-opacity:1"
     transform="translate(0,-9)" />
  <rect
     x="0"
     y="358"
     width="51"
     height="12"
     id="rect5151"
     style="fill:none;stroke:none;stroke-width:1;stroke-dasharray:none;stroke-opacity:1" />
  <polyline
     points="52.600000,373.000000 59.000000,373.000000"
     id="polyline5153"
     style="fill:none;stroke:#000000;stroke-width:1;stroke-opacity:1"
     transform="translate(0,-9)" />
  <text
     x="51"
     y="364"
     dominant-baseline="central"
     font-size="13"
     id="text5155"
     style="font-size:13px;font-family:helvetica;dominant-baseline:central;text-anchor:end;fill:#000000">-0.4</text>
  <polyline
     points="52.600000,330.625000 59.000000,330.625000"
     id="polyline5157"
     style="fill:none;stroke:#000000;stroke-width:1;stroke-opacity:1"
     transform="translate(0,-9)" />
  <text
     x="51"
     y="321.625"
     dominant-baseline="central"
     font-size="13"
     id="text5159"
     style="font-size:13px;font-family:helvetica;dominant-baseline:central;text-anchor:end;fill:#000000">-0.2</text>
  <polyline
     points="52.600000,288.250000 59.000000,288.250000"
     id="polyline5161"
     style="fill:none;stroke:#000000;stroke-width:1;stroke-opacity:1"
     transform="translate(0,-9)" />
  <text
     x="51"
     y="279.25"
     dominant-baseline="central"
     font-size="13"
     id="text5163"
     style="font-size:13px;font-family:helvetica;dominant-baseline:central;text-anchor:end;fill:#000000">0.0</text>
  <polyline
     points="52.600000,245.875000 59.000000,245.875000"
     id="polyline5165"
     style="fill:none;stroke:#000000;stroke-width:1;stroke-opacity:1"
     transform="translate(0,-9)" />
  <text
     x="51"
     y="236.875"
     dominant-baseline="central"
     font-size="13"
     id="text5167"
     style="font-size:13px;font-family:helvetica;dominant-baseline:central;text-anchor:end;fill:#000000">0.2</text>
  <polyline
     points="52.600000,203.500000 59.000000,203.500000"
     id="polyline5169"
     style="fill:none;stroke:#000000;stroke-width:1;stroke-opacity:1"
     transform="translate(0,-9)" />
  <text
     x="51"
     y="194.5"
     dominant-baseline="central"
     font-size="13"
     id="text5171"
     style="font-size:13px;font-family:helvetica;dominant-baseline:central;text-anchor:end;fill:#000000">0.4</text>
  <polyline
     points="52.600000,161.125000 59.000000,161.125000"
     id="polyline5173"
     style="fill:none;stroke:#000000;stroke-width:1;stroke-opacity:1"
     transform="translate(0,-9)" />
  <text
     x="51"
     y="152.125"
     dominant-baseline="central"
     font-size="13"
     id="text5175"
     style="font-size:13px;font-family:helvetica;dominant-baseline:central;text-anchor:end;fill:#000000">0.6</text>
  <polyline
     points="52.600000,118.750000 59.000000,118.750000"
     id="polyline5177"
     style="fill:none;stroke:#000000;stroke-width:1;stroke-opacity:1"
     transform="translate(0,-9)" />
  <text
     x="51"
     y="109.75"
     dominant-baseline="central"
     font-size="13"
     id="text5179"
     style="font-size:13px;font-family:helvetica;dominant-baseline:central;text-anchor:end;fill:#000000">0.8</text>
  <polyline
     points="52.600000,76.375000 59.000000,76.375000"
     id="polyline5181"
     style="fill:none;stroke:#000000;stroke-width:1;stroke-opacity:1"
     transform="translate(0,-9)" />
  <text
     x="51"
     y="67.375"
     dominant-baseline="central"
     font-size="13"
     id="text5183"
     style="font-size:13px;font-family:helvetica;dominant-baseline:central;text-anchor:end;fill:#000000">1.0</text>
  <polyline
     points="52.600000,34.000000 59.000000,34.000000"
     id="polyline5185"
     style="fill:none;stroke:#000000;stroke-width:1;stroke-opacity:1"
     transform="translate(0,-9)" />
  <text
     x="51"
     y="25"
     dominant-baseline="central"
     font-size="13"
     id="text5187"
     style="font-size:13px;font-family:helvetica;dominant-baseline:central;text-anchor:end;fill:#000000">1.2</text>
  <rect
     x="59"
     y="0"
     width="601"
     height="17"
     id="rect5189"
     style="fill:#ffffff;stroke:none;stroke-opacity:0.7" />
  <polyline
     points="59.000000,18.000000 89.000000,18.000000"
     id="polyline5191"
     style="fill:none;stroke:#1c6cc8;stroke-width:1;stroke-opacity:1"
     transform="translate(0,-9)" />
  <text
     x="94"
     y="9"
     dominant-baseline="central"
     font-size="13"
     id="text5193"
     style="font-size:13px;font-family:helvetica;dominant-baseline:central;text-anchor:start;fill:#000000">offHold_300s.u</text>
  <polyline
     points="197.000000,18.000000 227.000000,18.000000"
     id="polyline5195"
     style="fill:none;stroke:#ee2e2f;stroke-width:1;stroke-opacity:1"
     transform="translate(0,-9)" />
  <text
     x="232"
     y="9"
     dominant-baseline="central"
     font-size="13"
     id="text5197"
     style="font-size:13px;font-family:helvetica;dominant-baseline:central;text-anchor:start;fill:#000000">offHold_300s.y</text>
  <polyline
     points="342.000000,18.000000 372.000000,18.000000"
     id="polyline5199"
     style="fill:none;stroke:#008c48;stroke-width:1;stroke-opacity:1"
     transform="translate(0,-9)" />
  <text
     x="377"
     y="9"
     dominant-baseline="central"
     font-size="13"
     id="text5201"
     style="font-size:13px;font-family:helvetica;dominant-baseline:central;text-anchor:start;fill:#000000">offHold_300s.uLow</text>
  <polyline
     points="502.000000,18.000000 532.000000,18.000000"
     id="polyline5203"
     style="fill:none;stroke:#008c48;stroke-width:1;stroke-opacity:1"
     transform="translate(0,-9)" />
  <text
     x="537"
     y="9"
     dominant-baseline="central"
     font-size="13"
     id="text5205"
     style="font-size:13px;font-family:helvetica;dominant-baseline:central;text-anchor:start;fill:#000000">offHold_300s.uHigh</text>
  <clipPath
     id="clipArea1">
    <rect
       x="59"
       y="34"
       width="646"
       height="339"
       id="rect5207" />
  </clipPath>
  <polyline
     clip-path="url(#clipArea1)"
     points="59.000000,288.250000 60.292000,285.589252 61.584000,282.939004 62.876000,280.309717 64.168000,277.711766 65.460000,275.155405 66.752000,272.650722 68.044000,270.207602 69.336000,267.835688 69.766667,267.062500 69.766667,267.062500 70.628001,265.544340 71.920000,263.342600 73.211999,261.239158 74.504000,259.242316 75.796000,257.359955 76.438547,256.468749 76.438547,256.468749 77.088001,255.599500 78.380000,253.967906 79.671999,252.471603 80.964000,251.116505 82.256001,249.907954 83.548001,248.850721 84.840000,247.948982 86.131999,247.206289 87.205213,246.712417 87.205213,246.712417 87.423999,246.625579 88.716001,246.209140 90.008001,245.958617 91.300000,245.874999 92.591999,245.958617 93.883999,246.209140 95.176001,246.625579 96.468001,247.206289 97.760000,247.948982 99.051999,248.850721 100.343999,249.907954 101.636001,251.116505 102.928001,252.471603 104.220000,253.967906 105.512002,255.599500 106.803999,257.359955 108.096001,259.242316 109.387998,261.239158 110.680000,263.342600 111.972002,265.544340 113.263999,267.835688 114.556001,270.207602 115.847998,272.650722 117.140000,275.155405 118.404183,277.656250 118.404183,277.656250 118.432002,277.711766 119.723999,280.309717 121.016001,282.939004 122.307998,285.589252 123.600000,288.250000 124.892002,290.910748 126.183999,293.560996 127.476001,296.190283 128.767998,298.788234 129.170850,299.590252 129.170850,299.590252 130.060000,301.344595 130.271880,301.759156 130.271880,301.759156 131.352002,303.849278 132.643999,306.292398 133.936001,308.664312 135.227998,310.955660 136.520000,313.157400 137.812002,315.260842 139.103999,317.257684 140.396001,319.140045 141.038547,320.031251 141.038547,320.031251 141.687998,320.900500 142.980000,322.532094 144.272002,324.028397 145.563999,325.383495 146.856001,326.592046 148.147998,327.649279 149.440000,328.551018 150.732002,329.293711 152.024004,329.874421 153.315996,330.290860 154.607998,330.541383 155.900000,330.625001 157.192002,330.541383 158.484004,330.290860 159.775996,329.874421 161.067998,329.293711 162.360000,328.551018 163.652002,327.649279 164.944004,326.592046 166.235996,325.383495 166.666667,324.947826 166.666667,324.947826 167.527998,324.028397 168.820000,322.532094 170.112002,320.900500 171.404004,319.140045 172.695996,317.257684 173.987998,315.260842 175.280000,313.157400 176.572002,310.955660 177.864004,308.664312 179.155996,306.292398 180.447998,303.849278 181.740000,301.344595 183.032002,298.788234 184.324004,296.190283 185.615996,293.560996 186.907998,290.910748 188.200000,288.250000 189.492002,285.589252 190.784004,282.939004 192.075996,280.309717 193.367998,277.711766 194.660000,275.155405 195.952002,272.650722 197.244004,270.207602 198.535996,267.835688 199.827998,265.544340 201.120000,263.342600 202.412002,261.239158 203.704004,259.242316 204.995996,257.359955 205.638552,256.468749 205.638552,256.468749 206.287998,255.599500 207.580000,253.967906 208.872002,252.471603 210.164004,251.116505 211.455996,249.907954 212.747998,248.850721 214.040000,247.948982 215.332002,247.206289 216.405219,246.712417 216.405219,246.712417 216.624004,246.625579 217.915996,246.209140 219.207998,245.958617 220.500000,245.874999 221.792002,245.958617 223.084004,246.209140 224.375996,246.625579 225.667998,247.206289 226.960000,247.948982 228.252002,248.850721 229.544004,249.907954 230.835996,251.116505 232.127998,252.471603 233.420000,253.967906 234.712002,255.599500 236.004004,257.359955 237.295996,259.242316 238.587998,261.239158 239.880000,263.342600 241.172002,265.544340 242.464004,267.835688 243.755996,270.207602 245.048009,272.650722 246.340000,275.155405 247.604172,277.656250 247.604172,277.656250 247.631991,277.711766 248.924004,280.309717 250.215996,282.939004 251.508009,285.589252 252.800000,288.250000 254.091991,290.910748 255.384004,293.560996 256.675996,296.190283 257.968009,298.788234 258.370839,299.590252 258.370839,299.590252 259.260000,301.344595 259.471886,301.759156 259.471886,301.759156 260.551991,303.849278 261.844004,306.292398 263.135996,308.664312 264.428009,310.955660 265.720000,313.157400 267.011991,315.260842 268.304004,317.257684 269.595996,319.140045 270.238552,320.031251 270.238552,320.031251 270.888009,320.900500 272.180000,322.532094 273.471991,324.028397 274.764004,325.383495 276.055996,326.592046 277.348009,327.649279 278.640000,328.551018 279.931991,329.293711 281.224004,329.874421 282.515996,330.290860 283.808009,330.541383 285.100000,330.625001 286.391991,330.541383 287.684004,330.290860 288.975996,329.874421 290.268009,329.293711 291.560000,328.551018 292.851991,327.649279 294.144004,326.592046 295.435996,325.383495 296.728009,324.028397 298.020000,322.532094 299.311991,320.900500 300.604004,319.140045 301.895996,317.257684 303.188009,315.260842 304.480000,313.157400 305.771991,310.955660 307.064004,308.664312 308.355996,306.292398 309.648009,303.849278 310.940000,301.344595 312.231991,298.788234 313.524004,296.190283 314.815996,293.560996 316.108009,290.910748 317.400000,288.250000 318.691991,285.589252 319.984004,282.939004 321.275996,280.309717 322.568009,277.711766 323.860000,275.155405 325.151991,272.650722 326.444004,270.207602 327.735996,267.835688 329.028009,265.544340 330.320000,263.342600 331.611991,261.239158 332.904004,259.242316 334.195996,257.359955 334.838552,256.468749 334.838552,256.468749 335.488009,255.599500 336.780000,253.967906 338.071991,252.471603 339.364004,251.116505 340.655996,249.907954 341.948009,248.850721 343.240000,247.948982 344.531991,247.206289 345.605219,246.712417 345.605219,246.712417 345.824004,246.625579 347.115996,246.209140 348.408009,245.958617 349.700000,245.874999 350.991991,245.958617 352.284004,246.209140 353.575996,246.625579 354.868009,247.206289 355.270839,247.420608 355.270839,247.420608 356.160000,247.948982 357.451991,248.850721 358.744004,249.907954 360.035996,251.116505 361.328009,252.471603 362.620000,253.967906 363.911991,255.599500 365.204004,257.359955 366.037505,258.560834 366.037505,258.560834 366.495996,259.242316 367.788009,261.239158 369.080000,263.342600 370.371991,265.544340 371.664004,267.835688 372.955996,270.207602 374.248009,272.650722 375.540000,275.155405 376.804172,277.656250 376.804172,277.656250 376.831991,277.711766 378.124004,280.309717 379.415996,282.939004 380.708009,285.589252 382.000000,288.250000 383.291991,290.910748 384.584004,293.560996 385.875996,296.190283 387.168009,298.788234 387.570839,299.590252 387.570839,299.590252 388.460000,301.344595 388.671886,301.759156 388.671886,301.759156 389.751991,303.849278 391.044004,306.292398 392.335996,308.664312 393.628009,310.955660 394.920000,313.157400 396.211991,315.260842 397.504004,317.257684 398.795996,319.140045 399.438552,320.031251 399.438552,320.031251 400.088009,320.900500 401.380000,322.532094 402.671991,324.028397 403.964004,325.383495 405.255996,326.592046 406.548009,327.649279 407.840000,328.551018 409.131991,329.293711 410.424004,329.874421 411.715996,330.290860 413.008009,330.541383 414.300000,330.625001 415.591991,330.541383 416.884004,330.290860 418.175996,329.874421 419.468009,329.293711 420.760000,328.551018 422.051991,327.649279 423.344004,326.592046 424.635996,325.383495 425.928009,324.028397 427.220000,322.532094 428.511991,320.900500 429.803982,319.140045 431.096018,317.257684 432.388009,315.260842 433.680000,313.157400 434.971991,310.955660 436.263982,308.664312 437.556018,306.292398 438.848009,303.849278 440.140000,301.344595 441.431991,298.788234 442.723982,296.190283 444.016018,293.560996 445.308009,290.910748 446.600000,288.250000 447.891991,285.589252 449.183982,282.939004 450.476018,280.309717 451.768009,277.711766 453.060000,275.155405 454.351991,272.650722 455.643982,270.207602 456.936018,267.835688 458.228009,265.544340 459.520000,263.342600 460.811991,261.239158 462.103982,259.242316 463.396018,257.359955 464.038530,256.468749 464.038530,256.468749 464.688009,255.599500 465.980000,253.967906 467.271991,252.471603 468.563982,251.116505 469.856018,249.907954 471.148009,248.850721 472.440000,247.948982 473.731991,247.206289 474.805197,246.712417 474.805197,246.712417 475.023982,246.625579 476.316018,246.209140 477.608009,245.958617 478.900000,245.874999 480.191991,245.958617 481.483982,246.209140 482.776018,246.625579 484.068009,247.206289 484.470839,247.420608 484.470839,247.420608 485.360000,247.948982 486.651991,248.850721 487.943982,249.907954 489.236018,251.116505 490.528009,252.471603 491.820000,253.967906 493.111991,255.599500 494.403982,257.359955 495.237505,258.560834 495.237505,258.560834 495.696018,259.242316 496.988009,261.239158 498.280000,263.342600 499.571991,265.544340 500.863982,267.835688 502.156018,270.207602 503.448009,272.650722 504.740000,275.155405 506.004172,277.656250 506.004172,277.656250 506.031991,277.711766 507.323982,280.309717 508.616018,282.939004 509.908009,285.589252 511.200000,288.250000 512.491991,290.910748 513.783982,293.560996 515.076018,296.190283 516.368009,298.788234 516.770839,299.590252 516.770839,299.590252 517.660000,301.344595 517.871864,301.759156 517.871864,301.759156 518.951991,303.849278 520.243982,306.292398 521.536018,308.664312 522.828009,310.955660 524.120000,313.157400 525.411991,315.260842 526.703982,317.257684 527.996018,319.140045 528.638530,320.031251 528.638530,320.031251 529.288009,320.900500 530.580000,322.532094 531.871991,324.028397 533.163982,325.383495 534.456018,326.592046 535.748009,327.649279 537.040000,328.551018 538.331991,329.293711 539.623982,329.874421 540.916018,330.290860 542.208009,330.541383 543.500000,330.625001 544.791991,330.541383 546.083982,330.290860 547.376018,329.874421 548.668009,329.293711 549.960000,328.551018 551.251991,327.649279 552.543982,326.592046 553.836018,325.383495 555.128009,324.028397 556.420000,322.532094 557.711991,320.900500 559.003982,319.140045 560.296018,317.257684 561.588009,315.260842 562.880000,313.157400 564.171991,310.955660 565.463982,308.664312 566.756018,306.292398 568.048009,303.849278 569.340000,301.344595 570.631991,298.788234 571.923982,296.190283 573.216018,293.560996 574.508009,290.910748 575.800000,288.250000 577.091991,285.589252 578.383982,282.939004 579.676018,280.309717 580.968009,277.711766 582.260000,275.155405 583.551991,272.650722 584.843982,270.207602 586.136018,267.835688 587.428009,265.544340 588.720000,263.342600 590.011991,261.239158 591.303982,259.242316 592.596018,257.359955 593.238530,256.468749 593.238530,256.468749 593.888009,255.599500 595.180000,253.967906 596.471991,252.471603 597.763982,251.116505 599.056018,249.907954 600.348009,248.850721 601.640000,247.948982 602.931991,247.206289 604.005197,246.712417 604.005197,246.712417 604.223982,246.625579 605.516018,246.209140 606.808009,245.958617 608.100000,245.874999 609.391991,245.958617 610.683982,246.209140 611.976018,246.625579 613.268009,247.206289 613.670839,247.420608 613.670839,247.420608 614.560000,247.948982 615.851991,248.850721 617.143982,249.907954 618.436018,251.116505 619.728009,252.471603 621.020000,253.967906 622.311991,255.599500 623.603982,257.359955 624.437505,258.560834 624.437505,258.560834 624.896018,259.242316 626.188009,261.239158 627.480000,263.342600 628.771991,265.544340 630.063982,267.835688 631.356018,270.207602 632.648009,272.650722 633.940000,275.155405 635.204172,277.656250 635.204172,277.656250 635.231991,277.711766 636.523982,280.309717 637.816018,282.939004 639.108009,285.589252 640.400000,288.250000 641.691991,290.910748 642.983982,293.560996 644.276018,296.190283 645.568009,298.788234 645.970839,299.590252 645.970839,299.590252 646.860000,301.344595 647.071864,301.759156 647.071864,301.759156 648.151991,303.849278 649.443982,306.292398 650.736018,308.664312 652.028009,310.955660 653.320000,313.157400 654.611991,315.260842 655.903982,317.257684 657.196018,319.140045 657.838530,320.031251 657.838530,320.031251 658.488009,320.900500 659.780000,322.532094 661.071991,324.028397 662.363982,325.383495 663.656018,326.592046 664.948009,327.649279 666.240000,328.551018 667.531991,329.293711 668.823982,329.874421 670.116018,330.290860 671.408009,330.541383 672.700000,330.625001 673.991991,330.541383 675.283982,330.290860 676.576018,329.874421 677.868009,329.293711 679.160000,328.551018 680.451991,327.649279 681.743982,326.592046 683.036018,325.383495 684.328009,324.028397 685.620000,322.532094 686.911991,320.900500 688.203982,319.140045 689.496018,317.257684 690.788009,315.260842 692.080000,313.157400 693.371991,310.955660 694.663982,308.664312 695.956018,306.292398 697.248009,303.849278 698.540000,301.344595 699.831991,298.788234 701.123982,296.190283 702.416018,293.560996 703.708009,290.910748 705.000000,288.250000 705.000000,288.250000"
     id="polyline5210"
     style="fill:none;stroke:#1c6cc8;stroke-width:1;stroke-opacity:1"
     transform="translate(0,-9)" />
  <polyline
     clip-path="url(#clipArea1)"
     points="59.000000,288.250000 60.292000,288.250000 61.584000,288.250000 62.876000,288.250000 64.168000,288.250000 65.460000,288.250000 66.752000,288.250000 68.044000,288.250000 69.336000,288.250000 69.766667,288.250000 69.766667,288.250000 70.628001,288.250000 71.920000,288.250000 73.211999,288.250000 74.504000,288.250000 75.796000,288.250000 76.438547,288.250000 76.438547,288.250000 77.088001,288.250000 78.380000,288.250000 79.671999,288.250000 80.964000,288.250000 82.256001,288.250000 83.548001,288.250000 84.840000,288.250000 86.131999,288.250000 87.205213,288.250000 87.205213,288.250000 87.423999,288.250000 88.716001,288.250000 90.008001,288.250000 91.300000,288.250000 92.591999,288.250000 93.883999,288.250000 95.176001,288.250000 96.468001,288.250000 97.760000,288.250000 99.051999,288.250000 100.343999,288.250000 101.636001,288.250000 102.928001,288.250000 104.220000,288.250000 105.512002,288.250000 106.803999,288.250000 108.096001,288.250000 109.387998,288.250000 110.680000,288.250000 111.972002,288.250000 113.263999,288.250000 114.556001,288.250000 115.847998,288.250000 117.140000,288.250000 118.404183,288.250000 118.404183,288.250000 118.432002,288.250000 119.723999,288.250000 121.016001,288.250000 122.307998,288.250000 123.600000,288.250000 124.892002,288.250000 126.183999,288.250000 127.476001,288.250000 128.767998,288.250000 129.170850,288.250000 129.170850,288.250000 130.060000,288.250000 130.271880,288.250000 130.271880,288.250000 131.352002,288.250000 132.643999,288.250000 133.936001,288.250000 135.227998,288.250000 136.520000,288.250000 137.812002,288.250000 139.103999,288.250000 140.396001,288.250000 141.038547,288.250000 141.038547,288.250000 141.687998,288.250000 142.980000,288.250000 144.272002,288.250000 145.563999,288.250000 146.856001,288.250000 148.147998,288.250000 149.440000,288.250000 150.732002,288.250000 152.024004,288.250000 153.315996,288.250000 154.607998,288.250000 155.900000,288.250000 157.192002,288.250000 158.484004,288.250000 159.775996,288.250000 161.067998,288.250000 162.360000,288.250000 163.652002,288.250000 164.944004,288.250000 166.235996,288.250000 166.666667,288.250000 166.666667,288.250000 167.527998,288.250000 168.820000,288.250000 170.112002,288.250000 171.404004,288.250000 172.695996,288.250000 173.987998,288.250000 175.280000,288.250000 176.572002,288.250000 177.864004,288.250000 179.155996,288.250000 180.447998,288.250000 181.740000,288.250000 183.032002,288.250000 184.324004,288.250000 185.615996,288.250000 186.907998,288.250000 188.200000,288.250000 189.492002,288.250000 190.784004,288.250000 192.075996,288.250000 193.367998,288.250000 194.660000,288.250000 195.952002,288.250000 197.244004,288.250000 198.535996,288.250000 199.827998,288.250000 201.120000,288.250000 202.412002,288.250000 203.704004,288.250000 204.995996,288.250000 205.638552,288.250000 205.638552,76.375000 206.287998,76.375000 207.580000,76.375000 208.872002,76.375000 210.164004,76.375000 211.455996,76.375000 212.747998,76.375000 214.040000,76.375000 215.332002,76.375000 216.405219,76.375000 216.405219,76.375000 216.624004,76.375000 217.915996,76.375000 219.207998,76.375000 220.500000,76.375000 221.792002,76.375000 223.084004,76.375000 224.375996,76.375000 225.667998,76.375000 226.960000,76.375000 228.252002,76.375000 229.544004,76.375000 230.835996,76.375000 232.127998,76.375000 233.420000,76.375000 234.712002,76.375000 236.004004,76.375000 237.295996,76.375000 238.587998,76.375000 239.880000,76.375000 241.172002,76.375000 242.464004,76.375000 243.755996,76.375000 245.048009,76.375000 246.340000,76.375000 247.604172,76.375000 247.604172,288.250000 247.631991,288.250000 248.924004,288.250000 250.215996,288.250000 251.508009,288.250000 252.800000,288.250000 254.091991,288.250000 255.384004,288.250000 256.675996,288.250000 257.968009,288.250000 258.370839,288.250000 258.370839,288.250000 259.260000,288.250000 259.471886,288.250000 259.471886,288.250000 260.551991,288.250000 261.844004,288.250000 263.135996,288.250000 264.428009,288.250000 265.720000,288.250000 267.011991,288.250000 268.304004,288.250000 269.595996,288.250000 270.238552,288.250000 270.238552,288.250000 270.888009,288.250000 272.180000,288.250000 273.471991,288.250000 274.764004,288.250000 276.055996,288.250000 277.348009,288.250000 278.640000,288.250000 279.931991,288.250000 281.224004,288.250000 282.515996,288.250000 283.808009,288.250000 285.100000,288.250000 286.391991,288.250000 287.684004,288.250000 288.975996,288.250000 290.268009,288.250000 291.560000,288.250000 292.851991,288.250000 294.144004,288.250000 295.435996,288.250000 296.728009,288.250000 298.020000,288.250000 299.311991,288.250000 300.604004,288.250000 301.895996,288.250000 303.188009,288.250000 304.480000,288.250000 305.771991,288.250000 307.064004,288.250000 308.355996,288.250000 309.648009,288.250000 310.940000,288.250000 312.231991,288.250000 313.524004,288.250000 314.815996,288.250000 316.108009,288.250000 317.400000,288.250000 318.691991,288.250000 319.984004,288.250000 321.275996,288.250000 322.568009,288.250000 323.860000,288.250000 325.151991,288.250000 326.444004,288.250000 327.735996,288.250000 329.028009,288.250000 330.320000,288.250000 331.611991,288.250000 332.904004,288.250000 334.195996,288.250000 334.838552,288.250000 334.838552,288.250000 335.488009,288.250000 336.780000,288.250000 338.071991,288.250000 339.364004,288.250000 340.655996,288.250000 341.948009,288.250000 343.240000,288.250000 344.531991,288.250000 345.605219,288.250000 345.605219,288.250000 345.824004,288.250000 347.115996,288.250000 348.408009,288.250000 349.700000,288.250000 350.991991,288.250000 352.284004,288.250000 353.575996,288.250000 354.868009,288.250000 355.270839,288.250000 355.270839,76.375000 356.160000,76.375000 357.451991,76.375000 358.744004,76.375000 360.035996,76.375000 361.328009,76.375000 362.620000,76.375000 363.911991,76.375000 365.204004,76.375000 366.037505,76.375000 366.037505,76.375000 366.495996,76.375000 367.788009,76.375000 369.080000,76.375000 370.371991,76.375000 371.664004,76.375000 372.955996,76.375000 374.248009,76.375000 375.540000,76.375000 376.804172,76.375000 376.804172,288.250000 376.831991,288.250000 378.124004,288.250000 379.415996,288.250000 380.708009,288.250000 382.000000,288.250000 383.291991,288.250000 384.584004,288.250000 385.875996,288.250000 387.168009,288.250000 387.570839,288.250000 387.570839,288.250000 388.460000,288.250000 388.671886,288.250000 388.671886,288.250000 389.751991,288.250000 391.044004,288.250000 392.335996,288.250000 393.628009,288.250000 394.920000,288.250000 396.211991,288.250000 397.504004,288.250000 398.795996,288.250000 399.438552,288.250000 399.438552,288.250000 400.088009,288.250000 401.380000,288.250000 402.671991,288.250000 403.964004,288.250000 405.255996,288.250000 406.548009,288.250000 407.840000,288.250000 409.131991,288.250000 410.424004,288.250000 411.715996,288.250000 413.008009,288.250000 414.300000,288.250000 415.591991,288.250000 416.884004,288.250000 418.175996,288.250000 419.468009,288.250000 420.760000,288.250000 422.051991,288.250000 423.344004,288.250000 424.635996,288.250000 425.928009,288.250000 427.220000,288.250000 428.511991,288.250000 429.803982,288.250000 431.096018,288.250000 432.388009,288.250000 433.680000,288.250000 434.971991,288.250000 436.263982,288.250000 437.556018,288.250000 438.848009,288.250000 440.140000,288.250000 441.431991,288.250000 442.723982,288.250000 444.016018,288.250000 445.308009,288.250000 446.600000,288.250000 447.891991,288.250000 449.183982,288.250000 450.476018,288.250000 451.768009,288.250000 453.060000,288.250000 454.351991,288.250000 455.643982,288.250000 456.936018,288.250000 458.228009,288.250000 459.520000,288.250000 460.811991,288.250000 462.103982,288.250000 463.396018,288.250000 464.038530,288.250000 464.038530,288.250000 464.688009,288.250000 465.980000,288.250000 467.271991,288.250000 468.563982,288.250000 469.856018,288.250000 471.148009,288.250000 472.440000,288.250000 473.731991,288.250000 474.805197,288.250000 474.805197,288.250000 475.023982,288.250000 476.316018,288.250000 477.608009,288.250000 478.900000,288.250000 480.191991,288.250000 481.483982,288.250000 482.776018,288.250000 484.068009,288.250000 484.470839,288.250000 484.470839,76.375000 485.360000,76.375000 486.651991,76.375000 487.943982,76.375000 489.236018,76.375000 490.528009,76.375000 491.820000,76.375000 493.111991,76.375000 494.403982,76.375000 495.237505,76.375000 495.237505,76.375000 495.696018,76.375000 496.988009,76.375000 498.280000,76.375000 499.571991,76.375000 500.863982,76.375000 502.156018,76.375000 503.448009,76.375000 504.740000,76.375000 506.004172,76.375000 506.004172,288.250000 506.031991,288.250000 507.323982,288.250000 508.616018,288.250000 509.908009,288.250000 511.200000,288.250000 512.491991,288.250000 513.783982,288.250000 515.076018,288.250000 516.368009,288.250000 516.770839,288.250000 516.770839,288.250000 517.660000,288.250000 517.871864,288.250000 517.871864,288.250000 518.951991,288.250000 520.243982,288.250000 521.536018,288.250000 522.828009,288.250000 524.120000,288.250000 525.411991,288.250000 526.703982,288.250000 527.996018,288.250000 528.638530,288.250000 528.638530,288.250000 529.288009,288.250000 530.580000,288.250000 531.871991,288.250000 533.163982,288.250000 534.456018,288.250000 535.748009,288.250000 537.040000,288.250000 538.331991,288.250000 539.623982,288.250000 540.916018,288.250000 542.208009,288.250000 543.500000,288.250000 544.791991,288.250000 546.083982,288.250000 547.376018,288.250000 548.668009,288.250000 549.960000,288.250000 551.251991,288.250000 552.543982,288.250000 553.836018,288.250000 555.128009,288.250000 556.420000,288.250000 557.711991,288.250000 559.003982,288.250000 560.296018,288.250000 561.588009,288.250000 562.880000,288.250000 564.171991,288.250000 565.463982,288.250000 566.756018,288.250000 568.048009,288.250000 569.340000,288.250000 570.631991,288.250000 571.923982,288.250000 573.216018,288.250000 574.508009,288.250000 575.800000,288.250000 577.091991,288.250000 578.383982,288.250000 579.676018,288.250000 580.968009,288.250000 582.260000,288.250000 583.551991,288.250000 584.843982,288.250000 586.136018,288.250000 587.428009,288.250000 588.720000,288.250000 590.011991,288.250000 591.303982,288.250000 592.596018,288.250000 593.238530,288.250000 593.238530,288.250000 593.888009,288.250000 595.180000,288.250000 596.471991,288.250000 597.763982,288.250000 599.056018,288.250000 600.348009,288.250000 601.640000,288.250000 602.931991,288.250000 604.005197,288.250000 604.005197,288.250000 604.223982,288.250000 605.516018,288.250000 606.808009,288.250000 608.100000,288.250000 609.391991,288.250000 610.683982,288.250000 611.976018,288.250000 613.268009,288.250000 613.670839,288.250000 613.670839,76.375000 614.560000,76.375000 615.851991,76.375000 617.143982,76.375000 618.436018,76.375000 619.728009,76.375000 621.020000,76.375000 622.311991,76.375000 623.603982,76.375000 624.437505,76.375000 624.437505,76.375000 624.896018,76.375000 626.188009,76.375000 627.480000,76.375000 628.771991,76.375000 630.063982,76.375000 631.356018,76.375000 632.648009,76.375000 633.940000,76.375000 635.204172,76.375000 635.204172,288.250000 635.231991,288.250000 636.523982,288.250000 637.816018,288.250000 639.108009,288.250000 640.400000,288.250000 641.691991,288.250000 642.983982,288.250000 644.276018,288.250000 645.568009,288.250000 645.970839,288.250000 645.970839,288.250000 646.860000,288.250000 647.071864,288.250000 647.071864,288.250000 648.151991,288.250000 649.443982,288.250000 650.736018,288.250000 652.028009,288.250000 653.320000,288.250000 654.611991,288.250000 655.903982,288.250000 657.196018,288.250000 657.838530,288.250000 657.838530,288.250000 658.488009,288.250000 659.780000,288.250000 661.071991,288.250000 662.363982,288.250000 663.656018,288.250000 664.948009,288.250000 666.240000,288.250000 667.531991,288.250000 668.823982,288.250000 670.116018,288.250000 671.408009,288.250000 672.700000,288.250000 673.991991,288.250000 675.283982,288.250000 676.576018,288.250000 677.868009,288.250000 679.160000,288.250000 680.451991,288.250000 681.743982,288.250000 683.036018,288.250000 684.328009,288.250000 685.620000,288.250000 686.911991,288.250000 688.203982,288.250000 689.496018,288.250000 690.788009,288.250000 692.080000,288.250000 693.371991,288.250000 694.663982,288.250000 695.956018,288.250000 697.248009,288.250000 698.540000,288.250000 699.831991,288.250000 701.123982,288.250000 702.416018,288.250000 703.708009,288.250000 705.000000,288.250000 705.000000,288.250000"
     id="polyline5212"
     style="fill:none;stroke:#ee2e2f;stroke-width:1;stroke-opacity:1"
     transform="translate(0,-9)" />
  <polyline
     clip-path="url(#clipArea1)"
     points="59.000000,277.656250 705.000000,277.656250"
     id="polyline5214"
     style="fill:none;stroke:#008c48;stroke-width:1;stroke-opacity:1"
     transform="translate(0,-9)" />
  <polyline
     clip-path="url(#clipArea1)"
     points="59.000000,256.468749 705.000000,256.468749"
     id="polyline5216"
     style="fill:none;stroke:#008c48;stroke-width:1;stroke-opacity:1"
     transform="translate(0,-9)" />
  <polyline
     points="59.000000,434.000000 59.000000,773.000000"
     id="polyline5218"
     style="fill:none;stroke:#e5e5e5;stroke-opacity:1"
     transform="translate(0,-9)" />
  <polyline
     points="130.777778,434.000000 130.777778,773.000000"
     id="polyline5222"
     style="fill:none;stroke:#e5e5e5;stroke-opacity:1"
     transform="translate(0,-9)" />
  <polyline
     points="202.555556,434.000000 202.555556,773.000000"
     id="polyline5226"
     style="fill:none;stroke:#e5e5e5;stroke-opacity:1"
     transform="translate(0,-9)" />
  <polyline
     points="274.333333,434.000000 274.333333,773.000000"
     id="polyline5230"
     style="fill:none;stroke:#e5e5e5;stroke-opacity:1"
     transform="translate(0,-9)" />
  <polyline
     points="346.111111,434.000000 346.111111,773.000000"
     id="polyline5234"
     style="fill:none;stroke:#e5e5e5;stroke-opacity:1"
     transform="translate(0,-9)" />
  <polyline
     points="417.888889,434.000000 417.888889,773.000000"
     id="polyline5238"
     style="fill:none;stroke:#e5e5e5;stroke-opacity:1"
     transform="translate(0,-9)" />
  <polyline
     points="489.666667,434.000000 489.666667,773.000000"
     id="polyline5242"
     style="fill:none;stroke:#e5e5e5;stroke-opacity:1"
     transform="translate(0,-9)" />
  <polyline
     points="561.444444,434.000000 561.444444,773.000000"
     id="polyline5246"
     style="fill:none;stroke:#e5e5e5;stroke-opacity:1"
     transform="translate(0,-9)" />
  <polyline
     points="633.222222,434.000000 633.222222,773.000000"
     id="polyline5250"
     style="fill:none;stroke:#e5e5e5;stroke-opacity:1"
     transform="translate(0,-9)" />
  <polyline
     points="705.000000,434.000000 705.000000,773.000000"
     id="polyline5254"
     style="fill:none;stroke:#e5e5e5;stroke-opacity:1"
     transform="translate(0,-9)" />
  <polyline
     points="59.000000,773.000000 705.000000,773.000000"
     id="polyline5256"
     style="fill:none;stroke:#e5e5e5;stroke-opacity:1"
     transform="translate(0,-9)" />
  <polyline
     points="59.000000,730.625000 705.000000,730.625000"
     id="polyline5258"
     style="fill:none;stroke:#e5e5e5;stroke-opacity:1"
     transform="translate(0,-9)" />
  <polyline
     points="59.000000,688.250000 705.000000,688.250000"
     id="polyline5260"
     style="fill:none;stroke:#e5e5e5;stroke-opacity:1"
     transform="translate(0,-9)" />
  <polyline
     points="59.000000,645.875000 705.000000,645.875000"
     id="polyline5262"
     style="fill:none;stroke:#e5e5e5;stroke-opacity:1"
     transform="translate(0,-9)" />
  <polyline
     points="59.000000,603.500000 705.000000,603.500000"
     id="polyline5264"
     style="fill:none;stroke:#e5e5e5;stroke-opacity:1"
     transform="translate(0,-9)" />
  <polyline
     points="59.000000,561.125000 705.000000,561.125000"
     id="polyline5266"
     style="fill:none;stroke:#e5e5e5;stroke-opacity:1"
     transform="translate(0,-9)" />
  <polyline
     points="59.000000,518.750000 705.000000,518.750000"
     id="polyline5268"
     style="fill:none;stroke:#e5e5e5;stroke-opacity:1"
     transform="translate(0,-9)" />
  <polyline
     points="59.000000,476.375000 705.000000,476.375000"
     id="polyline5270"
     style="fill:none;stroke:#e5e5e5;stroke-opacity:1"
     transform="translate(0,-9)" />
  <polyline
     points="59.000000,434.000000 705.000000,434.000000"
     id="polyline5272"
     style="fill:none;stroke:#e5e5e5;stroke-opacity:1"
     transform="translate(0,-9)" />
  <polyline
     points="59.000000,688.250000 705.000000,688.250000"
     id="polyline5274"
     style="fill:none;stroke:#c0c0c0;stroke-opacity:1"
     transform="translate(0,-9)" />
  <polyline
     points="59.000000,773.000000 705.000000,773.000000"
     id="polyline5276"
     style="fill:none;stroke:#000000;stroke-width:1;stroke-opacity:1"
     transform="translate(0,-9)" />
  <polyline
     points="705.000000,773.000000 705.000000,434.000000"
     id="polyline5278"
     style="fill:none;stroke:#000000;stroke-width:1;stroke-opacity:1"
     transform="translate(0,-9)" />
  <polyline
     points="705.000000,434.000000 59.000000,434.000000"
     id="polyline5280"
     style="fill:none;stroke:#000000;stroke-width:1;stroke-opacity:1"
     transform="translate(0,-9)" />
  <polyline
     points="59.000000,434.000000 59.000000,773.000000"
     id="polyline5282"
     style="fill:none;stroke:#000000;stroke-width:1;stroke-opacity:1"
     transform="translate(0,-9)" />
  <polyline
     points="59.000000,773.000000 59.000000,777.000000"
     id="polyline5284"
     style="fill:none;stroke:#000000;stroke-width:1;stroke-opacity:1"
     transform="translate(0,-9)" />
  <polyline
     points="94.888889,773.000000 94.888889,777.000000"
     id="polyline5286"
     style="fill:none;stroke:#000000;stroke-width:1;stroke-opacity:1"
     transform="translate(0,-9)" />
  <polyline
     points="130.777778,773.000000 130.777778,777.000000"
     id="polyline5288"
     style="fill:none;stroke:#000000;stroke-width:1;stroke-opacity:1"
     transform="translate(0,-9)" />
  <polyline
     points="166.666667,773.000000 166.666667,777.000000"
     id="polyline5290"
     style="fill:none;stroke:#000000;stroke-width:1;stroke-opacity:1"
     transform="translate(0,-9)" />
  <polyline
     points="202.555556,773.000000 202.555556,777.000000"
     id="polyline5292"
     style="fill:none;stroke:#000000;stroke-width:1;stroke-opacity:1"
     transform="translate(0,-9)" />
  <polyline
     points="238.444444,773.000000 238.444444,777.000000"
     id="polyline5294"
     style="fill:none;stroke:#000000;stroke-width:1;stroke-opacity:1"
     transform="translate(0,-9)" />
  <polyline
     points="274.333333,773.000000 274.333333,777.000000"
     id="polyline5296"
     style="fill:none;stroke:#000000;stroke-width:1;stroke-opacity:1"
     transform="translate(0,-9)" />
  <polyline
     points="310.222222,773.000000 310.222222,777.000000"
     id="polyline5298"
     style="fill:none;stroke:#000000;stroke-width:1;stroke-opacity:1"
     transform="translate(0,-9)" />
  <polyline
     points="346.111111,773.000000 346.111111,777.000000"
     id="polyline5300"
     style="fill:none;stroke:#000000;stroke-width:1;stroke-opacity:1"
     transform="translate(0,-9)" />
  <polyline
     points="382.000000,773.000000 382.000000,777.000000"
     id="polyline5302"
     style="fill:none;stroke:#000000;stroke-width:1;stroke-opacity:1"
     transform="translate(0,-9)" />
  <polyline
     points="417.888889,773.000000 417.888889,777.000000"
     id="polyline5304"
     style="fill:none;stroke:#000000;stroke-width:1;stroke-opacity:1"
     transform="translate(0,-9)" />
  <polyline
     points="453.777778,773.000000 453.777778,777.000000"
     id="polyline5306"
     style="fill:none;stroke:#000000;stroke-width:1;stroke-opacity:1"
     transform="translate(0,-9)" />
  <polyline
     points="489.666667,773.000000 489.666667,777.000000"
     id="polyline5308"
     style="fill:none;stroke:#000000;stroke-width:1;stroke-opacity:1"
     transform="translate(0,-9)" />
  <polyline
     points="525.555556,773.000000 525.555556,777.000000"
     id="polyline5310"
     style="fill:none;stroke:#000000;stroke-width:1;stroke-opacity:1"
     transform="translate(0,-9)" />
  <polyline
     points="561.444444,773.000000 561.444444,777.000000"
     id="polyline5312"
     style="fill:none;stroke:#000000;stroke-width:1;stroke-opacity:1"
     transform="translate(0,-9)" />
  <polyline
     points="597.333333,773.000000 597.333333,777.000000"
     id="polyline5314"
     style="fill:none;stroke:#000000;stroke-width:1;stroke-opacity:1"
     transform="translate(0,-9)" />
  <polyline
     points="633.222222,773.000000 633.222222,777.000000"
     id="polyline5316"
     style="fill:none;stroke:#000000;stroke-width:1;stroke-opacity:1"
     transform="translate(0,-9)" />
  <polyline
     points="669.111111,773.000000 669.111111,777.000000"
     id="polyline5318"
     style="fill:none;stroke:#000000;stroke-width:1;stroke-opacity:1"
     transform="translate(0,-9)" />
  <polyline
     points="705.000000,773.000000 705.000000,777.000000"
     id="polyline5320"
     style="fill:none;stroke:#000000;stroke-width:1;stroke-opacity:1"
     transform="translate(0,-9)" />
  <polyline
     points="59.000000,773.000000 59.000000,779.400000"
     id="polyline5322"
     style="fill:none;stroke:#000000;stroke-width:1;stroke-opacity:1"
     transform="translate(0,-9)" />
  <text
     x="59"
     y="778.5"
     dominant-baseline="central"
     font-size="13"
     id="text5324"
     style="font-size:13px;font-family:helvetica;dominant-baseline:central;text-anchor:middle;fill:#000000">0</text>
  <polyline
     points="130.777778,773.000000 130.777778,779.400000"
     id="polyline5326"
     style="fill:none;stroke:#000000;stroke-width:1;stroke-opacity:1"
     transform="translate(0,-9)" />
  <text
     x="130.778"
     y="778.5"
     dominant-baseline="central"
     font-size="13"
     id="text5328"
     style="font-size:13px;font-family:helvetica;dominant-baseline:central;text-anchor:middle;fill:#000000">200</text>
  <polyline
     points="202.555556,773.000000 202.555556,779.400000"
     id="polyline5330"
     style="fill:none;stroke:#000000;stroke-width:1;stroke-opacity:1"
     transform="translate(0,-9)" />
  <text
     x="202.556"
     y="778.5"
     dominant-baseline="central"
     font-size="13"
     id="text5332"
     style="font-size:13px;font-family:helvetica;dominant-baseline:central;text-anchor:middle;fill:#000000">400</text>
  <polyline
     points="274.333333,773.000000 274.333333,779.400000"
     id="polyline5334"
     style="fill:none;stroke:#000000;stroke-width:1;stroke-opacity:1"
     transform="translate(0,-9)" />
  <text
     x="274.33301"
     y="778.5"
     dominant-baseline="central"
     font-size="13"
     id="text5336"
     style="font-size:13px;font-family:helvetica;dominant-baseline:central;text-anchor:middle;fill:#000000">600</text>
  <polyline
     points="346.111111,773.000000 346.111111,779.400000"
     id="polyline5338"
     style="fill:none;stroke:#000000;stroke-width:1;stroke-opacity:1"
     transform="translate(0,-9)" />
  <text
     x="346.11099"
     y="778.5"
     dominant-baseline="central"
     font-size="13"
     id="text5340"
     style="font-size:13px;font-family:helvetica;dominant-baseline:central;text-anchor:middle;fill:#000000">800</text>
  <polyline
     points="417.888889,773.000000 417.888889,779.400000"
     id="polyline5342"
     style="fill:none;stroke:#000000;stroke-width:1;stroke-opacity:1"
     transform="translate(0,-9)" />
  <text
     x="417.88901"
     y="778.5"
     dominant-baseline="central"
     font-size="13"
     id="text5344"
     style="font-size:13px;font-family:helvetica;dominant-baseline:central;text-anchor:middle;fill:#000000">1000</text>
  <polyline
     points="489.666667,773.000000 489.666667,779.400000"
     id="polyline5346"
     style="fill:none;stroke:#000000;stroke-width:1;stroke-opacity:1"
     transform="translate(0,-9)" />
  <text
     x="489.66699"
     y="778.5"
     dominant-baseline="central"
     font-size="13"
     id="text5348"
     style="font-size:13px;font-family:helvetica;dominant-baseline:central;text-anchor:middle;fill:#000000">1200</text>
  <polyline
     points="561.444444,773.000000 561.444444,779.400000"
     id="polyline5350"
     style="fill:none;stroke:#000000;stroke-width:1;stroke-opacity:1"
     transform="translate(0,-9)" />
  <text
     x="561.44397"
     y="778.5"
     dominant-baseline="central"
     font-size="13"
     id="text5352"
     style="font-size:13px;font-family:helvetica;dominant-baseline:central;text-anchor:middle;fill:#000000">1400</text>
  <polyline
     points="633.222222,773.000000 633.222222,779.400000"
     id="polyline5354"
     style="fill:none;stroke:#000000;stroke-width:1;stroke-opacity:1"
     transform="translate(0,-9)" />
  <text
     x="633.22198"
     y="778.5"
     dominant-baseline="central"
     font-size="13"
     id="text5356"
     style="font-size:13px;font-family:helvetica;dominant-baseline:central;text-anchor:middle;fill:#000000">1600</text>
  <polyline
     points="705.000000,773.000000 705.000000,779.400000"
     id="polyline5358"
     style="fill:none;stroke:#000000;stroke-width:1;stroke-opacity:1"
     transform="translate(0,-9)" />
  <text
     x="705"
     y="778.5"
     dominant-baseline="central"
     font-size="13"
     id="text5360"
     style="font-size:13px;font-family:helvetica;dominant-baseline:central;text-anchor:middle;fill:#000000">1800</text>
  <polyline
     points="55.000000,773.000000 59.000000,773.000000"
     id="polyline5362"
     style="fill:none;stroke:#000000;stroke-width:1;stroke-opacity:1"
     transform="translate(0,-9)" />
  <polyline
     points="55.000000,730.625000 59.000000,730.625000"
     id="polyline5364"
     style="fill:none;stroke:#000000;stroke-width:1;stroke-opacity:1"
     transform="translate(0,-9)" />
  <polyline
     points="55.000000,688.250000 59.000000,688.250000"
     id="polyline5366"
     style="fill:none;stroke:#000000;stroke-width:1;stroke-opacity:1"
     transform="translate(0,-9)" />
  <polyline
     points="55.000000,645.875000 59.000000,645.875000"
     id="polyline5368"
     style="fill:none;stroke:#000000;stroke-width:1;stroke-opacity:1"
     transform="translate(0,-9)" />
  <polyline
     points="55.000000,603.500000 59.000000,603.500000"
     id="polyline5370"
     style="fill:none;stroke:#000000;stroke-width:1;stroke-opacity:1"
     transform="translate(0,-9)" />
  <polyline
     points="55.000000,561.125000 59.000000,561.125000"
     id="polyline5372"
     style="fill:none;stroke:#000000;stroke-width:1;stroke-opacity:1"
     transform="translate(0,-9)" />
  <polyline
     points="55.000000,518.750000 59.000000,518.750000"
     id="polyline5374"
     style="fill:none;stroke:#000000;stroke-width:1;stroke-opacity:1"
     transform="translate(0,-9)" />
  <polyline
     points="55.000000,476.375000 59.000000,476.375000"
     id="polyline5376"
     style="fill:none;stroke:#000000;stroke-width:1;stroke-opacity:1"
     transform="translate(0,-9)" />
  <polyline
     points="55.000000,434.000000 59.000000,434.000000"
     id="polyline5378"
     style="fill:none;stroke:#000000;stroke-width:1;stroke-opacity:1"
     transform="translate(0,-9)" />
  <rect
     x="0"
     y="758"
     width="51"
     height="12"
     id="rect5380"
     style="fill:none;stroke:none;stroke-width:1;stroke-dasharray:none;stroke-opacity:1" />
  <polyline
     points="52.600000,773.000000 59.000000,773.000000"
     id="polyline5382"
     style="fill:none;stroke:#000000;stroke-width:1;stroke-opacity:1"
     transform="translate(0,-9)" />
  <text
     x="51"
     y="764"
     dominant-baseline="central"
     font-size="13"
     id="text5384"
     style="font-size:13px;font-family:helvetica;dominant-baseline:central;text-anchor:end;fill:#000000">-0.4</text>
  <polyline
     points="52.600000,730.625000 59.000000,730.625000"
     id="polyline5386"
     style="fill:none;stroke:#000000;stroke-width:1;stroke-opacity:1"
     transform="translate(0,-9)" />
  <text
     x="51"
     y="721.625"
     dominant-baseline="central"
     font-size="13"
     id="text5388"
     style="font-size:13px;font-family:helvetica;dominant-baseline:central;text-anchor:end;fill:#000000">-0.2</text>
  <polyline
     points="52.600000,688.250000 59.000000,688.250000"
     id="polyline5390"
     style="fill:none;stroke:#000000;stroke-width:1;stroke-opacity:1"
     transform="translate(0,-9)" />
  <text
     x="51"
     y="679.25"
     dominant-baseline="central"
     font-size="13"
     id="text5392"
     style="font-size:13px;font-family:helvetica;dominant-baseline:central;text-anchor:end;fill:#000000">0.0</text>
  <polyline
     points="52.600000,645.875000 59.000000,645.875000"
     id="polyline5394"
     style="fill:none;stroke:#000000;stroke-width:1;stroke-opacity:1"
     transform="translate(0,-9)" />
  <text
     x="51"
     y="636.875"
     dominant-baseline="central"
     font-size="13"
     id="text5396"
     style="font-size:13px;font-family:helvetica;dominant-baseline:central;text-anchor:end;fill:#000000">0.2</text>
  <polyline
     points="52.600000,603.500000 59.000000,603.500000"
     id="polyline5398"
     style="fill:none;stroke:#000000;stroke-width:1;stroke-opacity:1"
     transform="translate(0,-9)" />
  <text
     x="51"
     y="594.5"
     dominant-baseline="central"
     font-size="13"
     id="text5400"
     style="font-size:13px;font-family:helvetica;dominant-baseline:central;text-anchor:end;fill:#000000">0.4</text>
  <polyline
     points="52.600000,561.125000 59.000000,561.125000"
     id="polyline5402"
     style="fill:none;stroke:#000000;stroke-width:1;stroke-opacity:1"
     transform="translate(0,-9)" />
  <text
     x="51"
     y="552.125"
     dominant-baseline="central"
     font-size="13"
     id="text5404"
     style="font-size:13px;font-family:helvetica;dominant-baseline:central;text-anchor:end;fill:#000000">0.6</text>
  <polyline
     points="52.600000,518.750000 59.000000,518.750000"
     id="polyline5406"
     style="fill:none;stroke:#000000;stroke-width:1;stroke-opacity:1"
     transform="translate(0,-9)" />
  <text
     x="51"
     y="509.75"
     dominant-baseline="central"
     font-size="13"
     id="text5408"
     style="font-size:13px;font-family:helvetica;dominant-baseline:central;text-anchor:end;fill:#000000">0.8</text>
  <polyline
     points="52.600000,476.375000 59.000000,476.375000"
     id="polyline5410"
     style="fill:none;stroke:#000000;stroke-width:1;stroke-opacity:1"
     transform="translate(0,-9)" />
  <text
     x="51"
     y="467.375"
     dominant-baseline="central"
     font-size="13"
     id="text5412"
     style="font-size:13px;font-family:helvetica;dominant-baseline:central;text-anchor:end;fill:#000000">1.0</text>
  <polyline
     points="52.600000,434.000000 59.000000,434.000000"
     id="polyline5414"
     style="fill:none;stroke:#000000;stroke-width:1;stroke-opacity:1"
     transform="translate(0,-9)" />
  <text
     x="51"
     y="425"
     dominant-baseline="central"
     font-size="13"
     id="text5416"
     style="font-size:13px;font-family:helvetica;dominant-baseline:central;text-anchor:end;fill:#000000">1.2</text>
  <rect
     x="59"
     y="400"
     width="601"
     height="17"
     id="rect5418"
     style="fill:#ffffff;stroke:none;stroke-opacity:0.7" />
  <polyline
     points="59.000000,418.000000 89.000000,418.000000"
     id="polyline5420"
     style="fill:none;stroke:#1c6cc8;stroke-width:1;stroke-opacity:1"
     transform="translate(0,-9)" />
  <text
     x="94"
     y="409"
     dominant-baseline="central"
     font-size="13"
     id="text5422"
     style="font-size:13px;font-family:helvetica;dominant-baseline:central;text-anchor:start;fill:#000000">onHold_150s.u</text>
  <polyline
     points="197.000000,418.000000 227.000000,418.000000"
     id="polyline5424"
     style="fill:none;stroke:#ee2e2f;stroke-width:1;stroke-opacity:1"
     transform="translate(0,-9)" />
  <text
     x="232"
     y="409"
     dominant-baseline="central"
     font-size="13"
     id="text5426"
     style="font-size:13px;font-family:helvetica;dominant-baseline:central;text-anchor:start;fill:#000000">onHold_150s.y</text>
  <polyline
     points="342.000000,418.000000 372.000000,418.000000"
     id="polyline5428"
     style="fill:none;stroke:#008c48;stroke-width:1;stroke-opacity:1"
     transform="translate(0,-9)" />
  <text
     x="377"
     y="409"
     dominant-baseline="central"
     font-size="13"
     id="text5430"
     style="font-size:13px;font-family:helvetica;dominant-baseline:central;text-anchor:start;fill:#000000">onHold_150s.uLow</text>
  <polyline
     points="502.000000,418.000000 532.000000,418.000000"
     id="polyline5432"
     style="fill:none;stroke:#008c48;stroke-width:1;stroke-opacity:1"
     transform="translate(0,-9)" />
  <text
     x="537"
     y="409"
     dominant-baseline="central"
     font-size="13"
     id="text5434"
     style="font-size:13px;font-family:helvetica;dominant-baseline:central;text-anchor:start;fill:#000000">onHold_150s.uHigh</text>
  <clipPath
     id="clipArea2">
    <rect
       x="59"
       y="434"
       width="646"
       height="339"
       id="rect5436" />
  </clipPath>
  <polyline
     clip-path="url(#clipArea2)"
     points="59.000000,688.250000 60.292000,685.589252 61.584000,682.939004 62.876000,680.309717 64.168000,677.711766 65.460000,675.155405 66.752000,672.650722 68.044000,670.207602 69.336000,667.835688 69.766667,667.062500 69.766667,667.062500 70.628001,665.544340 71.920000,663.342600 73.211999,661.239158 74.504000,659.242316 75.796000,657.359955 76.438547,656.468749 76.438547,656.468749 77.088001,655.599500 78.380000,653.967906 79.671999,652.471603 80.964000,651.116505 82.256001,649.907954 83.548001,648.850721 84.840000,647.948982 86.131999,647.206289 87.205213,646.712417 87.205213,646.712417 87.423999,646.625579 88.716001,646.209140 90.008001,645.958617 91.300000,645.874999 92.591999,645.958617 93.883999,646.209140 95.176001,646.625579 96.468001,647.206289 97.760000,647.948982 99.051999,648.850721 100.343999,649.907954 101.636001,651.116505 102.928001,652.471603 104.220000,653.967906 105.512002,655.599500 106.803999,657.359955 108.096001,659.242316 109.387998,661.239158 110.680000,663.342600 111.972002,665.544340 113.263999,667.835688 114.556001,670.207602 115.847998,672.650722 117.140000,675.155405 118.404183,677.656250 118.404183,677.656250 118.432002,677.711766 119.723999,680.309717 121.016001,682.939004 122.307998,685.589252 123.600000,688.250000 124.892002,690.910748 126.183999,693.560996 127.476001,696.190283 128.767998,698.788234 129.170850,699.590252 129.170850,699.590252 130.060000,701.344595 130.271880,701.759156 130.271880,701.759156 131.352002,703.849278 132.643999,706.292398 133.936001,708.664312 135.227998,710.955660 136.520000,713.157400 137.812002,715.260842 139.103999,717.257684 140.396001,719.140045 141.038547,720.031251 141.038547,720.031251 141.687998,720.900500 142.980000,722.532094 144.272002,724.028397 145.563999,725.383495 146.856001,726.592046 148.147998,727.649279 149.440000,728.551018 150.732002,729.293711 152.024004,729.874421 153.315996,730.290860 154.607998,730.541383 155.900000,730.625001 157.192002,730.541383 158.484004,730.290860 159.775996,729.874421 161.067998,729.293711 162.360000,728.551018 163.652002,727.649279 164.944004,726.592046 166.235996,725.383495 166.666667,724.947826 166.666667,724.947826 167.527998,724.028397 168.820000,722.532094 170.112002,720.900500 171.404004,719.140045 172.695996,717.257684 173.987998,715.260842 175.280000,713.157400 176.572002,710.955660 177.864004,708.664312 179.155996,706.292398 180.447998,703.849278 181.740000,701.344595 183.032002,698.788234 184.324004,696.190283 185.615996,693.560996 186.907998,690.910748 188.200000,688.250000 189.492002,685.589252 190.784004,682.939004 192.075996,680.309717 193.367998,677.711766 194.660000,675.155405 195.952002,672.650722 197.244004,670.207602 198.535996,667.835688 199.827998,665.544340 201.120000,663.342600 202.412002,661.239158 203.704004,659.242316 204.995996,657.359955 205.638552,656.468749 205.638552,656.468749 206.287998,655.599500 207.580000,653.967906 208.872002,652.471603 210.164004,651.116505 211.455996,649.907954 212.747998,648.850721 214.040000,647.948982 215.332002,647.206289 216.405219,646.712417 216.405219,646.712417 216.624004,646.625579 217.915996,646.209140 219.207998,645.958617 220.500000,645.874999 221.792002,645.958617 223.084004,646.209140 224.375996,646.625579 225.667998,647.206289 226.960000,647.948982 228.252002,648.850721 229.544004,649.907954 230.835996,651.116505 232.127998,652.471603 233.420000,653.967906 234.712002,655.599500 236.004004,657.359955 237.295996,659.242316 238.587998,661.239158 239.880000,663.342600 241.172002,665.544340 242.464004,667.835688 243.755996,670.207602 245.048009,672.650722 246.340000,675.155405 247.604172,677.656250 247.604172,677.656250 247.631991,677.711766 248.924004,680.309717 250.215996,682.939004 251.508009,685.589252 252.800000,688.250000 254.091991,690.910748 255.384004,693.560996 256.675996,696.190283 257.968009,698.788234 258.370839,699.590252 258.370839,699.590252 259.260000,701.344595 259.471886,701.759156 259.471886,701.759156 260.551991,703.849278 261.844004,706.292398 263.135996,708.664312 264.428009,710.955660 265.720000,713.157400 267.011991,715.260842 268.304004,717.257684 269.595996,719.140045 270.238552,720.031251 270.238552,720.031251 270.888009,720.900500 272.180000,722.532094 273.471991,724.028397 274.764004,725.383495 276.055996,726.592046 277.348009,727.649279 278.640000,728.551018 279.931991,729.293711 281.224004,729.874421 282.515996,730.290860 283.808009,730.541383 285.100000,730.625001 286.391991,730.541383 287.684004,730.290860 288.975996,729.874421 290.268009,729.293711 291.560000,728.551018 292.851991,727.649279 294.144004,726.592046 295.435996,725.383495 296.728009,724.028397 298.020000,722.532094 299.311991,720.900500 300.604004,719.140045 301.895996,717.257684 303.188009,715.260842 304.480000,713.157400 305.771991,710.955660 307.064004,708.664312 308.355996,706.292398 309.648009,703.849278 310.940000,701.344595 312.231991,698.788234 313.524004,696.190283 314.815996,693.560996 316.108009,690.910748 317.400000,688.250000 318.691991,685.589252 319.984004,682.939004 321.275996,680.309717 322.568009,677.711766 323.860000,675.155405 325.151991,672.650722 326.444004,670.207602 327.735996,667.835688 329.028009,665.544340 330.320000,663.342600 331.611991,661.239158 332.904004,659.242316 334.195996,657.359955 334.838552,656.468749 334.838552,656.468749 335.488009,655.599500 336.780000,653.967906 338.071991,652.471603 339.364004,651.116505 340.655996,649.907954 341.948009,648.850721 343.240000,647.948982 344.531991,647.206289 345.605219,646.712417 345.605219,646.712417 345.824004,646.625579 347.115996,646.209140 348.408009,645.958617 349.700000,645.874999 350.991991,645.958617 352.284004,646.209140 353.575996,646.625579 354.868009,647.206289 355.270839,647.420608 355.270839,647.420608 356.160000,647.948982 357.451991,648.850721 358.744004,649.907954 360.035996,651.116505 361.328009,652.471603 362.620000,653.967906 363.911991,655.599500 365.204004,657.359955 366.037505,658.560834 366.037505,658.560834 366.495996,659.242316 367.788009,661.239158 369.080000,663.342600 370.371991,665.544340 371.664004,667.835688 372.955996,670.207602 374.248009,672.650722 375.540000,675.155405 376.804172,677.656250 376.804172,677.656250 376.831991,677.711766 378.124004,680.309717 379.415996,682.939004 380.708009,685.589252 382.000000,688.250000 383.291991,690.910748 384.584004,693.560996 385.875996,696.190283 387.168009,698.788234 387.570839,699.590252 387.570839,699.590252 388.460000,701.344595 388.671886,701.759156 388.671886,701.759156 389.751991,703.849278 391.044004,706.292398 392.335996,708.664312 393.628009,710.955660 394.920000,713.157400 396.211991,715.260842 397.504004,717.257684 398.795996,719.140045 399.438552,720.031251 399.438552,720.031251 400.088009,720.900500 401.380000,722.532094 402.671991,724.028397 403.964004,725.383495 405.255996,726.592046 406.548009,727.649279 407.840000,728.551018 409.131991,729.293711 410.424004,729.874421 411.715996,730.290860 413.008009,730.541383 414.300000,730.625001 415.591991,730.541383 416.884004,730.290860 418.175996,729.874421 419.468009,729.293711 420.760000,728.551018 422.051991,727.649279 423.344004,726.592046 424.635996,725.383495 425.928009,724.028397 427.220000,722.532094 428.511991,720.900500 429.803982,719.140045 431.096018,717.257684 432.388009,715.260842 433.680000,713.157400 434.971991,710.955660 436.263982,708.664312 437.556018,706.292398 438.848009,703.849278 440.140000,701.344595 441.431991,698.788234 442.723982,696.190283 444.016018,693.560996 445.308009,690.910748 446.600000,688.250000 447.891991,685.589252 449.183982,682.939004 450.476018,680.309717 451.768009,677.711766 453.060000,675.155405 454.351991,672.650722 455.643982,670.207602 456.936018,667.835688 458.228009,665.544340 459.520000,663.342600 460.811991,661.239158 462.103982,659.242316 463.396018,657.359955 464.038530,656.468749 464.038530,656.468749 464.688009,655.599500 465.980000,653.967906 467.271991,652.471603 468.563982,651.116505 469.856018,649.907954 471.148009,648.850721 472.440000,647.948982 473.731991,647.206289 474.805197,646.712417 474.805197,646.712417 475.023982,646.625579 476.316018,646.209140 477.608009,645.958617 478.900000,645.874999 480.191991,645.958617 481.483982,646.209140 482.776018,646.625579 484.068009,647.206289 484.470839,647.420608 484.470839,647.420608 485.360000,647.948982 486.651991,648.850721 487.943982,649.907954 489.236018,651.116505 490.528009,652.471603 491.820000,653.967906 493.111991,655.599500 494.403982,657.359955 495.237505,658.560834 495.237505,658.560834 495.696018,659.242316 496.988009,661.239158 498.280000,663.342600 499.571991,665.544340 500.863982,667.835688 502.156018,670.207602 503.448009,672.650722 504.740000,675.155405 506.004172,677.656250 506.004172,677.656250 506.031991,677.711766 507.323982,680.309717 508.616018,682.939004 509.908009,685.589252 511.200000,688.250000 512.491991,690.910748 513.783982,693.560996 515.076018,696.190283 516.368009,698.788234 516.770839,699.590252 516.770839,699.590252 517.660000,701.344595 517.871864,701.759156 517.871864,701.759156 518.951991,703.849278 520.243982,706.292398 521.536018,708.664312 522.828009,710.955660 524.120000,713.157400 525.411991,715.260842 526.703982,717.257684 527.996018,719.140045 528.638530,720.031251 528.638530,720.031251 529.288009,720.900500 530.580000,722.532094 531.871991,724.028397 533.163982,725.383495 534.456018,726.592046 535.748009,727.649279 537.040000,728.551018 538.331991,729.293711 539.623982,729.874421 540.916018,730.290860 542.208009,730.541383 543.500000,730.625001 544.791991,730.541383 546.083982,730.290860 547.376018,729.874421 548.668009,729.293711 549.960000,728.551018 551.251991,727.649279 552.543982,726.592046 553.836018,725.383495 555.128009,724.028397 556.420000,722.532094 557.711991,720.900500 559.003982,719.140045 560.296018,717.257684 561.588009,715.260842 562.880000,713.157400 564.171991,710.955660 565.463982,708.664312 566.756018,706.292398 568.048009,703.849278 569.340000,701.344595 570.631991,698.788234 571.923982,696.190283 573.216018,693.560996 574.508009,690.910748 575.800000,688.250000 577.091991,685.589252 578.383982,682.939004 579.676018,680.309717 580.968009,677.711766 582.260000,675.155405 583.551991,672.650722 584.843982,670.207602 586.136018,667.835688 587.428009,665.544340 588.720000,663.342600 590.011991,661.239158 591.303982,659.242316 592.596018,657.359955 593.238530,656.468749 593.238530,656.468749 593.888009,655.599500 595.180000,653.967906 596.471991,652.471603 597.763982,651.116505 599.056018,649.907954 600.348009,648.850721 601.640000,647.948982 602.931991,647.206289 604.005197,646.712417 604.005197,646.712417 604.223982,646.625579 605.516018,646.209140 606.808009,645.958617 608.100000,645.874999 609.391991,645.958617 610.683982,646.209140 611.976018,646.625579 613.268009,647.206289 613.670839,647.420608 613.670839,647.420608 614.560000,647.948982 615.851991,648.850721 617.143982,649.907954 618.436018,651.116505 619.728009,652.471603 621.020000,653.967906 622.311991,655.599500 623.603982,657.359955 624.437505,658.560834 624.437505,658.560834 624.896018,659.242316 626.188009,661.239158 627.480000,663.342600 628.771991,665.544340 630.063982,667.835688 631.356018,670.207602 632.648009,672.650722 633.940000,675.155405 635.204172,677.656250 635.204172,677.656250 635.231991,677.711766 636.523982,680.309717 637.816018,682.939004 639.108009,685.589252 640.400000,688.250000 641.691991,690.910748 642.983982,693.560996 644.276018,696.190283 645.568009,698.788234 645.970839,699.590252 645.970839,699.590252 646.860000,701.344595 647.071864,701.759156 647.071864,701.759156 648.151991,703.849278 649.443982,706.292398 650.736018,708.664312 652.028009,710.955660 653.320000,713.157400 654.611991,715.260842 655.903982,717.257684 657.196018,719.140045 657.838530,720.031251 657.838530,720.031251 658.488009,720.900500 659.780000,722.532094 661.071991,724.028397 662.363982,725.383495 663.656018,726.592046 664.948009,727.649279 666.240000,728.551018 667.531991,729.293711 668.823982,729.874421 670.116018,730.290860 671.408009,730.541383 672.700000,730.625001 673.991991,730.541383 675.283982,730.290860 676.576018,729.874421 677.868009,729.293711 679.160000,728.551018 680.451991,727.649279 681.743982,726.592046 683.036018,725.383495 684.328009,724.028397 685.620000,722.532094 686.911991,720.900500 688.203982,719.140045 689.496018,717.257684 690.788009,715.260842 692.080000,713.157400 693.371991,710.955660 694.663982,708.664312 695.956018,706.292398 697.248009,703.849278 698.540000,701.344595 699.831991,698.788234 701.123982,696.190283 702.416018,693.560996 703.708009,690.910748 705.000000,688.250000 705.000000,688.250000"
     id="polyline5439"
     style="fill:none;stroke:#1c6cc8;stroke-width:1;stroke-opacity:1"
     transform="translate(0,-9)" />
  <polyline
     clip-path="url(#clipArea2)"
     points="59.000000,688.250000 60.292000,688.250000 61.584000,688.250000 62.876000,688.250000 64.168000,688.250000 65.460000,688.250000 66.752000,688.250000 68.044000,688.250000 69.336000,688.250000 69.766667,688.250000 69.766667,688.250000 70.628001,688.250000 71.920000,688.250000 73.211999,688.250000 74.504000,688.250000 75.796000,688.250000 76.438547,688.250000 76.438547,476.375000 77.088001,476.375000 78.380000,476.375000 79.671999,476.375000 80.964000,476.375000 82.256001,476.375000 83.548001,476.375000 84.840000,476.375000 86.131999,476.375000 87.205213,476.375000 87.205213,476.375000 87.423999,476.375000 88.716001,476.375000 90.008001,476.375000 91.300000,476.375000 92.591999,476.375000 93.883999,476.375000 95.176001,476.375000 96.468001,476.375000 97.760000,476.375000 99.051999,476.375000 100.343999,476.375000 101.636001,476.375000 102.928001,476.375000 104.220000,476.375000 105.512002,476.375000 106.803999,476.375000 108.096001,476.375000 109.387998,476.375000 110.680000,476.375000 111.972002,476.375000 113.263999,476.375000 114.556001,476.375000 115.847998,476.375000 117.140000,476.375000 118.404183,476.375000 118.404183,476.375000 118.432002,476.375000 119.723999,476.375000 121.016001,476.375000 122.307998,476.375000 123.600000,476.375000 124.892002,476.375000 126.183999,476.375000 127.476001,476.375000 128.767998,476.375000 129.170850,476.375000 129.170850,476.375000 130.060000,476.375000 130.271880,476.375000 130.271880,688.250000 131.352002,688.250000 132.643999,688.250000 133.936001,688.250000 135.227998,688.250000 136.520000,688.250000 137.812002,688.250000 139.103999,688.250000 140.396001,688.250000 141.038547,688.250000 141.038547,688.250000 141.687998,688.250000 142.980000,688.250000 144.272002,688.250000 145.563999,688.250000 146.856001,688.250000 148.147998,688.250000 149.440000,688.250000 150.732002,688.250000 152.024004,688.250000 153.315996,688.250000 154.607998,688.250000 155.900000,688.250000 157.192002,688.250000 158.484004,688.250000 159.775996,688.250000 161.067998,688.250000 162.360000,688.250000 163.652002,688.250000 164.944004,688.250000 166.235996,688.250000 166.666667,688.250000 166.666667,688.250000 167.527998,688.250000 168.820000,688.250000 170.112002,688.250000 171.404004,688.250000 172.695996,688.250000 173.987998,688.250000 175.280000,688.250000 176.572002,688.250000 177.864004,688.250000 179.155996,688.250000 180.447998,688.250000 181.740000,688.250000 183.032002,688.250000 184.324004,688.250000 185.615996,688.250000 186.907998,688.250000 188.200000,688.250000 189.492002,688.250000 190.784004,688.250000 192.075996,688.250000 193.367998,688.250000 194.660000,688.250000 195.952002,688.250000 197.244004,688.250000 198.535996,688.250000 199.827998,688.250000 201.120000,688.250000 202.412002,688.250000 203.704004,688.250000 204.995996,688.250000 205.638552,688.250000 205.638552,476.375000 206.287998,476.375000 207.580000,476.375000 208.872002,476.375000 210.164004,476.375000 211.455996,476.375000 212.747998,476.375000 214.040000,476.375000 215.332002,476.375000 216.405219,476.375000 216.405219,476.375000 216.624004,476.375000 217.915996,476.375000 219.207998,476.375000 220.500000,476.375000 221.792002,476.375000 223.084004,476.375000 224.375996,476.375000 225.667998,476.375000 226.960000,476.375000 228.252002,476.375000 229.544004,476.375000 230.835996,476.375000 232.127998,476.375000 233.420000,476.375000 234.712002,476.375000 236.004004,476.375000 237.295996,476.375000 238.587998,476.375000 239.880000,476.375000 241.172002,476.375000 242.464004,476.375000 243.755996,476.375000 245.048009,476.375000 246.340000,476.375000 247.604172,476.375000 247.604172,476.375000 247.631991,476.375000 248.924004,476.375000 250.215996,476.375000 251.508009,476.375000 252.800000,476.375000 254.091991,476.375000 255.384004,476.375000 256.675996,476.375000 257.968009,476.375000 258.370839,476.375000 258.370839,476.375000 259.260000,476.375000 259.471886,476.375000 259.471886,688.250000 260.551991,688.250000 261.844004,688.250000 263.135996,688.250000 264.428009,688.250000 265.720000,688.250000 267.011991,688.250000 268.304004,688.250000 269.595996,688.250000 270.238552,688.250000 270.238552,688.250000 270.888009,688.250000 272.180000,688.250000 273.471991,688.250000 274.764004,688.250000 276.055996,688.250000 277.348009,688.250000 278.640000,688.250000 279.931991,688.250000 281.224004,688.250000 282.515996,688.250000 283.808009,688.250000 285.100000,688.250000 286.391991,688.250000 287.684004,688.250000 288.975996,688.250000 290.268009,688.250000 291.560000,688.250000 292.851991,688.250000 294.144004,688.250000 295.435996,688.250000 296.728009,688.250000 298.020000,688.250000 299.311991,688.250000 300.604004,688.250000 301.895996,688.250000 303.188009,688.250000 304.480000,688.250000 305.771991,688.250000 307.064004,688.250000 308.355996,688.250000 309.648009,688.250000 310.940000,688.250000 312.231991,688.250000 313.524004,688.250000 314.815996,688.250000 316.108009,688.250000 317.400000,688.250000 318.691991,688.250000 319.984004,688.250000 321.275996,688.250000 322.568009,688.250000 323.860000,688.250000 325.151991,688.250000 326.444004,688.250000 327.735996,688.250000 329.028009,688.250000 330.320000,688.250000 331.611991,688.250000 332.904004,688.250000 334.195996,688.250000 334.838552,688.250000 334.838552,476.375000 335.488009,476.375000 336.780000,476.375000 338.071991,476.375000 339.364004,476.375000 340.655996,476.375000 341.948009,476.375000 343.240000,476.375000 344.531991,476.375000 345.605219,476.375000 345.605219,476.375000 345.824004,476.375000 347.115996,476.375000 348.408009,476.375000 349.700000,476.375000 350.991991,476.375000 352.284004,476.375000 353.575996,476.375000 354.868009,476.375000 355.270839,476.375000 355.270839,476.375000 356.160000,476.375000 357.451991,476.375000 358.744004,476.375000 360.035996,476.375000 361.328009,476.375000 362.620000,476.375000 363.911991,476.375000 365.204004,476.375000 366.037505,476.375000 366.037505,476.375000 366.495996,476.375000 367.788009,476.375000 369.080000,476.375000 370.371991,476.375000 371.664004,476.375000 372.955996,476.375000 374.248009,476.375000 375.540000,476.375000 376.804172,476.375000 376.804172,476.375000 376.831991,476.375000 378.124004,476.375000 379.415996,476.375000 380.708009,476.375000 382.000000,476.375000 383.291991,476.375000 384.584004,476.375000 385.875996,476.375000 387.168009,476.375000 387.570839,476.375000 387.570839,476.375000 388.460000,476.375000 388.671886,476.375000 388.671886,688.250000 389.751991,688.250000 391.044004,688.250000 392.335996,688.250000 393.628009,688.250000 394.920000,688.250000 396.211991,688.250000 397.504004,688.250000 398.795996,688.250000 399.438552,688.250000 399.438552,688.250000 400.088009,688.250000 401.380000,688.250000 402.671991,688.250000 403.964004,688.250000 405.255996,688.250000 406.548009,688.250000 407.840000,688.250000 409.131991,688.250000 410.424004,688.250000 411.715996,688.250000 413.008009,688.250000 414.300000,688.250000 415.591991,688.250000 416.884004,688.250000 418.175996,688.250000 419.468009,688.250000 420.760000,688.250000 422.051991,688.250000 423.344004,688.250000 424.635996,688.250000 425.928009,688.250000 427.220000,688.250000 428.511991,688.250000 429.803982,688.250000 431.096018,688.250000 432.388009,688.250000 433.680000,688.250000 434.971991,688.250000 436.263982,688.250000 437.556018,688.250000 438.848009,688.250000 440.140000,688.250000 441.431991,688.250000 442.723982,688.250000 444.016018,688.250000 445.308009,688.250000 446.600000,688.250000 447.891991,688.250000 449.183982,688.250000 450.476018,688.250000 451.768009,688.250000 453.060000,688.250000 454.351991,688.250000 455.643982,688.250000 456.936018,688.250000 458.228009,688.250000 459.520000,688.250000 460.811991,688.250000 462.103982,688.250000 463.396018,688.250000 464.038530,688.250000 464.038530,476.375000 464.688009,476.375000 465.980000,476.375000 467.271991,476.375000 468.563982,476.375000 469.856018,476.375000 471.148009,476.375000 472.440000,476.375000 473.731991,476.375000 474.805197,476.375000 474.805197,476.375000 475.023982,476.375000 476.316018,476.375000 477.608009,476.375000 478.900000,476.375000 480.191991,476.375000 481.483982,476.375000 482.776018,476.375000 484.068009,476.375000 484.470839,476.375000 484.470839,476.375000 485.360000,476.375000 486.651991,476.375000 487.943982,476.375000 489.236018,476.375000 490.528009,476.375000 491.820000,476.375000 493.111991,476.375000 494.403982,476.375000 495.237505,476.375000 495.237505,476.375000 495.696018,476.375000 496.988009,476.375000 498.280000,476.375000 499.571991,476.375000 500.863982,476.375000 502.156018,476.375000 503.448009,476.375000 504.740000,476.375000 506.004172,476.375000 506.004172,476.375000 506.031991,476.375000 507.323982,476.375000 508.616018,476.375000 509.908009,476.375000 511.200000,476.375000 512.491991,476.375000 513.783982,476.375000 515.076018,476.375000 516.368009,476.375000 516.770839,476.375000 516.770839,476.375000 517.660000,476.375000 517.871864,476.375000 517.871864,688.250000 518.951991,688.250000 520.243982,688.250000 521.536018,688.250000 522.828009,688.250000 524.120000,688.250000 525.411991,688.250000 526.703982,688.250000 527.996018,688.250000 528.638530,688.250000 528.638530,688.250000 529.288009,688.250000 530.580000,688.250000 531.871991,688.250000 533.163982,688.250000 534.456018,688.250000 535.748009,688.250000 537.040000,688.250000 538.331991,688.250000 539.623982,688.250000 540.916018,688.250000 542.208009,688.250000 543.500000,688.250000 544.791991,688.250000 546.083982,688.250000 547.376018,688.250000 548.668009,688.250000 549.960000,688.250000 551.251991,688.250000 552.543982,688.250000 553.836018,688.250000 555.128009,688.250000 556.420000,688.250000 557.711991,688.250000 559.003982,688.250000 560.296018,688.250000 561.588009,688.250000 562.880000,688.250000 564.171991,688.250000 565.463982,688.250000 566.756018,688.250000 568.048009,688.250000 569.340000,688.250000 570.631991,688.250000 571.923982,688.250000 573.216018,688.250000 574.508009,688.250000 575.800000,688.250000 577.091991,688.250000 578.383982,688.250000 579.676018,688.250000 580.968009,688.250000 582.260000,688.250000 583.551991,688.250000 584.843982,688.250000 586.136018,688.250000 587.428009,688.250000 588.720000,688.250000 590.011991,688.250000 591.303982,688.250000 592.596018,688.250000 593.238530,688.250000 593.238530,476.375000 593.888009,476.375000 595.180000,476.375000 596.471991,476.375000 597.763982,476.375000 599.056018,476.375000 600.348009,476.375000 601.640000,476.375000 602.931991,476.375000 604.005197,476.375000 604.005197,476.375000 604.223982,476.375000 605.516018,476.375000 606.808009,476.375000 608.100000,476.375000 609.391991,476.375000 610.683982,476.375000 611.976018,476.375000 613.268009,476.375000 613.670839,476.375000 613.670839,476.375000 614.560000,476.375000 615.851991,476.375000 617.143982,476.375000 618.436018,476.375000 619.728009,476.375000 621.020000,476.375000 622.311991,476.375000 623.603982,476.375000 624.437505,476.375000 624.437505,476.375000 624.896018,476.375000 626.188009,476.375000 627.480000,476.375000 628.771991,476.375000 630.063982,476.375000 631.356018,476.375000 632.648009,476.375000 633.940000,476.375000 635.204172,476.375000 635.204172,476.375000 635.231991,476.375000 636.523982,476.375000 637.816018,476.375000 639.108009,476.375000 640.400000,476.375000 641.691991,476.375000 642.983982,476.375000 644.276018,476.375000 645.568009,476.375000 645.970839,476.375000 645.970839,476.375000 646.860000,476.375000 647.071864,476.375000 647.071864,688.250000 648.151991,688.250000 649.443982,688.250000 650.736018,688.250000 652.028009,688.250000 653.320000,688.250000 654.611991,688.250000 655.903982,688.250000 657.196018,688.250000 657.838530,688.250000 657.838530,688.250000 658.488009,688.250000 659.780000,688.250000 661.071991,688.250000 662.363982,688.250000 663.656018,688.250000 664.948009,688.250000 666.240000,688.250000 667.531991,688.250000 668.823982,688.250000 670.116018,688.250000 671.408009,688.250000 672.700000,688.250000 673.991991,688.250000 675.283982,688.250000 676.576018,688.250000 677.868009,688.250000 679.160000,688.250000 680.451991,688.250000 681.743982,688.250000 683.036018,688.250000 684.328009,688.250000 685.620000,688.250000 686.911991,688.250000 688.203982,688.250000 689.496018,688.250000 690.788009,688.250000 692.080000,688.250000 693.371991,688.250000 694.663982,688.250000 695.956018,688.250000 697.248009,688.250000 698.540000,688.250000 699.831991,688.250000 701.123982,688.250000 702.416018,688.250000 703.708009,688.250000 705.000000,688.250000 705.000000,688.250000"
     id="polyline5441"
     style="fill:none;stroke:#ee2e2f;stroke-width:1;stroke-opacity:1"
     transform="translate(0,-9)" />
  <polyline
     clip-path="url(#clipArea2)"
     points="59.000000,677.656250 705.000000,677.656250"
     id="polyline5443"
     style="fill:none;stroke:#008c48;stroke-width:1;stroke-opacity:1"
     transform="translate(0,-9)" />
  <polyline
     clip-path="url(#clipArea2)"
     points="59.000000,656.468749 705.000000,656.468749"
     id="polyline5445"
     style="fill:none;stroke:#008c48;stroke-width:1;stroke-opacity:1"
     transform="translate(0,-9)" />
  <text
     xml:space="preserve"
     style="font-style:normal;font-variant:normal;font-weight:normal;font-stretch:normal;font-size:14.85866674px;line-height:125%;font-family:sans-serif;-inkscape-font-specification:'sans-serif, Normal';font-variant-ligatures:normal;font-variant-caps:normal;font-variant-numeric:normal;font-feature-settings:normal;text-align:start;letter-spacing:0px;word-spacing:0px;writing-mode:lr;text-anchor:start;fill:#0000ec;fill-opacity:1;stroke:none;stroke-width:0.37147489px;stroke-linecap:butt;stroke-linejoin:miter;stroke-opacity:1;"
     x="326.13898"
     y="41.297443"
     id="text5457"><tspan
       sodipodi:role="line"
       id="tspan4999">Instants when y should be </tspan><tspan
       sodipodi:role="line"
       id="tspan5001">true, but is kept false due to the offHold.</tspan></text>
  <path
     style="opacity:1;fill:none;fill-rule:evenodd;stroke:#0000ec;stroke-width:0.7143569;stroke-linecap:butt;stroke-linejoin:miter;stroke-miterlimit:4;stroke-dasharray:1.42871384, 0.71435692;stroke-dashoffset:0;stroke-opacity:1"
     d="M 334.83855,47.334388 335,324.11865"
     id="path5469"
     inkscape:connector-curvature="0" />
  <path
     style="opacity:1;fill:none;fill-rule:evenodd;stroke:#0000ec;stroke-width:0.7143569;stroke-linecap:butt;stroke-linejoin:miter;stroke-miterlimit:4;stroke-dasharray:1.42871384, 0.71435692;stroke-dashoffset:0;stroke-opacity:1"
     d="m 462.73283,47.334388 0.16145,276.784262"
     id="path5469-1"
     inkscape:connector-curvature="0" />
  <path
     style="opacity:1;fill:none;fill-rule:evenodd;stroke:#0000ec;stroke-width:0.7143569;stroke-linecap:butt;stroke-linejoin:miter;stroke-miterlimit:4;stroke-dasharray:1.42871384, 0.71435692;stroke-dashoffset:0;stroke-opacity:1"
     d="m 593.17351,47.334388 0.16145,276.784262"
     id="path5469-1-7"
     inkscape:connector-curvature="0" />
  <path
     style="opacity:1;fill:none;fill-rule:evenodd;stroke:#0000ec;stroke-width:0.6955182;stroke-linecap:butt;stroke-linejoin:miter;stroke-miterlimit:4;stroke-dasharray:1.39103642, 0.69551822;stroke-dashoffset:0;stroke-opacity:1"
     d="m 118.0991,459.80859 0.16145,262.37829"
     id="path5469-7"
     inkscape:connector-curvature="0" />
  <path
     style="opacity:1;fill:none;fill-rule:evenodd;stroke:#0000ec;stroke-width:0.6955182;stroke-linecap:butt;stroke-linejoin:miter;stroke-miterlimit:4;stroke-dasharray:1.39103642, 0.69551822;stroke-dashoffset:0;stroke-opacity:1"
     d="m 247.91928,459.80859 0.16145,262.37829"
     id="path5469-7-1"
     inkscape:connector-curvature="0" />
  <path
     style="opacity:1;fill:none;fill-rule:evenodd;stroke:#0000ec;stroke-width:0.6955182;stroke-linecap:butt;stroke-linejoin:miter;stroke-miterlimit:4;stroke-dasharray:1.39103642, 0.69551822;stroke-dashoffset:0;stroke-opacity:1"
     d="m 375.88538,459.80859 0.16145,262.37829"
     id="path5469-7-1-1"
     inkscape:connector-curvature="0" />
  <path
     style="opacity:1;fill:none;fill-rule:evenodd;stroke:#0000ec;stroke-width:0.6955182;stroke-linecap:butt;stroke-linejoin:miter;stroke-miterlimit:4;stroke-dasharray:1.39103642, 0.69551822;stroke-dashoffset:0;stroke-opacity:1"
     d="m 506.39386,459.80859 0.16145,262.37829"
     id="path5469-7-1-1-5"
     inkscape:connector-curvature="0" />
  <path
     style="opacity:1;fill:none;fill-rule:evenodd;stroke:#0000ec;stroke-width:0.6955182;stroke-linecap:butt;stroke-linejoin:miter;stroke-miterlimit:4;stroke-dasharray:1.39103642, 0.69551822;stroke-dashoffset:0;stroke-opacity:1"
     d="m 636.05487,459.80859 0.16145,262.37829"
     id="path5469-7-1-1-5-9"
     inkscape:connector-curvature="0" />
  <text
     xml:space="preserve"
     style="font-style:normal;font-variant:normal;font-weight:normal;font-stretch:normal;font-size:14.85866642px;line-height:125%;font-family:sans-serif;-inkscape-font-specification:'sans-serif, Normal';text-align:start;letter-spacing:0px;word-spacing:0px;writing-mode:lr-tb;text-anchor:start;fill:#0000ec;fill-opacity:1;stroke:none;stroke-width:0.37147489px;stroke-linecap:butt;stroke-linejoin:miter;stroke-opacity:1"
     x="84.418365"
     y="447.67679"
     id="text5457-4"
     sodipodi:linespacing="125%"><tspan
       sodipodi:role="line"
       id="tspan5003"
       x="84.418365"
       y="447.67679">Instants when y should be false, but is kept true due to the onHold.</tspan></text>
</svg>
