<?xml version="1.0" encoding="UTF-8" standalone="no"?>
<svg
   xmlns:dc="http://purl.org/dc/elements/1.1/"
   xmlns:cc="http://creativecommons.org/ns#"
   xmlns:rdf="http://www.w3.org/1999/02/22-rdf-syntax-ns#"
   xmlns:svg="http://www.w3.org/2000/svg"
   xmlns="http://www.w3.org/2000/svg"
   xmlns:sodipodi="http://sodipodi.sourceforge.net/DTD/sodipodi-0.dtd"
   xmlns:inkscape="http://www.inkscape.org/namespaces/inkscape"
   width="617.98596"
   height="439.79999"
   version="1.1"
   id="svg2"
   inkscape:version="0.48.4 r9939"
   sodipodi:docname="DualFanDualDuctWithFilteredSpeed.svg"
   inkscape:export-filename="/home/mwetter/proj/ldrd/bie/modeling/github/lbl-srg/modelica-buildings/Buildings/Resources/Documentation/userGuide/source/img/DualFanDualDuctWithFilteredSpeed.png"
   inkscape:export-xdpi="51.84"
   inkscape:export-ydpi="51.84">
  <metadata
     id="metadata200">
    <rdf:RDF>
      <cc:Work
         rdf:about="">
        <dc:format>image/svg+xml</dc:format>
        <dc:type
           rdf:resource="http://purl.org/dc/dcmitype/StillImage" />
        <dc:title />
      </cc:Work>
    </rdf:RDF>
  </metadata>
  <defs
     id="defs198">
    <marker
       inkscape:stockid="Arrow1Lstart"
       orient="auto"
       refY="0"
       refX="0"
       id="Arrow1Lstart"
       style="overflow:visible">
      <path
         id="path3977"
         d="M 0,0 5,-5 -12.5,0 5,5 0,0 z"
         style="fill-rule:evenodd;stroke:#000000;stroke-width:1pt"
         transform="matrix(0.8,0,0,0.8,10,0)"
         inkscape:connector-curvature="0" />
    </marker>
  </defs>
  <sodipodi:namedview
     pagecolor="#ffffff"
     bordercolor="#666666"
     borderopacity="1"
     objecttolerance="10"
     gridtolerance="10"
     guidetolerance="10"
     inkscape:pageopacity="0"
     inkscape:pageshadow="2"
     inkscape:window-width="2347"
     inkscape:window-height="1494"
     id="namedview196"
     showgrid="false"
     inkscape:zoom="2.2107728"
     inkscape:cx="484.70174"
     inkscape:cy="213.84162"
     inkscape:window-x="763"
     inkscape:window-y="249"
     inkscape:window-maximized="0"
     inkscape:current-layer="svg2"
     fit-margin-top="10"
     fit-margin-left="10"
     fit-margin-right="10"
     fit-margin-bottom="10"
     showborder="true"
     inkscape:showpageshadow="true" />
  <polyline
     points="59.000000,46.000000 59.000000,402.000000"
     id="polyline4"
     style="fill:none;stroke:#e5e5e5;stroke-width:1.06201506;stroke-opacity:1"
     transform="matrix(1,0,0,0.8866223,10,6.2153743)" />
  <polyline
     points="101.333333,46.000000 101.333333,402.000000"
     id="polyline6"
     style="fill:none;stroke:#e5e5e5;stroke-width:1.06201506;stroke-opacity:1"
     transform="matrix(1,0,0,0.8866223,10,6.2153743)" />
  <polyline
     points="143.666667,46.000000 143.666667,402.000000"
     id="polyline8"
     style="fill:none;stroke:#e5e5e5;stroke-width:1.06201506;stroke-opacity:1"
     transform="matrix(1,0,0,0.8866223,10,6.2153743)" />
  <polyline
     points="186.000000,46.000000 186.000000,402.000000"
     id="polyline10"
     style="fill:none;stroke:#e5e5e5;stroke-width:1.06201506;stroke-opacity:1"
     transform="matrix(1,0,0,0.8866223,10,6.2153743)" />
  <polyline
     points="228.333333,46.000000 228.333333,402.000000"
     id="polyline12"
     style="fill:none;stroke:#e5e5e5;stroke-width:1.06201506;stroke-opacity:1"
     transform="matrix(1,0,0,0.8866223,10,6.2153743)" />
  <polyline
     points="270.666667,46.000000 270.666667,402.000000"
     id="polyline14"
     style="fill:none;stroke:#e5e5e5;stroke-width:1.06201506;stroke-opacity:1"
     transform="matrix(1,0,0,0.8866223,10,6.2153743)" />
  <polyline
     points="313.000000,46.000000 313.000000,402.000000"
     id="polyline16"
     style="fill:none;stroke:#e5e5e5;stroke-width:1.06201506;stroke-opacity:1"
     transform="matrix(1,0,0,0.8866223,10,6.2153743)" />
  <polyline
     points="355.333333,46.000000 355.333333,402.000000"
     id="polyline18"
     style="fill:none;stroke:#e5e5e5;stroke-width:1.06201506;stroke-opacity:1"
     transform="matrix(1,0,0,0.8866223,10,6.2153743)" />
  <polyline
     points="397.666667,46.000000 397.666667,402.000000"
     id="polyline20"
     style="fill:none;stroke:#e5e5e5;stroke-width:1.06201506;stroke-opacity:1"
     transform="matrix(1,0,0,0.8866223,10,6.2153743)" />
  <polyline
     points="440.000000,46.000000 440.000000,402.000000"
     id="polyline22"
     style="fill:none;stroke:#e5e5e5;stroke-width:1.06201506;stroke-opacity:1"
     transform="matrix(1,0,0,0.8866223,10,6.2153743)" />
  <polyline
     points="482.333333,46.000000 482.333333,402.000000"
     id="polyline24"
     style="fill:none;stroke:#e5e5e5;stroke-width:1.06201506;stroke-opacity:1"
     transform="matrix(1,0,0,0.8866223,10,6.2153743)" />
  <polyline
     points="524.666667,46.000000 524.666667,402.000000"
     id="polyline26"
     style="fill:none;stroke:#e5e5e5;stroke-width:1.06201506;stroke-opacity:1"
     transform="matrix(1,0,0,0.8866223,10,6.2153743)" />
  <polyline
     points="59.000000,402.000000 567.000000,402.000000"
     id="polyline30"
     style="fill:none;stroke:#e5e5e5;stroke-width:1;stroke-opacity:1"
     transform="translate(10,-39)" />
  <polyline
     points="59.000000,362.444444 567.000000,362.444444"
     id="polyline32"
     style="fill:none;stroke:#e5e5e5;stroke-width:1;stroke-opacity:1"
     transform="translate(10,1)" />
  <polyline
     points="59.000000,322.888889 567.000000,322.888889"
     id="polyline34"
     style="fill:none;stroke:#e5e5e5;stroke-width:1;stroke-opacity:1"
     transform="translate(10,1)" />
  <polyline
     points="59.000000,283.333333 567.000000,283.333333"
     id="polyline36"
     style="fill:none;stroke:#e5e5e5;stroke-width:1;stroke-opacity:1"
     transform="translate(10,1)" />
  <polyline
     points="59.000000,243.777778 567.000000,243.777778"
     id="polyline38"
     style="fill:none;stroke:#e5e5e5;stroke-width:1;stroke-opacity:1"
     transform="translate(10,1)" />
  <polyline
     points="59.000000,204.222222 567.000000,204.222222"
     id="polyline40"
     style="fill:none;stroke:#e5e5e5;stroke-width:1;stroke-opacity:1"
     transform="translate(10,1)" />
  <polyline
     points="59.000000,164.666667 567.000000,164.666667"
     id="polyline42"
     style="fill:none;stroke:#e5e5e5;stroke-width:1;stroke-opacity:1"
     transform="translate(10,1)" />
  <polyline
     points="59.000000,125.111111 567.000000,125.111111"
     id="polyline44"
     style="fill:none;stroke:#e5e5e5;stroke-width:1;stroke-opacity:1"
     transform="translate(10,1)" />
  <polyline
     points="59.000000,85.555556 567.000000,85.555556"
     id="polyline46"
     style="fill:none;stroke:#e5e5e5;stroke-width:1;stroke-opacity:1"
     transform="translate(10,1)" />
  <polyline
     points="59.000000,46.000000 567.000000,46.000000"
     id="polyline48"
     style="fill:none;stroke:#e5e5e5;stroke-width:1;stroke-opacity:1"
     transform="translate(10,1)" />
  <polyline
     points="59.000000,362.444444 567.000000,362.444444"
     id="polyline50"
     style="fill:none;stroke:#c0c0c0;stroke-width:1;stroke-opacity:1"
     transform="translate(10,1)" />
  <polyline
     points="59.000000,402.000000 567.000000,402.000000"
     id="polyline52"
     style="fill:none;stroke:#000000;stroke-width:1;stroke-opacity:1"
     transform="translate(10,-39)" />
  <polyline
     points="567.000000,402.000000 567.000000,46.000000"
     id="polyline54"
     style="fill:none;stroke:#000000;stroke-width:1.06201506;stroke-opacity:1"
     transform="matrix(1,0,0,0.8866223,10,6.2153743)" />
  <polyline
     points="567.000000,46.000000 59.000000,46.000000"
     id="polyline56"
     style="fill:none;stroke:#000000;stroke-width:1;stroke-opacity:1"
     transform="translate(10,1)" />
  <polyline
     points="59.000000,46.000000 59.000000,402.000000"
     id="polyline58"
     style="fill:none;stroke:#000000;stroke-width:1.05266738;stroke-opacity:1"
     transform="matrix(1,0,0,0.90243852,10,5.4390475)" />
  <polyline
     points="59.000000,402.000000 59.000000,406.000000"
     id="polyline60"
     style="fill:none;stroke:#000000;stroke-width:1;stroke-opacity:1"
     transform="translate(10,-39)" />
  <polyline
     points="101.333333,402.000000 101.333333,406.000000"
     id="polyline62"
     style="fill:none;stroke:#000000;stroke-width:1;stroke-opacity:1"
     transform="translate(10,-39)" />
  <polyline
     points="143.666667,402.000000 143.666667,406.000000"
     id="polyline64"
     style="fill:none;stroke:#000000;stroke-width:1;stroke-opacity:1"
     transform="translate(10,-39)" />
  <polyline
     points="186.000000,402.000000 186.000000,406.000000"
     id="polyline66"
     style="fill:none;stroke:#000000;stroke-width:1;stroke-opacity:1"
     transform="translate(10,-39)" />
  <polyline
     points="228.333333,402.000000 228.333333,406.000000"
     id="polyline68"
     style="fill:none;stroke:#000000;stroke-width:1;stroke-opacity:1"
     transform="translate(10,-39)" />
  <polyline
     points="270.666667,402.000000 270.666667,406.000000"
     id="polyline70"
     style="fill:none;stroke:#000000;stroke-width:1;stroke-opacity:1"
     transform="translate(10,-39)" />
  <polyline
     points="313.000000,402.000000 313.000000,406.000000"
     id="polyline72"
     style="fill:none;stroke:#000000;stroke-width:1;stroke-opacity:1"
     transform="translate(10,-39)" />
  <polyline
     points="355.333333,402.000000 355.333333,406.000000"
     id="polyline74"
     style="fill:none;stroke:#000000;stroke-width:1;stroke-opacity:1"
     transform="translate(10,-39)" />
  <polyline
     points="397.666667,402.000000 397.666667,406.000000"
     id="polyline76"
     style="fill:none;stroke:#000000;stroke-width:1;stroke-opacity:1"
     transform="translate(10,-39)" />
  <polyline
     points="440.000000,402.000000 440.000000,406.000000"
     id="polyline78"
     style="fill:none;stroke:#000000;stroke-width:1;stroke-opacity:1"
     transform="translate(10,-39)" />
  <polyline
     points="482.333333,402.000000 482.333333,406.000000"
     id="polyline80"
     style="fill:none;stroke:#000000;stroke-width:1;stroke-opacity:1"
     transform="translate(10,-39)" />
  <polyline
     points="524.666667,402.000000 524.666667,406.000000"
     id="polyline82"
     style="fill:none;stroke:#000000;stroke-width:1;stroke-opacity:1"
     transform="translate(10,-39)" />
  <polyline
     points="567.000000,402.000000 567.000000,406.000000"
     id="polyline84"
     style="fill:none;stroke:#000000;stroke-width:1;stroke-opacity:1"
     transform="translate(10,-39)" />
  <polyline
     points="59.000000,402.000000 59.000000,408.400000"
     id="polyline86"
     style="fill:none;stroke:#000000;stroke-width:1;stroke-opacity:1"
     transform="translate(10,-39)" />
  <text
     x="69"
     y="395.5"
     dominant-baseline="central"
     font-size="20"
     id="text88"
     style="font-size:20px;text-anchor:middle;fill:#000000;font-family:helvetica">1.60E7</text>
  <polyline
     points="143.666667,402.000000 143.666667,408.400000"
     id="polyline90"
     style="fill:none;stroke:#000000;stroke-width:1;stroke-opacity:1"
     transform="translate(10,-39)" />
  <text
     x="153.66701"
     y="395.5"
     dominant-baseline="central"
     font-size="20"
     id="text92"
     style="font-size:20px;text-anchor:middle;fill:#000000;font-family:helvetica">1.61E7</text>
  <polyline
     points="228.333333,402.000000 228.333333,408.400000"
     id="polyline94"
     style="fill:none;stroke:#000000;stroke-width:1;stroke-opacity:1"
     transform="translate(10,-39)" />
  <text
     x="238.33299"
     y="395.5"
     dominant-baseline="central"
     font-size="20"
     id="text96"
     style="font-size:20px;text-anchor:middle;fill:#000000;font-family:helvetica">1.62E7</text>
  <polyline
     points="313.000000,402.000000 313.000000,408.400000"
     id="polyline98"
     style="fill:none;stroke:#000000;stroke-width:1;stroke-opacity:1"
     transform="translate(10,-39)" />
  <text
     x="323"
     y="395.5"
     dominant-baseline="central"
     font-size="20"
     id="text100"
     style="font-size:20px;text-anchor:middle;fill:#000000;font-family:helvetica">1.63E7</text>
  <polyline
     points="397.666667,402.000000 397.666667,408.400000"
     id="polyline102"
     style="fill:none;stroke:#000000;stroke-width:1;stroke-opacity:1"
     transform="translate(10,-39)" />
  <text
     x="407.66699"
     y="395.5"
     dominant-baseline="central"
     font-size="20"
     id="text104"
     style="font-size:20px;text-anchor:middle;fill:#000000;font-family:helvetica">1.64E7</text>
  <polyline
     points="482.333333,402.000000 482.333333,408.400000"
     id="polyline106"
     style="fill:none;stroke:#000000;stroke-width:1;stroke-opacity:1"
     transform="translate(10,-39)" />
  <text
     x="492.33301"
     y="395.5"
     dominant-baseline="central"
     font-size="20"
     id="text108"
     style="font-size:20px;text-anchor:middle;fill:#000000;font-family:helvetica">1.65E7</text>
  <polyline
     points="567.000000,402.000000 567.000000,408.400000"
     id="polyline110"
     style="fill:none;stroke:#000000;stroke-width:1;stroke-opacity:1"
     transform="translate(10,-39)" />
  <text
     x="577"
     y="395.5"
     dominant-baseline="central"
     font-size="20"
     id="text112"
     style="font-size:20px;text-anchor:middle;fill:#000000;font-family:helvetica">1.66E7</text>
  <polyline
     points="55.000000,402.000000 59.000000,402.000000"
     id="polyline114"
     style="fill:none;stroke:#000000;stroke-width:1;stroke-opacity:1"
     transform="translate(10,-39)" />
  <polyline
     points="55.000000,362.444444 59.000000,362.444444"
     id="polyline116"
     style="fill:none;stroke:#000000;stroke-width:1;stroke-opacity:1"
     transform="translate(10,1)" />
  <polyline
     points="55.000000,322.888889 59.000000,322.888889"
     id="polyline118"
     style="fill:none;stroke:#000000;stroke-width:1;stroke-opacity:1"
     transform="translate(10,1)" />
  <polyline
     points="55.000000,283.333333 59.000000,283.333333"
     id="polyline120"
     style="fill:none;stroke:#000000;stroke-width:1;stroke-opacity:1"
     transform="translate(10,1)" />
  <polyline
     points="55.000000,243.777778 59.000000,243.777778"
     id="polyline122"
     style="fill:none;stroke:#000000;stroke-width:1;stroke-opacity:1"
     transform="translate(10,1)" />
  <polyline
     points="55.000000,204.222222 59.000000,204.222222"
     id="polyline124"
     style="fill:none;stroke:#000000;stroke-width:1;stroke-opacity:1"
     transform="translate(10,1)" />
  <polyline
     points="55.000000,164.666667 59.000000,164.666667"
     id="polyline126"
     style="fill:none;stroke:#000000;stroke-width:1;stroke-opacity:1"
     transform="translate(10,1)" />
  <polyline
     points="55.000000,125.111111 59.000000,125.111111"
     id="polyline128"
     style="fill:none;stroke:#000000;stroke-width:1;stroke-opacity:1"
     transform="translate(10,1)" />
  <polyline
     points="55.000000,85.555556 59.000000,85.555556"
     id="polyline130"
     style="fill:none;stroke:#000000;stroke-width:1;stroke-opacity:1"
     transform="translate(10,1)" />
  <polyline
     points="55.000000,46.000000 59.000000,46.000000"
     id="polyline132"
     style="fill:none;stroke:#000000;stroke-width:1;stroke-opacity:1"
     transform="translate(10,1)" />
  <rect
     x="10"
     y="397"
     width="51"
     height="12"
     id="rect134"
     style="fill:none;stroke:none" />
  <polyline
     points="52.600000,402.000000 59.000000,402.000000"
     id="polyline136"
     style="fill:none;stroke:#000000;stroke-width:1;stroke-opacity:1"
     transform="translate(10,-39)" />
  <polyline
     points="52.600000,362.444444 59.000000,362.444444"
     id="polyline140"
     style="fill:none;stroke:#000000;stroke-width:1;stroke-opacity:1"
     transform="translate(10,1)" />
  <text
     x="61"
     y="363.444"
     dominant-baseline="central"
     font-size="20"
     id="text142"
     style="font-size:20px;text-anchor:end;fill:#000000;font-family:helvetica">0</text>
  <polyline
     points="52.600000,322.888889 59.000000,322.888889"
     id="polyline144"
     style="fill:none;stroke:#000000;stroke-width:1;stroke-opacity:1"
     transform="translate(10,1)" />
  <text
     x="61"
     y="323.88901"
     dominant-baseline="central"
     font-size="20"
     id="text146"
     style="font-size:20px;text-anchor:end;fill:#000000;font-family:helvetica">100</text>
  <polyline
     points="52.600000,283.333333 59.000000,283.333333"
     id="polyline148"
     style="fill:none;stroke:#000000;stroke-width:1;stroke-opacity:1"
     transform="translate(10,1)" />
  <text
     x="61"
     y="284.33301"
     dominant-baseline="central"
     font-size="20"
     id="text150"
     style="font-size:20px;text-anchor:end;fill:#000000;font-family:helvetica">200</text>
  <polyline
     points="52.600000,243.777778 59.000000,243.777778"
     id="polyline152"
     style="fill:none;stroke:#000000;stroke-width:1;stroke-opacity:1"
     transform="translate(10,1)" />
  <text
     x="61"
     y="244.778"
     dominant-baseline="central"
     font-size="20"
     id="text154"
     style="font-size:20px;text-anchor:end;fill:#000000;font-family:helvetica">300</text>
  <polyline
     points="52.600000,204.222222 59.000000,204.222222"
     id="polyline156"
     style="fill:none;stroke:#000000;stroke-width:1;stroke-opacity:1"
     transform="translate(10,1)" />
  <text
     x="61"
     y="205.222"
     dominant-baseline="central"
     font-size="20"
     id="text158"
     style="font-size:20px;text-anchor:end;fill:#000000;font-family:helvetica">400</text>
  <polyline
     points="52.600000,164.666667 59.000000,164.666667"
     id="polyline160"
     style="fill:none;stroke:#000000;stroke-width:1;stroke-opacity:1"
     transform="translate(10,1)" />
  <text
     x="61"
     y="165.66701"
     dominant-baseline="central"
     font-size="20"
     id="text162"
     style="font-size:20px;text-anchor:end;fill:#000000;font-family:helvetica">500</text>
  <polyline
     points="52.600000,125.111111 59.000000,125.111111"
     id="polyline164"
     style="fill:none;stroke:#000000;stroke-width:1;stroke-opacity:1"
     transform="translate(10,1)" />
  <text
     x="61"
     y="126.111"
     dominant-baseline="central"
     font-size="20"
     id="text166"
     style="font-size:20px;text-anchor:end;fill:#000000;font-family:helvetica">600</text>
  <polyline
     points="52.600000,85.555556 59.000000,85.555556"
     id="polyline168"
     style="fill:none;stroke:#000000;stroke-width:1;stroke-opacity:1"
     transform="translate(10,1)" />
  <text
     x="61"
     y="86.555603"
     dominant-baseline="central"
     font-size="20"
     id="text170"
     style="font-size:20px;text-anchor:end;fill:#000000;font-family:helvetica">700</text>
  <polyline
     points="52.600000,46.000000 59.000000,46.000000"
     id="polyline172"
     style="fill:none;stroke:#000000;stroke-width:1;stroke-opacity:1"
     transform="translate(10,1)" />
  <text
     x="61"
     y="47"
     dominant-baseline="central"
     font-size="20"
     id="text174"
     style="font-size:20px;text-anchor:end;fill:#000000;font-family:helvetica">800</text>
  <rect
     x="69"
     y="10"
     width="276"
     height="29"
     id="rect176"
     style="fill:#ffffff;stroke:none" />
  <text
     x="104"
     y="29"
     dominant-baseline="central"
     font-size="20"
     id="text178"
     style="font-size:20px;text-anchor:start;fill:#000000;font-family:helvetica">CPUtime</text>
  <text
     x="225"
     y="29"
     dominant-baseline="central"
     font-size="20"
     id="text180"
     style="font-size:20px;text-anchor:start;fill:#000000;font-family:helvetica">EventCounter</text>
  <polyline
     points="59.000000,27.000000 89.000000,27.000000"
     id="polyline182"
     transform="translate(10,-5)"
     style="fill:none;stroke:#1c6cc8;stroke-width:1;stroke-opacity:0.7" />
  <clipPath
     id="clipArea1">
    <rect
       x="59"
       y="46"
       width="508"
       height="356"
       id="rect185" />
  </clipPath>
  <polyline
     clip-path="url(#clipArea1)"
     points="59.000000,362.388206 60.016000,361.834280 61.032000,361.650735 62.048000,361.486111 62.217333,361.418951 62.217333,361.418343 62.268133,361.398464 62.268133,361.397612 63.064000,360.129028 63.741333,360.050452 63.741333,360.049775 64.080000,360.024145 65.096000,359.905112 66.112000,359.824403 66.631853,359.823996 66.631853,359.823408 67.128000,359.796036 68.144000,359.691947 69.160000,359.646485 70.176000,359.571820 71.192000,359.465545 72.208000,359.397514 73.224000,359.318538 74.240000,359.272020 75.256000,359.263532 76.272000,359.237038 77.288000,359.209468 78.304000,359.180104 79.320000,359.179703 80.336000,359.154275 81.352000,359.144583 82.029333,359.144191 82.029333,359.143577 82.368000,359.058438 83.384000,359.023061 84.400000,359.000412 85.077333,359.000013 85.077333,358.999361 85.416000,358.843136 86.432000,358.792863 87.448000,358.739893 88.464000,358.697309 89.480000,358.631734 90.496000,358.521493 91.512000,358.464290 92.528000,358.384223 93.544000,358.265560 94.560000,358.118672 95.576000,358.049196 96.592000,357.928952 97.608000,357.911313 98.624000,357.851326 99.640000,357.749154 100.656000,357.510731 101.672000,357.300133 102.688000,357.195601 103.365333,357.015065 103.365333,357.014392 103.704000,355.981399 104.720000,355.707673 105.736000,355.416624 106.752000,355.356981 107.768000,355.195219 108.784000,355.132493 109.800000,355.035977 110.816000,355.014683 111.832000,354.980385 112.848000,354.950116 113.864000,354.839620 114.880000,354.803801 115.896000,354.770168 116.912000,354.725925 117.928000,354.660466 118.605333,354.570994 118.605333,354.570449 118.944000,354.539273 119.960000,354.518854 120.976000,354.518551 121.992000,354.489901 123.008000,354.450720 124.024000,354.428821 125.040000,354.385315 126.056000,354.237559 127.072000,354.058076 127.192227,354.057720 127.192227,354.057197 128.088000,353.965346 129.104000,353.799281 130.120000,353.747887 131.136000,353.704686 132.152000,353.686823 133.168000,353.579313 134.184000,353.535188 135.200000,353.430919 135.369333,353.284032 135.369333,353.283491 135.420133,353.264715 135.420133,353.263944 136.004333,352.435019 136.004333,352.434455 136.124560,352.381548 136.124560,352.380974 136.216000,352.204617 136.893333,352.055140 136.893333,352.054505 137.232000,352.007972 138.248000,351.940366 139.264000,351.919711 140.280000,351.897701 141.296000,351.875509 142.312000,351.875105 143.328000,351.812419 144.344000,351.693935 145.360000,351.594481 146.376000,351.404060 147.392000,351.219148 148.408000,351.136547 149.424000,350.961510 150.440000,350.699956 151.456000,350.497558 152.472000,350.337741 153.488000,350.303679 154.504000,350.303325 155.181333,350.284483 155.181333,350.283879 155.520000,350.245867 156.536000,350.154043 157.552000,350.128804 158.229333,350.128491 158.229333,350.127949 158.568000,350.060417 159.584000,350.039505 160.600000,349.937098 161.616000,349.900154 162.632000,349.896756 163.648000,349.866533 164.664000,349.866196 165.680000,349.857699 166.696000,349.848173 167.712000,349.847841 168.728000,349.826440 169.744000,349.785823 170.760000,349.774352 171.776000,349.768068 172.792000,349.745247 173.808000,349.716828 174.824000,349.655458 175.840000,349.522810 175.989013,349.522472 175.989013,349.521939 176.517333,349.325135 176.517333,349.324465 176.856000,348.202288 177.337753,348.074773 177.337753,348.074236 177.872000,348.010940 178.888000,347.834423 179.904000,347.693358 180.920000,347.674946 181.936000,347.664201 182.952000,347.663839 183.968000,347.502992 184.984000,347.392575 186.000000,347.344434 187.016000,347.197394 188.032000,347.187301 189.048000,347.146857 190.064000,347.133995 191.080000,347.112077 191.757333,347.092731 191.757333,347.092147 192.096000,347.064837 193.112000,347.051827 194.128000,347.041898 195.144000,347.041580 196.160000,347.041228 197.176000,346.902511 198.192000,346.873550 199.208000,346.860546 200.224000,346.860186 201.240000,346.782099 202.256000,346.641613 203.272000,346.589086 204.288000,346.552904 205.304000,346.533261 206.320000,346.452364 207.336000,346.378483 208.352000,346.316817 208.521333,346.245985 208.521333,346.245460 209.368000,346.097041 210.045333,346.040639 210.045333,346.039973 210.102060,345.400559 210.102060,345.400019 210.384000,345.263805 211.400000,344.109454 212.416000,343.839145 213.432000,343.785475 214.448000,343.759060 215.464000,343.731178 216.480000,343.474124 217.496000,343.434402 218.512000,343.368549 219.528000,343.261530 220.544000,343.176712 221.560000,343.017332 222.576000,342.966238 222.857940,342.906071 222.857940,342.905529 223.024733,342.860423 223.024733,342.859880 223.592000,342.634278 224.608000,342.549126 225.624000,342.397281 226.640000,342.376457 227.656000,342.353687 228.333333,342.353308 228.333333,342.352696 228.672000,342.250362 229.688000,342.217330 230.704000,342.209831 231.381333,342.189379 231.381333,342.188783 231.720000,342.097058 232.736000,342.002323 233.752000,341.909272 234.768000,341.895155 235.784000,341.866522 236.800000,341.745277 237.816000,341.732875 238.832000,341.711484 239.848000,341.551445 240.864000,341.529134 241.880000,341.506886 242.896000,341.457303 243.575027,341.429555 243.575027,341.429018 243.912000,341.269688 244.928000,341.189449 245.944000,341.066784 246.960000,340.974634 247.976000,340.757658 248.715140,340.623405 248.715140,340.622801 248.992000,340.432165 249.171493,340.411920 249.171493,340.411301 249.669333,340.221146 249.669333,340.220479 250.008000,339.149796 251.024000,338.854883 252.040000,338.708371 252.150067,338.698287 252.150067,338.697760 252.576787,338.567222 252.576787,338.566677 253.056000,338.542655 254.072000,338.478876 255.088000,338.418058 256.104000,338.311908 257.120000,338.269195 258.136000,338.254444 259.152000,338.219333 260.168000,338.093599 261.184000,338.081736 262.200000,338.038894 263.216000,337.971153 264.232000,337.739564 264.909333,337.708158 264.909333,337.707555 265.248000,337.639827 266.264000,337.582306 267.280000,337.442852 267.866740,337.329695 267.866740,337.329105 268.296000,337.229872 269.312000,337.064289 270.328000,336.898150 271.344000,336.813687 272.360000,336.679821 273.376000,336.657582 274.392000,336.592551 275.408000,336.437527 276.424000,336.337681 277.440000,336.197421 278.456000,336.178082 279.472000,336.043737 280.488000,335.921194 281.504000,335.790844 281.673333,335.698947 281.673333,335.698407 281.724133,335.658164 281.724133,335.657346 282.520000,333.830407 283.197333,333.763217 283.197333,333.762689 283.536000,333.679928 284.552000,333.608580 285.568000,333.587062 286.584000,333.559205 287.600000,333.531676 288.616000,333.242376 289.632000,332.861894 290.573493,332.818760 290.573493,332.818244 290.648000,332.789795 290.756373,332.789505 290.756373,332.788968 291.664000,332.488921 292.680000,332.283508 293.696000,332.035127 294.712000,331.786939 295.728000,331.713464 296.744000,331.674766 297.760000,331.559517 298.776000,331.535278 299.792000,331.493583 300.808000,331.482628 301.485333,331.463731 301.485333,331.463067 301.824000,331.364504 302.840000,331.335581 303.856000,331.329017 304.533333,331.310297 304.533333,331.309709 304.872000,331.256308 305.888000,331.133985 306.904000,331.111406 307.920000,331.091826 308.936000,331.081227 309.952000,331.080883 310.968000,331.049968 311.984000,331.049624 313.000000,331.027645 314.016000,331.027199 315.032000,331.002377 316.048000,331.002021 317.064000,330.966597 318.080000,330.930504 319.096000,330.919118 320.112000,330.868372 321.128000,330.838598 322.144000,330.702593 322.821333,330.608457 322.821333,330.607748 323.160000,329.559604 324.012593,329.315695 324.012593,329.315155 324.176000,329.221556 325.192000,329.067130 326.208000,328.945498 327.224000,328.906719 328.240000,328.870112 328.366153,328.869750 328.366153,328.869228 329.256000,328.688794 330.272000,328.523639 331.288000,328.435744 332.304000,328.233132 333.320000,328.157532 334.336000,328.044568 335.352000,327.930064 336.368000,327.718688 337.384000,327.381643 338.061333,327.240857 338.061333,327.240320 338.400000,327.151770 339.416000,326.871955 340.432000,326.759700 341.448000,326.690060 342.464000,326.658762 343.480000,326.531928 344.496000,326.498665 345.512000,326.400546 346.528000,326.373452 347.544000,326.340123 348.560000,326.181535 349.576000,326.161967 350.592000,326.161620 351.608000,326.128079 352.624000,326.082993 353.640000,325.959170 354.656000,325.848678 354.825333,325.848331 354.825333,325.847815 355.672000,325.812029 356.349333,325.793255 356.349333,325.792594 356.389127,325.142486 356.389127,325.141608 356.688000,325.030231 357.704000,324.703860 358.720000,324.310975 359.736000,324.247796 360.752000,324.204994 361.768000,324.155263 362.784000,324.079799 363.800000,323.490850 364.816000,323.467646 365.832000,323.397946 366.848000,323.366554 367.864000,323.340727 368.880000,323.340386 369.896000,322.897532 370.912000,322.474608 371.928000,322.322357 372.944000,322.276809 373.960000,322.151734 374.637333,322.114020 374.637333,322.113389 374.976000,322.072096 375.992000,321.965140 377.008000,321.782385 377.685333,321.760808 377.685333,321.760252 378.024000,321.651921 379.040000,321.497494 380.056000,321.338375 381.072000,321.282183 382.088000,321.140368 383.104000,321.073701 384.120000,321.048788 385.136000,321.003626 386.152000,320.977133 387.168000,320.963770 388.184000,320.869251 389.200000,320.861920 390.216000,320.707506 391.232000,320.508219 392.248000,320.291529 393.264000,319.555388 394.280000,319.365130 395.296000,319.230721 395.973333,319.124019 395.973333,319.123355 396.312000,318.046058 397.328000,317.848392 398.344000,317.647132 399.360000,317.608223 400.376000,317.577266 401.077040,317.488701 401.077040,317.488128 401.392000,317.434485 402.014300,317.382331 402.014300,317.381800 402.408000,317.362268 403.424000,317.327005 404.440000,317.216756 405.456000,317.200590 406.472000,317.189644 407.488000,317.167846 408.504000,317.167496 409.520000,317.065001 410.536000,317.046375 411.213333,317.046022 411.213333,317.045500 411.552000,317.012852 412.568000,316.993424 413.584000,316.961881 414.600000,316.955435 415.616000,316.844692 416.632000,316.833997 417.648000,316.733994 418.664000,316.714363 419.680000,316.713934 420.696000,316.680482 421.712000,316.647835 422.728000,316.523644 423.744000,316.443037 424.760000,316.376989 425.776000,316.260995 426.792000,316.154132 427.808000,316.020740 427.977333,315.925693 427.977333,315.925150 428.028133,315.906225 428.028133,315.905438 428.824000,314.529669 429.501333,314.389433 429.501333,314.388841 429.840000,314.359777 430.856000,314.311853 431.872000,314.229900 432.888000,314.162648 433.904000,314.141674 434.920000,314.141308 435.936000,314.086860 436.952000,314.038026 437.968000,313.854417 438.984000,313.786358 440.000000,313.740487 441.016000,313.706506 442.032000,313.679599 443.048000,313.673496 444.064000,313.667904 445.080000,313.661778 446.096000,313.638248 447.112000,313.569112 447.789333,313.548708 447.789333,313.548129 448.128000,313.487165 449.144000,313.443322 450.032153,313.293054 450.032153,313.292517 450.160000,313.266111 450.344573,313.242249 450.344573,313.241715 450.837333,313.018155 450.837333,313.017591 451.176000,312.908149 452.192000,312.785672 453.208000,312.549827 454.224000,312.416967 455.240000,312.329630 456.256000,312.251293 456.529473,312.250909 456.529473,312.250318 457.272000,311.900296 458.288000,311.738298 459.304000,311.609466 460.320000,311.577573 461.336000,311.469962 462.352000,311.302025 463.368000,311.162558 464.384000,311.007344 465.400000,310.143624 466.416000,309.937179 467.432000,309.752269 468.448000,309.631706 469.125333,309.607581 469.125333,309.606923 469.464000,308.588266 470.480000,308.342058 471.496000,308.114331 472.512000,308.096333 473.528000,307.880713 474.544000,307.785476 475.560000,307.729616 476.576000,307.507798 477.592000,307.401346 478.608000,307.329226 479.624000,307.245378 480.640000,307.207455 481.656000,307.178080 482.672000,307.139656 483.688000,307.054607 484.365333,307.034508 484.365333,307.033983 484.704000,306.970295 485.720000,306.912129 486.736000,306.903268 487.752000,306.892482 488.768000,306.892169 489.784000,306.891843 490.800000,306.870675 491.816000,306.823923 492.832000,306.772945 493.848000,306.697107 494.864000,306.692731 495.880000,306.670133 496.896000,306.636050 497.912000,306.603185 498.928000,306.602859 499.944000,306.468939 500.960000,306.244363 501.129333,306.204183 501.129333,306.203592 501.180133,306.182322 501.180133,306.181459 501.976000,304.191930 502.653333,304.097978 502.653333,304.097368 502.992000,303.950689 504.008000,303.887990 505.024000,303.862055 506.040000,303.816419 507.056000,303.755307 508.072000,303.632016 509.088000,303.540316 510.104000,303.423223 511.120000,303.365812 512.136000,303.287480 513.152000,303.230715 514.168000,303.221039 515.184000,303.192720 516.200000,303.153953 517.216000,303.072646 518.232000,302.953235 519.248000,302.872828 520.264000,302.731810 520.941333,302.660383 520.941333,302.659804 521.280000,302.606273 522.296000,302.285409 523.312000,302.112644 523.989333,302.045659 523.989333,302.045038 524.328000,301.988435 525.344000,301.755499 526.360000,301.619919 527.376000,301.425678 528.392000,301.364790 529.408000,301.353220 530.424000,301.339380 531.434073,301.313626 531.434073,301.313010 531.440000,301.279083 531.925140,301.278450 531.925140,301.277617 532.456000,286.250356 533.472000,258.028871 534.488000,229.190411 535.504000,200.844404 536.520000,171.239144 537.536000,141.421694 538.552000,111.646916 539.568000,81.260166 540.584000,56.182369 541.600000,55.881501 542.277333,55.653666 542.277333,55.652917 542.616000,54.557390 543.632000,54.264779 544.399927,54.096938 544.399927,54.096383 544.648000,54.044138 545.664000,53.925283 546.680000,53.821686 547.696000,53.703338 548.712000,53.612779 549.728000,53.489095 550.070053,53.421978 550.070053,53.421350 550.744000,53.332408 551.760000,53.261694 552.776000,53.076205 553.792000,52.981734 554.808000,52.899890 555.824000,52.747163 556.840000,52.658945 557.517333,52.611046 557.517333,52.610490 557.856000,52.573528 558.872000,52.553779 559.888000,52.526377 560.904000,52.477391 561.920000,52.464451 562.936000,52.382969 563.395740,52.382631 563.395740,52.382124 563.952000,52.322974 564.968000,52.314041 565.984000,52.303273 567.000000,52.276644"
     id="polyline187"
     style="fill:none;stroke:#1c6cc8;stroke-width:1;stroke-opacity:0.7"
     transform="translate(10,1)" />
  <polyline
     points="180.000000,27.000000 210.000000,27.000000"
     id="polyline189"
     transform="translate(10,-5)"
     style="fill:none;stroke:#ee2e2f;stroke-width:1;stroke-opacity:0.7" />
  <clipPath
     id="clipArea2">
    <rect
       x="59"
       y="46"
       width="508"
       height="356"
       id="rect192" />
  </clipPath>
  <polyline
     clip-path="url(#clipArea2)"
     points="59.000000,361.257778 60.016000,361.257778 61.032000,361.257778 62.048000,361.257778 62.217333,361.257778 62.217333,360.466667 62.268133,360.466667 62.268133,358.884444 63.064000,358.884444 63.741333,358.884444 63.741333,358.093333 64.080000,358.093333 65.096000,358.093333 66.112000,358.093333 66.631853,358.093333 66.631853,357.302222 67.128000,357.302222 68.144000,357.302222 69.160000,357.302222 70.176000,357.302222 71.192000,357.302222 72.208000,357.302222 73.224000,357.302222 74.240000,357.302222 75.256000,357.302222 76.272000,357.302222 77.288000,357.302222 78.304000,357.302222 79.320000,357.302222 80.336000,357.302222 81.352000,357.302222 82.029333,357.302222 82.029333,356.511111 82.368000,356.511111 83.384000,356.511111 84.400000,356.511111 85.077333,356.511111 85.077333,355.720000 85.416000,355.720000 86.432000,355.720000 87.448000,355.720000 88.464000,355.720000 89.480000,355.720000 90.496000,355.720000 91.512000,355.720000 92.528000,355.720000 93.544000,355.720000 94.560000,355.720000 95.576000,355.720000 96.592000,355.720000 97.608000,355.720000 98.624000,355.720000 99.640000,355.720000 100.656000,355.720000 101.672000,355.720000 102.688000,355.720000 103.365333,355.720000 103.365333,354.533333 103.704000,354.533333 104.720000,354.533333 105.736000,354.533333 106.752000,354.533333 107.768000,354.533333 108.784000,354.533333 109.800000,354.533333 110.816000,354.533333 111.832000,354.533333 112.848000,354.533333 113.864000,354.533333 114.880000,354.533333 115.896000,354.533333 116.912000,354.533333 117.928000,354.533333 118.605333,354.533333 118.605333,353.742222 118.944000,353.742222 119.960000,353.742222 120.976000,353.742222 121.992000,353.742222 123.008000,353.742222 124.024000,353.742222 125.040000,353.742222 126.056000,353.742222 127.072000,353.742222 127.192227,353.742222 127.192227,352.951111 128.088000,352.951111 129.104000,352.951111 130.120000,352.951111 131.136000,352.951111 132.152000,352.951111 133.168000,352.951111 134.184000,352.951111 135.200000,352.951111 135.369333,352.951111 135.369333,352.160000 135.420133,352.160000 135.420133,350.577778 136.004333,350.577778 136.004333,349.786667 136.124560,349.786667 136.124560,348.995556 136.216000,348.995556 136.893333,348.995556 136.893333,348.204444 137.232000,348.204444 138.248000,348.204444 139.264000,348.204444 140.280000,348.204444 141.296000,348.204444 142.312000,348.204444 143.328000,348.204444 144.344000,348.204444 145.360000,348.204444 146.376000,348.204444 147.392000,348.204444 148.408000,348.204444 149.424000,348.204444 150.440000,348.204444 151.456000,348.204444 152.472000,348.204444 153.488000,348.204444 154.504000,348.204444 155.181333,348.204444 155.181333,347.413333 155.520000,347.413333 156.536000,347.413333 157.552000,347.413333 158.229333,347.413333 158.229333,346.622222 158.568000,346.622222 159.584000,346.622222 160.600000,346.622222 161.616000,346.622222 162.632000,346.622222 163.648000,346.622222 164.664000,346.622222 165.680000,346.622222 166.696000,346.622222 167.712000,346.622222 168.728000,346.622222 169.744000,346.622222 170.760000,346.622222 171.776000,346.622222 172.792000,346.622222 173.808000,346.622222 174.824000,346.622222 175.840000,346.622222 175.989013,346.622222 175.989013,345.831111 176.517333,345.831111 176.517333,344.644444 176.856000,344.644444 177.337753,344.644444 177.337753,343.853333 177.872000,343.853333 178.888000,343.853333 179.904000,343.853333 180.920000,343.853333 181.936000,343.853333 182.952000,343.853333 183.968000,343.853333 184.984000,343.853333 186.000000,343.853333 187.016000,343.853333 188.032000,343.853333 189.048000,343.853333 190.064000,343.853333 191.080000,343.853333 191.757333,343.853333 191.757333,343.062222 192.096000,343.062222 193.112000,343.062222 194.128000,343.062222 195.144000,343.062222 196.160000,343.062222 197.176000,343.062222 198.192000,343.062222 199.208000,343.062222 200.224000,343.062222 201.240000,343.062222 202.256000,343.062222 203.272000,343.062222 204.288000,343.062222 205.304000,343.062222 206.320000,343.062222 207.336000,343.062222 208.352000,343.062222 208.521333,343.062222 208.521333,342.271111 209.368000,342.271111 210.045333,342.271111 210.045333,341.084444 210.102060,341.084444 210.102060,340.293333 210.384000,340.293333 211.400000,340.293333 212.416000,340.293333 213.432000,340.293333 214.448000,340.293333 215.464000,340.293333 216.480000,340.293333 217.496000,340.293333 218.512000,340.293333 219.528000,340.293333 220.544000,340.293333 221.560000,340.293333 222.576000,340.293333 222.857940,340.293333 222.857940,339.502222 223.024733,339.502222 223.024733,338.711111 223.592000,338.711111 224.608000,338.711111 225.624000,338.711111 226.640000,338.711111 227.656000,338.711111 228.333333,338.711111 228.333333,337.920000 228.672000,337.920000 229.688000,337.920000 230.704000,337.920000 231.381333,337.920000 231.381333,337.128889 231.720000,337.128889 232.736000,337.128889 233.752000,337.128889 234.768000,337.128889 235.784000,337.128889 236.800000,337.128889 237.816000,337.128889 238.832000,337.128889 239.848000,337.128889 240.864000,337.128889 241.880000,337.128889 242.896000,337.128889 243.575027,337.128889 243.575027,336.337778 243.912000,336.337778 244.928000,336.337778 245.944000,336.337778 246.960000,336.337778 247.976000,336.337778 248.715140,336.337778 248.715140,335.546667 248.992000,335.546667 249.171493,335.546667 249.171493,334.755556 249.669333,334.755556 249.669333,333.568889 250.008000,333.568889 251.024000,333.568889 252.040000,333.568889 252.150067,333.568889 252.150067,332.777778 252.576787,332.777778 252.576787,331.986667 253.056000,331.986667 254.072000,331.986667 255.088000,331.986667 256.104000,331.986667 257.120000,331.986667 258.136000,331.986667 259.152000,331.986667 260.168000,331.986667 261.184000,331.986667 262.200000,331.986667 263.216000,331.986667 264.232000,331.986667 264.909333,331.986667 264.909333,331.195556 265.248000,331.195556 266.264000,331.195556 267.280000,331.195556 267.866740,331.195556 267.866740,330.404444 268.296000,330.404444 269.312000,330.404444 270.328000,330.404444 271.344000,330.404444 272.360000,330.404444 273.376000,330.404444 274.392000,330.404444 275.408000,330.404444 276.424000,330.404444 277.440000,330.404444 278.456000,330.404444 279.472000,330.404444 280.488000,330.404444 281.504000,330.404444 281.673333,330.404444 281.673333,329.613333 281.724133,329.613333 281.724133,328.031111 282.520000,328.031111 283.197333,328.031111 283.197333,327.240000 283.536000,327.240000 284.552000,327.240000 285.568000,327.240000 286.584000,327.240000 287.600000,327.240000 288.616000,327.240000 289.632000,327.240000 290.573493,327.240000 290.573493,326.448889 290.648000,326.448889 290.756373,326.448889 290.756373,325.657778 291.664000,325.657778 292.680000,325.657778 293.696000,325.657778 294.712000,325.657778 295.728000,325.657778 296.744000,325.657778 297.760000,325.657778 298.776000,325.657778 299.792000,325.657778 300.808000,325.657778 301.485333,325.657778 301.485333,324.866667 301.824000,324.866667 302.840000,324.866667 303.856000,324.866667 304.533333,324.866667 304.533333,324.075556 304.872000,324.075556 305.888000,324.075556 306.904000,324.075556 307.920000,324.075556 308.936000,324.075556 309.952000,324.075556 310.968000,324.075556 311.984000,324.075556 313.000000,324.075556 314.016000,324.075556 315.032000,324.075556 316.048000,324.075556 317.064000,324.075556 318.080000,324.075556 319.096000,324.075556 320.112000,324.075556 321.128000,324.075556 322.144000,324.075556 322.821333,324.075556 322.821333,322.888889 323.160000,322.888889 324.012593,322.888889 324.012593,322.097778 324.176000,322.097778 325.192000,322.097778 326.208000,322.097778 327.224000,322.097778 328.240000,322.097778 328.366153,322.097778 328.366153,321.306667 329.256000,321.306667 330.272000,321.306667 331.288000,321.306667 332.304000,321.306667 333.320000,321.306667 334.336000,321.306667 335.352000,321.306667 336.368000,321.306667 337.384000,321.306667 338.061333,321.306667 338.061333,320.515556 338.400000,320.515556 339.416000,320.515556 340.432000,320.515556 341.448000,320.515556 342.464000,320.515556 343.480000,320.515556 344.496000,320.515556 345.512000,320.515556 346.528000,320.515556 347.544000,320.515556 348.560000,320.515556 349.576000,320.515556 350.592000,320.515556 351.608000,320.515556 352.624000,320.515556 353.640000,320.515556 354.656000,320.515556 354.825333,320.515556 354.825333,319.724444 355.672000,319.724444 356.349333,319.724444 356.349333,318.537778 356.389127,318.537778 356.389127,317.746667 356.688000,317.746667 357.704000,317.746667 358.720000,317.746667 359.736000,317.746667 360.752000,317.746667 361.768000,317.746667 362.784000,317.746667 363.800000,317.746667 364.816000,317.746667 365.832000,317.746667 366.848000,317.746667 367.864000,317.746667 368.880000,317.746667 369.896000,317.746667 370.912000,317.746667 371.928000,317.746667 372.944000,317.746667 373.960000,317.746667 374.637333,317.746667 374.637333,316.955556 374.976000,316.955556 375.992000,316.955556 377.008000,316.955556 377.685333,316.955556 377.685333,316.164444 378.024000,316.164444 379.040000,316.164444 380.056000,316.164444 381.072000,316.164444 382.088000,316.164444 383.104000,316.164444 384.120000,316.164444 385.136000,316.164444 386.152000,316.164444 387.168000,316.164444 388.184000,316.164444 389.200000,316.164444 390.216000,316.164444 391.232000,316.164444 392.248000,316.164444 393.264000,316.164444 394.280000,316.164444 395.296000,316.164444 395.973333,316.164444 395.973333,314.977778 396.312000,314.977778 397.328000,314.977778 398.344000,314.977778 399.360000,314.977778 400.376000,314.977778 401.077040,314.977778 401.077040,314.186667 401.392000,314.186667 402.014300,314.186667 402.014300,313.395556 402.408000,313.395556 403.424000,313.395556 404.440000,313.395556 405.456000,313.395556 406.472000,313.395556 407.488000,313.395556 408.504000,313.395556 409.520000,313.395556 410.536000,313.395556 411.213333,313.395556 411.213333,312.604444 411.552000,312.604444 412.568000,312.604444 413.584000,312.604444 414.600000,312.604444 415.616000,312.604444 416.632000,312.604444 417.648000,312.604444 418.664000,312.604444 419.680000,312.604444 420.696000,312.604444 421.712000,312.604444 422.728000,312.604444 423.744000,312.604444 424.760000,312.604444 425.776000,312.604444 426.792000,312.604444 427.808000,312.604444 427.977333,312.604444 427.977333,311.813333 428.028133,311.813333 428.028133,310.231111 428.824000,310.231111 429.501333,310.231111 429.501333,309.440000 429.840000,309.440000 430.856000,309.440000 431.872000,309.440000 432.888000,309.440000 433.904000,309.440000 434.920000,309.440000 435.936000,309.440000 436.952000,309.440000 437.968000,309.440000 438.984000,309.440000 440.000000,309.440000 441.016000,309.440000 442.032000,309.440000 443.048000,309.440000 444.064000,309.440000 445.080000,309.440000 446.096000,309.440000 447.112000,309.440000 447.789333,309.440000 447.789333,308.648889 448.128000,308.648889 449.144000,308.648889 450.032153,308.648889 450.032153,307.857778 450.160000,307.857778 450.344573,307.857778 450.344573,307.066667 450.837333,307.066667 450.837333,306.275556 451.176000,306.275556 452.192000,306.275556 453.208000,306.275556 454.224000,306.275556 455.240000,306.275556 456.256000,306.275556 456.529473,306.275556 456.529473,305.484444 457.272000,305.484444 458.288000,305.484444 459.304000,305.484444 460.320000,305.484444 461.336000,305.484444 462.352000,305.484444 463.368000,305.484444 464.384000,305.484444 465.400000,305.484444 466.416000,305.484444 467.432000,305.484444 468.448000,305.484444 469.125333,305.484444 469.125333,304.297778 469.464000,304.297778 470.480000,304.297778 471.496000,304.297778 472.512000,304.297778 473.528000,304.297778 474.544000,304.297778 475.560000,304.297778 476.576000,304.297778 477.592000,304.297778 478.608000,304.297778 479.624000,304.297778 480.640000,304.297778 481.656000,304.297778 482.672000,304.297778 483.688000,304.297778 484.365333,304.297778 484.365333,303.506667 484.704000,303.506667 485.720000,303.506667 486.736000,303.506667 487.752000,303.506667 488.768000,303.506667 489.784000,303.506667 490.800000,303.506667 491.816000,303.506667 492.832000,303.506667 493.848000,303.506667 494.864000,303.506667 495.880000,303.506667 496.896000,303.506667 497.912000,303.506667 498.928000,303.506667 499.944000,303.506667 500.960000,303.506667 501.129333,303.506667 501.129333,302.715556 501.180133,302.715556 501.180133,301.133333 501.976000,301.133333 502.653333,301.133333 502.653333,300.342222 502.992000,300.342222 504.008000,300.342222 505.024000,300.342222 506.040000,300.342222 507.056000,300.342222 508.072000,300.342222 509.088000,300.342222 510.104000,300.342222 511.120000,300.342222 512.136000,300.342222 513.152000,300.342222 514.168000,300.342222 515.184000,300.342222 516.200000,300.342222 517.216000,300.342222 518.232000,300.342222 519.248000,300.342222 520.264000,300.342222 520.941333,300.342222 520.941333,299.551111 521.280000,299.551111 522.296000,299.551111 523.312000,299.551111 523.989333,299.551111 523.989333,298.760000 524.328000,298.760000 525.344000,298.760000 526.360000,298.760000 527.376000,298.760000 528.392000,298.760000 529.408000,298.760000 530.424000,298.760000 531.434073,298.760000 531.434073,297.968889 531.440000,297.968889 531.925140,297.968889 531.925140,297.177778 532.456000,297.177778 533.472000,297.177778 534.488000,297.177778 535.504000,297.177778 536.520000,297.177778 537.536000,297.177778 538.552000,297.177778 539.568000,297.177778 540.584000,297.177778 541.600000,297.177778 542.277333,297.177778 542.277333,295.991111 542.616000,295.991111 543.632000,295.991111 544.399927,295.991111 544.399927,295.200000 544.648000,295.200000 545.664000,295.200000 546.680000,295.200000 547.696000,295.200000 548.712000,295.200000 549.728000,295.200000 550.070053,295.200000 550.070053,294.408889 550.744000,294.408889 551.760000,294.408889 552.776000,294.408889 553.792000,294.408889 554.808000,294.408889 555.824000,294.408889 556.840000,294.408889 557.517333,294.408889 557.517333,293.617778 557.856000,293.617778 558.872000,293.617778 559.888000,293.617778 560.904000,293.617778 561.920000,293.617778 562.936000,293.617778 563.395740,293.617778 563.395740,292.826667 563.952000,292.826667 564.968000,292.826667 565.984000,292.826667 567.000000,292.826667"
     id="polyline194"
     style="fill:none;stroke:#ee2e2f;stroke-width:1;stroke-opacity:0.7"
     transform="translate(10,1)" />
  <text
     xml:space="preserve"
     style="font-size:40px;font-style:normal;font-weight:normal;line-height:125%;letter-spacing:0px;word-spacing:0px;fill:#000000;fill-opacity:1;stroke:none;font-family:Sans"
     x="245.21187"
     y="150.26907"
     id="text3967"
     sodipodi:linespacing="125%"><tspan
       sodipodi:role="line"
       id="tspan3969"
       x="245.21187"
       y="150.26907"
       style="font-size:16px">large increase in computing time</tspan></text>
  <path
     style="fill:none;stroke:#000000;stroke-width:1px;stroke-linecap:butt;stroke-linejoin:miter;stroke-opacity:1;marker-start:url(#Arrow1Lstart)"
     d="M 542.27095,201.06436 492.82963,159.1814"
     id="path3971"
     inkscape:connector-curvature="0" />
  <text
     xml:space="preserve"
     style="font-size:40px;font-style:normal;font-weight:normal;line-height:125%;letter-spacing:0px;word-spacing:0px;fill:#000000;fill-opacity:1;stroke:none;font-family:Sans"
     x="258.12607"
     y="422.95453"
     id="text3967-5"
     sodipodi:linespacing="125%"><tspan
       sodipodi:role="line"
       id="tspan3969-9"
       x="258.12607"
       y="422.95453"
       style="font-size:16px">model time [s]</tspan></text>
</svg>
