<?xml version="1.0" encoding="UTF-8" standalone="no"?>
<!-- Created with Inkscape (http://www.inkscape.org/) -->

<svg
   width="211.66666mm"
   height="264.58334mm"
   viewBox="0 0 211.66666 264.58333"
   version="1.1"
   id="svg12898"
   xmlns="http://www.w3.org/2000/svg"
   xmlns:svg="http://www.w3.org/2000/svg">
  <defs
     id="defs12895">
    <rect
       x="1259.0197"
       y="284.73633"
       width="399.67548"
       height="41.103985"
       id="rect26041" />
    <rect
       x="-99.906151"
       y="-396.78329"
       width="1227.9442"
       height="428.09433"
       id="rect7245" />
    <rect
       x="107.03309"
       y="-247.09485"
       width="937.42871"
       height="201.89989"
       id="rect2663" />
    <rect
       x="-82.594574"
       y="496.42636"
       width="447.10434"
       height="144.56889"
       id="rect16655" />
    <rect
       x="-82.594574"
       y="496.42636"
       width="447.10434"
       height="144.56889"
       id="rect16655-3" />
    <rect
       x="-82.594574"
       y="496.42636"
       width="447.10434"
       height="144.56889"
       id="rect16655-5" />
    <rect
       x="-82.594574"
       y="496.42636"
       width="447.10434"
       height="144.56889"
       id="rect16655-1" />
    <rect
       x="-99.906151"
       y="-396.78329"
       width="1227.9442"
       height="428.09433"
       id="rect7245-8" />
    <rect
       x="-99.906151"
       y="-396.78329"
       width="1227.9442"
       height="428.09433"
       id="rect7245-8-0" />
    <rect
       x="-99.906151"
       y="-396.78329"
       width="1227.9442"
       height="428.09433"
       id="rect7245-8-6" />
    <rect
       x="-99.906151"
       y="-396.78329"
       width="1227.9442"
       height="428.09433"
       id="rect7245-85" />
  </defs>
  <g
     id="layer1"
     transform="matrix(1.612245,0,0,1.612245,-147.96232,-251.99671)"
     style="stroke-width:0.620253">
    <path
       id="polyline524"
       style="fill:none;stroke:#000000;stroke-width:1.64108;stroke-miterlimit:4;stroke-dasharray:none"
       d="M 92.594634,157.12229 V 319.58985 H 222.24046 V 157.12229 Z" />
    <path
       id="polyline558"
       style="fill:none;stroke:#000000;stroke-width:1.64108"
       d="m 210.11691,157.12229 v 12.10476 h 12.12355 v -12.10476 z" />
    <path
       id="polyline558-5-6"
       style="fill:none;stroke:#000000;stroke-width:1.64108"
       d="m 210.11692,259.88106 v 12.10477 h 12.12354 v -12.10477 z" />
    <path
       id="polyline558-5"
       style="fill:none;stroke:#000000;stroke-width:1.64108"
       d="m 210.11692,176.70465 v 12.10477 h 12.12354 v -12.10477 z" />
    <path
       id="polyline558-5-0"
       style="fill:none;stroke:#000000;stroke-width:1.64108"
       d="m 210.11692,205.52505 v 12.10476 h 12.12354 v -12.10476 z" />
    <path
       id="polyline558-5-9"
       style="fill:none;stroke:#000000;stroke-width:1.64108"
       d="m 210.11692,232.70304 v 12.10477 h 12.12354 v -12.10477 z" />
    <text
       xml:space="preserve"
       transform="matrix(0.16410864,0,0,0.16410864,-66.779106,145.46714)"
       id="text2661"
       style="font-style:normal;font-variant:normal;font-weight:normal;font-stretch:normal;font-size:200px;line-height:1.25;font-family:sans-serif;-inkscape-font-specification:'sans-serif, Normal';font-variant-ligatures:normal;font-variant-caps:normal;font-variant-numeric:normal;font-variant-east-asian:normal;white-space:pre;shape-inside:url(#rect2663);fill:#000000;fill-opacity:1;stroke:none;stroke-width:0.620253"><tspan
         x="107.0332"
         y="131.75781"
         id="tspan34214"><tspan
           dx="0 126.36719 149.60938 136.81641 137.20703 111.42578"
           id="tspan34212">ENABLE</tspan></tspan></text>
    <g
       aria-label="ENABLE"
       transform="matrix(0.16410864,0,0,0.16410864,151.80246,229.67719)"
       id="text7243"
       style="font-size:106.667px;line-height:1.25;-inkscape-font-specification:'sans-serif, Normal';white-space:pre;shape-inside:url(#rect7245)">
      <path
         d="m -89.437467,-380.16857 h 49.16682 v 8.8542 h -38.645954 v 23.0209 h 37.031366 v 8.8542 h -37.031366 v 28.17717 h 39.583457 v 8.85419 h -50.104323 z"
         id="path33991" />
      <path
         d="m -22.041425,-380.16857 h 14.1667105 l 34.4792745,65.05229 v -65.05229 h 10.208365 v 77.76066 H 22.646214 l -34.479274,-65.05228 v 65.05228 h -10.208365 z"
         id="path33993" />
      <path
         d="m 83.740155,-369.80395 -14.270878,38.69804 h 28.593839 z m -5.937519,-10.36462 h 11.927121 l 29.635513,77.76066 h -10.93754 l -7.08335,-19.94798 H 66.292184 l -7.083356,19.94798 H 48.115044 Z"
         id="path33995" />
      <path
         d="m 141.24034,-339.54344 v 28.48967 h 16.87505 q 8.48961,0 12.55212,-3.48959 4.1146,-3.54168 4.1146,-10.78129 0,-7.29169 -4.1146,-10.7292 -4.06251,-3.48959 -12.55212,-3.48959 z m 0,-31.97927 v 23.43758 h 15.57296 q 7.70836,0 11.45837,-2.8646 3.8021,-2.91667 3.8021,-8.85419 0,-5.88544 -3.8021,-8.80211 -3.75001,-2.91668 -11.45837,-2.91668 z m -10.52087,-8.64586 h 26.87508 q 12.03129,0 18.54173,5.00002 6.51043,5.00001 6.51043,14.21879 0,7.13544 -3.33334,11.3542 -3.33334,4.21877 -9.7917,5.26044 7.76044,1.66667 12.03129,6.97919 4.32293,5.26043 4.32293,13.17712 0,10.4167 -7.08335,16.0938 -7.08336,5.6771 -20.15632,5.6771 h -27.91675 z"
         id="path33997" />
      <path
         d="m 203.89679,-380.16857 h 10.52087 v 68.90647 h 37.8647 v 8.85419 h -48.38557 z"
         id="path33999" />
      <path
         d="m 263.32407,-380.16857 h 49.16682 v 8.8542 h -38.64596 v 23.0209 h 37.03137 v 8.8542 h -37.03137 v 28.17717 h 39.58346 v 8.85419 h -50.10432 z"
         id="path34001" />
    </g>
    <g
       aria-label="RUN"
       transform="matrix(0.16410864,0,0,0.16410864,183.45238,267.88729)"
       id="text7243-5"
       style="font-size:106.667px;line-height:1.25;-inkscape-font-specification:'sans-serif, Normal';white-space:pre;shape-inside:url(#rect7245-8)">
      <path
         d="m -52.562352,-338.86636 q 3.385427,1.14584 6.56252,4.89585 3.229177,3.75001 6.458354,10.31254 l 10.677117,21.25006 H -40.16648 l -9.947948,-19.94798 q -3.854179,-7.81252 -7.500023,-10.36461 -3.593761,-2.55209 -9.843781,-2.55209 h -11.458369 v 32.86468 h -10.520866 v -77.76066 h 23.750074 q 13.333375,0 19.895895,5.57294 6.562521,5.57293 6.562521,16.82297 0,7.34377 -3.437511,12.18753 -3.385427,4.84377 -9.895864,6.71877 z m -26.354249,-32.65635 v 27.60426 h 13.229208 q 7.60419,0 11.458369,-3.4896 3.906262,-3.54168 3.906262,-10.36461 0,-6.82294 -3.906262,-10.26045 -3.854179,-3.4896 -11.458369,-3.4896 z"
         id="path34004" />
      <path
         d="m -16.520573,-380.16857 h 10.5729497 v 47.23973 q 0,12.50004 4.5312642,18.02089 4.5312641,5.46877 14.6875461,5.46877 10.104198,0 14.635462,-5.46877 4.531264,-5.52085 4.531264,-18.02089 v -47.23973 h 10.57295 v 48.54182 q 0,15.20838 -7.552107,22.96882 -7.500023,7.76044 -22.187569,7.76044 -14.7396296,0 -22.2917365,-7.76044 -7.5000235,-7.76044 -7.5000235,-22.96882 z"
         id="path34006" />
      <path
         d="m 62.750506,-380.16857 h 14.166711 l 34.479273,65.05229 v -65.05229 h 10.20837 v 77.76066 h -14.16671 l -34.479279,-65.05228 v 65.05228 H 62.750506 Z"
         id="path34008" />
    </g>
    <g
       aria-label="SPEED"
       transform="matrix(0.16410864,0,0,0.16410864,163.56279,294.86744)"
       id="text7243-5-9"
       style="font-size:106.667px;line-height:1.25;-inkscape-font-specification:'sans-serif, Normal';white-space:pre;shape-inside:url(#rect7245-8-0)">
      <path
         d="m -42.822738,-377.61648 v 10.26045 q -5.989602,-2.86459 -11.302119,-4.27084 -5.312517,-1.40626 -10.260449,-1.40626 -8.593777,0 -13.281291,3.33334 -4.635431,3.33335 -4.635431,9.4792 0,5.15627 3.072926,7.81253 3.12501,2.60417 11.77087,4.21876 l 6.354187,1.30209 q 11.77087,2.23959 17.343804,7.91669 5.625017,5.62502 5.625017,15.10421 0,11.30212 -7.60419,17.13547 -7.552107,5.83335 -22.187569,5.83335 -5.520851,0 -11.770871,-1.25 -6.197936,-1.25 -12.864623,-3.69793 v -10.83337 q 6.40627,3.59376 12.552122,5.41669 6.145853,1.82292 12.083372,1.82292 9.010444,0 13.906293,-3.54168 4.895849,-3.54168 4.895849,-10.1042 0,-5.72918 -3.541678,-8.95836 -3.489594,-3.22917 -11.510453,-4.84376 l -6.40627,-1.25001 q -11.77087,-2.34375 -17.031303,-7.34377 -5.260433,-5.00002 -5.260433,-13.90629 0,-10.31254 7.239606,-16.25005 7.291689,-5.93752 20.052146,-5.93752 5.468767,0 11.145868,0.98958 5.677101,0.98959 11.61462,2.96876 z"
         id="path34011" />
      <path
         d="m -11.208059,-371.52271 v 29.21884 H 2.0211487 q 7.343773,0 11.3542023,-3.80209 4.010429,-3.8021 4.010429,-10.83337 0,-6.97919 -4.010429,-10.78128 -4.0104293,-3.8021 -11.3542023,-3.8021 z m -10.520866,-8.64586 H 2.0211487 q 13.0729573,0 19.7396453,5.93752 6.718771,5.88544 6.718771,17.29172 0,11.51045 -6.718771,17.39589 -6.666688,5.88543 -19.7396453,5.88543 H -11.208059 v 31.2501 h -10.520866 z"
         id="path34013" />
      <path
         d="m 42.594195,-380.16857 h 49.16682 v 8.8542 H 53.115061 v 23.0209 h 37.031366 v 8.8542 H 53.115061 v 28.17717 h 39.583457 v 8.85419 H 42.594195 Z"
         id="path34015" />
      <path
         d="m 109.99024,-380.16857 h 49.16682 v 8.8542 H 120.5111 v 23.0209 h 37.03137 v 8.8542 H 120.5111 v 28.17717 h 39.58346 v 8.85419 h -50.10432 z"
         id="path34017" />
      <path
         d="m 187.90713,-371.52271 v 60.46894 h 12.70837 q 16.0938,0 23.54174,-7.29169 7.50003,-7.29169 7.50003,-23.0209 0,-15.62505 -7.50003,-22.86466 -7.44794,-7.29169 -23.54174,-7.29169 z m -10.52087,-8.64586 h 21.61465 q 22.60424,0 33.17719,9.42711 10.57295,9.37503 10.57295,29.3751 0,20.10423 -10.62503,29.53134 -10.62504,9.42711 -33.12511,9.42711 h -21.61465 z"
         id="path34019" />
    </g>
    <g
       aria-label="NETWORK"
       transform="matrix(0.16410864,0,0,0.16410864,129.69046,321.56459)"
       id="text7243-5-3"
       style="font-size:106.667px;line-height:1.25;-inkscape-font-specification:'sans-serif, Normal';white-space:pre;shape-inside:url(#rect7245-8-6)">
      <path
         d="m -89.437467,-380.16857 h 14.166711 l 34.479274,65.05229 v -65.05229 h 10.208365 v 77.76066 h -14.166711 l -34.479274,-65.05228 v 65.05228 h -10.208365 z"
         id="path34022" />
      <path
         d="M -9.6455514,-380.16857 H 39.521269 v 8.8542 H 0.87531478 v 23.0209 H 37.90668 v 8.8542 H 0.87531478 v 28.17717 H 40.458772 v 8.85419 H -9.6455514 Z"
         id="path34024" />
      <path
         d="m 46.969207,-380.16857 h 65.781453 v 8.8542 H 85.146409 v 68.90646 H 74.57346 v -68.90646 H 46.969207 Z"
         id="path34026" />
      <path
         d="m 115.97985,-380.16857 h 10.62503 l 16.35422,65.72937 16.30213,-65.72937 h 11.82296 l 16.35422,65.72937 16.30213,-65.72937 h 10.67712 l -19.53131,77.76066 h -13.22921 l -16.4063,-67.50021 -16.56256,67.50021 h -13.2292 z"
         id="path34028" />
      <path
         d="m 259.93861,-373.03313 q -11.45837,0 -18.22923,8.54169 -6.71877,8.5417 -6.71877,23.28133 0,14.68754 6.71877,23.22924 6.77086,8.54169 18.22923,8.54169 11.45837,0 18.12505,-8.54169 6.71878,-8.5417 6.71878,-23.22924 0,-14.73963 -6.71878,-23.28133 -6.66668,-8.54169 -18.12505,-8.54169 z m 0,-8.54169 q 16.35422,0 26.14591,10.98962 9.7917,10.93753 9.7917,29.37509 0,18.38547 -9.7917,29.37509 -9.79169,10.93753 -26.14591,10.93753 -16.4063,0 -26.25008,-10.93753 -9.7917,-10.93754 -9.7917,-29.37509 0,-18.43756 9.7917,-29.37509 9.84378,-10.98962 26.25008,-10.98962 z"
         id="path34030" />
      <path
         d="m 349.20974,-338.86636 q 3.38543,1.14584 6.56252,4.89585 3.22918,3.75001 6.45836,10.31254 l 10.67711,21.25006 h -11.30212 l -9.94794,-19.94798 q -3.85418,-7.81252 -7.50003,-10.36461 -3.59376,-2.55209 -9.84378,-2.55209 h -11.45837 v 32.86468 h -10.52086 v -77.76066 h 23.75007 q 13.33338,0 19.8959,5.57294 6.56252,5.57293 6.56252,16.82297 0,7.34377 -3.43751,12.18753 -3.38543,4.84377 -9.89587,6.71877 z m -26.35425,-32.65635 v 27.60426 h 13.22921 q 7.60419,0 11.45837,-3.4896 3.90626,-3.54168 3.90626,-10.36461 0,-6.82294 -3.90626,-10.26045 -3.85418,-3.4896 -11.45837,-3.4896 z"
         id="path34032" />
      <path
         d="m 386.44943,-380.16857 h 10.52087 v 32.86469 l 34.89594,-32.86469 h 13.54171 l -38.59387,36.25012 41.3543,41.51054 h -13.85421 l -37.34387,-37.44803 v 37.44803 h -10.52087 z"
         id="path34034" />
    </g>
    <g
       aria-label="VFD"
       transform="matrix(0.16410864,0,0,0.16410864,141.35189,352.52169)"
       id="text7243-6"
       style="font-size:200px;line-height:1.25;-inkscape-font-specification:'sans-serif, Normal';white-space:pre;shape-inside:url(#rect7245-85)">
      <path
         d="M -42.679687,-219.83008 -98.34375,-365.63086 h 20.605469 l 46.191406,122.75391 46.289063,-122.75391 H 35.25 l -55.566406,145.80078 z"
         id="path34037" />
      <path
         d="m 56.539062,-365.63086 h 83.789058 v 16.60156 H 76.265625 v 42.96875 h 57.812495 v 16.60157 H 76.265625 v 69.6289 H 56.539062 Z"
         id="path34039" />
      <path
         d="m 191.30469,-349.41992 v 113.3789 h 23.82812 q 30.17578,0 44.14063,-13.67187 14.0625,-13.67188 14.0625,-43.16406 0,-29.29688 -14.0625,-42.8711 -13.96485,-13.67187 -44.14063,-13.67187 z m -19.72657,-16.21094 h 40.52735 q 42.38281,0 62.20703,17.67578 19.82422,17.57813 19.82422,55.07813 0,37.69531 -19.92188,55.37109 -19.92187,17.67578 -62.10937,17.67578 h -40.52735 z"
         id="path34041" />
    </g>
    <text
       xml:space="preserve"
       transform="matrix(0.16410864,0,0,0.16410864,-66.779106,145.46714)"
       id="text26039"
       style="font-style:normal;font-weight:normal;font-size:40px;line-height:1.25;font-family:sans-serif;-inkscape-font-specification:'sans-serif, Normal';white-space:pre;shape-inside:url(#rect26041);fill:#000000;fill-opacity:1;stroke:none;stroke-width:0.620253" />
  </g>
</svg>
