<?xml version="1.0" encoding="UTF-8" standalone="no"?>
<!DOCTYPE svg PUBLIC "-//W3C//DTD SVG 1.0//EN" "http://www.w3.org/TR/2001/REC-SVG-20010904/DTD/svg10.dtd">
<!-- Generiert durch Microsoft Visio 11.0, SVG Export, v1.0 IntMassVarRC.svg IntMassVarRC -->
<svg xmlns="http://www.w3.org/2000/svg" xmlns:xlink="http://www.w3.org/1999/xlink" xmlns:ev="http://www.w3.org/2001/xml-events"
		xmlns:v="http://schemas.microsoft.com/visio/2003/SVGExtensions/" width="11.6929in" height="8.26772in"
		viewBox="0 0 841.89 595.276" xml:space="preserve" color-interpolation-filters="sRGB" class="st9">
	<v:documentProperties v:langID="1031" v:metric="true">
		<v:userDefs>
			<v:ud v:nameU="msvNoAutoConnect" v:val="VT0(1):26"/>
		</v:userDefs>
	</v:documentProperties>

	<style type="text/css">
	<![CDATA[
		.st1 {fill:#ffffff;stroke:#000000;stroke-linecap:round;stroke-linejoin:round;stroke-width:0.24}
		.st2 {fill:#000000;font-family:Times New Roman;font-size:1.5em}
		.st3 {font-size:0.555557em}
		.st4 {fill:#000000;stroke:#000000;stroke-linecap:round;stroke-linejoin:round;stroke-width:0.24}
		.st5 {stroke:#000000;stroke-linecap:round;stroke-linejoin:round;stroke-width:0.25}
		.st6 {stroke:#000000;stroke-linecap:round;stroke-linejoin:round;stroke-width:0.24}
		.st7 {stroke:#000000;stroke-dasharray:1.75,1.25;stroke-linecap:round;stroke-linejoin:round;stroke-width:0.25}
		.st8 {fill:none;stroke:none;stroke-linecap:round;stroke-linejoin:round;stroke-width:0.75}
		.st9 {fill:none;fill-rule:evenodd;font-size:12px;overflow:visible;stroke-linecap:square;stroke-miterlimit:3}
	]]>
	</style>

	<g v:mID="10" v:index="8" v:groupContext="foregroundPage">
		<title>IntMassVarRC</title>
		<v:pageProperties v:drawingScale="0.0393701" v:pageScale="0.0393701" v:drawingUnits="24" v:shadowOffsetX="8.50394"
				v:shadowOffsetY="-8.50394"/>
		<v:layer v:name="Verbinder" v:index="0"/>
		<v:layer v:name="Elektrisch" v:index="1"/>
		<g id="shape1-1" v:mID="1" v:groupContext="shape" transform="translate(93.5433,-430.157)">
			<title>Feld</title>
			<desc>RInt[1]</desc>
			<v:userDefs>
				<v:ud v:nameU="visVersion" v:val="VT0(14):26"/>
			</v:userDefs>
			<v:textBlock v:margins="rect(4,4,4,4)" v:tabSpace="42.5197"/>
			<v:textRect cx="28.3465" cy="583.228" width="56.7" height="24.0945"/>
			<rect x="0" y="571.181" width="56.6929" height="24.0945" class="st1"/>
			<text x="6.3" y="588.63" class="st2" v:langID="1031"><v:paragraph v:horizAlign="1"/><v:tabList/>R<tspan class="st3">Int</tspan>[1]</text>		</g>
		<g id="shape2-5" v:mID="2" v:groupContext="shape" transform="translate(180,-440.646)">
			<title>Kreis.3</title>
			<v:userDefs>
				<v:ud v:nameU="visVersion" v:val="VT0(14):26"/>
			</v:userDefs>
			<path d="M0 593.72 A1.41732 1.55906 0 1 1 2.83 593.72 A1.41732 1.55906 0 1 1 -0 593.72 Z" class="st4"/>
		</g>
		<g id="shape3-7" v:mID="3" v:groupContext="shape" v:layerMember="0" transform="translate(150.236,-435.118)">
			<title>Dynamischer Verbinder</title>
			<path d="M0 588.19 L29.76 588.19" class="st5"/>
		</g>
		<g id="group4-10" transform="translate(357.165,-360)" v:mID="4" v:groupContext="group">
			<title>Tabelle.4</title>
		</g>
		<g id="group5-11" transform="translate(765.014,161.575) rotate(90)" v:mID="5" v:groupContext="group" v:layerMember="1">
			<v:userDefs>
				<v:ud v:nameU="visVersion" v:val="VT0(14):26"/>
				<v:ud v:nameU="visDescription" v:val="VT4(Relaiskontakte)"/>
			</v:userDefs>
			<title>Relaiskontakte.45</title>
			<desc>CInt[1]</desc>
			<g id="shape6-12" v:mID="6" v:groupContext="shape" v:layerMember="1" transform="translate(-8.31357E-012,-11.6787)">
				<title>Tabelle.6</title>
				<path d="M0 595.28 L23.36 595.28" class="st6"/>
			</g>
			<g id="shape7-15" v:mID="7" v:groupContext="shape" v:layerMember="1" transform="translate(58.3937,1178.87) rotate(180)">
				<title>Tabelle.7</title>
				<path d="M0 595.28 L23.36 595.28" class="st6"/>
			</g>
			<g id="shape8-18" v:mID="8" v:groupContext="shape" v:layerMember="1" transform="translate(11.6787,0)">
				<title>Tabelle.8</title>
				<path d="M23.36 571.92 L23.36 595.28" class="st6"/>
				<path d="M11.68 571.92 L11.68 595.28" class="st6"/>
			</g>
			<g id="shape5-22" v:mID="5" v:groupContext="groupContent" v:layerMember="1">
				<v:textBlock v:margins="rect(1,1,1,1)" v:tabSpace="42.5197" v:verticalAlign="0"/>
				<v:textRect cx="28.3465" cy="623.282" width="50.61" height="23.6036" transform="rotate(-90)"/>
				<text x="-645.33" y="33.74" transform="rotate(-90)" class="st2" v:langID="1031"><v:paragraph v:horizAlign="1"/><v:tabList/>C<tspan
							class="st3">Int</tspan>[1]</text>			</g>
		</g>
		<g id="shape9-25" v:mID="9" v:groupContext="shape" v:layerMember="0" transform="translate(174.331,-445.039)">
			<title>Dynamischer Verbinder.47</title>
			<path d="M7.09 598.11 L7.09 606.61" class="st5"/>
		</g>
		<g id="shape10-28" v:mID="10" v:groupContext="shape" transform="translate(180,-365.386)">
			<title>Kreis.53</title>
			<v:userDefs>
				<v:ud v:nameU="visVersion" v:val="VT0(14):26"/>
			</v:userDefs>
			<path d="M0 593.72 A1.41732 1.55906 0 1 1 2.83 593.72 A1.41732 1.55906 0 1 1 -0 593.72 Z" class="st4"/>
		</g>
		<g id="shape11-30" v:mID="11" v:groupContext="shape" v:layerMember="0" transform="translate(174.331,-378.992)">
			<title>Dynamischer Verbinder.50</title>
			<path d="M7.09 598.96 L7.09 605.76" class="st5"/>
		</g>
		<g id="shape12-33" v:mID="12" v:groupContext="shape" transform="translate(299.055,-440.646)">
			<title>Kreis.5</title>
			<v:userDefs>
				<v:ud v:nameU="visVersion" v:val="VT0(14):26"/>
			</v:userDefs>
			<path d="M0 593.72 A1.41732 1.55906 0 1 1 2.83 593.72 A1.41732 1.55906 0 1 1 -0 593.72 Z" class="st4"/>
		</g>
		<g id="shape13-35" v:mID="13" v:groupContext="shape" v:layerMember="0" transform="translate(63.7795,-435.118)">
			<title>Dynamischer Verbinder.8</title>
			<path d="M0 588.19 L29.76 588.19" class="st5"/>
		</g>
		<g id="shape14-38" v:mID="14" v:groupContext="shape" transform="translate(54.9213,-437.333)">
			<title>Kreis.11</title>
			<v:userDefs>
				<v:ud v:nameU="visVersion" v:val="VT0(14):26"/>
			</v:userDefs>
			<path d="M0 590.4 A4.42913 4.87205 0 1 1 8.86 590.4 A4.42913 4.87205 0 1 1 -0 590.4 Z" class="st1"/>
		</g>
		<g id="group16-40" transform="translate(884.069,161.575) rotate(90)" v:mID="16" v:groupContext="group" v:layerMember="1">
			<v:userDefs>
				<v:ud v:nameU="visVersion" v:val="VT0(14):26"/>
				<v:ud v:nameU="visDescription" v:val="VT4(Relaiskontakte)"/>
			</v:userDefs>
			<title>Relaiskontakte.15</title>
			<desc>CInt[2]</desc>
			<g id="shape17-41" v:mID="17" v:groupContext="shape" v:layerMember="1" transform="translate(-8.31357E-012,-11.6787)">
				<title>Tabelle.17</title>
				<path d="M0 595.28 L23.36 595.28" class="st6"/>
			</g>
			<g id="shape18-44" v:mID="18" v:groupContext="shape" v:layerMember="1"
					transform="translate(58.3937,1178.87) rotate(180)">
				<title>Tabelle.18</title>
				<path d="M0 595.28 L23.36 595.28" class="st6"/>
			</g>
			<g id="shape19-47" v:mID="19" v:groupContext="shape" v:layerMember="1" transform="translate(11.6787,0)">
				<title>Tabelle.19</title>
				<path d="M23.36 571.92 L23.36 595.28" class="st6"/>
				<path d="M11.68 571.92 L11.68 595.28" class="st6"/>
			</g>
			<g id="shape16-51" v:mID="16" v:groupContext="groupContent" v:layerMember="1">
				<v:textBlock v:margins="rect(1,1,1,1)" v:tabSpace="42.5197" v:verticalAlign="0"/>
				<v:textRect cx="28.3465" cy="623.282" width="50.61" height="23.6036" transform="rotate(-90)"/>
				<text x="-645.33" y="33.74" transform="rotate(-90)" class="st2" v:langID="1031"><v:paragraph v:horizAlign="1"/><v:tabList/>C<tspan
							class="st3">Int</tspan>[2]</text>			</g>
		</g>
		<g id="shape20-54" v:mID="20" v:groupContext="shape" v:layerMember="0" transform="translate(293.386,-444.26)">
			<title>Dynamischer Verbinder.20</title>
			<path d="M7.09 598.89 L7.09 605.83" class="st5"/>
		</g>
		<g id="shape21-57" v:mID="21" v:groupContext="shape" transform="translate(299.055,-365.386)">
			<title>Kreis.22</title>
			<v:userDefs>
				<v:ud v:nameU="visVersion" v:val="VT0(14):26"/>
			</v:userDefs>
			<path d="M0 593.72 A1.41732 1.55906 0 1 1 2.83 593.72 A1.41732 1.55906 0 1 1 -0 593.72 Z" class="st4"/>
		</g>
		<g id="shape22-59" v:mID="22" v:groupContext="shape" v:layerMember="0" transform="translate(293.386,-378.213)">
			<title>Dynamischer Verbinder.24</title>
			<path d="M7.09 598.18 L7.09 606.54" class="st5"/>
		</g>
		<g id="shape23-62" v:mID="23" v:groupContext="shape" v:layerMember="0" transform="translate(182.835,-359.858)">
			<title>Dynamischer Verbinder.21</title>
			<path d="M0 588.19 L116.22 588.19" class="st5"/>
		</g>
		<g id="shape24-65" v:mID="24" v:groupContext="shape" transform="translate(54.9213,-362.073)">
			<title>Kreis.26</title>
			<v:userDefs>
				<v:ud v:nameU="visVersion" v:val="VT0(14):26"/>
			</v:userDefs>
			<path d="M0 590.4 A4.42913 4.87205 0 1 1 8.86 590.4 A4.42913 4.87205 0 1 1 -0 590.4 Z" class="st1"/>
		</g>
		<g id="shape26-67" v:mID="26" v:groupContext="shape" v:layerMember="0" transform="translate(180,-359.858)">
			<title>Dynamischer Verbinder.10</title>
			<path d="M0 588.19 L-116.22 588.19" class="st5"/>
		</g>
		<g id="shape27-70" v:mID="27" v:groupContext="shape" transform="translate(212.598,-430.157)">
			<title>Feld.3</title>
			<desc>RInt[2]</desc>
			<v:userDefs>
				<v:ud v:nameU="visVersion" v:val="VT0(14):26"/>
			</v:userDefs>
			<v:textBlock v:margins="rect(4,4,4,4)" v:tabSpace="42.5197"/>
			<v:textRect cx="28.3465" cy="583.228" width="56.7" height="24.0945"/>
			<rect x="0" y="571.181" width="56.6929" height="24.0945" class="st1"/>
			<text x="6.3" y="588.63" class="st2" v:langID="1031"><v:paragraph v:horizAlign="1"/><v:tabList/>R<tspan class="st3">Int</tspan>[2]</text>		</g>
		<g id="shape28-74" v:mID="28" v:groupContext="shape" v:layerMember="0" transform="translate(182.835,-435.118)">
			<title>Dynamischer Verbinder.5</title>
			<path d="M0 588.19 L29.76 588.19" class="st5"/>
		</g>
		<g id="shape29-77" v:mID="29" v:groupContext="shape" v:layerMember="0" transform="translate(269.291,-435.118)">
			<title>Dynamischer Verbinder.14</title>
			<path d="M0 588.19 L29.76 588.19" class="st5"/>
		</g>
		<g id="group31-80" transform="translate(1078.07,161.575) rotate(90)" v:mID="31" v:groupContext="group" v:layerMember="1">
			<v:userDefs>
				<v:ud v:nameU="visVersion" v:val="VT0(14):26"/>
				<v:ud v:nameU="visDescription" v:val="VT4(Relaiskontakte)"/>
			</v:userDefs>
			<title>Relaiskontakte.17</title>
			<desc>CInt[end]</desc>
			<g id="shape32-81" v:mID="32" v:groupContext="shape" v:layerMember="1" transform="translate(-8.31357E-012,-11.6787)">
				<title>Tabelle.32</title>
				<path d="M0 595.28 L23.36 595.28" class="st6"/>
			</g>
			<g id="shape33-84" v:mID="33" v:groupContext="shape" v:layerMember="1"
					transform="translate(58.3937,1178.87) rotate(180)">
				<title>Tabelle.33</title>
				<path d="M0 595.28 L23.36 595.28" class="st6"/>
			</g>
			<g id="shape34-87" v:mID="34" v:groupContext="shape" v:layerMember="1" transform="translate(11.6787,0)">
				<title>Tabelle.34</title>
				<path d="M23.36 571.92 L23.36 595.28" class="st6"/>
				<path d="M11.68 571.92 L11.68 595.28" class="st6"/>
			</g>
			<g id="shape31-91" v:mID="31" v:groupContext="groupContent" v:layerMember="1">
				<v:textBlock v:margins="rect(1,1,1,1)" v:tabSpace="42.5197" v:verticalAlign="0"/>
				<v:textRect cx="27.6378" cy="630.198" width="67.6" height="23.6036" transform="rotate(-90)"/>
				<text x="-660.74" y="33.04" transform="rotate(-90)" class="st2" v:langID="1031"><v:paragraph v:horizAlign="1"/><v:tabList/>C<tspan
							class="st3">Int</tspan>[end]</text>			</g>
		</g>
		<g id="shape36-94" v:mID="36" v:groupContext="shape" transform="translate(493.058,-365.386)">
			<title>Kreis.36</title>
			<v:userDefs>
				<v:ud v:nameU="visVersion" v:val="VT0(14):26"/>
			</v:userDefs>
			<path d="M0 593.72 A1.41732 1.55906 0 1 1 2.83 593.72 A1.41732 1.55906 0 1 1 -0 593.72 Z" class="st4"/>
		</g>
		<g id="shape37-96" v:mID="37" v:groupContext="shape" v:layerMember="0" transform="translate(487.389,-378.213)">
			<title>Dynamischer Verbinder.37</title>
			<path d="M7.09 598.18 L7.09 606.54" class="st5"/>
		</g>
		<g id="shape38-99" v:mID="38" v:groupContext="shape" transform="translate(391.181,-430.157)">
			<title>Feld.38</title>
			<desc>RInt[end]</desc>
			<v:userDefs>
				<v:ud v:nameU="visVersion" v:val="VT0(14):26"/>
			</v:userDefs>
			<v:textBlock v:margins="rect(4,4,4,4)" v:tabSpace="42.5197"/>
			<v:textRect cx="36.0567" cy="583.228" width="72.12" height="24.0945"/>
			<rect x="0" y="571.181" width="72.1134" height="24.0945" class="st1"/>
			<text x="5.51" y="588.63" class="st2" v:langID="1031"><v:paragraph v:horizAlign="1"/><v:tabList/>R<tspan class="st3">Int</tspan>[end]</text>		</g>
		<g id="shape44-103" v:mID="44" v:groupContext="shape" v:layerMember="0" transform="translate(301.89,-359.858)">
			<title>Dynamischer Verbinder.44</title>
			<path d="M0 588.19 L191.17 588.19" class="st7"/>
		</g>
		<g id="shape45-106" v:mID="45" v:groupContext="shape" v:layerMember="0" transform="translate(301.89,-435.118)">
			<title>Dynamischer Verbinder.45</title>
			<path d="M0 588.19 L89.29 588.19" class="st7"/>
		</g>
		<g id="shape46-109" v:mID="46" v:groupContext="shape" transform="translate(28.0472,-411.024)">
			<title>Tabelle.46</title>
			<desc>port_a</desc>
			<v:textBlock v:margins="rect(1,1,1,1)" v:tabSpace="42.5197" v:verticalAlign="0"/>
			<v:textRect cx="37" cy="591.276" width="74.01" height="8"/>
			<rect x="0" y="587.276" width="74" height="8" class="st8"/>
			<text x="14.01" y="604.48" class="st2" v:langID="1031"><v:paragraph v:horizAlign="1"/><v:tabList/>port_a</text>		</g>
		<g id="shape15-112" v:mID="15" v:groupContext="shape" v:layerMember="0" transform="translate(463.294,-445.039)">
			<title>Dynamischer Verbinder.15</title>
			<path d="M0 598.11 L31.18 598.11 L31.18 606.61" class="st5"/>
		</g>
	</g>
</svg>
