<?xml version="1.0" encoding="UTF-8" standalone="no"?>
<svg
   xmlns:dc="http://purl.org/dc/elements/1.1/"
   xmlns:cc="http://creativecommons.org/ns#"
   xmlns:rdf="http://www.w3.org/1999/02/22-rdf-syntax-ns#"
   xmlns:svg="http://www.w3.org/2000/svg"
   xmlns="http://www.w3.org/2000/svg"
   xmlns:sodipodi="http://sodipodi.sourceforge.net/DTD/sodipodi-0.dtd"
   xmlns:inkscape="http://www.inkscape.org/namespaces/inkscape"
   viewBox="0 0 659 412"
   version="1.1"
   id="svg147"
   sodipodi:docname="fanSpeedFiltered.svg"
   inkscape:export-filename="/home/mwetter/proj/ldrd/bie/modeling/github/ibpsa/modelica-ibpsa/IBPSA/Resources/Images/Fluid/Movers/UsersGuide/fanSpeedFiltered.png"
   inkscape:export-xdpi="300"
   inkscape:export-ydpi="300"
   inkscape:version="0.92.5 (2060ec1f9f, 2020-04-08)">
  <metadata
     id="metadata153">
    <rdf:RDF>
      <cc:Work
         rdf:about="">
        <dc:format>image/svg+xml</dc:format>
        <dc:type
           rdf:resource="http://purl.org/dc/dcmitype/StillImage" />
      </cc:Work>
    </rdf:RDF>
  </metadata>
  <defs
     id="defs151" />
  <sodipodi:namedview
     pagecolor="#ffffff"
     bordercolor="#666666"
     borderopacity="1"
     objecttolerance="10"
     gridtolerance="10"
     guidetolerance="10"
     inkscape:pageopacity="0"
     inkscape:pageshadow="2"
     inkscape:window-width="1877"
     inkscape:window-height="1222"
     id="namedview149"
     showgrid="false"
     inkscape:zoom="0.57281553"
     inkscape:cx="332.99153"
     inkscape:cy="206"
     inkscape:window-x="0"
     inkscape:window-y="25"
     inkscape:window-maximized="0"
     inkscape:current-layer="svg147" />
  <polyline
     fill="none"
     stroke="rgb(229,229,229)"
     stroke-width="0.5"
     stroke-opacity="1"
     points="104,26 104,333"
     id="polyline2" />
  <polyline
     fill="none"
     stroke="rgb(229,229,229)"
     stroke-width="0.5"
     stroke-opacity="1"
     points="155.5,26 155.5,333"
     id="polyline4" />
  <polyline
     fill="none"
     stroke="rgb(229,229,229)"
     stroke-width="0.5"
     stroke-opacity="1"
     points="207,26 207,333"
     id="polyline6" />
  <polyline
     fill="none"
     stroke="rgb(229,229,229)"
     stroke-width="0.5"
     stroke-opacity="1"
     points="258.5,26 258.5,333"
     id="polyline8" />
  <polyline
     fill="none"
     stroke="rgb(229,229,229)"
     stroke-width="0.5"
     stroke-opacity="1"
     points="310,26 310,333"
     id="polyline10" />
  <polyline
     fill="none"
     stroke="rgb(229,229,229)"
     stroke-width="0.5"
     stroke-opacity="1"
     points="361.5,26 361.5,333"
     id="polyline12" />
  <polyline
     fill="none"
     stroke="rgb(229,229,229)"
     stroke-width="0.5"
     stroke-opacity="1"
     points="413,26 413,333"
     id="polyline14" />
  <polyline
     fill="none"
     stroke="rgb(229,229,229)"
     stroke-width="0.5"
     stroke-opacity="1"
     points="464.5,26 464.5,333"
     id="polyline16" />
  <polyline
     fill="none"
     stroke="rgb(229,229,229)"
     stroke-width="0.5"
     stroke-opacity="1"
     points="516,26 516,333"
     id="polyline18" />
  <polyline
     fill="none"
     stroke="rgb(229,229,229)"
     stroke-width="0.5"
     stroke-opacity="1"
     points="567.5,26 567.5,333"
     id="polyline20" />
  <polyline
     fill="none"
     stroke="rgb(229,229,229)"
     stroke-width="0.5"
     stroke-opacity="1"
     points="619,26 619,333"
     id="polyline22" />
  <polyline
     fill="none"
     stroke="rgb(229,229,229)"
     stroke-width="0.5"
     stroke-opacity="1"
     points="104,333 619,333"
     id="polyline24" />
  <polyline
     fill="none"
     stroke="rgb(229,229,229)"
     stroke-width="0.5"
     stroke-opacity="1"
     points="104,289.143 619,289.143"
     id="polyline26" />
  <polyline
     fill="none"
     stroke="rgb(229,229,229)"
     stroke-width="0.5"
     stroke-opacity="1"
     points="104,245.286 619,245.286"
     id="polyline28" />
  <polyline
     fill="none"
     stroke="rgb(229,229,229)"
     stroke-width="0.5"
     stroke-opacity="1"
     points="104,201.429 619,201.429"
     id="polyline30" />
  <polyline
     fill="none"
     stroke="rgb(229,229,229)"
     stroke-width="0.5"
     stroke-opacity="1"
     points="104,157.571 619,157.571"
     id="polyline32" />
  <polyline
     fill="none"
     stroke="rgb(229,229,229)"
     stroke-width="0.5"
     stroke-opacity="1"
     points="104,113.714 619,113.714"
     id="polyline34" />
  <polyline
     fill="none"
     stroke="rgb(229,229,229)"
     stroke-width="0.5"
     stroke-opacity="1"
     points="104,69.8571 619,69.8571"
     id="polyline36" />
  <polyline
     fill="none"
     stroke="rgb(229,229,229)"
     stroke-width="0.5"
     stroke-opacity="1"
     points="104,26 619,26"
     id="polyline38" />
  <polyline
     fill="none"
     stroke="rgb(192,192,192)"
     stroke-width="0.5"
     stroke-opacity="1"
     points="104,289.143 619,289.143"
     id="polyline40" />
  <polyline
     fill="none"
     stroke="rgb(0,0,0)"
     stroke-width="0.5"
     stroke-opacity="1"
     points="104,333 619,333"
     id="polyline42" />
  <polyline
     fill="none"
     stroke="rgb(0,0,0)"
     stroke-width="0.5"
     stroke-opacity="1"
     points="619,333 619,26"
     id="polyline44" />
  <polyline
     fill="none"
     stroke="rgb(0,0,0)"
     stroke-width="0.5"
     stroke-opacity="1"
     points="619,26 104,26"
     id="polyline46" />
  <polyline
     fill="none"
     stroke="rgb(0,0,0)"
     stroke-width="0.5"
     stroke-opacity="1"
     points="104,26 104,333"
     id="polyline48" />
  <polyline
     fill="none"
     stroke="rgb(0,0,0)"
     stroke-width="0.5"
     stroke-opacity="1"
     points="104,333 104,339"
     id="polyline50" />
  <polyline
     fill="none"
     stroke="rgb(0,0,0)"
     stroke-width="0.5"
     stroke-opacity="1"
     points="155.5,333 155.5,339"
     id="polyline52" />
  <polyline
     fill="none"
     stroke="rgb(0,0,0)"
     stroke-width="0.5"
     stroke-opacity="1"
     points="207,333 207,339"
     id="polyline54" />
  <polyline
     fill="none"
     stroke="rgb(0,0,0)"
     stroke-width="0.5"
     stroke-opacity="1"
     points="258.5,333 258.5,339"
     id="polyline56" />
  <polyline
     fill="none"
     stroke="rgb(0,0,0)"
     stroke-width="0.5"
     stroke-opacity="1"
     points="310,333 310,339"
     id="polyline58" />
  <polyline
     fill="none"
     stroke="rgb(0,0,0)"
     stroke-width="0.5"
     stroke-opacity="1"
     points="361.5,333 361.5,339"
     id="polyline60" />
  <polyline
     fill="none"
     stroke="rgb(0,0,0)"
     stroke-width="0.5"
     stroke-opacity="1"
     points="413,333 413,339"
     id="polyline62" />
  <polyline
     fill="none"
     stroke="rgb(0,0,0)"
     stroke-width="0.5"
     stroke-opacity="1"
     points="464.5,333 464.5,339"
     id="polyline64" />
  <polyline
     fill="none"
     stroke="rgb(0,0,0)"
     stroke-width="0.5"
     stroke-opacity="1"
     points="516,333 516,339"
     id="polyline66" />
  <polyline
     fill="none"
     stroke="rgb(0,0,0)"
     stroke-width="0.5"
     stroke-opacity="1"
     points="567.5,333 567.5,339"
     id="polyline68" />
  <polyline
     fill="none"
     stroke="rgb(0,0,0)"
     stroke-width="0.5"
     stroke-opacity="1"
     points="619,333 619,339"
     id="polyline70" />
  <polyline
     fill="none"
     stroke="rgb(0,0,0)"
     stroke-width="0.5"
     stroke-opacity="1"
     points="104,333 104,342.6"
     id="polyline72" />
  <text
     fill="rgb(0,0,0)"
     font-size="17"
     font-family="helvetica"
     text-anchor="middle"
     dominant-baseline="central"
     x="104"
     y="356.5"
     id="text74">0</text>
  <polyline
     fill="none"
     stroke="rgb(0,0,0)"
     stroke-width="0.5"
     stroke-opacity="1"
     points="207,333 207,342.6"
     id="polyline76" />
  <text
     fill="rgb(0,0,0)"
     font-size="17"
     font-family="helvetica"
     text-anchor="middle"
     dominant-baseline="central"
     x="207"
     y="356.5"
     id="text78">20</text>
  <polyline
     fill="none"
     stroke="rgb(0,0,0)"
     stroke-width="0.5"
     stroke-opacity="1"
     points="310,333 310,342.6"
     id="polyline80" />
  <text
     fill="rgb(0,0,0)"
     font-size="17"
     font-family="helvetica"
     text-anchor="middle"
     dominant-baseline="central"
     x="310"
     y="356.5"
     id="text82">40</text>
  <polyline
     fill="none"
     stroke="rgb(0,0,0)"
     stroke-width="0.5"
     stroke-opacity="1"
     points="413,333 413,342.6"
     id="polyline84" />
  <text
     fill="rgb(0,0,0)"
     font-size="17"
     font-family="helvetica"
     text-anchor="middle"
     dominant-baseline="central"
     x="413"
     y="356.5"
     id="text86">60</text>
  <polyline
     fill="none"
     stroke="rgb(0,0,0)"
     stroke-width="0.5"
     stroke-opacity="1"
     points="516,333 516,342.6"
     id="polyline88" />
  <text
     fill="rgb(0,0,0)"
     font-size="17"
     font-family="helvetica"
     text-anchor="middle"
     dominant-baseline="central"
     x="516"
     y="356.5"
     id="text90">80</text>
  <polyline
     fill="none"
     stroke="rgb(0,0,0)"
     stroke-width="0.5"
     stroke-opacity="1"
     points="619,333 619,342.6"
     id="polyline92" />
  <text
     fill="rgb(0,0,0)"
     font-size="17"
     font-family="helvetica"
     text-anchor="middle"
     dominant-baseline="central"
     x="619"
     y="356.5"
     id="text94">100</text>
  <polyline
     fill="none"
     stroke="rgb(0,0,0)"
     stroke-width="0.5"
     stroke-opacity="1"
     points="98,333 104,333"
     id="polyline96" />
  <polyline
     fill="none"
     stroke="rgb(0,0,0)"
     stroke-width="0.5"
     stroke-opacity="1"
     points="98,289.143 104,289.143"
     id="polyline98" />
  <polyline
     fill="none"
     stroke="rgb(0,0,0)"
     stroke-width="0.5"
     stroke-opacity="1"
     points="98,245.286 104,245.286"
     id="polyline100" />
  <polyline
     fill="none"
     stroke="rgb(0,0,0)"
     stroke-width="0.5"
     stroke-opacity="1"
     points="98,201.429 104,201.429"
     id="polyline102" />
  <polyline
     fill="none"
     stroke="rgb(0,0,0)"
     stroke-width="0.5"
     stroke-opacity="1"
     points="98,157.571 104,157.571"
     id="polyline104" />
  <polyline
     fill="none"
     stroke="rgb(0,0,0)"
     stroke-width="0.5"
     stroke-opacity="1"
     points="98,113.714 104,113.714"
     id="polyline106" />
  <polyline
     fill="none"
     stroke="rgb(0,0,0)"
     stroke-width="0.5"
     stroke-opacity="1"
     points="98,69.8571 104,69.8571"
     id="polyline108" />
  <polyline
     fill="none"
     stroke="rgb(0,0,0)"
     stroke-width="0.5"
     stroke-opacity="1"
     points="98,26 104,26"
     id="polyline110" />
  <rect
     fill="none"
     stroke="none"
     stroke-dasharray="none"
     stroke-width="0.5"
     stroke-opacity="1"
     x="14"
     y="278.143"
     width="78"
     height="22"
     id="rect112" />
  <polyline
     fill="none"
     stroke="rgb(0,0,0)"
     stroke-width="0.5"
     stroke-opacity="1"
     points="94.4,289.143 104,289.143"
     id="polyline114" />
  <text
     fill="rgb(0,0,0)"
     font-size="17"
     font-family="helvetica"
     text-anchor="end"
     dominant-baseline="central"
     x="92"
     y="289.143"
     id="text116">0.0</text>
  <polyline
     fill="none"
     stroke="rgb(0,0,0)"
     stroke-width="0.5"
     stroke-opacity="1"
     points="94.4,201.429 104,201.429"
     id="polyline118" />
  <text
     fill="rgb(0,0,0)"
     font-size="17"
     font-family="helvetica"
     text-anchor="end"
     dominant-baseline="central"
     x="92"
     y="201.429"
     id="text120">0.4</text>
  <polyline
     fill="none"
     stroke="rgb(0,0,0)"
     stroke-width="0.5"
     stroke-opacity="1"
     points="94.4,113.714 104,113.714"
     id="polyline122" />
  <text
     fill="rgb(0,0,0)"
     font-size="17"
     font-family="helvetica"
     text-anchor="end"
     dominant-baseline="central"
     x="92"
     y="113.714"
     id="text124">0.8</text>
  <polyline
     fill="none"
     stroke="rgb(0,0,0)"
     stroke-width="0.5"
     stroke-opacity="1"
     points="94.4,26 104,26"
     id="polyline126" />
  <text
     fill="rgb(0,0,0)"
     font-size="17"
     font-family="helvetica"
     text-anchor="end"
     dominant-baseline="central"
     x="92"
     y="26"
     id="text128">1.2</text>
  <text
     fill="rgb(0,0,0)"
     font-size="17"
     font-family="helvetica"
     text-anchor="middle"
     dominant-baseline="central"
     transform="translate(39, 179.5) rotate(-90)"
     id="text130">[1]</text>
  <text
     fill="rgb(0,0,0)"
     font-size="17"
     font-family="helvetica"
     text-anchor="middle"
     dominant-baseline="central"
     x="361.5"
     y="385"
     id="text132">time [s]</text>
  <clipPath
     id="clipArea1">
    <rect
       x="104"
       y="26"
       width="516"
       height="307"
       id="rect134" />
  </clipPath>
  <polyline
     fill="none"
     stroke="rgb(28,108,200)"
     stroke-width="1"
     stroke-opacity="1"
     clip-path="url(#clipArea1)"
     points="104,289.143 105.03,287.681 106.06,286.219 107.09,284.757 108.12,283.295 109.15,281.833 110.18,280.371 111.21,278.91 112.24,277.448 113.27,275.986 114.3,274.524 115.33,273.062 116.36,271.6 117.39,270.138 118.42,268.676 119.45,267.214 120.48,265.752 121.51,264.29 122.54,262.829 123.57,261.367 124.6,259.905 125.63,258.443 126.66,256.981 127.69,255.519 128.72,254.057 129.75,252.595 130.78,251.133 131.81,249.671 132.84,248.21 133.87,246.748 134.9,245.286 135.93,243.824 136.96,242.362 137.99,240.9 139.02,239.438 140.05,237.976 141.08,236.514 142.11,235.052 143.14,233.59 144.17,232.129 145.2,230.667 146.23,229.205 147.26,227.743 148.29,226.281 149.32,224.819 150.35,223.357 151.38,221.895 152.41,220.433 153.44,218.971 154.47,217.51 155.5,216.048 156.53,214.586 157.56,213.124 158.59,211.662 159.62,210.2 160.65,208.738 161.68,207.276 162.71,205.814 163.74,204.352 164.77,202.89 165.8,201.429 166.83,199.967 167.86,198.505 168.89,197.043 169.92,195.581 170.95,194.119 171.98,192.657 173.01,191.195 174.04,189.733 175.07,188.271 176.1,186.81 177.13,185.348 178.16,183.886 179.19,182.424 180.22,180.962 181.25,179.5 182.28,178.038 183.31,176.576 184.34,175.114 185.37,173.652 186.4,172.19 187.43,170.729 188.46,169.267 189.49,167.805 190.52,166.343 191.55,164.881 192.58,163.419 193.61,161.957 194.64,160.495 195.67,159.033 196.7,157.571 197.73,156.11 198.76,154.648 199.79,153.186 200.82,151.724 201.85,150.262 202.88,148.8 203.91,147.338 204.94,145.876 205.97,144.414 207,142.952 208.03,141.49 209.06,140.029 210.09,138.567 211.12,137.105 212.15,135.643 213.18,134.181 214.21,132.719 215.24,131.257 216.27,129.795 217.3,128.333 218.33,126.871 219.36,125.41 220.39,123.948 221.42,122.486 222.45,121.024 223.48,119.562 224.51,118.1 225.54,116.638 226.57,115.176 227.6,113.714 228.63,112.252 229.66,110.79 230.69,109.329 231.72,107.867 232.75,106.405 233.78,104.943 234.81,103.481 235.84,102.019 236.87,100.557 237.9,99.0952 238.93,97.6333 239.96,96.1714 240.99,94.7095 242.02,93.2476 243.05,91.7857 244.08,90.3238 245.11,88.8619 246.14,87.4 247.17,85.9381 248.2,84.4762 249.23,83.0143 250.26,81.5524 251.29,80.0905 252.32,78.6286 253.35,77.1667 254.38,75.7048 255.41,74.2429 256.44,72.7809 257.47,71.492 258.5,70.7542 259.53,70.3496 260.56,70.1271 261.59,70.0051 262.62,69.9382 263.65,69.9016 264.68,69.8817 265.71,69.8708 266.74,69.8647 267.77,69.8613 268.8,69.8594 269.83,69.8584 270.86,69.8578 271.89,69.8575 272.92,69.8573 273.95,69.8572 274.98,69.8572 276.01,69.8571 277.04,69.8571 278.07,69.8571 279.1,69.8571 280.13,69.8571 281.16,69.8571 282.19,69.8571 283.22,69.8571 284.25,69.8571 285.28,69.8571 286.31,69.8571 287.34,69.8571 288.37,69.8571 289.4,69.8571 290.43,69.8571 291.46,69.8571 292.49,69.8571 293.52,69.8571 294.55,69.8571 295.58,69.8571 296.61,69.8571 297.64,69.8571 298.67,69.8571 299.7,69.8571 300.73,69.8571 301.76,69.8571 302.79,69.8571 303.82,69.8571 304.85,69.8571 305.88,69.8571 306.91,69.8571 307.94,69.8571 308.97,69.8571 310,69.8571 311.03,69.8571 312.06,69.8571 313.09,69.8571 314.12,69.8571 315.15,69.8571 316.18,69.8571 317.21,69.8571 318.24,69.8571 319.27,69.8571 320.3,69.8571 321.33,69.8571 322.36,69.8571 323.39,69.8571 324.42,69.8571 325.45,69.8571 326.48,69.8571 327.51,69.8571 328.54,69.8571 329.57,69.8571 330.6,69.8571 331.63,69.8571 332.66,69.8571 333.69,69.8571 334.72,69.8571 335.75,69.8571 336.78,69.8571 337.81,69.8571 338.84,69.8571 339.87,69.8571 340.9,69.8571 341.93,69.8571 342.96,69.8571 343.99,69.8571 345.02,69.8571 346.05,69.8571 347.08,69.8571 348.11,69.8571 349.14,69.8571 350.17,69.8571 351.2,69.8571 352.23,69.8571 353.26,69.8571 354.29,69.8571 355.32,69.8571 356.35,69.8571 357.38,69.8571 358.41,69.8571 359.44,69.8571 360.47,69.8571 361.5,69.8571 362.53,69.8571 363.56,69.8571 364.59,69.8571 365.62,69.8571 366.65,69.8571 367.68,69.8571 368.71,69.8571 369.74,69.8571 370.77,69.8571 371.8,69.8571 372.83,69.8571 373.86,69.8571 374.89,69.8571 375.92,69.8571 376.95,69.8571 377.98,69.8571 379.01,69.8571 380.04,69.8571 381.07,69.8571 382.1,69.8571 383.13,69.8571 384.16,69.8571 385.19,69.8571 386.22,69.8571 387.25,69.8571 388.28,69.8571 389.31,69.8571 390.34,69.8571 391.37,69.8571 392.4,69.8571 393.43,69.8571 394.46,69.8571 395.49,69.8571 396.52,69.8571 397.55,69.8571 398.58,69.8571 399.61,69.8571 400.64,69.8571 401.67,69.8571 402.7,69.8571 403.73,69.8571 404.76,69.8571 405.79,69.8571 406.82,69.8571 407.85,69.8571 408.88,69.8571 409.91,69.8571 410.94,69.8571 411.97,69.8571 413,69.8571 413,69.8571 414.03,71.319 415.06,72.7809 416.09,74.2429 417.12,75.7048 418.15,77.1667 419.18,78.6286 420.21,80.0905 421.24,81.5524 422.27,83.0143 423.3,84.4762 424.33,85.9381 425.36,87.4 426.39,88.8619 427.42,90.3238 428.45,91.7857 429.48,93.2476 430.51,94.7095 431.54,96.1714 432.57,97.6333 433.6,99.0952 434.63,100.557 435.66,102.019 436.69,103.481 437.72,104.943 438.75,106.405 439.78,107.867 440.81,109.329 441.84,110.79 442.87,112.252 443.9,113.714 444.93,115.176 445.96,116.638 446.99,118.1 448.02,119.562 449.05,121.024 450.08,122.486 451.11,123.948 452.14,125.41 453.17,126.871 454.2,128.333 455.23,129.795 456.26,131.257 457.29,132.719 458.32,134.181 459.35,135.643 460.38,137.105 461.41,138.567 462.44,140.029 463.47,141.49 464.5,142.952 465.53,144.414 466.56,145.876 467.59,147.338 468.62,148.8 469.65,150.262 470.68,151.724 471.71,153.186 472.74,154.648 473.77,156.11 474.8,157.571 475.83,159.033 476.86,160.495 477.89,161.957 478.92,163.419 479.95,164.881 480.98,166.343 482.01,167.805 483.04,169.267 484.07,170.729 485.1,172.19 486.13,173.652 487.16,175.114 488.19,176.576 489.22,177.867 490.25,178.603 491.28,179.008 492.31,179.23 493.34,179.352 494.37,179.419 495.4,179.455 496.43,179.475 497.46,179.486 498.49,179.493 499.52,179.496 500.55,179.498 501.58,179.499 502.61,179.499 503.64,179.5 504.67,179.5 505.7,179.5 506.73,179.5 507.76,179.5 508.79,179.5 509.82,179.5 510.85,179.5 511.88,179.5 512.91,179.5 513.94,179.5 514.97,179.5 516,179.5 517.03,179.5 518.06,179.5 519.09,179.5 520.12,179.5 521.15,179.5 522.18,179.5 523.21,179.5 524.24,179.5 525.27,179.5 526.3,179.5 527.33,179.5 528.36,179.5 529.39,179.5 530.42,179.5 531.45,179.5 532.48,179.5 533.51,179.5 534.54,179.5 535.57,179.5 536.6,179.5 537.63,179.5 538.66,179.5 539.69,179.5 540.72,179.5 541.75,179.5 542.78,179.5 543.81,179.5 544.84,179.5 545.87,179.5 546.9,179.5 547.93,179.5 548.96,179.5 549.99,179.5 551.02,179.5 552.05,179.5 553.08,179.5 554.11,179.5 555.14,179.5 556.17,179.5 557.2,179.5 558.23,179.5 559.26,179.5 560.29,179.5 561.32,179.5 562.35,179.5 563.38,179.5 564.41,179.5 565.44,179.5 566.47,179.5 567.5,179.5 568.53,179.5 569.56,179.5 570.59,179.5 571.62,179.5 572.65,179.5 573.68,179.5 574.71,179.5 575.74,179.5 576.77,179.5 577.8,179.5 578.83,179.5 579.86,179.5 580.89,179.5 581.92,179.5 582.95,179.5 583.98,179.5 585.01,179.5 586.04,179.5 587.07,179.5 588.1,179.5 589.13,179.5 590.16,179.5 591.19,179.5 592.22,179.5 593.25,179.5 594.28,179.5 595.31,179.5 596.34,179.5 597.37,179.5 598.4,179.5 599.43,179.5 600.46,179.5 601.49,179.5 602.52,179.5 603.55,179.5 604.58,179.5 605.61,179.5 606.64,179.5 607.67,179.5 608.7,179.5 609.73,179.5 610.76,179.5 611.79,179.5 612.82,179.5 613.85,179.5 614.88,179.5 615.91,179.5 616.94,179.5 617.97,179.5 619,179.5 619,179.5"
     id="polyline137" />
  <polyline
     fill="none"
     stroke="rgb(238,46,47)"
     stroke-width="1"
     stroke-opacity="1"
     clip-path="url(#clipArea1)"
     points="104,69.8571 105.03,69.8571 106.06,69.8571 107.09,69.8571 108.12,69.8571 109.15,69.8571 110.18,69.8571 111.21,69.8571 112.24,69.8571 113.27,69.8571 114.3,69.8571 115.33,69.8571 116.36,69.8571 117.39,69.8571 118.42,69.8571 119.45,69.8571 120.48,69.8571 121.51,69.8571 122.54,69.8571 123.57,69.8571 124.6,69.8571 125.63,69.8571 126.66,69.8571 127.69,69.8571 128.72,69.8571 129.75,69.8571 130.78,69.8571 131.81,69.8571 132.84,69.8571 133.87,69.8571 134.9,69.8571 135.93,69.8571 136.96,69.8571 137.99,69.8571 139.02,69.8571 140.05,69.8571 141.08,69.8571 142.11,69.8571 143.14,69.8571 144.17,69.8571 145.2,69.8571 146.23,69.8571 147.26,69.8571 148.29,69.8571 149.32,69.8571 150.35,69.8571 151.38,69.8571 152.41,69.8571 153.44,69.8571 154.47,69.8571 155.5,69.8571 156.53,69.8571 157.56,69.8571 158.59,69.8571 159.62,69.8571 160.65,69.8571 161.68,69.8571 162.71,69.8571 163.74,69.8571 164.77,69.8571 165.8,69.8571 166.83,69.8571 167.86,69.8571 168.89,69.8571 169.92,69.8571 170.95,69.8571 171.98,69.8571 173.01,69.8571 174.04,69.8571 175.07,69.8571 176.1,69.8571 177.13,69.8571 178.16,69.8571 179.19,69.8571 180.22,69.8571 181.25,69.8571 182.28,69.8571 183.31,69.8571 184.34,69.8571 185.37,69.8571 186.4,69.8571 187.43,69.8571 188.46,69.8571 189.49,69.8571 190.52,69.8571 191.55,69.8571 192.58,69.8571 193.61,69.8571 194.64,69.8571 195.67,69.8571 196.7,69.8571 197.73,69.8571 198.76,69.8571 199.79,69.8571 200.82,69.8571 201.85,69.8571 202.88,69.8571 203.91,69.8571 204.94,69.8571 205.97,69.8571 207,69.8571 208.03,69.8571 209.06,69.8571 210.09,69.8571 211.12,69.8571 212.15,69.8571 213.18,69.8571 214.21,69.8571 215.24,69.8571 216.27,69.8571 217.3,69.8571 218.33,69.8571 219.36,69.8571 220.39,69.8571 221.42,69.8571 222.45,69.8571 223.48,69.8571 224.51,69.8571 225.54,69.8571 226.57,69.8571 227.6,69.8571 228.63,69.8571 229.66,69.8571 230.69,69.8571 231.72,69.8571 232.75,69.8571 233.78,69.8571 234.81,69.8571 235.84,69.8571 236.87,69.8571 237.9,69.8571 238.93,69.8571 239.96,69.8571 240.99,69.8571 242.02,69.8571 243.05,69.8571 244.08,69.8571 245.11,69.8571 246.14,69.8571 247.17,69.8571 248.2,69.8571 249.23,69.8571 250.26,69.8571 251.29,69.8571 252.32,69.8571 253.35,69.8571 254.38,69.8571 255.41,69.8571 256.44,69.8571 257.47,69.8571 258.5,69.8571 259.53,69.8571 260.56,69.8571 261.59,69.8571 262.62,69.8571 263.65,69.8571 264.68,69.8571 265.71,69.8571 266.74,69.8571 267.77,69.8571 268.8,69.8571 269.83,69.8571 270.86,69.8571 271.89,69.8571 272.92,69.8571 273.95,69.8571 274.98,69.8571 276.01,69.8571 277.04,69.8571 278.07,69.8571 279.1,69.8571 280.13,69.8571 281.16,69.8571 282.19,69.8571 283.22,69.8571 284.25,69.8571 285.28,69.8571 286.31,69.8571 287.34,69.8571 288.37,69.8571 289.4,69.8571 290.43,69.8571 291.46,69.8571 292.49,69.8571 293.52,69.8571 294.55,69.8571 295.58,69.8571 296.61,69.8571 297.64,69.8571 298.67,69.8571 299.7,69.8571 300.73,69.8571 301.76,69.8571 302.79,69.8571 303.82,69.8571 304.85,69.8571 305.88,69.8571 306.91,69.8571 307.94,69.8571 308.97,69.8571 310,69.8571 311.03,69.8571 312.06,69.8571 313.09,69.8571 314.12,69.8571 315.15,69.8571 316.18,69.8571 317.21,69.8571 318.24,69.8571 319.27,69.8571 320.3,69.8571 321.33,69.8571 322.36,69.8571 323.39,69.8571 324.42,69.8571 325.45,69.8571 326.48,69.8571 327.51,69.8571 328.54,69.8571 329.57,69.8571 330.6,69.8571 331.63,69.8571 332.66,69.8571 333.69,69.8571 334.72,69.8571 335.75,69.8571 336.78,69.8571 337.81,69.8571 338.84,69.8571 339.87,69.8571 340.9,69.8571 341.93,69.8571 342.96,69.8571 343.99,69.8571 345.02,69.8571 346.05,69.8571 347.08,69.8571 348.11,69.8571 349.14,69.8571 350.17,69.8571 351.2,69.8571 352.23,69.8571 353.26,69.8571 354.29,69.8571 355.32,69.8571 356.35,69.8571 357.38,69.8571 358.41,69.8571 359.44,69.8571 360.47,69.8571 361.5,69.8571 362.53,69.8571 363.56,69.8571 364.59,69.8571 365.62,69.8571 366.65,69.8571 367.68,69.8571 368.71,69.8571 369.74,69.8571 370.77,69.8571 371.8,69.8571 372.83,69.8571 373.86,69.8571 374.89,69.8571 375.92,69.8571 376.95,69.8571 377.98,69.8571 379.01,69.8571 380.04,69.8571 381.07,69.8571 382.1,69.8571 383.13,69.8571 384.16,69.8571 385.19,69.8571 386.22,69.8571 387.25,69.8571 388.28,69.8571 389.31,69.8571 390.34,69.8571 391.37,69.8571 392.4,69.8571 393.43,69.8571 394.46,69.8571 395.49,69.8571 396.52,69.8571 397.55,69.8571 398.58,69.8571 399.61,69.8571 400.64,69.8571 401.67,69.8571 402.7,69.8571 403.73,69.8571 404.76,69.8571 405.79,69.8571 406.82,69.8571 407.85,69.8571 408.88,69.8571 409.91,69.8571 410.94,69.8571 411.97,69.8571 413,69.8571 413,179.5 414.03,179.5 415.06,179.5 416.09,179.5 417.12,179.5 418.15,179.5 419.18,179.5 420.21,179.5 421.24,179.5 422.27,179.5 423.3,179.5 424.33,179.5 425.36,179.5 426.39,179.5 427.42,179.5 428.45,179.5 429.48,179.5 430.51,179.5 431.54,179.5 432.57,179.5 433.6,179.5 434.63,179.5 435.66,179.5 436.69,179.5 437.72,179.5 438.75,179.5 439.78,179.5 440.81,179.5 441.84,179.5 442.87,179.5 443.9,179.5 444.93,179.5 445.96,179.5 446.99,179.5 448.02,179.5 449.05,179.5 450.08,179.5 451.11,179.5 452.14,179.5 453.17,179.5 454.2,179.5 455.23,179.5 456.26,179.5 457.29,179.5 458.32,179.5 459.35,179.5 460.38,179.5 461.41,179.5 462.44,179.5 463.47,179.5 464.5,179.5 465.53,179.5 466.56,179.5 467.59,179.5 468.62,179.5 469.65,179.5 470.68,179.5 471.71,179.5 472.74,179.5 473.77,179.5 474.8,179.5 475.83,179.5 476.86,179.5 477.89,179.5 478.92,179.5 479.95,179.5 480.98,179.5 482.01,179.5 483.04,179.5 484.07,179.5 485.1,179.5 486.13,179.5 487.16,179.5 488.19,179.5 489.22,179.5 490.25,179.5 491.28,179.5 492.31,179.5 493.34,179.5 494.37,179.5 495.4,179.5 496.43,179.5 497.46,179.5 498.49,179.5 499.52,179.5 500.55,179.5 501.58,179.5 502.61,179.5 503.64,179.5 504.67,179.5 505.7,179.5 506.73,179.5 507.76,179.5 508.79,179.5 509.82,179.5 510.85,179.5 511.88,179.5 512.91,179.5 513.94,179.5 514.97,179.5 516,179.5 517.03,179.5 518.06,179.5 519.09,179.5 520.12,179.5 521.15,179.5 522.18,179.5 523.21,179.5 524.24,179.5 525.27,179.5 526.3,179.5 527.33,179.5 528.36,179.5 529.39,179.5 530.42,179.5 531.45,179.5 532.48,179.5 533.51,179.5 534.54,179.5 535.57,179.5 536.6,179.5 537.63,179.5 538.66,179.5 539.69,179.5 540.72,179.5 541.75,179.5 542.78,179.5 543.81,179.5 544.84,179.5 545.87,179.5 546.9,179.5 547.93,179.5 548.96,179.5 549.99,179.5 551.02,179.5 552.05,179.5 553.08,179.5 554.11,179.5 555.14,179.5 556.17,179.5 557.2,179.5 558.23,179.5 559.26,179.5 560.29,179.5 561.32,179.5 562.35,179.5 563.38,179.5 564.41,179.5 565.44,179.5 566.47,179.5 567.5,179.5 568.53,179.5 569.56,179.5 570.59,179.5 571.62,179.5 572.65,179.5 573.68,179.5 574.71,179.5 575.74,179.5 576.77,179.5 577.8,179.5 578.83,179.5 579.86,179.5 580.89,179.5 581.92,179.5 582.95,179.5 583.98,179.5 585.01,179.5 586.04,179.5 587.07,179.5 588.1,179.5 589.13,179.5 590.16,179.5 591.19,179.5 592.22,179.5 593.25,179.5 594.28,179.5 595.31,179.5 596.34,179.5 597.37,179.5 598.4,179.5 599.43,179.5 600.46,179.5 601.49,179.5 602.52,179.5 603.55,179.5 604.58,179.5 605.61,179.5 606.64,179.5 607.67,179.5 608.7,179.5 609.73,179.5 610.76,179.5 611.79,179.5 612.82,179.5 613.85,179.5 614.88,179.5 615.91,179.5 616.94,179.5 617.97,179.5 619,179.5 619,179.5"
     id="polyline139" />
  <text
     fill="rgb(0,0,0)"
     font-size="21"
     font-family="helvetica"
     text-anchor="middle"
     dominant-baseline="central"
     x="181.25"
     y="265.021"
     id="text141">y_start=0</text>
  <text
     fill="rgb(28,108,200)"
     font-size="31"
     font-family="helvetica"
     text-anchor="middle"
     dominant-baseline="central"
     x="263.65"
     y="168.536"
     id="text143">y_actual</text>
  <text
     fill="rgb(238,46,47)"
     font-size="37"
     font-family="helvetica"
     text-anchor="middle"
     dominant-baseline="central"
     x="214.725"
     y="45.7355"
     id="text145">y</text>
</svg>
