<svg width="2417" height="1479" xmlns="http://www.w3.org/2000/svg" xmlns:xlink="http://www.w3.org/1999/xlink" overflow="hidden"><defs><clipPath id="clip0"><rect x="399" y="243" width="2417" height="1479"/></clipPath><clipPath id="clip1"><rect x="1028" y="1345" width="153" height="85"/></clipPath><clipPath id="clip2"><rect x="1028" y="1345" width="153" height="85"/></clipPath><clipPath id="clip3"><rect x="1028" y="1345" width="153" height="85"/></clipPath><clipPath id="clip4"><rect x="1268" y="1086" width="86" height="153"/></clipPath><clipPath id="clip5"><rect x="1268" y="1087" width="84.9999" height="152"/></clipPath><clipPath id="clip6"><rect x="1268" y="1087" width="84.9999" height="152"/></clipPath><clipPath id="clip7"><rect x="1438" y="1017" width="86" height="154"/></clipPath><clipPath id="clip8"><rect x="1438" y="1017" width="86" height="154"/></clipPath><clipPath id="clip9"><rect x="1438" y="1017" width="86" height="154"/></clipPath><clipPath id="clip10"><rect x="2086" y="1338" width="154" height="87"/></clipPath><clipPath id="clip11"><rect x="2086" y="1338" width="154" height="87"/></clipPath><clipPath id="clip12"><rect x="2086" y="1338" width="154" height="87"/></clipPath><clipPath id="clip13"><rect x="1653" y="1426" width="154" height="87"/></clipPath><clipPath id="clip14"><rect x="1653" y="1426" width="154" height="87"/></clipPath><clipPath id="clip15"><rect x="1653" y="1426" width="154" height="87"/></clipPath><clipPath id="clip16"><rect x="2559" y="1425" width="153" height="87"/></clipPath><clipPath id="clip17"><rect x="2559" y="1425" width="153" height="87"/></clipPath><clipPath id="clip18"><rect x="2559" y="1425" width="153" height="87"/></clipPath><clipPath id="clip19"><rect x="630" y="1636" width="153" height="86"/></clipPath><clipPath id="clip20"><rect x="630" y="1636" width="153" height="86"/></clipPath><clipPath id="clip21"><rect x="630" y="1636" width="153" height="86"/></clipPath><clipPath id="clip22"><rect x="1760" y="1083" width="85" height="154"/></clipPath><clipPath id="clip23"><rect x="1760" y="1084" width="84.9999" height="152"/></clipPath><clipPath id="clip24"><rect x="1760" y="1084" width="84.9999" height="152"/></clipPath><clipPath id="clip25"><rect x="1930" y="1015" width="87" height="153"/></clipPath><clipPath id="clip26"><rect x="1930" y="1015" width="87" height="153"/></clipPath><clipPath id="clip27"><rect x="1930" y="1015" width="87" height="153"/></clipPath><clipPath id="clip28"><rect x="2280" y="1081" width="86" height="153"/></clipPath><clipPath id="clip29"><rect x="2280" y="1082" width="85" height="152"/></clipPath><clipPath id="clip30"><rect x="2280" y="1082" width="85" height="152"/></clipPath><clipPath id="clip31"><rect x="2449" y="1013" width="87" height="152"/></clipPath><clipPath id="clip32"><rect x="2449" y="1013" width="87" height="152"/></clipPath><clipPath id="clip33"><rect x="2449" y="1013" width="87" height="152"/></clipPath></defs><g clip-path="url(#clip0)" transform="translate(-399 -243)"><g clip-path="url(#clip1)"><g clip-path="url(#clip2)"><g clip-path="url(#clip3)"><path d="M17.0885 9.73957 67.9114 42.5 17.0885 75.2603Z" transform="matrix(1.78824 0 0 1 1028 1345)"/></g></g></g><rect x="483.5" y="245.5" width="2245" height="778" stroke="#000000" stroke-width="4.58333" stroke-miterlimit="8" fill="#FFFFFF"/><rect x="555.5" y="1260.5" width="312" height="253" stroke="#000000" stroke-width="4.58333" stroke-miterlimit="8" fill="#FFFFFF"/><text font-family="Times New Roman,Times New Roman_MSFontService,sans-serif" font-weight="400" font-size="83" transform="matrix(1 0 0 1 626.391 1417)">Plant</text><rect x="1177.5" y="1238.5" width="1551" height="400" stroke="#000000" stroke-width="4.58333" stroke-miterlimit="8" fill="#FFFFFF"/><rect x="1177.5" y="756.5" width="424" height="190" stroke="#000000" stroke-width="4.58333" stroke-miterlimit="8" fill="#FFFFFF"/><path d="M401 1679 1027.5 1679" stroke="#000000" stroke-width="13.75" stroke-miterlimit="8" fill="none" fill-rule="evenodd"/><path d="M0 0 1937.86 1.49734" stroke="#000000" stroke-width="13.75" stroke-miterlimit="8" fill="none" fill-rule="evenodd" transform="matrix(-1 0 0 1 2808.86 1385)"/><path d="M1023 1469 2513.05 1469" stroke="#000000" stroke-width="13.75" stroke-miterlimit="8" fill="none" fill-rule="evenodd"/><path d="M0 0 0.000360892 210.439" stroke="#000000" stroke-width="13.75" stroke-miterlimit="8" fill="none" fill-rule="evenodd" transform="matrix(1 0 0 -1 1023 1679.44)"/><path d="M406 1387 406 1683.08" stroke="#000000" stroke-width="13.75" stroke-miterlimit="8" fill="none" fill-rule="evenodd"/><path d="M408 1387 555.381 1387" stroke="#000000" stroke-width="13.75" stroke-miterlimit="8" fill="none" fill-rule="evenodd"/><path d="M2812.02 1469.41 2513 1469" stroke="#000000" stroke-width="13.75" stroke-miterlimit="8" fill="none" fill-rule="evenodd"/><path d="M0 0 0.000360892 85.2663" stroke="#000000" stroke-width="13.75" stroke-miterlimit="8" fill="none" fill-rule="evenodd" transform="matrix(1 0 0 -1 2809 1469.27)"/><text font-family="Times New Roman,Times New Roman_MSFontService,sans-serif" font-weight="400" font-size="83" transform="matrix(1 0 0 1 1847.36 1603)">N<tspan font-size="83" x="59.5834" y="0">etwork</tspan></text><rect x="1177.5" y="497.5" width="424" height="189" stroke="#000000" stroke-width="4.58333" stroke-miterlimit="8" fill="#FFFFFF"/><rect x="1675.5" y="756.5" width="424" height="190" stroke="#000000" stroke-width="4.58333" stroke-miterlimit="8" fill="#FFFFFF"/><rect x="1675.5" y="497.5" width="424" height="189" stroke="#000000" stroke-width="4.58333" stroke-miterlimit="8" fill="#FFFFFF"/><rect x="2173.5" y="751.5" width="424" height="190" stroke="#000000" stroke-width="4.58333" stroke-miterlimit="8" fill="#FFFFFF"/><rect x="2173.5" y="492.5" width="424" height="189" stroke="#000000" stroke-width="4.58333" stroke-miterlimit="8" fill="#FFFFFF"/><text font-family="Times New Roman,Times New Roman_MSFontService,sans-serif" font-weight="400" font-size="83" transform="matrix(1 0 0 1 548.957 876)">Uncontrolled ETS<tspan font-size="83" x="0" y="-263">Load</tspan><tspan font-size="83" x="965.761" y="-497">Consumer side</tspan></text><g clip-path="url(#clip4)"><g clip-path="url(#clip5)"><g clip-path="url(#clip6)"><path d="M17.0885 9.73957 67.9114 42.5 17.0885 75.2603Z" transform="matrix(-3.28494e-16 -1.78824 1 -1.83697e-16 1268 1239)"/></g></g></g><g clip-path="url(#clip7)"><g clip-path="url(#clip8)"><g clip-path="url(#clip9)"><path d="M17.0885 9.73957 67.9114 42.5 17.0885 75.2603Z" transform="matrix(1.09498e-16 1.78824 -1 6.12323e-17 1524 1018)"/></g></g></g><g clip-path="url(#clip10)"><g clip-path="url(#clip11)"><g clip-path="url(#clip12)"><path d="M17.0886 9.73961 67.9117 42.5001 17.0886 75.2607Z" transform="matrix(1.79999 0 0 1 2087 1339)"/></g></g></g><g clip-path="url(#clip13)"><g clip-path="url(#clip14)"><g clip-path="url(#clip15)"><path d="M17.0886 9.73961 67.9117 42.5001 17.0886 75.2607Z" transform="matrix(-1.79999 2.20436e-16 -1.22465e-16 -1 1806 1512)"/></g></g></g><g clip-path="url(#clip16)"><g clip-path="url(#clip17)"><g clip-path="url(#clip18)"><path d="M17.0886 9.73961 67.9117 42.5001 17.0886 75.2607Z" transform="matrix(-1.78823 2.18995e-16 -1.22465e-16 -1 2712 1511)"/></g></g></g><g clip-path="url(#clip19)"><g clip-path="url(#clip20)"><g clip-path="url(#clip21)"><path d="M17.0885 9.73957 67.9114 42.5 17.0885 75.2603Z" transform="matrix(-1.78824 2.18996e-16 -1.22465e-16 -1 782 1722)"/></g></g></g><path d="M1310 546 1310 1386.84" stroke="#000000" stroke-width="13.75" stroke-miterlimit="8" fill="none" fill-rule="evenodd"/><path d="M1363.5 546.5C1363.5 530.484 1376.71 517.5 1393 517.5 1409.29 517.5 1422.5 530.484 1422.5 546.5 1422.5 562.516 1409.29 575.5 1393 575.5 1376.71 575.5 1363.5 562.516 1363.5 546.5Z" stroke="#000000" stroke-width="4.58333" stroke-miterlimit="8" fill="#FFFFFF" fill-rule="evenodd"/><path d="M1380.5 521.5 1418.5 546 1380.5 570.5Z" stroke="#000000" stroke-width="4.58333" stroke-miterlimit="8" fill-rule="evenodd"/><path d="M1363.27 546 1302 546" stroke="#000000" stroke-width="13.75" stroke-miterlimit="8" fill="none" fill-rule="evenodd"/><path d="M1484.27 546 1423 546" stroke="#000000" stroke-width="13.75" stroke-miterlimit="8" fill="none" fill-rule="evenodd"/><path d="M0 0 0.000360892 929.271" stroke="#000000" stroke-width="13.75" stroke-miterlimit="8" fill="none" fill-rule="evenodd" transform="matrix(1 0 0 -1 1482 1469.27)"/><g clip-path="url(#clip22)"><g clip-path="url(#clip23)"><g clip-path="url(#clip24)"><path d="M17.0885 9.73957 67.9114 42.5 17.0885 75.2603Z" transform="matrix(-3.28495e-16 -1.78824 1 -1.83697e-16 1760 1236)"/></g></g></g><g clip-path="url(#clip25)"><g clip-path="url(#clip26)"><g clip-path="url(#clip27)"><path d="M17.0886 9.73961 67.9117 42.5001 17.0886 75.2607Z" transform="matrix(1.09497e-16 1.78823 -1 6.12323e-17 2016 1015)"/></g></g></g><path d="M1802 543 1802 1383.84" stroke="#000000" stroke-width="13.75" stroke-miterlimit="8" fill="none" fill-rule="evenodd"/><path d="M1855.5 543C1855.5 526.708 1868.71 513.5 1885 513.5 1901.29 513.5 1914.5 526.708 1914.5 543 1914.5 559.292 1901.29 572.5 1885 572.5 1868.71 572.5 1855.5 559.292 1855.5 543Z" stroke="#000000" stroke-width="4.58333" stroke-miterlimit="8" fill="#FFFFFF" fill-rule="evenodd"/><path d="M1872.5 518.5 1910.5 543 1872.5 567.5Z" stroke="#000000" stroke-width="4.58333" stroke-miterlimit="8" fill-rule="evenodd"/><path d="M1855.27 543 1794 543" stroke="#000000" stroke-width="13.75" stroke-miterlimit="8" fill="none" fill-rule="evenodd"/><path d="M1976.27 542 1915 542" stroke="#000000" stroke-width="13.75" stroke-miterlimit="8" fill="none" fill-rule="evenodd"/><path d="M0 0 0.000360892 929.271" stroke="#000000" stroke-width="13.75" stroke-miterlimit="8" fill="none" fill-rule="evenodd" transform="matrix(1 0 0 -1 1974 1465.27)"/><g clip-path="url(#clip28)"><g clip-path="url(#clip29)"><g clip-path="url(#clip30)"><path d="M17.0885 9.73957 67.9114 42.5 17.0885 75.2603Z" transform="matrix(-3.28494e-16 -1.78824 1 -1.83697e-16 2280 1234)"/></g></g></g><g clip-path="url(#clip31)"><g clip-path="url(#clip32)"><g clip-path="url(#clip33)"><path d="M17.0886 9.73961 67.9117 42.5001 17.0886 75.2607Z" transform="matrix(1.09497e-16 1.78823 -1 6.12323e-17 2535 1013)"/></g></g></g><path d="M2321 541 2321 1381.84" stroke="#000000" stroke-width="13.75" stroke-miterlimit="8" fill="none" fill-rule="evenodd"/><path d="M2375.5 541C2375.5 524.708 2388.48 511.5 2404.5 511.5 2420.52 511.5 2433.5 524.708 2433.5 541 2433.5 557.292 2420.52 570.5 2404.5 570.5 2388.48 570.5 2375.5 557.292 2375.5 541Z" stroke="#000000" stroke-width="4.58333" stroke-miterlimit="8" fill="#FFFFFF" fill-rule="evenodd"/><path d="M2392.5 516.5 2430.5 541 2392.5 565.5Z" stroke="#000000" stroke-width="4.58333" stroke-miterlimit="8" fill-rule="evenodd"/><path d="M2375.27 541 2314 541" stroke="#000000" stroke-width="13.75" stroke-miterlimit="8" fill="none" fill-rule="evenodd"/><path d="M2496.27 541 2435 541" stroke="#000000" stroke-width="13.75" stroke-miterlimit="8" fill="none" fill-rule="evenodd"/><path d="M0 0 0.000360892 929.271" stroke="#000000" stroke-width="13.75" stroke-miterlimit="8" fill="none" fill-rule="evenodd" transform="matrix(1 0 0 -1 2493 1464.27)"/></g></svg>