<svg width="3689" height="1633" xmlns="http://www.w3.org/2000/svg" xmlns:xlink="http://www.w3.org/1999/xlink" overflow="hidden"><defs><clipPath id="clip0"><rect x="222" y="565" width="3689" height="1633"/></clipPath><clipPath id="clip1"><rect x="992" y="1731" width="152" height="86"/></clipPath><clipPath id="clip2"><rect x="992" y="1731" width="152" height="86"/></clipPath><clipPath id="clip3"><rect x="992" y="1731" width="152" height="86"/></clipPath><clipPath id="clip4"><rect x="1747" y="1168" width="86" height="153"/></clipPath><clipPath id="clip5"><rect x="1747" y="1169" width="84.9999" height="152"/></clipPath><clipPath id="clip6"><rect x="1747" y="1169" width="84.9999" height="152"/></clipPath><clipPath id="clip7"><rect x="2060" y="1044" width="86" height="153"/></clipPath><clipPath id="clip8"><rect x="2060" y="1044" width="86" height="153"/></clipPath><clipPath id="clip9"><rect x="2060" y="1044" width="86" height="153"/></clipPath><clipPath id="clip10"><rect x="3592" y="2021" width="154" height="86"/></clipPath><clipPath id="clip11"><rect x="3592" y="2021" width="154" height="86"/></clipPath><clipPath id="clip12"><rect x="3592" y="2021" width="154" height="86"/></clipPath><clipPath id="clip13"><rect x="973" y="2028" width="153" height="86"/></clipPath><clipPath id="clip14"><rect x="973" y="2028" width="153" height="86"/></clipPath><clipPath id="clip15"><rect x="973" y="2028" width="153" height="86"/></clipPath><clipPath id="clip16"><rect x="2724" y="1160" width="87" height="155"/></clipPath><clipPath id="clip17"><rect x="2725" y="1161" width="85.0002" height="153"/></clipPath><clipPath id="clip18"><rect x="2725" y="1161" width="85.0002" height="153"/></clipPath><clipPath id="clip19"><rect x="3038" y="1044" width="86" height="153"/></clipPath><clipPath id="clip20"><rect x="3038" y="1044" width="86" height="153"/></clipPath><clipPath id="clip21"><rect x="3038" y="1044" width="86" height="153"/></clipPath></defs><g clip-path="url(#clip0)" transform="translate(-222 -565)"><g clip-path="url(#clip1)"><g clip-path="url(#clip2)"><g clip-path="url(#clip3)"><path d="M17.0885 9.73957 67.9114 42.5 17.0885 75.2603Z" fill="#0000FF" transform="matrix(1.78824 0 0 1 992 1731)"/></g></g></g><rect x="378.5" y="1651.5" width="313" height="253" stroke="#000000" stroke-width="4.58333" stroke-miterlimit="8" fill="#FFFFFF"/><text font-family="Times New Roman,Times New Roman_MSFontService,sans-serif" font-weight="400" font-size="83" transform="matrix(1 0 0 1 449.653 1808)">Plant</text><rect x="1383.5" y="647.5" width="1974" height="765" stroke="#000000" stroke-width="4.58333" stroke-miterlimit="8" stroke-dasharray="36.6667 13.75 4.58333 13.75" fill="none"/><path d="M229 2074 2509.08 2074" stroke="#FF0000" stroke-width="13.75" stroke-miterlimit="8" fill="none" fill-rule="evenodd"/><path d="M0 0 1622.5 0.0324803" stroke="#0000FF" stroke-width="13.75" stroke-miterlimit="8" fill="none" fill-rule="evenodd" transform="matrix(-1 0 0 1 2313.5 1778)"/><path d="M2551 2074 3080.94 2074" stroke="#FF0000" stroke-width="13.75" stroke-miterlimit="8" fill="none" fill-rule="evenodd"/><path d="M229 1778 229 2074.08" stroke="#FF0000" stroke-width="13.75" stroke-miterlimit="8" fill="none" fill-rule="evenodd"/><path d="M231 1778 378.381 1778" stroke="#FF0000" stroke-width="13.75" stroke-miterlimit="8" fill="none" fill-rule="evenodd"/><path d="M0 0 764.772 4.85112" stroke="#0000FF" stroke-width="13.75" stroke-miterlimit="8" fill="none" fill-rule="evenodd" transform="matrix(-1 0 0 1 3845.77 2066)"/><path d="M0 0 0.000360892 291.697" stroke="#0000FF" stroke-width="13.75" stroke-miterlimit="8" fill="none" fill-rule="evenodd" transform="matrix(1 0 0 -1 3843 2064.7)"/><rect x="1454" y="574" width="669" height="133" fill="#FFFFFF"/><text font-family="Times New Roman,Times New Roman_MSFontService,sans-serif" font-weight="400" font-size="83" transform="matrix(1 0 0 1 1486.77 671)">BuildingWithETS</text><g clip-path="url(#clip4)"><g clip-path="url(#clip5)"><g clip-path="url(#clip6)"><path d="M17.0885 9.73957 67.9114 42.5 17.0885 75.2603Z" fill="#0000FF" transform="matrix(-3.28494e-16 -1.78824 1 -1.83697e-16 1747 1321)"/></g></g></g><g clip-path="url(#clip7)"><g clip-path="url(#clip8)"><g clip-path="url(#clip9)"><path d="M17.0885 9.73957 67.9114 42.5 17.0885 75.2603Z" stroke="#FF0000" stroke-width="0.885495" fill="#FF0000" transform="matrix(1.09498e-16 1.78824 -1 6.12323e-17 2145 1045)"/></g></g></g><g clip-path="url(#clip10)"><g clip-path="url(#clip11)"><g clip-path="url(#clip12)"><path d="M17.0885 9.73957 67.9114 42.5 17.0885 75.2603Z" stroke="#0000FF" stroke-width="0.885495" fill="#0000FF" transform="matrix(-1.78824 2.18996e-16 -1.22465e-16 -1 3745 2107)"/></g></g></g><g clip-path="url(#clip13)"><g clip-path="url(#clip14)"><g clip-path="url(#clip15)"><path d="M17.0885 9.73957 67.9114 42.5 17.0885 75.2603Z" fill="#FF0000" transform="matrix(-1.78824 2.18996e-16 -1.22465e-16 -1 1125 2113)"/></g></g></g><path d="M1789 933 1789 1773.84" stroke="#0000FF" stroke-width="13.75" stroke-miterlimit="8" fill="none" fill-rule="evenodd"/><path d="M0 0 0.000360892 1139.71" stroke="#FF0000" stroke-width="13.75" stroke-miterlimit="8" fill="none" fill-rule="evenodd" transform="matrix(1 0 0 -1 2103 2073.71)"/><rect x="1450.5" y="1728.5" width="260" height="85.0002" stroke="#000000" stroke-width="4.58333" stroke-miterlimit="8" stroke-dasharray="18.3333 13.75 4.58333 13.75" fill="#FFFFFF"/><path d="M1789 929 1862.27 929.001" stroke="#0000FF" stroke-width="13.75" stroke-miterlimit="8" fill="none" fill-rule="evenodd"/><path d="M1862.5 929.5C1862.5 884.765 1898.76 848.5 1943.5 848.5 1988.23 848.5 2024.5 884.765 2024.5 929.5 2024.5 974.235 1988.23 1010.5 1943.5 1010.5 1898.76 1010.5 1862.5 974.235 1862.5 929.5Z" stroke="#000000" stroke-width="4.58333" stroke-miterlimit="8" fill="#FFFFFF" fill-rule="evenodd"/><path d="M1910.5 861.5 2014.5 929.5 1910.5 997.5Z" stroke="#000000" stroke-width="4.58333" stroke-miterlimit="8" fill-rule="evenodd"/><path d="M2024 931 2103.14 931" stroke="#FF0000" stroke-width="13.75" stroke-miterlimit="8" fill="none" fill-rule="evenodd"/><g clip-path="url(#clip16)"><g clip-path="url(#clip17)"><g clip-path="url(#clip18)"><path d="M17.0886 9.73961 67.9117 42.5001 17.0886 75.2607Z" fill="#0000FF" transform="matrix(-3.30654e-16 -1.8 1 -1.83697e-16 2725 1314)"/></g></g></g><g clip-path="url(#clip19)"><g clip-path="url(#clip20)"><g clip-path="url(#clip21)"><path d="M17.0885 9.73957 67.9114 42.5 17.0885 75.2603Z" stroke="#FF0000" stroke-width="0.885495" fill="#FF0000" transform="matrix(1.09498e-16 1.78824 -1 6.12323e-17 3123 1045)"/></g></g></g><path d="M2767 933 2767 1773.84" stroke="#0000FF" stroke-width="13.75" stroke-miterlimit="8" fill="none" fill-rule="evenodd"/><path d="M0 0 0.000360892 1139.71" stroke="#FF0000" stroke-width="13.75" stroke-miterlimit="8" fill="none" fill-rule="evenodd" transform="matrix(1 0 0 -1 3081 2073.71)"/><path d="M2767 929 2840.27 929.001" stroke="#0000FF" stroke-width="13.75" stroke-miterlimit="8" fill="none" fill-rule="evenodd"/><path d="M2840.5 929.5C2840.5 884.765 2876.76 848.5 2921.5 848.5 2966.24 848.5 3002.5 884.765 3002.5 929.5 3002.5 974.235 2966.24 1010.5 2921.5 1010.5 2876.76 1010.5 2840.5 974.235 2840.5 929.5Z" stroke="#000000" stroke-width="4.58333" stroke-miterlimit="8" fill="#FFFFFF" fill-rule="evenodd"/><path d="M2888.5 861.5 2992.5 929.5 2888.5 997.5Z" stroke="#000000" stroke-width="4.58333" stroke-miterlimit="8" fill-rule="evenodd"/><path d="M3002 931 3081.14 931" stroke="#FF0000" stroke-width="13.75" stroke-miterlimit="8" fill="none" fill-rule="evenodd"/><path d="M0 0 37.6714 131.153" stroke="#0000FF" stroke-width="6.875" stroke-miterlimit="8" fill="none" fill-rule="evenodd" transform="matrix(-1 0 0 1 2329.17 1712.5)"/><path d="M0 0 37.6714 131.153" stroke="#0000FF" stroke-width="6.875" stroke-miterlimit="8" fill="none" fill-rule="evenodd" transform="matrix(-1 0 0 1 2364.17 1714.5)"/><path d="M0 0 1001.88 8.66286" stroke="#0000FF" stroke-width="13.75" stroke-miterlimit="8" fill="none" fill-rule="evenodd" transform="matrix(-1 0 0 1 3350.88 1771)"/><text font-family="Times New Roman,Times New Roman_MSFontService,sans-serif" font-weight="400" font-size="64" transform="matrix(1 0 0 1 1426.98 1669)">S<tspan font-size="64" x="35.5209" y="0">upply Pipe</tspan></text><rect x="3351.5" y="1728.5" width="259" height="85.0002" stroke="#000000" stroke-width="4.58333" stroke-miterlimit="8" stroke-dasharray="18.3333 13.75 4.58333 13.75" fill="#FFFFFF"/><text font-family="Times New Roman,Times New Roman_MSFontService,sans-serif" font-weight="400" font-size="64" transform="matrix(1 0 0 1 3360.54 1685)">End<tspan font-size="64" x="119.167" y="0">Pipe</tspan></text><path d="M3845.41 1773.63 3610 1771" stroke="#0000FF" stroke-width="13.75" stroke-miterlimit="8" fill="none" fill-rule="evenodd"/><rect x="2698.5" y="2023.5" width="260" height="84.9999" stroke="#000000" stroke-width="4.58333" stroke-miterlimit="8" stroke-dasharray="18.3333 13.75 4.58333 13.75" fill="#FFFFFF"/><path d="M0 0 37.6714 131.153" stroke="#FF0000" stroke-width="6.875" stroke-miterlimit="8" fill="none" fill-rule="evenodd" transform="matrix(-1 0 0 1 2539.17 2007.5)"/><path d="M0 0 37.6714 131.153" stroke="#FF0000" stroke-width="6.875" stroke-miterlimit="8" fill="none" fill-rule="evenodd" transform="matrix(-1 0 0 1 2574.17 2009.5)"/><text font-family="Times New Roman,Times New Roman_MSFontService,sans-serif" font-weight="400" font-size="64" transform="matrix(1 0 0 1 2673.68 1977)">Return<tspan font-size="64" x="190.781" y="0">Pipe</tspan></text><rect x="770.5" y="1504.5" width="3138" height="691" stroke="#000000" stroke-width="4.58333" stroke-miterlimit="8" stroke-dasharray="36.6667 13.75 4.58333 13.75" fill="none"/><rect x="836" y="1432" width="359" height="134" fill="#FFFFFF"/><text font-family="Times New Roman,Times New Roman_MSFontService,sans-serif" font-weight="400" font-size="83" transform="matrix(1 0 0 1 868.915 1529)">N<tspan font-size="83" x="59.5833" y="0">etwork</tspan></text><rect x="2447.5" y="1731.5" width="260" height="84.9999" stroke="#000000" stroke-width="4.58333" stroke-miterlimit="8" stroke-dasharray="18.3333 13.75 4.58333 13.75" fill="#FFFFFF"/><text font-family="Times New Roman,Times New Roman_MSFontService,sans-serif" font-weight="400" font-size="64" transform="matrix(1 0 0 1 2424.13 1672)">S<tspan font-size="64" x="35.521" y="0">upply Pipe</tspan></text><rect x="1754.5" y="2021.5" width="260" height="84.9999" stroke="#000000" stroke-width="4.58333" stroke-miterlimit="8" stroke-dasharray="18.3333 13.75 4.58333 13.75" fill="#FFFFFF"/><text font-family="Times New Roman,Times New Roman_MSFontService,sans-serif" font-weight="400" font-size="64" transform="matrix(1 0 0 1 1730.09 1975)">Return<tspan font-size="64" x="190.781" y="0">Pipe</tspan></text></g></svg>