<?xml version="1.0" encoding="UTF-8" standalone="no"?>
<!-- Created with Inkscape (http://www.inkscape.org/) -->

<svg
   width="200mm"
   height="200mm"
   viewBox="0 0 200.00002 199.99998"
   version="1.1"
   id="svg12898"
   sodipodi:docname="MotorStarter.svg"
   inkscape:version="1.2.2 (732a01da63, 2022-12-09)"
   xmlns:inkscape="http://www.inkscape.org/namespaces/inkscape"
   xmlns:sodipodi="http://sodipodi.sourceforge.net/DTD/sodipodi-0.dtd"
   xmlns="http://www.w3.org/2000/svg"
   xmlns:svg="http://www.w3.org/2000/svg">
  <sodipodi:namedview
     id="namedview34354"
     pagecolor="#ffffff"
     bordercolor="#000000"
     borderopacity="0.25"
     inkscape:showpageshadow="2"
     inkscape:pageopacity="0.0"
     inkscape:pagecheckerboard="0"
     inkscape:deskcolor="#d1d1d1"
     showgrid="true"
     inkscape:zoom="0.59892245"
     inkscape:cx="24.210146"
     inkscape:cy="374.83985"
     inkscape:window-width="1920"
     inkscape:window-height="1028"
     inkscape:window-x="-6"
     inkscape:window-y="-6"
     inkscape:window-maximized="1"
     inkscape:current-layer="g982"
     inkscape:document-units="mm">
    <inkscape:grid
       type="xygrid"
       id="grid34535"
       originx="0"
       originy="0" />
  </sodipodi:namedview>
  <defs
     id="defs12895">
    <rect
       x="-440"
       y="600"
       width="360"
       height="520"
       id="rect35714" />
    <rect
       x="640"
       y="1200"
       width="720"
       height="280"
       id="rect35708" />
    <rect
       x="370"
       y="280"
       width="410"
       height="230"
       id="rect34649" />
    <rect
       x="380"
       y="300"
       width="400"
       height="160"
       id="rect34591" />
    <rect
       x="1259.0197"
       y="284.73633"
       width="399.67548"
       height="41.103985"
       id="rect26041" />
    <rect
       x="-99.906151"
       y="-396.78329"
       width="1227.9442"
       height="428.09433"
       id="rect7245" />
    <rect
       x="107.03309"
       y="-247.09485"
       width="937.42871"
       height="201.89989"
       id="rect2663" />
    <rect
       x="-82.594574"
       y="496.42636"
       width="447.10434"
       height="144.56889"
       id="rect16655" />
    <rect
       x="-82.594574"
       y="496.42636"
       width="447.10434"
       height="144.56889"
       id="rect16655-3" />
    <rect
       x="-82.594574"
       y="496.42636"
       width="447.10434"
       height="144.56889"
       id="rect16655-5" />
    <rect
       x="-82.594574"
       y="496.42636"
       width="447.10434"
       height="144.56889"
       id="rect16655-1" />
    <rect
       x="-99.906151"
       y="-396.78329"
       width="1227.9442"
       height="428.09433"
       id="rect7245-8" />
    <rect
       x="-99.906151"
       y="-396.78329"
       width="1227.9442"
       height="428.09433"
       id="rect7245-8-0" />
    <rect
       x="-99.906151"
       y="-396.78329"
       width="1227.9442"
       height="428.09433"
       id="rect7245-8-6" />
    <rect
       x="-99.906151"
       y="-396.78329"
       width="1227.9442"
       height="428.09433"
       id="rect7245-85" />
    <rect
       x="-99.906151"
       y="-396.78329"
       width="1227.9442"
       height="428.09433"
       id="rect7245-7" />
    <rect
       x="-99.906151"
       y="-396.78329"
       width="1227.9442"
       height="428.09433"
       id="rect7245-7-1" />
    <rect
       x="370"
       y="280"
       width="410"
       height="230"
       id="rect34649-8" />
    <rect
       x="370"
       y="280"
       width="410"
       height="230"
       id="rect34649-8-3" />
    <rect
       x="370"
       y="280"
       width="410"
       height="230"
       id="rect34649-8-3-6" />
    <rect
       x="370"
       y="280"
       width="410"
       height="230"
       id="rect34649-1" />
  </defs>
  <g
     aria-label="ENABLE"
     transform="matrix(0.26458333,0,0,0.26458333,-256.72208,-17.474621)"
     id="text2661"
     style="font-size:200px;line-height:1.25;-inkscape-font-specification:'sans-serif, Normal';white-space:pre;shape-inside:url(#rect2663);stroke-width:0.620253" />
  <g
     id="g1016"
     transform="matrix(2.022586,0,0,2.0204084,-185.95699,-316.12899)"
     style="stroke-width:0.494683">
    <g
       id="g982"
       transform="translate(-11.619452,7.39114)"
       style="stroke-width:0.494683">
      <g
         id="g1642"
         transform="translate(0.18066117,0.18191892)">
        <path
           id="polyline524"
           style="fill:none;stroke:#000000;stroke-width:0.494684;stroke-miterlimit:4;stroke-dasharray:none"
           d="m 103.62514,149.14215 v 98.4952 h 98.39104 v -98.4952 z" />
        <path
           id="polyline558-5-6"
           style="fill:none;stroke:#000000;stroke-width:0.494684;stroke-dasharray:none"
           d="m 183.99711,225.47409 v 9.19625 h 9.20085 v -9.19625 z" />
        <path
           id="polyline558-5"
           style="fill:none;stroke:#000000;stroke-width:0.494684;stroke-dasharray:none"
           d="m 183.99711,162.28284 v 9.19633 h 9.20085 v -9.19633 z" />
        <path
           id="polyline558-5-0"
           style="fill:none;stroke:#000000;stroke-width:0.494684;stroke-dasharray:none"
           d="m 183.99711,192.37068 v 9.19626 h 9.20085 v -9.19626 z" />
        <path
           id="polyline558-5-9"
           style="fill:none;stroke:#000000;stroke-width:0.494684;stroke-dasharray:none"
           d="m 183.99711,208.92234 v 9.19626 h 9.20085 v -9.19626 z" />
        <g
           aria-label="CS"
           transform="matrix(0.09938542,0,0,0.09949007,126.97271,133.11543)"
           id="text34647"
           style="font-size:113.333px;-inkscape-font-specification:'sans-serif, Normal';white-space:pre;shape-inside:url(#rect34649);display:inline;fill:none;stroke:#000000;stroke-width:4.97479;stroke-dasharray:none;stop-color:#000000">
          <path
             d="m 444.70681,377.42059 q -3.04361,1.32812 -5.53384,2.49022 -2.43488,1.16211 -6.41925,2.43489 -3.37564,1.05143 -7.36,1.77083 -3.92903,0.77474 -8.68813,0.77474 -8.96482,0 -16.32482,-2.49023 -7.30467,-2.54556 -12.72783,-7.91339 -5.31248,-5.25714 -8.30075,-13.33655 -2.98828,-8.13474 -2.98828,-18.87038 0,-10.18227 2.8776,-18.20633 2.8776,-8.02407 8.30076,-13.5579 5.25714,-5.36783 12.67248,-8.19008 7.47069,-2.82226 16.54618,-2.82226 6.64061,0 13.22587,1.60481 6.64061,1.60482 14.72001,5.64452 V 319.758 h -0.83007 q -6.80662,-5.69986 -13.50257,-8.30076 -6.69594,-2.6009 -14.33264,-2.6009 -6.25324,0 -11.28903,2.04752 -4.98045,1.99218 -8.90948,6.25323 -3.81835,4.15038 -5.97654,10.51429 -2.10286,6.30858 -2.10286,14.60934 0,8.68812 2.32421,14.94136 2.37955,6.25324 6.08722,10.18226 3.87369,4.09504 9.02016,6.08722 5.20181,1.93685 10.957,1.93685 7.91339,0 14.83068,-2.71159 6.9173,-2.71158 12.94918,-8.13474 h 0.77474 z"
             style="fill:#000000;stroke:none;stroke-width:4.97479;stroke-dasharray:none"
             id="path35569" />
          <path
             d="m 520.07768,359.87832 q 0,4.81444 -2.26887,9.5182 -2.21354,4.70376 -6.25324,7.96873 -4.42707,3.54165 -10.34827,5.53384 -5.86587,1.99218 -14.16663,1.99218 -8.90948,0 -16.04813,-1.66015 -7.08331,-1.66015 -14.44332,-4.92512 v -13.72392 h 0.77474 q 6.25324,5.20181 14.44332,8.02407 8.19008,2.82226 15.38407,2.82226 10.18226,0 15.82677,-3.81835 5.69986,-3.81835 5.69986,-10.18226 0,-5.4785 -2.71158,-8.07941 -2.65625,-2.6009 -8.13475,-4.0397 -4.15037,-1.10677 -9.02015,-1.82617 -4.81444,-0.71939 -10.2376,-1.82616 -10.957,-2.32421 -16.26949,-7.91339 -5.25714,-5.64452 -5.25714,-14.66467 0,-10.34828 8.74346,-16.93355 8.74347,-6.6406 22.19069,-6.6406 8.68813,0 15.93746,1.66015 7.24932,1.66015 12.8385,4.09504 v 12.94918 h -0.77474 q -4.70376,-3.98436 -12.39579,-6.58527 -7.6367,-2.65624 -15.66077,-2.65624 -8.7988,0 -14.16662,3.65234 -5.31249,3.65233 -5.31249,9.40752 0,5.14647 2.65625,8.0794 2.65624,2.93294 9.35218,4.48241 3.54166,0.77474 10.07159,1.88151 6.52993,1.10676 11.06767,2.26887 9.18617,2.43489 13.8346,7.36 4.64842,4.92512 4.64842,13.77926 z"
             style="fill:#000000;stroke:none;stroke-width:4.97479;stroke-dasharray:none"
             id="path35571" />
        </g>
        <g
           aria-label="HOT"
           transform="matrix(0.09938542,0,0,0.09949007,117.89253,162.6724)"
           id="text34647-6"
           style="font-size:113.333px;-inkscape-font-specification:'sans-serif, Normal';white-space:pre;shape-inside:url(#rect34649-8);display:inline;stroke-width:4.97479;stroke-dasharray:none;stop-color:#000000">
          <path
             d="m 444.09809,383.39713 h -10.957 v -40.34168 h -41.11642 v 40.34168 h -10.95699 v -82.39884 h 10.95699 v 32.31761 h 41.11642 v -32.31761 h 10.957 z"
             id="path35574"
             style="stroke-width:4.97479;stroke-dasharray:none" />
          <path
             d="m 527.65904,310.46115 q 5.03579,5.53384 7.69204,13.5579 2.71158,8.02407 2.71158,18.20633 0,10.18226 -2.76692,18.26166 -2.71158,8.02407 -7.6367,13.39189 -5.09113,5.58918 -12.06377,8.41143 -6.91729,2.82226 -15.82677,2.82226 -8.68813,0 -15.82678,-2.87759 -7.08331,-2.8776 -12.06377,-8.3561 -4.98045,-5.4785 -7.69203,-13.44723 -2.65624,-7.96872 -2.65624,-18.20632 0,-10.07159 2.65624,-18.04031 2.65624,-8.02407 7.74737,-13.72392 4.86978,-5.42316 12.06377,-8.30076 7.24933,-2.87759 15.77144,-2.87759 8.85414,0 15.88211,2.93293 7.08331,2.8776 12.00843,8.24542 z m -0.99609,31.76423 q 0,-16.04813 -7.19399,-24.73626 -7.19399,-8.74346 -19.64512,-8.74346 -12.56182,0 -19.75581,8.74346 -7.13865,8.68813 -7.13865,24.73626 0,16.21414 7.30467,24.84693 7.30467,8.57745 19.58979,8.57745 12.28512,0 19.53444,-8.57745 7.30467,-8.63279 7.30467,-24.84693 z"
             id="path35576"
             style="stroke-width:4.97479;stroke-dasharray:none" />
          <path
             d="m 611.44134,310.73784 h -29.44001 v 72.65929 h -10.957 v -72.65929 h -29.44002 v -9.73955 h 69.83703 z"
             id="path35578"
             style="stroke-width:4.97479;stroke-dasharray:none" />
        </g>
        <g
           aria-label="AUTO"
           transform="matrix(0.09938542,0,0,0.09949007,111.09477,179.36983)"
           id="text34647-6-5"
           style="font-size:113.333px;-inkscape-font-specification:'sans-serif, Normal';white-space:pre;shape-inside:url(#rect34649-8-3);display:inline;stroke-width:4.97479;stroke-dasharray:none;stop-color:#000000">
          <path
             d="m 446.03493,383.39713 h -11.6764 l -8.0794,-22.96543 h -35.63791 l -8.07941,22.96543 H 371.4388 l 29.9934,-82.39884 h 14.60933 z m -23.13144,-32.37295 -14.44332,-40.45235 -14.49865,40.45235 z"
             id="path35553"
             style="stroke-width:4.97479;stroke-dasharray:none" />
          <path
             d="m 520.02235,350.30478 q 0,8.96482 -1.99218,15.66076 -1.93685,6.64061 -6.41926,11.06768 -4.26105,4.20572 -9.9609,6.14256 -5.69986,1.93684 -13.28122,1.93684 -7.74737,0 -13.50256,-2.04752 -5.75519,-2.04752 -9.68422,-6.03188 -4.4824,-4.53775 -6.47459,-10.957 -1.93684,-6.41925 -1.93684,-15.77144 v -49.30649 h 10.957 v 49.85988 q 0,6.69594 0.88541,10.56963 0.94076,3.87368 3.09895,7.02797 2.43489,3.59699 6.58527,5.42316 4.20572,1.82617 10.07158,1.82617 5.92121,0 10.07159,-1.77083 4.15038,-1.82617 6.64061,-5.4785 2.15819,-3.15429 3.04361,-7.19399 0.94075,-4.09504 0.94075,-10.12692 v -50.13657 h 10.957 z"
             id="path35555"
             style="stroke-width:4.97479;stroke-dasharray:none" />
          <path
             d="m 599.70962,310.73784 h -29.44001 v 72.65929 h -10.957 v -72.65929 h -29.44002 v -9.73955 h 69.83703 z"
             id="path35557"
             style="stroke-width:4.97479;stroke-dasharray:none" />
          <path
             d="m 669.43596,310.46115 q 5.0358,5.53384 7.69204,13.5579 2.71158,8.02407 2.71158,18.20633 0,10.18226 -2.76692,18.26166 -2.71158,8.02407 -7.6367,13.39189 -5.09113,5.58918 -12.06376,8.41143 -6.9173,2.82226 -15.82678,2.82226 -8.68812,0 -15.82677,-2.87759 -7.08332,-2.8776 -12.06377,-8.3561 -4.98046,-5.4785 -7.69204,-13.44723 -2.65624,-7.96872 -2.65624,-18.20632 0,-10.07159 2.65624,-18.04031 2.65625,-8.02407 7.74738,-13.72392 4.86977,-5.42316 12.06376,-8.30076 7.24933,-2.87759 15.77144,-2.87759 8.85414,0 15.88212,2.93293 7.08331,2.8776 12.00842,8.24542 z m -0.99609,31.76423 q 0,-16.04813 -7.19399,-24.73626 -7.19398,-8.74346 -19.64512,-8.74346 -12.56181,0 -19.7558,8.74346 -7.13865,8.68813 -7.13865,24.73626 0,16.21414 7.30466,24.84693 7.30467,8.57745 19.58979,8.57745 12.28512,0 19.53445,-8.57745 7.30466,-8.63279 7.30466,-24.84693 z"
             id="path35559"
             style="stroke-width:4.97479;stroke-dasharray:none" />
        </g>
        <g
           aria-label="AUX"
           transform="matrix(0.09938542,0,0,0.09949007,118.65152,196.30576)"
           id="text34647-6-5-9"
           style="font-size:113.333px;-inkscape-font-specification:'sans-serif, Normal';white-space:pre;shape-inside:url(#rect34649-8-3-6);display:inline;stroke-width:4.97479;stroke-dasharray:none;stop-color:#000000">
          <path
             d="m 446.03493,383.39713 h -11.6764 l -8.0794,-22.96543 h -35.63791 l -8.07941,22.96543 H 371.4388 l 29.9934,-82.39884 h 14.60933 z m -23.13144,-32.37295 -14.44332,-40.45235 -14.49865,40.45235 z"
             id="path35581"
             style="stroke-width:4.97479;stroke-dasharray:none" />
          <path
             d="m 520.02235,350.30478 q 0,8.96482 -1.99218,15.66076 -1.93685,6.64061 -6.41926,11.06768 -4.26105,4.20572 -9.9609,6.14256 -5.69986,1.93684 -13.28122,1.93684 -7.74737,0 -13.50256,-2.04752 -5.75519,-2.04752 -9.68422,-6.03188 -4.4824,-4.53775 -6.47459,-10.957 -1.93684,-6.41925 -1.93684,-15.77144 v -49.30649 h 10.957 v 49.85988 q 0,6.69594 0.88541,10.56963 0.94076,3.87368 3.09895,7.02797 2.43489,3.59699 6.58527,5.42316 4.20572,1.82617 10.07158,1.82617 5.92121,0 10.07159,-1.77083 4.15038,-1.82617 6.64061,-5.4785 2.15819,-3.15429 3.04361,-7.19399 0.94075,-4.09504 0.94075,-10.12692 v -50.13657 h 10.957 z"
             id="path35583"
             style="stroke-width:4.97479;stroke-dasharray:none" />
          <path
             d="m 603.80466,300.99829 -28.44392,40.72904 28.38859,41.6698 h -12.67249 l -22.46739,-33.92242 -23.02076,33.92242 H 533.6356 l 28.72062,-41.17175 -28.05656,-41.22709 h 12.61715 l 22.19069,33.47971 22.68874,-33.47971 z"
             id="path35585"
             style="stroke-width:4.97479;stroke-dasharray:none" />
        </g>
        <g
           aria-label="M/S"
           transform="matrix(0.759335,0,0,0.76013426,24.449111,33.397681)"
           id="text35214"
           style="font-size:26.177px;-inkscape-font-specification:'sans-serif, Normal';writing-mode:tb-rl;text-orientation:upright;stroke-width:0.651126;stroke-dasharray:none;stop-color:#000000">
          <path
             d="m 135.64902,194.75884 h -2.53078 v -16.39897 l -5.29164,11.15846 h -1.50825 l -5.25329,-11.15846 v 16.39897 h -2.36462 v -19.03201 h 3.45106 l 5.07435,10.59607 4.90819,-10.59607 h 3.51498 z"
             id="path35562"
             style="stroke-width:0.651126;stroke-dasharray:none" />
          <path
             d="m 132.22352,204.31319 -9.16451,23.77403 h -2.21124 l 9.12616,-23.77403 z"
             id="path35564"
             style="stroke-width:0.651126;stroke-dasharray:none" />
          <path
             d="m 134.6137,252.60899 q 0,1.11201 -0.52405,2.19846 -0.51127,1.08645 -1.44434,1.84057 -1.02254,0.81803 -2.39018,1.27817 -1.35487,0.46015 -3.27213,0.46015 -2.05786,0 -3.7067,-0.38346 -1.63606,-0.38345 -3.33604,-1.13757 v -3.16987 h 0.17895 q 1.44434,1.20148 3.33603,1.85335 1.8917,0.65187 3.55333,0.65187 2.35184,0 3.65557,-0.88194 1.31652,-0.88194 1.31652,-2.35184 0,-1.26539 -0.6263,-1.86613 -0.61353,-0.60075 -1.87892,-0.93307 -0.95863,-0.25564 -2.08342,-0.4218 -1.11201,-0.16616 -2.36462,-0.4218 -2.53079,-0.53683 -3.75783,-1.82778 -1.21427,-1.30374 -1.21427,-3.38717 0,-2.39018 2.01951,-3.91121 2.01952,-1.53381 5.12548,-1.53381 2.00673,0 3.68114,0.38346 1.67441,0.38345 2.96537,0.94584 v 2.99093 h -0.17895 q -1.08645,-0.92028 -2.86311,-1.52103 -1.76388,-0.61352 -3.61723,-0.61352 -2.0323,0 -3.27213,0.8436 -1.22704,0.84359 -1.22704,2.17289 0,1.1887 0.61352,1.86614 0.61352,0.67743 2.16012,1.03532 0.81803,0.17894 2.32627,0.43458 1.50825,0.25563 2.55635,0.52405 2.12177,0.56239 3.19543,1.69997 1.07367,1.13757 1.07367,3.18265 z"
             id="path35566"
             style="stroke-width:0.651126;stroke-dasharray:none" />
        </g>
      </g>
    </g>
  </g>
  <g
     transform="matrix(0.26458333,0,0,0.26458333,-256.72208,-17.474621)"
     id="text26039"
     style="font-size:40px;line-height:1.25;-inkscape-font-specification:'sans-serif, Normal';white-space:pre;shape-inside:url(#rect26041);stroke-width:0.620253" />
</svg>
