<?xml version="1.0" encoding="UTF-8" standalone="no"?>
<svg
   xmlns:dc="http://purl.org/dc/elements/1.1/"
   xmlns:cc="http://creativecommons.org/ns#"
   xmlns:rdf="http://www.w3.org/1999/02/22-rdf-syntax-ns#"
   xmlns:svg="http://www.w3.org/2000/svg"
   xmlns="http://www.w3.org/2000/svg"
   width="255.24553mm"
   height="47.927761mm"
   viewBox="0 0 255.24553 47.927761"
   version="1.1"
   id="svg1553">
  <defs
     id="defs1547">
    <marker
       style="overflow:visible"
       orient="auto"
       overflow="visible"
       id="marker5381-6-6-1">
      <path
         style="fill-rule:evenodd;stroke:#000000;stroke-width:1pt"
         id="path4488-0-34"
         d="M 0,0 5,-5 -12.5,0 5,5 Z"
         transform="matrix(-0.8,0,0,-0.8,-10,0)" />
    </marker>
    <marker
       style="overflow:visible"
       orient="auto"
       overflow="visible"
       id="marker5553-0-3-9">
      <path
         style="fill-rule:evenodd;stroke:#000000;stroke-width:1pt"
         id="path4485-1-4"
         d="M 0,0 5,-5 -12.5,0 5,5 Z"
         transform="matrix(-0.8,0,0,-0.8,-10,0)" />
    </marker>
  </defs>
  <metadata
     id="metadata1550">
    <rdf:RDF>
      <cc:Work
         rdf:about="">
        <dc:format>image/svg+xml</dc:format>
        <dc:type
           rdf:resource="http://purl.org/dc/dcmitype/StillImage" />
        <dc:title></dc:title>
      </cc:Work>
    </rdf:RDF>
  </metadata>
  <g
     id="layer1"
     transform="translate(44.943819,52.683848)">
    <path
       style="fill:none;fill-opacity:1;stroke:#000000;stroke-width:0.0605999;stroke-opacity:0.666667"
       id="path4497-0-5"
       d="m 84.454619,-4.9431172 c -8.3758,-0.616209 -15.19627,-2.394119 -18.75211,-4.88815 -1.68806,-1.1839788 -2.19323,-1.9649388 -2.19323,-3.3906988 0,-1.41128 0.49182,-2.18621 2.12819,-3.35329 3.38263,-2.41232 9.55498,-4.08982 17.77256,-4.83022 3.62605,-0.326681 9.45184,-0.349221 13.048161,-0.0505 7.10585,0.59028 12.65529,1.84512 16.44925,3.719629 4.93012,2.435532 5.58369,5.412581 1.76623,8.0454528 -3.35077,2.311299 -10.09836,4.065519 -18.0566,4.694409 -3.252561,0.256979 -9.048091,0.282319 -12.163251,0.0529 z" />
    <path
       style="fill:none;stroke:#000000;stroke-width:0.156991;marker-end:url(#marker5381-6-6-1)"
       id="path4499-2-7"
       d="m 91.279479,-35.959217 v 14.522639" />
    <path
       d="m 80.705219,-21.293708 c -14.39941,-6.957829 2.36702,-14.634109 2.36702,-14.634109"
       id="path4503-4-4"
       style="fill:none;stroke:#000000;stroke-width:0.184705px;marker-end:url(#marker5553-0-3-9)" />
    <text
       xml:space="preserve"
       style="font-style:normal;font-weight:normal;font-size:4.23333px;line-height:1.25;font-family:sans-serif;text-align:center;letter-spacing:0px;word-spacing:0px;text-anchor:middle;fill:#000000;fill-opacity:1;stroke:none;stroke-width:0.264583"
       x="90.797691"
       y="-45.65361"
       id="text4487-8-5-3-12"><tspan
         x="90.797691"
         y="-45.65361"
         style="font-size:4.23333px;text-align:center;text-anchor:middle;fill:#000000;stroke-width:0.264583"
         id="tspan10861">Initialize plant in </tspan><tspan
         x="90.797691"
         y="-40.361946"
         style="font-size:4.23333px;text-align:center;text-anchor:middle;fill:#000000;stroke-width:0.264583"
         id="tspan10886">WSE-only mode</tspan></text>
    <path
       style="fill:none;fill-opacity:1;stroke:#000000;stroke-width:0.0623623;stroke-opacity:0.666667"
       id="path4497-0-4-3"
       d="m 83.072239,-35.927817 c -8.86906,-0.61627 -16.09119,-2.39437 -19.85643,-4.88868 -1.78747,-1.18412 -2.32239,-1.96516 -2.32239,-3.39108 0,-1.41144 0.52078,-2.18646 2.25352,-3.35367 3.58183,-2.412589 10.11767,-4.09027 18.8192,-4.83075 3.83959,-0.32673 10.00847,-0.34926 13.816581,-0.0505 7.52432,0.59034 13.40057,1.84532 17.41795,3.72003 5.22047,2.4358 5.91253,5.41319 1.87025,8.04636 -3.54809,2.31155 -10.69306,4.06597 -19.11997,4.69492 -3.444101,0.25702 -9.580931,0.28235 -12.879551,0.0529 z" />
    <text
       xml:space="preserve"
       style="font-style:normal;font-weight:normal;font-size:4.23333px;line-height:1.25;font-family:sans-serif;letter-spacing:0px;word-spacing:0px;fill:#000000;fill-opacity:1;stroke:none;stroke-width:0.264583"
       x="-45.121586"
       y="-28.134447"
       id="text4487-4-1-0-3-4-1-4-9"><tspan
         x="-45.121586"
         y="-28.134447"
         style="font-size:4.23333px;line-height:1.4;fill:#000000;stroke-width:0.264583"
         id="tspan6888-9-3-8">wseTOut(PLRHeaExc = 1).y - TChiWatSupSet &gt;=wseDt </tspan><tspan
         x="-45.121586"
         y="-22.525286"
         style="font-size:4.23333px;line-height:1.4;fill:#000000;stroke-width:0.264583"
         id="tspan6940-0-1" /></text>
    <text
       xml:space="preserve"
       style="font-style:normal;font-weight:normal;font-size:4.23333px;line-height:1.25;font-family:sans-serif;text-align:center;letter-spacing:0px;word-spacing:0px;text-anchor:middle;fill:#000000;fill-opacity:1;stroke:none;stroke-width:0.264583"
       x="90.855232"
       y="-14.834521"
       id="text4487-8-5-3-12-2"><tspan
         x="90.855232"
         y="-14.834521"
         style="font-size:4.23333px;text-align:center;text-anchor:middle;fill:#000000;stroke-width:0.264583"
         id="tspan10861-1">Initialize plant in </tspan><tspan
         x="90.855232"
         y="-9.5428591"
         style="font-size:4.23333px;text-align:center;text-anchor:middle;fill:#000000;stroke-width:0.264583"
         id="tspan10886-3">chiller-only mode</tspan></text>
    <text
       xml:space="preserve"
       style="font-style:normal;font-weight:normal;font-size:4.23333px;line-height:1.25;font-family:sans-serif;letter-spacing:0px;word-spacing:0px;fill:#000000;fill-opacity:1;stroke:none;stroke-width:0.264583"
       x="95.968727"
       y="-28.345812"
       id="text4487-4-1-0-3-4-1-4-9-2"><tspan
         x="95.968727"
         y="-28.345812"
         style="font-size:4.23333px;line-height:1.4;fill:#000000;stroke-width:0.264583"
         id="tspan6888-9-3-8-7">wseTOut(PLRHeaExc = 1).y - TChiWatSupSet &lt; wseDt </tspan><tspan
         x="95.968727"
         y="-22.73665"
         style="font-size:4.23333px;line-height:1.4;fill:#000000;stroke-width:0.264583"
         id="tspan6940-0-1-3" /></text>
  </g>
</svg>
