<svg width="936" height="432" xmlns="http://www.w3.org/2000/svg" xmlns:xlink="http://www.w3.org/1999/xlink" overflow="hidden"><defs><clipPath id="clip0"><rect x="87" y="287" width="936" height="432"/></clipPath></defs><g clip-path="url(#clip0)" transform="translate(-87 -287)"><path d="M860.5 372C860.5 367.858 863.858 364.5 868 364.5 872.142 364.5 875.5 367.858 875.5 372 875.5 376.142 872.142 379.5 868 379.5 863.858 379.5 860.5 376.142 860.5 372Z" stroke="#000000" stroke-width="1.33333" stroke-miterlimit="8" fill="#FFFFFF" fill-rule="evenodd"/><path d="M860.5 651C860.5 646.858 863.858 643.5 868 643.5 872.142 643.5 875.5 646.858 875.5 651 875.5 655.142 872.142 658.5 868 658.5 863.858 658.5 860.5 655.142 860.5 651Z" stroke="#000000" stroke-width="1.33333" stroke-miterlimit="8" fill="#FFFFFF" fill-rule="evenodd"/><text font-family="Times New Roman,Times New Roman_MSFontService,sans-serif" font-weight="400" font-size="16" transform="translate(924.973 613)">CHWR<tspan fill="#0000FF" font-weight="700" font-size="16" x="-23.2272" y="37">port_a</tspan></text><path d="M673 629 708.364 629" stroke="#000000" stroke-width="2" stroke-miterlimit="8" fill="none" fill-rule="evenodd"/><path d="M0 0 255.221 0.0407349" stroke="#000000" stroke-width="2" stroke-miterlimit="8" fill="none" fill-rule="evenodd" transform="matrix(1 0 0 -1 721 352.041)"/><path d="M0 0 156.673 1.43013" stroke="#000000" stroke-width="2" stroke-miterlimit="8" fill="none" fill-rule="evenodd" transform="matrix(1 0 0 -1 820 632.43)"/><rect x="89.5001" y="308.5" width="803" height="409" stroke="#0000FF" stroke-width="3" stroke-miterlimit="8" stroke-dasharray="3 3" fill="none"/><rect x="379" y="288" width="196" height="23" fill="#FFFFFF"/><text fill="#0000FF" font-family="Times New Roman,Times New Roman_MSFontService,sans-serif" font-weight="700" font-size="16" transform="translate(398.12 308)">DISTRICT COOLING <tspan font-size="16" x="51.94" y="20">PLANT</tspan></text><path d="M654 549 639 543 654 537Z" fill-rule="evenodd"/><path d="M884 352.5C884 348.358 887.134 345 891 345 894.866 345 898 348.358 898 352.5 898 356.642 894.866 360 891 360 887.134 360 884 356.642 884 352.5Z" stroke="#0000FF" stroke-width="2" stroke-miterlimit="8" fill="#FFFFFF" fill-rule="evenodd"/><path d="M640 387 655 392.5 640 398Z" fill-rule="evenodd"/><path d="M884 629.5C884 625.358 887.134 622 891 622 894.866 622 898 625.358 898 629.5 898 633.642 894.866 637 891 637 887.134 637 884 633.642 884 629.5Z" stroke="#0000FF" stroke-width="2" stroke-miterlimit="8" fill="#0000FF" fill-rule="evenodd"/><path d="M0 0 0.000209974 120.804" stroke="#000000" stroke-width="2" stroke-miterlimit="8" fill="none" fill-rule="evenodd" transform="matrix(-1 0 0 1 842 351)"/><path d="M980.5 366C976.358 366 973 362.642 973 358.5 973 355.739 974.517 353.202 976.948 351.894" stroke="#000000" stroke-width="2" stroke-miterlimit="8" fill="none" fill-rule="evenodd"/><path d="M973.5 338C977.642 338 981 341.358 981 345.5 981 348.456 979.263 351.137 976.565 352.345" stroke="#000000" stroke-width="2" stroke-miterlimit="8" fill="none" fill-rule="evenodd"/><text font-family="Times New Roman,Times New Roman_MSFontService,sans-serif" font-weight="400" font-size="16" transform="translate(765.501 479)">BYPASS</text><path d="M919.5 352.5 919.5 352.5 919.5 347.5 944.5 352.5 919.5 357.5 919.5 352.5 919.5 352.5Z" stroke="#000000" stroke-width="1.33333" stroke-miterlimit="8" fill-rule="evenodd"/><path d="M944.5 631 943.775 631 943.775 635.5 920.5 631 943.775 626.5 943.775 631 944.5 631Z" stroke="#000000" stroke-width="1.33333" stroke-miterlimit="8" fill-rule="evenodd"/><path d="M843 422.5 843 424.225 847.5 424.225 843 447.5 838.5 424.225 843 424.225 843 422.5Z" stroke="#000000" stroke-width="1.33333" stroke-miterlimit="8" fill-rule="evenodd"/><path d="M980.5 645C976.358 645 973 641.642 973 637.5 973 634.739 974.517 632.202 976.948 630.894" stroke="#000000" stroke-width="2" stroke-miterlimit="8" fill="none" fill-rule="evenodd"/><path d="M973.5 616C977.642 616 981 619.358 981 623.5 981 626.456 979.263 629.137 976.565 630.345" stroke="#000000" stroke-width="2" stroke-miterlimit="8" fill="none" fill-rule="evenodd"/><path d="M796 606C796 614.284 789.508 621 781.5 621 773.492 621 767 614.284 767 606 767 597.716 773.492 591 781.5 591 789.508 591 796 597.716 796 606Z" stroke="#000000" stroke-width="2" stroke-miterlimit="8" fill="none" fill-rule="evenodd"/><path d="M790.5 617.5 768.5 606 790.5 594.5Z" stroke="#000000" stroke-width="1.33333" stroke-miterlimit="8" fill-rule="evenodd"/><path d="M798 652C798 660.284 791.508 667 783.5 667 775.492 667 769 660.284 769 652 769 643.716 775.492 637 783.5 637 791.508 637 798 643.716 798 652Z" stroke="#000000" stroke-width="2" stroke-miterlimit="8" fill="none" fill-rule="evenodd"/><path d="M792.5 663.5 770.5 652.5 792.5 641.5Z" stroke="#000000" stroke-width="1.33333" stroke-miterlimit="8" fill-rule="evenodd"/><path d="M820 606 820 652.767" stroke="#000000" stroke-width="2" stroke-miterlimit="8" fill="none" fill-rule="evenodd"/><path d="M755 652 820.481 652" stroke="#000000" stroke-width="2" stroke-miterlimit="8" fill="none" fill-rule="evenodd"/><path d="M708 605 708 652.309" stroke="#000000" stroke-width="2" stroke-miterlimit="8" fill="none" fill-rule="evenodd"/><text font-family="Times New Roman,Times New Roman_MSFontService,sans-serif" font-weight="400" font-size="16" transform="translate(757.228 688)">CHWPs</text><rect x="563" y="504" width="55" height="54" stroke="#000000" stroke-width="2" stroke-linejoin="round" stroke-miterlimit="10" fill="none"/><path d="M570 530.5C570 519.178 579.178 510 590.5 510 601.822 510 611 519.178 611 530.5 611 541.822 601.822 551 590.5 551 579.178 551 570 541.822 570 530.5Z" stroke="#000000" stroke-width="2" stroke-linejoin="round" stroke-miterlimit="10" fill="none" fill-rule="evenodd"/><path d="M0 0 6.27538 32.5602" stroke="#000000" stroke-width="2" stroke-miterlimit="8" fill="none" fill-rule="evenodd" transform="matrix(-1 0 0 1 582.275 512)"/><path d="M598 511 604.443 544.731" stroke="#000000" stroke-width="2" stroke-miterlimit="8" fill="none" fill-rule="evenodd"/><rect x="563" y="376" width="56" height="54" stroke="#000000" stroke-width="2" stroke-linejoin="round" stroke-miterlimit="10" fill="none"/><path d="M570 402.5C570 391.178 579.178 382 590.5 382 601.822 382 611 391.178 611 402.5 611 413.822 601.822 423 590.5 423 579.178 423 570 413.822 570 402.5Z" stroke="#000000" stroke-width="2" stroke-linejoin="round" stroke-miterlimit="10" fill="none" fill-rule="evenodd"/><path d="M0 0 6.27538 32.5602" stroke="#000000" stroke-width="2" stroke-miterlimit="8" fill="none" fill-rule="evenodd" transform="matrix(-1 0 0 1 582.275 385)"/><path d="M599 384 605.443 417.731" stroke="#000000" stroke-width="2" stroke-miterlimit="8" fill="none" fill-rule="evenodd"/><text font-family="Times New Roman,Times New Roman_MSFontService,sans-serif" font-weight="400" font-size="16" transform="translate(567.669 450)">CH #2<tspan font-size="16" x="1.93994" y="128">CH #1</tspan></text><path d="M0 0 0.000104987 101.516" stroke="#000000" stroke-width="2" stroke-miterlimit="8" fill="none" fill-rule="evenodd" transform="matrix(1 0 0 -1 673 516.516)"/><path d="M655 422 640 416.5 655 411Z" fill-rule="evenodd"/><path d="M685.735 393.116 619 393" stroke="#000000" stroke-width="2" stroke-miterlimit="8" fill="none" fill-rule="evenodd"/><path d="M708 401 697 393.5 708 386Z" stroke="#000000" stroke-width="2" stroke-miterlimit="8" fill="none" fill-rule="evenodd"/><path d="M685 386 696 393.5 685 401Z" stroke="#000000" stroke-width="2" stroke-miterlimit="8" fill="none" fill-rule="evenodd"/><path d="M684.735 520.025 618 520" stroke="#000000" stroke-width="2" stroke-miterlimit="8" fill="none" fill-rule="evenodd"/><path d="M708 527 697 519.5 708 512Z" stroke="#000000" stroke-width="2" stroke-miterlimit="8" fill="none" fill-rule="evenodd"/><path d="M685 512 696 519.5 685 527Z" stroke="#000000" stroke-width="2" stroke-miterlimit="8" fill="none" fill-rule="evenodd"/><path d="M0 0 0.000104987 166.689" stroke="#000000" stroke-width="2" stroke-miterlimit="8" fill="none" fill-rule="evenodd" transform="matrix(1 0 0 -1 721 519.689)"/><path d="M0 0 12.9504 0.000104987" stroke="#000000" stroke-width="2" stroke-miterlimit="8" fill="none" fill-rule="evenodd" transform="matrix(-1 0 0 1 720.95 393)"/><path d="M0 0 12.9504 0.000104987" stroke="#000000" stroke-width="2" stroke-miterlimit="8" fill="none" fill-rule="evenodd" transform="matrix(-1 0 0 1 721.95 520)"/><path d="M639 514 654 519.5 639 525Z" fill-rule="evenodd"/><path d="M672.458 417.039 619 417" stroke="#000000" stroke-width="2" stroke-miterlimit="8" fill="none" fill-rule="evenodd"/><path d="M672.458 543.039 619 543" stroke="#000000" stroke-width="2" stroke-miterlimit="8" fill="none" fill-rule="evenodd"/><path d="M516 401 505 393.5 516 386Z" stroke="#000000" stroke-width="2" stroke-miterlimit="8" fill="none" fill-rule="evenodd"/><path d="M493 386 503 393.5 493 401Z" stroke="#000000" stroke-width="2" stroke-miterlimit="8" fill="none" fill-rule="evenodd"/><path d="M0 0 47.9494 0.000104987" stroke="#000000" stroke-width="2" stroke-miterlimit="8" fill="none" fill-rule="evenodd" transform="matrix(-1 0 0 1 563.949 394)"/><path d="M492.712 394.025 458 394" stroke="#000000" stroke-width="2" stroke-miterlimit="8" fill="none" fill-rule="evenodd"/><path d="M545 399 530 393.5 545 388Z" fill-rule="evenodd"/><path d="M0 0 84.0644 0.000104987" stroke="#000000" stroke-width="2" stroke-miterlimit="8" fill="none" fill-rule="evenodd" transform="matrix(-1 0 0 1 563.064 416)"/><path d="M533 411 547 416.5 533 422Z" fill-rule="evenodd"/><path d="M515 528 504 520.5 515 513Z" stroke="#000000" stroke-width="2" stroke-miterlimit="8" fill="none" fill-rule="evenodd"/><path d="M491 513 502 520.5 491 528Z" stroke="#000000" stroke-width="2" stroke-miterlimit="8" fill="none" fill-rule="evenodd"/><path d="M0 0 47.9494 0.000104987" stroke="#000000" stroke-width="2" stroke-miterlimit="8" fill="none" fill-rule="evenodd" transform="matrix(-1 0 0 1 562.949 520)"/><path d="M0 0 55.3243 0.000104987" stroke="#000000" stroke-width="2" stroke-miterlimit="8" fill="none" fill-rule="evenodd" transform="matrix(-1 0 0 1 491.324 520)"/><path d="M545 526 530 520 545 514Z" fill-rule="evenodd"/><path d="M563.93 543.116 479 543" stroke="#000000" stroke-width="2" stroke-miterlimit="8" fill="none" fill-rule="evenodd"/><path d="M532 537 547 542.5 532 548Z" fill-rule="evenodd"/><path d="M0 0 0.000104987 126.131" stroke="#000000" stroke-width="2" stroke-miterlimit="8" fill="none" fill-rule="evenodd" transform="matrix(1 0 0 -1 458 519.131)"/><path d="M479 517.614 479 416" stroke="#000000" stroke-width="2" stroke-miterlimit="8" fill="none" fill-rule="evenodd"/><path d="M373 606C373 597.716 379.492 591 387.5 591 395.508 591 402 597.716 402 606 402 614.284 395.508 621 387.5 621 379.492 621 373 614.284 373 606Z" stroke="#000000" stroke-width="2" stroke-miterlimit="8" fill="none" fill-rule="evenodd"/><path d="M379.5 595.5 401.5 607 379.5 618.5Z" stroke="#000000" stroke-width="1.33333" stroke-miterlimit="8" fill-rule="evenodd"/><path d="M356 607 414.779 607" stroke="#000000" stroke-width="2" stroke-miterlimit="8" fill="none" fill-rule="evenodd"/><path d="M356 652 414.429 652" stroke="#000000" stroke-width="2" stroke-miterlimit="8" fill="none" fill-rule="evenodd"/><path d="M356 606 356 652.382" stroke="#000000" stroke-width="2" stroke-miterlimit="8" fill="none" fill-rule="evenodd"/><text font-family="Times New Roman,Times New Roman_MSFontService,sans-serif" font-weight="400" font-size="16" transform="translate(369.444 690)">CWPs</text><path d="M373 652C373 643.716 379.492 637 387.5 637 395.508 637 402 643.716 402 652 402 660.284 395.508 667 387.5 667 379.492 667 373 660.284 373 652Z" stroke="#000000" stroke-width="2" stroke-miterlimit="8" fill="none" fill-rule="evenodd"/><path d="M379.5 640.5 401.5 652 379.5 663.5Z" stroke="#000000" stroke-width="1.33333" stroke-miterlimit="8" fill-rule="evenodd"/><path d="M461 606 461 652.382" stroke="#000000" stroke-width="2" stroke-miterlimit="8" fill="none" fill-rule="evenodd"/><path d="M461 629 478.737 629.464" stroke="#000000" stroke-width="2" stroke-miterlimit="8" fill="none" fill-rule="evenodd"/><path d="M337 629 356.432 629" stroke="#000000" stroke-width="2" stroke-miterlimit="8" fill="none" fill-rule="evenodd"/><path d="M0 0 0.000104987 206.221" stroke="#000000" stroke-width="2" stroke-miterlimit="8" fill="none" fill-rule="evenodd" transform="matrix(1 0 0 -1 337 629.221)"/><path d="M436.018 519.689 436 353" stroke="#000000" stroke-width="2" stroke-miterlimit="8" fill="none" fill-rule="evenodd"/><path d="M436.5 494.5 436.5 494.361 431.5 494.361 436.5 468.5 441.5 494.361 436.5 494.361 436.5 494.5Z" stroke="#000000" stroke-width="1.33333" stroke-miterlimit="8" fill-rule="evenodd"/><path d="M342 576 336.5 591 331 576Z" fill-rule="evenodd"/><path d="M0 0 337.105 0.230971" stroke="#000000" stroke-width="2" stroke-miterlimit="8" fill="none" fill-rule="evenodd" transform="matrix(1 0 0 -1 99 353.231)"/><path d="M349.5 353.5 349.5 353.5 349.5 358.5 325.5 353.5 349.5 348.5 349.5 353.5 349.5 353.5Z" stroke="#000000" stroke-width="1.33333" stroke-miterlimit="8" fill-rule="evenodd"/><text font-family="Times New Roman,Times New Roman_MSFontService,sans-serif" font-weight="400" font-size="16" transform="translate(257.006 347)">CWR<tspan font-size="16" x="37.2657" y="241">CWS</tspan></text><rect x="170" y="400" width="79" height="48" stroke="#000000" stroke-width="2" stroke-linejoin="round" stroke-miterlimit="10" fill="none"/><path d="M209 400 209 447.722" stroke="#000000" stroke-width="2" stroke-miterlimit="8" fill="none" fill-rule="evenodd"/><path d="M170 436 248.988 436" stroke="#000000" stroke-width="2" stroke-miterlimit="8" fill="none" fill-rule="evenodd"/><rect x="177" y="390" width="26" height="10" stroke="#000000" stroke-width="2" stroke-linejoin="round" stroke-miterlimit="10" fill="none"/><rect x="217" y="390" width="25" height="10" stroke="#000000" stroke-width="2" stroke-linejoin="round" stroke-miterlimit="10" fill="none"/><rect x="170" y="513" width="79" height="47" stroke="#000000" stroke-width="2" stroke-linejoin="round" stroke-miterlimit="10" fill="none"/><path d="M210 513 210 560.722" stroke="#000000" stroke-width="2" stroke-miterlimit="8" fill="none" fill-rule="evenodd"/><path d="M170 548 248.988 548" stroke="#000000" stroke-width="2" stroke-miterlimit="8" fill="none" fill-rule="evenodd"/><rect x="177" y="502" width="26" height="10" stroke="#000000" stroke-width="2" stroke-linejoin="round" stroke-miterlimit="10" fill="none"/><rect x="217" y="502" width="26" height="10" stroke="#000000" stroke-width="2" stroke-linejoin="round" stroke-miterlimit="10" fill="none"/><path d="M249 424 336.719 424" stroke="#000000" stroke-width="2" stroke-miterlimit="8" fill="none" fill-rule="evenodd"/><path d="M249 536 336.394 536" stroke="#000000" stroke-width="2" stroke-miterlimit="8" fill="none" fill-rule="evenodd"/><path d="M153 476 336.354 476" stroke="#000000" stroke-width="2" stroke-miterlimit="8" fill="none" fill-rule="evenodd"/><path d="M272 418 287 423.5 272 429Z" fill-rule="evenodd"/><path d="M272 471 287 476.5 272 482Z" fill-rule="evenodd"/><path d="M272 531 287 536.5 272 542Z" fill-rule="evenodd"/><path d="M153 484 142 476.5 153 469Z" stroke="#000000" stroke-width="2" stroke-miterlimit="8" fill="none" fill-rule="evenodd"/><path d="M130 469 141 476.5 130 484Z" stroke="#000000" stroke-width="2" stroke-miterlimit="8" fill="none" fill-rule="evenodd"/><text font-family="Times New Roman,Times New Roman_MSFontService,sans-serif" font-weight="400" font-size="16" transform="translate(188.266 464)">CT #2<tspan font-size="16" x="0.952225" y="115">CT #1</tspan></text><path d="M99 476 130.356 476" stroke="#000000" stroke-width="2" stroke-miterlimit="8" fill="none" fill-rule="evenodd"/><path d="M0 0 0.0866142 184.17" stroke="#000000" stroke-width="2" stroke-miterlimit="8" fill="none" fill-rule="evenodd" transform="matrix(-1 0 0 1 99.0866 353)"/><text font-family="Times New Roman,Times New Roman_MSFontService,sans-serif" font-weight="400" font-size="16" transform="translate(179.936 495)">BYPASS</text><path d="M153 432 142 424.5 153 417Z" stroke="#000000" stroke-width="2" stroke-miterlimit="8" fill="none" fill-rule="evenodd"/><path d="M130 417 141 424.5 130 432Z" stroke="#000000" stroke-width="2" stroke-miterlimit="8" fill="none" fill-rule="evenodd"/><path d="M153 424 169.979 424.008" stroke="#000000" stroke-width="2" stroke-miterlimit="8" fill="none" fill-rule="evenodd"/><path d="M100 424 129.698 424" stroke="#000000" stroke-width="2" stroke-miterlimit="8" fill="none" fill-rule="evenodd"/><path d="M153 544 142 536.5 153 529Z" stroke="#000000" stroke-width="2" stroke-miterlimit="8" fill="none" fill-rule="evenodd"/><path d="M130 529 141 536.5 130 544Z" stroke="#000000" stroke-width="2" stroke-miterlimit="8" fill="none" fill-rule="evenodd"/><path d="M153 536 170.375 536.021" stroke="#000000" stroke-width="2" stroke-miterlimit="8" fill="none" fill-rule="evenodd"/><path d="M98 536 129.491 536" stroke="#000000" stroke-width="2" stroke-miterlimit="8" fill="none" fill-rule="evenodd"/><path d="M755 606 820.075 606" stroke="#000000" stroke-width="2" stroke-miterlimit="8" fill="none" fill-rule="evenodd"/><path d="M438 614 427 606.5 438 599Z" stroke="#000000" stroke-width="2" stroke-miterlimit="8" fill="none" fill-rule="evenodd"/><path d="M415 599 426 606.5 415 614Z" stroke="#000000" stroke-width="2" stroke-miterlimit="8" fill="none" fill-rule="evenodd"/><path d="M438 607 460.851 607" stroke="#000000" stroke-width="2" stroke-miterlimit="8" fill="none" fill-rule="evenodd"/><path d="M438 659 427 651.5 438 644Z" stroke="#000000" stroke-width="2" stroke-miterlimit="8" fill="none" fill-rule="evenodd"/><path d="M415 644 425 651.5 415 659Z" stroke="#000000" stroke-width="2" stroke-miterlimit="8" fill="none" fill-rule="evenodd"/><path d="M438 652 460.851 652" stroke="#000000" stroke-width="2" stroke-miterlimit="8" fill="none" fill-rule="evenodd"/><path d="M755 613 744 605.5 755 598Z" stroke="#000000" stroke-width="2" stroke-miterlimit="8" fill="none" fill-rule="evenodd"/><path d="M732 598 743 605.5 732 613Z" stroke="#000000" stroke-width="2" stroke-miterlimit="8" fill="none" fill-rule="evenodd"/><path d="M708 606 730.851 606" stroke="#000000" stroke-width="2" stroke-miterlimit="8" fill="none" fill-rule="evenodd"/><path d="M755 659 744 651.5 755 644Z" stroke="#000000" stroke-width="2" stroke-miterlimit="8" fill="none" fill-rule="evenodd"/><path d="M732 644 743 651.5 732 659Z" stroke="#000000" stroke-width="2" stroke-miterlimit="8" fill="none" fill-rule="evenodd"/><path d="M708 652 730.851 652" stroke="#000000" stroke-width="2" stroke-miterlimit="8" fill="none" fill-rule="evenodd"/><text font-family="Times New Roman,Times New Roman_MSFontService,sans-serif" font-weight="400" font-size="16" transform="translate(925.293 335)">CHWS<tspan fill="#0000FF" font-weight="700" font-size="16" x="-23.9013" y="39">port_b</tspan><tspan font-weight="700" font-size="13" x="-62.3577" y="320">T</tspan></text><path d="M0 0 0.000104987 11.0745" stroke="#000000" stroke-width="1.33333" stroke-miterlimit="8" fill="none" fill-rule="evenodd" transform="matrix(-1 0 0 1 867.5 631.5)"/><text font-family="Times New Roman,Times New Roman_MSFontService,sans-serif" font-weight="700" font-size="13" transform="translate(863.103 377)">T</text><path d="M0 0 0.000104987 11.0745" stroke="#000000" stroke-width="1.33333" stroke-miterlimit="8" fill="none" fill-rule="evenodd" transform="matrix(-1 0 0 1 868.5 353.5)"/><path d="M0 0 0.000104987 107.214" stroke="#000000" stroke-width="2" stroke-miterlimit="8" fill="none" fill-rule="evenodd" transform="matrix(1 0 0 -1 479 629.214)"/><path d="M0 0 0.000104987 108.378" stroke="#000000" stroke-width="2" stroke-miterlimit="8" fill="none" fill-rule="evenodd" transform="matrix(1 0 0 -1 673 630.378)"/><path d="M835 495 842.5 484 850 495Z" stroke="#000000" stroke-width="2" stroke-miterlimit="8" fill="none" fill-rule="evenodd"/><path d="M850 472 842.5 483 835 472Z" stroke="#000000" stroke-width="2" stroke-miterlimit="8" fill="none" fill-rule="evenodd"/><path d="M842 495 842 631.891" stroke="#000000" stroke-width="2" stroke-miterlimit="8" fill="none" fill-rule="evenodd"/><rect x="354" y="536" width="33" height="33" stroke="#000000" stroke-width="2" stroke-linejoin="round" stroke-miterlimit="10" fill="none"/><path d="M386.581 569.344C377.893 577.295 364.178 577.287 354.315 569.324" stroke="#000000" stroke-width="2" stroke-miterlimit="8" fill="none" fill-rule="evenodd"/><path d="M354.676 535.696C363.441 527.333 377.685 527.415 387.603 535.885" stroke="#000000" stroke-width="2" stroke-miterlimit="8" fill="none" fill-rule="evenodd"/><path d="M337 553 354.735 553" stroke="#000000" stroke-width="2" stroke-miterlimit="8" fill="none" fill-rule="evenodd"/><text font-family="Times New Roman,Times New Roman_MSFontService,sans-serif" font-weight="400" font-size="16" transform="translate(342.07 521)">EXP. TANK</text><rect x="784" y="535" width="33" height="33" stroke="#000000" stroke-width="2" stroke-linejoin="round" stroke-miterlimit="10" fill="none"/><path d="M816.203 568.476C807.515 576.428 793.799 576.419 783.937 568.457" stroke="#000000" stroke-width="2" stroke-miterlimit="8" fill="none" fill-rule="evenodd"/><path d="M784.297 534.828C793.062 526.465 807.306 526.547 817.225 535.018" stroke="#000000" stroke-width="2" stroke-miterlimit="8" fill="none" fill-rule="evenodd"/><path d="M817 552 831.832 552 831.832 632.947" stroke="#000000" stroke-width="2" stroke-miterlimit="8" fill="none" fill-rule="evenodd"/><text font-family="Times New Roman,Times New Roman_MSFontService,sans-serif" font-weight="400" font-size="16" transform="translate(701.583 557)">EXP. TANK</text><path d="M842.5 651C842.5 646.858 845.634 643.5 849.5 643.5 853.366 643.5 856.5 646.858 856.5 651 856.5 655.142 853.366 658.5 849.5 658.5 845.634 658.5 842.5 655.142 842.5 651Z" stroke="#000000" stroke-width="1.33333" stroke-miterlimit="8" fill="#FFFFFF" fill-rule="evenodd"/><text font-family="Times New Roman,Times New Roman_MSFontService,sans-serif" font-weight="700" font-size="13" transform="translate(842.835 655)">M</text><path d="M0 0 0.000104987 11.0745" stroke="#000000" stroke-width="1.33333" stroke-miterlimit="8" fill="none" fill-rule="evenodd" transform="matrix(-1 0 0 1 849.5 631.5)"/></g></svg>